<?xml version="1.0" encoding="UTF-8"?>
<svg id="Layer_1" data-name="Layer 1" xmlns="http://www.w3.org/2000/svg" xmlns:xlink="http://www.w3.org/1999/xlink" viewBox="0 0 335.3 770.07" width="50" height="50">
  <defs>
    <style>
      .cls-1 {
        filter: url(#drop-shadow-1);
      }

      .cls-2 {
        fill: #ec806b;
      }

      .cls-3 {
        fill: #d96e55;
      }

      .cls-4 {
        fill: #e0e1d6;
      }

      .cls-5 {
        fill: #f9f9f7;
      }

      .cls-6 {
        fill: #f4f4ed;
      }

      .cls-7 {
        fill: #818181;
      }

      .cls-8 {
        fill: #d3d4c6;
      }

      .cls-9 {
        fill: #c2c2b3;
      }

      .cls-10 {
        fill: #eeeee6;
      }

      .cls-11 {
        fill: #f4f4f2;
      }

      .cls-12 {
        fill: #4c4c4c;
      }

      .cls-13 {
        fill: #e6e8dc;
      }
    </style>
    <filter id="drop-shadow-1" x="-3.19" y="-3.23" width="347.52" height="782.4" filterUnits="userSpaceOnUse">
      <feOffset dx="3" dy="3"/>
      <feGaussianBlur result="blur" stdDeviation="2"/>
      <feFlood flood-color="#000" flood-opacity=".3"/>
      <feComposite in2="blur" operator="in"/>
      <feComposite in="SourceGraphic"/>
    </filter>
  </defs>
  <g class="cls-1">
    <g>
      <g>
        <g>
          <g>
            <path class="cls-9" d="M186.64,741.92s-2.11,21.87,12.66,19.77c14.78-2.1,10.55-26.08,10.55-26.08l6.69-.84s7.04,28.18-15.13,34.5c-22.16,6.31-22.51-26.5-22.51-26.5l7.74-.84Z"/>
            <path class="cls-8" d="M20.08,487.61s-26.84,2.3-18.41,107.36c8.44,105.06,47.55,146.47,155.68,150.31,108.13,3.83,169.23-46.52,174.85-111.2,5.25-60.37,7.67-153.37-25.31-156.44-32.97-3.07-286.81,9.97-286.81,9.97Z"/>
            <path class="cls-7" d="M238.13,23.9l-.51-9.71s21.99-17.39,49.08-1.02l1.02,10.22-49.59.51Z"/>
            <path class="cls-7" d="M35.67,23.9l-.51-9.71s21.99-17.39,49.08-1.02l1.02,10.22-49.6.51Z"/>
            <path class="cls-8" d="M298.46,272.38s15.34-20.45,15.59-60.84c.08-12.69,6.14-139.57-2.3-161.81-8.43-22.24-39.88-54.45-83.59-23.01-43.71,31.44,70.3,245.66,70.3,245.66Z"/>
            <path class="cls-8" d="M25.7,260.1s-7.92-21.98-11.25-50.1c-1.49-12.61-7.67-138.04.77-160.28C23.65,27.48,55.09-4.73,98.8,26.71c43.71,31.44-73.1,233.39-73.1,233.39Z"/>
            <path class="cls-13" d="M46.41,136.38s15.84-92.03,53.68-119.63c37.83-27.61,120.66-13.29,134.46,10.74,13.81,24.03,44.48,94.07,58.79,163.6,14.31,69.53,40.39,174.33,15.34,352.26-25.05,177.92-119.12,199.9-151.34,191.72-32.21-8.18-145.71-48.57-141.62-300.11,4.09-251.54,30.67-298.57,30.67-298.57Z"/>
            <polygon class="cls-12" points="46.41 188.53 52.03 205.4 270.85 203.36 276.47 184.44 46.41 188.53"/>
            <path class="cls-5" d="M61.62,581.94c-2.05-27.86-4.09-53.17,33.74-50.1,41.92,3.07,75.79,10.73,120.65,1.02,30.66-6.64,55.35-7.28,53.3,34.64-2.04,36.81-23.65,44.1-55.35,49.21-36.81,6.13-149.03,14.82-152.35-34.77"/>
            <polygon class="cls-12" points="301.01 527.49 311.36 377.95 299.1 364.53 301.01 527.49"/>
            <polyline class="cls-12" points="299.48 349.19 307.53 354.56 287.97 218.44 298.71 347.66"/>
            <polygon class="cls-12" points="39.5 224.57 34.52 348.81 26.08 354.18 39.5 224.57"/>
            <polygon class="cls-12" points="21.48 377.56 32.22 371.05 36.05 531.71 21.48 377.56"/>
            <g>
              <path class="cls-6" d="M53.01,673.73c.12,4.03-5.44,7.3-12.16,7.3s-11.95-3.27-12.16-7.3c-1.03-19.82,3.9-31.61,10.61-31.61s12.97,7.07,13.71,31.61Z"/>
              <path class="cls-3" d="M51.39,672.62c0,3.49-4.72,6.33-10.54,6.33s-10.54-2.84-10.54-6.33,2.61-7.09,8.44-7.09,12.65,3.6,12.65,7.09Z"/>
              <path class="cls-2" d="M33.26,672.31c-.36-1.72,1.67-3.59,4.53-4.2,2.86-.6,5.47.3,5.83,2.02.36,1.72-.54,3.76-3.41,4.36-2.86.6-6.59-.46-6.95-2.17Z"/>
            </g>
            <g>
              <path class="cls-6" d="M309.66,673.73c.12,4.03-5.44,7.3-12.16,7.3s-11.95-3.27-12.16-7.3c-1.03-19.82,3.9-31.61,10.61-31.61s12.97,7.07,13.71,31.61Z"/>
              <path class="cls-3" d="M308.04,672.62c0,3.49-4.72,6.33-10.54,6.33s-10.54-2.84-10.54-6.33,2.61-7.09,8.44-7.09,12.65,3.6,12.65,7.09Z"/>
              <path class="cls-2" d="M289.92,672.31c-.36-1.72,1.67-3.59,4.53-4.2,2.86-.6,5.47.3,5.83,2.02.36,1.72-.55,3.76-3.41,4.36-2.86.6-6.59-.46-6.95-2.17Z"/>
            </g>
          </g>
          <g>
            <path class="cls-4" d="M78.49,155.94c49.08-2.56,58.28-17.39,69.53-31.7,8.08-10.29,9.56-71.03,9.76-104.38l-.46-18.17c-17.44.03-34.75,2.96-48.46,9.8-30.5,34.23-47.28,118.75-47.76,132.69-.51,14.83,17.38,11.76,17.38,11.76Z"/>
            <path class="cls-4" d="M173.58,124.24c11.25,14.32,20.45,29.14,69.53,31.7,0,0,17.89,3.06,17.38-11.76-.47-13.9-17.15-97.97-47.48-132.4-13.3-5.54-30.83-9.2-48.73-9.95l-.46,18.03c.2,33.35,1.68,94.09,9.76,104.38Z"/>
          </g>
          <polygon class="cls-13" points="157.32 1.68 157.22 .13 164.38 0 164.28 1.82 161.06 6.65 157.32 1.68"/>
        </g>
        <path class="cls-11" d="M231.99,253.71c0,114.27-88.38,243.1-134.97,243.1s-33.74-235.05-33.74-243.1,5.56-26.84,52.15-26.84,116.57,0,116.57,26.84Z"/>
      </g>
      <path class="cls-12" d="M172.69,147.63c0,4.87-4.81,8.82-10.74,8.82s-10.74-3.95-10.74-8.82,4.81-8.82,10.74-8.82,10.74,3.95,10.74,8.82Z"/>
      <g>
        <path class="cls-10" d="M23.46,216.33s6.52-12.21,10.93-13.04c3.04-.57,3.83,4.73-.38,10.16-6.39,8.24-8.63,9.97-8.63,9.97l-1.92-7.09Z"/>
        <path class="cls-10" d="M3.46,228.92c-5.99,10.23-3.33,19.58,1.42,22.36,4.75,2.78,13.46-3.26,19.45-13.5,5.99-10.23,7-20.79,2.24-23.57-4.75-2.78-17.12,4.46-23.12,14.7Z"/>
        <path class="cls-12" d="M12.97,234.31c-4.45,7.18-4.56,12.78-2.67,13.99,1.89,1.21,7.02-3.64,11.47-10.81,4.44-7.18,6.52-13.97,4.63-15.17-1.89-1.21-8.98,4.82-13.43,12Z"/>
      </g>
      <g>
        <path class="cls-10" d="M304.11,216.33s-6.52-12.21-10.93-13.04c-3.04-.57-3.84,4.73.38,10.16,6.4,8.24,8.63,9.97,8.63,9.97l1.91-7.09Z"/>
        <path class="cls-10" d="M324.12,228.92c5.99,10.23,3.33,19.58-1.42,22.36-4.75,2.78-13.46-3.26-19.45-13.5-5.99-10.23-6.99-20.79-2.24-23.57s17.12,4.46,23.11,14.7Z"/>
        <path class="cls-12" d="M314.6,234.31c4.44,7.18,4.56,12.78,2.67,13.99-1.89,1.21-7.02-3.64-11.47-10.81-4.45-7.18-6.52-13.97-4.64-15.17,1.89-1.21,8.98,4.82,13.44,12Z"/>
      </g>
      <path class="cls-12" d="M66.96,581.07c-1.93-24.39-3.86-46.54,31.86-43.86,39.59,2.69,71.57,9.4,113.92.9,28.95-5.81,52.26-6.38,50.33,30.32-1.93,32.22-22.32,38.59-52.25,43.07-34.76,5.37-140.72,12.98-143.85-30.43"/>
    </g>
    <path class="cls-8" d="M62.89,629.87s50.61,92.79,101.23,95.86c50.61,3.07,91.26-55.21,103.91-97.77,0,0-94.33,52.53-205.14,1.92Z"/>
    <path class="cls-13" d="M133.45,647.89s32.21-.77,32.21,70.94l8.05-.38s1.53-66.34,30.67-74.01c0,0-58.28-15.34-70.94,3.45Z"/>
    <path class="cls-6" d="M134.34,715.12l70.56.77s-31.44,55.98-70.56-.77Z"/>
  </g>
</svg>