<?xml version="1.0" encoding="UTF-8"?>
<svg id="Layer_1" data-name="Layer 1" xmlns="http://www.w3.org/2000/svg" xmlns:xlink="http://www.w3.org/1999/xlink" viewBox="0 0 342.33 664.65" width="50" height="50">
  <defs>
    <style>
      .cls-1 {
        fill: #364d64;
      }

      .cls-2 {
        filter: url(#drop-shadow-1);
      }

      .cls-3 {
        fill: #1e1b1b;
      }

      .cls-4 {
        fill: #4a6179;
      }

      .cls-5 {
        fill: #1e2d3d;
      }

      .cls-6 {
        fill: #d3d4c6;
      }
    </style>
    <filter id="drop-shadow-1" x="-3.03" y="-3.15" width="354.48" height="676.8" filterUnits="userSpaceOnUse">
      <feOffset dx="3" dy="3"/>
      <feGaussianBlur result="blur" stdDeviation="2"/>
      <feFlood flood-color="#000" flood-opacity=".3"/>
      <feComposite in2="blur" operator="in"/>
      <feComposite in="SourceGraphic"/>
    </filter>
  </defs>
  <g class="cls-2">
    <path class="cls-1" d="M301.18,454.26c-14.82-74.06-9.88-139.9-4.94-200.8,2.8-34.45,6.58-103.69,1.65-138.25C292.98,80.85,265.26.98,169.53.04v-.04c-.28,0-.55.02-.84.02s-.55-.02-.83-.02v.04C72.12.98,44.41,80.85,39.5,115.21c-4.93,34.57-1.15,103.8,1.65,138.25,4.94,60.9,9.88,126.74-4.94,200.8-14.82,74.06,6.58,138.25,24.69,162.94,38.38,52.33,100.34,47.32,108.22,47.32s68.99,5.01,107.37-47.32c18.1-24.69,39.49-88.88,24.69-162.94Z"/>
    <path class="cls-4" d="M62.13,229.59S42.38,61.72,149.77,54.31c107.4-7.4,129.62,43.2,125.91,172.82l-213.55,2.46Z"/>
    <g>
      <g>
        <g>
          <path class="cls-1" d="M47.73,260.05S0,258.4,0,299.54l52.67-14.81-4.94-24.69Z"/>
          <path class="cls-1" d="M294.6,260.05s47.73-1.65,47.73,39.49l-52.67-14.81,4.94-24.69Z"/>
        </g>
        <path class="cls-5" d="M88.05,155.53l24.69-14.81,4.94-66.65s-29.63,18.51-29.63,81.47Z"/>
        <path class="cls-5" d="M253.46,156.77l-24.69-14.81-4.94-66.66s29.62,18.52,29.62,81.47Z"/>
        <path class="cls-3" d="M76.94,316s76.53-38.27,187.63,0c0,0,3.7,149.36,0,167.88,0,0,19.75-29.62,19.75-103.69s2.65-145.27-9.87-165.41c-28.39-45.68-207.38-40.73-212.32,14.81-3.72,41.88-11.11,187.63,2.47,222.19l13.58,34.57-1.23-170.35Z"/>
        <path class="cls-6" d="M57.2,81.47l35.79-23.46,16.05-37.03s-40.73,22.22-51.84,60.48Z"/>
        <path class="cls-6" d="M276.92,81.47l-35.8-23.46-16.05-37.03s40.74,22.22,51.85,60.48Z"/>
      </g>
      <path class="cls-3" d="M100.4,505.28s115.22,4.94,138.25-3.29c0,0,6.17,106.57-44.44,109.04-50.61,2.47-99.98,8.23-93.81-105.75Z"/>
      <path class="cls-4" d="M207.91,338.65c2.47,52.38-53.45,114.21-84.39,115.67-30.94,1.46-27.49-106.69-27.66-110.38-.17-3.69,3.11-12.48,34.06-13.93,30.95-1.46,77.42-3.66,78,8.65Z"/>
    </g>
    <path class="cls-4" d="M256.51,549.27c-8.79,35.05-10.73,64.77-4.34,66.37,6.39,1.6,23.17-17.3,31.96-52.36,8.78-35.05,6.25-72.97-.15-74.57-6.4-1.6-18.7,25.51-27.48,60.56Z"/>
    <path class="cls-4" d="M79.25,549.27c8.79,35.05,10.73,64.77,4.33,66.37-6.39,1.6-23.17-17.3-31.95-52.36-8.79-35.05-6.25-72.97.14-74.57,6.39-1.6,18.7,25.51,27.48,60.56Z"/>
    <path class="cls-1" d="M77.97,567.61c0,6.14-4.33,10.29-9.66,10.29s-9.67-4.15-9.67-10.29,3.51-9.26,8.85-9.26,10.49,3.13,10.49,9.26Z"/>
    <path class="cls-4" d="M63.83,573.87c-3.39-3.13-3.51-7.67-.82-10.67,2.69-3,7.17-3.31,10.56-.18,3.39,3.13,3.35,6.69.66,9.68-2.69,2.99-7.01,4.3-10.41,1.17Z"/>
  </g>
</svg>