<?xml version="1.0" encoding="UTF-8"?>
<svg id="Layer_1" data-name="Layer 1" xmlns="http://www.w3.org/2000/svg" version="1.1" viewBox="0 0 1080 1080">
  <defs>
    <style>
      .cls-1 {
        fill: #fff;
      }

      .cls-1, .cls-2 {
        fill-rule: evenodd;
        stroke-width: 0px;
      }

      .cls-2 {
        fill: #000;
      }
    </style>
  </defs>
  <path class="cls-1" d="M228.4,596v10l-50,2c-16,2-22,6-20,16,0,10,4,14,22,14l50-2v10l-50,2c-22,0-30-6-30-24-2-16,6-24,28-26l50-2h0Z"/>
  <polygon class="cls-1" points="266.4 769.8 192.4 797.8 188.4 785.8 238.4 731.9 238.4 731.9 176.4 755.8 172.4 747.8 246.4 719.9 250.4 731.9 200.4 785.8 200.4 785.8 262.4 759.8 266.4 769.8 266.4 769.8"/>
  <polygon class="cls-1" points="254.4 889.7 248.4 881.7 306.3 829.8 312.3 837.8 254.4 889.7 254.4 889.7"/>
  <polygon class="cls-1" points="356.3 967.7 346.3 961.7 362.3 881.7 372.3 887.7 356.3 957.7 356.3 957.7 404.3 905.7 414.2 909.7 356.3 967.7 356.3 967.7"/>
  <polygon class="cls-1" points="466.2 1003.6 476.2 925.7 516.2 931.7 514.2 939.7 484.2 935.7 482.2 961.7 510.2 963.7 508.2 973.7 480.2 969.7 478.2 997.6 508.2 999.6 508.2 1009.6 466.2 1003.6 466.2 1003.6"/>
  <path class="cls-1" d="M600.1,935.7l14-4c8,0,12,4,14,10,0,6-2,14-8,16l-16,2-4-24h0ZM618.1,965.7c4,0,10-2,14,8,2,10,4,20,8,24l10-2c-2-4-6-16-6-18-4-16-8-18-18-18h0c10-4,12-12,10-20-2-10-8-20-22-16l-26,6,16,75.9,10-2-8-36,12-2h0Z"/>
  <path class="cls-1" d="M732,935.7v2c6,10,14,8,20,6,6-6,10-12,4-20-10-14-38,8-50-12-8-12-4-24,8-32,12-6,22-6,30,8l-8,6c-6-8-10-10-18-6-6,4-10,10-4,16,8,16,36-6,50,16,10,12,2,24-8,30-20,14-30-2-32-8l8-6h0Z"/>
  <polygon class="cls-1" points="851.9 857.8 845.9 865.7 782 819.8 788 811.8 851.9 857.8 851.9 857.8"/>
  <polygon class="cls-1" points="839.9 705.9 847.9 707.9 841.9 727.9 907.9 751.8 903.9 759.8 837.9 737.9 831.9 755.8 823.9 753.8 839.9 705.9 839.9 705.9"/>
  <polygon class="cls-1" points="851.9 606 853.9 596 899.9 619.9 929.8 619.9 929.8 629.9 899.9 629.9 851.9 647.9 851.9 637.9 889.9 623.9 851.9 606 851.9 606"/>
  <path class="cls-1" d="M314.3,70.4c34,0,46,18,46,64s-12,64-46,64h-44v-127.9h44ZM296.3,176.3h14c20,0,22-12,22-42s-2-44-22-44h-14v85.9h0Z"/>
  <polygon class="cls-1" points="378.3 70.4 448.2 70.4 448.2 92.3 406.3 92.3 406.3 118.3 446.2 118.3 446.2 142.3 406.3 142.3 406.3 176.3 448.2 176.3 448.2 198.3 378.3 198.3 378.3 70.4 378.3 70.4"/>
  <path class="cls-1" d="M526.2,170.3h-36l-8,28h-26l36-127.9h34l36,127.9h-28l-8-28h0ZM522.2,148.3l-14-54-14,54h28Z"/>
  <polygon class="cls-1" points="574.1 70.4 600.1 70.4 600.1 126.3 634.1 70.4 662.1 70.4 624.1 128.3 662.1 198.3 630.1 198.3 600.1 136.3 600.1 198.3 574.1 198.3 574.1 70.4 574.1 70.4"/>
  <polygon class="cls-1" points="674 70.4 700 70.4 700 198.3 674 198.3 674 70.4 674 70.4"/>
  <path class="cls-1" d="M809.9,619.9c0,147.9-119.9,269.8-269.8,269.8s-269.8-121.9-269.8-269.8V224.2h539.6v395.7h0Z"/>
  <g>
    <polygon class="cls-2" points="348.3 596 314.3 655.9 384.3 655.9 348.3 596 348.3 596"/>
    <polygon class="cls-2" points="480.2 655.9 428.2 655.9 370.3 558 398.3 512 480.2 655.9 480.2 655.9"/>
    <polygon class="cls-2" points="574.1 655.9 524.2 655.9 418.2 474.1 446.2 430.1 574.1 655.9 574.1 655.9"/>
    <polygon class="cls-2" points="670 655.9 620.1 655.9 468.2 392.1 492.2 348.1 670 655.9 670 655.9"/>
    <polygon class="cls-2" points="766 655.9 714 655.9 514.2 308.2 542.1 264.2 766 655.9 766 655.9"/>
  </g>
  <polygon class="cls-1" points="746 114.3 748 198.3 724 198.3 724 70.4 756 70.4 788 148.3 788 70.4 809.9 70.4 809.9 198.3 782 198.3 746 114.3 746 114.3"/>
</svg>