<?xml version="1.0" encoding="UTF-8"?>
<svg id="Layer_1" data-name="Layer 1" xmlns="http://www.w3.org/2000/svg" version="1.1" viewBox="0 0 64.1 56.1">
  <defs>
    <style>
      .cls-1 {
        fill: #fff;
        stroke-width: 0px;
      }
    </style>
  </defs>
  <path class="cls-1" d="M22.9,14.9c-2,.7-4.1-.3-4.9-2.2-.7-2,.3-4.1,2.2-4.9,0,0,0,0,0,0L41,.2c1.9-.7,4.1.2,4.8,2.2,0,0,0,0,0,0,.7,1.9-.2,4-2.1,4.7,0,0,0,0-.1,0l-20.8,7.7Z"/>
  <path class="cls-1" d="M22.9,26.2c-2,.7-4.1-.3-4.9-2.2s.3-4.1,2.2-4.9h0s20.8-7.6,20.8-7.6c1.9-.7,4.1.2,4.8,2.1,0,0,0,0,0,.1.7,1.9-.2,4-2.1,4.7,0,0,0,0-.1,0l-20.8,7.7Z"/>
  <path class="cls-1" d="M22.9,37.4c-2,.7-4.1-.3-4.9-2.2-.7-2,.3-4.1,2.2-4.9,0,0,0,0,0,0l20.8-7.6c1.9-.7,4.1.2,4.8,2.1,0,0,0,0,0,.1.7,1.9-.2,4-2.1,4.7,0,0,0,0-.1,0l-20.8,7.7Z"/>
  <polygon class="cls-1" points="0 46.8 6.9 46.8 6.9 48.7 2.4 48.7 2.4 50.2 6.8 50.2 6.8 52.2 2.4 52.2 2.4 53.9 7 53.9 7 55.9 0 55.9 0 46.8"/>
  <rect class="cls-1" x="17.8" y="46.8" width="2.5" height="9.1"/>
  <path class="cls-1" d="M29.3,47v1.9c-2.1-1.1-5.2-.7-5.2,2.3-.1,3.1,3.1,3.6,5.2,2.5v2c-3.6,1.1-7.8,0-7.8-4.5,0-4.3,4.4-5.5,7.8-4.1Z"/>
  <path class="cls-1" d="M36.7,46.9v1.9c-1.4-.7-3.8-.7-3.8.4,0,1.7,4.3.5,4.3,3.9s-4,3.4-6.6,2.6v-2c1.8.7,4.2,1,4.2-.4s-4.3-.7-4.3-3.9,3.3-3.4,6.3-2.5Z"/>
  <path class="cls-1" d="M44.1,46.9v1.9c-1.4-.7-3.8-.7-3.8.4,0,1.7,4.3.5,4.3,3.9s-4,3.4-6.6,2.6v-2c1.8.7,4.1,1,4.1-.4s-4.3-.7-4.3-3.9c0-2.7,3.3-3.4,6.3-2.5Z"/>
  <polygon class="cls-1" points="55.6 46.8 58.7 46.8 61.7 52.6 61.7 46.8 64.1 46.8 64.1 55.9 61.1 55.9 57.9 49.9 57.9 55.9 55.6 55.9 55.6 46.8"/>
  <path class="cls-1" d="M47.9,51.3c0,1.4.6,3,1.9,3s2-1.5,2-3-.6-3-2-3c-1.3,0-1.9,1.5-1.9,3ZM49.8,46.5c2.6,0,4.6,1.4,4.6,4.7s-2,4.7-4.6,4.7-4.5-1.5-4.5-4.7c0-3.3,2-4.7,4.5-4.7h0Z"/>
  <path class="cls-1" d="M8.8,46.8h4.4c1.3,0,3,.5,3,2.4,0,1.1-.6,2-1.7,2.3.4.1.7.4.8.8,0,.1,1.3,3.6,1.3,3.7h-2.6l-.9-2.8c-.1-.4-.5-.6-.8-.6-.5,0-1.1-.1-1.1,0v3.4h-2.4v-9.1ZM11.2,50.6h1.3c.6,0,1.1-.4,1.2-1,0,0,0,0,0,0,0-.6-.5-1-1.2-1h-1.3v2Z"/>
</svg>