<?xml version="1.0" encoding="UTF-8"?>
<svg id="Layer_1" data-name="Layer 1" xmlns="http://www.w3.org/2000/svg" viewBox="0 0 300 280.93">
  <defs>
    <style>
      .cls-1 {
        fill: #fff;
        stroke-width: 0px;
      }
    </style>
  </defs>
  <path class="cls-1" d="M121.92,0v81.27l23.14,57.67V57.76L121.92,0h0ZM178.46,0l-23.14,57.76v81.18l23.14-57.67V0ZM86.92,27.53v81.18l52.16,33.41-33.31-50.57v-51.97l-18.85-12.04h0ZM213.45,27.53l-18.76,12.04v51.97l-33.41,50.57,52.16-33.41V27.53h0ZM56.97,60.56v87.53h78.94l-61.49-24.82v-62.71h-17.45,0ZM226.05,60.56v62.71l-61.49,24.82h78.94V60.56h-17.45,0Z"/>
  <path class="cls-1" d="M156.17,157.58c-7.58,0-17.43.67-22.74,3.83-5.75,3.43-6.48,8.43-6.48,14.94v3.24h-6.25v8.61h6.25v34.14h16.04v-34.14h16.78v34.14h16.11v-34.22h16.78v34.22l16.04-.07v-42.68h-32.82v-6.77c0-3.89.71-6.84,7.87-6.84.67,0,2.2.12,3.53.29.15-3.48,1.98-6.58,3.97-8.24-2.11-.17-4.23-.22-5.59-.22-5.95,0-14.07.44-19.35,3.61-5.77,3.43-6.55,8.43-6.55,14.94v3.24h-16.78v-6.77c0-4.67,1.73-6.84,9.2-6.84.7,0,2.4.07,3.83.22,1.04-3.23,3.16-6.19,6.48-8.46-1.83-.13-3.86-.15-6.33-.15h0ZM39.62,158.47c-23.53,0-38.7,11.62-38.7,32.82s15.82,32.01,35.39,32.01c6.78,0,13.59-1.17,20.09-2.94v-30.9h-16.19v23.77c-1.23.28-2.6.29-3.83.29-13.64,0-17.66-13.37-17.66-24.94s7.18-19.13,20.68-19.13c5.27,0,11.74.98,17,3.61v-12.07c-5.81-1.55-14-2.5-16.78-2.5h0ZM106.21,159.5c-4.76,0-8.61,3.34-8.61,7.43s3.85,7.36,8.61,7.36,8.68-3.28,8.68-7.36-3.93-7.43-8.68-7.43ZM200.98,159.5c-4.78,0-8.68,3.34-8.68,7.43s3.91,7.36,8.68,7.36,8.54-3.28,8.54-7.36-3.79-7.43-8.54-7.43ZM220.12,160.09v19.5h-6.25v8.61h6.25v16.41c0,6.52.74,11.57,6.48,15.01,5.31,3.16,11.78,3.61,17.73,3.61,1.26,0,3.4-.06,5.96-.22v-9.57c-3.04.55-5.77.59-6.48.59-7.72,0-7.65-5.36-7.65-11.41v-14.42h14.13v-8.61h-14.13v-19.5h-16.04,0ZM255.66,160.09v62.18h16.11v-26.56c0-4.44.94-7.73,5.59-7.73,4.11,0,5.67,2.18,5.67,9.05v25.24l16.04.07v-25.61c0-4.46.58-9.5-2.58-13.02-3.43-3.9-7.98-5.37-13.1-5.37-4.09,0-8.57.84-11.63,3.9v-22.15h-16.11ZM89.8,178.33c-5.95,0-8.64,5.47-10.01,10.3v-9.12h-16.04v42.75h16.04v-20.53c0-6.58,3.65-12.51,8.68-12.51,1.57,0,3.2.36,4.78.74v-11.33c-.75-.14-2.34-.29-3.46-.29h0ZM98.19,179.58v42.75h16.04v-42.75h-16.04Z"/>
  <path class="cls-1" d="M208.3,241.24c-3.71,0-6.66.91-8.97,2.77-2.3,1.84-3.44,4.22-3.44,7.1s1.05,5.07,3.14,6.8c1.37,1.08,3.63,2.26,6.88,3.51,3.25,1.24,5.7,2.16,6.8,2.84,2.48,1.55,3.66,3.41,3.66,5.53,0,2.28-.91,4.18-2.47,5.53-1.57,1.35-3.76,1.87-6.8,1.87-5.3,0-9.67-3.29-10.16-3.66l-2.47,2.91c.86.75,5.1,4.48,12.63,4.48,4.33,0,7.73-1.02,10.16-3.21,2.22-2.03,3.29-4.83,3.29-8.15,0-2.74-1.12-5.06-3.29-7.03-1.32-1.14-3.24-2.25-5.83-3.29-2.15-.81-4.5-1.58-6.65-2.39-3.33-1.53-4.93-3.5-4.93-5.83,0-1.77.66-3.28,2.24-4.48,1.59-1.21,3.66-1.72,6.5-1.72,1.8,0,3.29.26,4.56.67,2.8.95,4.25,2.53,4.48,2.77l2.77-2.47c-.59-.52-2.42-2.48-5.98-3.66-1.64-.54-3.7-.9-6.13-.9h0ZM0,241.91v20.25c0,4.28.09,6.94.3,8,.41,2.93,1.54,5.21,3.36,6.95,2.61,2.53,6.93,3.81,11.36,3.81s8.75-1.21,11.29-3.66c1.75-1.66,2.84-3.89,3.36-6.65.19-1.39.3-3.92.3-7.62v-21.08h-4.04l-.07,21.38c0,1.98.06,3.33.07,4.04-.13,3.45-1.08,5.97-2.77,7.55-1.67,1.58-4.91,2.32-8,2.32-3.35,0-6.77-.84-8.67-2.62-1.59-1.55-2.32-4.4-2.32-8.52v-24.14H0h0ZM38.42,241.91v38.42h4.04v-31.54l23.39,31.54h4.78v-38.42h-4.04l.07,31.99-23.69-31.99h-4.56ZM78.85,241.91v38.42h4.26v-38.42h-4.26ZM88.27,241.91l14.72,38.42h4.71l14.95-38.42h-4.48l-12.71,33.63-12.41-33.63h-4.78ZM126.98,241.91v38.42h27.58v-3.81h-23.39v-14.65h20.03v-3.59h-20.03v-12.71h22.2v-3.66h-26.38,0ZM160.54,241.91v38.42h4.19v-16.96h8.22c3.19,0,5.38.52,6.58,1.64.55.53,1.2,1.39,1.87,2.62.2.39.67,1.38,1.42,2.91l4.63,9.79h4.33l-6.35-13.23c-1.27-2.62-3.36-4.86-4.93-5.01,2.05-.33,4.42-1.63,5.38-2.54,1.9-1.75,2.77-4.14,2.77-7.03,0-3.16-1.1-5.73-3.36-7.85-1.38-1.27-3.23-2.16-5.61-2.54-1.23-.17-3.34-.22-6.35-.22h-12.78,0ZM227.73,241.91v38.42h4.26v-38.42h-4.26ZM237.22,241.91v3.66h11.81v34.75h4.11v-34.75h11.06v-3.66h-26.98ZM266.29,241.91l14.87,22.87v15.55h4.11v-15.55l14.72-22.87h-4.86l-11.81,18.54-12.11-18.54h-4.93ZM164.72,245.5h9.34c2.3,0,3.91.11,4.86.3,1.35.23,2.42.64,3.29,1.49,1.5,1.38,2.32,3.05,2.32,5.01s-.67,3.69-2.02,4.93c-1.34,1.22-3.19,2.05-5.53,2.39-1.12.16-3.16.22-6.13.22h-6.13v-14.35h0Z"/>
</svg>