<?xml version="1.0" encoding="UTF-8"?>
<svg id="Layer_1" data-name="Layer 1" xmlns="http://www.w3.org/2000/svg" viewBox="0 0 1071.44 1085.44">
  <defs>
    <style>
      .cls-1 {
        fill: #fff;
        stroke-width: 0px;
      }
    </style>
  </defs>
  <path class="cls-1" d="M544.06,0c7.99,1.55,15.92,2.34,23.29,4.79,43.38,14.4,70.02,44.12,77.51,89.26,9.74,58.72-28.84,113.62-87.26,125.98-60.46,12.8-120.66-27.75-131.66-88.67-11.05-61.21,28.91-118.85,90.03-129.83,3.13-.56,6.32-.85,9.71-1.4C531.86,0,537.8,0,544.06,0Z"/>
  <path class="cls-1" d="M718.34,826.73c-59.27-22.32-118.29-44.54-177.38-66.79v-3.96c0-146.83.01-293.65-.08-440.48,0-3.14.93-4.45,3.8-5.53,61.73-23.13,123.43-46.37,185.13-69.58,1.14-.43,2.3-.8,3.74-1.29v593.25c-5.01-1.85-9.99-3.68-15.21-5.62Z"/>
  <path class="cls-1" d="M529.45,701.76c0,18.58-.06,36.81.06,55.05.02,2.49-.82,3.54-3.07,4.38-62.03,23.26-124.04,46.59-186.06,69.9-1.03.39-2.09.67-3.39,1.09V239.24c1.32.41,2.45.71,3.54,1.12,61.69,23.2,123.37,46.43,185.09,69.54,3.07,1.15,3.9,2.66,3.9,5.84-.09,128.56-.08,257.12-.08,386.02Z"/>
  <path class="cls-1" d="M328.25,571.8c0,77.5-.02,154.65.07,231.81,0,2.89-.91,4.06-3.56,5.03-20.05,7.4-40.03,14.99-60.03,22.51-1.04.39-2.09.72-3.28,1.13V239.17c1.28.41,2.34.7,3.36,1.08,20.11,7.56,40.19,15.18,60.34,22.65,2.42.9,3.16,2.02,3.16,4.61-.08,101.32-.07,202.63-.07,304.29Z"/>
  <path class="cls-1" d="M742.17,407.65v-143.49c22.14-8.33,44.23-16.65,66.66-25.09v593.25c-8.71-3.26-17.42-6.51-26.12-9.78-12.24-4.6-24.43-9.32-36.72-13.76-2.91-1.05-3.91-2.33-3.91-5.54.1-131.75.09-263.5.09-395.6Z"/>
  <path class="cls-1" d="M217.38,247.65c10.89,4.1,21.49,8.22,32.19,12.07,2.58.93,3.41,2.07,3.4,4.83-.1,40.57-.07,81.15-.07,121.72v424.11c-19.45,7.32-38.79,14.6-58.42,21.98V239.09c7.67,2.87,15.15,5.68,22.9,8.56Z"/>
  <path class="cls-1" d="M817.69,342.67c0-26.33.04-52.31-.06-78.29,0-2.54.69-3.71,3.19-4.63,17.39-6.4,34.71-13,52.05-19.53.93-.35,1.9-.61,3.08-.99v593.05c-3.34-1.22-6.6-2.39-9.84-3.6-15.01-5.63-29.98-11.36-45.04-16.85-2.77-1.01-3.44-2.43-3.44-5.19.06-154.54.06-309.08.06-463.96Z"/>
  <path class="cls-1" d="M139.67,240.52c14.52,5.46,28.77,10.86,43.08,16.11,2.38.87,3.2,2.04,3.2,4.65-.07,182.96-.07,365.92,0,548.87,0,2.6-.81,3.71-3.25,4.61-14.63,5.36-29.19,10.92-43.77,16.4-1.04.39-2.1.72-3.25,1.11V239.13c1.45.5,2.6.9,4,1.39Z"/>
  <path class="cls-1" d="M934.94,269.49v562.93c-3.87-1.44-7.47-2.75-11.06-4.1-12.14-4.56-24.26-9.18-36.43-13.64-2.03-.74-3.02-1.69-2.75-3.9.15-1.23.03-2.5.03-3.76,0-181.48.01-362.96-.09-544.43,0-3.7,1.12-5.27,4.55-6.51,14.12-5.09,28.12-10.52,42.17-15.81,1.04-.39,2.12-.67,3.58-1.13v30.35Z"/>
  <path class="cls-1" d="M336.57,963.72v21.61h-6.42v-39.97h-11.53v39.94h-6.72v-16.54c-6.92,5.95-13.25,11.41-19.86,17.09-1.65-1.52-3.28-3.03-5.04-4.66,4.58-3.57,8.96-6.99,13.14-10.24-2.4-2-5.2-3.53-6.76-5.88-1.4-2.1-1.78-5.07-1.99-7.71-.31-3.94-.08-7.93-.08-12.17h-6.49v-5.61h37.67c.1-.27.2-.53.3-.8-3.3-2.24-6.61-4.48-10.06-6.82,1.28-1.84,2.49-3.58,3.87-5.56,5.6,4.28,10.01,9.7,15.69,13.43.28-.33.57-.67.85-1-4.66-5.7-9.31-11.41-14.17-17.35,2.19-1.28,4.2-2.46,6.46-3.79,4.2,6.55,8.22,13,12.46,19.31.75,1.11,2.37,2.31,3.59,2.32,18.12.15,36.25.1,54.37.09.42,0,.84-.12,1.72-.26-5.8-5.58-11.33-10.9-17.02-16.39,2.44-1.97,4.2-3.39,6.14-4.96,5.06,6.17,10.14,12.13,14.93,18.33,1.94,2.5,3.98,3.73,7.17,3.34,2.22-.27,4.49-.05,6.75-.05-.26-2.37-.75-4.38-.66-6.37.45-9.65,9.24-15.02,19.7-12.06,8.33,2.35,14.69,7.74,20.11,14.12,2.77,3.26,5.55,4.62,9.85,4.42,7.85-.37,15.72-.1,23.59-.1,1.1,0,2.21,0,3.18,0,.15-.51.22-.62.2-.71-1.18-5.71-1.4-11.38,3.84-15.24,5.32-3.91,11.29-3.8,17.16-1.05,6.16,2.88,10.76,7.69,14.66,13.04,2.28,3.12,4.74,4.58,8.52,3.99,1.21-.19,2.47-.03,3.86-.03v5.6h-6.72v40.29h-6.7v-39.92h-27.96v7.31c2.75-.45,5.5-1.34,8.23-1.27,8.38.22,13.85,8.07,10.64,15.82-1.9,4.61-5.19,8.65-8.04,13.25-2.94-2.05-5.14-3.58-7.58-5.28,5.4-1.09,10.68-9.63,9.37-14.55-.92-3.44-4.8-4.84-7.97-2.67-3.06,2.1-4.86,5.03-4.84,8.91.03,6.03,0,12.07,0,18.35h-6.53v-10.99c-4.6,2.17-8.91,2.54-12.79.15-2.23-1.37-4.3-3.46-5.65-5.7-2.72-4.51-1.71-10.43,1.84-14.24,3.8-4.07,9.42-5.12,14.71-2.69v5.04c-2.56,0-5.18-.58-7.38.14-3.3,1.07-4.55,5.06-3.4,8.64,1.02,3.16,3.88,5.19,6.65,4.72,3.41-.58,5.88-3.57,5.9-7.26.03-5.81,0-11.62,0-17.92-4.97,0-9.83,0-14.68,0s-9.77,0-14.99,0v40.17h-6.69v-40h-10.79c0,6.12,0,12.12,0,18.12,0,1.36.03,2.75-.18,4.09-.44,2.76-2.49,4.19-4.55,2.59-3.24-2.52-6.26-5.55-8.65-8.88-1.7-2.36-.15-4.24,2.92-4.36,1.13-.05,2.27,0,3.62,0v-11.49h-14.37v39.89h-6.58v-39.95h-11.38v39.95h-6.61v-39.96h-11.38v39.92h-6.65v-9.47c-5.49,1.87-10.67,4.32-16.11,5.24-3.25.55-7.27-.61-10.3-2.21-4.54-2.39-5.19-6.84-3.29-13-1.6-2.3-3.5-4.13-4.3-6.35-1.9-5.31,1.71-9.84,7.72-10.06,3.29-.12,6.58-.02,10.07-.02v-3.99h-27.6v18.35M371.14,945.23c-.26,3.21-.51,6.41-.78,9.71-1.63,0-3.11-.02-4.59,0-3.53.05-7.07-.07-10.57.24-3.05.27-3.57,1.92-1.84,4.39,1.4,1.98,3.1,1.67,5.11,1.18,7.15-1.76,8.86-.87,10.64,5.15-2.56,0-5.17-.21-7.72.06-2.63.28-4.93,1.5-5.13,4.54-.21,3.15,2.01,4.35,4.64,4.91.97.21,2.04.21,3.03.08,6.01-.74,10.78-4.02,15.34-7.66.47-.37.9-1.11.91-1.68.06-6.92.04-13.83.04-21-3.02,0-5.72,0-9.09.07M448.3,939.48c.26-.47.85-1.25.74-1.37-4.87-5.16-10.06-9.91-17.21-11.68-6.43-1.59-11.6,3.43-10.38,9.94.41,2.2,1.24,3.25,3.79,3.18,7.5-.2,15.01-.07,23.07-.07M302.28,965.14c4.14.46,9.3-1.91,9.45-4.75.27-5.04.08-10.11.08-15.02h-13.76c0,4.74.04,9.26-.02,13.78-.04,2.8,1.04,4.81,4.25,5.99M497.49,931.8c.09,1.91.02,3.84.35,5.7.13.74,1.14,1.87,1.77,1.88,7.31.13,14.63.08,21.94.08.21-.41.43-.82.64-1.23-4.19-3.55-8.08-7.55-12.64-10.52-4.66-3.03-9.77-1.1-12.07,4.09Z"/>
  <path class="cls-1" d="M820.88,969.92c2.86.69,5.48,1.27,8.4,1.92.11-1.22.17-1.85.23-2.49.31-3.77,2.53-5.83,5.93-5.5,3.26.31,5.51,3.43,4.97,6.92-.07.44-.12,1-.41,1.28-4.3,4.27-.81,7.66,1.22,11.22.61,1.07,1.24,2.13,2.02,3.48h-7.97s-.25-.19-.31-.38c-1.67-5.58-4.14-9.01-11.19-9.4-9.23-.5-14.28-7.42-14.13-16.19.1-5.54,4.35-9.91,9.95-10.05,4.08-.1,8.17-.02,12.43-.02v-5.37h-32.35v10.68h-21.33c.71,4.61,2.27,5.39,6.41,5.24,4.02-.15,8.29.01,12.07,1.22,5.71,1.83,7.34,9.4,3.52,13.86-1.75,2.04-3.6,3.04-5.92.74-.72-.71-1.6-1.25-2.66-2.05.87-.57,1.62-.97,2.26-1.5,2.36-1.95,1.9-5.24-.99-6.26-3.83-1.35-7.71-1.05-11.24.92-4.26,2.38-4.66,7.46-.42,9.94,3.74,2.18,8.16,3.18,12.28,4.71,1.3.48,2.61.97,3.79,1.41-.54,4-2.7,4.66-5.69,3.81-3.92-1.13-8.03-1.86-11.69-3.56-9.41-4.38-10.9-11.78-4.54-19.53-1.43-2.67-3.18-5.12-4.12-7.84-1.46-4.26.6-6.89,5.1-6.97,5.32-.09,10.65-.02,16.12-.02v-4.91h-27.11v-5.79h16.42l.26-.62c-3.19-2.21-6.39-4.43-9.9-6.86,1.31-1.86,2.55-3.64,3.75-5.34,6.55,3.65,9.76,11.49,17.37,13.05.25-.3.49-.6.74-.9-4.71-5.66-9.41-11.32-14.35-17.25,2.08-1.27,4.07-2.48,6.35-3.87,4.17,6.35,8.38,12.52,12.31,18.86,1.38,2.22,2.87,2.96,5.47,2.95,62.8-.08,125.61-.06,188.41-.06,1.34,0,2.68,0,4.12,0v5.72h-9.21v11.43c-5.33,0-10.32,0-15.3,0-3,0-6.12-.17-7.28,3.55-.95,3.06,1.12,8.26,4.28,9.63,2.51,1.09,5.36,1.4,8.34,2.12.2-1.17.34-1.68.37-2.2.15-2.56.83-5.05,3.7-5.37,1.82-.2,4.69.13,5.44,1.29,1.18,1.83,2.13,5.58,1.14,6.71-3.64,4.1-.97,6.9.94,10.08.81,1.34,1.56,2.71,2.51,4.39h-7.87c-.05-.06-.37-.28-.45-.57-1.51-5.65-4.1-8.8-11-9.19-9.78-.55-16.09-9.72-14.09-18.11,1.15-4.85,5.05-8.06,10.03-8.16,3.87-.08,7.74-.06,11.61-.1.09,0,.18-.13.42-.31v-5h-32.15v39.99h-6.7v-39.97h-11.62v39.91h-6.72v-10.18c-3,.39-5.73,1.03-8.46,1.03-5.88,0-10.4-2.76-12.71-8.16-2.09-4.89-1.25-9.68,2.46-13.63,4.19-4.46,9.5-5.24,15.1-3.55,3.03.92,1.92,3.73,2.11,5.77-3.45-.2-6.61-.39-9.76-.57-.09.38-.19.75-.28,1.13,3.6,2.44,7.19,4.89,11.16,7.58v-19.35h-30v40h-6.77v-39.95h-13c0,2.35,0,4.81,0,7.27,0,8.08-2.36,10.81-11.18,12.03,4.81,5.78,9.32,11.21,14.03,16.86-1.22,1.16-2.8,2.68-4.59,4.39-9.07-9.53-16.77-19.82-22.89-31.54,1.73-1.3,3.36-2.52,5.22-3.91,1.16,2.01,2.31,3.81,3.28,5.71,1.49,2.92,4.04,3.12,6.71,2.55,2.55-.55,2.75-2.66,2.7-4.85-.06-2.73-.01-5.46-.01-8.46h-26.83v11.15c-4.95,0-9.6-.06-14.24.02-3.09.06-6.69-.8-8.25,3.1-1.24,3.1.61,7.48,4.24,10.24M907.2,963.36c1.24,6.67,7.24,9.37,12.72,5.49-4.08-2.68-8.09-5.31-12.38-8.14-.17,1.05-.26,1.59-.34,2.65Z"/>
  <path class="cls-1" d="M204.78,921.37c8.1,1.95,12.24,7.62,14.73,14.65.98,2.78,2.38,3.49,5.16,3.46,14.13-.14,28.27-.06,42.4-.06h3.88v5.63h-7v40.31h-6.65v-11.32c-4.54,2.56-8.8,4.04-13.69,2.83-6.9-1.71-13.06-9.76-12.38-16.83.06-.63,1.64-1.71,2.35-1.59,3.21.54,5.97.3,7.42-3.05,1.24-2.87-.45-8.52-2.85-9.93-.45-.27-1.09-.31-1.64-.31-4.88-.02-9.77-.01-15.02-.01v40.17h-6.7v-40h-11.69v39.89h-6.85v-26.92c-5.97,0-11.6-.12-17.22.13-.9.04-2.26,1.64-2.49,2.71-1.16,5.46,7.13,17.5,12.65,18.61-.12.32-.16.69-.36.94-4.25,5.17-4.65,5.23-9.27.44-4.63-4.82-8.6-10.06-9.51-16.97-.97-7.45,2.58-11.46,10.12-11.48,5.12-.01,10.25,0,15.66,0v-7.29h-35.48c0,2.28,0,4.62,0,6.96,0,8.27-2.3,10.97-11.28,12.39,4.83,5.78,9.39,11.23,14.05,16.8-1.24,1.19-2.79,2.67-4.61,4.41-9.03-9.48-16.7-19.76-22.83-31.46.89-.71,1.66-1.36,2.45-1.97.8-.61,1.63-1.19,2.74-2,1.15,1.98,2.3,3.77,3.26,5.66,1.4,2.76,3.8,3.08,6.39,2.65,2.74-.45,3.13-2.68,3.18-4.94.07-2.72.02-5.45.02-8.45h-25.62v39.87h-6.62v-39.87h-11.19v39.81h-6.56v-19.5h-11.12c0,1.69.13,3.37-.03,5.03-.29,3.14-2.49,4.33-4.93,2.35-2.9-2.35-5.48-5.12-7.94-7.94-.75-.86-1.23-2.83-.75-3.66.59-1.02,2.27-1.55,3.58-1.98.91-.3,2-.06,3.43-.06,0-4.51.17-8.81-.14-13.08-.07-.91-1.95-2.37-2.94-2.33-1,.04-2.67,1.57-2.75,2.55-.15,1.8.66,3.67,1.15,5.87-2.25-.37-5.1,1.83-6.76-1.73-1.83-3.93-.64-8.83,2.78-10.95,3.34-2.07,6.93-2.11,10.46-.49,3.49,1.61,4.88,4.57,4.87,8.31,0,3.64.05,7.29.1,10.93,0,.2.19.39.38.75h10.22v-14.06h-8.88v-5.84h97.75c-.53-1.94-1.16-3.5-1.37-5.12-1.11-8.49,4-14.26,13.94-12.94M240.66,963.59c-.52.53-1.56,1.14-1.49,1.58.42,2.78,4.49,5.41,8.21,5.5,4.43.11,9.54-2.44,9.68-5.44.32-6.65.1-13.32.1-19.86h-10.85c3.55,9.65,2.21,14.15-5.66,18.21M210.35,931.51c-.54-.58-1.04-1.2-1.61-1.75-3.21-3.05-7.47-3.94-9.83-2.09-2.04,1.6-2.33,6.94-.47,10.19.36.62,1.06,1.48,1.62,1.49,4.67.12,9.35.07,14.77.07-1.68-3.02-2.94-5.27-4.48-7.92Z"/>
  <path class="cls-1" d="M693.6,965.78v-20.38h-11.77v39.85h-6.78v-11.76c-4.7,1.07-9.21,2.8-13.78,2.98-7.58.3-13.23-3.75-16.92-10.24-1.25-2.2-2.61-2.95-5.09-2.9-2.9.06-6.36,1.3-7.94-2.1-2.55,1.64-5.06,3.26-8.11,5.21,3.69,4.59,7.85,9.77,12.16,15.15-1.53,1.33-3.13,2.73-4.98,4.34-8.16-9.51-15.45-19.4-20.91-30.77,1.76-1.13,3.38-2.16,5.28-3.37,1.12,1.98,1.88,4.07,3.29,5.58,1.07,1.15,2.9,1.9,4.47,2.08.48.05,1.68-2.36,1.79-3.7.26-3.38.09-6.79.09-10.39h-23v39.95h-6.69v-21.27c-4.3-2.03-9.65,1.88-12.47-2.82-2.52,1.66-4.93,3.25-7.99,5.27,3.63,4.53,7.7,9.61,12.05,15.03-1.46,1.32-3.08,2.78-5.45,4.93-7.12-10.37-14.03-20.43-21.07-30.68,1.65-1.14,2.44-1.74,3.28-2.27.85-.54,1.73-1.01,2.8-1.63,1.11,2.02,1.85,4.17,3.27,5.67,1.06,1.12,2.97,1.64,4.59,1.89.33.05,1.41-2.26,1.49-3.53.21-3.4.07-6.82.07-10.61h-18.92v-5.59h83.7v5.32h-8.87v12.5h15.93c-.27,3.92,2.15,3.75,4.48,3.33,4.17-.75,7.51-2.71,8.71-7.11,1.19-4.35-1.99-9.05-6.18-9.19-2.23-.08-4.2.52-4.48,3.14-.29,2.72,1.58,3.48,3.83,3.69.44.04.89,0,1.47,0v4.76c-6.31,1.2-11.29-1.54-12.02-6.51-.83-5.65,2.64-9.82,8.88-10.68,6.98-.96,13.02,2.58,14.82,8.69,2.12,7.17-1.02,14.39-7.69,17.44-1.62.74-3.38,1.17-5.05,1.74,5.1,5.17,17.49,3.29,20.82-3.24.24-.47.3-1.08.3-1.63.02-5.45.01-10.91.01-16.7h-7.33v-5.56h80.32v5.48h-6.67v40.1h-6.63v-25.06h-12.58c0,1.91.07,3.81-.02,5.71-.12,2.8-2.28,4.23-4.29,2.47-3.04-2.66-5.86-5.73-8.11-9.07-1.69-2.51.52-5.08,4.13-5.13,5.7-.08,11.4-.02,17.1-.02,1.11,0,2.23,0,3.46,0v-8.83h-33.86v39.95h-6.93v-19.49M589.81,945.14h-7.66v12.38h12.28v-12.38h-4.62Z"/>
  <path class="cls-1" d="M800.8,1071.68c-1.66,0-3,0-4.53,0v-43.63h7.86v17.46h12.92v-17.42h7.93v43.44h-7.71v-19.04h-12.95v18.96c-1.25.09-2.22.16-3.52.23Z"/>
  <path class="cls-1" d="M742.63,1064.25c-.17,3.4-.14,6.5-.55,9.53-.99,7.33-5.4,11.37-12.84,11.63-2.93.1-5.89-.43-8.82-.74-2.95-.32-4.53-1.71-3.71-4.95.22-.85.15-1.78.22-2.69,14.39,4.07,18.8,1.69,17.96-10.07-2.65,3.2-5.66,5.19-9.75,4.57-4.83-.73-7.67-3.73-9.03-8.23-1.55-5.14-1.46-10.34-.07-15.49,1.17-4.33,3.52-7.73,8.19-8.7,4.4-.92,8.13.3,11,5.14.34-2.05.54-3.28.78-4.74h6.62v24.74M735.11,1055.67c-.47-2.55-.39-5.39-1.57-7.54-.91-1.64-3.45-3.3-5.21-3.25-1.54.04-4.13,2.34-4.3,3.87-.5,4.41-.35,8.97.27,13.37.21,1.45,2.49,3.33,4.11,3.67,2.42.51,4.68-.93,5.49-3.55.59-1.93.82-3.98,1.21-6.57Z"/>
  <path class="cls-1" d="M989.49,1069.29c-.56-.71-.96-1.24-1.66-2.17-.19,1.65-.33,2.92-.49,4.37h-6.84v-46.77h7.64v18.3c8.26-8.19,17.16-3.09,18.73,5.61,1.03,5.7,1.2,11.34-1.05,16.76-2.91,7.05-10.13,8.8-16.34,3.9M998.86,1063.38c.12-4.81.5-9.64.25-14.43-.13-2.49-1.95-4.34-4.76-4.49-2.87-.16-4.89,1.67-5.12,4.05-.44,4.64-.79,9.51.14,14.01.99,4.8,6.08,5.28,9.49.86Z"/>
  <path class="cls-1" d="M888.78,1026.26c0,15.22,0,30.12,0,45.22h-6.91c-.14-1.31-.27-2.53-.42-3.94-1.33,1.18-2.45,2.53-3.88,3.37-4.8,2.82-11.09.83-13.65-4.37-3.06-6.23-3-12.81-1.22-19.33,2.58-9.52,12.56-10.94,18.19-4.01v-18.74c2.87.9,5.72-1.42,7.89,1.8M881.02,1055.69c-.3-2.36-.34-4.79-.96-7.06-.66-2.42-2.25-4.29-5.13-4.18-2.82.11-4.65,1.9-4.85,4.44-.35,4.49-.31,9.03,0,13.52.16,2.29,1.91,4.3,4.37,3.86,1.85-.33,4.12-1.55,5.03-3.08,1.14-1.92,1.08-4.55,1.54-7.5Z"/>
  <path class="cls-1" d="M1044.37,1055.38c.41-3.01.49-5.8,1.28-8.36,2.75-8.93,11.04-10.92,18.04-3.94v-18.32h7.75v46.76h-6.66c-.21-1.12-.43-2.33-.58-3.13-2.25,1.13-4.52,2.83-7.04,3.42-4.52,1.05-8.59-.94-10.32-5.26-1.36-3.4-1.69-7.22-2.47-11.17M1063.88,1054.51c-.28-1.78-.41-3.6-.87-5.34-.71-2.71-2.21-4.83-5.38-4.69-3.15.14-4.74,2.38-4.96,5.13-.33,4.02-.3,8.11,0,12.13.19,2.49,1.62,4.46,4.53,4.67,2.97.21,4.83-1.35,5.56-3.98.65-2.37.76-4.89,1.11-7.93Z"/>
  <path class="cls-1" d="M66.57,1068.47c-5.26,5.53-13.13,4.67-16.33-1.86-3.53-7.23-3.52-14.82-.19-22.09,3.11-6.81,10.18-7.45,17.23-1.66,0-3.18,0-6.1,0-9.02s0-5.89,0-9.04h7.67v46.66h-6.61c-.38-1.2-.75-2.4-1.13-3.59-.09.05-.19.08-.27.14-.08.07-.14.18-.38.47M61.17,1044.44c-1.53,1.16-3.83,2.01-4.43,3.53-1.98,4.97-1.86,10.23-.13,15.3,1.08,3.18,4.48,4.16,7.24,2.41,4.98-3.15,4.62-17.92-.53-20.76-.48-.27-1.07-.33-2.15-.48Z"/>
  <path class="cls-1" d="M583.2,1045.96c-4.93-1.69-7.88.35-8.06,5.55-.19,5.34-.06,10.7-.07,16.05,0,1.23,0,2.46,0,3.91h-7.53v-46.7h7.45v17.64c2.28-1.23,4.18-2.83,6.34-3.31,5.88-1.3,10.5,1.64,10.92,7.65.57,8.12.14,16.31.14,24.71h-7.32c0-5.9.16-11.89-.08-17.87-.1-2.5-1.02-4.97-1.79-7.63Z"/>
  <path class="cls-1" d="M330.04,1064.87c.96-2.47,2.2-4.76,2.32-7.1.3-6,.1-12.03.1-18.27h7.61v31.89h-6.76c-.12-1.26-.24-2.48-.32-3.38-2.33,1.27-4.62,3.19-7.21,3.78-5.58,1.27-10.08-1.67-10.46-7.35-.55-8.23-.14-16.52-.14-24.98h7.28c0,5.53,0,10.95,0,16.38,0,1.59-.03,3.2.13,4.77.5,4.75,2.5,5.95,7.45,4.25Z"/>
  <path class="cls-1" d="M841.77,1052.74c.91,3.4,1.75,6.52,2.59,9.65.24,0,.47-.01.71-.02,1.96-7.6,3.91-15.2,5.9-22.92h7.46c-3.11,10.2-6.14,20.16-9.18,30.12-.83,2.72-1.66,5.43-2.55,8.13-2.33,7.01-6.59,9.15-14.05,6.87.13-1.81.27-3.68.42-5.58,5.72.87,8.92-3.37,7.06-9.15-2.87-8.87-5.8-17.72-8.7-26.57-.38-1.16-.74-2.34-1.09-3.44.35-.24.52-.45.7-.46q7.07-.34,8.87,6.54c.58,2.2,1.21,4.38,1.88,6.84Z"/>
  <path class="cls-1" d="M138.42,1042.61c3.14-3.82,6.97-4.55,11.23-3.15,4.02,1.32,5.54,4.67,5.62,8.53.17,7.82.05,15.65.05,23.59h-7.55c0-3.14,0-6.27,0-9.41,0-3.65.04-7.3-.02-10.94-.05-2.85-.38-5.66-4.04-6.08-3.19-.36-5.51,1.77-5.73,5.79-.3,5.45-.16,10.93-.21,16.4-.01,1.34,0,2.68,0,4.18h-7.63v-32.02h6.64c.23,1.24.46,2.45.7,3.65,0,.03.21.07.28.03.18-.11.33-.26.65-.58Z"/>
  <path class="cls-1" d="M617.67,1052.12c-.07-1.34.24-2.65-.28-3.33-1.06-1.4-2.39-3.13-3.91-3.51-2.45-.62-4.56.96-5.11,3.44-.57,2.51-.62,5.17-.66,7.77-.09,4.98-.03,9.96-.03,15.03h-7.65v-32.03h6.7c.21,1.28.41,2.48.5,3.03,2.66-1.19,5.32-3.09,8.2-3.51,5.16-.76,9.22,2.31,9.51,7.48.46,8.25.12,16.55.12,25.01h-7.39c0-6.4,0-12.73,0-19.39Z"/>
  <path class="cls-1" d="M761.7,1061.7c1.93-7.61,3.79-14.97,5.63-22.3h7.51c-1.82,5.91-3.58,11.6-5.32,17.3-2.12,6.95-4.15,13.93-6.36,20.85-2.29,7.17-6.75,9.35-14.2,6.95.15-1.71.3-3.47.45-5.21,6.21.1,8.94-3.84,7-9.77-2.99-9.17-6-18.33-9-27.49-.24-.73-.43-1.47-.79-2.74,2.08,0,3.85.11,5.61-.03,1.86-.15,2.52.65,2.96,2.4,1.66,6.61,3.5,13.17,5.32,19.73.08.27.72.38,1.19.32Z"/>
  <path class="cls-1" d="M416.58,1049.48c3.08-8.95,10.02-12.54,18.53-9.95,4.87,1.48,7.84,4.9,8.59,9.64.64,4.07.68,8.41.04,12.48-1.07,6.74-6.35,10.5-13.52,10.49-7.23,0-12.56-4.01-13.59-10.88-.56-3.76-.1-7.67-.05-11.79M424.01,1054.45c.47,3.01.49,6.19,1.6,8.94.59,1.48,3.07,3.03,4.68,3.02,1.61,0,4-1.58,4.66-3.07,2.28-5.17,2.34-10.71-.05-15.86-.68-1.47-3.06-2.87-4.72-2.94-1.51-.07-3.69,1.37-4.51,2.77-1.09,1.85-1.15,4.31-1.66,7.14Z"/>
  <path class="cls-1" d="M659.38,1049.94c-.04,4.34.43,8.51-.34,12.43-1.25,6.32-6.55,9.81-13.42,9.77-7-.04-12.24-3.67-13.37-10.27-.71-4.16-.72-8.65.02-12.81,1.17-6.58,6.43-10.19,13.42-10.22,7.29-.03,11.64,3.42,13.7,11.1M651.88,1055.06c-.36-2.35-.48-4.76-1.14-7.02-.68-2.38-2.58-4.19-5.08-3.56-1.82.45-4.08,1.87-4.81,3.46-2.2,4.82-1.93,9.95-.21,14.95.82,2.38,2.7,4.2,5.1,3.6,1.91-.47,4.08-2.09,4.98-3.81,1.04-1.98.82-4.62,1.15-7.62Z"/>
  <path class="cls-1" d="M688.67,1070.62c-4.27-2.31-6.41-5.87-6.8-10.28-.31-3.47-.41-7.06.12-10.49,1.07-6.91,6.29-10.94,13.5-11.01,7.3-.07,12.3,3.75,13.72,10.71.47,2.32.72,4.74.66,7.11-.31,12.56-9.05,18.38-21.2,13.95M696.39,1044.37c-1.8.9-4.53,1.35-5.24,2.79-2.67,5.41-2.65,11.22-.05,16.7,1.64,3.45,6.13,3.74,8.52.89,2.94-3.5,3.06-14.96.07-18.49-.68-.81-1.83-1.23-3.31-1.89Z"/>
  <path class="cls-1" d="M221.66,1067.61c0,1.45,0,2.57,0,3.88h-7.64c0-6.17.01-12.28,0-18.4,0-1.36.29-2.96-.3-4.03-.84-1.51-2.32-3.58-3.65-3.67-1.62-.12-3.89,1.18-4.92,2.57-1.03,1.38-1.16,3.64-1.2,5.52-.14,5.91-.05,11.83-.05,17.98h-7.44v-32h6.49c.24,1.22.48,2.41.67,3.36,2.17-1.29,4.11-3.05,6.37-3.66,6.25-1.72,11.22,2.14,11.54,8.99.31,6.37.13,12.76.16,19.47Z"/>
  <path class="cls-1" d="M26.06,1041.03c7.66-4.88,14.89-1.42,15.45,7.42.4,6.35.13,12.74.16,19.11,0,1.24,0,2.47,0,3.91h-7.64c0-6,.03-11.99-.02-17.97-.01-1.58.15-3.35-.49-4.69-.7-1.44-2.16-3.32-3.44-3.44-1.56-.15-3.8.94-4.78,2.22-1.05,1.37-1.3,3.59-1.35,5.46-.15,6.11-.06,12.22-.06,18.46h-7.57v-32h6.72c.11,1.23.23,2.46.34,3.68.27.28.54.55.81.83.56-.94,1.12-1.88,1.87-2.99Z"/>
  <path class="cls-1" d="M972.9,1071.39c-2.26.22-4.29.22-6.53.22-.28-1.26-.55-2.44-.68-3.06-2.63,1.15-5.25,2.88-8.09,3.41-4.86.91-9.26-2.32-10.35-6.84-1.26-5.24.81-10.06,5.63-11.73,3.06-1.06,6.43-1.25,9.67-1.78.88-.14,1.78-.12,3.83-.25-1.21-2.35-1.69-4.94-3.21-5.91-4.19-2.69-8.27-.48-12.44,1.6-.18-2-.35-3.86-.52-5.74,4.62-2.55,9.45-2.94,14.35-2.16,4.93.79,7.71,3.7,7.98,8.8.41,7.72.41,15.47.36,23.43M954.27,1060.82c.08,3.9,1.42,5.74,4.43,6.08,3.15.35,5.55-1.39,6.33-4.85.43-1.93.49-3.94.72-5.89-5.83-1.05-9.51.38-11.48,4.66Z"/>
  <path class="cls-1" d="M101.98,1071.14c-4.62-2.57-5.82-6.43-4.94-11.12.82-4.36,3.81-6.61,7.91-7.4,3.32-.64,6.71-.93,11.1-1.51-1.07-2.09-1.55-4.67-3.06-5.65-4.18-2.7-8.26-.5-12.44,1.59-.18-1.98-.36-3.83-.53-5.74,4.7-2.58,9.62-2.99,14.62-2.1,4.75.84,7.51,3.73,7.69,8.65.29,7.8.08,15.63.08,23.63h-6.26c-.22-1.09-.47-2.28-.77-3.74-3.69,3.94-7.97,5.58-13.39,3.38M107.24,1056.81c-2.77,1.49-3.83,3.73-2.89,6.78.75,2.42,2.61,3.36,4.96,3.28,3.15-.1,5.01-1.9,5.56-4.94.35-1.94.44-3.92.73-6.56-3.04.5-5.44.89-8.36,1.44Z"/>
  <path class="cls-1" d="M1031.48,1071.24c-.32-1.14-.5-2.03-.65-2.73-2.5,1.16-4.86,2.78-7.45,3.34-5.16,1.12-9.83-1.98-11.02-6.73-1.34-5.37,1.11-10.22,6.28-12.01,1.91-.66,3.96-.95,5.97-1.24,1.89-.27,3.82-.3,5.71-.43,1.03-7.19-3.16-8.53-14.45-4.7-.7-6.26-.64-6.53,5.4-7.52,2.66-.44,5.47-.44,8.14-.12,4.88.6,7.87,3.27,8.12,8.16.4,8.01.11,16.05.11,24.22-1.77,0-3.89,0-6.14-.26M1030.7,1057.29c-.51-.53-1.07-1.56-1.54-1.52-2.23.2-4.52.41-6.61,1.13-2.58.89-3.75,3.29-2.95,5.72.54,1.63,2.21,3.46,3.8,4.04,2.32.84,4.89-.08,5.94-2.6.8-1.92.93-4.12,1.35-6.78Z"/>
  <path class="cls-1" d="M523.02,1038.89c5.59.5,8.91,3.52,10.32,8.42.9,3.12,1.14,6.42,1.76,10.16h-19.11c.05,8.81,6.26,11.31,16.28,7.01,1.3,5.54.76,6.38-4.7,7.24-8.32,1.31-14.35-1.11-17.33-6.97-3.49-6.86-2.16-17.38,2.85-22.42,2.66-2.67,5.91-3.73,9.93-3.45M526.49,1047.81c-1.08-2.83-3-4.26-6.1-3.52-2.97.7-4.57,3.83-4.25,8.19h11.16c-.25-1.52-.47-2.83-.81-4.67Z"/>
  <path class="cls-1" d="M374.4,1069.52c-7.77-5.39-7.69-20.64-1.16-27.25,6.1-6.18,17-3.98,19.9,4.21,1.18,3.34,1.38,7.02,2.12,11.07-3.77,0-6.81,0-9.84,0s-6.11,0-9.14,0c-.57,8.56,6.44,11.44,16,6.88,1.68,5.13,1.17,6.22-3.85,7.15-4.78.89-9.52.89-14.03-2.05M381.93,1052.64h5.05c.25-5.44-1.51-8.4-4.91-8.56-3.7-.17-5.99,3.05-5.87,8.56h5.73Z"/>
  <path class="cls-1" d="M918.21,1064.76c2.29,1.85,2.02,5.08-.28,6.01-7.79,3.13-16.6,1.02-20.26-4.85-4.23-6.8-3.02-18.7,2.44-23.86,6.36-6.01,16.95-3.62,19.78,4.68,1.11,3.26,1.32,6.82,2.03,10.71h-18.87c-.58,5.68,1.84,8.85,7.01,8.87,2.64,0,5.29-.92,8.17-1.56M903.38,1052.61h10.4c0-.93.04-1.5,0-2.06-.37-4.12-2.15-6.37-5.09-6.47-3.06-.11-5.26,2.21-5.87,6.25-.1.66,0,1.34.57,2.28Z"/>
  <path class="cls-1" d="M457.37,1024.89c3.53-.4,6.83-.66,10.2-.93v5.84c-6.76.13-7.58,1.35-6.39,9.34,1.63.09,3.3.18,5.15.28v5.51h-5.45v26.5h-7.62v-26.24c-1.9-.11-3.44-.2-5.21-.3v-5.45c1.55-.1,3.01-.2,4.7-.31,1.05-4.82-1.46-10.83,4.61-14.24Z"/>
  <path class="cls-1" d="M502.64,1027.91h7.01v6.12h-9.49v37.46h-7.98v-37.26h-9.76v-6.32h20.22Z"/>
  <path class="cls-1" d="M345.77,1039.48c1.53-.14,2.77-.14,4.08-.14.34-2.36-.06-5.2,1.16-6.51,1.4-1.5,4.26-1.64,6.94-2.52v8.75c2.32.14,4.31.26,6.42.39v5.51h-6.3c0,6.13-.14,11.91.05,17.67.11,3.45,1.59,4.1,6.26,3.23v5.05c-8.32,3.52-14.05-.07-14.14-8.81-.05-5.47-.04-10.93-.07-16.4,0-.1-.1-.19-.3-.55-1.26-.08-2.68-.16-4.64-.28.08-1.77.16-3.51.52-5.39Z"/>
  <path class="cls-1" d="M303.3,1060.07c.13,6.04.86,6.69,6.55,5.92-.79,1.94,1.65,4.7-1.92,5.74-4.64,1.35-9.63-.04-11.12-3.49-.83-1.92-1.18-4.16-1.24-6.27-.17-5.55-.06-11.11-.06-16.93h-4.79v-5.56c1.44-.12,2.95-.24,4.51-.37.25-2.19-.24-4.98.92-6.18,1.46-1.51,4.27-1.7,6.94-2.62v8.79h6.48v5.87h-6.28c0,5.08,0,9.92,0,15.1Z"/>
  <path class="cls-1" d="M257.57,1032.85c2.44-.92,4.67-1.66,7.35-2.54v8.75c2.32.14,4.31.27,6.43.4v5.52h-6.3c0,6.13-.14,11.91.05,17.68.11,3.43,1.58,4.08,6.26,3.23v5.05c-6.47,2.72-14.54,1.43-14.18-9.19.18-5.44.03-10.9.03-16.63h-4.75v-5.67c1.47-.09,2.92-.19,4.59-.3.1-2.06.2-4.08.51-6.29Z"/>
  <path class="cls-1" d="M238.15,1059.34c-1.96-1.2-3.74-2.21-5.46-3.32-4.26-2.77-5.86-6.05-4.92-9.94.88-3.62,4.73-6.81,9.16-7.04,3.13-.16,6.28.33,9.83.56-.15,2.33-.26,4.17-.38,6.04-2.63-.39-4.97-1.05-7.27-.94-1.32.07-3.3,1.16-3.66,2.23-.34,1.01.73,2.99,1.76,3.86,2.15,1.83,4.7,3.18,7.05,4.78,2.91,1.98,4.71,4.51,4.17,8.3-.54,3.85-2.85,6.09-6.32,7.28-4.83,1.65-9.58.97-14.33-.53v-6c2.88.58,5.59,1.48,8.33,1.55,1.53.04,3.77-.87,4.51-2.07,1.24-2-.53-3.53-2.48-4.77Z"/>
  <path class="cls-1" d="M540.61,1062.4c-.18-4.4-.94-8.69-.16-12.68,1.77-9.05,10.94-12.98,21.45-9.49-.12,1.76-.25,3.61-.4,5.81-4.55-1.83-8.85-2.52-12.08,1.84-2.44,3.29-2.4,11.11,0,14.68,3.26,4.85,7.8,4.14,12.61,2.35.1,2.08.18,3.88.26,5.6-8.78,3.65-19.05.82-21.68-8.12Z"/>
  <path class="cls-1" d="M179.88,1070.85c-.05-14.4-.05-28.48-.05-42.76h7.95v43.72c-2.64-.21-5.24-.43-7.89-.95Z"/>
  <path class="cls-1" d="M7.81,1054.69c0,5.78,0,11.21,0,16.81H0v-43.43h7.81c0,8.82,0,17.55,0,26.62Z"/>
  <path class="cls-1" d="M674.45,1037.59v33.89h-7.43v-46.72h7.43v12.83Z"/>
  <path class="cls-1" d="M927.52,1052.64v-13.15h6.64c.12,1.49.24,2.98.4,5.06,2.49-3.51,4.86-6.41,9.46-5.48v6.65c-.47.07-.97.18-1.48.2-4.66.2-7,2.41-7.18,7.27-.18,4.77-.05,9.54-.05,14.32,0,1.23,0,2.47,0,3.94h-7.79v-18.81Z"/>
  <path class="cls-1" d="M277.03,1046.51v-7.03h7.66v31.99h-7.66v-24.96Z"/>
  <path class="cls-1" d="M90.83,1069.53c-.57.94-1.09,2.01-1.73,2.1-1.88.24-3.81.09-5.91.09v-32.19h7.64c0,9.96,0,19.82,0,30.01Z"/>
  <path class="cls-1" d="M90.5,1025.81c.26,2.51.26,4.86.26,7.4h-7.8v-7.57c2.42,0,4.85,0,7.54.17Z"/>
  <path class="cls-1" d="M279.76,1033.41c-2.11.25-3.07-.26-2.87-2.33.16-1.67.03-3.37.03-5.28h7.94v7.61c-1.69,0-3.24,0-5.11,0Z"/>
  <path class="cls-1" d="M595.73,925.31c2.13,0,3.93,0,5.97,0v8.16h-8.18c0-2.28-.1-4.6.08-6.9.04-.47,1.16-.84,2.12-1.26Z"/>
</svg>