<?xml version="1.0" encoding="UTF-8"?>
<svg id="Layer_1" data-name="Layer 1" xmlns="http://www.w3.org/2000/svg" version="1.1" viewBox="0 0 484.3 484.4">
  <defs>
    <style>
      .cls-1 {
        fill: none;
      }

      .cls-1, .cls-2, .cls-3, .cls-4 {
        stroke-width: 0px;
      }

      .cls-2, .cls-3 {
        fill: #fff;
      }

      .cls-2, .cls-4 {
        fill-rule: evenodd;
      }

      .cls-4 {
        fill: #000;
      }
    </style>
  </defs>
  <path class="cls-3" d="M242.1,8.1h0C113,8.4,8.3,113.1,8,242.2h0c.3,129.2,104.9,233.8,234.1,234.1h0c129.2-.3,233.8-104.9,234.1-234.1h0c-.3-129.2-104.9-233.8-234.1-234.1M242.1,69.5h0c-95.3.2-172.6,77.4-172.7,172.7h0c.2,95.3,77.4,172.6,172.7,172.7h0c95.3-.2,172.6-77.4,172.7-172.7h0c-.2-95.3-77.4-172.6-172.7-172.7ZM242.1,63.4h0c98.6.3,178.4,80.1,178.7,178.7h0c-.3,98.6-80.1,178.4-178.7,178.7h0c-98.6-.3-178.4-80.1-178.7-178.7h0c.3-98.6,80.1-178.4,178.7-178.7ZM242.1,129.1h0c-62.4.1-112.9,50.6-113,113h0c.1,62.4,50.6,112.9,113,113h0c62.4-.1,112.9-50.6,113-113h0c-.1-62.4-50.6-112.9-113-113ZM242.1,123.1h0c65.7.1,119,53.4,119,119.1h0c-.1,65.7-53.3,118.9-119,119h0c-65.7-.2-118.9-53.4-119-119h0c.2-65.7,53.4-118.9,119-119h0ZM242.1,0h0c133.7.3,241.9,108.6,242.1,242.2h0c-.3,133.6-108.5,241.9-242.1,242.1h0C108.5,484.1.3,375.9,0,242.2h0C.3,108.6,108.5.3,242.1,0h0Z"/>
  <path class="cls-2" d="M255.9,463v-.6h-.6v-3.4l-.3-.3h-.3v-9l-.3-.3h-.3v-3.4l-.3-.3h-.3v-.3l-.3-.3h-1.9s-.2.2-.3.3v.3h-3.7v-1.1l-.3-.3h-.3v-.6h.3s.2-.2.3-.3v-.9h1.6l.3-.3h0c0-.1,10.3-.1,10.3-.1,0,0,.2-.2.3-.3v-.3h3.7v.3s.2.2.3.3h.9v2.5h-.3l-.3.3v.3h-5.9l-.3.3v9.7s.2.2.3.3h.3v6.8h-.3l-.3.3v.5h-1.9"/>
  <path class="cls-2" d="M213.2,462.2v-.6h-.6v-2.5h.3l.3-.3v-5.3h.3l.3-.3v-5.9h.3s.2-.2.3-.3v-5.3h.3s.2-.2.3-.3v-.3h.3l.3-.3v-.3h1.2v.3l.3.3h4.1v.3l.3.3h5.9v.3s.2.2.3.3h1.1v1.9h-.3l-.3.3v.3h-5.7v-.4l-.3-.3h-4.4l-.3.3v4.3l.3.3h.3v.3l.3.3h5.3v.3l.3.3h.3v.3s.2.2.3.3h.3v1.4h-.3l-.3.3v.3h-.3l-.3.3v.3h-1.9v-.3s-.2-.2-.3-.3h-4.4l-.3.3v.3h-.3l-.3.3v7.1h-.3l-.3.3v.9h-2.6"/>
  <path class="cls-2" d="M271.6,461v-2.5h-.6v-1.9h-.6v-.6h.6v-1.2h-.6v-3.1h-.6v-3.7h-.6v-4.3h-.7v-3.1h.6v-.6h3.7v-.6h3.8v-.6h3.7v-.6h2.6v.6h.6v1.8h-.6v.6h-1.9v.8h-3.7v.6h-3.2v.6h-1.9v3.1h.6v1.9h5.7v-.6h1.9v.6h.6v1.7h-.6v.6h-1.3v.6h-4.4v.6h-.6v.8h-.7v.6h.7v3.7h.6v.6h5.6v-.6h3.2v-.6h1.9v.6h.6v.6h.6v.6h-.6v1.2h-2.6v.6h-3.7v.4h-3.7v.6h-4.4"/>
  <path class="cls-2" d="M297.3,456.1v-.6h-2.6v-.6h-1.3v-.6h-.6v-.6h-.6v-.3l-.3-.3h-.3v-.3s-.2-.2-.3-.3h-.3v-.9l-.3-.3h-.3v-.9l-.3-.3h-.3v-.9s-.2-.2-.3-.3h-.3v-1.4s-.2-.2-.3-.3h-.3v-6.8h.3l.3-.3v-.9h.4s.2-.2.3-.3v-.9h.3l.3-.3v-.3h.3s.2-.2.3-.3v-.3h.3l.3-.3v-.3h.5l.3-.3v-.3h.3s.2-.2.3-.3v-.3h1.6l.3-.3v-.3h3.7v.2s.2.2.3.3h.9v.3l.3.3h.9v.3l.3.3h.3v.3l.3.3h.3v.9l.3.3h.3v.3l.3.3h.3v1.2h-.3l-.3.3v.3h-2.5v-.3l-.3-.3h-.3v-.9l-.3-.3h-.9v-.3l-.3-.3h-1.6v-.3l-.3-.3h-.6l-.3.3v.3h-.9s-.2.2-.3.3v.3h-.3l-.3.3v.3h-.3l-.3.3v.3h-.3s-.2.2-.3.3v.9h-.3s-.2.2-.3.3v3.7l.3.3h.3v2.8l.3.3h.3v.9l.3.3h.3v.3s.2.2.3.3h.3v.3s.2.2.3.3h0v.3s.2.2.3.3h.3v.3l.3.3h.3v.3l.3.3h1.1v.3s.2.2.3.3h1.9l.3-.3v-.2h.9s.2-.2.3-.3v-.3h.3l.3-.3v-.9h.3l.3-.3v-.9h.2l.3-.3v-.9h.3l.3-.3v-.3h1.9v.3l.3.3h.3v2.5h-.3l-.3.3v.9h-.2l-.3.3v.9h-.3l-.3.3v.3h-.3l-.3.3v.3h-.3l-.3.3v.3h-1l-.3.3v.3h-1.5l-.3.3v.3h-2.6"/>
  <path class="cls-2" d="M168.2,451.7v-.6h-1.9v-.6h-1.8v-.3l-.3-.3h-.8v-.3l-.3-.3h-1.6v-.3s-.2-.2-.3-.3h-1.5v-.3l-.3-.3h-1.6v-.3l-.3-.3h-.3v-3.1h.3l.3-.3v-.9h.3l.3-.3v-1.6h.3l.3-.3v-.9h.3l.3-.3v-1.6h.3s.2-.2.3-.3v-1.6h.3l.3-.3v-1.6h.3l.3-.3v-.9h.3l.3-.3v-1.4h.3l.3-.3v-.9h.3l.3-.3v-1.5h.3l.3-.3v-.3h.3s.2-.2.3-.3v-.3h.6v.3l.3.3h1.5v.3l.3.3h1.6v.3s.2.2.3.3h1.6v.3l.3.3h.9v.3s.2.2.3.3h1.4v.3l.3.3h.9v.3l.3.3h1.1v.3s.2.2.3.3h.3v.3s.2.2.3.3h.3v1.2h-.3l-.3.3v.3h-.3l-.3.3v.3h-.6v-.3s-.2-.2-.3-.3h-1.7v-.4l-.3-.3h-.9v-.3l-.3-.3h-.9v-.3l-.3-.3h-1.6v-.3l-.3-.3h-1.6v-.3h-.3c0-.1-.6-.1-.6-.1,0,0-.2.2-.3.3v.3h-.4l-.3.3v.3h-.3l-.3.3v1.5h-.3l-.3.3v1.3l.3.3h.9v.3l.3.3h.9v.3l.3.3h.9v.3s.2.2.3.3h1.6v.3l.3.3h.3v.3l.3.3h.3v1.8h-.9l-.3.3v.3h-.6v-.3l-.3-.3h-1.6v-.3l-.3-.3h-1.6v-.3s-.2-.2-.3-.3h-2.6l-.3.3v1.6h-.2l-.3.3v.9h-.3l-.3.3v1.9s.2.2.3.3h1v.3s.2.2.3.3h.9v.3l.3.3h1.5v.3l.3.3h1.6v.3l.3.3h.9v.3l.3.3h1.6v.3l.3.3h.3v2.4h-3.1"/>
  <path class="cls-2" d="M312.9,451.7v-.6h-.6v-.9s-.2-.2-.3-.3h-.3v-1.6l-.3-.3h-.3v-1.6l-.3-.3h-.3v-1.6l-.3-.3h-.3v-.9l-.3-.3h-.3v-1.6l-.3-.3h-.3v-1.5l-.3-.3h-.4v-1.6l-.3-.3h-.3v-.8l-.3-.3h-.3v-1.6s-.2-.2-.3-.3h-.3v-.9l-.3-.3h-.3v-.6h.3s.2-.2.3-.3v-.9h2.5v.3l.3.3h.3v.9l.3.3h.3v1.5l.3.3h.4v1.6l.3.3h.3v.9l.3.3h2.6s.2-.2.3-.3v-.3h1.6l.3-.3v-.3h.9l.3-.3v-.3h.8l.3-.3v-.3h.9l.3-.3v-.6l-.3-.3h-.3v-1.5s-.2-.2-.3-.3h-.3v-1.6l-.3-.3h-.3v-3.7h.3l.3-.3v-.3h1.3v.3l.3.3h.3v.3l.3.3h.1v1.5l.3.3h.3v.9l.3.3h.3v1.6l.3.3h.3v1.4s.2.2.3.3h.3v.9l.3.3h.3v1.6l.3.3h.3v1.6l.3.3h.3v.9l.3.3h.6v1.6s.2.2.3.3h.3v.9l.3.3h.3v1.6s.2.2.3.3h.3v.6h-.3l-.3.3v.9h-2.6v-.2l-.3-.3h-.3v-1.5l-.3-.3h-.3v-.9s-.2-.2-.3-.3h-.3v-1.6l-.3-.3h-.3v-1.6s-.2-.2-.3-.3h-.3v-.9l-.3-.3h-1.3l-.3.3v.2h-1.5l-.3.3v.3h-.9l-.3.3v.3h-1.6l-.3.3v.3h-.9l-.3.3v.5h-.3l-.3.3v.6l.3.3h.3v1.4s.2.2.3.3h.3v.9s.2.2.3.3h.3v1.6l.3.3h.3v3.7h-2.6"/>
  <path class="cls-2" d="M333,444.3v-.6h-.6v-.3l-.3-.3h-.3v-.3l-.3-.3h-.3v-1.6s-.2-.2-.3-.3h-.3v-.9l-.3-.3h-.3v-.9s-.2-.2-.3-.3h-.3v-.9l-.3-.3h-.3v-.9l-.3-.3h-.3v-1.6l-.3-.3h-.3v-.3l-.3-.3h-.3v-1.6l-.3-.3h-.2v-.9l-.3-.3h-.3v-.3l-.3-.3h-.3v-.9l-.3-.3h-.3v-.3l-.3-.3h-.4v-2.6h.3s.2-.2.3-.3v-.3h.3s.2-.2.3-.3v-.3h1.9v.3l.3.3h1.6v.3l.3.3h.3v.3l.3.3h.3v.6l.3.3h1v.3l.3.3h.9v.3l.3.3h.3v.3l.3.3h.9v.3s.2.2.3.3h.3v.3l.3.3h.3v.3s.2.2.3.3h.9v.3l.3.3h.3v.3l.3.3h.9v.3l.3.3h.9v.3l.3.3h.6l.3-.3-.3-.3h-.3v-.9s-.2-.2-.3-.3h-.3v-1.6l-.3-.3h-.2v-.3l-.3-.3h-.3v-1.6l-.3-.3h-.3v-.3l-.3-.3h-.3v-.9l-.3-.3h-.4v-1.1l-.3-.3h-.3v-.9s-.2-.2-.3-.3h-.3v-2.6h.3l.3-.3v-.3h1.3v.3l.3.3h.3v.3l.3.3h.3v.9l.3.3h.4v.9l.3.3h.3v1l.3.3h.3v.9l.3.3h.3v1.1l.3.3h.3v.9l.3.3h.3v.9s.2.2.3.3h.3v.9l.3.3h.3v.9l.3.3h.3v.9l.3.3h.3v.9l.3.3h.3c0,.1.2.3.3.4h.3v1.6l.3.3h.3v.6h-.3l-.3.3v.9h-.9l-.3.3v.3h-1.3v-.3l-.3-.3h-.9v-.3l-.3-.3h-.9v-.3l-.3-.3h-.3c0-.1-.3-.4-.3-.4h-.9v-.3l-.3-.3h-.3v-.3l-.3-.3h-.3v-.3l-.3-.3h-1.1v-.4l-.3-.3h-.3v-.3l-.3-.3h-.3v-.3s-.2-.2-.3-.3h-.9v-.3l-.3-.3h-.3v-.3l-.3-.3h-.9v-.3l-.3-.3h-.9v-.3l-.3-.3h-.7s-.2.2-.3.3l.3.3h.3v.9s.2.2.3.3h.3v.9l.3.3h.3v.9s.2.2.3.3h.3v.9l.3.3h.3v1.6l.3.3h.3v.9l.3.3h.3v1.5l.3.3h.3v3.1h-.9l-.3.3v.3h-.6"/>
  <path class="cls-2" d="M141.9,441.2v-1.3h-.6v-.6h.3l.3-.3v-.9h.4l.3-.3v-.9h.3s.2-.2.3-.3v-.9h.3l.3-.3v-.9h.3l.3-.3v-.9h.3l.3-.3v-.9h.3l.3-.3v-.9h.3l.3-.3v-.9h.3l.3-.3v-.9h.3l.3-.3v-.9h.3l.3-.3v-.9h.3s.2-.2.3-.3v-.9h.3l.3-.3-.3-.3h-.3v-.3s-.2-.2-.3-.3h-.3v-.3l-.3-.3h-.9v-.3l-.3-.3h-.9v-.3l-.3-.3h-1v-2.5h2.6v.3l.3.3h1.5v.3l.3.3h.9v.3l.3.3h.3v.3l.3.3h1.6v.3l.3.3h.9v.3l.3.3h.9v.3s.2.2.3.3h.9v.3l.3.3h.9v.3l.3.3h.9v.3l.3.3h.3v.3l.3.3h.3v1.3h-.3l-.3.3v.3h-3.2v-.3l-.3-.3h-.9v-.3l-.3-.3h-.9v-.2l-.3-.3h-.8l-.3.3v.3h-.3s-.2.2-.3.3v.3h-.3l-.3.3v.9h-.3l-.3.3v.9h-.3l-.3.3v.9h-.3l-.3.3v.9h-.3l-.3.3v.9h-.3l-.3.3v.9h-.3l-.3.3v.9h-.3l-.3.3v.9h-.3l-.3.3v1.6h-.3l-.3.3v.9h-.3l-.3.3v.3h-.3l-.3.3v.3h-2.5"/>
  <path class="cls-2" d="M125.6,431.4v-.6h-1.9v-.6h-.6v-.3l-.3-.3h-.3v-.3l-.3-.3h-.3v-.3l-.3-.3h-.2v-.9s-.2-.2-.3-.3h-.3v-.9s-.2-.2-.3-.3h-.3v-3.1h.3s.2-.2.3-.3v-1.6h.3l.3-.3v-.9h.3l.3-.3v-.3h.3l.3-.3v-.9h.3l.3-.3v-.3h.3l.3-.3v-.9h.3l.3-.3v-.9h.3l.3-.3v-.3h.3l.3-.3v-.9h.3s.2-.2.3-.3v-.3h.2l.3-.3v-.9h.3l.3-.3v-.9h.3l.3-.3v-.3h.3l.3-.3v-.3h1.3v.3l.3.3h.9v2.5h-.3s-.2.2-.3.3v.9h-.3l-.3.3v.3h-.3l-.3.3v.9h-.2l-.3.3v.3h-.3l-.3.3v.9h-.3l-.3.3v.3h-.3l-.3.3v.8h-.4l-.3.3v.3h-.3l-.3.3v.9h-.3l-.3.3v.9h-.3l-.3.3v.9h-.3l-.3.3v2.5l.3.3h.3v.9l.3.3h.3v.3s.2.2.3.3h.9v.3l.3.3h3.2l.3-.3v-.3h.3s.2-.2.3-.3v-.3h.3l.3-.3v-.3h.3s.2-.1.2-.2v-.9h.3l.3-.3v-.9h.3l.3-.3v-.3h.3l.3-.3v-.9h.3l.3-.3v-.3h.3l.3-.3v-.9h.3l.3-.3v-.3h.3l.3-.3v-1.1h.3l.3-.3v-.9h.3s.2-.2.3-.3v-.3h.3l.3-.3v-.9h2.6v.4l.3.3h.3v1.8h-.3s-.2.2-.3.3v.2h-.3l-.3.3v.9h-.4l-.3.3v1.1h-.3l-.3.3v.3h-.3l-.3.3v.9h-.3l-.3.3v.3h-.3l-.2.2v.9h-.3s-.2.2-.3.3v.9h-.3l-.3.3v.3h-.3l-.3.3v.9h-.3l-.3.3v.9h-.3l-.3.3v.3h-.3l-.3.3v.3h-.3s-.2.2-.3.3v.3h-.9l-.3.3v.4h-5.8"/>
  <path class="cls-2" d="M370,422v-.6h-.6v-.3l-.3-.3h-.3v-.3s-.2-.2-.3-.3h-.3v-.9l-.3-.3h-.3v-.3l-.3-.3h-.3v-.9l-.3-.3h-.3v-.3l-.3-.3h-.2v-.3l-.3-.3h-.3v-.9l-.3-.3h-.3v-.3l-.3-.3h-.3v-.9l-.3-.3h-.4v-.3s-.2-.2-.3-.3h-.3v-.3l-.3-.3h-.3v-.3l-.3-.3h-.3v-.3l-.3-.3h-.3v-.9l-.3-.3h-.3v-.3l-.3-.3h-.3v-.3l-.3-.3h-.3v-.3l-.3-.3h-.3v-2.4h.3s.2-.2.3-.3v-.3h1.9v.3l.3.3h.3v.4l.3.3h.3v.9s.2.2.3.3h.3v.3l.3.3h.3v.3l.3.3h.3v.9l.3.3h.3v.3l.3.3h.3v.3l.3.3h.4v.3l.3.3h.3v.9s.2.2.3.3h.3v.3l.3.3h.3v.9l.3.3h.3v.3l.3.3h.3v.9l.3.3h.3v.3l.3.3h.3v.3l.3.3h.3v.3s.2.2.3.3h.6l.3-.3v-.3h.9l.3-.3v-.3h.3l.3-.3v-.3h.3s.2-.2.3-.3v-.3h.9l.3-.3v-.3h.3l.3-.3v-.3h.3l.3-.3v-.3h.3l.3-.3v-.3h.3l.3-.3v-.3h.9l.3-.3v-.3h1.8v.3s.2.2.3.3h.3v1.9h-.3l-.3.3v.3h-.3l-.3.3v.3h-.3l-.3.3v.3h-.3l-.3.3v.3h-.9l-.3.3v.3h-.3s-.2.2-.3.3v.3h-.9s-.2.2-.3.3v.2h-.3l-.3.3v.3h-.3l-.3.3v.3h-.3l-.3.3v.3h-.9l-.3.3v.4h-.3l-.3.3v.3h-.3l-.3.3v.3h-1.9"/>
  <path class="cls-2" d="M104.9,417.7v-.6h-.6v-.3l-.3-.3h-.3v-1.3h.3l.3-.3v-.3h.3l.3-.3v-.9h.3l.3-.3v-.3h.3l.3-.3v-.3h.3l.3-.3v-.3h.3l.3-.3v-.8h.3l.3-.3v-.3h.3s.2-.2.3-.3v-.3h.3s.2-.2.3-.3v-.3h.3s.2-.2.3-.3v-.9h.3l.3-.3v-.3h.2l.3-.3v-.9h.3l.3-.3v-.3h.3l.3-.3v-.3h.3l.3-.3v-.3h.4l.3-.3v-.3h.3l.3-.3v-1.3l-.3-.3h-.9v-.3l-.3-.3h-.3v-.3l-.3-.3h-.3v-.3s-.2-.2-.3-.3h-.3v-.3l-.3-.3h-.3v-.9l-.3-.4h-.3v-.6h.3l.3-.3v-.3h.2l.3-.3v-.3h1.3v.3l.3.3h1.6v.3l.3.3h.3v.9l.3.3h.9v.3l.3.3h.3v.3l.3.3h.3v.3l.3.3h.3v.3l.3.3h.9v.3s.2.2.3.3h.3v.3l.3.3h.3v.3s.2.2.3.3h.5v.3l.3.3h.9v.3l.3.3h.3v.3l.3.3h.3v.3l.3.3h.3v.9l.3.3h.3v.6h-.3l-.3.3v.3h-.3s-.2.2-.3.3v.3h-1.3v-.3l-.3-.3h-.9v-.3s-.2-.2-.3-.3h-.3v-.3s-.2-.2-.3-.3h-.3v-.3l-.3-.3h-1.1v-.2l-.3-.3h-.3v-.3l-.3-.3-.3.3v.3h-.3l-.3.3v.3h-.3l-.3.3v.3h-.1l-.3.3v.3h-.3l-.3.3v.8h-.3l-.3.3v.3h-.3l-.3.3v.3h-.4l-.3.3v.3h-.3l-.3.3v.9h-.3l-.3.3v.3h-.3s-.2.2-.3.3v.3h-.4s-.2.2-.3.3v.9h-.2l-.3.3v.3h-.3s-.2.2-.3.3v.3h-.3l-.3.3v.3h-.3l-.3.4v.9h-.3l-.3.3v.3h-.3l-.3.3v.3h-1.9"/>
  <path class="cls-2" d="M92.3,407.8v-3.1h.6v-.6h.6v-.6h.6v-.6h.3l.4-.3v-.3h.3l.3-.3v-.3h.3s.2-.2.3-.3v-.3h.3l.3-.3v-.3h.3l.3-.3v-.2h.1l.3-.3v-.3h.3l.3-.3v-.3h.3l.3-.3v-1.1h.3l.3-.3v-.3h.4l.3-.3v-.3h.3l.3-.3v-.3h.3l.3-.3v-.3h.3l.3-.3v-.3h.4s.2-.2.3-.3v-.3h.3s.2-.2.3-.3v-.3h.3l.3-.3v-.3h.3l.3-.3v-.3h.3l.3-.3v-.3h.3l.3-.3v-.3h1.3v.3s.2.2.3.3h.9v2.6h-.4l-.3.3v.3h-.3l-.3.3v.3h-.3l-.3.3v.3h-.3l-.3.3v.3h-.3s-.2.2-.3.3v.3h-.3l-.3.3v.2h-.3l-.3.3v.3h-.3l-.3.3v.3h-.3l-.3.3v.3h-.2l-.3.3v.9h-.3l-.3.3v.3h-.3l-.3.3v.3h-.3l-.3.3v.3h-.4l-.3.3v.3h-.3l-.3.3v.3h-.3l-.3.3v.3h-.3l-.3.3v.3h-.4l-.3.3v.3h-.2l-.3.3v.3h-.3l-.3.3v.3h-.3l-.3.3v.3h-.3s-.2.2-.3.3v.3h-2.5"/>
  <path class="cls-2" d="M81.1,396v-.6h-.6v-1.8h.3s.2-.2.3-.3v-.3h.3l.3-.3v-.3h.3l.3-.3v-.3h.3l.3-.3v-.3h.3s.2-.2.3-.3v-.3h.3l.3-.3v-.3h.2l.3-.3v-.2h.3l.3-.3v-.3h.3l.3-.3v-.3h.3s.2-.2.3-.3v-.3h.4l.3-.3v-.4h.3l.3-.3v-.3h.9l.3-.3v-.3h.3l.3-.3v-.3h.3l.3-.3v-.3h.3s.2-.2.3-.3v-.3h.3s.2-.2.3-.3v-.3h.3s.2-.2.3-.3v-.3h.3l.3-.3-.3-.3h-.4v-.9s-.2-.2-.3-.3h-.3v-.3l-.3-.3h-.3v-.3l-.3-.3h-.3v-.3l-.3-.3h-.3v-.3l-.3-.3h-.3v-2.6h2.6v.3l.3.3h.2v.3l.3.3h.3v.3l.3.3h.3v.3l.3.3h.3v.3l.3.3h.4v.3l.3.3h.3v.3l.3.3h.3v.3l.3.3h.3v.3l.3.3h.3v.4l.3.3h.3v.3s.2.2.3.3h.3v.3l.3.3h.3v1.1l.3.3h.3v.3l.3.3h.3v.3l.3.3h.3v.3l.3.3h.3v2.6h-2.6v-.3l-.3-.3h-.3v-.3l-.3-.3h-.3v-.3c-.2-.2-.3-.3-.4-.6h-.3v-.3l-.3-.3h-.3v-.3l-.3-.3h-.3v-.3l-.3-.3h-.6l-.3.3v.3h-.3l-.3.3v.3h-.2l-.3.3v.3h-.3l-.3.3v.3h-.9l-.3.3v.3h-.3l-.3.3v.3h-.3l-.3.3v.4h-.3l-.3.3v.3h-.3l-.3.3v.3h-.3l-.3.3v.3h-.3l-.3.3v.3h-.3l-.3.3v.3h-.3l-.3.3v.3h-.3l-.3.3v.3h-.3l-.3.3v.3h-.3l-.3.3v.3h-.4l-.3.3v.3h-.3l-.3.3v.3h-2.6"/>
  <path class="cls-2" d="M398.8,392.3v-.6h-1.9v-.6h-1.2v-.3l-.3-.3h-.9v-.3l-.3-.3h-.3v-.3l-.3-.3h-.3v-.3l-.3-.3h-.3v-.3l-.3-.3h-.3v-.3l-.3-.3h-.3v-.3s-.2-.2-.3-.3h-.3v-.3l-.3-.3h-.3v-.9l-.3-.3h-.5v-1.5l-.3-.3h-.3v-4.4h.3s.2-.2.3-.3v-1.6h.3l.3-.3v-.3h.3l.3-.3v-.9h.9l.3-.3v-.3h.3l.3-.3v-.4h2.2l.3-.3v-.3h3.8v.3l.3.3h.9v.3l.3.3h.3v1.3h-.3s-.2.2-.3.3v.4h-.1l-.3.3v.3h-5.3l-.3.3v.3h-.3l-.3.3v.3h-.3l-.3.3v4.3l.3.3h.3v.3l.3.3h.3v1.5l.3.3h.3v.3l.3.3h.3v.3l.3.3h.3v.3l.3.3h.3v.3l.3.3h.9v.3l.3.3h1.6v.3l.3.3h3.7l.3-.3v-.3h.3l.3-.3v-.3h.9l.3-.3v-.9h.3l.3-.3v-3.1s-.2-.2-.3-.3h-.3v-.3l-.3-.3h-.4v-.3l-.3-.3h-1.3l-.3.3v.3h-.3l-.3.3v.3h-.3l-.3.3v.3h-.3l-.3.3v.3h-1.9v-.3l-.3-.3h-.3v-1.9h.3l.3-.3v-.3h.4l.3-.3v-.9h.3l.3-.3v-.3h.3l.3-.3v-.3h.3s.2-.2.3-.3v-.3h3v.3l.3.3h.3v.3l.3.3h.3v.3l.3.3h.3v.3l.3.3h.4v.3l.3.3h.3v.3l.3.3h.3v.3l.3.3h.3v4.9h-.3l-.3.3v.9h-.3l-.3.3v.3h-.3l-.3.3v.9h-.3l-.3.3v.3h-1l-.3.3v.3h-.9l-.3.3v.3h-5.6"/>
  <path class="cls-2" d="M72.3,384.3v-.6h-1.3v-.3l-.3-.3h-.9v-.3s-.2-.2-.3-.3h-.8v-.3s-.2-.2-.3-.3h-.3v-.9l-.3-.3h-.3v-.3l-.3-.3h-.3v-.9s-.2-.2-.3-.3h-.4v-6.1h.3l.3-.3v-.3h.3l.3-.3v-.3h1.9v.3l.3.3h.3v2.4h-.3l-.3.3v1.3l.3.3h.3v2.2s.2.2.3.3h.3v.3l.3.3h.3v.3l.3.3h.3v.3l.3.3h3.2s.2-.2.3-.3v-.3h.3l.3-.3v-.3h.3l.3-.3v-3.1l-.3-.3h-.3v-1.6l-.3-.3h-.3v-.9l-.3-.3h-.3v-1.6l-.3-.3h-.3v-3.1h.3s.2-.2.3-.3v-.9h.3s.2-.2.3-.3v-.3h.3l.3-.3v-.3h.3l.3-.3v-.3h1.6s.2-.2.3-.3v-.3h1.3v.3l.3.3h2.2v.3l.3.3h.9v.3l.3.3h.3v.3s.2.2.3.3h.3v.3l.3.3h.3v.3l.3.3h.3v.8l.3.3h.3v.9l.3.3h.3v3.7h-.3l-.3.3v1.6h-.3l-.3.3v.4h-1.9v-.3l-.3-.3h-.3v-2.5h.3s.2-.2.3-.3v-1.3l-.3-.3h-.3v-1.6s-.2-.2-.3-.3h-.3v-.3l-.3-.3h-.3v-.4l-.3-.3h-.2v-.3l-.3-.3h-2.5l-.3.3v.3h-.3l-.3.3v3.1s.2.2.3.3h.3v.9s.2.2.3.3h.2v.9l.3.3h.3v2.2l.3.3h.3v2.4h-.3l-.3.3v.9h-.3l-.3.3v.9h-.3l-.3.3v.3h-.3l-.3.3v.3h-.3l-.3.3v.3h-1.6l-.3.3v.3h-3.1"/>
  <path class="cls-2" d="M418.2,375.6v-.6h-.6v-.3l-.3-.3h-.9v-.3l-.3-.3h-.3v-.3l-.3-.3h-.3v-.3l-.3-.3h-1v-.3l-.3-.3h-.3v-.3l-.3-.3h-.9v-.3l-.3-.3h-1.6v-.3l-.3-.3h-3.4v-.3l-.3-.3h-7.9v-2.4h.3l.3-.3v-.3h9.7l.3-.3v-.6s-.2-.2-.3-.3h-.3v-1.6s-.2-.2-.3-.3h-.1v-.9l-.3-.3h-.3v-2.6l-.3-.3h-.3v-3.1h2.5v.3l.3.3h.3v1.3l.3.3h.3v1.6l.3.3h.3v.9l.3.3h.3v2.8l.3.3h.3v1.6l.3.3h.3v.9l.3.3h.3v.3l.3.3h.9v.3s.2.2.3.3h.3v.3l.3.3h.9v.3l.3.3h.3v.3l.3.3h.3v.4l.3.3h.9v.3l.3.3h.3v.3l.3.3h.3v2.4h-.9l-.3.3v.3h-.8"/>
  <path class="cls-2" d="M59.2,370v-1.3h-.6v-3h.3s.2-.2.3-.3v-.9h.3s.2-.2.3-.3v-1.1h.3l.3-.3v-.3h.4l.3-.3v-.9h.3l.3-.3v-.9h.3l.3-.3v-.9h.3l.3-.3v-.9h.3l.3-.3v-.9h.3l.3-.3v-.8h.3l.3-.3v-.9h.3l.3-.3v-1.1h.3l.3-.3v-.6l-.3-.3-.3.3v.3h-.3l-.3.3v.3h-.9l-.3.3v.3h-.3l-.3.3v.3h-.9l-.3.3v.3h-.3l-.3.3v.4h-.9l-.3.3v.3h-.3l-.3.3v.3h-1.1l-.3.3v.3h-.3l-.3.3v.3h-.3s-.2.2-.3.3v.3h-.9l-.3.3v.3h-.9l-.3.3v.3h-1.2v-.3s-.2-.2-.3-.3h-.3v-.3l-.3-.3h-.3v-1.3h.3l.3-.3v-.3h.3l.3-.3v-.3h.3l.3-.3v-.3h.9s.2-.2.3-.3v-.3h.3l.3-.3v-.3h.9l.3-.3v-.3h.9l.3-.3v-.4h.2s.2-.2.3-.3v-.3h.9s.2-.2.3-.3v-.3h.3l.3-.3v-.3h.9s.2-.2.3-.3v-.3h.3s.2-.2.3-.3v-.3h.3l.3-.3v-.3h.9s.2-.2.3-.3v-.3h.9l.3-.3v-.3h.3l.4-.3v-.3h.9l.3-.3v-.3h.3l.3-.3v-.3h2.5v.3l.3.3h.3v.9l.3.3h.3v1.2h-.4l-.3.3v.9h-.3s-.2.2-.3.3v.9h-.3l-.3.3v.9h-.3s-.2.2-.3.3v.9h-.3s-.2.2-.3.3v1.1h-.3l-.3.3v.9h-.3s-.2.2-.3.3v.9h-.3s-.2.2-.3.3v.9h-.3l-.3.3v.9h-.3l-.3.3v.9h-.3l-.3.3v.9h-.3l-.3.3v.6l.3.3.3-.3v-.4h.3l.3-.3v-.3h.9l.3-.3v-.3h.9s.2-.2.3-.3v-.3h.3l.3-.3v-.3h.9s.2-.2.3-.3v-.3h.3l.3-.3v-.3h.9l.3-.3v-.3h.3l.3-.3v-.3h.9l.3-.3v-.3h.4l.3-.3v-.3h3.1v.9l.3.3h.3v.6h-.4l-.3.3v.3h-.3l-.3.3v.3h-.3l-.3.3v.3h-.3l-.3.3v.3h-1.5l-.3.3v.9h-1l-.3.3v.3h-1l-.3.3v.3h-.3l-.3.3v.3h-.9l-.3.3v.3h-.3l-.3.3v.4h-.9l-.3.3v.3h-.3l-.3.3v.3h-.9l-.3.3v.3h-.3l-.3.3v.3h-.9l-.3.3v.3h-.3l-.3.3v.3h-.3l-.3.3v.3h-3.2"/>
  <path class="cls-2" d="M49.1,352.6v-.6h-.6v-.9l-.3-.3h-.3v-.6h.3l.3-.3v-.3h.3l.3-.3v-.3h.3l.3-.3v-.3h.9l.3-.3v-.3h.9l.3-.3v-.3h.3s.2-.2.3-.3v-.3h.9l.3-.3v-.3h.9l.3-.3v-.3h.9s.2-.2.3-.3v-.2h.9l.3-.3v-.3h.9l.3-.3v-.3h.9l.3-.3v-.3h.9l.3-.3v-.4h.9l.3-.3v-.3h.3l.3-.3v-.3h.9l.3-.3v-.3h2.6v.3l.3.3h.3v1.9h-.3l-.3.3v.3h-.9s-.2.2-.3.3v.3h-.9l-.3.3v.4h-.3l-.3.3v.3h-.9l-.3.3v.3h-.9l-.3.3v.3h-1l-.3.3v.3h-.9l-.3.3v.3h-1.1l-.3.3v.3h-.9s-.2.2-.3.3v.3h-.3l-.3.3v.3h-.9l-.3.3v.3h-.9s-.2.2-.3.3v.3h-.3l-.3.3v.3h-.9l-.3.3v.3h-.3l-.3.3v.2h-1.9"/>
  <path class="cls-2" d="M435.2,349v-.6h-1.2v-.3l-.3-.3h-.9v-.4l-.3-.3h-1.1v-.3l-.3-.3h-.9v-.3l-.3-.3h-.9v-.3l-.3-.3h-.3v-.3l-.3-.3h-.9v-.3l-.3-.3h-.9v-.3l-.3-.3h-.9v-.3l-.3-.3h-.3v-.3l-.4-.3h-.9v-.3l-.3-.3h-1.4v-.3l-.3-.3h-.9v-.3s-.2-.2-.3-.3h-1.1v-.8l-.3-.3h-.3v-1.3h.3l.3-.3v-.3h2.6v.3l.3.3h.9v.3l.3.3h.9v.3l.3.3h.6l.3-.3v-.3h.6v.9l.3.3h.6s.2-.2.3-.3v-.6l-.3-.3h-.3v-2.2s-.2-.2-.3-.3h-.3v-.9l-.3-.3h-.3v-2.2s-.2-.2-.3-.3h-.3v-1.6l-.3-.3h-.3v-1.5l-.3-.3h-.3v-1.2h.3s.2-.2.3-.3v-.3h.2l.3-.3v-.3h1.2c0,.1.3.4.3.4h.3v.9l.3.3h.3v2.1l.3.3h.3v1.6l.3.3h.3v2.2l.3.3h.3v.9l.3.3h3.7l.3-.3v-.3h3.5l.3-.3v-.3h5.7v.3l.3.3h.3v1.3h-.3l-.3.3v.3h-.9l-.3.3v.3h-4.1l-.3.3v.3h-3.4l-.3.3v.3h-2.2l-.3.3v.3h-.3l-.3.3v.6l.3.3h.3v.9l.3.3h.3v.3s.2.2.3.3h.3v.3l.3.3h.9v.3l.3.3h1.1v.3l.3.3h1v.3l.3.3h.3v.3l.3.3h.3v.3l.3.3h.3v1.3h-.5l-.3.3v.3h-.3l-.3.3v.3h-.6"/>
  <path class="cls-2" d="M38.5,331.6v-.6h-.6v-3.1h.3l.3-.3v-.9h.3l.3-.3v-.3h.3l.3-.3v-.3h.3l.3-.3v-.9h.3l.3-.3h0c0-.1.3-.1.3-.1l.3-.3v-.3h.3s.2-.2.3-.3v-.3h.3l.3-.3v-.3h.3l.3-.3v-.9h.3s.2-.2.3-.3v-.3h.3l.3-.3v-.3h.3l.3-.3v-.3h.3l.3-.3v-.9h.3s.2-.2.3-.3v-.3h.3s.2-.2.3-.3v-.9h.5l.3-.3v-.3h.3l.3-.3s-.2-.2-.3-.3h-.6s-.2.2-.3.3v.3h-.9s-.2.2-.3.3v.3h-1.6s-.2.2-.3.3v.3h-.9l-.3.3v.3h-1.6l-.3.3v.3h-1.1l-.3.3v.3h-.9l-.3.3v.3h-.9l-.3.3v.3h-.9l-.3.3v.3h-1.8v-.9l-.3-.3h-.3v-2.4h1.1l.3-.3v-.3h1.5l.3-.3v-.3h.9l.3-.3v-.3h1.6l.3-.3v-.3h1.6s.2-.2.3-.3v-.3h.9s.2-.2.3-.3v-.3h.9s.2-.2.3-.3v-.3h1.6s.2-.2.3-.3v-.3h.9s.2-.2.3-.3v-.5h1.6s.2-.2.3-.3v-.3h1l.3-.3v-.3h3.1v.3l.3.3h.3v.9l.3.3h.3v.6h-.3l-.3.3v1.1h-.3s-.2.2-.3.3v.3h-.4l-.3.3v.3h-.3s-.2.2-.3.3v.9h-.3l-.3.3v.3h-.3l-.3.3v.3h-.3l-.3.3v.9h-.3l-.3.3v.3h-.3l-.3.3v.3h-.3s-.2.2-.3.3v.3h-.3l-.3.3v.3h-.2l-.3.3v.9h-.3l-.3.3v.3h-.3l-.3.3v.9h-.3l-.3.3v.3h-.5l-.3.3v.3h-.3l-.3.3v.9h-.3l-.3.3.3.3h.6l.3-.3v-.3h.9l.3-.3v-.3h1.7l.3-.3v-.3h.9l.3-.3v-.3h1.6l.3-.3v-.3h.9l.3-.3v-.3h1.5s.2-.2.3-.3v-.3h.9l.3-.3v-.3h3.1v.3s.2.2.3.3h.3v1.8h-1.1s-.2.2-.3.3v.3h-.3l-.3.3v.3h-1.6l-.3.3v.3h-1.6l-.3.3v.3h-.9l-.3.3v.3h-.9l-.3.3v.3h-1.6l-.3.3v.3h-.9l-.3.3v.3h-1.5l-.3.3v.3h-1l-.3.3v.3h-1.6l-.3.3v.3h-.9l-.3.3h0c0,.1-3.1.1-3.1.1"/>
  <path class="cls-2" d="M448.9,310v-.6h-1.8v-.6h-1.9v-.3l-.3-.3h-2.2v-.2s-.2-.2-.3-.3h-2.2v-.3s-.2-.2-.3-.3h-1.6v-.3l-.3-.3h-2.2v-.3l-.3-.3h-2.2v-.5s-.2-.2-.3-.3h-.3v-.3l-.3-.3h-.3v-1.7h.3s.2-.2.3-.3v-.3h.3l.3-.3v-.3h.9l.3-.3v-.3h1.6l.3-.3v-.5h1.6l.3-.3v-.3h2.8l.3-.3v-.3h2.2l.3-.3v-.3h2.2l.3-.3v-.3h2.8s.2-.2.3-.3v-.6l-.3-.3h-1.6v-.3s-.2-.2-.3-.3h-2.2v-.3l-.3-.3h-1.6v-.3l-.3-.3h-2.2v-.3l-.3-.3h-1.6v-.3l-.3-.3h-2.2v-.3s-.2-.2-.3-.3h-.3v-.9l-.3-.3h-.3v-.6h.3s.2-.2.3-.3v-.3h3.1v.3l.3.3h2.2v.3l.3.3h1.6v.3l.3.3h2.2v.3l.3.3h1.5v.3s.2.2.3.3h2.2v.3l.3.3h2.2v.3l.3.3h2.2v.3s.2.2.3.3h.3v.3l.3.3h.3v1.2h-.3l-.3.3v.9h-.3l-.3.3v.3h-.9l-.3.3v.3h-2.8l-.3.3v.3h-1.6l-.3.3v.3h-2.8l-.3.3v.3h-1.6l-.3.3v.3h-2.1l-.3.3v.5h-1.6l-.3.3v.3h-.4l-.3.3.3.3h.9v.3l.3.3h2.2v.3l.3.3h2.2c0,.1.3.4.3.4h1.6v.3s.2.2.3.3h2.2v.3s.2.2.3.3h1.6v.3l.3.3h.3v.5l.3.3h.3v1.3h-.3l-.3.3v.3h-3.2"/>
  <path class="cls-2" d="M26.6,292.2v-.6h-.6v-2.4h.3l.3-.3v-.3h2.8l.3-.3v-.3h2.1l.3-.3v-.3h2.8l.3-.3v-.3h2.8l.3-.3v-.3h2.2l.3-.3v-.3h2.2s.2-.2.3-.3v-.3h3.2v.9l.3.3h.3v1.3h-.3l-.3.3v.3h-.3l-.3.3v.3h-2.2l-.3.3v.3h-2.8l-.3.3v.3h-2.2l-.3.3v.3h-2.2s-.2.2-.3.3v.3h-2.8l-.3.3v.3h-2.2l-.3.3v.3h-3.1"/>
  <path class="cls-2" d="M447.6,269.8v-.6h-6.2v-.6h-1.9v-3.1h5v.6h5.6v.6h6.9v-.6h.6v-1.2h.6v-1.9h.6v-1.3h-.6v-1.8h-.6v-.6h-.6v-.6h-1.9v-.6h-7.5v-.6h-5.6v-.6h-.6v-2.4h7.5v.6h8.2v.6h1.3v.6h.6v.6h.6v.6h.7v.6h.6v1.3h.6v1.9h.7v2.4h-.7v1.9h-.6v1.2h-.6v1.2h-.6v.6h-.6v.6h-1.8v.6h-9.5"/>
  <path class="cls-2" d="M21.6,262.3v-.6h-.7v-1.8h.5l.3-.3v-.3h.3l.3-.3v-.3h.3l.3-.3v-.3h.9l.3-.3v-.3h.3s.2-.2.3-.3v-.3h.9l.3-.3v-.3h.9s.2-.2.3-.3v-.3h.9l.3-.3v-.3h.3l.3-.3v-.3h.9l.3-.3v-.3h.9s.2-.2.3-.3v-.3h.2l.3-.3v-.3h.9l.3-.3v-.3h.3l.3-.3v-.3h.9l.3-.3v-.3h.9s.2-.2.3-.3l-.3-.3h-15.3v-.3l-.3-.3h-.3v-1.2h.3l.3-.3v-.3h.3l.3-.3v-.3h20v.3l.3.3h.3v2.6h-.3l-.3.3v.3h-.3l-.3.3v.3h-.3l-.3.3v.3h-.9l-.3.3v.3h-.3l-.3.3v.3h-.9l-.3.3v.3h-.9l-.3.3v.3h-.3s-.2.2-.3.3v.3h-.8l-.3.3v.3h-.3l-.3.3v.3h-.9l-.3.3v.3h-.4l-.3.3v.3h-.9s-.2.2-.3.3v.2h-.3l-.3.3v.3h-.9l-.3.3.3.3h13.5v.3l.3.3h.3v1.2h-.3s-.2.2-.3.3v.3h-.3l-.3.3v.3h-20"/>
  <path class="cls-2" d="M21.6,242.5v-.6h-.7v-.3l-.3-.3h-.3v-2.4h20.7v.3s.2.2.3.3h.9v2.5h-.3l-.3.3v.3h-20"/>
  <path class="cls-4" d="M214.6,46.9v-.6h-.6v-.9l-.3-.2h-.4v-1.2h.6v.3l.3.3h.3v.9l.3.3h.3v1.3h-.6"/>
  <path class="cls-2" d="M288.5,34.6v-.6h-.6v-.3l-.3-.3h-.3v-2.4h.3l.3-.3v-.3h.3l.3-.3v-.3h2.5v.3l.3.3h.3v.3l.3.3h.3v2.4h-.2l-.3.3v.3h-.3l-.3.3v.3h-2.5"/>
  <path class="cls-2" d="M239,399.1v-.6h-1.2v-.3l-.3-.3h-.3v-.9l-.3-.3h-.3v-1.5l-.3-.3h-.3v-1.6l-.3-.3h-.3v-1.6l-.3-.3h-.3v-2.1s-.2-.2-.3-.3h-.3v-3.4l-.3-.3h-.3v-8.3s-.2-.2-.3-.3h-.3v-.3l-.3-.3h-.8v-.3l-.3-.3h-3v-.3l-.3-.3h-4.7v-.3s-.2-.2-.3-.3h-5.3v-.3l-.3-.3-.3.3v.2h-.9s-.2.2-.3.3v.3h-.3l-.3.3v.9h-.3l-.3.3v2.2h-.3l-.3.3v1.5h-.3l-.3.3v1.6h-.3l-.3.3v.9h-.3l-.3.3v.9h-.3l-.3.3v.9h-.3l-.3.3v1.1h-.3l-.3.3v.3h-.3s-.2.2-.3.3v.9h-.3l-.3.3v.9h-.3l-.3.3v.3h-.4l-.3.3v.3h-.3l-.3.3v.3h-.3l-.3.3v.9h-.3l-.3.3v.3h-.4l-.3.3v.3h-3v-.3l-.3-.3h-2.2v-.3s-.2-.2-.3-.3h-1.6v-.9l-.3-.3h-.3v-4l-.3-.3h-.3v-6.2h.3l.3-.3v-4.6h.4l.3-.3v-2.3h.3s.2-.2.3-.3v-2.1h.3l.3-.3v-1.2s-.2-.2-.3-.3h-.3v-.3l-.3-.3h-.3v-.3l-.3-.3h-.9v-.3l-.3-.3h-1.6v-.3l-.3-.3h-1.5v-.3l-.3-.3h-1.6v-.3s-.2-.2-.3-.3h-1v-.3l-.3-.3h-1.5v-.3l-.3-.3h-.9v-.3l-.3-.3h-1.1v-.3l-.3-.3h-.9v-.3s-.2-.2-.3-.3h-1.2l-.3.3v.3h-.3l-.3.3v.9h-.3l-.3.3v1.1h-.3l-.3.3v.3h-.3s-.2.2-.3.3v.9h-.4l-.3.3v.3h-.3s-.2.2-.3.3v.9h-.3l-.3.3v.3h-.3l-.3.3v.3h-.3l-.2.3v.9h-.9l-.3.3v.9h-.3s-.2.2-.3.3v.2h-.3l-.3.3v.3h-.3l-.3.3v.3h-.9l-.3.3v.3h-.3l-.3.3v.4h-.3l-.3.3v.3h-.4l-.3.3v.3h-.3l-.3.3v.3h-.9l-.3.3v.3h-.3l-.3.3v.3h-3.2v-.4l-.3-.3h-.8v-.3l-.3-.3h-.9v-.3l-.3-.3h-.3v-.3l-.3-.3h-.4v-.3s-.2-.2-.3-.3h-.3v-5.6h.3l.3-.3v-2.2h.3l.3-.3v-1.5h.3s.2-.2.3-.3v-1.6h.3s.2-.2.3-.3v-.9h.3l.3-.3v-1.5h.3l.3-.3v-.9h.3l.3-.3v-.9h.3l.3-.3v-.3h.3s.2-.2.3-.3v-.9h.2l.3-.3v-.9h.3l.3-.3v-2.6l-.3-.3h-.3v-.3h-.3c0,0-.9,0-.9,0v-.3s-.2-.2-.3-.3h-.3v-.3l-.3-.3h-.8v-.3l-.3-.3h-.3v-.3l-.3-.3h-.3v-.3s-.2-.2-.3-.3h-1.1v-.3l-.3-.3h-.3v-.3l-.3-.3h-.3v-.4l-.3-.3h-.9v-.3l-.3-.3h-.3v-.3l-.3-.3h-.3v-.3s-.2-.2-.3-.3h-.3v-.3s-.2-.2-.3-.3h-.9v-.3l-.3-.3h-.3v-.3s-.2-.2-.3-.3h-.6l-.3.3v.3h-.9l-.3.3v.4h-.3l-.3.3v.3h-.3l-.3.3v.3h-.3l-.3.3v.3h-.3l-.3.3v.3h-.3l-.3.3v.3h-.9l-.3.3v.3h-.3l-.3.3v.3h-.3l-.3.3v.3h-.9l-.4.3v.3h-.9s-.2.2-.3.3v.3h-.3l-.3.3v.3h-.7l-.3.3v.3h-.9l-.3.3v.2h-.3l-.3.3v.3h-.9l-.3.3v.3h-.9s-.2.2-.3.3v.3h-1.5l-.3.3v.4h-1.6l-.3.3v.3h-.6v-.3l-.3-.3h-1.1v-.3l-.3-.3h-.3v-.3l-.3-.3h-.3v-.3l-.3-.3h-.3v-.3l-.3-.4h-.3v-.3l-.2-.2h-.3v-2.4h.3l.3-.3v-1.6h.3l.3-.3v-.9h.3l.3-.3v-.9h.3s.2-.2.3-.3v-.9h.3s.2-.2.3-.3v-.9h.3l.3-.3v-.4h.3l.3-.3v-.3h.3s.2-.2.3-.3v-.9h.3s.2-.2.3-.3v-.3h.3s.2-.2.3-.3v-.3h.3l.3-.3v-.9h.3s.2-.2.3-.3v-.3h.3l.3-.3v-.3h.3s.2-.2.3-.3v-.3h.3l.3-.3v-.3h.3l.3-.3v-.3h.3l.3-.3h0c0-.1.2-.1.2-.1,0,0,.2-.2.3-.3v-.3h.3l.3-.3v-.3h.3l.3-.3v-2.5l-.3-.3h-.3v-.3s-.2-.2-.3-.3h-.3v-.3l-.3-.3h-.3v-.3l-.3-.3h-.3v-.3l-.3-.3h-.3v-.3l-.3-.3h-.3v-.9s-.2-.2-.3-.3h-.2v-.3s-.2-.2-.3-.3h-.3v-.9l-.3-.3h-.3v-.3l-.3-.3h-.3v-.3l-.3-.3h-.4v-.9l-.3-.3h-.3v-.3l-.3-.3h-.3v-.9l-.3-.3h-.3v-.3l-.3-.3h-.4v-.9l-.3-.3h-2.4l-.3.3v.3h-.3l-.3.3v.3h-.9l-.3.3v.3h-.9l-.3.3v.3h-.9l-.3.3v.3h-1.6l-.3.3h0c0,.1-.9.1-.9.1l-.3.3v.3h-1.5l-.3.3v.3h-2.2l-.3.3v.3h-2.2l-.3.3v.5h-4.2l-.3.3v.3h-1.8v-.3l-.3-.3h-.3v-.3l-.3-.3h-.4v-.3l-.3-.3h-.3v-.9l-.3-.3h-.4v-.9l-.3-.3h-.3v-3.1h.3l.3-.3v-.3h.3l.3-.3v-.9h.3s.2-.2.3-.3v-.3h.3l.3-.3v-.3h.3s.2-.2.3-.3v-.3h.3l.3-.3v-.3h.3s.2-.2.3-.3v-.3h.3s.2-.2.3-.3v-.3h.3s.2-.2.3-.3v-.5h.3s.2-.2.3-.3v-.3h.3l.3-.3v-.3h.3l.3-.3v-.3h1.1s.2-.2.3-.3v-.3h.3s.2-.2.3-.3v-.3h.3l.3-.3v-.3h1.1s.2-.2.3-.3v-.3h.3s.2-.2.3-.3v-.3h.9l.3-.3v-.3h.9l.3-.3v-.3h.3s.2-.2.3-.3v-.3h.9s.2-.2.3-.3v-.3h.3s.2-.2.3-.3h0c0-.1.3-.1.3-.1l.3-.3v-1.3l-.3-.3h-.3v-.9l-.3-.3h-.4v-1.6l-.3-.3h-.3v-.9s-.2-.2-.3-.3h-.3v-.9s-.2-.2-.3-.3h-.3v-1.5l-.3-.3h-.5v-1.6l-.3-.3h-.3v-.9l-.3-.3h-.3v-2.1l-.3-.3h-.3v-.3l-.3-.3h-.3v-.3s-.2-.2-.3-.3h-1.9l-.3.3v.3h-2.2l-.3.3v.3h-3.4s-.2.2-.3.3v.3h-11.3v-.3l-.3-.3h-3.4v-.9s-.2-.2-.3-.3h-.3v-1.6l-.3-.3h-.3v-2.1l-.3-.3h-.3v-1.9h.3l.3-.3v-1.1h.9s.2-.2.3-.3v-.3h.3l.3-.3v-.3h.3l.3-.3v-.3h.9l.3-.3v-.3h.3l.3-.3v-.3h.9s.2-.2.3-.3v-.3h1s.2-.2.3-.3v-.3h.9s.2-.2.3-.3v-.3h1l.3-.3v-.3h.9l.3-.3v-.3h1.6s.2-.2.3-.3v-.3h1.6l.3-.3v-.3h1.6s.2-.2.3-.3v-.2h2.2l.3-.3v-.3h1.6s.2-.2.3-.3v-4.3l-.3-.3h-.3v-4.6l-.4-.3h-.3v-5.9l-.3-.3h-.3v-.3l-.3-.3h-.3v-.3s-.2-.2-.3-.3h-8.4v-.4s-.2-.2-.3-.3h-3.4v-.3l-.3-.3h-1.5v-.3l-.3-.3h-2.3v-.3s-.2-.2-.3-.3h-.9v-.3l-.3-.3h-1.6v-.3l-.3-.3h-.9v-.3s-.2-.2-.3-.3h-.9v-7.4h.4l.3-.3v-.3h1.6l.3-.3v-.3h.9l.3-.3v-.3h2.2s.2-.2.3-.3v-.3h1.6l.4-.3v-.3h2.2s.2-.2.3-.3v-.3h5.3l.3-.3v-.3h7.1l.3-.3v-.9h.2s.2-.2.3-.3v-5.3h.3l.3-.3v-4h.3l.3-.3v-3.4h.3l.3-.3v-1.3l-.3-.3h-.3v-.3s-.2-.2-.3-.3h-1.6v-.3l-.3-.3h-2v-.3l-.3-.3h-1.6v-.3l-.3-.3h-.9v-.3l-.3-.3h-1.5v-.3s-.2-.2-.3-.3h-.9v-.3l-.4-.3h-.3v-.3l-.3-.3h-.9v-.3l-.3-.3h-.9v-.3l-.3-.3h-.9v-.3s-.2-.2-.3-.3h-.3v-.3l-.3-.3h-.3v-.3s-.2-.2-.3-.3h-.8v-.3l-.3-.3h-.3v-.3l-.3-.3h-.3v-.3l-.3-.3h-.3v-.3l-.3-.3h-.4v-3.8h.3s.2-.2.3-.3v-2.2h.3l.3-.3v-.9h2.2s.2-.2.3-.3v-.3h13.1v.3s.2.2.3.3h3.5v.3l.3.3h2.2v.3l.3.3h1.9s.2-.2.3-.3v-.3h.3l.3-.3v-.9h.3l.3-.3v-1.5h.3l.3-.3v-.9h.3s.2-.2.3-.3v-1.6h.3s.2-.2.3-.3v-.9h.3l.3-.3v-.9h.3s.2-.2.3-.3v-.9h.3l.3-.3v-.9h.3s.2-.2.3-.3v-.9h.3l.3-.3v-.9h.3s.2-.2.3-.3v-.6s-.2-.2-.3-.3h-.3v-.3l-.3-.3h-.3v-.3l-.3-.3h-.3v-.3l-.3-.3h-.9v-.3l-.3-.3h-.9v-.3s-.2-.2-.3-.3h-.3v-.3l-.3-.3h-1v-.3s-.2-.2-.3-.3h-.3v-.3s-.2-.2-.3-.3h-.3v-.4s-.2-.2-.3-.3h-.9v-.6h-.4v-.3l-.3-.3h-.3v-.3s-.2-.2-.3-.3h-.3v-.3s-.2-.2-.3-.3h-.3v-.3l-.4-.3h-.3v-.3s-.2-.2-.3-.3h-.3v-.3l-.3-.3h-.3v-.3l-.3-.3h-.3v-.3l-.4-.4h-.3v-.3l-.3-.3h-.3v-.9l-.3-.3h-.3v-.3s-.2-.2-.3-.3h-.3v-.3l-.2-.3h-.3v-3.1h.3s.2-.2.3-.3v-.9h.3s.2-.2.3-.3v-.9h.3l.3-.3v-.3h.3l.3-.3v-.9h5.7v.3s.2.2.3.3h2.8v.3l.3.3h1.6v.3s.2.2.3.3h1.6v.4l.3.3h1.6v.3l.3.3h.9v.3s.2.2.3.3h.9v.3l.3.3h.9v.3h.3c0,.1.9.1.9.1v.3l.3.3h.9v.3s.2.2.3.3h.9v.3l.3.3h1.9l.3-.3v-.2h.3s.2-.2.3-.3v-.3h.3l.3-.3v-.9h.3s.2-.2.3-.3v-.3h.3s.2-.2.3-.3v-.9h.3l.3-.3v-.3h.3l.3-.3v-.3h.3l.3-.3v-.3h.2l.3-.3v-.3h.3l.3-.3v-.3h.3l.3-.3v-.9h.3l.3-.3v-.3h.4l.3-.3v-.3h.3l.3-.3v-1h.3l.3-.3v-1.8l-.3-.3h-.3v-.3s-.2-.2-.3-.3h-.3v-.3l-.3-.3h-.3v-.2l-.3-.3h-.3v-.3l-.3-.3h-.3v-.4l-.3-.3h-.3v-1l-.4-.2h-.3v-.3l-.3-.3h-.3v-.3l-.3-.3h-.3v-.9l-.3-.2h-.3v-.3s-.2-.2-.3-.3h-.2v-.9l-.3-.3h-.3v-.3s-.2-.2-.3-.3h-.3v-.9l-.3-.3h-.3v-.3l-.3-.3h-.4v-.9l-.3-.3h-.3v-1l-.3-.3h-.3v-1.5l-.3-.3h-.3v-.9s-.2-.2-.3-.3h-.4v-2.6h.3l.3-.3v-.9h.3s.2-.2.3-.3v-.3h.3s.2-.2.3-.3v-.3h.3l.3-.3v-.3h.3l.3-.3v-.3h.3l.3-.3v-.3h.3l.3-.3v-.3h3.1v.3l.3.3h.9v.3l.3.3h1.6v.5l.3.3h.9v.3l.3.3h.9v.3l.3.3h.3v.3s.2.2.3.3h.9v.3l.3.3h.4v.3l.3.3h.9v.3l.3.3h.3v.3l.3.3h.3v.3l.3.3h.9v.3l.3.3h.3v.3l.3.3h.3v.3l.3.3h.3v.3s.2.2.3.3h.3v.2s.2.2.3.3h.3v.3l.3.3h.3v.3l.3.3h.3v.3l.3.3h.3v.4l.3.3h1.9l.3-.3v-.3h.3l.3-.3v-.3h.3s.2-.2.3-.3v-.3h.3l.3-.3v-.3h1l.3-.3v-.4h.3l.3-.3v-.3h.3l.3-.3v-.3h.3s.2-.2.3-.3v-.3h.9l.3-.3v-.2h.3s.2-.2.3-.3v-.3h.9l.3-.3v-.4h.3l.3-.3v-.3h.3l.3-.3v-.4h.9s.2-.2.3-.3v-.3h.3l.3-.3v-1.7l-.3-.3h-.3v-1l-.3-.3h-.3v-1l-.3-.3h-.3v-.9l-.3-.3h-.3v-1.6l-.3-.3h-.3v-.9l-.3-.3h-.3v-1.6l-.4-.3h-.3v-1.4s-.2-.2-.3-.3h-.3v-1.6l-.3-.3h-.3v-2.6l-.3-.4h-.3v-5.7h.3l.3-.3v-.3h.3l.3-.3v-.3h.8l.3-.3v-.3h.9l.3-.3v-.3h1.1l.3-.3v-.3h.9s.2-.2.3-.3v-.3h1.9v.3s.2.2.3.3h.3v.3l.3.3h.9v.3l.3.3h.3v.3l.3.3h.3v.3l.3.3h.3v.3l.3.3h.9v.4s.2.2.3.3h.3v.3l.3.3h.3v.3l.3.3h.3v.3l.3.3h.3v.3l.3.3h.3v.3s.2.2.3.3h.3v.9l.3.3h.3v.3l.4.3h.3v.3l.3.3h.3v.9l.3.3h.3v.3l.3.3h.3v.9s.2.2.3.3h.3v.9s.2.2.3.3h.3v.9l.3.3h.3v.3s.2.2.3.3h.3v.3s.2.2.3.3h2.5l.3-.3v-.3h1s.2-.2.3-.3v-.3h.9l.3-.3v-.3h1.6s.2-.2.3-.3v-.3h1l.3-.3v-.3h.9s.2-.2.3-.3v-.3h1.6l.3-.3v-.3h1.6l.2-.4v-.3h.9l.3-.3v-3.1s-.2-.2-.3-.3h-.3v-2.8l-.3-.3h-.3v-3.4l-.3-.3h-.3v-8.6h.3l.3-.3v-3.4h.3l.3-.3v-.9h.9l.3-.3v-.3h2.2l.3-.3v-.3h2.2s.2-.2.3-.3v-.3h1.3v.3l.3.3h.9v.3s.2.2.3.3h.3v.9l.4.4h.3v.3l.3.3h.3v.3s.2.2.3.3h.3v.9l.3.3h.3c0,.1.3.4.3.4h.2v.9l.3.3h.3v1.1l.3.3h.3v.3l.3.3h.3v.9s.2.2.3.3h.4v1.6l.3.3h.3v.9s.2.2.3.3h.3v1.5l.3.3h.3v2.2l.3.3h.3v2.2l.3.3h.3v.3s.2.2.3.3h.3v.3l.3.3h3.1l.3-.3v-.3h4.1s.2-.2.3-.3v-.3h5.9l.3-.3v-.3h1.6s.2-.2.3-.3v-4.2h.3l.3-.3v-6.5h.4s.2-.2.3-.3v-2.8h.3l.3-.3v-1.6h.3l.3-.3v-2.2h.3l.3-.3v-.9h.3l.3-.3v-.9h.3l.3-.3v-.9h.3s.2-.2.3-.3v-.3h9.4v1s.2.2.3.3h.3v.9l.3.3h.3v1.6l.3.3h.3v1.6l.3.3h.3v2.2s.2.2.3.3h.3v3.4l.3.3h.3v9.6l.3.3h.3v.3l.3.3h2.2v.3l.3.3h5.3v.3l.3.3h4.7v.3l.3.3h2.6s.2-.2.3-.3v-.3h.3l.3-.3v-.9h.3l.3-.3v-2.2h.3s.2-.2.3-.3v-1.6h.3l.3-.3v-.9h.1s.2-.2.3-.3v-1.6h.3l.3-.3v-1.1h.3l.3-.3v-.9h.3s.2-.2.3-.3v-.9h.4s.2-.2.3-.3v-.9h.3l.3-.3v-.3h.3l.3-.3v-.9h.3s.2-.2.3-.3v-.3h.3l.3-.3v-.3h.3l.3-.3v-.8h.3s.2-.2.3-.3v-.3h.3l.3-.3v-.3h.3l.3-.3v-.3h1.9v.3s.2.2.3.3h2.2v.3l.3.3h2.2v.3l.3.3h.9v1.6s.2.2.3.3h.3v11.8h-.3l-.3.3v3.4h-.3l-.3.3v2.2h-.3l-.3.3v3.1l.3.3h.3c0,.1.3.4.3.4h1.5v.3l.3.3h.9v.3l.3.3h1.6v.3l.3.3h.9v.4l.3.3h1.6v.3l.3.3h.9v.3s.2.2.3.3h1.6v.3l.3.3h.9v.3l.3.3h2.6l.3-.3v-.3h.3l.3-.3v-.9h.3l.3-.3v-.9h.3s.2-.2.3-.3v-.3h.3l.3-.3v-.9h.3l.2-.4v-.3h.3l.3-.3v-.3h.3s.2-.2.3-.3v-.9h.3l.3-.3v-.2h.3l.3-.3v-.3h.3s.2-.2.3-.3v-.3h.3l.3-.3v-.3h.3l.3-.3v-.4h.3l.3-.3v-.3h.3l.3-.3v-.3h.3l.3-.3v-.3h.3s.2-.2.3-.3v-.3h1l.3-.3v-.3h.3l.3-.3v-.3h.3l.3-.3v-.3h1.1l.3-.3v-.3h.3l.3-.3v-.3h1.7v.3s.2.2.3.3h.3v.3l.3.3h1v.3l.3.3h1.5v.3l.3.3h.3v.4l.3.3h.6v3.7h-.3l-.3.3v2.6h-.3l-.3.3v2.2h-.3l-.3.3v1.6h-.3l-.3.3v.9h-.3l-.3.3v1.6h-.3l-.3.3v1.1h-.3l-.3.3v.9h-.3l-.3.3v.3h-.3l-.3.3v.9h-.3l-.3.3v.9h-.3l-.3.3v2.6l.3.3h.3v.3l.3.3h.3v.3l.3.3h.9v.3l.3.3h.3v.3s.2.2.3.3h.8v.3l.3.3h.3v.3l.3.3h.3v.3l.3.3h.3v.3l.3.3h.9v.3s.2.2.3.3h.3c0,0,.3.4.3.4h.3v.3l.3.3h.9v.3l.3.3h.3v.3l.3.3h.3v.4l.3.3h.3v.3s.2.2.3.3h.3v.3s.2.2.3.3h1.3l.3-.3v-.3h.3l.3-.3v-.3h.3s.2-.2.3-.3v-.3h.3l.3-.3v-.3h.3l.3-.3v-.3h.3l.3-.3v-.3h.3l.3-.3v-.4h.3l.3-.3v-.3h.9l.3-.3v-.3h.3l.3-.3v-.3h.3s.2-.2.3-.3v-.2h.9l.3-.3v-.3h.2l.3-.3v-.4h.9l.3-.3v-.3h.3l.3-.3v-.4h.9s.2-.2.3-.3v-.3h.9l.3-.3v-.3h.9l.3-.3v-.3h.9l.3-.3v-.3h1.6l.3-.3v-.3h2.5v.4l.3.3h.3v.3l.3.3h.9v.3l.3.3h.3v.9l.3.3h.3v.3l.3.3h.3v.9s.2.2.3.3h.3v.6h-.2l-.3.3v1.6h-.3l-.3.3v.9h-.3l-.3.3v.9h-.3l-.3.3v1.6h-.5l-.3.3v.3h-.3s-.2.2-.3.3v.7h-.3s-.2.2-.3.3v.3h-.3l-.3.3v.9h-.3s-.2.2-.3.3v.4h-.3l-.3.3v.3h-.3l-.3.3v.9h-.3l-.3.3v.3h-.6v.4h-.3s-.2.2-.3.3v.3h-.3s-.2.2-.3.3v.3h-.3l-.3.3v.3h-.3l-.3.3v.3h-.3l-.3.3v.3h-.3l-.3.3v.3h-.3l-.3.3v.3h-.3l-.3.3v1.2s.2.2.3.3h.3v.3l.3.3h.3v.9l.3.3h.3v.3l.3.3h.3v.3s.2.2.3.3h.3v.3l.3.3h.3v.3l.3.3h.3v.9l.3.3h.3v.3s.2.2.3.3h.3v.5l.3.3h.3v.9l.3.3h.3v.3l.3.3h.4v.3l.3.3h.3v.9s.2.2.3.3h.3v.3l.3.3h.3v.9l.3.3h2.6s.2-.2.3-.3v-.3h.9l.3-.3v-.3h1s.2-.2.3-.3v-.4h.9s.2-.2.3-.3v-.3h.9l.3-.3v-.4h.3s.2-.2.3-.3v-.3h1.6l.3-.3v-.3h1.6s.2-.2.3-.3v-.3h2.2l.3-.3v-.3h2.2l.3-.3v-.3h2.8l.3-.3v-.3h3.2v.3l.3.3h.1v.5l.3.3h.3v.9l.3.3h.3v.9l.3.3h.3v.9s.2.2.3.3h.3v3.1h-.3l-.3.3v.3h-.3s-.2.2-.3.3v.9h-.3l-.3.3v.3h-.3l-.3.3v.3h-.3l-.3.3v.3h-.3s-.2.2-.3.3v.3h-.3s-.2.2-.3.3v.3h-.3s-.2.2-.3.3v.3h-.3l-.3.3v.3h-.3l-.3.3v.3h-.3l-.3.3v.3h-.8s-.2.2-.3.3v.3h-.3l-.3.3v.3h-.3l-.3.3v.3h-.3l-.3.3v.3h-.9l-.3.3v.3h-.9l-.3.3v.3h-.9l-.3.3v.3h-.3l-.3.3v.3h-.9l-.3.3v.3h-.3l-.3.3v.3h-.3l-.3.3v1.9l.3.3h.3v.9l.3.3h.3v.9l.3.3h.3v.9l.3.3h.3v1.6s.2.2.3.3h.3v.9l.3.3h.3v1.5s.2.2.3.3h.3v1.6s.2.2.3.3h.3v1.6l.3.3h.3v.3s.2.2.3.3h.3v.3l.2.3h1.3l.3-.3v-.3h2.8l.3-.3v-.3h2.9l.3-.3v-.3h14.4v.3l.3.3h.9v.3l.3.3h.3v.9s.2.2.3.3h.3v3.4l.3.3h.3v1.3h-.3l-.3.3v.3h-.3l-.3.3v.3h-.3l-.3.3v.3h-.3l-.3.3v.3h-.9s-.2.2-.3.3v.3h-.3l-.3.3v.3h-.9l-.3.3v.3h-.3l-.3.3v.3h-.9s-.2.2-.3.3v.3h-.9l-.3.3v.3h-.8l-.3.3v.3h-.9l-.3.3v.3h-1.6l-.3.3v.3h-1.6l-.3.3v.3h-1.5l-.3.3v.3h-2.2s-.2.2-.3.3v.3h-.9s-.2.2-.3.3v.3h-.3l-.3.3v3.1s.2.2.3.3h.3v3.4l.3.3h.2v4.7l.3.3h.3v4s.2.2.3.3h.3v.3l.3.3h1.1v.3s.2.2.3.3l.3-.3v-.3h1.9v.3s.2.2.3.3h7.2v.3l.3.3h2.8v.3l.3.3h2.2v.3l.3.3h1.6v.3l.3.3h1.6v.3s.2.2.3.3h.9v.3s.2.2.3.3h.3v.3l.3.3h.3v6.3h-.3l-.3.3v.3h-.3l-.3.3v.3h-.9l-.3.3v.3h-1.1l-.3.3v.3h-1.6l-.3.3v.3h-1.6l-.3.3v.3h-1.6s-.2.2-.3.3v.3h-1.5l-.3.3v.3h-12.2l-.3.3v.3h-.3s-.2.2-.3.3v5.3h-.3s-.2.2-.3.3v3.4h-.3s-.2.2-.3.3v3.3h-.3l-.3.3v3.1l.3.3h.9v.3s.2.2.3.3h2.2v.3l.3.3h2.2v.3l.3.3h1.6v.3l.3.3h.9v.3l.3.3h1.5v.3l.3.3h1v.4s.2.2.3.3h.9v.3l.3.3h.9v.3l.3.3h.9v.3s.2.2.3.3h.3v.3s.2.2.3.3h.9v.3l.3.3h.3v.3l.3.3h.9v.3l.3.3h.3v.3l.3.3h.3v3.1h-.3l-.3.3v1.6h-.3l-.3.3v1.6h-.3s-.2.2-.3.3v.8h-2.8l-.3.3v.3h-10.1v-.3l-.3-.3h-3.4v-.3l-.3-.3h-2.2v-.3s-.2-.2-.3-.3h-2.2v-.3l-.3-.3h-1.3l-.3.3v.3h-.3l-.3.3v.3h-.3l-.3.3v.9h-.3l-.3.3v1.7h-.3l-.3.3v.9h-.3l-.3.3v.9h-.3s-.2.2-.3.3v1.5h-.3l-.3.3v.9h-.3s-.2.2-.3.3v.9h-.3l-.3.3v.8h-.3l-.3.3v.9h-.3l-.3.3v3.1l.3.3h.3v.3l.3.3h.9v.3s.2.2.3.3h.9v.3l.3.3h.9v.3l.3.3h.3v.5l.3.3h.9v.3l.3.3h.3v.3l.3.3h.9v.3l.3.3h.3v.3s.2.2.3.3h.9v.3l.3.3h.3v.3s.2.2.3.3h.3v.3s.2.2.3.3h.3v.3l.3.3h.3v.3l.3.3h.4v.3s.2.2.3.3h.3v.3s.2.2.3.3h.3v.3l.3.3h.3v.9l.3.3h.4v.3s.2.2.3.3h.3v.9l.3.3h.3v2.3h-.3l-.3.3v.9h-.3l-.3.3v1.1h-.3l-.3.3v.9h-.3l-.3.3v.3h-.3l-.3.3v.3h-3.7v-.3l-.3-.3h-3.5v-.3l-.3-.3h-1.6v-.3l-.3-.3h-1.5v-.3l-.3-.3h-.9v-.3l-.3-.3h-1.5v-.3l-.3-.3h-.9v-.3s-.2-.2-.3-.3h-.9v-.3s-.2-.2-.3-.3h-1v-.3s-.2-.2-.3-.3h-.9v-.3l-.3-.3h-.3v-.3l-.3-.3h-.9v-.3l-.3-.3h-1.9l-.3.3v.3h-.3l-.3.3v.9h-.3l-.3.3h0c0,.1-.3.1-.3.1l-.3.3v.9h-.3s-.2.2-.3.3v.3h-.3s-.2.2-.3.3v.5h-.3l-.3.3v.9h-.3l-.3.3v.3h-.3l-.3.3v.3h-.3s-.2.2-.3.3v.9h-.3s-.2.2-.3.3v.3h-.3l-.3.3v.3h-.3l-.3.3v.3h-.3s-.2.2-.3.3v.9h-.4s-.2.2-.3.3v.3h-.3l-.3.3h0c0,.1-.3.1-.3.1l-.3.3v1.9l.3.3h.3v.3l.3.3h.3v.3s.2.2.3.3h.3v.9l.3.3h.3v.3l.3.3h.3v.3l.3.3h.3v.3l.3.3h.3v.3l.3.3h.3v.4l.3.3h.3v.3l.3.3h.3v.9l.3.3h.3v.3l.3.3h.3v.9l.3.3h.3v.3l.3.3h.3v.9l.3.3h.4v.9l.3.3h.3v.3l.3.3h.3v.9l.3.3h.3v1.6l.3.3h.3v3.7h-.3l-.3.3v.3h-.3l-.3.3v.3h-.3l-.3.3v.3h-.3l-.3.3v.3h-.9l-.3.3v.3h-1.4v-.3l-.3-.3h-2.2v-.3l-.3-.3h-.3v-.3l-.3-.3h-.9v-.3l-.3-.3h-.9v-.3l-.3-.3h-.9v-.3l-.3-.3h-.3v-.3l-.4-.4h-.9v-.3l-.3-.3h-.9v-.3l-.3-.3h-.1v-.3l-.3-.3h-.3v-.3l-.3-.3h-.3v-.2l-.3-.3h-.3v-.3l-.3-.3h-.4v-.3l-.3-.3h-.3v-.3l-.3-.3h-.9v-.4s-.2-.2-.3-.3h-.3v-.3l-.3-.3h-.3v-.3l-.3-.3h-.3v-.3l-.3-.3h-.9v-.3l-.3-.2h-1.9l-.3.3v.3h-.4l-.3.3v.3h-.3l-.3.3v.3h-.3l-.3.3v.3h-.9v.2c-.1,0-.1.3-.1.3h-.3l-.3.3v.3h-.3l-.3.3v.3h-.9l-.3.3v.3h-.3l-.3.3v.3h-.3s-.2.2-.3.3v.3h-.9l-.3.3v.3h-.3l-.3.3v.3h-.3l-.3.3v.3h-.9l-.3.3v.3h-.3s-.2.2-.3.3v.3h-.9l-.3.3v1.9s.2.2.3.3h.3v.9l.3.3h.3v.3l.3.3h.3v.9l.3.3h.3v1.1s.2.2.3.3h.3v.9l.3.3h.3v.9l.3.3h.1v1.6l.3.3h.3v.9s.2.2.3.3h.3v1.5l.3.3h.3v2.2l.3.3h.3v6.8h-.3l-.3.3v.3h-1l-.3.3v.3h-.9l-.3.3v.3h-.9l-.3.3v.3h-.7l-.3.3v.3h-1.8v-.3l-.3-.3h-.3v-.3l-.3-.3h-.9v-.4l-.3-.3h-.3v-.3l-.3-.3h-.3v-.3l-.3-.3h-.3v-.3s-.2-.2-.3-.3h-.3v-.3l-.3-.3h-.3v-.3l-.3-.3h-.9v-.3l-.3-.3h-.3v-.9l-.3-.3h-.3v-.3l-.3-.3h-.5v-.3l-.3-.3h-.3v-.3l-.3-.3h-.3v-.3s-.2-.2-.3-.3h-.3v-.9l-.3-.3h-.3v-.3l-.3-.3h-.3v-.9l-.3-.3h-.3v-.3l-.3-.3h-.3v-.9l-.3-.3h-.3v-.9l-.3-.3h-.3v-.9l-.3-.3h-.9v-.3l-.3-.3h-1.3s-.2.2-.3.3v.3h-.9l-.3.3v.3h-.9l-.3.3v.3h-1.5l-.3.3v.4h-.3l-.3.3v.3h-1.6s-.2.2-.3.3v.3h-1.6l-.3.3v.3h-1.5l-.3.3v.3h-1.6l-.3.3v.3h-.9l-.3.3v.3h-.3l-.3.3v1.2l.3.3h.3v1.6s.2.2.3.3h.3v2.8l.3.3h.3v3.4l.3.3h.3v8.1h-.3l-.3.3v4h-.3l-.3.3v.3h-.3l-.3.3v.3h-2.2l-.3.3v.3h-2.2s-.2.2-.3.3v.3h-3.1v-.2l-.3-.3h-.3v-.3l-.3-.3h-.3v-.3l-.3-.3h-.3v-1.1l-.3-.3h-.3v-.3l-.3-.3h-.3v-.9l-.3-.3h-.3v-.3l-.3-.3h-.3v-.9l-.3-.3h-.3v-.9l-.3-.3h-.3v-.9l-.3-.3h-.2v-.9l-.3-.3h-.3v-.9s-.2-.2-.3-.3h-.3v-1.6l-.3-.3h-.3v-.9l-.3-.3h-.4v-2.1l-.3-.3h-.3v-2.2l-.3-.3h-.3v-.3s-.2-.2-.3-.3h-.3v-.3l-.3-.3h-1.9s-.2.2-.3.3v.3h-4l-.3.3v.3h-5.3l-.3.3v.3h-2.8l-.3.3v.3h-.3l-.3.3v5.9h-.3l-.3.3v4.6h-.3l-.3.3v2.8h-.3l-.3.3v1.6h-.3l-.3.3v1.6h-.4s-.2.2-.3.3v.9h-.3l-.3.3v1.6h-.3l-.3.3v.3h-.3s-.2.2-.3.3v.3h-.3l-.3.3v.3h-5.5M235.2,405.4v-.6h-.6v-.3l-.3-.3h-.3v-.3s-.2-.2-.3-.3h-.3v-.9s-.2-.2-.3-.3h-.3v-.9l-.3-.3h-.3v-.9l-.3-.3h-.2v-1.6l-.3-.3h-.3v-1.6s-.2-.2-.3-.3h-.3v-1.4l-.3-.3h-.3v-1.6l-.3-.3h-.4v-2.2l-.3-.3h-.3v-4s-.2-.2-.3-.3h-.3v-4.6l-.3-.3h-.3v-.3l-.3-.3h-4.1v-.3l-.3-.3h-2.5l-.3.3v.9h-.3l-.3.3v1.6h-.3l-.3.3v.9h-.3l-.3.3v.9h-.3l-.3.3v.9h-.3s-.2.2-.3.3v1.6h-.3l-.3.3v.3h-.3l-.3.3v.9h-.3l-.3.3v.9h-.3l-.3.3v.3h-.3l-.4.2v.9h-.3l-.3.3v.3h-.3l-.3.3v.3h-.3l-.3.3v.3h-.3l-.3.3v.9h-.1l-.3.3v.3h-.3s-.2.2-.3.3v.3h-.3l-.3.3v.3h-.3l-.3.3v.3h-.4l-.3.3v.3h-.3l-.3.3v.4h-.3l-.3.3v.3h-.3l-.3.3v.3h-1.8v-.3l-.3-.3h-2.8v-.3l-.3-.3h-1.6v-.3s-.2-.2-.3-.3h-2.2v-.3l-.3-.3h-1.6v-.3l-.3-.3h-.9v-.9l-.3-.3h-.3v-.9l-.3-.3h-.3v-2.2l-.3-.3h-.3v-2.2l-.3-.3h-.3v-13.6h.3l.3-.3v-3.4h.3s.2-.2.3-.3v-.6l-.3-.3h-.3v-.3l-.3-.3h-.9v-.4l-.3-.3h-1.6v-.3l-.3-.3h-1.6v-.3l-.3-.3h-1.3l-.3.3v.3h-.3l-.3.3v.9h-.3s-.2.2-.3.3v.3h-.3l-.3.3v.3h-.3l-.3.3v.3h-.3l-.3.3v.9h-.3l-.3.3v.3h-.3s-.2.2-.3.3v.3h-.3l-.3.3v.3h-.4l-.3.3v.3h-.3l-.3.3v.3h-.3l-.3.3v.3h-.3l-.3.3v.3h-.3l-.2.2v.3h-.3l-.3.3v.3h-.3l-.3.3v.3h-.3s-.2.2-.3.3v.3h-.3l-.4.4v.3h-.9l-.3.3v.3h-.3l-.3.3v.3h-.3s-.2.2-.3.3v.3h-.9s-.2.2-.3.3v.3h-.9s-.2.2-.3.3v.3h-.3l-.3.3v.3h-1l-.3.3v.3h-2.5v-.3l-.3-.3h-.8v-.3l-.3-.3h-.9v-.3s-.2-.2-.3-.3h-1.1v-.3l-.3-.3h-.9v-.3s-.2-.2-.3-.3h-.3v-.3l-.3-.3h-.9v-.3l-.3-.3h-.9v-.3l-.3-.3h-.3v-.3l-.3-.3h-.9v-.9s-.2-.2-.3-.3h-.3v-2.4h.3l.3-.3s-.2-.2-.3-.3h-.3v-.6h.3l.3-.3v-4h.3l.3-.3v-2.8h.4s.2-.2.3-.3v-2.1h.3l.3-.3v-.9h.3s.2-.2.3-.3v-1.6h.3l.3-.3v-1.5h.3s.2-.2.3-.3v-.9h.3l.3-.3v-.9h.3l.3-.3v-.9h.3s.2-.2.3-.3v-.9h.3l.3-.3s-.2-.2-.3-.3h-.3v-.3l-.3-.3h-.3v-.3l-.3-.3h-.3v-.3l-.3-.3h-.3v-.3l-.3-.3h-.9v-.3l-.3-.3h-.3v-.3l-.3-.3h-.3v-.3l-.3-.3h-.9v-.3s-.2-.2-.3-.3c-.1.1-.2.2-.3.3v.3h-1.1l-.3.3v.3h-.3l-.3.3v.3h-.3l-.3.3v.2h-.9l-.3.3v.3h-.3l-.3.3v.3h-.3s-.2.2-.3.3v.3h-.9l-.3.3v.4h-.9l-.3.3v.3h-.3l-.3.3v.3h-.9l-.3.3v.3h-.9l-.3.3v.3h-.8s-.2.2-.3.3v.3h-.9l-.3.3v.3h-1.1l-.3.3v.3h-.9l-.3.3v.3h-2.2s-.2.2-.3.3v.3h-.9s-.2.2-.3.3v.3h-2.2l-.3.3v.3h-1.2v-.3l-.3-.3h-.9v-.3l-.3-.3h-.3v-.3l-.3-.3h-.3v-.3l-.3-.3h-.3v-.3l-.3-.3h-.3v-.3l-.3-.3h-.3v-.4s-.2-.2-.3-.3h-.3v-.3s-.2-.2-.3-.3h-.3v-.3l-.3-.3h-.3v-.3l-.3-.3h-.3v-.3s-.2-.2-.3-.3h-.3v-.3l-.3-.3h-.3v-3.1h.3l.3-.3v-2.2h.3l.3-.3v-.9h.3l.3-.3v-.9h.3l.3-.3v-1.4h.3l.3-.3v-.9h.3l.3-.3v-1.1h.3l.3-.3v-.3h.3l.3-.3v-.9h.3s.2-.2.3-.3v-.9h.3l.3-.3v-.3h.4l.3-.3v-.9h.3l.3-.3v-.9h.3l.3-.3v-.3h.3l.3-.3v-.7h.3l.3-.3v-.3h.3l.3-.3v-.3h.3l.3-.3v-.3h.3s.2-.2.3-.3v-.5h.3l.3-.3v-1.3l-.3-.3h-.3v-.3l-.3-.3h-.3v-.9l-.3-.3h-.3v-.3l-.3-.3h-.5v-.3l-.3-.3h-.3v-.3l-.3-.3h-.3v-.9l-.3-.3h-.3v-.3l-.3-.3h-.5s-.2.2-.3.3v.3h-.9l-.3.3v.3h-1.5l-.3.3v.3h-.9l-.3.3v.3h-.9l-.3.3v.3h-1.6l-.3.3v.3h-1.5l-.3.3v.3h-2.2l-.3.3v.3h-3.5l-.3.3v.3h-4.7l-.3.3v.3h-.6v-.3l-.3-.3h-3.5v-.3l-.3-.3h-.3v-.9l-.3-.3h-.3v-.9l-.3-.3h-.3v-.3l-.3-.3h-.3v-.9l-.3-.3h-.3v-.9h-.3c0-.1-.3-.1-.3-.1v-.9l-.3-.3h-.3v-.9l-.3-.3h-.3v-.9l-.3-.3h-.3v-2.5h.3s.2-.2.3-.3v-.9h.3l.3-.3v-.3h.3l.3-.3v-.9h.3l.3-.3v-.3h.3l.3-.3v-.3h.3l.3-.3v-.9h.3s.2-.2.3-.3v-.3h.4l.3-.3v-.5h.3s.2-.2.3-.3v-.3h.3l.3-.3v-.3h.3s.2-.2.3-.3v-.9h.4v-.4h.9l.3-.3v-.3h.3s.2-.2.3-.3v-.3h.3s.2-.2.3-.3v-.3h.3l.3-.3v-.3h.3s.2-.2.3-.3v-.3h.3l.3-.3v-.3h.3l.3-.3v-.3h.9s.2-.2.3-.3v-.3h.9s.2-.2.3-.3v-.3h.4l.3-.3v-.3h.3l.3-.3v-.3h.9s.2-.2.3-.3v-.5h.4l.3-.3-.3-.3h-.3v-2s-.2-.2-.3-.3h-.3v-.9l-.3-.3h-.3v-1.5l-.3-.3h-.3v-.3l-.3-.3h-.3v-.3l-.3-.3h-.6l-.3.3v.3h-3.5l-.3.3v.3h-13.1v-.3l-.3-.3h-3.4v-.3l-.3-.3h-2.2v-.3s-.2-.2-.3-.3h-1.1v-.3l-.3-.3h-.3v-2.1s-.2-.2-.3-.3h-.3v-1.6s-.2-.2-.3-.3h-.3v-2.9l-.3-.3h-.3v-2.1l-.4-.2h-.3v-3.1h.3s.2-.2.3-.3v-.9h.3l.3-.3v-.3h.3l.3-.3v-.3h1.1l.3-.3v-.3h.3l.3-.3v-.3h.9s.2-.2.3-.3v-.3h.3l.3-.3v-.3h.3l.3-.3v-.3h.9l.3-.3v-.3h.3s.2-.2.3-.3v-.3h.9l.3-.3v-.3h.9l.3-.3v-.3h.3l.3-.3v-.3h1.6l.3-.3v-.3h.9s.2-.2.3-.3v-.4h.9l.3-.3v-.3h1.6l.3-.3v-.3h1.6l.3-.3v-.3h1.6l.3-.3v-.3h.3l.3-.3v-4.9l-.3-.3h-.4v-1.6l-.3-.3h-3.4v-.3l-.3-.3h-4v-.3s-.2-.2-.3-.3h-2.8v-.3l-.3-.3h-2.2v-.3l-.3-.3h-1.6v-.3l-.3-.3h-.9v-.2l-.3-.3h-1.6v-.3s-.2-.2-.3-.3h-.9v-.3l-.3-.3h-.9v-.3l-.3-.3h-.9v-.4s-.2-.2-.3-.3h-.8v-.3l-.3-.3h-.3v-.9s-.2-.2-.3-.3h-.3v-7.4h.3s.2-.2.3-.3v-4.6h.3s.2-.2.3-.3v-.3h.9l.3-.3v-.3h.9l.3-.3v-.3h.9l.3-.3v-.3h.9s.2-.2.3-.3v-.3h.9l.3-.3v-.3h1.6s.2-.2.3-.3v-.3h1.6s.2-.2.3-.3v-.3h1.5l.3-.3v-.3h2.8s.2-.2.3-.3v-.3h4.1l.3-.3v-.3h4.7l.3-.3v-1.6h.3s.2-.2.3-.3v-3.4h.3l.3-.3v-1.3s-.2-.2-.3-.3h-.4v-.3l-.3-.3h-1.6v-.3l-.3-.3h-1v-.3l-.3-.3h-1.6v-.3l-.3-.3h-.3v-.3l-.3-.3h-1.6v-.3l-.3-.3h-.9v-.3s-.2-.2-.3-.3h-1v-.3s-.2-.2-.3-.3h-.3v-.3l-.3-.3h-.8v-.3l-.3-.3h-.9v-.3l-.3-.3h-.3v-.3s-.2-.2-.3-.3h-.4v-.3s-.2-.2-.3-.3h-.9v-.3l-.3-.3h-.3v-.3l-.3-.3h-.3v-.3l-.3-.3h-.3v-.3s-.2-.2-.3-.3h-.3v-.3l-.3-.3h-.3v-.3l-.3-.3h-.9v-.3s-.2-.2-.3-.3h-.3v-.3l-.3-.3h-.3v-2.6h.3s.2-.2.3-.3v-2.2h.3l.3-.3v-1.6h.4s.2-.2.3-.3v-2.2h.3l.3-.3v-1.5h.3l.3-.3v-.9h.3s.2-.2.3-.3v-.3h.3s.2-.2.3-.3v-.3h2.2s.2-.2.3-.3v-.3h4.1s.2-.2.3-.3v-.3h11.9v.3s.2.2.3.3h4v.3l.3.3h1.3s.2-.2.3-.3v-.3h.3s.2-.2.3-.3v-.9h.4l.3-.3v-.9h.3l.3-.3v-.9h.3s.2-.2.3-.3v-.9h.3l.3-.3v-1.2l-.3-.3h-.3c0-.1-.2-.3-.3-.4h-.3v-.3s-.2-.2-.3-.3h-.3v-.3l-.3-.4h-.9v-.3l-.3-.3h-.3v-.3l-.3-.3h-.3v-.3l-.4-.3h-.9v-.3s-.2-.2-.3-.3h-.3v-.3s-.2-.2-.3-.3h-.3v-.3c-.1-.1-.3-.2-.4-.3h-.3v-.3l-.3-.3h-.3v-.3l-.3-.3h-.3v-.4s-.2-.2-.3-.3h-.3v-.3l-.3-.3h-.2v-.3l-.3-.3h-.3v-.3l-.3-.3h-.4v-.3l-.3-.3h-.3v-.3l-.3-.3h-.4v-.3l-.3-.3h-.3v-.3l-.3-.3h-.3v-.3s-.2-.2-.3-.3h-.3v-1.6l-.3-.3h-.3v-.7h-.4v-.9l-.4-.3h-.3v-.9l-.3-.3h-.3v-1.8h.3s.2-.2.3-.3v-.9h.3l.3-.3v-.9h.4l.3-.3v-.3h.3s.2-.2.3-.3v-.9h.3l.3-.3v-.9h.3l.3-.3v-.3h.3l.3-.3v-.9h.3s.2-.2.3-.3v-.3h.3l.3-.3v-.9h.3l.3-.3v-.5h.9l.3-.3v-.3h3.7v.3l.3.3h4.7v.3s.2.2.3.3h2.8v.3l.3.3h1.6v.3l.3.3h1.6v.3l.3.3h1.6v.3l.3.3h.9v.3l.3.3h1.6v.3l.3.3h.9v.3l.3.3h.3v.3l.3.3h1.9l.3-.3v-.3h.3s.2-.2.3-.3v-.9h.3l.3-.3v-.3h.3l.3-.3v-.2h.3l.3-.3v-1h.3l.3-.3v-.3h.3s.2-.2.3-.3c-.1-.1-.2-.2-.3-.3h-.3v-.9l-.3-.3h-.3v-.3l-.3-.3h-.3v-.9l-.3-.3h-.3v-.3l-.3-.3h-.4v-.4l-.3-.3h-.3v-1l-.3-.3h-.3v-.3l-.3-.3h-.3v-.9l-.3-.3h-.4v-.3l-.3-.3h-.3v-.9l-.3-.3h-.3v-.9l-.3-.3h-.3v-.9l-.3-.3h-.3v-.9l-.2-.2h-.3v-.9l-.3-.3h-.9v-.6h.3l.3-.3v-.7l-.3-.3h-.3v-1.5l-.3-.3h-.3v-1.6l-.4-.3h-.3v-3.1h.3l.3-.3v-.3h.3l.3-.3v-.3h.3l.3-.3v-.3h.3l.3-.3v-.3h.4l.3-.3v-.9h.3l.3-.3v-.3h.3l.3-.3v-.3h.3l.3-.3v-.3h.3s.2-.2.3-.3v-.2h.3l.3-.3v-.3h.3l.3-.3v-.4h.3s.2-.2.3-.3v-.3h.3l.3-.3v-.4h4.4v.3l.3.3h1.6v.3l.3.3h1.6v.3l.3.3h1.6v.3l.3.3h.9v.3l.3.3h.9v.3l.3.3h.2v.3s.2.2.3.3h.9v.3l.3.3h.9v.3l.3.3h.3v.3l.3.3h.3v.3l.3.3h.9v.3l.3.3h.3v.4l.3.3h.3v.3l.3.3h.9v.3l.3.3h.3v.3s.2.2.3.3h.3v.3l.3.3h.3v.3l.3.3h.3v.3l.3.3h.6l.3-.3v-.3h.3l.3-.3v-.4h.9l.3-.3v-.3h.3l.3-.3v-.3h.3s.2-.2.3-.3v-.3h.9l.3-.3v-.3h.3l.3-.2v-1.3l-.3-.3h-.2v-1.6l-.3-.3h-.3v-.9l-.3-.3h-.3v-1.6l-.3-.3h-.3v-1.6l-.3-.3h-.4v-2l-.3-.3h-.3v-2.3l-.3-.3h-.3v-3.3l-.3-.3h-.3v-8.1h.3l.3-.3v-.8h.9l.3-.3v-.3h.3l.3-.3v-.3h1l.3-.3v-.3h.9s.2-.2.3-.3v-.4h.9l.3-.3v-.3h.3s.2-.2.3-.3v-.3h.9l.3-.3v-.3h.9l.3-.3v-.3h1.6s.2-.2.3-.3v-.3h.6v.4l.3.3h.9v.3l.3.3h.3v.3l.3.3h.9v.3s.2.2.3.3h.9v.3l.3.3h.3v.3l.3.3h.4v.3l.3.3h.9v.3l.3.3h.3v.3l.3.3h.3v.3l.3.3h.3v.3l.3.3h.3v.3l.3.3h.3v.3l.3.3h1v.9l.3.3h.3v.3l.3.3h.3v.3l.3.3h.3v.3l.3.3h.3v.3l.3.3h.3v.3l.3.3h.3v.3s.2.2.3.3h.3v.9l.3.3h.2v.3l.3.3h.3v.9l.3.3h.3v.3l.3.3h.3v.3l.3.3h.7s.2-.2.3-.3v-.3h1.6s.2-.2.3-.3v-.3h.9s.2-.2.3-.3v-.3h1.6l.3-.3v-.3h.3l.3-.3v-1.9s-.2-.2-.3-.3h-.3v-6.5s-.2-.2-.3-.2h-.3v-3.8h.3l.3-.3v-5.9h.3l.3-.3v-2.2h.3s.2-.2.3-.3v-2.2h.3s.2-.2.3-.3v-.9h.4s.2-.2.3-.3v-.3h2.2l.3-.3v-.3h1.6l.3-.3v-.3h2.2s.1-.2.2-.3v-.3h2.2l.3-.3v-.3h3.2v.3l.3.3h.9v.3l.3.3h.3v.3l.3.3h.3v.3l.3.3h.2v1.1l.3.3h.3v.3l.3.3h.3v.3l.3.3h.3v.3l.3.3h.4v.9l.3.3h.3v.3s.2.2.3.3h.3v.9l.3.3h.3v.3l.3.3h.3v.9s.2.2.3.3h.3v.8l.3.3h.3v.9s.2.2.3.3h.3v1.1s.2.2.3.3h.3v.9l.3.3h.3v1.6l.3.3h.3v.9l.3.3h.3v1.5l.3.3h.3v.9l.3.3h1.9l.3-.3v-.3h4.1l.3-.3v-.3h.3l.3-.3v-.9h.3l.3-.3v-4.8h.3s.2-.2.3-.3v-2.8h.3l.3-.3v-2h.3s.2-.2.3-.3v-1.6h.3s.2-.2.3-.3v-1.6h.3l.3-.3v-.9h.3l.3-.3v-.9h.3l.3-.3v-1.7h.3l.3-.3v-.9h.4s.2-.2.3-.3v-.3h.3s.2-.2.3-.3v-.9h.3s.2-.2.3-.3v-.9h.9l.3-.3v-.3h10.5v.3l.3.3h1.6v.3l.3.3h.3v.3l.3.3h.3v.9l.3.3h.3v.9l.3.3h.3v.9l.3.3h.3v.9l.3.3h.3v1.1l.3.3h.3v2.2l.3.3h.3v2.2l.3.3h.4v2.2l.3.3h.3v2.8l.3.3h.3v5.3l.3.3h.3v.3l.3.3h.3v.3l.3.3h4v.3s.2.2.3.3h1.9s.2-.2.3-.3v-.9h.3l.3-.3v-.3h.3s.2-.2.3-.3v-1.6h.3l.3-.3v-1h.3l.3-.3v-.9h.3l.3-.3v-.9h.3s.2-.1.3-.1v-.9h.3l.3-.3v-.9h.3l.3-.3v-.9h.3s.2-.2.3-.3v-.3h.3l.3-.3v-.9h.2s.2-.2.3-.3v-.9h.3l.3-.3v-.3h.3l.3-.3v-.5h.3s.2-.2.3-.3v-.9h.4s.2-.2.3-.3v-.3h.3s.2-.2.3-.3v-.3h.3l.3-.3v-.3h.3l.3-.3v-.3h.3l.3-.3v-.3h.3l.3-.3v-.3h.3l.3-.3v-.3h.3l.3-.3v-.3h1.9v.3s.2.2.3.3h2.2v.3l.3.3h2.2v.3l.3.3h1.5v.3s.2.2.3.3h1.6v.3l.3.3h.9v.5l.3.3h.3v.9l.3.3h.3v2.2l.3.3h.2v4.6s.2.2.3.3h.3v8.6h-.3l-.3.3v4.6h-.3l-.3.3v1.9l.3.3h.3v.3s.2.2.3.3h.9v.3l.3.3h1.1v.3l.3.3h.9v.3s.2.2.3.3h1.6v.3l.3.3h1.2l.3-.3v-.3h.3s.2-.2.3-.3v-.3h.3s.2-.2.3-.3v-.9h.3s.2-.2.3-.3v-.3h.3l.3-.3v-.3h.4s.2-.2.3-.3v-.5h.3l.3-.3v-.3h.3s.2-.2.3-.3v-.3h.3l.3-.3v-.3h.3s.2-.2.3-.3v-.3h.3l.3-.3v-.3h.3s.2-.2.3-.3v-.3h.3s.2-.2.3-.3v-.3h.3l.3-.3v-.3h.3l.3-.3v-.3h.3s.2-.2.3-.3v-.3h.3s.2-.2.3-.3v-.3h.3s.2-.2.3-.3v-.3h.3s.2-.2.3-.3v-.2h.9s.2-.2.3-.3v-.3h.3l.3-.3v-.3h.9l.3-.3v-.3h.3l.3-.3v-.4h.9l.3-.3v-.3h.9l.3-.3v-.3h.9l.3-.3v-.3h.6v.3l.3.3h1v.3l.3.3h.9v.3l.3.3h.9v.3l.3.3h.9v.3l.3.3h.3v.3l.3.3h.9v.8h1v.3l.3.3h.3v.3s.2.2.3.3h.3v.3s.2.2.3.3h.3v5h-.2l-.3.3v4.1h-.3l-.3.3v2.8h-.3s-.2.2-.3.3v1.6h-.3l-.3.3v1.5h-.4l-.3.3v1.6h-.3l-.3.3v1.6h-.3l-.3.3v.9h-.3l-.3.3v1.6h-.3l-.3.3v1.9l.3.3h.3v.3l.3.3h.9v.3s.2.2.3.3h.3v.3l.3.2h.9v.3l.3.3h.3v.3s.2.2.3.3h.3v.3l.3.3h1.3l.3-.3v-.3h.3l.3-.3v-.3h.3l.3-.3v-.4h.9l.3-.3v-.3h.3s.2-.2.3-.3v-.3h.3l.3-.3v-.3h.9l.3-.3v-.3h.3l.3-.3v-.3h.9s.2-.2.3-.3v-.3h.3l.3-.3v-.3h.9l.3-.3v-.3h.3l.3-.3v-.3h.9l.3-.3v-.3h1.1s.2-.2.3-.3v-.3h.9s.2-.2.3-.3v-.3h1.6s.2-.2.3-.3v-.2h.9l.3-.3v-.3h.9l.3-.3v-.4h2.2l.3-.3v-.3h3.2v.3l.3.3h.3v.3s.2.2.3.3h.3v.3l.3.4h.3v.3l.3.3h.3v.3l.3.3h.3v.3l.3.3h.3v.3l.3.3h.3v.2s.2.2.3.3h.3v.3l.3.3h.3v.3l.3.3h.3v.3s.2.2.3.3h.3v.4l.3.3h.3v.9l.3.3h.3v1.8h-.3l-.3.3v2.2h-.3l-.3.3v1.5h-.3l-.3.3v.9h-.3l-.3.3v.9h-.3l-.3.3v.9h-.3l-.3.3v1.4h-.2l-.3.3v.3h-.3l-.3.3v.9h-.3s-.2.2-.3.3v.9h-.3s-.2.2-.3.3v.3h-.4l-.3.3v.3h-.3l-.3.3v.9h-.3l-.3.3v.3h-.3s-.2.2-.3.3v.3h-.5l-.3.3v.9h-.3l-.3.3v.3h-.3l-.3.3v.3h-.3l-.3.3v.9h-.3l-.3.3v1.2l.3.3h.3v.9s.2.2.3.3h.3v.3s.2.2.3.3h.3v.3l.3.3h.3v.9l.3.3h.3v.3s.2.2.3.3h.3v.3s.2.2.3.3h1.4s.2-.2.3-.3v-.3h.9l.3-.3v-.3h1.1l.3-.3v-.3h.9s.2-.2.3-.3v-.3h1.5l.3-.3v-.3h.9s.2-.2.3-.3v-.3h1.6l.3-.3v-.2h2.2s.2-.2.3-.3v-.3h3.5l.3-.3v-.4h4.7l.3-.3v-.3h3.1v.3s.2.2.3.3h.9v.3l.3.3h.3v.9l.3.3h.3v.9s.2.2.3.3h.3v.3l.3.3h.3v.9l.3.3h.3v.9l.3.3h.3v.9l.3.3h.3v.3s.2.2.3.3h.3v.9l.3.3h.3v.9s.2.2.3.3h.3v1.9h-.3s-.2.2-.3.3v.9h-.3l-.3.3v.9h-.3s-.2.2-.3.3v.3h-.3l-.3.3v.9h-.3s-.2.2-.3.3v.3h-.3l-.3.3v.3h-.3l-.3.3v.3h-.5s-.2.2-.3.3v.9h-.3l-.3.3v.3h-.3l-.3.3v.3h-.3l-.3.3v.3h-.3s-.2.2-.3.3v.4h-.3l-.3.3v.3h-.3l-.3.3v.3h-.3l-.3.3v.3h-.3s-.2.2-.3.3v.3h-.9l-.3.3v.3h-.3l-.3.3v.3h-.3l-.3.3v.3h-.9s-.2.2-.3.3v.3h-.3l-.3.3v.3h-.3s-.2.2-.3.3v.3h-.9l-.3.3v.3h-.3l-.3.3v.3h-.3l-.3.3v1.9s.2.2.3.3h.3v.9l.3.3h.3v.9l.3.3h.3v1.6l.3.3h3.7l.3-.3v-.3h4.7l.3-.3v-.3h6.8v.3l.3.3h4.7v.3s.2.2.3.3h2.8v.3l.3.3h1.6v.3l.3.3h.3v.9l.3.3h.3v2.2l.3.3h.3v1.6s.2.2.3.3h.3v2.1l.3.3h.3v2.2l.3.3h.3v2.5h-.3l-.3.3v.3h-.3l-.3.3v.3h-.3s-.2.2-.3.3v.3h-.3s-.2.2-.3.3v.3h-.3l-.3.3v.3h-.1l-.3.3v.3h-.9s-.2.2-.3.3v.3h-.3l-.3.3v.3h-.4l-.3.3v.3h-.9l-.3.3v.3h-.3l-.3.3v.3h-.9l-.3.3v.3h-.9l-.3.3v.3h-.9s-.2.2-.3.3v.3h-.3l-.3.3v.3h-.9l-.3.3v.3h-1.6l-.3.3v.3h-.8l-.3.3v.3h-.9s-.2.2-.3.3v.3h-1.6l-.3.3v.3h-1.6l-.3.3v.3h-.3l-.3.3v1.9s.2.2.3.3h.3v4s.2.2.3.3h.3v.3l.3.3h4v.3s.2.2.3.3h4.1v.3l.3.3h2.2v.3l.3.3h2.2v.3l.3.3h1.6v.3l.3.3h1.6v.3l.3.3h.9v.3l.3.3h1.4v.3l.3.3h.9v.3s.2.2.3.3h1.1v.3l.3.3h.9v.3l.3.3h.3v13.6h-1s-.2.2-.3.3v.3h-.3s-.2.2-.3.3v.3h-.9l-.3.3v.3h-.9l-.3.3v.3h-1.5s-.2.2-.3.3v.3h-.3l-.3.3v.3h-.9l-.3.3v.3h-.3s-.2.2-.3.3v.3h-2.8l-.3.3v.3h-1.6l-.3.3v.3h-2.2s-.2.2-.3.3v.4h-7.9l-.3.3v.3h-.9l-.3.3v.3h-.3l-.3.3v.6s.2.2.3.3h.3v.6h-.3l-.3.3v3.7l.3.3h.3v.3s.2.2.3.3h1.6v.3l.3.3h1.6v.3l.3.3h.9v.3l.3.3h1.6v.3l.3.3h.9v.3l.3.3h.9v.3l.3.3h1.1v.3s.2.2.3.3h.9v.3l.3.3h.3v.2l.3.3h1.6v.3s.2.2.3.3h.3v.3l.3.3h.3v.3s.2.2.3.3h.3v.4l.3.3h.3v.3l.3.3h.9v.3l.3.3h.3v.3s.2.2.3.3h.3v.3l.3.3h.3v.3l.3.3h.3v.3l.3.3h.3v3.7h-.3l-.3.3v1.6h-.3l-.3.3v2.2h-.3l-.3.3v1.5h-.3s-.2.2-.3.3v1.6h-.3l-.3.3v1.6h-.9l-.3.3v.3h-1.6s-.2.2-.3.3v.3h-3.5s-.2.2-.3.3v.3h-14.4v-.3l-.3-.3h-3.5v-.4s-.2-.2-.3-.3h-1.3l-.3.3v.3h-.3l-.3.3v2.2h-.3l-.3.3v.3h-.3l-.3.3v1.6h-.3l-.3.3v1.2l.3.3h.3v.3l.3.3h.9v.3s.2.2.3.3h.3v.3l.3.3h.9v.3l.3.3h.3v.3l.3.3h.3v.3l.3.3h.9v.3s.2.2.3.3h.3v.3s.2.2.3.3h.3v.3l.3.3h.3v.5l.3.3h.4v.3l.3.3h.3v.3l.3.3h.3v.3s.2.2.3.3h.3v.3s.2.2.3.3h.3v.3l.3.3h.3v.3s.2.2.3.3h.3v.3l.3.3h.3v.9s.2.2.3.3h.3v.3s.2.2.3.3h.3v.3l.3.3h.3v.8l.3.3h.3v.3l.3.3h.3v.9l.3.3h.3v.9s.2.2.3.3h.3v2.6h-.3l-.3.3v.3h-.3l-.3.3v.9h-.3l-.3.3v.3h-.3s-.2.2-.3.3v.9h-.3l-.3.3v.9h-.5l-.3.3v.9h-.3l-.3.3v.9h-.3l-.3.3v.3h-.3l-.3.3v.9h-.3l-.3.3h0c0,.1-.3.1-.3.1l-.3.3v.3h-6.9v-.3l-.2-.3h-2.8v-.3l-.3-.3h-2.2v-.3l-.3-.3h-2.8v-.3s-.2-.2-.3-.3h-.9v-.3s-.2-.2-.3-.3h-1.5c0-.1-.3-.4-.3-.4h-.9v-.3l-.3-.3h-1.6v-.3l-.3-.3h-.9v-.3s-.2-.2-.3-.3h-.9v-.5l-.3-.3h-1.3s-.2.2-.3.3v.9h-.3l-.3.3v.3h-.3l-.3.3v.3h-.3s-.2.2-.3.3v.9h-.3l-.3.3v.3h-.3l-.3.3v.3h-.3l-.3.3v1.9l.3.3h.3v.3s.2.2.3.3h.3v.3l.3.3h.3v.9l.3.3h.3v.3l.3.3h.3v.9l.3.3h.3v.3l.3.3h.3v1.1s.2.2.3.3h.3v.3l.3.3h.3v.3l.3.3h.3v.9l.3.3h.3v.9l.3.3h.3v.9l.3.3h.3v.9l.3.3h.3v.9l.3.3h.3v.9l.3.3h.3v2.2l.3.3h.3v1.6l.3.3h.3v3.1h-.3l-.3.3v.9h-.9l-.3.3v.3h-.3l-.3.3v.3h-.3l-.3.3v.3h-.3l-.3.3v.3h-.4l-.3.3v.3h-.3l-.3.3v.3h-.3l-.3.3v.3h-.3l-.3.3v.3h-.5l-.3.3v.3h-.3l-.3.3v.2h-.9l-.3.3v.3h-1.9v-.3l-.3-.3h-1.6v-.3l-.3-.3h-1.6v-.3l-.3-.3h-.9v-.3s-.2-.2-.3-.3h-1.6v-.3l-.3-.3h-.9v-.2l-.3-.3h-.9v-.3l-.3-.3h-.9v-.3l-.3-.3h-.3v-.3l-.3-.3h-.9v-.4l-.3-.3h-.9v-.3l-.3-.3h-.2v-.3l-.3-.3h-.9v-.3l-.3-.3h-.3v-.3s-.2-.2-.3-.3h-.3v-.3l-.3-.3h-.9v-.3l-.3-.3h-.3v-.3l-.3-.3h-.3v-.3l-.3-.3h-.3v-.3l-.3-.3h-2l-.3.3v.3h-.3l-.3.3v.3h-.9l-.3.3v.3h-.3l-.3.3v.3h-.3l-.3.3v.4h-.3l-.3.3v.3h-.3l-.3.3v1.2l.3.3h.3v.9l.3.3h.3v.9l.3.3h.5v.9l.3.3h.3v1.5s.2.2.3.3h.3v1.6l.3.3h.3v1.6l.3.3h.3v2.8l.3.3h.3v2.8l.3.3h.3v7.4h-.3s-.2.2-.3.3v.3h-.5l-.3.3v.3h-.3l-.3.3v.3h-.9l-.3.3v.3h-.9s-.2.2-.3.3v.3h-.3l-.3.3v.3h-.9l-.3.3v.3h-.9s-.2.2-.3.3v.3h-.9s-.2.2-.3.3v.3h-.9l-.3.3v.3h-.9l-.3.3v.3h-3v-.3l-.3-.3h-.3v-.3l-.3-.3h-.9v-.3s-.2-.2-.3-.3h-.3v-.3l-.3-.3h-.9v-.3l-.3-.3h-.3v-.3l-.3-.3h-.3v-.3s-.2-.2-.3-.3h-.3v-.3l-.3-.3h-.9v-.3l-.3-.3h-.4v-.3l-.3-.3h-.3v-.3l-.3-.3h-.3v-.3s-.2-.2-.3-.3h-.3v-.3l-.3-.3h-.3v-.3l-.3-.3h-.3v-.3l-.3-.3h-.3v-.3l-.3-.3h-.3v-.3l-.3-.3h-.3v-.9l-.3-.3h-.3v-.3l-.3-.3h-.3v-.3l-.3-.3h-.3v-.9l-.3-.3h-.3v-.3s-.2-.2-.3-.3h-.3v-.9l-.3-.3h-.3v-.3l-.3-.3h-.3v-.3l-.3-.3h-.6l-.3.3v.3h-1.6l-.3.3v.3h-1.6l-.3.3v.3h-.9l-.3.3v.3h-.1s-.2.2-.3.3v1.8l.3.3h.3v3.4l.3.3h.3v10.5h-.3l-.3.3v4h-.3l-.3.3v2.6h-.3l-.3.3v.9h-.9l-.3.3v.3h-1.5l-.3.3v.3h-1.6l-.3.3v.6h-2.2l-.3.3v.3h-2.2l-.3.3v.3h-2.8l-.3.3v.3h-1.9v-.3l-.3-.3h-1.6v-.3l-.3-.3h-.3v-.9s-.2-.2-.3-.3h-.3v-.3s-.2-.2-.3-.3h-.3v-.3l-.3-.3h-.3v-.9l-.3-.3h-.4v-.3l-.3-.3h-.3v-.3l-.3-.3h-.3v-.9l-.3-.3h-.3v-.9l-.3-.3h-.4v-.3l-.3-.3h-.3v-.9l-.3-.3h-.3v-.3s-.2-.2-.3-.3h-.3v-.9l-.3-.3h-.3v-1.6l-.3-.3h-.3v-.9l-.3-.3h-.3v-.9l-.3-.3h-.3v-1.5s-.2-.2-.3-.3h-.3v-1.7l-.3-.3h-.3v-.9l-.3-.3h-5l-.3.3v.3h-.9s-.2.2-.3.3v.9h-.3l-.3.3v5.3h-.3s-.2.2-.3.3v2.8h-.3l-.3.3v1.6h-.3l-.3.3v2.2h-.3l-.3.3v.9h-.3l-.3.3v1.6h-.3l-.3.3v.9h-.3l-.3.3v.9h-.3l-.3.3v.9h-.2l-.3.3v.9h-.3s-.2.2-.3.3v.9h-.3l-.3.3v.3h-1.1l-.3.3v.3h-11.9,0Z"/>
  <path class="cls-2" d="M224,315v-.6h-4.4v-.6h-2.6v-.5h-2.5v-.6h-1.9v-.6h-1.9v-.6h-1.9v-.8h-1.3v-.6h-1.9v-.6h-1.1v-.6h-1.3v-.6h-1.3v-.6h-.6v-.6h-1.3v-.6h-.6v-.6h-1.2v-.6h-1.3v-.6h-.6v-.6h-.6v-.6h-1.3v-.4h-.6v-.6h-.6v-.6h-.6v-.6h-.6v-.8h-1.3v-.6h-.6v-.6h-.5v-.6h-.6v-1.3h-.6v-.6h-.6v-.6h-.8v-.3l-.3-.3h-.3v-.3l-.3-.3h-.3v-.3l-.3-.3h-.3v-.9l-.3-.3h-.3v-.3l-.3-.3h-.3v-.9s-.2-.2-.3-.3h-.3v-.3l-.3-.3h-.3v-.9s-.2-.2-.3-.3h-.3v-.3l-.3-.3h-.3v-.9s-.2-.2-.3-.3h-.3v-.9l-.3-.3h-.3v-.3l-.3-.3h-.3v-.9s-.2-.2-.3-.3h-.3v-1.5l-.3-.3h-.3v-.9l-.3-.3h-.3v-.9l-.3-.3h-.3v-1.5s-.2-.2-.3-.3h-.2v-.9l-.3-.3h-.3v-2.2l-.3-.3h-.3v-1.5l-.3-.3h-.3v-2.2l-.3-.3h-.4v-3.9s-.2-.2-.3-.3h-.3v-12.4h.3l.3-.4v-3.4h.3l.3-.3v-2.8h.3l.3-.3v-1.5h.3l.3-.3v-1.6h.3c.1-.1.3-.2.4-.3v-1.6h.3s.2-.2.3-.3v-.9h.3s.2-.2.3-.3v-.9h.3l.3-.3v-1.6h.3l.3-.3v-4.9l-.3-.3h-.3v-2.2l-.3-.3h-.3v-.9l-.3-.3h-.3v-.3s-.2-.2-.3-.3h-.3v-.3l-.3-.3h-.3v-.9l-.3-.3h-.9v-.3l-.3-.3h-.4v-.3l-.3-.3h-.3v-.3l-.3-.3h-.9v-.3l-.3-.3h-.9v-.3l-.3-.3h-.9v-.3l-.3-.3h-.3v-1.3h.3s.2-.2.3-.3v-.3h.3l.3-.3v-.3h.3l.3-.3v-.3h.3s.2-.2.3-.3v-.3h.3s.2-.2.3-.3v-.3h.3l.3-.3v-.3h.9l.3-.3v-.3h.9l.3-.3v-.3h.3l.3-.3v-.3h1.5l.3-.3v-.3h1.5l.3-.3v-.3h2.3l.3-.3v-.3h8.8v.3s.2.2.3.3h2.2v.3l.3.3h1.5v.3l.3.3h.9v.3l.3.3h.3v.3l.3.3h.9v.3l.3.3h.9v.3l.3.3h.2v.3s.2.2.3.3h.9v.3l.3.3h.3v.3l.3.3h.4v.3l.3.3h.3v.3l.3.3h.3v.3l.3.3h.3v.9l.3.3h.3v.9s.2.2.3.3h.3v.3l.3.3h.3v.9s.2.2.3.3h.3v1.6l.3.3h.3v1.6s.2.2.3.3h.3v9.9h-.4s-.2.2-.3.3v2.2h-.3l-.3.3v.9h-.3l-.3.3v.9h-.3l-.3.3v1.5h-.4l-.3.3v.9h-.3s-.2.2-.3.3v.9h-.3l-.3.3v.9h-.3s-.2.2-.3.3v1.5h-.2l-.3.3v2.2h-.3l-.3.3v2.8h-.3l-.3.3v9.4l.3.3h.3v2.2l.3.3h.4v1.6l.3.3h.3v1.6l.3.3h.3v.9l.3.3h.3v.9l.3.3h.3v.3l.3.3h.3v.3l.3.3h.3v.9l.3.3h.3v.3l.3.3h.3v.3s.2.2.3.3h.3v.3l.3.3h.3v.3l.3.3h.3v.3l.3.3h.3v.3l.3.3h.3v.3l.3.3h.3v.3l.3.3h.9v.3l.3.3h.9v.3l.3.3h.9v.3s.2.2.3.3h2.2v.2l.3.3h5l.3-.3v-.3h1.6s.2-.2.3-.3v-.3h1.6l.3-.3v-.3h.9l.3-.3v-.3h.3l.3-.3v-.2h.9l.3-.3v-.3h.3l.3-.3v-.3h.3l.3-.3v-.3h.3l.3-.3v-.4h.3l.3-.3v-.9h.3s.2-.2.3-.3v-.3h.3s.2-.2.3-.3v-.9h.2l.3-.3v-1.6h.3l.3-.3v-1.5h.3l.3-.3v-4.4l-.3-.3h-.3v-2.1l-.3-.3h-.3v-1.6l-.3-.3h-.3v-.9l-.3-.3h-.3v-.3s-.2-.2-.3-.3h-.3v-.9l-.3-.3h-.3v-.9l-.3-.3h-.2v-.9l-.3-.3h-.3v-.9l-.3-.3h-.3v-1.5l-.3-.3h-.3v-2.2l-.3-.3h-.4v-2.2l-.3-.3h-.3v-2.8l-.3-.3h-.3v-4.7s-.2-.2-.3-.3h-.3v-10.2l-.3-.3h-.4v-3.1h.3s.2-.2.3-.3v-9.6h.3s.2-.2.3-.3v-4h.3l.3-.3v-4h.3l.3-.3v-2.2h.3l.3-.3v-2.1h.3l.3-.3v-2.2h.3l.3-.3v-1.5h.3l.3-.3v-1.6h.3l.3-.3v-1.6h.3l.3-.3v-2.1h.3s.2-.2.3-.3v-1.1h.3l.3-.3v-1.6h.4l.3-.3v-1.5h.3l.3-.3v-.9h.3l.3-.3v-.9h.3l.3-.3v-1.4h.4s.2-.2.3-.3v-.9h.3l.3-.3v-1.1h.3l.3-.3v-.9h.3l.3-.3v-.9h.4v-1.7h.3l.3-.3v-1.6h.3l.3-.3v-1.5h.3l.3-.3v-1.5h.3l.3-.3v-1.6h.3l.3-.3v-2.2h.3l.3-.3v-2.2h.3l.3-.3v-1.6h.6v.3s.2.2.3.3h.3v2s.2.2.3.3h.3v2.3l.3.3h.3v2.2l.3.3h.3v1.5s.2.2.3.3h.3v2.2s.2.2.3.3h.3v.8l.3.3h.3v1.5l.3.3h.3v1.6l.3.3h.3v.9l.3.3h.3v1.6s.2.2.3.3h.3v.9l.3.3h.3v1.6l.3.3h.3v.9l.3.3h.3v1.7l.3.3h.3v1.6l.3.3h.3v.9l.3.3h.4v1.6s.2.2.3.3h.3v1.6l.3.3h.3v2.2l.3.3h.3v2.1l.3.3h.4v2.2l.3.3h.3v2.6l.3.3h.3v2.8l.3.3h.3v5.3l.3.3h.3v22.3h-.3l-.3.3v4.7h-.3l-.3.3v3.4h-.3l-.3.3v2.2h-.3l-.3.3v2.2h-.3l-.3.3v1.6h-.3l-.3.3v1.6h-.3l-.3.3v.9h-.3l-.3.3v1h-.3l-.3.3v.9h-.3l-.3.3v1.1h-.3l-.3.3v.9h-.3l-.3.3v.9h-.3l-.3.3v.3h-.3l-.3.3v.9h-.3l-.3.3v1.6h-.3l-.3.3v6.1l.3.3h.3v1.6l.3.3h.3v1.6l.3.3h.3v.3l.3.3h.3v.9l.3.3h.3v.3l.3.3h.3v.3l.3.3h.3v.3l.3.3h.2v.3l.3.3h.3v.3l.3.3h.9v.3l.3.3h.4v.3l.3.3h1.6v.3s.2.2.3.3h.9v.2l.3.3h2.8v.3l.3.3h2.6l.3-.3v-.3h2.8l.3-.3v-.3h.9s.2-.2.3-.3v-.3h.9s.2-.2.3-.3v-.3h.7l.3-.3v-.3h.3l.3-.3v-.2h.3s.2-.2.3-.3v-.3h.3l.3-.3v-.3h.4l.3-.3v-.3h.3l.3-.3v-.4h.3l.3-.3v-.3h.3l.3-.3v-.3h.3l.3-.3v-.3h.3l.3-.3v-.3h.3l.3-.3v-.9h.3l.3-.3v-.3h.3l.3-.3v-.9h.3l.3-.3v-.9h.3l.3-.3v-.8h.3l.3-.3v-.9h.3s.2-.2.3-.3v-1.6h.3l.3-.3v-2.9h.3l.3-.3v-7.4l-.3-.3h-.3v-3.4l-.3-.3h-.2v-2.2s-.2-.2-.3-.3h-.3v-1.5l-.3-.3h-.3v-.9l-.3-.3h-.3v-1.6l-.3-.3h-.4v-.8l-.3-.3h-.3v-.9l-.3-.3h-.3v-1.6l-.3-.3h-.3v-1.6l-.3-.3h-.3v-4.1l-.3-.3h-.3v-.6h.3l.3-.3-.3-.3h-.3v-.6h.3l.3-.3v-5.3h.3l.3-.3v-.9h.3l.3-.3v-1.6h.3l.3-.3v-.9h.3l.3-.3v-.3h.3l.3-.3v-.9h.3l.3-.3v-.3h.3l.3-.3v-.3h.3s.2-.2.3-.3v-.3h.3l.3-.3v-.3h.3l.3-.3v-.3h.3l.3-.3v-.3h.3l.3-.3v-.3h.9l.3-.3v-.3h.3l.3-.3v-.3h1s.2-.2.3-.3v-.3h.3l.3-.3v-.3h1.6l.3-.3v-.3h.9l.3-.3v-.3h2.2l.3-.3v-.3h10.1v.3l.3.3h2.2v.3l.3.3h1.6v.3l.3.3h.9v.3l.3.3h.9v.3l.3.3h.9v.3l.3.3h.3v.3s.2.2.3.3h.3v.3l.3.3h.3v.3l.3.3h.9v.9l.3.3h.3v.3l.3.3h.3v.3l.3.3h.3v1.2h-.8l-.3.3v.3h-.9l-.3.3v.3h-1.1l-.3.3v.3h-.9l-.3.3v.3h-.3l-.3.3v.3h-.9l-.3.3v.3h-.3l-.3.3v.9h-.3l-.3.3v.3h-.3l-.3.3v.3h-.3l-.3.3v1.6h-.3l-.3.3v1.6h-.3l-.3.3v4.9l.3.3h.3v1.6s.2.2.3.3h.3v1.6l.3.3h.4v1.6l.3.3h.3v2.1l.3.3h.3v2.2l.3.3h.3v2.8l.3.3h.3v16.1h-.3l-.3.3v2.8h-.3l-.3.3v2.1h-.3l-.3.3v1.6h-.3l-.3.3v1.6h-.3l-.3.3v1.5h-.3l-.3.3v1.6h-.3l-.3.3v1.1h-.3l-.3.3v.9h-.3l-.3.3v.9h-.3l-.3.3v.9h-.3l-.3.3v.9h-.3l-.3.3v.3h-.3l-.3.3v.9h-.3l-.3.3v.8h-.3l-.3.3v.3h-.3s-.2.2-.3.3v.9h-.4l-.3.3v.4h-.3l-.3.3v.3h-.3l-.3.3v.9h-.3l-.3.3v.3h-.3l-.3.3v.3h-.3l-.3.3v.3h-.3l-.3.3v.3h-.3l-.3.3v.3h-.3l-.2.3v.3h-.3l-.3.3v.3h-.3l-.3.3v.3h-.3l-.3.3v.3h-.3l-.3.3h0c0,.1-.3.1-.3.1l-.3.3v.3h-.3l-.3.3v.3h-.3l-.3.3v.3h-.3s-.2.2-.3.3v.5h-.2l-.3.3v.3h-.9l-.3.3v.3h-.3l-.3.3v.3h-.4l-.3.3v.3h-.9l-.3.3v.3h-.3s-.2.2-.3.3v.3h-.9s-.2.2-.3.3v.3h-.9l-.3.3v.3h-.9l-.3.3v.3h-.3l-.3.3v.3h-1.6l-.3.3v.3h-.9l-.3.3v.3h-.9l-.3.3h0c0,.1-.9.1-.9.1l-.3.3v.3h-1.6l-.3.3v.3h-1.7l-.3.3v.3h-1.5l-.3.3v.5h-1.6l-.3.3v.3h-2.8l-.3.3v.3h-2.9l-.3.3v.3h-39.4M237.7,337.4v-.6h-5.6v-.6h-.5v-17.3h21.9v17.3h-.6v.6h-4.4v.6s-10.8,0-10.8,0ZM233.3,341v-.6h-5v-.6h-2.6v-1.2h-.6v-19.8h-2.6v-.6h-6v-.6h-2.5v-.6h-2.6v-.6h-1.8v-.6h-1.9v-.6h-1.9v-.6h-1.2v-.6h-1.3v-.6h-1.9v-.6h-1.3v-.6h-.6v-.6h-1.2v-.8h-1.3v-.6h-1.3v-.6h-.6v-.6h-1.3v-.6h-.6v-.6h-1.3v-.6h-.6v-.6h-.6v-.6h-.6v-.6h-.5v-.6h-1.3v-.6h-.6v-.6h-.8v-.4h-.6v-.6h-.6v-.6h-.6v-.6h-.6v-.8h-.6v-.6h-.6v-.6h-.6v-.6h-.6v-.6h-.6v-1.3h-.6v-.6h-.6v-.6h-.6v-1.2h-.6v-.6h-.6v-1.1h-.6v-.6h-.6v-1.2h-.5v-1.2h-.6v-.6h-.6v-1.9h-.6v-1.3h-.7v-1.2h-.6v-1.2h-.6v-1.9h-.6v-1.3h-.6v-2.4h-.6v-1.9h-.6v-3.1h-.6v-3.9h-.6v-13h.6v-5h.6v-2.4h.6v-2.5h.6v-1.8h.6v-1.9h.6v-1.2h.6v-1.8h.6v-1.2h.6v-1.9h.6v-4.3h-.6v-1.9h-.6v-.6h-.6v-1.2h-.6v-.6h-1.3v-.6h-.6v-.6h-1.9v-.6h-7.5v-3.1h.7v-1.2h.6v-.6h.7v-1.3h.6v-.6h.6v-1.3h.6v-.6h.6v-.6h.6v-.6h.6v-.6h.6v-.6h.6v-.8h.6v-.6h1.3v-.6h.6v-.6h1.2v-.6h.6v-.6h1.1v-.6h1.3v-.5h1.8v-.6h1.9v-.6h3.2v-.6h8.8v.6h3.1v.6h1.9v.6h1.9v.6h1.3v.6h1.2v.6h1.3v.6h.6v.6h.7v.6h1.3v.5h.6v.6h.6v.6h.6v.6h.6v.7h.6v.6h.6v.6h.6v1.3h.6v.6h.6v1.3h.6v.6h.6v1.2h.6v1.2h.6v1.9h.6v1.9h.5v3h.6v7.5h-.6v3.1h-.6v1.9h-.6v1.9h-.6v1.2h-.6v1.2h-.6v1.9h-.6v1.4h-.6v1.8h-.6v2.5h-.6v5.5h-.6v3.7h.6v4.3h.6v2.6h.6v1.9h.6v1.2h.6v1.2h.6v.6h.6v.6h.6v1.2h.6v.6h1.3v.6h.6v.3h1.3v.6h1.8v.6h5v-.6h1.9v-.6h1.3v-.6h.5v-.6h1.2v-.6h.6v-.6h.8v-1.2h.6v-1.3h.6v-1.8h.6v-4.4h-.6v-1.8h-.6v-1.2h-.6v-1.3h-.6v-.6h-.6v-1.2h-.6v-1.8h-.8v-1.8h-.5v-.6h-.6v-1.8h-.6v-1.9h-.6v-1.9h-.6v-1.7h-.6v-2.6h-.6v-2.6h-.6v-2.9h-.6v-4.3h-.6v-18h.6v-4.3h.6v-3.8h.6v-2.4h.6v-2.6h.6v-1.8h.6v-1.8h.6v-1.9h.6v-1.2h.6v-1.9h.5v-1.9h.6v-1.1h.6v-1.2h.6v-1.4h.8v-1.9h.6v-1.3h.6v-1.2h.6v-1.2h.7v-1.3h.6v-1.1h.6v-1.2h.6v-1.4h.6v-1.3h.6v-1.2h.6v-1.8h.6v-1.2h.6v-1.3h.6v-1.9h.6v-1.2h.6v-1.9h.6v-1.9h.4v-1.8h.6v-1.9h.6v-1.9h.6v-2.3h.7v-3.1h.6v-4.9h.6v-1.3h.6v-.7h1.2v.6h.7v1.3h.6v5.6h.7v3.7h.6v2h.6v2.6h.6v1.8h.6v1.9h.6v2.6h.6v1.6h.6v1.2h.6v1.9h.6v1.2h.6v1.9h.6v1.2h.6v1.2h.6v1.2h.6v1.3h.6v1.2h.6v1.3h.8v1.8h.6v.6h.6v1.3h.6v1.9h.6v1.2h.6v1.8h.6v1.9h.6v1.9h.6v1.8h.6v1.9h.6v1.8h.6v2.4h.6v2.6h.6v2.5h.7v5.6h.6v4.9h.6v5.6h-.6v7.4h-.6v3.7h-.7v3.1h-.6v2.4h-.6v2.5h-.6v1.8h-.6v1.8h-.6v1.9h-.6v1.2h-.6v1.8h-.6v1.1h-.6v1.3h-.6v1.9h-.6v1.2h-.6v.6h-.6v1.2h-.6v1.2h-.6v1.3h-.6v1.8h-.7v3.1h.6v2.4h.6v1.3h.6v.6h.8v.6h.6v.6h.6v.6h.6v.6h.6v.6h1.2v.6h1.9v.6h5.7v-.6h1.9v-.6h1.3v-.6h.6v-.6h.6v-.6h.7v-.6h.6v-.6h.6v-1.3h.6v-1.2h.6v-1.2h.6v-1.9h.6v-3.1h.6v-4.9h.6v-3.1h-.6v-5.6h-.6v-2.6h-.6v-1.8h-.6v-1.2h-.6v-1.3h-.6v-1.9h-.6v-1.2h-.6v-2.6h-.7v-2.8h-.6v-6.8h.6v-3.1h.7v-2.4h.6v-1.3h.6v-1.2h.6v-1.2h.6v-1.2h.6v-1.3h.6v-.6h.6v-1.2h.6v-.6h.6v-.6h.6v-.6h.6v-.6h.5v-.6h.6v-.6h.6v-.8h1.4v-.6h.6v-.6h1.3v-.6h.6v-.6h1.3v-.6h1.3v-.6h1.2v-.5h1.9v-.6h1.9v-.6h4.4v-.6h5.7v.6h3.6v.6h2.6v.6h1.3v.6h1.9v.6h1.3v.6h.6v.6h1.3v.6h.6v.6h1.2v.5h.6v.6h.6v.6h.6v.6h.5v.7h.6v.6h.6v.6h.7v.6h.7v1.2h.6v.6h.6v1.3h.6v.6h.7v1.2h.6v1.9h.6v1.9h-.6v.6h-1.9v-.6h-6.3v.6h-1.2v.6h-1.3v.6h-.6v.6h-.6v.6h-.6v1.2h-.6v1.3h-.6v5.6h.6v2.4h.6v1.2h.6v1.9h.6v1.8h.6v1.9h.6v3.3h.6v3.7h.6v14.2h-.6v3.7h-.6v2.4h-.6v2.5h-.6v1.8h-.6v1.9h-.6v1.9h-.6v1.3h-.6v1.2h-.6v1.2h-.6v1.3h-.6v1.2h-.7v1.1h-.6v1.2h-.6v.6h-.6v1.3h-.7v.6h-.6v1.3h-.6v.6h-.6v1.2h-.6v.6h-.6v.6h-.6v.6h-.6v.6h-.6v1.2h-.6v.6h-.7v.6h-.6v.6h-.6v.8h-.6v.6h-.6v.6h-1.3v.6h-.5v.6h-.6v.6h-.6v.6h-.6v.6h-1.2v.6h-.6v.6h-1.3v.6h-.6v.6h-1.3v.6h-1.2v.4h-.6v.6h-1.3v.6h-1.3v.6h-1.3v.8h-1.2v.6h-1.3v.6h-1.3v.6h-1.9v.6h-1.8v.6h-1.9v.6h-1.9v.6h-3.1v.6h-2v.6h-3.8v.6h-5.6v18h-.6v1.9h-.5v.6h-2.6v.6h-6.3v.6h-15.7,0Z"/>
  <path class="cls-2" d="M123.7,83.4v-.6h-.6v-.3l-.3-.3h-.3v-1.2h.3l.3-.3v-.3h.3l.3-.3v-.3h.3s.2-.2.3-.3v-.3h.3l.3-.3v-.3h.3l.3-.3v-.3h.3l.3-.3v-.3h.3l.3-.3v-1.3l-.3-.3h-.3v-.9s-.2-.2-.3-.3h-.3v-.9s-.2-.2-.3-.3h-.3v-1.8h.3l.3-.3v-.3h.3s.2-.2.3-.3v-.3h2.6v.3s.2.2.3.3h.3v.9l.3.3h.3v.9l.3.3h.3v.3l.3.3h.3v.9l.3.3h.1v.9l.3.3h.3v2.5h-.3l-.3.3v.9h-.3l-.3.3v.3h-.3l-.3.3v.3h-.3l-.3.3v.3h-.3l-.3.3v.3h-.2l-.3.3v.3h-.9l-.3.3v.3h-3.9M101.2,84.7v-.6h-1.3v-.3l-.3-.3h-.3v-.3l-.3-.3h-.9v-.9s-.2-.2-.3-.3h-.3v-1.9h.9l.3-.3v-.3h.3l.3-.3v-.3h1.6s.2-.2.3-.3v-.3h2.5v.3s.2.2.3.3h2.2v.3l.3.3h.9v.3s.2.2.3.3h.4v.6h-.3l-.3.3v.3h-.3l-.3.3v.3h-1s-.2.2-.4.3v.3h-.3l-.3.3v.3h-.3s-.2.2-.3.3v.3h-.9s-.2.2-.3.3v.3h-.2l-.3.3v.3s-1.4,0-1.4,0ZM76.6,134.8v-.6h-1.8v-.6h-1.3v-.9l-.3-.3h-.3v-2.6h.3l.3-.3v-1.6h.5s.2-.2.3-.3v-.5s-.2-.2-.3-.3h-.3v-.2l-.3-.3h-.3v-.3l-.3-.3h-.3v-.3l-.3-.3-.3.3v.3h-.9l-.3.3v.9h-.3l-.3.3v.3h-.3l-.3.3v.9h-.3l-.3.3v.9h-.3l-.3.3v.3h-2.6v-2.6h.3l.3-.3v-.9h.3l.3-.3v-.3h.3l.3-.3v-.9h.3l.3-.3v-.3h.3l.5-.3v-.9h.3s.2-.2.3-.3v-.8h.3l.3-.3v-.2h2.6v.3s.2.2.3.3h.9v.3s.2.2.3.3h.3v.3l.3.3h.9v.3l.3.3h.3v.2s.2.2.3.3h.6l.3-.3v-.9h.3l.3-.3v-.3h.3s.2-.2.3-.3v-.8h.3l.3-.3v-.3h.3s.2-.2.3-.3v-.6l-.3-.3h-.6v-.3l-.3-.4h-.3v-.3s-.2-.2-.3-.3h-.3v-.3s-.2-.2-.3-.3h-1.3l-.3.3v.3h-.3l-.3.3v.3h-1.2v-.3l-.3-.3h-.3v-1.8h.3l.3-.2v-1.1h.3l.3-.3v-.3h.3s.2-.2.3-.3v-.3h.3l.3-.3v-.9h.3l.3-.3v-.3h.3l.3-.3v-.3h.3l.3-.3v-.2h.3s.2-.2.3-.3v-.9h.3l.3-.3v-.3h.3l.3-.3v-.4h.3s.2-.2.3-.3v-.3h.3s.2-.2.3-.3v-.3h.3l.3-.3v-.3h.3l.3-.3v-.9h.3s.2-.2.3-.3v-.3h.3s.2-.2.3-.3v-.3h.3l.3-.3v-.3h.2l.3-.3v-.3h.3l.3-.3v-.9h.3s.2-.2.3-.3v-.3h.3l.3-.3v-.3h.4s.2-.2.3-.3v-.3h.3l.3-.3v-.3h.3l.3-.3v-.3h.3l.3-.3v-.3h.3l.3-.3v-.9h.3l.3-.3v-.3h.3l.3-.3v-.3h.3l.3-.3v-.3h.3l.3-.3v-.3h.3l.3-.3v-.3h.3l.3-.3v-.3h.3l.3-.3v-.3h.3l.3-.3v-.3h.3l.3-.3v-.3h.3l.3-.3v-.3h.3l.3-.3v-.3h.3l.3-.3v-.3h.9s.2-.2.3-.3v-.9h.3l.3-.3s-.2-.2-.3-.3h-.3v-.3l-.3-.3h-.3v-.3l-.4-.3h-.9v-.3l-.3-.3h-.3v-.3l-.3-.3h-.2v-.3l-.3-.3h-.2v-.3l-.3-.3h-.3v-.9l-.3-.3h-.3v-2.5h.3s.2-.2.3-.3v-.9h.3l.3-.3v-.9h.3l.3-.3v-.3h.9l.3-.3v-.3h1.6s.2-.2.3-.3v-.3h6.8v.3l.3.3h2.3v.3s.2.2.3.3h1.5v.3l.3.3h.3v.3s.2.2.3.3c.1-.1.2-.2.3-.3v-.3h.3l.3-.3v-.3h.3l.3-.3v-.3h.9l.3-.3v-.3h.3l.3-.3v-.3h.9l.3-.3v-.3h.4l.3-.3v-.3h.3l.3-.3v-.3h.3l.3-.3v-.3h.9s.2-.2.3-.3v-.3h.9l.3-.3v-.3h.3s.2-.2.3-.3v-.3h.3l.3-.3v-.3h.3s.2-.2.3-.3v-.3h.9l.3-.3v-.3h.9l.3-.3v-.3h.3l.3-.3v-.3h.3l.3-.3v-.3h.8s.2-.2.3-.3v-.3h.3l.3-.3v-.3h.9l.3-.3v-.3h.4l.3-.3v-.3h.9l.3-.3v-.3h.3s.2-.2.3-.3v-.3h.9l.3-.3v-.3h.9l.3-.3v-.3h.9l.3-.3v-.3h.6v.3s.2.2.3.3h1v1.9h-.3l-.3.3v.3h-.3s-.2.2-.3.3v.3h-1.1l-.3.3v.3h-.9l-.3.3v.3h-.3l-.3.3v.3h-.3l-.3.3v1.9l.3.3h.3v.9l.3.3h.3v.3s.2.2.3.3h.3v.9s.2.2.3.3h.4v.9s.2.2.3.3h.3v.9l.3.3h.3v.3s.2.2.3.3h.3v.9l.3.3h.4v.9s.2.2.3.3h.3v.3l.3.3h.3v.9l.3.3h.3v.3l.3.3h.3v.9s.2.2.3.3h.3v.9s.2.2.3.3h.3v1.2h-.3l-.3.3v.3h-.5l-.3.3v.3h-1.3v-.3l-.3-.3h-.3v-.3s-.2-.2-.3-.3h-.2v-.9s-.2-.2-.3-.3h-.3v-.3s-.2-.2-.3-.3h-.3v-.3l-.3-.3h-.8l-.3.3v.3h-.3l-.3.3v.3h-.3s-.2.2-.3.3v.3h-.3l-.3.3v.3h-.9l-.3.3v.3h-.3l-.3.3v.3h-1l-.3.3v.3h-1.6l-.3.3v.3h-3.1v-.3l-.3-.3h-2.2v-.3l-.3-.3h-.9v-.3s-.2-.2-.3-.3h-.3v-.3l-.3-.3h-.3v-.3s-.2-.2-.3-.3h-.4v-.9l-.3-.3h-.3v-1.2h.3l.3-.3v-.9h.3l.3-.3v-.3h.9s.2-.2.3-.3v-.3h.3l.3-.3v-.3h.3l.3-.3v-.3h.3l.3-.3v-.3h.3l.3-.3v-.6l-.3-.3h-.3v-.9l-.3-.3h-1.8l-.3.3v.3h-.9l-.3.3v.3h-.3l-.3.3v.3h-.3s-.2.2-.3.3v.3h-.3l-.3.3v.3h-.3l-.3.3v.3h-.9l-.3.3v.3h-.3l-.3.3v.9h-.3l-.3.3.3.3h.3v.3l.3.3h.3v.9l.3.3h.3v.9s.2.2.3.3h.3v.3l.3.3h.3v.3l.3.3h.3v.9l.3.3h.3v.3l.3.3h.3v.3l.3.3h.3v.9l.3.3h.3v.3s.2.2.3.3h.3v.3l.3.3h.5v.3l.3.3h.3v.9l.3.3h.3v.3l.3.3h.3v.9l.3.3h.3v2.5h-.3l-.3.3v.3h-1.9v-.3l-.3-.3h-.3v-.9s-.2-.2-.3-.3h-.3v-.3l-.3-.3h-.3v-.9l-.3-.3h-.5v-.3l-.3-.3h-.3v-.3l-.3-.3h-.3v-.9l-.3-.3h-.3v-.3l-.3-.3h-.3v-1.2h-.4v-.3l-.3-.3h-.3v-.3l-.4-.3h-.3v-.9l-.3-.3h-.3v-.3l-.3-.3h-.3v-.3l-.3-.3h-.3v-.9l-.3-.3h-.3v-.3l-.3-.3h-.3v-.3l-.4-.3h-.5l-.3.3v.3h-.3l-.3.3v.3h-.3l-.3.3v.3h-.3l-.3.3v.3h-.3l-.3.3v1.2l.3.3h.4v.3l.3.3h.3v.3l.3.3h.3v.3l.3.3h.3v.9l.3.3h.3v.3l.3.3h.3v.3l.3.3h.3v.3l.3.3h.3v.9s.2.2.3.3h.3v.3l.3.3h.3v.3l.3.3h.3v.3s.2.2.3.3h.3v.9l.3.3h.3v.3s.2.2.3.3h.3v.3l.3.3h.3v.9l.3.3h.3v.3l.3.3h.3v1.8h-.3l-.3.3v.3h-1.9v-.3l-.3-.3h-.3v-.3s-.2-.2-.3-.3h-.3v-.9l-.3-.3h-.3v-.9s-.2-.2-.4-.3h-.3v-.3l-.3-.3h-.3v-.3l-.3-.3h-.3v-.3l-.3-.3h-.3v-.3l-.3-.3h-.3v-.3l-.3-.3h-.3v-.3l-.3-.3h-.3v-.3s-.2-.2-.3-.3h-.6l-.3.3v.3h-.3l-.3.3v.3h-.3l-.3.3v.3h-.3l-.3.3v.3h-.3l-.3.3v.3h-.3l-.3.3v.3h-.3l-.3.3v.9h-.3l-.3.3v.9h-.3l-.3.3v.6l.3.3h.3v.9l.3.3h.3v.3l.3.3h.9v.3l.3.3h2.3v.3l.3.3h3.4v.3l.3.3h.3v1.2h-.3l-.3.3v.3h-.3l-.3.3v.3h-4.4v-.3l-.3-.3h-2.2v-.3l-.3-.3h-.3c0-.1-.2-.3-.3-.4h-.9v-.3l-.3-.3h-.3v-.3l-.3-.3h-.3v-1.1l-.3-.3h-.3v-.9l-.3-.3h-.3v-3.1h.3l.3-.3v-.9h.3l.3-.3v-.9h.3l.3-.3v-.3h.3l.3-.3v-.3h.4s.2-.2.3-.3v-.3h.3s.2-.2.3-.3v-.3h.3l.3-.3v-.3h.3l.3-.3v-.3h.3l.3-.3v-.3h.3l.3-.3v-.3h.3l.3-.3v-.6l-.3-.3h-.3v-.3l-.3-.3h-.5v-.3l-.3-.3h-.3v-.3l-.3-.3h-1.2l-.3.3v.3h-.2l-.3.3v.3h-.3l-.3.3v.3h-.3l-.3.3v.3h-.3l-.3.3v.3h-.4l-.3.3v.3h-.3l-.3.3v.3h-.3l-.3.3v.3h-.3l-.3.3v.3h-.4l-.3.3v.3h-.2l-.3.3v.3h-.3l-.3.3v.3h-.3l-.3.3v.3h-.3l-.3.3v.3h-.3l-.3.3v.3h-.3l-.3.3v.9h-.3l-.3.3v.6l.3.3h.3v.3s.2.2.3.3h.3v.3l.3.3h.4v.3l.3.3h.3v.9l.3.3h.3v.9l.3.3h.3v3.1h-.3l-.3.3v1.3l.3.3h8.9v.3l.3.3h1.6v.3s.2.2.3.3h.4v1.2h-.3l-.3.3v.3h-19.4v-.3l-.3-.3h-.4v-1.8h.9l.3-.3v-.3h2.2l.3-.3v-.3h.3l.3-.3v-.9h.3s.2-.2.3-.3v-.9h.3s.2-.2.3-.3v-.6l-.3-.3h-.3v-.9s-.2-.2-.3-.3h-.3v-.3l-.3-.3h-.3v-.3l-.3-.3h-1.3l-.3.3v.3h-.3l-.3.3v.3h-.3l-.3.3v.3h-.3l-.3.3v.3h-.3l-.3.3v.9h-.3l-.3.3v.3h-.3l-.3.3v.3h-.3l-.3.3v.3h-.4l-.3.3v.9h-.3l-.3.3.3.3h.3v.3l.3.3h.3v.3l.3.3h.3v.3l.3.3h.3v.3l.3.3h.3v.3l.3.3h.3v.3s.2.2.3.3h.9v.3l.3.3h.3v.3l.3.3h.3v.3l.3.3h.3v.3l.3.3h.3v.4l.3.3h.3v.3l.3.3h.3v.3s.2.2.3.3h.9v.3l.3.3h.3v.3l.3.3h.4v.3l.3.3h.9v.3l.3.3h.3v.3l.3.3h.3v2.4h-2.5v-.3l-.3-.3h-.9v-.3l-.3-.3h-.3v-.3l-.4-.3h-.3v-.3s-.2-.2-.3-.3h-.3v-.4l-.3-.3h-.3v-.3l-.3-.3h-.3v-.3l-.3-.3h-.3v-.3l-.3-.3h-.9v-.3l-.3-.3h-.3v-.3l-.3-.3h-.3v-.3l-.3-.3h-.3v-.2s-.2-.2-.3-.3h-.3v-.3l-.3-.3h-.3v-.3l-.3-.3h-.3v-.3l-.4-.4h-.9v-.3l-.3-.3h-.3v-.3s-.2-.2-.3-.3h-.3v-.3l-.3-.3h-.1v-.3l-.3-.3-.3.3v.9h-.3l-.3.3v.3h-.3l-.3.3v.3h-.3s-.2.2-.3.3v1.2l.3.3h.3v.4l.3.3h.9v.3s.2.2.3.3h.3v.3l.3.3h.3v.3l.3.3h.3v.3l.3.3h.9v.3l.3.3h.3v.3l.3.3h.3v.3l.3.3h.3v.3l.3.3h.3v.3l.3.3h.3v.3s.2.2.3.3h.9v.3l.3.3h.3v.3l.3.3h.3v.2l.3.3h.3v.3l.3.3h.3v.3l.3.3h.3v.3l.3.3h.1v1.8h-.3l-.3.3v.3h-1.9v-.3l-.3-.3h-.3v-.3l-.3-.3h-.3v-.3l-.3-.3h-.3v-.2l-.3-.3h-.3v-.3l-.3-.4h-.3v-.3l-.3-.3h-.3v-.3l-.3-.3h-.3v-.3l-.3-.3h-.3v-.3l-.4-.3h-.9v-.3l-.3-.3h-.6l-.3.3v.3h-.3l-.3.3v.3h-.3l-.3.3v.9h-.3l-.3.3v.3h-.3l-.3.3v.7l.3.3h.3v.3l.3.3h.3v.3l.3.3h.5v.3l.3.3h.3v.3l.3.3h.3v.3l.3.3h.3v.3l.3.3h.3v1.9h-.3l-.3.3v.3h-.3l-.3.3v.3h-.9l-.3.3v.3h-.9l-.3.3v.3h-4c0-.1,0-.1,0-.1Z"/>
  <path class="cls-2" d="M238.4,31.5v-.6h-.6v-.9l-.3-.3h-.3v-3.7h.3l.3-.3v-.9h5v.3l.3.3h.9v.3l.3.3h.9v.3l.3.3h.3v.2l.3.3h.3v.3s.2.2.3.3h.3v.3l.3.3h.3v.3l.3.3h.3v.5l.3.3h.3v.3l.3.3h.3v1.2h-11.3M232.8,48.2v-.6h-.6v-.3l-.3-.3h-.2v-.3s-.2-.2-.3-.3h-.3v-3.2h.3l.3-.3v-1.6h.3l.3-.3v-.9h.9s.2-.2.3-.3v-.3h3.2v.4l.3.3h.3v.3l.3.3h.3v4.9h-.3s-.2.2-.3.3v.9h-.9l-.3.3v.3h-.9l-.3.3v.3h-2ZM205.8,34.6v-.6h-.6v-5h.2l.3-.3v-.3h.3l.3-.3v-.3h3.8v.3l.3.3h.9v.3l.3.3h.9v.4l.3.3h.3v.3l.3.3h.9v.3l.3.3h.3v.3l.3.3h.9v.3l.3.3h.3v1.2h-2.2l-.3.3v.3h-3.4l-.3.3v.3h-5ZM183.9,56.9v-2.4h.6v-1.2h1.3v-.6h1.2v-.6h.6v-1.9h-.6v-.6h-2.6v.6h-2.6v.6h-.6v-.6h-.6v-.6h.6v-.7h1.9v-.6h1.9v-.6h2.1v-.6h.6v-.6h.6v-1.9h-.6v-1.9h.6v-.6h2.6v2.4h.6v3.1h.6v3.2h.6v.6h-.6v1.3h-.6v1.2h-.6v.6h-.6v.6h-.6v.6h-1.3v.6h-.6v.6h-3.9,0ZM161.9,61.9v-.7h-.7v-.3l-.3-.3h-.3v-.9s-.2-.2-.3-.3h-.3v-.9l-.3-.3h-.3v-.9l-.3-.3h-.3v-1.5s-.2-.2-.3-.3h-.3v-1.9h.3l.3-.3v-.3h.3l.3-.3v-.3h.9l.3-.3v-.3h2.6v.9s.2.2.3.3h.3v.9l.3.3h.3v1.6s.2.2.3.3h.3v1.6s.2.2.3.3h.3v.9l.3.3h.3v.9l.3.3h.3v.6h-1.1l-.3.3v.3h-.9s-.2.2-.3.3v.3s-2.5,0-2.5,0ZM161.3,73v-.6h-.6v-.3s-.2-.2-.3-.3h-.3v-1.9h.3l.3-.3v-.3h.3l.3-.3v-.9h.3l.3-.3v-.9h.3s.2-.2.3-.3v-.6l-.3-.3h-.3v-.3l-.3-.3h-.9v-.4l-.3-.3h-.9v-.3l-.3-.3h-.3v-.3l-.3-.3h-.3v-.9l-.3-.3h-.3v-.9l-.3-.3h-.3v-.9l-.3-.3h-.3v-1.6l-.3-.3h-.3v-.9l-.3-.3h-.3v-.9l-.3-.3h-1.2l-.3.3v.3h-1.6l-.3.3v.3h-.6v-.4s-.2-.2-.3-.3h-.3v-.3s-.2-.2-.3-.3h-.4v-.6h.3s.2-.2.3-.3v-.9h.9l.3-.3v-.3h.9l.3-.3v-.3h.9l.3-.3v-.3h.9l.3-.3v-.3h.9s.2-.2.3-.3v-.3h1.6s.2-.2.3-.3v-.3h.9s.2-.2.3-.3v-.6l-.3-.3h-.3v-.3l-.3-.3h-.9v-.3l-.3-.3h-.9v-.3l-.3-.3h-.3v-.3l-.2-.3h-.9v-.3s-.2-.2-.3-.3h-1.9l-.3.3v.3h-1l-.3.3v.3h-1.3v-.3l-.3-.3h-1.5v-.3l-.3-.3h-.3v-.6h.3s.2-.2.3-.3v-.3h.3l.3-.3v-.3h.9s.2-.2.3-.3v-.3h.3l.3-.3v-.3h3.2v.3s.2.2.3.3h1.6v.3l.3.3h.9v.3s.2.2.3.3h.3v.3s.2.2.3.3h.9v.3l.3.3h.9v.3l.3.3h1.5v.3l.3.3h.3v.3l.3.3h3.2s.2-.2.3-.3v-.3h.9s.2-.2.3-.3v-.7l-.3-.3h-.9v-.3s-.2-.2-.3-.3h-.3v-.3s-.2-.2-.3-.3h-.9v-.4s-.2-.2-.3-.3h-.2v-.3l-.3-.3h-.3v-.3l-.3-.3h-2.5l-.3.3v.3h-.9l-.3.3v.3h-1.3v-.3l-.3-.3h-.9v-.3l-.3-.3h-.3v-1.3h.3l.3-.3v-.3h.3s.2-.2.3-.3v-.3h.9l.3-.3v-.3h5v.3s.2.2.3.3h.9v.4l.3.3h.3v.3l.3.3h.9v.3l.3.3h.9v.3s.2.2.3.3h.3v.3s.2.2.3.3h.9v.3l.3.3h.9v.3l.3.3h.9v.3s.2.2.3.3c0-.1.2-.2.3-.3v-.3h2.2l.3-.3v-.3h.9s.2-.2.3-.3v-.3h1.5l.3-.3v-.3h1.4l.3-.3v-.3h1.6l.3-.3v-.3h1.6l.3-.3v-.4h2.2l.3-.3v-.3h2.2s.2-.2.3-.3v-.3h1.6s.2-.2.3-.3v-.3h2.2l.3-.3v-.3h1.5l.3-.3-.3-.3h-.3v-.3s-.2-.2-.3-.3h-.3v-.3l-.3-.3h-.3v-.3s-.2-.2-.3-.3h-.3v-.3l-.2-.3h-.9v-.3l-.3-.3h-.3v-.3l-.3-.3h-.9v-.3l-.3-.3h-1.2l-.4.3v.3h-3.2v-.3l-.3-.3h-.3v-.3l-.3-.4h-.3v-1.2h.3l.3-.3v-.3h1.6l.3-.3v-.2h3.7v.3l.3.3h1v.3l.3.3h.3v.3l.3.3h.9v.3l.3.3h.3v.3l.3.3h.9v.3s.2.2.3.3h.3v.3l.3.3h.3v.3l.3.3h.9v.3l.3.3h.3v.3l.3.3h.3v.3l.3.3h2.6l.3-.3v-.3h.9l.3-.3v-.3h.3l.2-.3v-1.8l-.3-.3h-.3v-3.7h.3l.3-.3v-.9h.3s.2-.2.3-.3v-.9h.3l.3-.3v-.3h.3l.3-.3v-.3h1.5l.3-.3v-.3h.6v.3l.3.3h2.8v.3l.3.3h1.5v.3l.3.3h.8v.2l.3.3h.3v.3s.2.2.3.3h.9v.3l.3.3h.4v.3l.3.3h.9v.5l.3.3h.3v.3l.3.3h1v.3l.3.3h.3v.3l.3.3h.9v.3h.2c0,.1.3.1.3.1v.3l.3.3h3.7l.3-.3v-.3h6.6l.3-.3v-.3h1.6l.3-.3v-1.3l-.3-.2h-.3v-4.9h.3l.3-.3v-.2h.3l.3-.3v-.3h.3l.3-.3v-.4h.3l.3-.3v-.3h.9s.2-.2.3-.3v-.4h5v.3s.2.2.3.3h.9v.3l.3.3h.3v.3l.3.3h.9v.3l.3.3h1v.3s.2.2.3.3h.3v.3l.3.3h.3v.3l.3.3h.3v.3l.3.3h.3v.3l.3.3h.3v.3s.2.2.3.3h.3v.3l.3.3h.3v.3l.3.3h.3v.5l.3.3h.3v.3l.3.3h.3v.3l.3.3h.3v.3l.3.3h5.3v.3l.3.3h1.5v.3l.3.3h.3v1.8h-5.9l-.3.3v.3h-.3l-.3.3v12.7h-.3l-.3.3v4.7h-.3l-.3.3v.3h-.3l-.3.3v.3h-.6v-.4l-.3-.3h-.3v-.3s-.2-.2-.3-.3h-.3v-2.5h.3l.3-.3-.3-.3h-.3v-3.7h.3s.2-.2.3-.3v-11.1l-.3-.3h-.3v-.3l-.3-.3h-8.8l-.3.3v.4h-.9l-.3.3v.3h-.2l-.3.3.3.3h.3v1.4l.3.3h1.3l.3-.3v-.3h3.1v.3l.3.3h1v.3l.3.3h.3v.3s.2.2.3.3h.3v.3l.3.3h.3v.9l.3.3h.3v2.2l.3.3h.3v2h-.2l-.3.3v2.2h-.3s-.2.2-.3.3v1.6h-.3s-.2.2-.3.3v.9h-.3l-.3.3v.3h-.4l-.3.3v.3h-.3l-.3.3v.3h-.3s-.2.2-.3.3v.3h-1.3v-.3l-.3-.3h-.3v-1.3h.3s.2-.2.3-.3v-.9h.3s.2-.2.3-.3v-.3h.3l.3-.3v-.4h.3l.3-.3v-.9h.3l.3-.3v-3.7l-.3-.3h-.3v-1.6l-.3-.3h-.3v-.3l-.3-.3h-.3v-.3l-.3-.3h-2.5l-.3.3v.3h-.3l-.3.3v.3h-.3l-.3.3v12.1h-.2l-.3.3v.9h-1.3v-.3s-.2-.2-.3-.3h-.3v-.3l-.3-.3h-.3v-3.4s-.2-.2-.3-.3h-2.6l-.3.3v.3h-1.8v-.3l-.3-.3h-2.2v-.3l-.3-.3h-.3v-.3s-.2-.2-.3-.3h-.2v-.3l-.3-.3h-.3v-1.6s-.2-.2-.3-.3h-.3v-4.4h.3l.3-.3v-1.6h.3l.3-.3v-.3h.3l.3-.3v-.3h.3s.2-.2.3-.3v-.4h.9l.3-.3v-.3h.3l.3-.3v-.3h4.7l.3-.3v-1.9l-.3-.2h-9.5l-.3.3v.3h-2.2l-.3.3v.3h-.3l-.3.3v1.9l.3.3h.3v4.6l.3.3h.3v6.5s.2.2.3.3h.3v4.4h-.3l-.3.3v.3h-.3l-.3.3v.3h-.6v-.3s-.2-.2-.3-.3h-.3v-.3l-.3-.3h-.3v-3.4l-.3-.3h-.3v-8.4s-.2-.2-.3-.3h-.3v-5.3l-.4-.3h-.3v-.3l-.3-.3h-3.8l-.3.3v2.5s.2.2.3.3h.3v4l.3.3h.3v2.2l.3.3h.3v4.3h-.3l-.3.3v.3h-.9s-.2.2-.3.3v.3h-.6v-.3l-.3-.3h-.9v-.3l-.3-.3h-1.1v-.3l-.3-.3h-.3v-.9s-.2-.2-.3-.3h-.3v-.3l-.3-.3h-.3v-.9s-.2-.2-.3-.3h-.3v-1s0-.2-.1-.3h-.3v-2.6h.3l.3-.3v-.3h.3l.3-.3v-.3h.3l.3-.3v-.3h.9l.3-.3v-2.4l-.3-.3h-.3v-.3l-.3-.3h-3.2l-.3.3v.3h-.3s-.2.2-.3.3v.3h-.3l-.3.3v.6l.3.3h.3v2.8l.3.3h.3v2.9l.3.3h.3v4.1s.2.2.3.3h.3v3.4l.3.3h.3v2.5h-.2l-.3.3v.3h-.3s-.2.2-.3.3v.3h-.6v-.3l-.3-.3h-.3v-.3s-.2-.2-.3-.3h-.3v-.9l-.3-.3h-.3v-2.2l-.3-.3h-.4v-3.4l-.3-.3h-.3v-3.4l-.4-.3h-.3v-3.4s-.2-.2-.3-.3h-.2v-2.2l-.3-.3h-.3v-.3l-.3-.3h-.6l-.3.3v.3h-.9l-.3.3v.3h-.3l-.3.3v1.2l.3.3h.3v2.2s.2.2.3.3h.3v2.8l.3.3h.4v2.8s.2.2.3.3h.3v2.8l.3.3h.3v2.8l.3.3h.3v1.9h-.3l-.3.3v.3h-.3s-.2.2-.3.3v.3h-.6v-.3l-.3-.3h-1v-.9s-.2-.2-.3-.3h-.3v-1.6l-.3-.3h-.4v-2.1l-.3-.3h-.3v-3.4l-.3-.3h-.3v-3.4l-.3-.3h-.3v-2.8l-.3-.3h-.3v-1.9h-.4v-.3l-.3-.3h-2l-.3.3v.3h-.3l-.3.3v2.5s.2.2.3.3h.3v2.8l.3.3h.3v2.8s.2.2.3.3h.3v2.8s.2.2.3.3h.3v2.2s.2.2.3.3h.3v3.8h-.3l-.3.3v.3h-1.3v-.3l-.3-.3h-.3v-.3l-.3-.3h-.3v-2.2s-.2-.2-.3-.3h-.6s-.2.2-.3.3v.3h-.3l-.3.3v.3h-.9l-.3.3v.3h-.3l-.3.3v.3h-1l-.3.3v.3h-.9l-.3.3v.3h-1.6l-.3.3v.3h-1.9v-.3l-.3-.3h-1.6v-.3l-.3-.3h-.3v-.3s-.2-.2-.3-.3h-.3v-.9l-.3-.3h-.3v-4s-.2-.2-.3-.3h-.3v-.3l-.4-.3h-.9v-.3l-.3-.3h-.3v-4.3h.3l.3-.3v-.3h.3l.3-.3v-.3h.9s.2-.2.3-.3v-.3h1.7l.3-.3v-.3h.9l.3-.3v-.3h.9s.2-.2.3-.3c-.1-.1-.2-.2-.3-.3h-2.5s-.2.2-.3.3v.3h-1.6l-.3.3v.3h-2.2l-.3.3v.3h-1.5l-.3.3v.3h-.9l-.3.3v.3h-.3s-.2.2-.3.3v1.9l.3.3h.3v2.1l.3.3h.3v.9l.3.3h.3v1.6l.3.3h.3v1.5l.3.3h.4v.9s.2.2.3.3h.3v2.2l.3.3h.3v1.5l.3.3h.3v1.6l.3.3h.3v1.8h-.3l-.3.3v.3h-1.3v-.3s-.2-.2-.3-.3h-.3v-.3l-.3-.3h-.3v-.9l-.3-.3h-.3v-.9l-.3-.3h-.3v-1.6s-.2-.2-.3-.3h-.4v-1.5l-.3-.3h-.3v-2.2s-.2-.2-.3-.3h-.3v-.9l-.3-.3h-.3v-1.6s-.2-.2-.3-.3h-.3v-1.6s-.2-.2-.3-.3h-.3v-.9s-.2-.2-.3-.3h-.3v-1.5l-.3-.3h-.3v-.3l-.3-.3h-.6l-.3.3v.3h-1s-.2.2-.3.3v.3h-.3l-.3.3v1.2l.3.3h.3v1.6s.2.2.3.3h.3v1.6l.3.3h.3v.9s.2.2.3.3h.3v1.6s.2.2.3.3h.3v.9l.3.3h.3v1.6s.2.2.3.3h.3v.9l.3.3h.3v.9s.2.2.3.3h.3v1.6s.2.2.3.3h.3v2.4h-.3l-.3.3v.3h-1.2v-.3l-.3-.3h-.3v-.3l-.3-.3h-.3v-.9l-.3-.3h-.3v-.9l-.3-.3h-.3v-.3l-.3-.3-.3.3v.3h-.4l-.3.3v.3h-.3l-.3.3v.3h-.4l-.3.3v.9h-.3l-.3.3v.9h-.3l-.3.3v.9h-.3l-.3.3v.9h-.3l-.2.3v.3h-.3s-.2.2-.3.3v.3h-.4l-.3.3v.3h-.7q0,0,0,0Z"/>
  <path class="cls-2" d="M314.2,50.6v-.6h-.6v-.3l-.3-.3h-.3v-.3l-.3-.3h-.3v-2.5h.3l.3-.3v-.3h3.2v.3l.3.3h.9v.3l.3.3h.3v1.9h-.3s-.2.2-.3.3v.3h-.3l-.3.3v.3h-.3l-.3.3v.3h-1.9M314.2,60.6v-.6h-1.3v-.3l-.3-.3h-.3v-.3l-.3-.3h-.3v-.3l-.3-.3h-.3v-2.4h.9l.3-.3v-.3h.9l.3-.3v-.3h.9l.3-.3v-.3h.9l.3-.3v-.3h.9l.3-.3v-.3h.3s.2-.2.3-.3v-.3h.5l.3-.3v-.3h.3l.3-.3v-.4h.3l.3-.3v-.3h.3s.2-.2.3-.3v-2.2h.4v.3l.3.3h1.6v.3l.3.3h.3v.3l.3.3h.3v.6h-.3s-.1.2-.2.4v1.6h-.3l-.3.3v.9h-.3l-.3.3v1.6h-.3l-.3.3v1.5h-.3s-.2.2-.3.3v.9h-.3s-.2.2-.3.3v.9h-.3s-.2.2-.3.3v.3h-.3l-.3.3v.3s-5,0-5,0ZM308.2,53.7s-.2-.2-.3-.3v-.3h.3l.3-.3v-.3h.3l.3-.3-.3-.3h-.3v-.3l-.3-.3h-.9v-.3l-.3-.3h-.3v-.3s-.2-.2-.3-.3h-.3v-1.3h.3s.2-.2.3-.3v-2.2h.3l.3-.3v-1.6h.3s.2-.2.3-.3v-.9h.6v.3s.2.2.3.3h2.2v.6h-.3l-.3.3v.9h-.3l-.3.3v3.8s.2.2.3.3h.3v.9l.3.3h.3v.6h-.3l-.3.3v.3h-.9l-.3.3v.3h-.3l-.3.3v.3h-.3,0ZM290.4,47.6v-.6h-1.8v-.6h-1.3v-.3s-.2-.2-.3-.3h-1.6v-.3l-.3-.3h-.3v-1.8h.3l.3-.3v-2.2h.3l.3-.3v-1.6h.3s.2-.2.3-.3v-.3h1.9v.3s.2.2.3.3h2.8v.3l.3.3h.3v3.7h-.2s-.2.2-.3.3v2.8h-.3s-.2.2-.3.3v.9s-.8,0-.8,0ZM339.3,79.1v-.6h-.6v-1.2h.3l.3-.3v-1.6h.3l.3-.3v-.9h.3s.2-.2.3-.3v-.3h.3s.2-.2.3-.3v-.9h.3s.2-.2.3-.3v-.9h.2l.3-.3v-.3h.3s.2-.2.3-.3v-.9h.3l.3-.3v-.9h.3l.3-.3-.3-.3h-.3v-.3l-.3-.3h-.9v-.3l-.3-.3h-.9v-.3l-.3-.3h-.9v-.3l-.3-.3-.3.3v1.5h-.3l-.3.3v1.6h-.3l-.3.3v.9h-3.2v-.3s-.2-.2-.3-.3h-.9v-.9l-.3-.3h-.3v-4.9h.3l.3-.3v-.9h.3l.3-.3v-.3h.3l.3-.3v-.3h2.6v.3s.2.2.3.3h.9v.3l.3.3h.9v.3l.3.3h1.6v.3s.2.2.3.3h.3v.3l.3.3h.9v.3l.3.3h.3v.3l.3.3h.6s.2-.2.3-.3v-.3h.3s.2-.2.3-.3v-.9h.3l.3-.3v-.3h.3l.3-.3v-1.8l-.3-.3h-.3v-.3l-.3-.3h-.9v-.3l-.3-.3h-.3v-.3l-.3-.3h-.9v-.3l-.3-.3h-1.6v-.3l-.3-.3h-.3v-.3l-.3-.3h-1.5v-.3s-.2-.2-.3-.3h-.9v-.3l-.3-.3h-1.1v-.3l-.3-.3h-1.3l-.3.3v.3h-.3s-.2.2-.3.3v.9h-.3l-.3.3v1.6h-.3l-.3.3v.9h-.3l-.3.3v.9h-.3l-.3.3v.9h-.3l-.3.3v.9h-.3l-.3.3v.9h-.3l-.3.3v.9h-.3l-.3.3v.9h-.4l-.3.3v1.6h-.3l-.3.3v.9h-.3l-.3.3v.3h-.3l-.3.3v.9h-1.9v-.3l-.3-.3h-.3v-1.2h.3l.3-.3v-1.6h.3l.3-.3v-.9h.3s.2-.2.3-.3v-.9h.3l.3-.3v-.9h.3l.3-.3v-.9h.3l.3-.3v-.9h.3l.3-.3v-1.5h.3s.2-.2.3-.3v-.9h.3l.3-.3v-.9h.3l.3-.3v-.9h.3s.2-.2.3-.3v-1.5h.4s.2-.2.3-.3v-1.2l-.3-.3h-1v-.3s-.2-.2-.3-.3h-.3v-.3l-.3-.3h-.9v-.3l-.3-.3h-1.3l-.3.3v.9h-.3l-.3.3v.9h-.3l-.3.3v1.6h-.3l-.3.3v.9h-.3l-.3.3v1.6h-.3s-.2.2-.3.3v.9h-.3l-.3.3v1.5h-.3l-.3.3v1.6h-.3s-.2.2-.3.3v.9h-.3l-.3.3v1.6h-.3s-.2.2-.3.3v1.5h-.3l-.3.3v.3h-1.9v-.3s-.2-.2-.3-.3h-.3v-1.8h.3s.2-.2.3-.3v-1.6h.4l.3-.3v-.6l-.3-.3s-.2.2-.3.3v.3h-3.7v-.3s-.2-.2-.3-.3h-1.6v-.3s-.2-.2-.3-.3h-.3v-.3l-.3-.3h-1v-.3l-.3-.3h-.3v-.3l-.3-.3h-.3v-.9s-.2-.2-.3-.3h-.3v-.9l-.3-.3h-.4v-4s-.2-.2-.3-.3l-.3.3v.3h-.6v-.3s-.2-.2-.3-.3h-.3v-.3l-.3-.3h-.3v-.3l-.3-.3h-.3v-.9l-.3-.3-.3.3v.3h-.3l-.3.3v.3h-1.6s-.2.2-.3.3v.3h-.3l-.3.3.3.3h.3v1.6s.2.2.3.3h.3v1.6l.3.3h.3v1.6l.3.3h.3v1.6s.2.2.3.3h.3v.3l.3.3h.3v1.2h-.9l-.3.3v.3h-.6v-.3l-.3-.3h-1v-.3l-.3-.3h-.3v-.9l-.3-.3h-.3v-1.5l-.3-.3h-.3v-.9l-.3-.3h-.3v-1.6l-.3-.3h-.3v-1.5l-.3-.3h-.3v-1.6l-.3-.3h-.2v-2.1l-.3-.3h-.3v-.9l-.3-.3h-.3v-2.5h.3l.3-.3v-.3h1.9v.3s.2.2.3.3h.9v2.8l.3.3h.9v.3s.2.2.3.3c.1-.1.2-.2.3-.3v-.3h.9s.2-.2.3-.3v-.4h.3s.2-.2.3-.3v-1.6h.3s.2-.2.3-.3v-1.5h.3l.3-.3v-1.8l-.3-.3h-.9v-.3l-.3-.3h-.9v-.3l-.3-.3h-2.8v-.3l-.3-.3h-1.5v-.3l-.3-.3h-.6l-.3.3v.3h-.3l-.3.3v.9h-.3l-.3.3v2.1h-.3l-.3.3v2.8h-.3l-.3.3v2.1h-.3l-.3.3v2.2h-.3s-.2.2-.3.3v2.2h-.2l-.3.3v1.5h-.3s-.2.2-.3.3v1.6h-.3l-.3.3v.9h-1.8v-5h.3l.3-.3v-2.2h.2s.2-.2.3-.3v-1.8s-.2-.2-.3-.3h-.9v-.3l-.3-.3h-2.2v-.3l-.3-.3h-.9v-.3l-.3-.3h-.2v-.3l-.3-.3h-.3v-.3s-.2-.2-.3-.3c-.1.1-.2.2-.3.3v.3h-1.6l-.3.3v1.2l.3.3h.2v.9s.2.2.3.3h.3v.3l.3.3h.3v.3l.3.3h.3v.9s.2.2.3.3h.4v.3l.3.3h.3v.3s.2.2.3.3h.3v.9s.2.2.3.3h.3v.3l.3.3h.3v1.2h-.3l-.3.3v.9h-1.9v-.3l-.3-.3h-.3v-.3l-.3-.3h-.3v-.3l-.3-.3h-.3v-1s-.2-.2-.3-.3h-.4v-.3l-.3-.3h-.3v-.9s-.2-.2-.3-.3h-.3v-.3s-.2-.2-.3-.3h-.3v-.3l-.3-.3h-.3v-.9l-.3-.3h-.3v-.3s-.2-.2-.3-.3h-.3v-.9l-.3-.3h-.3v-.3s-.2-.2-.3-.3h-.3v-.9l-.3-.3h-.3v-.3l-.3-.3h-.3v-.3s-.2-.2-.3-.3h-.3v-2.4h.3s.2-.2.3-.3v-.3h1.3v.3l.3.3h.3v.3s.2.2.3.3h.3v.3l.3.3h2.5s.2-.2.3-.3v-.3h.3s.2-.2.3-.3v-.9h.3s.2-.2.3-.3v-2.2h.3l.3-.3v-2.5l-.3-.3h-.9v-.4l-.3-.3h-3.4v-.3l-.3-.3h-.3v-.3l-.3-.3h-.3v-1.9h4.4v.3l.3.3h3.4v.3l.3.3h2.2v.3l.3.3h2.8v.3l.3.3h2.8v.3l.3.3h1.6v.3l.3.3h2.2v.3l.3.3h2.2v.3s.2.2.3.3h.9v.3l.3.3h2.8v.5l.3.3h2.2v.3l.3.3h1.6v.3l.3.3h1.6v.3l.3.3h1.6v.3l.3.3h1.6v.3l.3.3h1.6v.3l.3.3h1.5v.3s.2.2.3.3h1.6v.3l.3.3h.9v.3l.3.3h1.6v.3s.2.2.3.3h1.6v.3l.3.3h.9v.3l.3.3h.9v.3l.3.3h.9v.3l.3.3h.9v.3s.2.2.3.3h.9v.3s.2.2.3.3h1.6v.3l.3.3h.9v.3l.3.3h1.6v.3l.3.3h.9v.3s.2.2.3.3h1v.3l.3.3h.9v.3l.3.3h.9v.3s.2.2.3.3h.9v.3l.3.3h.9v.3l.3.3h.9v.3l.3.3h.9v.3l.3.3h.9v.3l.3.3h.9v.3l.3.3h.9v.3l.3.3h.9v.3l.3.3h.9v.3l.3.3h.3v.3l.3.3h.9v.3l.3.3h.3v.3l.3.3h.3v2.5h-1.9v-.3l-.3-.3h-.9v-.3l-.3-.3h-.9v-.3s-.2-.2-.3-.3h-.6l-.3.3v.3h-.3s-.2.2-.3.3v.3h-.3l-.3.3v.9h-.3s-.2.2-.3.3v.9h-.3l-.3.3v.9h-.3l-.3.3v.9h-.3s-.2.2-.3.3v.3h-.3l-.3.3v1.6h-.3l-.3.3v.3h-.3s-.2.2-.3.3v.9h-.4l-.3.3v.9h-.3l-.3.3v.3h-.3l-.3.3v.9h-.3l-.3.3v.9h-.4l-.3.3v.9h-.3l-.3.3v.3h-1.8,0Z"/>
  <path class="cls-2" d="M394.4,131.8v-.6h-.6v-1.6s.2-.2.3-.3h.3v.3l.3.3h.3v.3l.3.3h.9v1.2h-1.9M403.8,122.5v-.7h-1.3v-.9s-.2-.2-.3-.3h-.3v-.3l-.3-.3h-.3v-3.1h.3s.2-.2.3-.3v-.3h.3s.2-.1.3-.2v-.3h.3l.3-.3v-.4h.3s.2-.2.3-.3v-.3h.3l.3-.3v-.3h.9l.3-.3v-.3h.3l.3-.3v-.3h.3s.2-.2.3-.3v-.3h.9l.3-.3v-.3h.6v.3l.3.3h.3v.3l.3.3h.3v.9l.3.3h.3v.3l.3.3h.3v.9l.3.3h.3v1.8h-.9l-.3.3v.3h-.3l-.3.3v.3h-.3l-.3.3v.3h-.3l-.3.3v.3h-.9l-.3.3v.3h-.3l-.3.3v.4h-1s-.2.2-.3.3v.3h-.3l-.3.3v.3h-1.2,0ZM367.5,89v-.6h-1.3v-.3l-.3-.3h-.9v-.9s-.2-.2-.3-.3h-.3v-1.2h.3l.3-.3v-.9h.3l.3-.3v-.3h.3s.2-.2.3-.3v-.3h.3l.3-.3v-.3h.3s.2-.2.3-.3v-.3h3.8v.3l.3.3h.3v.3l.3.3h.3v.9l.3.3h.3v2.5h-.3l-.3.3v.3h-.3l-.3.3v.3h-.3s-.2.2-.3.3v.3h-.9l-.3.3v.3h-2.5,0ZM406.3,142.9v-.5h-.6v-3.2h.3l.3-.3v-2.2h.3l.3-.3v-1.6h.3l.4-.3v-1.5h.3l.3-.3v-1.6h.3s.2-.2.3-.3v-2.8h.3s.2-.2.3-.3v-2.8h.3l.3-.3v-.3h2.6v.3l.3.3h.3v4l.3.3h.3v.3s.2.2.3.3h1.3l.3-.3v-.3h.9s.2-.2.3-.3v-.3h.3l.3-.3v-.3h.3s.2-.2.3-.3v-.3h.9s.2-.2.3-.3v-.3h.3l.3-.3-.3-.3h-.9v-.9l-.3-.3h-.6v-.9l-.3-.3h-.3v-.9l-.3-.3h-.3v-.3l-.3-.3h-.3v-.3l-.3-.3h-.3v-.9s-.2-.2-.3-.3h-.3v-.3l-.3-.3h-1.2l-.3.3v.3h-.2l-.3.3v.3h-.3l-.3.3v.4h-.9l-.3.3v.3h-.4l-.3.3v.3h-.9l-.3.3v.3h-.3l-.3.3v.3h-.9l-.3.3v.3h-.3l-.3.3v.3h-.3l-.3.3v.3h-.3s-.2.2-.3.3v.3h-.3l-.3.3v.3h-.9l-.3.3v.3h-.3l-.3.3v.3h-.3l-.3.3v.3h-.3l-.3.3v.2h-.3l-.3.3v.3h-.3s-.2.2-.3.3v2.2h-.2l-.3.3v.9h-.3l-.3.3v.3h-.3l-.3.3v.3h-1.1l-.3.3v.3h-2.5v-.3l-.3-.3h-.9v-.3l-.3-.3h-.3v-.3l-.3-.3h-.2v-.3l-.3-.3h-.3v-.3s-.2-.2-.3-.3h-.3v-1.6l-.3-.3h-.3v-2.2l-.3-.3h-.5v-2.2l-.3-.3h-.3v-3.7h.3s.2-.2.3-.3v-.9h1.3v.3l.3.3h.3v.3l.3.3h.5v3.4l.3.3h.3v2.2l.3.3h.3v.9l.3.3.3-.3v-.9h.3l.3-.3v-.3h4.1l.3-.3v-.3h.3l.3-.3v-.3h.3l.3-.3v-.3h.3l.3-.3v-1.3s-.2-.2-.3-.3h-.3v-.3l-.3-.3h-.3v-.9l-.3-.3h-.3v-.9l-.3-.3h-.3v-4.3h.3l.3-.3v-.3h.3s.2-.2.3-.3v-.9h.9l.3-.3v-.3h.3l.3-.3v-.3h.3l.3-.3v-.3h.3s.2-.2.3-.3v-.3h.3l.3-.3v-.3h.9s.2-.2.3-.3v-.2h.3l.3-.3v-.3h.3l.3-.3v-.3h.3l.3-.3v-.6l-.3-.3h-.3v-.3l-.3-.3h-.4v-.3s-.2-.2-.3-.3l-.3.3v.3h-.3s-.2.2-.3.3v.2h-.3l-.3.3v.3h-.9l-.3.3v.3h-.3s-.2.2-.3.3v.3h-.3l-.3.3v.4h-.3l-.3.3v.3h-.3l-.3.3v.3h-.3l-.3.3v.3h-.9l-.3.3v.3h-.4l-.3.3v.3h-.3l-.3.3v.3h-.3l-.3.3v.3h-.3l-.3.3v.3h-.9l-.3.3v.3h-.3l-.3.3v.3h-.3l-.3.3v.3h-.3l-.3.3v.3h-.3l-.3.3v.2h-.3l-.3.3v.3h-.9l-.3.3v.3h-.6v-.3l-.3-.3h-.3v-.3l-.3-.3h-.3v-1.3h.3l.3-.3v-.3h.3s.2-.2.3-.3v-.3h.3l.2-.2v-.3h.3s.2-.2.3-.3v-.4h.3l.3-.3v-.3h.9s.2-.2.3-.3v-.3h.3l.3-.3v-.3h.3l.3-.3v-.3h.3l.3-.3v-.3h.3l.3-.3v-.3h.3l.3-.3v-.2h.9l.3-.3v-.3h.3l.3-.3v-1.9l-.3-.3h-.3v-.3s-.2-.2-.3-.3h-.3v-.9l-.3-.3h-.3v-.3l-.3-.3h-.3v-.3l-.3-.3h-.3v-.3l-.3-.3h-.3v-.3s-.2-.2-.3-.3l-.3.3v2.7h-.3l-.3.3v1.6h-.3l-.3.3v.3h-.9l-.3.3v.3h-1.3v-.3s-.2-.2-.3-.3h-.9v-.3l-.2-.3h-.3v-.3l-.3-.3h-.3v-6.2h.4l.3-.3v-1.5h.3l.3-.3v-.3h.9l.3-.3v-.3h1.9v.3l.3.3h.8v.3s.2.2.3.3h.3v.3l.3.3h.3v.3l.3.3h.3v.3l.3.3h.3v.3l.3.3h.3v.3l.3.3h.3v.3l.3.3h.3v.3l.3.3h.3v.3l.3.3h.3v.3l.3.3h.3v.4s.2.2.3.3h.3v.3l.3.3h1.3l.3-.3v-.3h.3s.2-.2.3-.3v-.3h.3s.2-.2.3-.3v-.4h.3s.2-.2.3-.3c-.1-.1-.2-.2-.3-.3h-.3v-.3l-.3-.3h-.3v-.9s-.2-.2-.3-.3h-.3v-.3s-.2-.2-.3-.3h-.3v-.3l-.3-.3h-.3v-.3l-.3-.3h-.3v-.3l-.3-.3h-.3v-.9l-.3-.3h-.3v-.3l-.4-.3h-.3v-.3l-.3-.3h-.3v-.3s-.2-.2-.3-.3h-.3v-.3l-.3-.3h-.3v-.3l-.3-.3h-.3v-.3l-.3-.3h-.3v-.3l-.3-.3h-.3v-.3l-.3-.3h-1.3l-.3.3v.3h-.3l-.3.3v.3h-.3l-.3.3v.3h-.3l-.3.3v.3h-.3l-.3.3v.3h-.3s-.2.2-.3.3v.3h-.3l-.3.3v.3h-.3l-.3.3v.3h-.2l-.3.3v.3h-.3l-.3.3v.3h-.3s-.2.2-.3.3v.3h-.3l-.3.3v.3h-.4l-.3.3v.3h-.3s-.2.2-.3.3v.3h-.3l-.3.3v.3h-.3l-.3.3v.3h-.3l-.3.3v.3h-.3l-.3.3v.3h-.3l-.3.3v.3h-.3l-.3.3v.3h-.3s-.2.2-.3.3v.3h-.3l-.3.3v.3h-.3l-.3.3v.3h-1.9v-.9l-.3-.3h-.3v-1.2h.3l.3-.3v-.9h.9s.2-.2.3-.3v-.3h.3l.3-.3v-.3h.3l.3-.3v-.3h.3s.2-.2.3-.3v-.3h.3s.2-.2.3-.3v-.3h.3l.3-.3v-.3h.3s.2-.2.3-.3v-.3h.3l.3-.3v-.3h.3l.3-.3v-.3h.3l.3-.3v-.3h.3l.3-.3v-.3h.3l.3-.3v-.3h.3s.2-.2.3-.3v-.3h.3l.3-.3v-.3h.3s.2-.2.3-.3v-.3h.3s.2-.2.3-.3v-.3h.4l.3-.3v-.3h.3l.3-.3v-.3h.3s.2-.2.3-.3v-.3h.3l.3-.3v-.3h.3l.3-.3v-.6l-.3-.3h-.3v-.3l-.3-.3h-.3v-.3l-.3-.3h-.3v-.3l-.3-.3h-.3v-.3s-.2-.2-.3-.3h-.3v-.3l-.3-.3h-.3v-.3l-.3-.3h-.3v-.3l-.3-.3h-.3v-.3l-.3-.3h-.3v-.3l-.3-.3h-.3v-.3l-.3-.3h-.9v-.3l-.3-.3h-.3v-.3l-.3-.3-.3.3v.3h-.3l-.3.3v.3h-.9s-.2.2-.3.3v.9h-.3l-.3.3.3.3h.9v.3l.3.3h.9v.3l.3.3h.3v.3l.3.3h.3v.3l.3.3h.3v5.6h-.3l-.3.3v.9h-.3l-.3.3v.3h-.3l-.3.3v.9h-.3l-.3.3v.3h-.9l-.3.3v.3h-.3l-.3.3v.3h-.3l-.3.3v.3h-.9s-.2.2-.3.3v.3h-.9l-.3.3v.3h-2.2l-.3.3v.3h-.6v-.3s-.2-.2-.3-.3h-.9v-.9l-.3-.3h-.3v-.6h.3l.3-.3v-.3h1.6l.3-.3v-.3h2.2l.3-.3v-.3h.9l.3-.3v-.3h.3s.2-.2.3-.3v-.3h.3l.3-.3v-.3h.3l.3-.3v-.3h.3s.2-.2.3-.3v-.3h.3s.2-.2.3-.3v-.9h.3s.2-.2.3-.3v-1.2s-.2-.2-.3-.3h-.3v-.9l-.3-.3h-.4v-.3l-.3-.3h-.3v-.3l-.3-.3h-2.6l-.3.3v.3h-.3l-.3.3v.3h-.3l-.3.3v.3h-.2l-.3.3v.3h-.3l-.3.3v.3h-.3l-.3.3v.3h-.3l-.3.3v.9h-.4l-.3.3v.3h-.3l-.3.3v.3h-.3s-.2.2-.3.3v.3h-.3l-.3.3v.3h-.3s-.2.2-.3.3v.9h-2.6v-2.6h.3s.2-.2.3-.3v-.9h.3l.3-.3v-.3h.3l.3-.3v-.3h.3l.3-.3-.3-.3h-2v-.3l-.3-.3h-.9v-.3l-.3-.3h-.3v-.3l-.3-.3h-.4v-.3s-.2-.2-.3-.3h-.3v-.3l-.3-.3h-.3v-.9s-.2-.2-.3-.3h-.3v-3.6h.3s.2-.2.3-.3v-.9h.3l.3-.3v-.3h.3s.2-.2.3-.3v-.3h.3l.3-.3v-.3h.3l.3-.3v-.3h.9l.3-.3v-.3h.9l.3-.3v-.3h3.1v.3l.3.3h1.6v.3s.2.2.3.3h.9v.3l.3.3h.3v.3l.3.3h.3v.3l.3.3h.3v1.6s.2.2.3.3c.1-.1.2-.2.3-.3v-.3h.3l.3-.3v-.3h.3s.2-.2.3-.3v-.3h.3l.3-.3v-.6l-.3-.3h-.3v-.3s-.2-.2-.3-.3h-.3v-.3s-.2-.2-.3-.3h-.3v-.3s-.2-.2-.3-.3h-.3v-.3l-.3-.3h-.9v-.3l-.3-.3h-.3v-.3l-.3-.3h-.3v-.3l-.3-.3h-.3v-.3l-.3-.3h-.3v-.3l-.3-.3h-.3v-1.2h.4l.3-.3v-.3h1.3v.3l.3.3h.9v.3l.3.3h.3v.3l.3.3h.3v.3s.2.2.3.3h.9v.3l.3.3h.3v.3l.3.3h.3v.3l.3.3h.3v.3s.2.2.3.3h.9v.3l.3.3h.3v.3l.3.3h.9v.3s.2.2.3.3h.3v.3l.3.3h.3v.3l.3.3h.3v.3l.3.3h.3v.3l.3.3h.3v.3l.3.3h.9v.3l.3.3h.3v.3l.3.3h.3v.3s.2.2.3.3h.3v.3l.3.3h.3v.3l.3.3h.3v.3s.2.2.3.3h.3v.3l.3.3h.3v.3l.3.3h.3v.3l.3.3h.3v.3l.3.3h.5v.3l.3.3h.9v.3l.3.3h.3v.3s.2.2.3.3h.3v.3l.3.3h.3v.9l.3.3h.3v.3s.2.2.3.3h.3v.3l.3.3h.3v.3l.3.3h.3v.3l.3.3h.3v.3l.3.3h.3v.3l.3.3h.3v.3l.3.3h.3v.3l.3.3h.3v.3l.3.3h.3v.3l.3.3h.3v.3l.3.3h.3v.9l.3.3h.3v.3l.3.3h.3v.3s.2.2.3.3h.3v.3l.3.3h.3v.3l.3.3h.3v.3s.2.2.3.3h.3v.3l.3.3h.3v.3l.3.3h.4v.9l.3.3h.3v.3s.2.2.3.3h.3v.3l.3.3h.3v.9l.3.3h.3v.3l.3.3h.3v.3l.3.3h.3v.3l.3.3h.3v.3s.2.2.3.3h.3v.9l.3.3h.3v.3l.3.3h.3v.3l.3.3h.3v.9l.3.3h.3v.3l.3.3h.3v.4l.3.3h.3v.3s.2.2.3.3h.3v.9l.3.3h.3v.3s.2.2.3.3h.2v.3l.3.3h.3v.9l.3.3h.3v.3l.3.3h.3v.9s.2.2.3.3h.5v.3l.3.3h.3v.3l.3.3h.3v.9l.3.3h.3v.3l.3.3h.3v.9l.3.3h.3v.3l.3.3h.3v.9l.3.3h.3v.3l.3.3h.3v.9s.2.2.3.3h.3v.9l.3.3h.3v1.2h-.3l-.3.3v.3h-1.9v-.3s-.2-.2-.3-.3h-.3v-.3l-.3-.3h-.3v-.9s-.2-.2-.3-.3h-.3v-.9l-.3-.3h-.9v-.3l-.3-.3-.3.3v.3h-.3l-.3.3v.3h-.9l-.3.3v.3h-.3l-.3.3v.3h-.9l-.3.3v.3h-.3l-.3.3v.3h-3.8v-.3l-.3-.3h-.6l-.3.3v.9h-.3l-.3.3v2.2h-.5l-.3.3v1.6h-.3l-.3.3v2.2h-.3l-.3.3v1.6h-.3s-.2.2-.3.3v.3h-1.8c0-.1,0-.1,0-.1Z"/>
  <path class="cls-2" d="M31,279v-.6h-1.9v-.6h-1.3v-.3l-.3-.3h-.3v-.8l-.3-.3h-.2v-1.6l-.3-.3h-.3v-3.1h1.6l.3-.3v-.3h4l.3-.3v-.3h4l.3-.3v-.3h4.4v6.2h-.3l-.3.3v.3h-.3l-.3.3v.3h-.3l-.3.3v.3h-.9l-.3.3v.3h-1l-.3.3v.3h-2l-.3.3v.2h-3.2M29.2,282.1v-.5h-1.3v-.3l-.3-.3h-1v-.3l-.3-.3h-.3v-.3l-.3-.3h-.9v-.3s-.2-.2-.3-.3h-.5v-.9l-.3-.3h-.3v-1.6l-.3-.3h-.3v-4l-.3-.3h-.3v-3.2h.3s.2-.2.3-.3v-.3h4l.3-.3v-.3h3.4s.2-.2.3-.3v-.3h4.7s.2-.2.3-.3v-.3h4.7l.3-.3v-.3h1.2v.4l.3.3h.9v2.2l.3.3h.3v6.8h-.3s-.2.2-.3.3v1.6h-.3l-.3.3v.3h-.3s-.2.2-.3.3v.3h-.3l-.3.3v.2h-.3l-.3.3v.3h-.3l-.3.3v.3h-.9l-.3.3v.3h-.9l-.3.3v.4h-1.6l-.3.3v.3h-6.7q0-.1,0-.1Z"/>
  <path class="cls-2" d="M37.2,305.1v-1.9h-.6v-1.9h-.6v-1.8h9.4v.6h-.6v.6h-.6v.6h-.6v.6h-.6v.8h-1.3v.6h-.6v.6h-1.2v.6h-.6v.6h-2M32.2,313v-.6h-.6v-.3l-.3-.3h-.3v-1.3h.3l.3-.3v-.9h.9l.3-.3v-.3h.3l.3-.3v-.3h.3l.3-.3v-.3h.5l.3-.3v-1.2l-.3-.3h-.3v-.9l-.3-.3h-.4v-2.2s-.2-.2-.3-.3h-.3v-.9l-.3-.3h-.3v-.9l-.3-.3h-2.2v-.3l-.3-.3h-1.6v-.3l-.3-.3h-.3v-1.9h.3l.3-.3v-.3h12v.3s.2.2.3.3h9.1v.3l.3.3h.3v.9s.2.2.3.3h.2v2.4h-.3s-.2.2-.3.3v.3h-.3l-.3.3v.3h-.3s-.2.2-.3.3v.5h-.3s-.2.2-.3.3v.3h-.9l-.3.3v.3h-.3s-.2.2-.3.3v.3h-.9l-.3.3v.3h-.3s-.2.2-.3.3v.3h-.9l-.3.3v.3h-.3l-.3.3v.3h-.9l-.3.3v.3h-.3s-.2.2-.3.3v.3h-.3s-.2.2-.3.3v.3h-.9l-.3.3v.3h-.3l-.3.3v.3h-.9l-.3.3h0c0,.1-.3.1-.3.1l-.3.3v.3h-.3l-.3.3v.3h-.8l-.3.3v.3h-.3l-.3.3v.5h-1.4q0-.1,0-.1Z"/>
  <path class="cls-2" d="M198.3,456.7v-.6h-.6v-.3l-.3-.3h-.3v-.4l-.3-.3h-.3v-.9l-.3-.3h-.3v-1.6l-.3-.3h-.3v-3.7h.3l.3-.3v-1.6h.3l.3-.3v-.9h.3s.2-.2.3-.3v-.9h.4l.3-.3v-.3h.3s.2-.2.3-.3v-.3h.3l.3-.3h0c0-.1,1.6-.1,1.6-.1,0,0,.2-.2.3-.3v-.3h2.6v.3s.2.2.3.3h.9v.3s.2.2.3.3h.3v.3l.3.3h.3v.9s.2.2.3.3h.3v.9s.2.2.3.3h.3v5.6h-.3s-.2.2-.3.3v1.6h-.3l-.3.3v.3h-.7l-.3.3v.3h-.3l-.3.3v.3h-.3l-.3.3v.3h-.3l-.3.3v.3h-.2l-.3.3v.3h-4.4M197.6,459.9v-.6h-1.3v-.3l-.3-.3h-.9v-.3l-.3-.3h-.3v-.3l-.3-.3h-.3v-.3s-.2-.2-.3-.3h-.3v-.3l-.3-.3h-.3v-.6h.3l.3-.3-.3-.3h-.3v-1.6l-.3-.3h-.3v-5.6h.3s.2-.2.3-.3v-2.2h.3l.3-.3v-.9h.3s.2-.2.3-.3v-.9h.3l.3-.3v-.9h.3l.3-.3v-.3h.9l.3-.3v-.3h.3l.3-.3v-.5h.9s.2-.2.3-.3v-.3h.9l.3-.3v-.3h3.8v.3s.2.2.3.3h1.5v.3l.2.3h.9v.3s.2.2.3.3h.3v.3l.3.3h.3v.9c.2.1.3.3.4.5h.3v.3l.3.3h.3v.9l.3.3h.3v.8l.3.3h.3v7.6h-.3l-.3.3v.9h-.3l-.3.3v.9h-.3l-.3.3v.3h-.3l-.3.3v.9h-.3l-.3.3v.3h-.3l-.3.3v.3h-.3l-.3.3v.3h-.9l-.3.3v.3h-.9l-.3.3v.3h-5.7Z"/>
  <path class="cls-2" d="M353,428.2v-.6h-.5v-.3l-.3-.3h-.9v-.3l-.3-.3h-.3v-.2l-.3-.3h-.4v-.3l-.3-.3h-.3v-.3s-.2-.2-.3-.3h-.3v-1.1l-.3-.3h-.3v-.3l-.3-.3h-.3v-1.6l-.3-.3h-.3v-3.1h.3l.3-.3v-1.6h.3l.3-.3v-.3h.3l.3-.3v-.3h.3l.3-.3v-.3h5v.3l.3.3h.9v.3l.3.3h.3v.4l.3.3h.3v.3l.3.3h.3v.3l.3.3h.3v.9s.2.2.3.3h.3v.9l.3.3h.3v1.6l.3.3h.3v4.3h-.3l-.3.3v.3h-.3l-.3.3v.9h-.9l-.3.3v.3h-4.4M352.5,431.4v-.6h-1.2v-.3l-.3-.3h-1.1v-.3l-.3-.3h-.3v-.3l-.3-.3h-.3v-.3l-.3-.3h-.3v-.3l-.3-.3h-.3v-.3l-.3-.3h-.3v-.3l-.3-.3h-.3v-.9s-.2-.2-.3-.3h-.3v-.9l-.3-.3h-.3v-.9l-.3-.3h-.3v-1.6l-.3-.3h-.3v-3.1h.3l.3-.3v-2.2h.4l.3-.3v-.9h.3l.3-.3v-.3h.3s.2-.2.3-.3v-.3h.3l.3-.3v-.3h.3l.3-.3v-.3h.9l.3-.3v-.3h1.6l.3-.3v-.3h1.9v.3l.3.3h2.2v.3l.3.3h.9v.3s.2.2.3.3h.9v.3l.3.3h.3v.2l.3.3h.3v.3l.3.3h.3v.3l.3.3h.3v.3l.3.3h.3v.9l.3.3h.3v.3l.3.3h.3v1.5l.3.3h.3v2.2l.3.3h.3v3.7h-.3l-.3.3v1.6h-.3l-.3.3v.9h-.3l-.3.3v.3h-.3l-.3.3v.3h-.3l-.3.3v.3h-.3l-.3.3v.3h-1.7l-.3.3v.4h-4.9Z"/>
  <path class="cls-2" d="M384.4,404.7v-.6h-1.9v-.6h-1.3v-.3l-.3-.3h-.3v-.3l-.3-.3h-.3v-.3s-.2-.2-.3-.3h-.3v-.3l-.3-.3h-.3v-.3s-.2-.2-.3-.3h-.3v-.9l-.3-.3h-.3v-.9l-.3-.3h-.3v-4.3h.3l.3-.3v-.9h.3l.3-.3v-.3h.3l.3-.3v-.3h5.6v.3l.3.3h.9v.3l.3.3h.3v.3s.2.2.3.3h.3v.3l.3.3h.3v.3l.3.3h.3v.4l.3.3h.3v.3s.2.2.3.3h.2v.9l.3.3h.3v1.6l.3.3h.3v3.1h-.3l-.3.3v.9h-.3l-.3.3v.3h-.3l-.3.3v.3h-.3l-.3.3v.3h-3.8M382.4,407.9v-.6h-1.3v-.3l-.3-.3h-.9v-.3s-.2-.2-.3-.3h-.3v-.3l-.3-.3h-.2v-.3l-.3-.3h-.3v-.3l-.3-.3h-.3v-.3l-.3-.3h-.3v-.3s-.2-.2-.3-.3h-.4v-.9l-.3-.3h-.3v-.3l-.3-.3h-.3v-1.5l-.3-.3h-.3v-1.6s-.2-.2-.3-.3h-.3v-3.1h.3s.2-.2.3-.3v-1.6h.3l.3-.3v-.9h.3l.3-.3v-.9h.3l.3-.3v-.3h.9l.3-.3v-.3h1s.2-.2.3-.3v-.3h6.3v.3l.3.3h.9v.3l.3.3h.9v.3s.2.2.3.3h.3v.3l.3.3h.3v.3l.3.3h.3v.3l.3.3h.3v.2l.3.3h.3v.3l.3.3h.3v.3l.3.3h.5v1.1l.3.3h.3v.9l.3.3h.3v1.6l.3.3h.3v4.3h-.3l-.3.3v.9h-.3l-.3.3v.9h-.3l-.3.3v.9h-.3l-.3.3v.3h-.9l-.3.3v.3h-.3l-.3.3v.2h-7.1q0,.1,0,.1Z"/>
  <path class="cls-2" d="M437.6,323.7v-.6h-.6v-.3l-.3-.3h-.3v-.3s-.2-.2-.3-.3h-.3v-.3l-.3-.3h-.3v-.3l-.3-.3h-.3v-.3s-.2-.2-.3-.3h-.9v-.3l-.3-.3h-.3v-1.9h8.8v2.5h-.3l-.3.3v.8h-.3l-.3.3v1.5h-.3l-.3.3v.5h-1.9M442.6,331.8v-.6h-.6v-.3l-.3-.3h-.3v-.3l-.3-.3h-.3v-.3l-.3-.3h-.9v-.3l-.3-.3h-.3v-.3l-.3-.3h-.3v-.3l-.3-.3h-.3v-.3l-.3-.3h-.3v-.5l-.3-.3h-.3v-.3s-.2-.2-.3-.3h-.9v-.9l-.3-.3h-.9v-.3l-.3-.3h-.3v-.3l-.3-.3h-.3v-.3l-.3-.3h-.3v-.3l-.3-.3h-.4v-.3l-.3-.3h-.3v-.3s-.2-.2-.3-.3h-.9v-.3s-.2-.2-.3-.3h-.3v-.3l-.3-.3h-.3v-.3l-.3-.3h-.3v-.9l-.3-.3h-.3v-1.2h.3l.3-.3v-.9h.3s.2-.2.3-.3v-.9h6.3v.3l.3.3h10.3v.3l.3.3h4.7v.3l.3.3h.3v1.3h-.3l-.3.3v.3h-.4l-.3.3v.3h-4.7s-.2.2-.3.3v1.6h-.3l-.3.3v.9h-.3l-.3.3v1.5h-.3l-.3.3v2.2h-.3l-.3.3v1.2l.3.3h.3v.3l.3.3h.9v.3l.3.3h.4v.9l.3.3h.3v1.3h-.3l-.3.3v.3l-1.9.2h0Z"/>
  <path class="cls-2" d="M442.6,284.6v-.6h-1.8v-3.1h.6v-2.6h.6v-1.2h.6v-.6h.7v-.6h1.9v.6h.6v.6h1.3v4.9h-.6v2.5h-3.8M455.2,290v-.5h-4.4v-.6h-1.9v-.6h-3.7v-.6h-3.8v-.6h-3.8v-1.3h-.6v-4.2h.6v-3.1h.6v-1.2h.6v-1.9h.6v-.6h.6v-.6h.6v-.6h1.2v-.6h6.9v1.2h.6v.6h.6v1.9h.6v4.3h-.6v3.1h-.6v.6h.6v.6h1.9v.6h1.9v.6h3.7v.6h.6v1.9h-.6v.4h-.6v.6h-1.8c0-.1,0-.1,0-.1Z"/>
  <path class="cls-2" d="M443.9,247.5v-8.6h.6v-.6h3.7v.6h.6v.6h.6v8.1h-5.6M441.4,250.5v-1.2h-.6v-10.5h.3s.2-.2.3-.3v-.9h.5s.2-.2.3-.3v-.9h.3s.2-.2.3-.3v-.3h1l.3-.3v-.3h.9s.2-.2.3-.3v-.3h3.1v.3l.3.3h.9v.3l.3.3h.3v.3l.3.3h.3v.3l.3.3h.3v.3s.2.2.3.3h.3v.3l.3.3h.6s.2-.2.3-.3v-.3h1.6l.3-.3v-.3h1.6s.2-.2.3-.3v-.3h.9l.3-.3v-.3h.9l.3-.3v-.3h.9l.3-.3v-.3h2.6v.3l.3.3h.3v1.9h-.3s-.2.2-.3.3v.3h-1l-.3.3v.3h-1.6s-.2.2-.3.3v.3h-1.5l-.3.3v.3h-.9l-.3.3v.3h-.9s-.2.2-.3.3v.3h-1l-.3.3v.3h-.9l-.3.3v.3h-.3s-.2.2-.3.3v4.9l.3.3h9.1v.3l.3.3h.3v2h-.3l-.3.3v.3h-20.9q0-.1,0-.1Z"/>
  <path class="cls-2" d="M237.1,227.7v-3.1h.6v-3.1h.6v-2.6h.6v-1.9h.5v-1.8h.6v-1.9h.6v-1.2h.6v-1.8h.7v-1.9h.6v-1.9h.6v-.6h.6v1.3h.6v1.9h.6v1.2h.7v1.8h.6v1.9h.7v1.3h.6v1.8h.6v2.6h.6v3.1h.6v4.4h-.6v-1.2h-1.3v-.6h-1.3v-.6h-5.6v.6h-1.4v.6h-1.2v.6h-.6v1.2h-.6M242.7,255.5v-.6h-.5v-1.6l-.3-.3h-.3v-.9l-.3-.3h-.3v-.9l-.3-.3h-.3v-.9l-.3-.3h-.4v-1.6l-.3-.3h-.2v-1.6s-.2-.2-.3-.3h-.3v-2.1s-.2-.2-.3-.3h-.3v-2.2s-.2-.2-.3-.3h-.3v-3.1h.6v.9l.3.3h.9v.3s.2.2.3.3h.9v.3l.3.3h5l.3-.3v-.3h.9s.2-.2.3-.3v-.3h.9l.3-.3v-.3h.3l.3-.3v-.3h.6v2.4h-.3l-.3.3v2.2h-.3l-.3.3v1.6h-.3l-.3.3v1.5h-.4s-.2.2-.3.3v.9h-.3l-.3.3v1.6h-.3l-.3.3v.9h-.3l-.3.3v.3h-.3l-.3.3v1.6h-.3l-.3.3v.9h-.3l-.3.3v.9h-.7,0ZM241.5,260.6v-.6h-.6v-.3l-.3-.3h-.3v-.3l-.3-.3h-.4v-3.4l-.3-.3h-.2v-.9s-.2-.2-.3-.3h-.3v-1.1l-.3-.3h-.3v-.9s-.2-.2-.3-.3h-.3v-.9l-.2-.2h-.3v-.9l-.3-.3h-.3v-.9l-.3-.3h-.3v-.9l-.3-.3h-.3v-1.5l-.3-.3h-.3v-.9l-.3-.3h-.3v-2.2s-.2-.2-.3-.3h-.3v-2.2l-.3-.3h-.3v-4.8l-.3-.3h-.3v-3.7h.3l.3-.3v-5.3h.3l.3-.3v-2.2h.3s.2-.2.3-.3v-1.6h.3l.3-.3v-1.6h.2l.3-.3v-1.5h.3l.3-.3v-.9h.3l.3-.3v-.9h.3l.3-.3v-.9h.4l.3-.3v-.9h.3l.3-.3v-.9h.3l.3-.3v-1.6h.3l.3-.3v-.9h.3l.3-.3v-1.5h.3l.3-.3v-1.7h.3l.3-.3v-2.2h.3l.3-.3v-2.2h.3l.2-.3v-2.6h.3l.3-.3v-5.3h.3l.3-.3v-.3h.3l.3-.3v-.4h.6v.3l.3.3h.3v7.7l.3.3h.3v2.8l.3.3h.3v2.2l.3.3h.3v2.2l.3.3h.3v1.5s.2.2.3.3h.3v.9l.3.3h.3v1.6l.3.3h.3v.9l.3.3h.3v.9l.3.3h.3v.9s.2.2.3.3h.3v1.6l.3.3h.3v.9l.3.3h.3v1.5l.3.3h.3v1.6l.3.3h.3v2.6l.3.3h.3v13.7h-.3l-.3.3v2.6h-.3l-.3.3v1.6h-.3l-.3.3v1.6h-.3l-.3.3v1.5h-.3l-.3.3v.9h-.3l-.3.3v.9h-.3l-.3.3v.9h-.2l-.3.3v.6h-.3l-.3.3v.9h-.3l-.3.3v.9h-.3l-.3.3v.9h-.4l-.3.3v.9h-.3l-.3.3v1.5h-.3l-.3.3v2.2h-.3l-.3.3v.3h-.3l-.3.3v.3h-3Z"/>
  <path class="cls-2" d="M195.8,277.2v-.6h-1.3v-.2l-.3-.3h-.9v-.3l-.3-.3h-.9v-.3l-.3-.3h-.3v-.3l-.3-.3h-.9v-.4l-.3-.3h-.2v-.3l-.3-.3h-.3v-.3s-.2-.2-.3-.3h-.3v-.3l-.3-.3h-.3v-.3l-.3-.3h-.5v-.3l-.3-.3h-.3v-.9l-.3-.3h-.3v-.3l-.3-.3h-.3v-.3l-.3-.3h-.3v-.9l-.3-.3h-.3v-1.2h.6v.4l.3.3h.3v.3l.3.3h3.1l.3-.3v-.3h.9l.3-.3v-.3h.3s.2-.2.3-.3v-.3h1.3v.9l.3.3h.3v1.5l.3.3h.3v.9l.3.3h.3v.9l.3.3h.3v.9l.3.3h.3v.9s.2.2.3.3h.3v.8l.3.3h.3v.9l.3.3h.3v.3l.3.3h.3v1.2h-1.9M182.6,259.2v-.6h.3l.3-.3v-3.4h.3l.3-.3v-1.6h.3l.3-.3v-1.6h.3l.3-.3v-1.5h.3l.3-.3v-.3h.3l.3-.3v-.9h.3l.3-.3v-.3h.3l.3-.3v-.9h.3s.2-.2.3-.3v-.3h.3s.2-.2.3-.3v-.3h.3l.3-.3v-.3h.3l.3-.3v-.3h.3s.2-.2.3-.3v-.3h.3l.3-.3v-.3h.3l.3-.3v-.3h.3l.3-.3v-.3h1.2v1.2h-.3l-.3.3v1.6h-.3l-.3.3v1.5h-.3l-.3.3v1.6h-.3l-.3.3v2.6h-.3l-.3.3v7.8h-.6v-.9l-.3-.3h-.9v-.3s-.2-.2-.3-.3h-2.5l-.3.3v.3h-1.6l-.3.3v.9h-.3l-.3.3v.3h-.6q0,.1,0,.1ZM194.5,280.2v-.6h-1.2v-.3l-.3-.3h-.9v-.3l-.3-.3h-.9v-.3l-.3-.3h-.9v-.3l-.3-.3h-.9v-.3s-.2-.2-.3-.3h-.3v-.2l-.3-.3h-.9v-.3l-.3-.3h-.3v-.3l-.3-.3h-.4v-.3l-.3-.3h-.3v-.4l-.3-.3h-.9v-.3l-.3-.3h-.3v-.3s-.2-.2-.3-.3h-.3v-.9l-.3-.2h-.3v-.3s-.2-.2-.3-.3h-.3v-.9l-.3-.3h-.3v-.9s-.2-.2-.3-.3h-.3v-1.5l-.3-.3h-.3v-1.6l-.3-.3h-.3v-8.6h.3l.3-.3v-2.2h.2l.3-.3v-1.6h.3l.3-.3v-.9h.3l.3-.3v-.9h.3l.3-.3v-.3h.4l.3-.3v-.9h.3l.3-.3v-.3h.3l.3-.3v-.3h.3l.3-.3v-.3h.3l.3-.3v-.3h.3l.3-.3v-.3h.3l.3-.3v-.3h.3l.3-.3v-.3h.3l.2-.4v-.3h.3s.2-.2.3-.3v-.3h.3s.2-.2.3-.3v-.3h.3l.3-.3v-.3h.3l.3-.3v-.3h.3l.3-.3v-.3h.3l.3-.3v-.3h.3s.2-.2.3-.3v-.3h.3s.2-.2.3-.3v-.9h.3l.3-.3v-.3h.3l.3-.3v-.3h.3s.2-.2.3-.3v-.9h.3l.3-.3v-2.5l-.3-.3h-.3v-1.6s-.2-.2-.3-.3h-.3v-.3s-.2-.2-.3-.3h-.3v-.3s-.2-.2-.3-.3h-.3v-1.2h1.8v.3l.3.3h.3v.3l.3.3h.9v.3s.2.2.3.3h.3v.9l.3.3h.3v.9l.3.3h.3v1.6l.3.3h.3v7.4h-.3l-.3.3v2.2h-.1l-.3.3v2.1h-.3l-.3.3v2.8h-.3l-.3.3v5.3h-.3l-.3.3v7.4s.2.2.3.3h.3v2.8l.3.3h.3v2.8l.3.3h.3v2.2l.3.3h.3v.9l.3.3h.3v.3l.3.3h.3v.9l.3.3h.3v.9l.3.3h.1v.9l.3.3h.3v2.4h-.3l-.3.3v.3h-.3l-.3.3v.3h-.3l-.3.3v.3h-4.4Z"/>
  <path class="cls-2" d="M288.5,278.4v-1.2h.6v-1.2h.3s.2-.2.3-.3v-.9h.3l.3-.3v-.9h.3l.3-.3v-.9h.3l.3-.3v-.8h.5l.3-.3v-.9h.3l.3-.3v-1.1h.3l.3-.3v-1.5h.3l.3-.3v-1.6h.4v.3l.3.3h.3v.9l.3.3h.9v.3s.2.2.3.3h3.8s.2-.2.3-.3v-.3h1.3v1.2h-1l-.3.3v.9h-.3l-.3.3v.9h-.9l-.3.3v.9h-.3l-.3.3v.3h-.3l-.3.3v.3h-.3l-.3.3v.3h-.3l-.3.3v.3h-.9l-.3.3v.3h-.3l-.3.3v.3h-.3l-.3.3v.3h-1l-.3.3v.3h-.7s-.2.2-.3.3v.3h-.3l-.3.3v.3h-.3l-.3.3v.3h-1.8M303.1,260.5v-1.2h-.6v-.3l-.3-.3h-.9v-.3l-.3-.3h-3.2l-.3.3v.3h-.3l-.3.3v.3h-.3l-.3.3v.3h-.6v-1.3h.3l.3-.3v-6.2l-.3-.3h-.3v-3.4s-.2-.2-.3-.3h-.6v-2.2l-.3-.3h-.3v-1.5l-.3-.3h-.3v-3.1h.7v.3l.3.3h.3v.3s.2.2.3.3h.3v.3l.3.3h.3v.9l.3.3h.3v.3l.3.3h.5v.4s.2.2.3.3h.3v.3l.3.3h.3v.9l.3.3h.3v.3l.3.3h.3v.3l.3.3h.3v.9l.3.3h.3v.9s.2.2.3.3h.3v1.6l.3.3h.3v2.8l.3.3h.3v1.5l.3.3h.3v3.1h-.6q0-.1,0-.1ZM289.9,282.1v-.5h-2.5v-.6h-1.3v-1.3h-.6v-3.7h.6v-.6h.6v-1.2h.6v-1.3h.6v-1.2h.6v-2.6h.6v-2.4h.6v-2.6h.6v-3.1h.6v-10.9h-.6v-5h-.6v-3.2h-.6v-4.3h-.6v-3.8h.6v-1.8h.6v-1.3h.6v-1.2h.6v-.6h.6v-.6h1.3v-.6h1.3v-.6h2.5v1.8h-1.3v.6h-.9v.6h-.6v1.3h-.7v1.9h.7v1.8h.6v.6h.6v1.3h.6v.6h.6v.6h.8v.6h.6v1.2h.6v.6h.6v.6h.6v.6h.6v.6h.6v.6h.6v.6h.7v.6h.6v.6h.6v.6h.6v1.2h.6v.6h.6v1.3h.6v1.4h.6v1.2h.6v1.2h.5v2.6h.6v8.6h-.6v2.5h-.6v1.2h-.6v1.9h-.6v.6h-.6v1.1h-.6v.6h-.6v1.2h-.6v.6h-.6v.6h-.6v.6h-.7v.6h-.6v.6h-.6v.6h-.6v.6h-1.3v.6h-.6v.6h-1.3v.5h-1.3v.6h-1.2v.6h-1.3v.6h-1.3v.8h-1.3v.6h-.4q0-.1,0-.1Z"/>
  <path class="cls-2" d="M49.3,171.5c5.7,0,10.4,4.6,10.4,10.4s-4.6,10.4-10.4,10.4-10.4-4.6-10.4-10.4h0c0-5.8,4.6-10.4,10.3-10.4h0"/>
  <path class="cls-2" d="M440.8,174.7c5.7,0,10.4,4.6,10.4,10.4s-4.6,10.4-10.4,10.4-10.4-4.6-10.4-10.4,4.6-10.4,10.4-10.4h0"/>
  <rect class="cls-1" y="0" width="484.3" height="484.3"/>
</svg>