<?xml version="1.0" encoding="UTF-8"?>
<svg id="Layer_1" data-name="Layer 1" xmlns="http://www.w3.org/2000/svg" version="1.1" viewBox="0 0 546.1 561.3">
  <defs>
    <style>
      .cls-1 {
        fill: #fff;
        stroke-width: 0px;
      }
    </style>
  </defs>
  <g id="g282">
    <path id="path152" class="cls-1" d="M269.8,9.6c-.9.5-1.9,1-2.9,1.3-1.3.4-2.5,1-3.6,1.7-2,1.6-3.6,3.5-4.9,5.6-2.1,3.7-2.7,8.1-1.6,12.2.2,1,.3,2.1.3,3.2-1.2.1-2.4.2-3.6.2h-3.5l.2-2.3c.6-2.6.4-5.4-.7-7.9-2.7-6.9-9.6-11.4-17-10.9-1.6,0-3.2.3-4.8.9-4.2,1.6-7.7,4.8-9.7,8.8l-1.1,2.3v9.3l1.2,2.5c.4.9.8,1.7,1.1,2.6-2.5.7-5,1.2-7.6,1.6-.2-1-.3-2.1-.3-3.2,0-4.1-1.8-8.1-5-10.8-3-3.2-7.3-5-11.7-5-4.6,0-9,2-12.1,5.4-1.5,1.3-2.7,2.9-3.5,4.7l-1.2,2.4v4.4c0,4.2,0,4.4.7,5.9.5,1.1,1.1,2.2,1.7,3.2l1.3,1.9c0,.2-.8.8-2.7,1.7-4.1,1.9-3.8,1.9-4.1,0-.3-1.2-.7-2.4-1.2-3.6-2-4.7-5.9-8.3-10.8-9.8-3.1-.6-6.2-.6-9.3,0-5.5,1.3-9.9,5.3-11.7,10.7-.5,2-.7,4.1-.5,6.1-.4,3.7.9,7.5,3.5,10.2.8.9,1.5,1.9,2,3-.9.6-1.7,1.1-2.6,1.6l-3.2,1.8c-.5.4-.6.3-.9-1-2.2-6.7-8.2-11.5-15.3-12.1-2.9-.3-5.8.3-8.3,1.7-4.1,1.9-7.2,5.3-8.9,9.5-.5,1.6-.8,3.3-.6,5-.4,5.4,2,10.7,6.3,13.9.6.4,1.1.8,1.6,1.3,0,0-1.1,1.3-2.5,2.8l-2.5,2.7-2.3-3.2c-1.6-2.7-3.8-4.9-6.5-6.3-2.8-1.3-5.9-1.7-8.9-1.3-1.9-.2-3.8.2-5.6,1.1-3,1.6-5.4,3.9-7.1,6.7l-2.4,3.2-.3,2.7c-.6,3.4-.2,6.9,1.1,10.1,1.6,3,4,5.5,6.9,7.3,2.2,1.4,2.4,1.7,2.1,2l-2.5,2.9-2.1,2.5-1.3-1.6c-1.9-2.2-4.2-4.1-6.8-5.5-1.8-.9-1.8-.9-6.1-1-2-.3-4.1,0-6.1.5-5.4,2.2-9.6,6.8-11.2,12.4-.5,2.4-.5,5,0,7.4.4,1.3.9,2.6,1.5,3.8.8,1.8,1.9,3.4,3.3,4.7,1.9,2.1,4.4,3.5,7.1,4.2.3,0,.7.1,1,.3,0,0-.9,1.6-1.9,3.4l-1.8,3.2-2.4-2c-1.3-1-2.7-2-4.2-2.8-1.7-.8-1.9-.9-6.2-1-2.1-.3-4.3,0-6.3.5-5.4,1.7-9.4,6.1-10.7,11.6-.7,3.1-.7,6.4,0,9.5,1.6,5.1,5.6,9.2,10.6,10.8,1,.3,2.1.6,3.2.7.6,0,1.1,0,1.1.2-.7,2.4-1.6,4.8-2.8,7-1-.4-2-.9-2.9-1.6-1.1-.7-2.2-1.3-3.4-1.8-1.8,0-3.6,0-5.5,0h-4.6l-2.1,1c-4.3,2.3-7.7,6.1-9.5,10.7-1,4.1-.4,8.3,1.5,12,1.1,2.5,3,4.6,5.3,6.1l2.9,2.1c.9.7,1.3.8,4.7,1.1l3.9.4c-.1,1.2-.3,2.3-.6,3.5-.7,3-.9,3.4-1.3,3.4-1-.2-2-.5-3-1l-2.4-1h-8.6l-2.3,1.2c-5.6,2.9-9.2,8.4-9.5,14.7-.3,2.7.2,5.5,1.4,8,2,4,5.4,7.2,9.5,9,1.7.7,1.9.7,6.2.7h4.4l-.3,1.8c0,1-.2,2.6-.2,3.6v1.7h-1.4c-.7-.1-1.3-.3-2-.5-1.3-.2-2.7-.3-4.1-.3-2.5-.2-5,.3-7.3,1.5-3.7,1.7-6.5,4.8-8,8.6l-1.8,3.4v2.8c-.2,1.3,0,2.6.5,3.8.4.8.7,1.7,1,2.5.7,2.3,1.9,4.3,3.6,6,1.9,1.9,4.2,3.4,6.7,4.2,2.8.8,5.8.9,8.6.3,4.2-.6,3.8-.8,4,2.4,0,1.5.3,3.2.3,3.5v.7h-4.4c-4.4,0-4.6,0-6.3.8-4.1,1.8-7.4,5-9.3,9.1-1.3,2.4-1.8,5.1-1.6,7.8.3,6.2,4,11.8,9.5,14.7l2.3,1.2h4.7c4.7,0,4.7,0,6.2-.7.8-.4,1.7-.8,2.5-1l1.1-.3.9,3.6c.3,1.2.5,2.4.7,3.7-1.3.1-2.6.2-4,.2-2.9,0-3.9.2-4,.4-.9.8-1.9,1.6-2.9,2.3-2.6,1.6-4.7,3.9-6,6.7-1.3,2.5-1.9,5.3-1.9,8.2,0,4.2,2,8.2,5.3,10.9,3.3,3.5,7.9,5.4,12.7,5.3,3,0,5.8-.9,8.1-2.7.8-.6,1.7-1,2.6-1.3,1.1,2.2,2.2,4.5,3,6.9l-1.8.3c-6.3,1-11.5,5.4-13.4,11.6-.7,3.1-.7,6.4,0,9.5,1.3,5.3,5.2,9.7,10.4,11.5,1.9.6,3.8.8,5.8.6,4.2.5,8.4-.9,11.3-3.9,1.3-1,2.4-1.7,2.5-1.6s1,1.5,2,3.2c1.5,2.5,1.7,3,1.3,3.2l-1.9.6c-5.3,2-9.3,6.4-10.9,11.9-.5,2.6-.5,5.3,0,7.8.9,3,2.4,5.7,4.5,7.9,1.7,2,3.9,3.5,6.3,4.3,4.5,1.2,9.3.8,13.6-1.1,2.1-1.2,4-2.8,5.5-4.8.3-.5.7-1,1.1-1.4,1.8,1.7,3.5,3.6,5.1,5.5-.5.3-1,.6-1.6.9-3.7,2.4-6.6,5.9-8.3,10-.5,1.6-.7,3.2-.6,4.8-.3,4.7,1.5,9.3,4.9,12.5,1.2,1.4,2.7,2.4,4.3,3.2,2.4,1.2,5,1.8,7.6,1.7,2.4,0,4.9-.5,7.1-1.6,3.4-1.6,6.1-4.2,7.9-7.4l.9-1.6,2.8,2.3c1,.7,1.9,1.6,2.8,2.5,0,0-.4.5-.9.8-2.1,1.6-3.9,3.7-5.1,6.1-1.4,3-2,6.3-1.7,9.5-.2,1.9.2,3.9,1.1,5.6,1.8,3.4,4.6,6.2,8.1,7.9,6.6,3.5,14.8,2.1,19.8-3.5,2-1.8,3.4-4.2,4-6.8,0-.4,0-.8.3-1.1,0,0,6.3,3.5,6.6,3.6s-.8,1.1-1.7,2.3c-1.6,1.6-2.7,3.5-3.4,5.6-.8,3.7-.8,7.5,0,11.2,1.6,4.8,5.3,8.6,10.1,10.2,3.5,1,7.1,1.1,10.7.5,5.5-1.7,9.8-6.2,11.4-11.7.2-.8.3-1.6.4-2.4,0-.5,0-.9.2-.9s7.1,2.4,7.3,2.6-.7,1.2-1.6,2.7c-1.9,2.5-2.9,5.6-2.7,8.8,0,1.7.1,3.4.6,5,1.9,5.2,6.1,9.3,11.4,11.1,3.7.8,7.5.7,11.2-.2,3.9-1.6,7-4.5,8.9-8.3,1.1-2.2,1.7-4.6,1.6-7,0-1.7,0-2.3.3-2.3l3.6.7c3.9.9,3.8.8,2.4,3.9l-1,2v4c-.2,2,0,3.9.6,5.8,1.7,4.5,5,8.1,9.4,10.1,2.1,1,4.3,1.5,6.6,1.4,7.1,0,13.5-4.3,16.2-10.9,1-2.3,1.3-4.8.8-7.2-.2-1-.2-2.1-.3-3.2,1,0,2,0,2.9.2,1.2.2,2.4.3,3.6.2l.8-.2-.2,1.1c0,.6-.3,1.7-.5,2.2-.2,1.4-.3,2.8-.3,4.2-.1,1.7,0,3.4.7,5,.9,2.3,2.2,4.5,3.9,6.3,1.7,1.9,3.9,3.3,6.3,4,.9.3,1.7.7,2.5,1.1,2.2.3,4.5.3,6.7,0,.8-.4,1.7-.8,2.5-1.1,2.4-.7,4.6-2,6.3-3.9,2.5-2.6,4.2-5.9,4.7-9.5.3-1.8.2-3.6-.3-5.4-.3-1.8-.6-3.5-.6-3.7s.6-.4,3.6-.5h3.6s0,1.5-.3,3.2c-.5,2.5-.2,5.2,1,7.5,2.7,6.4,8.9,10.6,15.9,10.6,2.3,0,4.5-.4,6.6-1.4,4.3-2,7.7-5.6,9.4-10,.6-1.9.8-3.8.6-5.8v-4.1l-1-2c-1.5-3.2-1.5-3.2,2.4-3.9,1.8-.4,3.5-.7,3.6-.7s.3.6.3,2.3c0,2.4.5,4.9,1.6,7,1.9,3.7,5,6.5,8.9,8.1,3.7.9,7.5,1,11.2.2,5.3-1.8,9.5-5.8,11.4-11.1.5-1.6.7-3.3.6-5,.2-3-.7-6.1-2.6-8.5-.6-.9-1.1-1.9-1.5-3,2.3-1.1,4.6-2,7-2.7,0,0,.2.4.2.9,0,.8.2,1.7.4,2.4,1.6,5.6,5.9,10,11.4,11.7,3.6.7,7.2.5,10.7-.5,4.8-1.6,8.5-5.4,10.1-10.2.8-3.7.8-7.5,0-11.2-.6-2.1-1.8-4.1-3.4-5.6-1-1.2-1.7-2.3-1.7-2.3s6.3-3.6,6.6-3.6c.1.3.2.7.2,1,.6,4.3,6.1,9.8,11.6,11.7,7.1,1.7,14.6-1,19-6.9,2-2.7,2.9-6,2.6-9.3.3-2.8-.3-5.7-1.7-8.2-1.4-2.2-3.2-4.1-5.2-5.7l-1.3-1,2.7-2.4c1.5-1.4,2.7-2.5,2.8-2.5s1,1.3,2.2,2.8c2.2,3.6,5.7,6.3,9.8,7.3,2.8.5,5.6.5,8.4,0,6-1.5,10.7-6.2,12.2-12.2.3-1.4.4-2.8.4-4.3,0-4.5-1.8-8.8-5.1-11.9-1.1-1.3-2.3-2.3-3.8-3.2-.6-.3-1.1-.6-1.7-1,1.6-1.9,3.3-3.7,5.2-5.4,2.2,3.7,5.7,6.3,9.9,7.3,3.3.8,6.9.8,10.2,0,2.4-.9,4.6-2.4,6.3-4.4,2.2-2.4,3.8-5.3,4.6-8.5.4-2.4.4-4.9-.2-7.2-1.6-5.9-6.1-10.6-12-12.4l-1.1-.3,1.7-2.9c.9-1.6,1.8-3.2,2-3.2s.8,0,2.6,1.4c3,3,7.1,4.4,11.3,3.9,1.9.1,3.7,0,5.6-.5,4.8-1.6,8.6-5.3,10.2-10.1,1-3.3,1.1-6.9.5-10.2-1.7-6.4-7-11.2-13.6-12.2l-1.8-.3c.8-2.3,1.8-4.7,3-6.9,1,.3,1.8.8,2.7,1.3,2.3,1.8,5.2,2.8,8.1,2.7,4.7,0,9.2-1.9,12.5-5.2,3.3-2.6,5.2-6.6,5.3-10.8,0-4.7-1.7-9.3-5-12.7-2.6-3.2-6.5-5-10.6-5-1.1,0-2.2-.1-3.3-.3.2-1.2.4-2.4.7-3.6l.8-3.6.9.2c.9.3,1.8.6,2.7,1,1.8.8,2.1.8,6.3.8h4.5l1.9-.9c3.6-1.8,6.6-4.8,8.4-8.4,1.2-2.3,1.8-4.9,1.8-7.5,0-7.2-4.5-13.6-11.4-15.9-2-.8-4.2-1.1-6.3-.9h-4v-1.2c0-.7.2-2.2.3-3.5.2-2.6-.2-2.4,4-1.8,2.9.6,5.8.6,8.6-.3,2.5-.9,4.9-2.3,6.7-4.2,1.9-1.7,3.2-3.9,3.8-6.3.3-.9.7-1.8,1.1-2.6.3-1,.3-2.1.3-3.2v-2.9l-1.4-3.5c-1.4-3.8-4.3-6.9-8-8.7-2.2-1.2-4.8-1.7-7.3-1.5-1.4,0-2.7,0-4.1.3-.7.2-1.3.4-2,.5l-1.2.2-.2-3.2c0-1.2-.1-2.4-.3-3.6-.2-.3.4-.4,3.8-.3,3,.4,6.1-.2,8.7-1.7,2.9-1.8,5.3-4.3,6.9-7.2,1.5-2.5,2.2-5.5,1.9-8.4,0-1.6-.3-3.2-.9-4.7-1.7-4.3-4.7-7.9-8.6-10.2l-1.9-1h-4.6c-4.5,0-4.7,0-6.3.6-.9.4-2.2.9-2.9,1.1l-1.3.4-.8-3.6c-.3-1.2-.6-2.4-.7-3.7,1-.2,2.1-.3,3.2-.3,4.1-.2,8-2,10.8-5,3.4-3.5,5.1-8.2,4.8-13,0-1.6-.3-3.1-1-4.5-2-4.3-5.3-7.8-9.5-10l-2.3-1.1h-3.9c-3.3-.4-6.7.5-9.2,2.7-.8.6-1.7,1-2.6,1.3-1.1-2.2-2.1-4.5-3-6.9.6-.2,1.2-.3,1.8-.3,6.7-1,12.1-6,13.7-12.5.6-3.4.5-6.9-.5-10.2-1.6-4.8-5.4-8.6-10.3-10.1-2.1-.6-4.2-.7-6.3-.5-4.1,0-4.5,0-6,.8-1.9.9-3.6,2.1-5.2,3.6-1.1.9-1.7,1.2-1.9,1-.7-1-1.4-2.1-2-3.2-1.7-3-1.8-3.4-.5-3.4,2.3-.7,4.5-1.8,6.3-3.4,2.7-2.4,4.7-5.6,5.7-9.1.5-2.5.5-5.1,0-7.6-1.6-5.6-5.7-10.2-11.1-12.4-2-.6-4.1-.7-6.2-.5h-4.4l-2,1.1c-2.7,1.7-5,3.8-7,6.3l-.5.7-2.7-2.8-2.7-2.8,2.1-1.2c1.6-1,3-2.1,4.3-3.3,3.1-2.7,4.7-6.7,4.4-10.8.2-2.8-.5-5.6-1.8-8.1-2-4.3-5.7-7.5-10.2-8.8-3-.6-6-.6-8.9,0-4.5,1.3-8.4,4.3-10.8,8.3l-.9,1.8-2.9-2.4-2.9-2.4,1.3-1c2-1.7,3.8-3.6,5.2-5.8,1.5-2.7,2.1-5.7,1.6-8.8v-4.1l-1-2.3c-1.8-3.4-4.6-6.2-8.1-7.9-6.6-3.5-14.8-2.1-19.8,3.5-2,1.8-3.4,4.2-4,6.8,0,.4,0,.8-.3,1.1,0,0-6.3-3.5-6.6-3.6s.8-1.1,1.7-2.3c1.6-1.6,2.7-3.5,3.4-5.6.8-3.7.8-7.5,0-11.2-1.5-4.8-5.3-8.6-10.1-10.2-1.8-.6-3.7-.9-5.6-.8-1.8-.2-3.7,0-5.5.4-5.9,2.2-10.4,7.1-12,13.2-.2.9-.4,1.7-.4,1.7s-1.6-.5-3.5-1.2l-3.4-1.3.4-.7c1.2-1.9,2.3-4,3.2-6.2.5-1.8.6-3.6.5-5.4v-4.1l-1-2.1c-1.5-2.8-3.7-5.3-6.3-7.1-2.8-2-6.2-3.1-9.7-3.2-4.3,0-8.3,1.8-11.2,5-3.2,2.9-5.1,7-5,11.3,0,1.9,0,2.4-.4,2.4s-6.5-1.3-7.1-1.5,0-.9.9-2.6l1.2-2.5v-4.8c0-3.2-.3-5.3-1-6.3-1.9-3.5-4.7-6.3-8.3-8.2-2.3-1.3-4.8-1.9-7.4-1.9-6.9,0-13.2,4.3-15.9,10.6-1.3,2.8-1.4,4.5-.7,9.9v.9l-3.6-.2c-1.2,0-2.5,0-3.7-.2,0-1.3.3-2.5.5-3.7.4-1.9.6-3.8.3-5.7-.6-4-2.6-7.6-5.5-10.3-1.5-1.6-3.4-2.6-5.5-3.2-.9-.3-1.7-.6-2.5-1.1-2.2-.4-4.5-.4-6.8,0h0ZM287.8,43.8c11.6.7,23.2,2.3,34.6,5,11,1.8,21.7,4.9,32,9.1,8.4,3.4,22.7,9.5,27.5,12,19.7,10.3,37.9,23.4,53.9,38.9,13.4,12.8,25.4,27,35.7,42.3,6.9,10.3,12.8,21.2,17.5,32.7,10,23.4,13.4,34,17.2,54.5,1.9,9.6,3,19.3,3.5,29,.3,7.4,0,29.1-.3,34.7-2,24.8-7.9,46.2-21.5,78.2-10.5,23.4-25,44.7-43,63.1-18.1,19.2-39.3,35.3-62.6,47.6-7.9,4-23.8,10.9-33.4,14.4-9.3,3.4-18.9,5.9-28.7,7.4-17,4-34.5,5.7-51.9,5-13.6.1-27.2-1.3-40.4-4.2-15.2-2.7-30.1-7.3-44.2-13.6l-10.7-4.4c-11.8-5.2-23-11.6-33.5-19-12.2-8.2-23.4-17.6-33.5-28.2-11.6-11.4-22.1-24-31.1-37.5-11.5-17.8-20.6-37-27.1-57.1-6.7-18.9-10.5-38.6-11.4-58.6-.4-8.8,0-30.6.4-37.2,2-24.1,7.9-45,21.5-77,9.5-22.5,26.5-46.5,47.6-67.6,16.8-17.1,36.1-31.5,57.3-42.8,12.5-6,25.3-11.3,38.4-15.9,19-6.1,38.7-9.7,58.6-10.8,5.2-.3,22.6-.2,27.5,0Z"/>
    <path id="path154" class="cls-1" d="M258.3,53.5c-4.9.3-12.1,1-15.5,1.5-37.1,5-72.3,19.4-102.3,41.7-16.5,12.1-31.5,26.1-44.6,41.9-27.4,33.9-44.3,75-48.7,118.3-1,8.9-1.5,18-1.3,27-.3,9.3.4,18.5,1.9,27.7,6.2,45.1,25.9,87.3,56.5,121.1,11.3,12.6,24,23.9,37.7,33.7,27.5,19.6,59,32.9,92.3,38.7,13.6,2.5,27.4,3.5,41.3,3.2,14,0,28-1.5,41.7-4.3,100.3-19.9,175-104.1,182.8-206,.5-5.6.4-28.6,0-34.2-1.7-22.7-6.9-44.9-15.3-66.1-31.9-81.4-107.7-137.2-194.9-143.5-4.7-.4-27.7-.8-31.7-.5ZM290,56c25.2,1.8,49.9,7.9,73,18,20.2,9.5,39.3,21.2,56.8,34.9,3.9,3.3,7.6,6.9,11,10.9.9,1,1.8,2,2.8,2.9,4.8,3.7,17.5,19,24.7,29.6,6.2,9.1,11.9,18.7,16.8,28.6,3.1,6,5.9,12.2,8.3,18.4,8,20.6,12.9,42.4,14.5,64.4.4,5.7.4,26.9,0,32.8-1.7,25.4-7.8,50.2-18.1,73.5-7.8,16.6-17.1,32.5-27.8,47.3-5.2,7.5-11.3,14.4-18.1,20.5-1,.8-2,1.7-2.9,2.8-3.2,3.7-6.8,7.2-10.5,10.3-15.9,13.2-38.9,28-52.7,33.7l-8.8,3.7c-11.9,5.6-24.6,9.6-37.6,11.9-21.3,4.3-26.7,4.9-43.5,5.2-17.3.6-34.6-1-51.4-4.8-11.7-1.9-23.2-5.3-34-10.1-14.9-6.3-18.2-7.7-21.9-9.5-15.7-8.5-30.6-18.5-44.4-29.8-3.9-3.2-7.5-6.7-10.7-10.4-.8-1-1.8-2-2.9-2.8-4-3.4-7.7-7.2-11-11.3-14.4-18.3-26.6-38.3-36.1-59.5-7.4-17.7-12.6-36.2-15.2-55.2-2.6-20.5-2.6-41.2,0-61.7,4.1-30.5,14.5-59.7,30.6-85.9,11.1-18.2,23-33.4,33.2-42.5.7-.6,2.2-2.2,3.5-3.6,9.6-9.6,20.3-18.1,31.7-25.4,7-4.8,14.2-9.2,21.7-13.2,4-2,16.8-7.3,26.1-10.7,20.5-8.2,42.3-12.8,64.4-13.6,4.4-.1,24.6.2,28.5.5,0,0,.1,0,.1,0Z"/>
    <path id="path156" class="cls-1" d="M273.2,63.4c-1,.6-1.8,1.5-2.5,2.4-.5,1.6-.5,3.2,0,4.8.6,1.3.5,1.9-.2,2.1s-4.7.2-9.5.2h-9v2.2h11.9v4.4c.2,1.7,0,3.4-.3,5-1,1.7-3.1,2.2-4.8,1.2-.7-1.1-1-2.4-.5-3.6.5-1,1.4-1.7,2.5-1.8.9-.2,1.2-.7.9-1.8-.2-.6-.2-.7-1.9-.6-2,0-3.9,1.1-5,2.8-.5,1-.7,2.1-.5,3.2,0,1.1.2,2.3.9,3.2,1.2,1.7,3.1,2.6,5.1,2.4.8,0,1.7,0,2.4-.4,1.1-.8,1.2-.5,1.2,1.9v2.3h3.2v-10l1.1-1.1c1.3-1.3,2.5-1.5,3.5-.6.5.4.6.9.6,2.1.2,1.6-.3,3.2-1.5,4.3-.6.7-1,1.4-.9,1.5.7.7,1.6,1.2,2.5,1.6,1.3-1.3,2.4-2.8,3.2-4.5.7-1.6.8-3.5.3-5.1-.3-.7-.8-1.3-1.4-1.9l-1-1h-2.6c-1.1-.1-2.2,0-3.2.4l-.6.4v-4.3h10.9v-2.2h-3.2c-1.1,0-2.2,0-3.2-.3,0-.2.7-.3,1.6-.3s1.6,0,1.6-.2c-.1-.6-.3-1.3-.5-1.9-.4-.8-.5-1.8-.2-2.7.5-1.3,1.8-2.1,3.2-2.1,1,0,1.3,0,2.2,1,1.3,1.5,2.3,3.4,2.7,5.3v1.1h-3.2v2.7h2.6l-.5,5.7c-.5,6.3-.5,10.4.2,11.4.4.5.7.6,1.7.6h1.3l.2-2c0-1,.4-5,.6-8.7l.5-6.7h2.1v-2.7h-1.8l-.3-1.6c-.7-3.3-2.6-6.3-5.3-8.3-2.3-.5-4.7-.5-7,0h0Z"/>
    <path id="path158" class="cls-1" d="M224.3,68.4c-1.1.7-2.1,1.7-2.7,2.9-.6,1.9-.6,4.1,0,6,.6,1.4.5,1.6-.5,1.6s-1.6.4-1.6,1.7v1h1.6c.6,0,1.3,0,1.8.3.3.6.4,1.2.4,1.9,0,.8.7,3.4,1.3,5.8s1.2,5.2,1.4,6.3l.4,1.9h1.4c2.5,0,2.7-.9,1.2-6.3-1-3.3-1.8-6.6-2.3-10l-.2-1.7h.8c.8,0,.8,0,.7-1.2v-1.1h-1.3c-1.3,0-1.4,0-1.9-1-.4-.8-.5-1.6-.4-2.5,0-.9.2-1.8.9-2.4.9-.9,1-.9,3.2-.8,1.8,0,3.6.3,5.3.6,2.7.4,5.4,1.3,7.8,2.6-2.1.5-4.2.9-6.3,1.1l-6.3.8v3.1l1.4-.2,3-.3,1.5-.2.4,2c.3,1.1.4,2.1.4,2.3s-.7.6-1.5,1c-.5.2-1,.5-1.5.8.4,1.1,1.1,2.1,2.1,2.8,2.3,1.9,4.8,2.7,5.2,1.7.3-2.5.1-5-.4-7.4-.2-1.1-.3-2.3-.4-3.4,0,0,1.1-.2,2.3-.3,1.9-.2,2.2-.2,2.3.2s.7,4,1.3,8.3l1.2,7.9h4.1l-1.4-9-1.5-9h.8c.7,0,.8,0,.8-1.4v-1.3h-2.1c-1.8,0-2.2,0-2.6-.5-2.4-1.6-5.1-2.9-7.9-3.7-2.3-.9-4.8-1.3-7.3-1.1-3.8,0-4.4,0-5,.4Z"/>
    <path id="path160" class="cls-1" d="M327.6,71.2c-.3.6-.4,1.3-.5,2v1.3l2,.3h2.2c.4-1.1.5-2.3.3-3.6-.6-.3-1.2-.4-1.9-.4-1.7-.3-1.7-.2-2.2.4Z"/>
    <path id="path162" class="cls-1" d="M203.4,74.2l-.9,1.4,4.9,2.5c4.5,2.2,4.9,2.5,4.5,2.9-.4.3-.9.5-1.5.6-1,.2-1,.3-1.1,1.2s.3,1.8,1.3,1.8c1.8,0,2.6,1.4,4.2,7.6.5,2.8,1.4,5.5,2.7,8.1,1,.3,2.2.3,3.2-.2-.4-2.9-1.1-5.7-2-8.5-1.2-4.5-2.2-8.4-2.2-8.6s.3-.3.7-.3.7,0,.7-.9c0-1.6-.2-1.8-1.7-1.8s-1.6,0-6.5-3.5c-2.8-2-5.2-3.5-5.3-3.5-.4.4-.7.9-1,1.3Z"/>
    <path id="path164" class="cls-1" d="M306.3,77v1.5l3.8.8c1.3.2,2.7.6,4,1,0,1.8-.4,3.6-1,5.3,0,.2-.8-.3-2-1.6l-1.7-1.9-1.2.3c-.4,0-.9.3-1.3.4,0,0,5.6,14.1,5.9,14.4,1.1,0,2.2-.4,3.2-1,.2-.2-.2-1.3-1.4-3.6-.6-1.1-1.1-2.2-1.6-3.4l2.2-1.3,2.1-1.2.3.9c.4,1.3,1.1,1.8,2.9,2l1.6.2-.6,3c-1,5-1.1,5.6-.3,6.3s1.9,1,2.5,0c.5-1.2.9-2.5,1.1-3.9.3-1.8.9-4.1,1.2-5.3.4-1.5.7-3,.9-4.5l.3-2.4h2.5v-2.8l-11.5-2.4-11.6-2.3s-.3.7-.3,1.5ZM321.3,81.4h2.4l-.2,2.1c0,.9-.2,1.8-.5,2.7-.3.8-.8.8-3.8.3l-1.9-.3.4-2.7c.3-2.2.5-2.6.8-2.5s1.5.3,2.8.5Z"/>
    <path id="path166" class="cls-1" d="M331.9,83c0,.4,0,.9,0,1.3,0,0,1.8.7,3.9,1.4l3.9,1.4c-.2.9-.5,1.8-1,2.7-.6,1.7-1.2,2.6-1.4,2.6s-.9-.8-1.5-1.8-1.2-1.8-1.8-1.9c-1.3,0-1.6.3-1.5,2.7.3,2.3.9,4.6,1.8,6.8.7,1.7,1.2,3.6,1.7,5.4,0,.3.1.6.4.8,1.2,0,2.4-.4,3.6-1-.3-1.4-.9-2.7-1.5-4l-1.7-3.7c.6-.2,1.3-.2,1.9-.3,2.5-.3,3-.7,3.9-3.9l.8-2.5h1.2c1.6.2,1.9,0,1.9-1.6v-1.1l-6.9-2.2c-3.8-1.2-7-2.2-7.2-2.2s-.3.7-.4,1.4Z"/>
    <path id="path168" class="cls-1" d="M206,82.4c-5.9,2.1-18.8,7.4-20.1,8.2-.6.3-.8,1-.5,1.6.2.4.6.7,1.1.7,1.5-.4,3-.9,4.5-1.5,2.2-.8,4.1-1.5,4.3-1.5s.8,1.1.4,1.4c-.8.4-1.5.8-2.3,1.1-2.9,1.2-4.3,2.4-4.3,3.8s1,2.5,2.9,3.2l1.5.7v1.4c0,1.7.3,2.4,1.4,3,1.4.6,2.8,1.1,4.3,1.5,1.6-1,3.1-2,4.6-3.2l4.2-3.2.6,1.6c.2.5.4,1,.7,1.6.5-.1,1-.2,1.5-.2.6,0,1.2-.2,1.7-.4.3-.2-.3-2-2.5-8.1-1.7-4.3-3-8-3.2-8.3s0-.5.7-.7.8-.3.6-1.4c-.3-1.6-.3-1.7-1.9-1.1ZM204.6,91.1c.9,2.3,1.6,4.3,1.6,4.6-.9,1.9-2.2,3.6-3.7,5-1.8,1.5-4.7,1.7-5.1.4s1.2-3.2,2.7-3.2,1-.4.5-1.4-.9-1.2-2.6-.5c-2.3.9-3.7,1.1-4.3.8s-.5-.4-.5-.6c1-.7,2-1.4,3.2-1.9,1.2-.5,2.3-1.2,3.4-1.9,0-.7,0-1.4-.2-2-.6-2.6-.6-2.5,1.4-3.2l2-.6c.7,1.4,1.3,2.8,1.7,4.3Z"/>
    <path id="path170" class="cls-1" d="M169,88.7c-.9.9-.7,1,3.9,3l4.7,1.9.9.4-1.7,1c-1.4.8-1.8,1.2-1.8,1.8-.2,1.3.4,1.6,2.2,1.4l1.6-.2,3.8,7.6c2.1,4.2,3.9,7.6,4,7.6,1-.7,2-1.4,2.9-2.2-1-2.6-2.2-5.2-3.6-7.6l-3.8-7.5.9-.4.9-.4-.4-1c-.6-1.6-.8-1.7-2.3-1.7s-2-.3-5.7-2.2c-1.6-.9-3.3-1.7-5-2.2-.5,0-1,.3-1.4.7Z"/>
    <path id="path172" class="cls-1" d="M348.3,89.4c-.8.8-.8,1-.8,2.9s0,1.7.3,2.6c.6.8,1.6,1.3,2.6,1.3.9,0,1.2-1.3.5-2.4s-.3-1.6.8-2.1,2.5.9,2.3,3-2.2,3.6-5.4,3c-1.2-.3-1.5-.4-1.9-1.2-.7-1.2-2-2.1-3.4-2.3-1.6-.3-1.8,0-1.3,1.4.2,1.1,1.2,1.8,2.3,1.7.4,0,.5-.2.5-.7v-.7l.9.8.8.8h-.8c-.7,0-.8.2-.8,1.5.3,3.1,2.1,5.8,4.9,7.3,1.3.7,2.8.9,4.3.7,1,0,2,0,2.9.3-.3.7-.6,1.4-1,2-.4.8-.8,1.6-1,2.4,0,1,.9,1.6,2.2,1.8h1.2l3.7-7.2c4.1-8.3,3.6-7.6,5.6-7.1.2,0,.5-.4.7-1l.3-1.2-3.7-2c-1.2-.7-2.5-1.3-3.8-1.7-1.9,2.3-1.9,2.6,0,3,1.2.2,1.2.3.5,2.5-.8,3-3.5,5.3-6.6,5.6-1.9.6-3.9.2-5.4-1.1-.5-.4-.8-1-1-1.6,0-.5.3-.6,2.3-.7,3-.3,4.2-.6,5.3-1.7s.9-.9.9-3.5-.3-4-1.7-5.3c-1.2-1.2-2.9-1.8-4.6-1.7-1.6,0-1.8,0-2.5.8Z"/>
    <path id="path174" class="cls-1" d="M158.9,94.2c-.3.4-.4,1-.4,1.5,0,0,2.3.9,4.8,1.7s4.8,1.7,5,1.8-1.5,1.2-5,3.2c-2.9,1.6-5.6,3.2-5.9,3.4l-.6.5.6,1.1.6,1.1,1.2-.5,1.3-.6c.5.7.9,1.4,1.2,2.2,1.1,3,3.8,5.3,7,5.9l1.1.2-1.6,2.2c-.6.7-1.1,1.5-1.5,2.4.7.6,1.6,1,2.5,1s1-.5,1.9-2.1c1-2.1,2.2-4.1,3.7-5.9,0,0,.8,1,1.4,2.2l1.1,2.3,1.4-.6,1.8-.7c.2,0,.3-.2.3-.4,0,0-1.9-3.7-4.1-8-4.1-7.8-4.3-8.2-3-8.2.4,0,.4-.3,0-1.5s-.5-1-1.7-1c-2.6-.3-5.1-1-7.3-2.4-1.5-.7-3-1.3-4.5-1.8-.9-.2-1-.2-1.6,1.1ZM170.8,104.6c1.1,1.6,1.7,3.5,1.8,5.5-.4,1-1.3,1.9-2.3,2.3-1.6.3-3.2-1.2-4.9-4.5-1.4-2.7-1.4-2.5,1.3-4.1.8-.5,1.7-1,2.7-1.3.6.6,1.1,1.3,1.5,2.1,0,0,0,0,0,0Z"/>
    <path id="path176" class="cls-1" d="M368.9,98.5c-.5,1.1-.4,1.2,1.1,2.3l.7.4-.5,1.2c-.3.7-1.5,3.2-2.8,5.6-4.3,7.8-4.6,8.6-3.7,9.5.5.3,1.1.4,1.7.4h1.3l3.6-7c2-3.8,3.7-7.1,3.8-7.2s.6,0,1.2,0l1,.3.6-1.2c.3-.7.5-1.2.4-1.3s-7.5-3.9-7.7-3.9-.5.5-.7,1Z"/>
    <path id="path178" class="cls-1" d="M262.3,100.7c-8.2.6-16.4,1.7-24.4,3.2-78.1,15.9-136.6,80.9-144.2,160.1-.6,10.6-.6,21.3,0,31.9.9,9.9,2.6,19.6,5,29.2,18.4,71.9,79,125.3,152.7,134.5,7.3,1,14.6,1.3,22,1.1,7.4.2,14.7-.2,22-1.1,20.6-2.6,40.6-8.7,59.1-18,55.4-28.1,92.5-82.5,98.4-144.3.7-11,.7-22.1,0-33.1-8.3-86.2-76.4-154.5-162.6-162.9-3.9-.5-23.8-.8-27.9-.5ZM286.7,103c21.8,1.7,43.1,7.5,62.8,16.9,18.3,8.6,34.9,20.4,49.1,34.9,13.6,13.2,24.9,28.6,33.4,45.6,9.8,19.4,16.1,40.4,18.6,62,.5,4.4.5,30.9,0,35.5-2.1,19-7.1,37.6-14.8,55.1-5.9,12.5-12.9,24.4-21.1,35.5-16.5,21.8-37.9,39.5-62.4,51.5-20.5,10.2-42.7,16.4-65.5,18.3-5.8.3-22.9.3-27.9,0-8.9-.8-17.8-2.3-26.5-4.3-4.9-1.1-22-6.7-27.4-8.9-13.4-5.6-26-12.8-37.7-21.4-24.8-18.5-44.5-43-57.1-71.2-7.4-17-12.2-34.9-14.5-53.3-.5-4.7-.5-31.7,0-36.5,1.9-16,5.8-31.6,11.6-46.6,6-14.9,13.8-28.9,23.4-41.8,10.1-13,21.8-24.8,34.7-35,12.5-9.6,26.3-17.5,40.9-23.5,16.3-6.7,33.6-11,51.2-12.7,5.3-.3,24.1-.3,29.4,0Z"/>
    <path id="path180" class="cls-1" d="M274.1,115.1l-9.5.5c-4.4.2-8.9.5-9.9.6l-1.8.2-.6,1.4c-.3.8-.9,2.4-1.2,3.7-.4,2.7-1.3,5.2-2.6,7.6-.8,1-2.3,1.5-5.8,1.9-5.7,1.1-11.3,2.6-16.8,4.5-4.4,1.3-8.3,2.3-8.6,2.3-1.5-.8-2.9-1.9-4.1-3.2-1.9-1.7-4-3.5-4.6-3.9-2.2-1.5-4.2-1-11.5,2.8-7.4,3.9-14.5,8.4-21.3,13.4-1,.9-1,1-.9,2.1s.3,3.2.4,5.6.3,5.1.4,6.2v1.8l-1.3,1.4c-.7.8-3.5,3.2-6.2,5.6-2.8,2.3-5.4,4.9-7.7,7.6-2.4,3-5,6-7.8,8.7-.7.5-.8.5-7.8-.4l-7.1-.9-.5.5c-.6.8-8.9,14.7-11.7,19.6-2,3.4-3.6,7-4.8,10.8,0,1.1.6,1.9,5.1,6.3,2.9,3.2,3.9,4.2,3.9,4.7s-1.3,5.4-3,11.2c-1.8,5.6-3.3,11.3-4.4,17.1-.7,5.1-1.5,6.3-5,7.5-6.8,2.6-9.3,3.6-9.3,4.2s-.4,3-.7,5.9c-.5,4.1-.6,8.2-.3,12.3,0,4.7.5,9.3,1.1,13.9.4,2.2,1.4,3.2,4.3,4.4,2.6,1,5.4,1.8,8.2,2.1h1l1.3,5.1c2.2,8.4,5.6,20.6,6.6,23.2,1,1.8,1.1,3.9.6,5.8-.2.4-1.6,2.8-3.2,5.2-4,6.3-3.7,6-3.5,7.1.8,4,13.1,24.1,17.4,28.1l1,1,6.2-1.4c2.2-.7,4.4-1,6.7-1.1.3,0,3.6,3.4,7.5,7.2s9.5,9.1,12.4,11.8c1.9,1.6,3.8,3.3,5.5,5.2-.7,2.1-1.7,4.1-2.9,6-2.4,4.3-2.6,5.2-1.5,6.3,3.6,3.8,23.4,15.7,26.9,16.2,1.5.2,3.2-.6,8.6-4.7,2.4-1.7,4.4-3.2,4.5-3.2.6.2,1.3.4,1.9.6,9,3.3,18.3,5.8,27.8,7.2h1.1l.5,1.6c1.4,4.5,4.9,10.8,6.3,11.6,2.9,1.4,18.1,2.5,25.8,1.8,3.2-.1,6.4-.6,9.5-1.5.6-.3,1.3-1.5,3.5-5.9,1.5-3.2,2.9-5.9,3.2-6.3l.3-1h2.9c5.1-.5,10.2-1.4,15.1-2.8,1-.3,4.3-1.7,7.2-3.2,1.9-1,3.9-1.8,6-2.4,1.5.6,2.9,1.3,4.2,2.2,7.5,4.7,9.1,5.6,10.1,5.6,4.3-1.4,8.3-3.3,12.2-5.7,4.5-2.3,8.8-5.1,12.7-8.4,2.3-1.8,4.7-3.6,5.2-4s1-.8,1-.9-1-1.9-2.3-4c-.9-1.3-1.7-2.7-2.3-4.2,0-.2,5.5-5.8,12.3-12.7l12.3-12.2,1.3.3c.8,0,3,.7,4.9,1.2,1.7.5,3.5.9,5.2,1.1h1.7l1.5-1.9c2.2-2.8,7.7-10.8,14.4-21,4.6-6.9,5.9-9.2,5.7-9.5s-2-2.4-4.1-4.8c-4.4-5-5.7-6.7-5.7-7.5s1.2-4.4,2.7-9c2.4-7,4.4-14.2,5.9-21.5l.5-2.9,6.6-4.4c2.3-1.3,4.4-2.9,6.3-4.8,0-1.7,0-3.5.3-5.2.3-3.5.4-6.9.3-10.4-.2-6.3-1.1-18.2-1.4-18.7-2.3-1.4-4.9-2.4-7.5-3.2-6.3-2.4-6.7-2.8-7.5-6.5-1.2-5.9-3.8-15.5-5-18.7-.7-1.9-1.3-3.8-1.8-5.7-.4-1.8-.4-2,0-3.2.9-1.5,1.9-2.9,3-4.2,3-3.7,4.1-5.8,4.1-7.3s-5.8-12.5-12.7-22.8c-1.8-2.8-3.8-5.6-4.4-6.3-1-1.2-1.1-1.3-2.4-1.3-1.4,0-2.8.3-4.2.7-1.8.4-3.7.7-5.6.8h-2.7l-7.1-6.6c-8-7.5-14.7-13.6-15.9-14.5l-.8-.6.6-7.4.7-7.4-.8-.8c-6.4-4.8-13.1-8.9-20.3-12.5-3-1.8-6.2-3.1-9.5-4-1.1,0-3.2,1.2-7,4.4-4.5,3.7-4.7,3.7-7.4,3.4-3.9-.7-7.7-1.8-11.4-3.2-4.2-1.5-8.6-2.5-13-3-3.7-.3-4.7-.7-5.5-1.8-.3-.4-1.8-3.2-3.2-6.3s-3-5.6-3.2-6-1-.6-4.1-.8c-3.2-.1-6.4,0-9.6.3h0ZM278.9,144.7c8.7.4,17.3,1.8,25.6,4.3,23,7.2,43.8,19.9,60.7,37.1,19.2,19,36.1,47.6,41.8,70.8,2,7.4,2.9,15.1,2.7,22.8.3,20.6-1.3,33.7-6.1,48-3,9.2-6.9,18-11.8,26.3-5.8,8.3-12.4,16.1-19.8,23.1-3.9,4-8.2,7.6-12.7,11-.5.3-.6.2-1-.3l-21.2-35.3s3.2-3.3,7.3-7.2,7.5-7.4,7.7-7.8,2.2-3.6,4.4-6.9c3.5-4.9,6.3-10.2,8.5-15.9,4.7-12.8,6.8-26.4,6.1-40,.1-4-.2-8-.9-11.9-2.6-14.8-8.8-28.6-20.2-44.4-2.5-3.4-5.4-6.6-8.5-9.5-5.6-6-12-11.2-19-15.5-4.5-3.2-9.4-5.8-14.6-7.8-3.2-1.3-6.3-2.6-6.8-2.9-.9-.4-1.8-.7-2.8-.8-.9,0-3.7-.8-6.3-1.4l-4.5-1.3h-14.9c-14.8,0-14.9,0-18.5.8-7.5,1.5-14.8,4-21.7,7.5-10.2,4.6-19.5,11.1-27.3,19-13.8,14.5-21.4,28.1-24,43.4-.8,7-1,14.2-.5,21.3,1.7,11.5,5.2,22.7,10.5,33,3.8,6.2,8,12.1,12.5,17.8,4.4,5.5,9.8,10.6,12,11.3.2,0-26.7,52.9-27.4,53.7-5.8-4.7-11.3-9.8-16.4-15.3-7.2-8.8-13.7-18.1-19.5-27.8-6.9-13.5-11.9-27.9-14.7-42.8-1.2-7.5-1.6-15.1-1.2-22.7,0-4.8.2-9.6.7-14.4,1.8-12.6,5.4-24.8,10.5-36.5,2.2-5.9,5-11.6,8.3-17,9.5-14.3,21.1-27.1,34.6-37.8,9.2-6.9,19.2-12.7,29.7-17.3,6.6-2.6,13.3-4.9,20.1-6.8,12.5-3.5,25.5-4.7,38.4-3.8ZM279.9,183.8c14.7.6,29,5.3,41.3,13.5,11.6,7.6,21.5,17.6,29,29.2,4.8,7,8.7,14.5,11.7,22.4,3.9,10.5,4.9,17.4,4.6,32,0,6.1-.5,12.2-1.7,18.2-2,9.6-5.6,18.8-10.7,27.1-4.9,7.4-10.7,14.2-17.2,20.1-1.3,1.1-1.7,1.3-1.9,1s-4.8-7.8-10.3-17l-10-16.6,1.1-1.8c4.7-8.1,7.7-17.1,8.9-26.4.7-6.6.8-13.2.3-19.7-2.3-10-6.9-19.4-13.4-27.4-6.7-7.4-15.3-12.8-24.9-15.5-4.5-1.1-9.1-1.6-13.7-1.4-5.2-.2-10.4.3-15.5,1.6-5.3,1.3-10.2,3.4-14.8,6.3-7,5-12.6,11.7-16.3,19.5-2.8,5.5-4.1,11.6-3.5,17.7-.6,7.2,1.3,14.4,5.3,20.4,1.3,2.6,3,4.9,5,6.9.9.9,1.7,1.9,2.5,2.9,0,0-3.8,7.5-8.4,16.3l-8.4,15.9-.8-.5c-5.6-4.5-10.7-9.6-15.2-15.2-7.2-10.3-12.5-21.8-15.5-34-2.8-10.9-2.8-22.2,0-33.1,5.6-21.6,23.3-42.3,45.9-53.9,14.4-7.1,27.4-9.6,47-8.4h0ZM281.3,226.7c20.4,3.5,37.7,23,39.3,44.4.3,12-2.2,24-7.2,34.9l-1.2,2.6-.9-1c-3-4.3-5.7-8.7-8.2-13.2-2.2-3.8-5-8.7-6.3-10.9-2.6-4.5-2.4-3.7-2.1-10,.4-3,0-5.9-1.4-8.6-2.4-4.7-5.8-8.8-10-12-2.5-1.7-5.3-3-8.1-4h-.8l-.2-2.3c-.8-5.7-3-11.1-6.6-15.7-1.6-1.7-2.2-1.8-1.7-.3.4,2.7.4,5.5,0,8.2-.3,1.2-.9,3.8-1.4,5.8l-1.1,3.4-1.8.4c-3.3,1-6.5,2.5-9.4,4.5-1.9,1.1-3.6,2.6-5,4.3.4.7,1,1.4,1.6,2l1.6,1.7,2.9-2.3c1.3-1,2.7-2,4.1-2.9,1.4-.7,3.2-1,3.2-.6s-.5,1.5-1.1,3.2l-1.2,2.8v5.7c-.3,2.6-.1,5.3.5,7.9.3,1,.6,2.1.8,3.2l.2,1.1h-7.2c-4,0-7.4.2-7.6.3-1.3,2-2.5,4.2-3.5,6.3-1,2.1-2.1,4.2-3.4,6.1-1.7-1.4-3.2-3-4.4-4.8-3.3-5.1-5.4-10.9-6.1-16.9-.1-1.9-.1-3.7,0-5.6.5-9.1,4.2-17.8,10.5-24.5,8.5-8.7,20-13.6,32.1-13.9,3.8,0,7.6.2,11.3.7ZM270.8,244.5c.5,2.5.8,5.1.6,7.6v5.1l-1,3c-1.9,5.6-4.2,11.1-6.9,16.4-.3,0-.4-.3-.6-.5-2.1-2.3-2.7-10.7-1.2-16.1.9-2.5,1.9-4.9,3-7.3,1.8-3.7,3.2-7.6,4.1-11.6l.2-1.5.6,1.3c.5,1.2.9,2.4,1.2,3.6ZM276.9,254.6c5.3,3.1,9.6,7.7,12.4,13.2.6,2,.8,4,.7,6.1v4.7h-11.4c-6.3,0-11.4-.2-11.5-.3s7.5-23.6,7.7-24.1.5-.4,2,.4ZM301.5,299c4.3,7.7,7.8,14.2,7.8,14.3-1.7,3.1-3.9,5.9-6.3,8.5-10.2,10.2-23.4,16.8-37.7,18.8-7.1.9-14.3.9-21.4,0-4.4-.8-8.6-2.2-12.7-4-2.7-1.1-5.2-2.5-7.7-4,0,0,3.6-7.2,8.1-15.9,6.3-12.3,8.2-15.7,8.5-15.6s2.1,1.2,4.2,2.5c3,2.1,6.4,3.6,10,4.6,2.5.6,5.1.8,7.6.6,2.5.2,5,0,7.5-.6,4.6-1.2,8.9-3.3,12.7-6.1,5.4-3.7,9.2-9.3,10.9-15.6,0-1,.3-1.4.6-1.4,3,4.5,5.6,9.2,8,14.1h0ZM247.8,289.2c3.1,1.9,6.5,3.4,10,4.6,2.3.8,2.7.8,9.9.9h7.5l2.1-.7c1.2-.4,2.4-.9,3.5-1.4,1.8-1,3.4-2.2,4.9-3.6.2-.3.5-.5.6-.4-1.4,2.6-3.1,5-4.9,7.3-3.4,3.4-7.5,5.8-12.1,7.1-2.4.8-5,1-7.6.8-5.3.6-10.7-1-14.8-4.3-1.2-.9-2.5-1.6-3.8-2.3l-1.2-.5,2.1-4.2c1.1-2.3,2.1-4.2,2.2-4.2s.8.5,1.6,1h0ZM316.5,326c2.2,4,9.9,17.3,16.9,29.7,22.2,38.7,30,52.9,30,53.9s-2.9,3.2-8.9,6.7c-5.2,3-13.2,7.2-13.6,7.2-1.7-1-3.4-2-5-3.2-2.5-2.1-5.3-3.8-8.4-5.1-.3,0-4.1,1.5-8.5,3.4s-9.2,3.6-10.6,4c-3.5.9-9.9,2.2-14.4,2.9-1.3,0-2.5.3-3.7.8l-2.7,6.3-2.7,6.3-4.2.6c-2.3.3-5.1.6-6.3.6-2.5,0-16.3-1-16.8-1.3-1.2-2-2.3-4.2-3.2-6.3l-2.9-6.3-1.1-.2-3.2-.5c-5.6-1.1-11.2-2.6-16.5-4.7-5.2-2.1-10.6-3.6-16.1-4.5l-2-.2-1.6,1.5c-2.5,2.5-5.3,4.6-8.3,6.3-2.2,0-4.3-.5-6-1.8-5-3.2-9.9-6.7-14.5-10.5,0-.2,38.1-74,38.5-74.4s2.3.4,7.6,2.8c3.9,1.9,8,3.5,12.2,4.7,2.1.5,3.2.6,12.2.7,6.4.5,12.8,0,19-1.4,4.8-1.1,9.5-2.7,14-4.6,4.7-2.3,9.1-5,13.3-8.1,1.7-1.4,3.2-2.8,4.7-4.4,1.3-1.5,3.6-4.1,5.2-5.7.9-1.1,1.9-2.1,3-2.9,0,0,2.3,3.5,4.4,7.6,0,0,0,0,0,0Z"/>
    <path id="path182" class="cls-1" d="M274.6,359.3c-2.3.8-4.6,1.5-6.9,1.8-1.9,0-3.7,1-4.8,2.6-3,3.7-5.1,8.1-6.3,12.7-.9,3.7-.9,7.6,0,11.3.5,2,1.7,3.8,3.2,5.1.8.5,1.3.6,3.5.6,2.1.3,4.2-.4,5.6-2,.9-1,1.2-2.4.9-3.8-.3-2.9-1.4-3.7-3.2-2.3-.9.7-.9.9-.9,2.1s-.5,2.4-1.6,2.4-1.3-.3-1.7-.8c-.7-.6-1-1.5-1-2.4-.2-3.1.9-6.2,2.9-8.6,1.1-1.1,2-1,3.2.2.3.4.7.8,1.1,1,.5-.1.9-.3,1.3-.7.3-.3.7-.5,1.1-.7,0,0,.2.3.3.8.6,2.4,3.2,2.2,3.9-.5.2-1.4.3-2.8.3-4.2,0-3.2,0-3.3-.6-3.3-1,0-1.8.7-2,1.7-.2,1-1.1,2.6-1.5,2.6.2-1.4.6-2.8,1.1-4.1.7-2.3,1.3-4.2,1.3-4.3s-.7-.2-1.6-.2c-.9,0-1.7.1-2.5.6-.6.3-1.2.6-1.9.8l-.9.2.8-.8c1.4-1.5,3.4-2.3,5.4-2.2.8,0,1.5,0,2.3.3.3.6.5,1.2.5,1.8,0,.7.3,1.5.7,2.1.5.5.5.7,0,5.8-.3,2.9-.5,5.4-.5,5.6.2.6.6,1.2,1.1,1.7,1,1.1,1,1.3.6,1.4-1,.3-1.3.6-1.4,1.5-.1,1.4.7,2.6,1.9,3.2,1.7.8,3,1,3.6.5s.5-.8.6-4.2c0-2.1,0-7.6.3-12.2l.2-8.5-.6-.7c-.5-.5-.6-.8-.3-1.3.1-.3.3-.6.5-.9.5-.3.4-2.3-.3-2.9s-2.4-.6-7.8,1.1h0Z"/>
    <path id="path184" class="cls-1" d="M284.9,363.8c-.7.7-.7.8-.6,3.5,0,2.4,0,4.8-.2,7.2-.7,5-.8,10-.3,14.9.5,1.6,1.7,3.2,2.1,2.8.9-9.2,1.2-18.5,1-27.7-.2-1.7-.8-1.9-1.9-.7Z"/>
    <path id="path186" class="cls-1" d="M222,370.3c-3,.6-3.8,1.1-4.6,2.7-.2.4-1.1,1.8-2,3.2-1.7,2-3.1,4.4-4,6.9,0,.6.4,1.2,2.5,3,1.2,1,2.3,2.2,3.2,3.5.7,1.5,1.9,2.8,3.4,3.5,1.2.6,1.6.9,1.8,1.7s.5,1-2.4,1.5c-1,.2-1,.2-1,1.4.3,2.3,1.4,4.3,3.2,5.7l1.4,1.2h5.6l.9,1.2c1.5,2.1,1.8,1.7,2.1-3s0-4.2,2.4-4.2c3.7,0,7.2-1.6,7.2-3.2s-.2-.9-1.1-1.4c-.9-.5-1.7-.9-2.7-1.1l-1.7-.6s.2-.6.8-1.2c.7-.6,1-1.5.9-2.4,0-1,0-1.3.6-1.5.5-.2,1-.5,1.3-.9.8-.7.8-.8.8-3,.1-1.5-.2-2.9-1-4.2-.6-1.1-1-2.3-1.4-3.6-.2-.7-.4-1.4-.7-2.1-.6-.3-1.2-.4-1.8-.3-1.5,0-1.7,0-2.9-1.2-.7-.6-1.5-1.2-2.3-1.6-2.8-.6-5.6-.6-8.3,0ZM220.8,374.5c-.4,2.5-1.4,4-2.7,4.2-.5,0-.8,0-1-.6s-.3-.9.2-2c.6-1.3,1.8-2.3,3.2-2.9.5,0,.5.2.3,1.3ZM232.7,375.3c.5,1,.8,2.2.8,3.4v1.7l-.7-.7c-1.5-1.5-2.9-4.8-2.3-5.6s1.4-.4,2.2,1.2h0ZM224.9,375.6c.2.3.3.8.3,1.1.2,1,0,1-.5,1-.7.1-1.4.5-1.9,1.1-1.2,1.1-1.2,1.1-1.8.6s-.6-.5,0-1.6c.4-1.1,1.2-2,2.2-2.6.6-.2,1.2,0,1.7.3h0ZM238.3,379.9c.6,1.1,1,2.3,1.3,3.6,0,.3-1.4,0-2.2-.6-1.2-1-1.9-2.5-2-4.1-.3-1.8,0-2.4.9-2.3.5,0,1,.9,2,3.4ZM217.5,381.8c.9.4.9.5.8,1.6,0,.6-.2,1.1-.5,1.6-.8.9-3.9-1.1-4-2.6s1.7-1.6,3.9-.6h0ZM235.7,385.8c0,1.8,0,2.1-.8,2.9-2.8,2.1-6.1,3.3-9.5,3.6h-1.1l.2-1c.3-1.4,1.2-2,3.9-2.9,2-.4,3.6-1.6,4.7-3.4.4-.5.9-.9,1.5-1.1l1-.3c.1.7.2,1.4.3,2.1h0Z"/>
    <path id="path188" class="cls-1" d="M318,373.3c-.6.5-1.1.6-2.4.7-2.1,0-4.1.8-5.8,2-.5.5-1.4.6-2.6.3-.6-.2-1.3-.3-1.9-.3-.4,1.2-.6,2.4-.6,3.7,0,1.8.9,3.5,2.3,4.6,1.8,1.9,1.9,3.2.3,4.6-1,1-1.2,2-.5,2.4,2.4.7,4.9,1.2,7.4,1.5h1.8l1.4,3.6c1.2,3.2,1.4,3.6,2,3.6s.9-.5,1.2-4.5l.2-2.1,1.5-1.1c1.6-1.4,3.6-2.1,5.7-2,2.8,0,3.2-.3,3.2-1.8s-.2-1.2-1.1-2.1-1.2-1.4.3-3.8c1.2-1.5,1.8-3.3,1.9-5.1v-1.5h-1.3c-1.9,0-2.7-.4-2.8-1.3v-.8h-3.7c-3.6,0-3.9,0-4.7-.7l-.9-.6s-.8.7-.8.7ZM315.8,377.7c.3.9.4,1.8.5,2.7.3,2.2,0,3.2-.8,3.2s-1.9-5.4-1.1-6.3,1.1-.4,1.4.4Z"/>
    <path id="path190" class="cls-1" d="M378,103.5c-.3,1.1.7,2.1,4.1,4.1,2.4,1.2,4.7,2.8,6.7,4.6.4.6.4.7-.3,1.7-.3.4-.6.8-.9,1.3-1.9-.7-3.6-1.6-5.3-2.6-2.9-1.6-5.4-2.9-5.6-2.9-.5,2.2-.5,4.4,0,6.5.6,1.7.8,1.8,2.3.4.5-.5,1-.9,1.7-1.2,1.5.7,2.9,1.6,4.3,2.5.2.2-.4,1.5-2.3,4.7l-2.7,4.4,1.4,1,1.5,1,4.7-7,4.8-7h1c2,.3,2.5-1.1.9-2.6-4.8-3.8-10.1-7.1-15.6-9.7-.2,0-.5.3-.6.9Z"/>
    <path id="path192" class="cls-1" d="M133.6,123.9c-4.2,3.6-7.6,6.6-7.6,6.7s.3.7.8,1.3l.9,1.1,2.2-1.7c2.1-1.7,2.3-1.7,3.2-1.4s2.6,1.7,2.6,2.4c-.2,1.2-.7,2.3-1.5,3.2l-.8.9.7.7c1.4,1.3,3.3,1.9,5.1,1.7,1.3.2,2.6,0,3.7-.7,1.6-.8,2.8-2.1,3.6-3.7,0-.3.3-.5.5-.8.6.4,1.1,1,1.6,1.5l1.4,1.5,1-.8c2.4-1.9,2.7-1.1-3.7-8.3l-5.8-6.3.6-.8.6-.8-.8-1.1c-.2-.4-.5-.7-.8-1,0,0-3.5,2.9-7.6,6.5ZM140.4,125.3c3.2,3.4,3.9,4.6,3.9,6,0,2.3-2.1,4.2-4.4,4.2h-1.1v-2.4c0-3-.2-3.6-2.1-5.2l-1.3-1.1,1.5-1.5c.5-.5,1-1,1.7-1.5.7.5,1.3,1,1.9,1.6h0Z"/>
    <path id="path194" class="cls-1" d="M416.3,123.8c-.5.4-1,.8-1.5,1.2-.4.5-.9.9-1.4,1.3-.5.3-1,.3-1.7,0l-.9-.6-.8,1-.8,1,.9,1,.9,1.1-6.1,6.3-6.1,6.3,1.2,1.4c.4.5.9,1,1.4,1.4l6.3-6.3,6-6.3.7.6c.7.5.8.5,2.1-.7l.6-.5-.8-1.1c-.8-.9-.8-1.1-.5-1.8.3-.6.7-1.1,1.1-1.6.7-.7,1-.8,2.6-.8s1.8,0,2.6.8c1.4,1.3,1.8,2.2,3.5,7.2.6,2.9,1.9,5.7,3.7,8.1l.7.6v-1.7c0-1.2-.2-2.5-.4-3.7-1.3-7.4-4.5-13.1-8.2-14.6-1.7-.6-3.6-.6-5.3,0h0Z"/>
    <path id="path196" class="cls-1" d="M111.6,132.4c-1.4.8-2.6,2-3.4,3.5-.7,1.8-.7,3.8,0,5.6.6.9,1.5,1.6,2.5,2l2.1,1.1s-1.7,2.2-4,4.9-4.1,4.9-4.1,5c.3.4.6.9.9,1.2l.9,1,4.9-5.4,4.7-5.4,1,.9,1,.8-.9,1.1c-5.5,7.2-5.1,6.5-5.1,8.1s0,1.6,1.3,3,1.3,1.7,5.4,2.1c2.2.4,4.4.3,6.6-.3.3-.5.4-1,.3-1.6v-1.3h-3.9c-4,0-4.9-.3-6-1.6-.5-.5-.5-.6,0-1.7,1.1-1.9,2.5-3.6,4.2-5.1l.8-.6.7.6,3.7,3.2c1.7,1.5,3.2,3,3.6,3.2s.6.4,1.8-1l1.3-1.5-6.6-5.7-6.6-5.7.6-.8.6-.8-1.1-1.3-1.1-1.2-.4.9c-.5,1.1-1.8,1.7-3,1.4-2.4-.4-3.5-1.7-3.2-3.8.3-3.2,3.2-3.6,7.9-1.6l1.6.7-.5.6-1.1,1.3-.6.7,1,.9,1,.8,1.1-.8c.4-.3.8-.7,1.2-1.1,0-.2.6.3,1.1.9,3.1,3.4,6.3,6.7,9.7,9.7,1.7,1.3,2.5,1.3,3.5,0,.4-.5.7-1.1.6-1.2s-2.7-3.2-6-6.3l-5.8-6,.6-.9.7-.8-1-.9-1-.8-.9.7c-.8.6-1,.6-1.6.3l-2.5-1c-2.8-.7-5.7-.7-8.4,0h0Z"/>
    <path id="path198" class="cls-1" d="M416.6,133l-.7.8,4.3,4.6,4.3,4.6-.7.9c-.3.3-.6.7-.9.9-.8-.5-1.5-1.2-2.2-1.9-2.8-2.6-3.8-3.2-5.2-3.2-1.3,0-2.6.4-3.5,1.4-1.5,1.2-2.3,3-2,5,.1,2.3,1.1,4.4,2.8,6l1.5,1.8-.5,1.4c-.3.8-.6,1.6-.7,1.7s.4.9,1.2,1.6c1.6,1.5,1.7,1.5,2.4-1.2.4-1.6.6-1.8,1.1-1.8,1.6.2,3.1-1,3.2-2.6,0-.8-.2-1.6-.7-2.3-1.1-.7-2.6-.7-3.7,0-.6.5-.8.5-1.3.2-1.1-1.1-1.8-2.6-1.8-4.2-.2-1.3.5-2.6,1.7-3.2,1-.5,1.8,0,5.1,3.2l3.2,3,1.9-1.7c1-.9,2-1.8,2.1-1.9s.8.3,1.5,1l1.4,1.2,1-.7.9-.7-.9-.9c-.5-.5-3.7-3.7-7.3-7.2l-6.3-6.2s-.9.6-.9.6Z"/>
    <path id="path200" class="cls-1" d="M431.8,149.4l-.9.9,5,5.8,5,5.9.8-.6c.4-.3.8-.7.8-.8s-8.3-10.3-9.5-11.7c-.5-.4-.6-.4-1.3.4Z"/>
    <path id="path202" class="cls-1" d="M101.6,158.9c-2,2.6-5.9,8.4-6.8,10s-.7,1.8.7,2.4c.8.3.9.3,1.3-.3l2.8-4.1,2.4-3.5.8.5c.7.4,1.3.9,1.9,1.5.9.7,1.1,1.1,1.1,1.8,0,1.5-.8,2-3.2,2.2h-2v3.2h4.3c2.3,0,6-.2,8.2-.4l4.1-.4s.2-.7.2-1.5v-1.5h-1.1c-.6,0-2.6,0-4.4.3-1,0-2.1,0-3.2,0,0,0,0-.5.3-1,.3-.8.5-1.7.4-2.6,0-1.6,0-1.8-.9-2.5-.7-.5-1.4-1-2.2-1.5-1.7-1-1.9-1.7-1.2-2.9l.5-.9-.9-.3c-1.2-.9-1.8-.5-3.4,1.5Z"/>
    <path id="path204" class="cls-1" d="M425.8,157.3c-1.1.7-2,1.7-2.6,2.8-.5,1-.6,1.5-.6,4.4s0,3.4.6,4.1.8.8,2.1.9c.5,0,1,0,1.5,0,0,0-.2-1-.5-2.2-.8-3.2-.2-6.1,1.6-6.7,1.8-.7,3.9.2,4.6,2,0,.3.2.5.2.8v1.2l-1.3.2-1.5.3c0,.6,0,1.2,0,1.8.3,1.6.3,1.7,1,1.5.8-.2,1.7-.3,2.5-.3,1-.3,2-.1,2.9.4l1.1.5.9-1c.4-.5.8-1.1.7-1.2-.6-.4-1.2-.7-1.9-.9l-1.8-.7v-1.6c0-.9-.2-1.8-.5-2.6-.9-1.6-2.3-2.9-4.1-3.6-1.6-.3-3.2-.4-4.8,0h0Z"/>
    <path id="path206" class="cls-1" d="M442.6,163.3c-.7.3-1.2.6-1.2.8s2.1,3.5,4.7,7.5l4.8,7.6c0,.2-.4.7-1.4,1.4l-1.6,1.1-1.7-1.3c-1.6-1.1-1.7-1.3-1.7-2.3-.2-1.7-.7-3.5-1.6-5-.9-2-3-3.2-5.1-3-2.8,0-5.3,1.8-5.9,4.6-.4,2.3-.5,4.7-.3,7,.2.8.2.9,1.6.9h1.4v-3c.2-4.6,1.1-5.9,3.8-5.6,1.4,0,2.6,1,2.8,2.3,0,.5.2,1.3.3,1.7s0,.8-.9.8-1.7.4-1.7,2v1.3h1.9c2.7,0,4.6.4,4.4,1-1.2,1.3-2.5,2.4-3.9,3.5-1.5,1-2.9,2-4.2,3.2.2.5.5,1.1.9,1.6l.8,1.3,1-.6,7.4-4.7,6.3-4,.8.6c.8.6.9.6,1.5,0s.6-.6.6-.8-12.1-20.2-12.4-20.3c-.5.1-1,.3-1.5.7h0Z"/>
    <path id="path208" class="cls-1" d="M92.7,172.5c-1.4,2.3-2.7,4.6-3.8,7,.3.3.7.4,1.1.5,1,.3,1,.3,1.8-.7l.9-1,7.6,4c4.2,2.3,7.7,4.1,7.8,4.1s1.3-2.2,1.2-2.8-2.7-2.3-10.7-6.8l-3.8-2.1.4-1.1c.3-1,.3-1.1-.3-1.3-1.6-.4-1.8-.4-2.2.2Z"/>
    <path id="path210" class="cls-1" d="M456.1,174.7c-1.7.6-2.5,2.4-1.9,4.1,0,.2.2.4.3.6.6,1.1,1,1,2.2-.3.9-1.3,2.6-1.7,3.9-.8.3.2.6.5.8.8.7.5,1,1.3,1,2.1-.2,1.7-.9,3.3-2,4.6-1.5,1.8-2,2.2-2.4,1.3,0-.3-.4-.9-.5-1.3s-.3-.7-1.4-.4c-.4,0-.9.3-1.2.4,0,.6,0,1.1.2,1.7l.4,1.6-7.7,3.6-7.6,3.7v.8c.3,1.3,1.2,2.6,2,2.6,4.1-1.6,8.1-3.5,12-5.8l3.2-1.7.5.9.5.9,1-.4c1.7-.7,1.8-1,1.3-2.1l-.5-1,1.4-1.5c.9-1.1,1.7-2.3,2.4-3.5.8-1.4,1.1-3,.9-4.5,0-2.3-.2-2.7-1-3.8-1-1.7-2.9-2.9-5-2.9-.9,0-1.8,0-2.6.3h0Z"/>
    <path id="path212" class="cls-1" d="M87.5,181.4c-1.5,1.7-2.5,3.7-2.9,5.9,0,.9.2,1,.9,1.1.6,0,1.1-.2,1.5-.6.3-.4.8-.6,1.3-.7,1.6.4,3.1,1.1,4.4,2.1-.6,1.4-1.3,2.8-2.3,4-.9-.2-1.8-.5-2.6-.9-3.2-1.5-4.4-1.5-6,0-1.3,1-2,2.7-1.9,4.4,0,1.4,0,1.7.9,2.4.4.5,1.1.9,1.8.8,1.2,0,1.7-.4,1.7-1.6s0-.9-.5-.9c-.6-.2-1.1-.7-1.1-1.3,0-.3.3-.6.5-.8.5-.5.7-.5,1.6-.3.8.3,1.6.6,2.3,1l1.3.6-.2,1.5c0,.6-.2,1.3-.3,1.9,0,.3.3.3,1.5.3,2.1,0,4.2-.9,5.8-2.3l1.2-1.1-1.4-1.4c-1.2-1.2-1.4-1.5-1.2-2,.4-1,.9-2,1.5-2.9l3.8,1.7c1.2.7,2.5,1.2,3.9,1.6,0,0,.6-.8,1.1-1.5.3-.5.6-1,.9-1.5,0,0-3.4-1.9-7.6-4-2.6-1.1-5.2-2.5-7.5-4.1.1-.4.3-.9.3-1.4,0-.9,0-1-.5-1.2-1.1-.3-1.2-.2-2.2,1Z"/>
    <path id="path214" class="cls-1" d="M73.3,251.8c-1.5.9-2.8,2.1-3.7,3.5-.7,2.1-.7,4.3,0,6.3.7,1.2,1.6,2.1,2.7,2.9,1.9.6,4,.6,5.9,0,1.4-1,2.4-2.3,3.2-3.8.7-1.7.7-3.7,0-5.5-.8-1.5-2.1-2.8-3.7-3.5-1.5-.4-3-.4-4.5,0Z"/>
    <path id="path216" class="cls-1" d="M477.3,252.3c-1.4.7-2.5,1.8-3.2,3.2-.6,1.8-.5,3.7.2,5.4.8,1.5,2.1,2.8,3.6,3.5,1.8.6,3.7.5,5.4-.2,3.1-1.5,4.6-5,3.5-8.3-.7-1.5-1.8-2.8-3.2-3.7-2.1-.4-4.3-.4-6.4.1Z"/>
    <path id="path218" class="cls-1" d="M72.1,316.9c-4.7.9-8.7,1.7-8.8,1.8,0,1.4,0,2.9.4,4.3.2.3,2.1,0,9.1-1.1l8.9-1.5v-1.9c0-2.1-.3-3.2-.7-3.2s-4.2.6-8.9,1.5Z"/>
    <path id="path220" class="cls-1" d="M464.9,316.8c0,.7,0,1.4,0,2.2,0,.9.3,1.4,1,1.5,2,.3,7,1.2,10.1,1.9,1.6.4,3.3.6,4.9.7,2,0,1.9,0,2.3-2.8.2-1.5.2-1.6-.4-1.7s-16.6-2.6-17.1-2.6-.7.3-.8.9Z"/>
    <path id="path222" class="cls-1" d="M73.8,326.1c-4.8,1-8.8,2-8.9,2.1,0,1.5,0,3,.4,4.5.2.3,2.1,0,10.4-2.3-1.1,1.5-2.4,2.9-3.9,4.2l-4.4,4.3v1.4c0,1.2.2,2.4.6,3.6,0,0,17.6-3.7,17.9-3.9,0-1.5-.2-2.9-.8-4.3-.3,0-7.9,1.3-9.5,1.7,1.1-1.6,2.4-3.1,3.9-4.3l4.3-4.5-.5-2.1c-.2-.7-.4-1.5-.6-2.2,0,0-4.1.9-8.9,1.9Z"/>
    <path id="path224" class="cls-1" d="M463.2,325.1c-.3.8-.5,1.6-.6,2.4v1.6h1c.9,0,1.7.3,2.5.5.7.3,1.4.4,2.1.5.6,0,.6,0,0,3.2-.3,1.7-.7,2.8-.9,2.8l-3-.5-3-.5c-.7,1.5-1.1,3.1-1,4.7.4.4,17.7,4,18,3.8.5-1.3.7-2.7.6-4.1-1.1-.5-2.3-.9-3.6-1.3l-3.2-1v-1.7c.4-4.2,1.1-4.6,5.8-3.2.8.3,1.7.5,2.6.6.6-1.5.9-3.1,1.1-4.7,0-.3-.6-.4-1.2-.4-4.1-.7-8-1.7-12-2.9-1.2-.3-2.4-.6-3.6-.7-1.1-.3-1.3-.2-1.7.8h0Z"/>
    <path id="path226" class="cls-1" d="M84.8,343.3l-8.6,3.2c-6.8,2.4-6.3,1.9-5.4,5.5.8,3.9,3,7.3,6.3,9.5,3.9,1.2,8.3.1,11.1-2.9,3.2-3,3.2-4.2,1-11.2-.9-2.7-1.6-4.9-1.7-4.9-1,.2-1.9.5-2.9.8ZM86,350.3c.3.6.4,1.2.4,1.8,0,.3-.2.7-.3,1.1-1,2.2-3,3.6-5.4,3.7-2.9.5-3.9-.2-5-3.5-.2-.5-.3-1-.3-1.6.2-.2,9.2-3.2,9.5-3.2s.6.8,1,1.6Z"/>
    <path id="path228" class="cls-1" d="M471.8,349.9c-.4,1.3-.9,2.6-1.5,3.8-.5.3-2.2,0-7.9-1.9-3-1-5.5-1.7-5.7-1.7-.7,1.4-1.1,2.9-1.2,4.4.4.4,17.1,5.3,17.3,5.1,1.5-4.2,2.7-8.5,3.6-12.9-.6-.2-1.3-.3-1.9-.4h-1.7s-1.2,3.5-1.2,3.5Z"/>
    <path id="path230" class="cls-1" d="M454,357.5c-.2.2-1.4,3.2-2.9,6.3-1,2-1.8,4.2-2.3,6.3.9.6,16.7,7,16.8,6.9,2.1-4.2,3.9-8.5,5.4-12.9-1.1-.6-2.3-.9-3.6-.9,0,0-.9,1.9-1.7,4s-1.6,3.8-1.7,3.9c-1.2-.3-2.4-.7-3.6-1.2,0,0,.7-1.8,1.6-3.9,1.6-3.7,1.6-3.9,1.1-4.3-.8-.6-1.8-1.1-2.8-1.3-.7,1.2-1.3,2.5-1.8,3.8-1,2.3-1.7,3.6-1.9,3.6-.5-.1-1-.3-1.6-.3-.8,0-1.2-.3-1.2-.5s1-2.2,1.9-4.5c.7-1.4,1.2-2.8,1.6-4.3-.4-.2-.9-.4-1.4-.5l-1.5-.5c-.2,0-.5,0-.6.2h0Z"/>
    <path id="path232" class="cls-1" d="M85.7,364.2c-4.4,1.9-8.1,3.6-8.2,3.7.2,1.6.8,3.1,1.7,4.4.5,0,16.4-6.9,16.6-7.1-.3-1.6-1-3.1-1.8-4.5,0,0-3.9,1.5-8.3,3.5Z"/>
    <path id="path234" class="cls-1" d="M89.1,374.5l-8.9,1.1.8,2.2.9,2.2h4l1.3,2.7,1.3,2.7-1.3,1.2-1.3,1.2,1,1.9c.3.8.8,1.5,1.3,2.1,4.8-4.2,9.4-8.6,13.6-13.4-.2-.9-.4-1.8-.7-2.7l-.8-2.2h-1.1c-.6,0-5.2.5-10.1,1.1ZM95.5,378.2c-1.1,1.4-2.3,2.6-3.8,3.6-.3,0-.8-.5-1.2-1.4-.9-1.8-1-1.8,3.7-2.3h1.1s.4,0,.4,0h-.3Z"/>
    <path id="path236" class="cls-1" d="M447.5,375.9c-3,1.9-5.3,4.7-6.5,8.1-1,2-1.2,2.6-.9,2.8l3.8,2.2c1.9,1.1,5,3,7,4.2,1.3.9,2.7,1.6,4.2,2.2,1.1,0,3.2-3.2,5-7,.6-1.3,1-2.7.9-4.1.2-2.1-.7-4.1-2.4-5.4-2-2.1-4.8-3.3-7.7-3.5-1.2-.2-2.3,0-3.4.6ZM452.8,381c2.7,1.4,3.9,2.9,3.6,4.6-.3,1.2-.9,2.4-1.6,3.5-.2,0-8.4-4.3-8.7-4.6s1-3.6,2.1-4.1c1.5-.3,3.1-.2,4.5.4v.2Z"/>
    <path id="path238" class="cls-1" d="M98.1,389.6c-4.2,2.6-7.6,4.8-7.7,5,.6,1.4,1.4,2.8,2.3,4.1,1.5-.8,2.9-1.7,4.2-2.7,1.3-1,2.7-1.9,4.2-2.7,0,0-1,2.3-2.2,5-.9,1.9-1.7,3.8-2.4,5.7,0,.7,0,1,1.1,2.3s1.5,1.4,1.9,1.4c5.2-2.8,10.2-6,14.8-9.5-.6-1.1-1.2-2.2-2-3.2-.3-.3-2.4.9-8.7,4.8l-1.1.6.6-.9c2.1-3.3,3.8-6.9,5.2-10.6-.6-1.5-1.4-2.8-2.4-4,0,0-3.5,2.2-7.7,4.8Z"/>
    <path id="path240" class="cls-1" d="M433.1,395.8c-.6.6-1,1.3-1.5,2.1.5,1.2,1.1,2.4,1.8,3.6,1,1.7,1.7,3.2,1.7,3.2-1.4,0-2.7-.3-4.1-.6-.7-.2-1.5-.3-2.2-.3-.8-.1-1.6.2-2,.9-1.1,1.2-1.9,3.2-1.5,3.4s3.2.4,6.3.6l6,.5,2.9,2.2c1,.8,2.1,1.5,3.2,2.2.9-1.3,1.6-2.7,2.2-4.2-.4-.3-.8-.6-1.3-.8-2.5-1.3-4.2-3.5-7-9.3-.8-1.8-1.7-3.6-2.7-5.2-.7.5-1.3,1.2-1.8,1.9h0Z"/>
    <path id="path242" class="cls-1" d="M118,409.4c-3.2,2.3-6.3,4.8-9.3,7.4-1,1-1.6,1.7-1.6,2.1.5,1.2,1.5,2.2,2.6,2.8.4,0,14.2-11.1,14.2-11.5-.7-1.1-1.7-2.1-2.8-2.7-1.1.4-2.2,1-3.1,1.8Z"/>
    <path id="path244" class="cls-1" d="M422.7,411.1c-2.4.8-4.5,2.4-5.7,4.7-.5,1.4-.7,2.9-.5,4.3-.2,1.6,0,3.1.7,4.5,1.2,2.1,3,3.7,5.2,4.7,1.4.8,3,1.1,4.7,1,2.4,0,2.7,0,3.9-.8,2-1.5,3.1-3.9,3.2-6.3,0-.6.1-1.2.3-1.8.3.1.6.3.9.4s.6.3.9.4c.7-.6,1.2-1.4,1.6-2.3-2.2-2.3-4.6-4.4-7.2-6.3,0,0-1.4,1.4-2.9,3.2-3,3.5-3,3.2-.7,4.9l1,.8.9-1.3c.6-1,1.1-1.4,1.5-1.4,1.7,0,1.3,3.2-.6,4.9s-5.6.6-7.7-1.4c-1.2-1-1.8-2.4-1.8-3.9,0-2.3,1.3-3.7,3.9-4,1.2-.2,1.4-.3,2.7-2,.8-1.1,1.2-1.9,1.1-2-1.8-.3-3.6-.3-5.4,0h0Z"/>
    <path id="path246" class="cls-1" d="M120.2,418.9l-6.3,6.2-.9.9,1.5,1.8,1.6,1.8,3.9-3.7c2.3-2.2,3.9-3.6,3.9-3.2-.4,1.6-.9,3.2-1.5,4.8-2.1,6.1-2,7.3.6,9.3l1.3,1,6.3-6.3c3.6-3.5,6.5-6.3,6.6-6.3-.4-.7-.9-1.3-1.4-1.9l-1.6-1.7-3.7,3.6c-2.2,2-3.9,3.6-3.9,3.6s.9-2.7,1.9-5.8l1.9-5.7-2-1.8c-.7-.7-1.4-1.3-2.3-1.8,0,0-2.9,2.4-5.9,5.3h0Z"/>
    <path id="path248" class="cls-1" d="M407.3,426.6c-3.8,1.3-6.2,5.1-5.7,9.1,0,2.5,1.1,4.9,2.8,6.7,1.7,2,4.2,3.2,6.8,3.2,1.3.2,2.6,0,3.7-.6,2.1-1.1,3.8-2.7,5-4.7.7-1.1,1-2.5.8-3.8.1-1.4-.1-2.9-.8-4.2-1.2-2.3-3-4.3-5.2-5.6-1.1-.6-2.4-.8-3.7-.7-1.3,0-2.5.2-3.7.5ZM410.9,430.8c2.5.9,4.4,2.8,5.3,5.3.6,2.2-.7,4.4-2.9,5h0c-.8.3-1.7.2-2.3-.3-2.4-1.3-4.2-3.4-5.1-6-.2-1,.9-2.7,2.3-3.6,1.4-1,1.3-.9,2.8-.4h0Z"/>
    <path id="path250" class="cls-1" d="M137.1,429.8c-.6.3-1.1.7-1.6,1.1-.6.7-.7,1-.7,3.2-.1,2.4.7,4.8,2.3,6.7,1.4,2.1,1.6,3.2.9,4s-.5.4-1.7,0c-.8-.4-1.5-1-2.2-1.7-1-1.1-1-1.4-.3-3.4,0-.5,0-.8-1.3-1.9l-1.5-1.3-.7.7c-1,.8-1.6,2.1-1.5,3.4,1,4.3,4.6,7.6,9,8.3,1.6,0,3.1-.6,4.1-1.8l1-1v-5l-1.6-2.4c-1.9-3-2.2-3.7-1.8-4.6s1.7-1,3.2,0,1,.9,1,2.3c-.2,1,.2,1.9,1,2.4,2.3,2.1,2.1,2.1,2.7,1,.8-1.8.8-3.9,0-5.7-1-1.8-2.6-3.2-4.4-4.2-1.9-.8-4.1-.8-6.1,0Z"/>
    <path id="path252" class="cls-1" d="M150.3,438.9l-1.1,1.2,1.9,1.9c.7.6,1.4,1.3,1.9,2.1,0,.2-5.8,8.4-7.9,11.2,0,.2.3.7,1.6,1.7.6.5,1.3,1,2,1.3,0,0,2.1-2.6,4.5-5.6l4.3-5.7c.7.3,1.4.6,2.1,1.1,1.1.7,2.1,1.2,2.2,1.3s.6-.6,1.1-1.3.9-1.5.6-1.7-11-7.8-11.7-8.3c-.2,0-.8.3-1.4,1h0Z"/>
    <path id="path254" class="cls-1" d="M388.4,442.5c-1,.8-1.5,1.4-1.3,1.5l5.6,7.3c3,3.8,5.4,7,5.6,7s10.1-8.3,10.4-8.8,0-.8-.9-1.7l-1.2-1.4-3.2,2.5-3.5,2.7c-.2.2-1.8-1.6-4.9-5.1-1.5-1.8-3.1-3.6-4.9-5.3-.6.3-1.3.8-1.8,1.3h0Z"/>
    <path id="path256" class="cls-1" d="M162.8,452.8c-7.3,11.6-7,10.9-4.5,12.2.6.3,1.2.6,1.8.8.3,0,10-15,10-15.4-1.4-.9-2.8-1.6-4.3-2.2-1.1,1.4-2.1,3-3,4.5Z"/>
    <path id="path258" class="cls-1" d="M377.9,449c-2,1.1-3.7,2.7-4.9,4.6-.5,1.2-.7,2.5-.6,3.8-.2,1.4,0,2.8.7,4.1,1.3,2.3,3.1,4.2,5.3,5.6,3.7,1.4,7.9.4,10.7-2.3,1.8-1.4,2.6-3.7,2.3-6,.2-1.5,0-3-.7-4.3-1.3-2.3-3.1-4.2-5.3-5.6-1.1-.6-2.4-.9-3.7-.7-1.3-.1-2.6,0-3.8.7ZM382.1,453c2.6,1,4.4,3.3,4.8,6,0,1.6-.7,3.1-2,4-.7.5-1.5.7-2.3.4-1.4-.2-2.6-.8-3.6-1.8-1.1-1.5-1.8-3.2-2-5.1-.2-1,.3-1.9,1-2.4,1-1.2,2.7-1.7,4.1-1h0Z"/>
    <path id="path260" class="cls-1" d="M171.4,453.9c-1,1.5-1,1.6,1.6,2.9,1.1.5,1.9,1,1.9,1.2s-1.6,3.2-3.5,6.6c-1.4,2.1-2.4,4.3-3.2,6.7,1.1.7,2.3,1.3,3.6,1.7,0,0,1.6-2.7,3.4-5.8s3.4-5.9,3.6-6.1.7-.2,2.8.8l2.5,1.1.5-.6c.5-.6.8-1.4.7-2.3-3.8-3-7.9-5.5-12.3-7.5-.6,0-1,.4-1.6,1.2Z"/>
    <path id="path262" class="cls-1" d="M365.5,457c-.7.3-1.4.6-2.1,1,1.4,3.4,3,6.7,4.9,9.8.3.5-1.5-.6-5.7-3.6-1.6-1.2-3.2-2.2-5-3-.7.1-1.4.3-2.1.7-.8.3-1.7.8-2.2,1l-.7.3,4.1,8.3c1.2,2.9,2.8,5.7,4.6,8.3.7-.2,1.3-.4,1.9-.8,2.2-1.1,2.2-1.5-.6-6.7-.8-1.3-1.4-2.6-1.8-4.1l5.3,3.4c2.7,1.7,5.1,3.2,5.2,3.2,1.5-.6,3-1.3,4.3-2.2,0-.3-8.1-16.5-8.2-16.5,0,0-2,.9-2,.9Z"/>
    <path id="path264" class="cls-1" d="M186.4,461.9c-1.7,2.9-3,5.9-4,9-1.4,4.2-1.2,5.9,1.3,8.2,2.1,2.2,5.2,3.2,8.3,2.6,2.2-1.2,3.9-3,5.1-5.2,1.6-2.8,2.9-5.8,3.8-8.9v-.9l-2.1-.8c-.7-.3-1.5-.5-2.3-.6-.3.6-.6,1.2-.9,1.9-1.6,4.4-4.6,9.7-5.8,10.1-1.4.3-2.9,0-3.8-1.2-.4-.5-.4-.6,0-2.2s3.2-7.6,4.3-9.9c.3-.5.4-1,.5-1.6-1-.8-2.2-1.3-3.4-1.6,0,0-.6.4-1,1.1Z"/>
    <path id="path266" class="cls-1" d="M346.3,465.7c-.3.2-.6.4-.9.7.2,1.1.4,2.2.8,3.2.5,1.7,1,3.2.9,3.2-1.8.9-3.7,1.5-5.6,1.9-.4-1-.8-1.9-1.1-2.9-.6-1.8-1.2-2.6-1.7-2.5-1.6.3-3.7,1.5-3.7,2s6.2,16.1,6.3,16.4c1.6-.2,3.2-.6,4.7-1.3,0,0-.6-1.7-1.4-3.7-.5-1.2-.9-2.4-1.3-3.6,1.8-.8,3.6-1.5,5.5-2.1.6,1.1,1.1,2.2,1.5,3.4.4,1.2.9,2.4,1.4,3.5.8-.2,1.5-.4,2.2-.8,1.6-.7,2.1-1,2.1-1.4-1.4-5.2-3.5-10.3-6.1-15-.9-1.3-1-1.4-2-1.4-.6,0-1.1.1-1.7.4h0Z"/>
    <path id="path268" class="cls-1" d="M202.1,468.6c-.3.6-.5,1.2-.7,1.9,0,.7-.2.7,3.4,1.5.8.2,1.4.4,1.4.5s-1,3.2-2.3,6.9c-.9,2.3-1.6,4.6-2.2,6.9.6.4,1.3.7,2.1,1,1.6.6,2,.7,2.3.4s1.3-3.2,2.6-6.8,2.3-6.3,2.3-6.3c.9.1,1.7.3,2.6.5,2,.4,2.5.5,2.7.2.3-1,.5-2.1.5-3.2,0,0-13.7-4.8-13.9-4.8-.3.3-.6.8-.7,1.3h0Z"/>
    <path id="path270" class="cls-1" d="M218.6,473.5c-.4,1.2-4.1,15.9-4.1,16.3,0,.4.3.8.6,1,4,1.6,8.1,2.6,12.3,3.2.7,0,.8,0,1-.8.3-1.8.2-2.3-.8-2.8-1.9-.8-3.9-1.4-6-1.7l-1.5-.2.2-1.7c0-.6.1-1.2.3-1.8,1.4.2,2.9.4,4.3.7,1.4.3,2.8.5,4.3.7.4-1.3.6-2.6.6-3.9,0,0-2-.5-4.1-.9l-3.9-.8.2-1.2c0-.5.2-1,.4-1.5.9,0,1.8.1,2.6.5,2,.8,4.2,1,6.3.7.5-.3.6-.5.6-1.9v-1.5l-5.9-1.5-6.3-1.6c-.7-.2-.9,0-1.1.6h0Z"/>
    <path id="path272" class="cls-1" d="M323.6,473.3c-1.9.7-3.5,2.2-4.3,4-.7,1.3-1,2.7-1,4.2-.5,4.2,1.8,8.2,5.7,9.8,2.5.6,5.2.6,7.7,0,2.5-1.4,4.2-4,4.4-6.9v-1.6h-1c-3.5.5-3.2.4-3.4,1.8-.3,1.9-1,2.6-3.2,3.2-2.7.5-5-2.7-5.2-6.9,0-1.4,0-1.9.5-2.5.7-1.2,2.1-1.9,3.5-1.7.9-.2,1.7.1,2.3.7.9.9,1.3,1,3.2.3.9-.3,1.3-.6,1.3-1-.1-1.3-.8-2.4-1.8-3.2-1-.7-1.2-.8-4.2-.8-1.5-.2-3,0-4.4.4h0Z"/>
    <path id="path274" class="cls-1" d="M310.5,476.5c-.4,0-2.6.5-4.9,1s-4.3.9-4.5.9-.5,0-.7.3c-.2.3,2.8,17.6,3.2,18,4.8-.5,9.5-1.2,14.2-2.2,0-1.4-.2-2.7-.7-4-1.5,0-3,.3-4.5.7-2.4.4-4.5.8-4.7.8s-1-2.5-.8-3.2,2.3-1,5.4-1.5l2.6-.3v-1.6c0-.6,0-1.3-.3-1.8-.5-.5-2.4-.4-5.8.3-1.6.3-3,.6-3.2.6,0-.5,0-1,0-1.4v-1.4l1.9-.4,4.2-.9,2.3-.5v-1.5c0-1.5,0-1.6-.9-1.8-.9-.3-1.8-.3-2.7,0Z"/>
    <path id="path276" class="cls-1" d="M245.1,479.5c-1.6,1.2-3,2.7-3.9,4.5-.5,1.5-.7,3.1-.5,4.7,0,4.2.2,4.9,1.9,6.6,2.8,2.7,6.7,3.6,10.4,2.4,2.3-1,4.2-2.8,5.4-5,.6-1.4.8-2.9.6-4.3.2-1.5,0-3.1-.7-4.5-.8-1.9-2.3-3.5-4.1-4.4-1.2-.7-1.7-.7-4.7-.7s-3.3,0-4.4.8h0ZM252.1,483.3c1.4.8,1.9,2,1.9,4.4,0,1.2-.2,2.3-.7,3.4-1.2,2.2-1.8,2.7-4,2.7s-2,0-2.6-.7c-1.4-1.4-2-3.4-1.5-5.3.1-1.7.8-3.2,2-4.3,1.5-1,3.4-1,4.9-.1h0Z"/>
    <path id="path278" class="cls-1" d="M289.7,479.7c-1.7.3-3.3.5-5,.6h-1.3v2.1c0,2,0,2.1.6,1.9,1.5-.3,3-.4,4.5-.3,0,0,.3,3.4.6,7.2l.6,6.9h5.2v-1.4c0-.8-.3-4.2-.6-7.6l-.4-6.2h4.5v-1.9c0-1.5,0-1.9-.4-2-2.8-.2-5.6,0-8.4.7h0Z"/>
    <path id="path280" class="cls-1" d="M262.2,481c0,.3-.2,3.6-.3,7.1s-.2,7.5-.3,8.6v2.1h5.2v-7h7.6v-3.8h-7.2v-3.8h3.2c1.3,0,2.7,0,4,.2,1.4.4,1.5.2,1.5-2v-2h-13.5v.6q0,0,0,0Z"/>
  </g>
</svg>