<?xml version="1.0" encoding="UTF-8"?>
<svg id="svg1463" xmlns="http://www.w3.org/2000/svg" version="1.1" viewBox="0 0 2475.5 966.7">
  <defs>
    <style>
      .cls-1 {
        fill: #fff;
        stroke-width: 0px;
      }
    </style>
  </defs>
  <g id="layer1">
    <g id="g2302">
      <g id="g2227">
        <path id="path871" class="cls-1" d="M707.3,0L0,707.5V0h707.3Z"/>
        <path id="path875" class="cls-1" d="M1414.7,0v707.3h-707.3V0l353.7,353.7L1414.7,0Z"/>
        <path id="path879" class="cls-1" d="M1768.3,707.3v-353.7h-353.7L1768.3,0h707.3s-707.3,707.3-707.3,707.3Z"/>
      </g>
      <g id="g2262">
        <g id="g2203">
          <path id="path881" class="cls-1" d="M0,963.9h34v-155.2H0v155.2Z"/>
          <g id="g891">
            <path id="path893" class="cls-1" d="M87.6,851.5v15.6h.7c7.9-13.1,21.3-18.6,34.2-18.6,34.4,0,41,20.8,41,46.2v69.2h-30.8v-63.4c0-20.1-6.1-27.6-19.7-27.6s-23.8,10.9-23.8,32.1v59h-30.8v-112.4h29.4-.2Z"/>
          </g>
          <g id="g899">
            <path id="path901" class="cls-1" d="M232.1,946.1c5.7,0,20.2-2.2,20.2-14.3s-3-8.1-9.1-10.4c-6.1-2.3-14.7-4.7-25.8-7-18.8-4.3-35.7-10.4-35.7-29.9,0-28.5,24.5-36,48.9-36s47.3,9,49.5,35.8h-29.4c0-12.2-11.8-15.2-21.1-15.2s-17.2,1.3-17.2,10.4,14.2,12.2,22.2,14c7.9,1.6,18.3,3.9,26,6.5,13.8,4.7,22.4,13.6,22.4,27.8,0,22.2-15.6,38.9-51.2,38.9s-51.6-10.6-52.9-39.2h29.4c0,14.7,13.8,18.8,23.7,18.8"/>
          </g>
          <g id="g907">
            <path id="path909" class="cls-1" d="M360.2,851.5v20.6h-22.6v55.5c0,12.2,3.2,14.5,22.6,12.2v23.8c-5.7.9-11.8,1.1-18.1,1.1-19.7,0-35.5-4.3-35.5-26.5v-66.3h-18.6v-20.6h18.6v-33.7h30.8v33.7h22.6l.2.2Z"/>
          </g>
          <g id="g911">
            <path id="path913" class="cls-1" d="M491.2,851.5v20.6h-22.6v55.5c0,12.2,3.2,14.5,22.6,12.2v23.8c-5.7.9-11.8,1.1-18.1,1.1-19.7,0-35.5-4.3-35.5-26.5v-66.3h-18.6v-20.6h18.6v-33.7h30.8v33.7h22.6l.2.2Z"/>
          </g>
          <g id="g915">
            <path id="path917" class="cls-1" d="M692.8,851.5v20.6h-22.6v55.5c0,12.2,3.2,14.5,22.6,12.2v23.8c-5.7.9-11.8,1.1-18.1,1.1-19.7,0-35.5-4.3-35.5-26.5v-66.3h-18.6v-20.6h18.6v-33.7h30.8v33.7h22.6l.2.2Z"/>
          </g>
          <path id="path919" class="cls-1" d="M376.8,808.7h30.8v25.4h-30.8v-25.4ZM407.8,963.9h-30.8v-112.4h30.8v112.4Z"/>
          <g id="g929">
            <path id="path931" class="cls-1" d="M580.9,963.7v-15.6h-.7c-7.7,12.9-21.1,18.5-34.4,18.5-28.5,0-41-13.1-41-46.1v-69.2h30.8v63.4c0,17.6,4.3,27.6,19.7,27.6s23.8-12.4,23.8-32.1v-59h30.8v112.4h-29.4.4Z"/>
          </g>
        </g>
        <g id="g2213">
          <g id="g895">
            <path id="path897" class="cls-1" d="M1040,851.5v15.6h.7c7.9-13.1,21.3-18.6,34.2-18.6,34.4,0,41,20.8,41,46.2v69.2h-30.8v-63.4c0-20.1-6.1-27.6-19.7-27.6s-23.8,10.9-23.8,32.1v59h-30.8v-112.4h29.4-.2Z"/>
          </g>
          <g id="g903">
            <path id="path905" class="cls-1" d="M1306.5,946.1c5.7,0,20.2-2.2,20.2-14.3s-3-8.1-9.1-10.4c-6.1-2.3-14.7-4.7-25.8-7-18.8-4.3-35.7-10.4-35.7-29.9,0-28.5,24.5-36,48.9-36s47.3,9,49.5,35.8h-29.4c0-12.2-11.8-15.2-21.1-15.2s-17.2,1.3-17.2,10.4,14.2,12.2,22.2,14c7.9,1.6,18.3,3.9,26,6.5,13.8,4.7,22.4,13.6,22.4,27.8,0,22.2-15.4,38.9-51.2,38.9s-51.6-10.6-52.9-39.2h29.4c0,14.7,13.8,18.8,23.7,18.8"/>
          </g>
          <path id="path935" class="cls-1" d="M814.1,808.7l36.2,106.6h.4l34.2-106.6h48v155.2h-31.9v-109.8h-.4l-38,109.8h-26.3l-38-108.8h-.4v108.8h-31.9v-155.2s48,0,48,0Z"/>
          <path id="path937" class="cls-1" d="M958.1,808.7h30.8v25.4h-30.8v-25.4ZM989,963.9h-30.8v-112.4h30.8v112.4Z"/>
          <g id="g947">
            <path id="path949" class="cls-1" d="M1189.8,943.6c13.3,0,22.6-8.2,24.4-14.5h27.1c-8.1,25.3-25.3,37.6-52.5,37.6-39.4,0-57.3-28.3-57.3-58.8s25.6-59.3,57.3-59.3,56.8,31.2,54.5,66.7h-81c.9,21,11.3,28.5,27.6,28.5M1187.9,871.6c-16.3,0-24.7,10.6-25.6,23.8h50.2c-2.7-14.3-8.6-23.8-24.5-23.8"/>
          </g>
        </g>
        <path id="path951" class="cls-1" d="M1388.4,917.6h65.4v-26h-65.4v26Z"/>
        <g id="g2222">
          <path id="path955" class="cls-1" d="M1449.8,837.4v-28.7h127v28.7h-46.4v126.5h-34v-126.5h-46.6Z"/>
          <path id="path957" class="cls-1" d="M1688.7,963.9h30.8v-155.2h-30.8v155.2Z"/>
          <path id="path969" class="cls-1" d="M1917,871.6c-17.9,0-26.3,17-26.3,36.6s6.6,35.5,25.6,35.5,22.8-10.9,24.5-22.8h29.7c-4.1,30.6-25.3,45.9-54.1,45.9s-56.6-25.1-56.6-57.3,21.3-60.7,57.3-60.7,51.1,14.3,52.9,42.6h-30.3c-2-12.9-9.7-19.4-22.8-19.4"/>
          <path id="path973" class="cls-1" d="M2039.9,848.5c33.7,0,58.2,21.9,58.2,59.3s-21.7,59-58.2,59-58.1-25.6-58.1-59,22-59.3,58.1-59.3M2039.9,943.6c18.6,0,27.4-14.3,27.4-35.8s-11.8-36-27.4-36-27.2,9.9-27.2,36,7.2,35.8,27.2,35.8"/>
          <path id="path977" class="cls-1" d="M2144,851.5v15.2h.4c8.2-11.8,19.7-18.3,34.4-18.3s27.6,6.3,32.8,18.6c7.2-10.6,18.8-18.6,33.9-18.6,22.4,0,41,9.7,41,40.1v75.3h-30.8v-63.6c0-13.6-.5-27.4-18.8-27.4s-20.6,14.9-20.6,28.5v62.5h-30.8v-63.1c0-14.5,0-28-18.6-28s-20.8,3.6-20.8,25.8v65.2h-30.8v-112.4h29-.2Z"/>
          <path id="path981" class="cls-1" d="M1772.7,936.8c4.7,4.5,11.3,6.8,20.1,6.8s11.6-1.6,16.1-4.7c4.5-3,7.2-6.5,8.2-9.9h27.1c-4.3,13.4-10.9,23.1-20.1,28.8-9,5.7-19.9,8.6-32.6,8.6s-16.8-1.4-23.8-4.3c-7.2-2.9-13.1-6.8-18.1-12-5-5.2-8.8-11.5-11.5-18.6-2.7-7.2-3.9-15.2-3.9-23.8s1.4-16.3,4.1-23.5,6.6-13.4,11.6-18.8c5-5.2,11.1-9.5,18.1-12.5,7-3,14.9-4.7,23.3-4.7s17.9,1.8,24.9,5.6c7.2,3.8,12.9,8.6,17.6,14.9,4.5,6.3,7.9,13.3,9.9,21.3,2,7.9,2.7,16.3,2.2,25.1h-81c.4,10,3,17.2,7.5,21.7M1807.5,877.9c-3.8-4.1-9.3-6.1-16.8-6.1s-9,.9-12.4,2.5c-3.2,1.6-5.9,3.8-7.9,6.1-2,2.5-3.4,5-4.1,7.9-.7,2.7-1.3,5.2-1.4,7.3h50.2c-1.4-7.9-3.9-13.8-7.7-17.7M1797.1,793.3l-23.1,38.5h21.5l35.5-38.5h-33.9Z"/>
          <path id="path985" class="cls-1" d="M1597.1,936.8c4.7,4.5,11.3,6.8,20.1,6.8s11.6-1.6,16.1-4.7c4.5-3,7.2-6.5,8.2-9.9h27.2c-4.3,13.4-10.9,23.1-20.1,28.8-9,5.7-19.9,8.6-32.6,8.6s-16.8-1.4-23.8-4.3c-7.2-2.9-13.1-6.8-18.1-12-5-5.2-8.8-11.5-11.5-18.6s-3.9-15.2-3.9-23.8,1.4-16.3,4.1-23.5c2.7-7.2,6.6-13.4,11.6-18.8,5-5.2,11.1-9.5,18.1-12.5,7-3,14.9-4.7,23.3-4.7s17.9,1.8,25.1,5.6c7.2,3.8,12.9,8.6,17.6,14.9,4.5,6.3,7.9,13.3,9.9,21.3,2,7.9,2.7,16.3,2.2,25.1h-81c.4,10,3,17.2,7.5,21.7M1632.1,877.9c-3.8-4.1-9.3-6.1-16.8-6.1s-9,.9-12.4,2.5c-3.2,1.6-5.9,3.8-7.9,6.1-2,2.5-3.4,5-4.1,7.9-.7,2.7-1.3,5.2-1.4,7.3h50.2c-1.4-7.9-4.1-13.8-7.7-17.7M1621.5,793.3l-23.1,38.5h21.5l35.5-38.5h-33.9Z"/>
        </g>
      </g>
    </g>
  </g>
</svg>