<?xml version="1.0" encoding="UTF-8"?>
<svg id="Layer_1" data-name="Layer 1" xmlns="http://www.w3.org/2000/svg" viewBox="0 0 2088.61 1997.93">
  <defs>
    <style>
      .cls-1, .cls-2, .cls-3, .cls-4, .cls-5, .cls-6, .cls-7 {
        stroke-miterlimit: 33.89;
      }

      .cls-1, .cls-2, .cls-3, .cls-4, .cls-8 {
        fill: #fff;
      }

      .cls-1, .cls-2, .cls-3, .cls-4, .cls-8, .cls-9 {
        fill-rule: evenodd;
      }

      .cls-1, .cls-3, .cls-5 {
        stroke-width: .01px;
      }

      .cls-1, .cls-5 {
        stroke: #fff;
      }

      .cls-2, .cls-3, .cls-4, .cls-6, .cls-7 {
        stroke: #2d67a0;
      }

      .cls-2, .cls-7 {
        stroke-width: .1px;
      }

      .cls-4 {
        stroke-width: 3.63px;
      }

      .cls-5, .cls-6, .cls-7 {
        fill: none;
      }

      .cls-6 {
        stroke-width: 11.15px;
      }

      .cls-8, .cls-9 {
        stroke-width: 0px;
      }

      .cls-9 {
        fill: #2d67a0;
      }
    </style>
  </defs>
  <path class="cls-9" d="M1269.8,1191.69c143.6-50.39,194.01-113.36,231.78-161.24,60.47-68.04,95.76-181.41,95.76-292.26l-5.05-65.51-7.55-73.06-10.08-68.03-10.08-65.51c-2.53-20.17-5.05-42.84-2.53-62.98-2.5-57.95,12.62-113.38,62.99-151.16l-25.2-32.75c22.67-20.16,32.75-40.31,20.17-45.36,7.55-5.03,95.73-105.81,12.59-60.47,17.65-10.08,30.25-40.31,35.29-60.47-32.75,5.05-45.37,10.08-78.12,20.16l-78.09,30.23-52.89-70.54-22.7-30.23c-5.05,7.56-10.05,12.59-15.1,17.63-30.25,27.72-75.59,27.72-115.9,22.68l-75.59-12.59-60.47-7.56c-55.42-10.06-120.94-12.59-178.88-7.56l-70.54,7.56-85.65,15.12c-52.92,7.56-125.98,17.63-158.72-37.79l-83.14,105.82c-10.08-2.52-25.2-7.56-42.83-10.08-2.53,10.08,7.56,27.72,20.16,42.83l-12.66,17.64-70.54,93.23c65.51,47.87,65.51,131.01,57.95,204.07l-20.16,123.46-7.56,65.51c-5.05,37.79-7.56,78.1-5.05,118.41,5.05,206.6,128.49,362.8,319.96,428.31l40.31,15.12c62.99,27.72,125.98,52.89,178.88,105.81,2.53-2.53,5.03-2.53,5.03-5.05,63.01-57.96,138.58-85.68,214.17-113.39h0Z"/>
  <path class="cls-3" d="M781.03,52.9l25.2-5.03,113.37-17.64,75.59-7.56c73.05-7.56,148.63,2.52,216.69,12.61l100.78,17.63c42.84,2.52,88.18,0,118.4-30.23l5.05-7.56,68.04,90.7c-10.08,2.52-25.2,7.56-35.29,12.59h-2.5l-35.29-47.87c-35.26,20.16-75.56,22.68-118.4,20.16l-57.96-10.08-73.06-12.59-78.09-7.56c-45.34-5.05-93.23-2.52-138.57,2.52l-62.98,10.08-108.34,15.12c-40.31,2.52-80.62-2.52-113.38-20.16l-40.32,52.92c-12.59-2.52-25.19-7.56-37.79-12.61l73.06-95.73c25.2,35.28,65.51,37.79,105.82,40.31Z"/>
  <path class="cls-2" d="M1660.31,60.47c-17.63,40.31-32.75,52.9-57.94,60.47l-110.85,35.28c-17.65,5.05-35.29,17.63-55.45,25.19-75.56-27.72-133.52-5.05-158.72,2.52-35.26,12.59-62.97,30.23-93.2,52.9-2.42-4.72-7.31-7.66-12.62-7.56,5.05,5.05,10.08,17.64,12.62,22.68,2.5,0,15.1-7.56,25.17,0,10.08,10.08-2.5,20.16-7.55,30.23,12.59-10.08,22.67-15.12,35.26-10.08,12.59,10.08-5.05,25.2-10.08,32.75,10.08,0,20.17-10.08,32.75-2.52,5.05,10.08-7.55,15.12-17.63,20.16,10.08,0,22.67,5.05,30.25,12.59-12.62,7.56-27.74,0-42.84-2.52-27.72-7.56-35.29-17.64-62.99-25.19-7.55-2.52-20.14-5.05-27.72-2.52-5.05-2.52-12.59-2.52-17.63-2.52,40.3-12.59,30.25-60.47,47.87-90.7,20.14-35.28,60.47-42.83,95.73-47.87,47.87-7.56,98.26-5.03,141.1-17.64l37.79-10.08,60.46-22.68,85.65-30.23c22.7-7.55,45.37-17.63,70.54-22.67Z"/>
  <path class="cls-2" d="M1662.84,108.32c-7.57,15.12-30.25,47.87-47.87,57.95-30.22,17.64-68.01,25.2-105.81,30.23-25.2,5.05-30.25,0-55.42-2.52l-15.12-2.52c57.94-30.23,108.35-42.84,173.85-60.47,32.72-12.59,37.79-17.64,50.37-22.68h0ZM1050.62,166.29c-15.12,2.52-30.23,0-40.31,20.16-5.03-2.52,0-12.61,5.05-15.12,10.06-7.56,25.17-10.06,35.26-5.03ZM1614.97,188.96c-2.5,7.56-12.59,22.68-20.17,30.25-12.59,10.08-17.63,15.12-52.89,22.67-27.72,2.52-78.09,7.56-83.14-2.52,37.77-15.12,37.77-27.72,45.34-32.75,30.22-2.52,60.47-7.56,108.35-25.19,5.03-2.54,7.55,2.5,2.5,7.54ZM1408.36,183.92c17.65,5.03,30.25,10.08,22.67,12.59-62.97,12.59-98.23,20.16-206.58,62.98,2.5-2.52-5.05-12.59-7.55-15.11-2.53-2.52-17.65-5.05-22.7-5.05,75.59-40.31,108.35-62.98,191.49-60.47,5.05,0,15.12,2.52,22.67,5.05Z"/>
  <path class="cls-2" d="M1083.36,168.8c-15.12-5.05-30.22,0-40.31,2.52-10.08,2.52-22.67,10.08-27.72,17.63,17.64,5.05,37.81,2.53,55.43,5.05,10.08,2.52,17.63,12.59,27.72,7.56,7.55-7.56,7.55-10.08,7.55-15.12-2.52-2.5-7.55-12.59-22.67-17.63ZM1116.11,194c0,2.52,0,5.03-2.5,7.56-2.53,0-2.53,5.03-10.08,2.52,0-5.03,2.5-10.06,7.55-12.59,2.53,0,5.03,0,5.03,2.52ZM1483.95,211.63c0,7.56-20.14,12.59-22.67,17.64-25.2,12.59-27.72,20.16-55.42,25.19l-75.59,20.16c-20.17,5.05-47.87,12.59-80.63,17.63,7.57-12.59,10.08-22.67-2.5-30.23l133.52-42.83c42.83-12.58,78.12-22.66,103.29-7.55h0Z"/>
  <path class="cls-8" d="M1075.82,201.55c7.55,2.52,22.67,17.64,27.72,27.72,2.5,5.05,0,12.59-5.05,15.12s-7.55,7.56-10.08,10.08c2.53-5.03,0-7.56-2.5-10.08-2.53-2.52-7.57-7.56-10.08-12.59-15.12,0-42.84,0-42.84-12.59,2.52-2.52,22.67,0,27.72,0,7.55,0,15.12,0,22.67,5.03h-5.06c2.53,5.05,7.57,7.56,12.62,5.05,2.5,0,2.5-5.05,2.5-7.56-2.5-5.03-10.08-5.03-17.63-7.56h-47.87c-5.05-2.52-15.12-15.12-20.17-17.64,0-2.52,2.52-2.52,5.05-2.52,17.64,5.03,42.83,5.03,62.99,7.55Z"/>
  <path class="cls-7" d="M1075.82,201.55c7.55,2.52,22.67,17.64,27.72,27.72,2.5,5.05,0,12.59-5.05,15.12s-7.55,7.56-10.08,10.08c2.53-5.03,0-7.56-2.5-10.08-2.53-2.52-7.57-7.56-10.08-12.59-15.12,0-42.84,0-42.84-12.59,2.52-2.52,22.67,0,27.72,0,7.55,0,15.12,0,22.67,5.03h-5.06c2.53,5.05,7.57,7.56,12.62,5.05,2.5,0,2.5-5.05,2.5-7.56-2.5-5.03-10.08-5.03-17.63-7.56h-47.87c-5.05-2.52-15.12-15.12-20.17-17.64,0-2.52,2.52-2.52,5.05-2.52,17.64,5.03,42.83,5.03,62.99,7.55Z"/>
  <path class="cls-2" d="M1128.71,204.07q0,2.52,2.53,5.05c0,5.05-2.53,7.56-7.57,10.08-2.5,2.52-7.55,5.03-12.59,0-2.5,0-7.55-2.52-7.55-2.52,0-7.56,10.08-12.61,17.63-15.12,2.52,0,7.56,0,7.56,2.52ZM723.08,211.63c40.31,12.59,42.84,25.19,52.92,52.92l-70.54-5.05c-85.65-10.06-115.9-78.09-131.01-110.85,57.94,42.84,125.96,60.47,148.63,62.98h0ZM1589.77,236.83c-20.14,27.72-40.3,42.84-68.01,50.39-15.12,2.52-27.72,10.08-45.34,0-32.75-20.16-47.87-32.75-30.25-37.79,57.95,12.61,118.41-2.52,143.6-12.59h0Z"/>
  <path class="cls-8" d="M1121.16,226.75s2.5-2.52,5.05-2.52c2.5,7.56-7.55,10.08-12.59,12.59-2.71-.18-4.86-2.33-5.05-5.03,0-5.05-5.05-7.56,0-10.08,2.5,2.52,7.55,5.03,12.59,5.03Z"/>
  <path class="cls-7" d="M1121.16,226.75l5.05-2.52c2.5,7.56-7.55,10.08-12.59,12.59-2.71-.18-4.86-2.33-5.05-5.03,0-5.05-5.05-7.56,0-10.08,2.5,2.52,7.55,5.03,12.59,5.03Z"/>
  <path class="cls-2" d="M788.59,292.25l10.08,10.08h-75.59c-22.67,0-60.47-27.72-73.06-42.84,35.28,10.08,65.51,12.61,75.59,12.61,25.2,2.53,45.34-2.52,62.98,20.16ZM876.77,302.34c-2.52,5.05,7.56,15.12-5.05,10.08-32.75,0-73.06-10.08-90.7-40.31,12.61,0,22.68,0,30.25,2.52,25.19,10.08,42.81,15.11,65.5,27.72h0Z"/>
  <path class="cls-8" d="M1476.4,302.34c-5.05,12.59-17.63,12.59-27.72,15.12,0-2.53-2.53-7.56-12.62-7.56-7.55,0-12.59,2.52-17.63,2.52,2.53-2.52,5.05-10.08,2.53-15.12,0,0-2.53-2.52-5.05-2.52s-5.05,5.03-10.08,5.03c-10.08,5.05-25.2,7.56-35.29,20.16l-57.94,7.56c-12.59,0-37.79,0-47.87-7.56,0,0,15.12-7.56,7.57-20.16l103.28-25.19c62.99-20.16,52.92-15.12,75.59,10.08l25.21,17.64h0Z"/>
  <path class="cls-7" d="M1476.4,302.34c-5.05,12.59-17.63,12.59-27.72,15.12,0-2.53-2.53-7.56-12.62-7.56-7.55,0-12.59,2.52-17.63,2.52,2.53-2.52,5.05-10.08,2.53-15.12l-5.05-2.52c-2.53,0-5.05,5.03-10.08,5.03-10.08,5.05-25.2,7.56-35.29,20.16l-57.94,7.56c-12.59,0-37.79,0-47.87-7.56,0,0,15.12-7.56,7.57-20.16l103.28-25.19c62.99-20.16,52.92-15.12,75.59,10.08l25.21,17.64h0Z"/>
  <path class="cls-8" d="M1415.94,304.85c0,10.08-12.62,12.61-17.63,20.16l-5.05,5.05c5.05,0,10.05-2.52,15.1-7.56,7.57-2.52,35.29-7.56,35.29-2.52s-5.05,12.59-10.08,15.12c-15.12,7.56-35.26,17.64-55.42,12.59-12.59,0-22.67,5.05-32.75,7.56l-55.42,15.12c-20.17,5.05-42.84,10.08-62.99,2.52-30.22-5.05-60.47-12.61-93.23-12.61-5.05,2.52-10.08,5.05-12.59,7.56,5.05,0,10.08-2.52,12.59,0-2.5,10.08-2.5,22.67-10.08,30.23-2.5,0-2.5-2.52-2.5-5.05-5.05-25.19-17.63-60.47,10.08-80.62,12.59-2.52,27.72,2.52,40.3,7.56,22.67,15.12,52.92,17.64,80.63,27.72,10.08-2.52,22.67-5.03,32.75-7.56l80.63-10.08c12.59,2.52,15.1-15.12,27.72-17.63,7.55,0,12.59-5.05,20.14-10.08-.03-.01,2.5-.01,2.5,2.5h0Z"/>
  <path class="cls-7" d="M1415.94,304.85c0,10.08-12.62,12.61-17.63,20.16l-5.05,5.05c5.05,0,10.05-2.52,15.1-7.56,7.57-2.52,35.29-7.56,35.29-2.52s-5.05,12.59-10.08,15.12c-15.12,7.56-35.26,17.64-55.42,12.59-12.59,0-22.67,5.05-32.75,7.56l-55.42,15.12c-20.17,5.05-42.84,10.08-62.99,2.52-30.22-5.05-60.47-12.61-93.23-12.61-5.05,2.52-10.08,5.05-12.59,7.56,5.05,0,10.08-2.52,12.59,0-2.5,10.08-2.5,22.67-10.08,30.23,0,0-2.5-2.52-2.5-5.05-5.05-25.19-17.63-60.47,10.08-80.62,12.59-2.52,27.72,2.52,40.3,7.56,22.67,15.12,52.92,17.64,80.63,27.72,10.08-2.52,22.67-5.03,32.75-7.56l80.63-10.08c12.59,2.52,15.1-15.12,27.72-17.63,7.55,0,12.59-5.05,20.14-10.08l2.5,2.5h0Z"/>
  <path class="cls-2" d="M1544.43,284.7c-17.63,55.42-57.94,45.34-75.59,35.26,20.17-7.56,20.17-17.64,20.17-17.64,27.7.01,40.28-7.55,55.42-17.63h0ZM861.65,325.01c-7.56,2.53-7.56,5.05-5.05,10.08,0,2.52,5.05,5.05,5.05,5.05-5.05,2.52-5.05,17.63-12.59,12.59-22.67-12.59-40.31-20.16-68.03-20.16-15.11-2.52-47.86-12.59-60.47-20.16,27.72,0,37.79,2.52,50.39,2.52,17.64,0,30.23-5.03,30.23-5.03,22.67,2.52,37.79,7.56,60.47,15.11Z"/>
  <path class="cls-2" d="M760.87,340.13c2.52-2.52,12.59-5.05,22.68-2.52,17.63,2.52,27.72,5.05,42.83,15.12,25.19,7.56,47.87,27.72,75.59,35.28,2.52-2.53-2.52-5.05-5.05-5.05,17.64-12.59,35.28-25.2,55.42-32.75,12.61-15.12,30.23-30.23,50.39-27.72l2.52,5.05c2.52,12.59-10.08,22.67-10.08,37.79l-25.19,10.05-65.51,37.79c-17.64,15.12-25.19,0-42.83-12.59-20.16-10.08-40.31-20.16-57.95-37.79,0,0,5.05,0,2.52-2.52-7.56,0-15.12,5.05-25.2,7.56-2.52,0-10.08,2.52-12.59,0l2.52-2.52c5.05-2.52,5.05-10.08,15.12-12.59-7.56-7.56-20.16-10.08-27.72-10.08l2.53-2.53ZM1491.52,345.16c-10.08,20.16-50.41,7.56-55.45,15.11-2.5,5.05,17.65,2.52,25.2,15.12-20.17,15.11-70.54-7.56-78.09,0-7.57,5.03,15.12,5.03,20.14,15.11-30.22,15.12-45.34,2.52-75.56-7.56-5.05-2.52-5.05,0-10.08-2.52,2.5,12.59,12.59,7.56,17.63,17.64-20.17,5.05-35.26-7.56-50.39-17.64,30.22-7.56,57.94-22.68,88.18-27.72,27.72,5.03,60.47-5.05,73.06-20.16,5.05-7.56,10.08-5.03,12.62-5.03-.01,0,30.21,7.56,32.74,17.64h0ZM1242.09,387.99c15.12,0,25.2-5.05,37.79-7.56,7.55,5.03,2.5,20.16-5.05,20.16,2.5,7.56,10.08,17.63,7.55,27.72-5.05-2.52-27.72-12.59-27.72-12.59,5.05,10.08,12.62,25.19,10.08,35.26-7.55-7.56-25.17-7.56-32.75-12.59,2.53,12.59,12.59,30.23,0,42.84-10.08-7.56-15.1-17.64-25.17-27.72,2.5,12.61,5.05,32.75-2.53,42.84-5.05-7.56-30.22-15.12-27.72-22.68-2.5-2.52-10.08,25.2-17.63,27.72-7.55-10.08-15.12-25.2-27.72-32.75,2.5-2.52,7.55-2.52,7.55-7.56-7.55-10.08-17.63-10.08-27.72-17.64-12.59-5.05,2.53-12.59,2.53-12.59,17.63-7.56,20.14-27.72,22.67-45.36,7.55-15.11,27.72-10.06,42.84-10.06,20.14,2.5,42.81,7.55,62.98,12.58ZM980.06,385.47c0,5.05-5.05,7.56-7.56,12.61-5.03,12.59,0,25.19,12.59,32.75,5.05,5.05,10.08,7.56,15.12,12.59-17.64,12.59-27.72,35.26-30.25,40.31-5.03-7.56-7.56-20.16-7.56-30.23-5.05,5.05-15.12,10.08-20.17,10.08-2.52-5.05,5.05-17.64,5.05-22.68,0,0-17.64,0-22.68,2.52-2.52-10.08,5.05-15.12,10.08-20.16-2.52-5.05-20.16-2.52-22.68-5.05,17.64-10.08,45.36-25.19,62.98-32.75h5.08Z"/>
  <path class="cls-8" d="M1090.94,448.47c-7.57-5.05-27.72-7.56-35.29-5.05-17.63,0-37.79-2.52-52.9,5.05h2.52l-5.03,2.52c-5.05,5.05-2.53,5.05-7.56,10.08,0,2.52-12.59,17.63-10.08,20.16-2.52,5.03-5.03,10.08-5.03,12.59,5.03,7.56,10.08,5.05,15.11,7.56-5.03-5.03-5.03-7.56-5.03-10.08-2.52-7.56,10.08-25.19,15.12-32.75,2.52-2.52,5.03-5.05,7.56-5.05h2.52c-7.56,10.08-12.59,20.16-17.63,30.23,0,5.05,0,7.56,2.52,12.61,2.53,2.52,15.12,2.52,20.16,2.52-2.52-10.08,5.05-15.12,0-27.72,2.52,0,5.05,0,7.56,2.52,2.53,12.59-5.03,20.16,5.05,30.23,12.59,5.03,17.64-5.03,27.73-10.08,2.5-15.12,0-30.23-2.53-42.83,7.57,2.52,10.08,25.19,15.12,30.25,5.05,2.52,7.55,0,10.08-2.53,10.08-10.08,0-22.67-7.57-32.75,2.53,0,10.08,0,15.12,12.61,7.57,15.12,0,12.59,5.05,20.16,2.53-2.52,15.12-2.52,17.63-2.52,12.59-10.06,7.57-12.59,15.12-15.11-10.12-5.07-25.24-10.12-35.29-12.62Z"/>
  <path class="cls-7" d="M1090.94,448.47c-7.57-5.05-27.72-7.56-35.29-5.05-17.63,0-37.79-2.52-52.9,5.05h2.52l-5.03,2.52c-5.05,5.05-2.53,5.05-7.56,10.08,0,2.52-12.59,17.63-10.08,20.16-2.52,5.03-5.03,10.08-5.03,12.59,5.03,7.56,10.08,5.05,15.11,7.56-5.03-5.03-5.03-7.56-5.03-10.08-2.52-7.56,10.08-25.19,15.12-32.75,2.52-2.52,7.56-5.05,7.56-5.05h2.52c-7.56,10.08-12.59,20.16-17.63,30.23,0,5.05,0,7.56,2.52,12.61,2.53,2.52,15.12,2.52,20.16,2.52-2.52-10.08,5.05-15.12,0-27.72,2.52,0,5.05,0,7.56,2.52,2.53,12.59-5.03,20.16,5.05,30.23,12.59,5.03,17.64-5.03,27.73-10.08,2.5-15.12,0-30.23-2.53-42.83,7.57,2.52,10.08,25.19,15.12,30.25,5.05,2.52,7.55,0,10.08-2.53,10.08-10.08,0-22.67-7.57-32.75,2.53,0,10.08,0,15.12,12.61,7.57,15.12,0,12.59,5.05,20.16,2.53-2.52,15.12-2.52,17.63-2.52,12.59-10.06,7.57-12.59,15.12-15.11-10.12-5.07-25.24-10.12-35.29-12.62Z"/>
  <path class="cls-2" d="M985.11,700.41l35.28,50.39c15.12,30.23,35.26,60.47,52.9,88.18,10.08,20.16,22.7,35.28,35.29,57.95,15.1,15.12,20.14,17.64,27.72,30.25-22.67,15.11-17.63,40.31-40.3,52.9,0,0-62.99,20.14-85.68-10.08-17.64-27.72-27.72-78.1-20.16-115.9,12.59,22.67,32.75,50.39,45.36,57.95l2.52-2.52c-15.12-27.72-32.75-52.9-52.92-78.1-17.63-25.19-10.08-62.98-15.12-93.21,0,0,2.52,0,2.52-2.52,5.05,2.52,5.05,10.08,7.56,12.59,5.05,10.08,12.59,15.12,20.17,17.64l-10.08-20.16-20.16-50.39c-2.52-7.56-12.59-25.19-5.03-27.72l20.13,32.74h0ZM1163.98,682.78c0,2.5,0-2.53,0,0ZM1357.97,723.08c0,12.61-12.59,15.12-22.67,20.16h-2.5c0-10.08,0-22.67,10.05-27.7,7.57-2.53,12.62,2.52,15.12,7.55ZM1330.27,1030.46c5.05,7.55,7.55,12.59,7.55,22.67-2.5,5.05-2.5,7.55-7.55,10.08-17.63-7.55-42.84-7.55-40.3-32.75-.01,0,20.13-32.76,40.3,0Z"/>
  <path class="cls-2" d="M1232.01,634.9c15.12,20.16,30.25,37.79,30.25,37.79-5.05-5.05-25.2-10.08-55.42-45.36-7.57-10.08-20.17-25.2-22.67-22.68-2.53,5.05,7.55,12.61,10.05,15.12,0,0,37.79,50.39,30.25,50.39-5.05,0-25.2-20.16-37.79-40.31-15.12-22.67-40.3-60.47-45.34-88.18,0,0,42.84,55.43,52.89,60.47,0,0-30.22-47.86-35.26-62.98-5.05-15.11-22.67-55.42-35.29-68.03,0,0,2.53,5.03-12.59,12.59-12.59,5.05-15.1-2.52-30.22,2.52-12.62,5.05-10.08,7.56-17.63,15.12-10.08,7.56-30.25,22.68-42.84,2.52,0,0-17.64,12.59-32.75,5.03,0,0-27.72,88.18-22.67,108.35,0,0,10.06-10.08,20.16-5.05,7.56,5.05,15.12-10.08,27.72-5.05,10.08,5.05-5.05,32.75,0,35.28,5.05,5.05,10.08-7.56,20.16-2.52s2.52,20.16,12.59,20.16c7.56,0-2.52-45.36,10.08-45.36,0,0,0,30.23,12.59,37.79,0,0-15.1-68.03,7.57-123.45,0,0-5.05,80.62,2.5,113.37,0,0,12.62-30.23,30.25-17.64,15.1,10.08,0,32.75,7.55,35.28,10.08,2.52,25.2-12.59,30.25-17.64,7.55-5.05,15.1-7.56,20.14,0,7.57,17.64-10.08,12.59-7.55,22.68,5.05,10.08,12.59,5.03,22.67,10.08,15.12,7.56-25.2,15.11-7.55,25.19,12.59,10.08,40.3,12.59,62.97,10.08,0,0,42.84,17.64,57.96,27.72-2.53-7.56-10.08-12.61-10.08-22.67,17.63,7.55,25.17,20.16,27.72,35.26,2.5,0,7.55,0,10.08-7.56,2.5-12.59-5.05-22.67,5.05-30.23,7.55-5.03,17.63-5.03,25.17-5.03-22.68-15.11-108.36-68.01-120.94-73.06h0ZM798.67,380.43c-5.03,5.03-10.08,2.52-27.72,7.56,2.52-5.05,17.64-15.12,25.19-15.12,2.53,2.53,2.53,5.05,2.53,7.56ZM821.35,395.55v10.08c-10.08-5.05-17.64-17.64-15.12-27.72,7.56,2.52,15.12,10.08,15.12,17.64ZM811.27,425.78c-2.52-7.56-12.61-10.08-12.61-17.64,0-2.52,2.52-7.56,2.52-10.08,10.09,2.53,17.64,20.16,10.09,27.72ZM801.18,425.78c2.52,7.56-2.52,20.16-5.05,22.68,0-5.05-12.59-15.12-5.05-25.2l2.53-7.56c5.05,2.52,7.56,7.56,7.56,10.08ZM783.56,415.71c-5.05,5.03-10.08,12.59-17.64,12.59-5.05,0-17.64,0-20.16-2.52,7.56,0,17.63-7.56,22.67-7.56l15.12-2.52ZM778.51,456.02c-5.05,10.08-7.56,10.08-17.64,12.59,12.59-10.08,5.05-30.23,20.16-32.75,2.53,5.05,2.53,15.11-2.52,20.16ZM662.63,398.07c-5.05,12.59-2.52,15.12,5.03,22.67-2.52-17.63,15.12-22.67,7.56-37.79-5.05,2.53-12.59,10.09-12.59,15.12ZM763.39,438.38c0,2.52-12.59,7.56-15.11,7.56-7.56,2.53-22.68,2.53-22.68,0,20.17-5.03,12.61-15.11,37.79-7.56ZM793.63,393.04c0,5.05-10.08,10.08-15.12,12.61-5.05,2.52-20.16,7.56-20.16,2.52,20.16-7.56,7.56-17.65,35.28-15.12ZM670.17,370.36c-2.52-2.52-12.59,2.52-17.63,5.05-5.05,2.52-17.64,12.59-15.12,17.63,20.16-12.61,20.16,0,32.75-22.67ZM707.97,325.01c10.08,2.53,15.12,10.08,20.16,10.08,7.56,0,10.08-2.52,10.08-5.05-2.52-7.55-20.16-7.55-30.23-5.03ZM750.81,367.84c0-10.08,2.52-15.12,2.52-22.67-2.52-5.05-5.03-7.56-7.56-7.56-7.56,5.05-2.52,22.67,5.05,30.23ZM707.97,332.57c-7.56-2.52-22.67,2.52-25.19,7.56,10.08-2.52,15.12,10.08,27.72,5.05l7.56-5.05c-2.53-2.53-7.57-5.05-10.09-7.56ZM723.08,352.73c-2.52,7.56,2.52,20.16,5.05,25.19,0-10.08,10.08-15.12,5.05-27.72l-2.52-7.56c-5.05,2.53-7.57,5.05-7.57,10.09ZM753.31,466.09c-5.03,5.03-20.16,7.56-25.19,7.56,7.56-5.05,7.56-17.64,20.16-17.64l10.08-2.52c0,5.03-2.52,10.08-5.05,12.59ZM675.21,347.68c-12.59,5.05-12.59,7.56-15.11,17.64,10.06-12.59,27.7,0,32.75-12.59-2.52-5.05-12.59-5.05-17.64-5.05ZM700.41,372.88c0,10.08,5.03,12.59,10.08,17.63-5.05-15.11,10.08-27.72-2.52-37.79-5.05,5.05-7.56,12.61-7.56,20.17ZM692.84,380.43c5.05,7.56,2.53,12.59,0,27.72-7.56-7.56-7.56-22.68-7.56-37.79,5.05.01,7.56,5.05,7.56,10.08Z"/>
  <path class="cls-8" d="M1103.52,302.34c-22.67-7.56-15.12-32.75-17.63-50.39,0-2.52-5.05-5.05-7.57-2.52-7.55,0-15.1,10.06-20.14,2.52,2.5,0,7.55,0,10.05-2.52,2.53-2.52,5.05-5.05,5.05-10.08-2.5-2.52-5.05-2.52-7.55-2.52,0,2.52-2.5,2.52-2.5,5.05-7.57,0-12.61-7.56-22.7-5.05-5.03,0-7.56-5.03-10.08-7.56-2.52-10.08-15.12-17.64-22.68-25.2-5.03,7.56-7.55,12.61-7.55,20.16,0,5.05,10.06,2.52,12.59,5.05,7.56,2.52-5.05,7.56-5.05,10.08-2.52,0-2.52-2.52,0-5.03s-2.52-2.52-5.03-5.05c0,10.08-5.05,17.64-5.05,25.19l7.56,2.52c2.52,2.52,0,5.05,0,7.56,2.52,2.52,5.03,2.52,5.03,2.52h2.52c0,2.52-2.52,2.52-2.52,2.52h-2.52c0,2.52,0,5.05,5.05,5.05,2.52,2.52-2.52,10.08,2.52,12.59,17.64,0,27.72-12.59,40.31-22.67-2.5,7.56-12.59,12.59-15.12,20.16-2.52,7.55,0,17.63-5.03,25.19-2.52,10.08-17.64,5.03-20.16,15.11,0,10.08-5.05,22.68,5.05,30.25,15.12,0,27.72-2.52,40.31-10.08,20.17-7.56,35.29-27.72,52.92-40.31-5.03,0-7.56,0-10.08-2.52h0Z"/>
  <path class="cls-7" d="M1103.52,302.34c-22.67-7.56-15.12-32.75-17.63-50.39,0-2.52-5.05-5.05-7.57-2.52-7.55,0-15.1,10.06-20.14,2.52,2.5,0,7.55,0,10.05-2.52,2.53-2.52,5.05-5.05,5.05-10.08-2.5-2.52-7.55-2.52-7.55-2.52,0,2.52-2.5,5.05-2.5,5.05-7.57,0-12.61-7.56-22.7-5.05-5.03,0-7.56-5.03-10.08-7.56-2.52-10.08-15.12-17.64-22.68-25.2-5.03,7.56-7.55,12.61-7.55,20.16,0,5.05,10.06,2.52,12.59,5.05,7.56,2.52-5.05,7.56-5.05,10.08-2.52,0-2.52-2.52,0-5.03s-2.52-2.52-5.03-5.05c0,10.08-5.05,17.64-5.05,25.19l7.56,2.52c2.52,2.52,0,5.05,0,7.56l5.03,2.52h2.52l-2.52,2.52h-2.52s0,5.05,5.05,5.05c2.52,2.52-2.52,10.08,2.52,12.59,17.64,0,27.72-12.59,40.31-22.67-2.5,7.56-12.59,12.59-15.12,20.16-2.52,7.55,0,17.63-5.03,25.19-2.52,10.08-17.64,5.03-20.16,15.11,0,10.08-5.05,22.68,5.05,30.25,15.12,0,27.72-2.52,40.31-10.08,20.17-7.56,35.29-27.72,52.92-40.31-5.03,0-7.56,0-10.08-2.52h0Z"/>
  <path class="cls-3" d="M1216.91,1163.98c-57.96,20.17-115.92,47.87-166.3,85.67-50.39-37.79-105.82-65.51-163.77-88.18-219.19-65.51-340.13-267.06-330.04-423.27v-65.51l10.08-68.03,20.16-123.45,5.05-42.84c2.52-68.03,0-143.6-47.87-194l42.83-55.43s-12.59-12.59-20.16-35.26c-22.67,27.72-50.39,65.51-70.54,93.23,20.16,17.64,35.28,37.79,42.83,60.47,17.64,47.87,17.64,108.34,10.08,161.24l-15.12,93.23-10.08,70.54c-5.05,45.36-7.56,95.73-5.05,141.09,5.05,138.57,85.67,335.07,322.49,410.67,73.06,27.72,146.13,57.94,209.11,113.38,45.37-40.32,95.74-65.51,148.63-88.21l62.99-22.67c254.45-85.65,330.04-294.76,327.51-450.97l-2.5-68.03-7.55-57.95-20.17-131.02c-7.55-42.83-7.55-90.7,0-133.52,2.5-15.12,15.12-62.98,55.42-93.23-20.17-32.75-2.5-12.61-55.42,27.72,0,0-5.05,30.23-35.26,52.9-10.08,42.84-12.62,100.79-2.53,146.13l12.59,80.62,10.08,65.51c5.05,45.36,7.57,93.23,5.05,141.09-2.49,128.52-80.62,325.04-332.53,398.09h0Z"/>
  <path class="cls-8" d="M70.54,1574.66v42.84c2.52,5.05,2.52,10.08,7.56,10.08h10.08v2.5h-47.87s0-2.5,2.52-2.5h5.05c2.52,0,5.03-5.05,5.03-10.08,2.52-7.57,2.52-22.67,2.52-42.84v-80.63h-30.23c-12.59,0-15.12,2.53-20.16,5.05,0,5.05-2.52,5.05-2.52,7.57,0,0,0,2.5-2.52,2.5v-2.5c0-2.53,5.05-17.63,5.05-20.17v-5.05c2.52,0,5.05,2.5,10.08,2.5,5.05,2.53,12.59,2.53,15.12,2.53h73.06c10.08,0,15.12-2.53,17.64-2.53v25.2q-2.52,0-2.52-2.5v-2.53c0-5.05-5.05-10.08-22.68-10.08h-25.19v80.63h-.01ZM267.06,1574.66c0,20.17,0,35.26,2.52,42.84,0,5.05,0,10.08,7.56,10.08h7.56l2.52,2.5h-50.39s0-2.5,2.52-2.5h5.05c5.03,0,5.03-5.05,5.03-10.08,2.52-7.57,2.52-22.67,2.52-42.84v-20.17h-85.65v20.17c0,20.17,0,35.26,2.52,42.84,0,5.05,0,10.08,7.56,10.08h7.56c2.52,0,2.52,2.5,2.52,2.5h-50.37l2.52-2.5h5.03c5.03,0,5.03-5.05,7.56-10.08v-118.43c0-5.05-2.52-10.05-7.56-10.05h-7.56l-2.52-2.53h47.87s0,2.53-2.52,2.53h-5.03c-5.05,0-5.05,5.02-5.05,10.05-2.52,7.57-2.52,12.62-2.52,42.84v2.53c0,2.5,2.52,2.5,2.52,2.5h80.62q2.52,0,2.52-2.5v-45.37c-2.52-5.05-2.52-10.05-10.08-10.05h-5.03c-2.52,0-2.52-2.53-2.52-2.53h47.87l-2.52,2.53h-5.05c-5.03,0-7.56,5.02-7.56,10.05v75.59h-.01ZM325.01,1541.9v-42.84c0-5.05-2.52-10.05-10.08-10.05h-5.05c-2.52,0-2.52-2.53-2.52-2.53h70.54c2.52,0,5.03-2.53,7.56-2.53h2.52v10.08c0,2.53-2.52,10.08-2.52,12.62v2.5q-2.52,0-2.52-2.5v-7.57c-2.52-2.5-5.03-5.05-15.12-5.05h-27.7v52.92q0,2.5,2.52,2.5h30.23c5.05,0,7.56,0,7.56-2.5q2.52-2.5,5.03-2.5v2.5s0,2.5-2.52,10.08v15.12h-2.52v-7.57c-2.52-2.5-2.52-5.05-10.08-7.55h-30.23v50.37c0,15.12,5.05,17.63,22.68,17.63,5.03,0,12.59,0,17.64-2.5,5.03-2.53,7.56-7.57,10.08-15.12q0-2.5,2.52-2.5v2.5c0,2.5-2.52,15.12-2.52,20.17s-2.53,5.05-10.08,5.05c-30.25,0-42.84-2.53-47.87-2.53h-22.67s0-2.5,2.52-2.5h5.05c5.05,0,5.05-5.05,5.05-10.08,2.52-7.57,2.52-22.67,2.52-42.84v-32.76h-.03ZM493.81,1541.9v-42.84c0-5.05-2.52-10.05-10.08-10.05h-5.03l-2.53-2.53h47.87s0,2.53-2.52,2.53h-2.52c-7.56,0-7.56,5.02-7.56,10.05v68.04c0,27.72,5.05,40.3,12.59,47.85,10.08,10.08,20.16,12.62,30.23,12.62,12.59,0,22.68-7.57,30.23-15.12,7.56-10.08,10.08-27.72,10.08-47.87v-65.51c0-5.05-2.52-10.05-7.56-10.05h-7.56v-2.53h42.84l-2.52,2.53h-5.05c-5.03,0-7.56,5.02-7.56,10.05v63.01c0,20.14-2.52,42.84-17.63,57.94-12.59,12.62-27.72,12.62-40.31,12.62-5.05,0-25.2,0-37.79-12.62-10.08-10.08-17.64-22.67-17.64-50.39v-27.72h0ZM670.17,1604.9c0,15.1,2.52,20.14,7.56,22.67h10.08v2.5h-45.34c0-2.5,2.52-2.5,2.52-2.5h7.56c5.05-2.53,5.05-7.57,5.05-25.2v-110.85c0-7.57,2.52-10.08,2.52-10.08,2.52,0,5.03,5.05,7.56,7.57,2.52,2.5,30.23,35.26,60.47,65.48,20.16,20.17,40.31,45.37,47.87,50.41l-2.52-98.26c0-12.62-2.52-15.12-7.56-17.63h-10.08l-2.52-2.53h45.36l-2.52,2.53h-5.05c-5.03,0-7.55,5.02-7.55,17.63v113.36q0,12.62-2.53,12.62l-12.59-12.62c-2.52-2.5-30.23-30.22-50.39-52.89-22.67-22.67-45.36-47.87-50.39-55.42l2.49,93.2h0ZM859.13,1574.66c0,20.17,0,35.26,2.52,42.84,0,5.05,0,10.08,7.56,10.08h7.56l2.52,2.5h-50.39s0-2.5,2.52-2.5h5.05c5.05,0,5.05-5.05,5.05-10.08,2.52-7.57,2.52-22.67,2.52-42.84v-75.59c-2.52-5.05-2.52-10.05-7.56-10.05h-5.05c-2.52,0-2.52-2.53-2.52-2.53h45.36l-2.53,2.53h-5.03c-5.05,0-5.05,5.02-7.56,10.05v75.59ZM969.98,1607.41c10.08-25.2,37.79-93.23,40.31-105.81,2.52-5.05,2.52-7.57,2.52-7.57,0-2.5,0-5.02-2.52-5.02h-7.56s-2.52,0-2.52-2.53h42.83l-2.52,2.53c-2.52,0-5.03,0-10.08,2.5-2.52,0-5.05,5.05-10.08,17.63-2.52,5.05-12.61,27.72-22.68,50.39-10.08,30.25-20.16,50.39-22.68,60.47-7.55,10.08-7.55,12.62-10.06,12.62s-2.52-2.53-5.05-10.08l-47.87-118.43c-5.05-10.08-7.56-12.59-15.12-15.1h-7.56v-2.53h50.39s0,2.53-2.52,2.53h-7.56c-2.53,0-2.52,2.5-2.52,5.02s2.52,7.57,5.05,15.12l37.81,98.26ZM1070.77,1541.9v-42.84c0-5.05-2.53-10.05-7.55-10.05h-7.57v-2.53h68.01c2.53,0,7.57-2.53,7.57-2.53h2.5q2.53,0,2.53,2.53s-2.53,2.53-2.53,7.55v12.62c0,2.5-2.5,2.5-2.5,2.5,0,0-2.53,0-2.53-2.5v-7.57c-2.5-2.5-2.5-5.05-12.59-5.05h-27.72v55.42h30.25c5.02,0,7.55,0,10.05-2.5,0-2.5,2.53-2.5,2.53-2.5v12.58c0,2.5-2.53,10.08-2.53,12.59v2.53h-2.5v-7.57c0-2.5-2.53-5.05-10.08-7.55h-27.72v50.37c0,15.12,2.53,17.63,20.17,17.63,5.05,0,15.1,0,20.14-2.5,5.05-2.53,7.57-7.57,7.57-15.12,0-2.5,2.5-2.5,2.5-2.5v2.5c0,2.5,0,15.12-2.5,20.17,0,5.05-2.53,5.05-10.08,5.05-27.72,0-40.3-2.53-47.87-2.53h-20.13v-2.5h7.55c2.5,0,5.05-5.05,5.05-10.08v-75.6h-.03ZM1199.25,1494.03s2.53,0,2.53-2.5h12.59c20.17,0,32.75,15.12,32.75,37.79,0,15.12-5.05,25.17-10.08,30.22-5.05,2.53-10.08,5.05-15.12,5.05-7.55,0-17.63-2.5-20.14-5.05,0,0-2.53,0-2.53-2.5v-63.01h0ZM1184.15,1574.66v42.84c0,5.05-2.53,10.08-5.05,10.08h-7.57v2.5h47.86s0-2.5-2.5-2.5h-7.57c-5.05,0-7.55-5.05-7.55-10.08-2.53-7.57-2.53-22.67-2.53-42.84v-5.05h27.7c5.05,5.05,15.12,17.63,22.67,30.25,10.08,12.59,17.65,22.67,25.2,27.72,5.05,2.5,10.08,2.5,20.17,2.5h20.14l-2.5-2.5h-7.55c-5.05,0-12.62-2.53-22.7-12.62-12.59-12.59-25.17-30.22-40.3-50.39,15.12-15.12,22.67-30.22,22.67-45.34,0-12.59-10.08-22.67-12.59-25.2-10.08-7.55-25.2-7.55-35.26-7.55h-47.87v2.53h7.55c5.05,0,7.57,5.02,7.57,10.05v75.6h.01ZM1322.72,1627.58q-2.53,0-2.53-5.05c0-10.08,2.53-17.63,2.53-22.67v-2.53q2.5,0,2.5,2.53v7.55c2.53,15.12,15.12,20.17,27.72,20.17,20.17,0,27.72-15.12,27.72-27.72s-5.05-20.17-22.67-32.75l-7.55-7.57c-20.17-17.63-25.2-30.22-25.2-42.84,0-20.14,15.12-35.26,40.32-35.26,7.55,0,12.59,2.5,17.63,2.5q5.05,2.53,7.55,2.53v25.21q-2.5,0-2.5-2.53c0-2.5,0-7.55-2.53-10.08,0-2.5-5.05-10.05-25.17-10.05-12.62,0-22.7,7.55-22.7,22.67,0,10.05,5.05,17.63,22.7,32.75l7.55,5.02c22.67,17.65,27.72,27.74,27.72,45.37,0,7.55-5.05,22.67-17.63,30.22-7.57,7.57-17.63,7.57-27.72,7.57s-17.65-.01-27.73-5.05ZM1458.77,1574.66v42.84c0,5.05,2.5,10.08,7.55,10.08h10.08v2.5h-47.87v-2.5h7.55c2.53,0,5.05-5.05,5.05-10.08v-118.43c0-5.05-2.5-10.05-5.05-10.05h-7.55v-2.53h42.83v2.53h-5.05c-5.05,0-7.55,5.02-7.55,10.05v75.59h.01ZM1564.58,1574.66v42.84c0,5.05,2.5,10.08,7.55,10.08h10.08v2.5h-47.87v-2.5h7.57c2.5,0,5.05-5.05,5.05-10.08v-123.47h-27.72c-12.62,0-17.65,2.53-20.17,5.05q-2.53,5.05-2.53,7.57s0,2.5-2.5,2.5v-2.5c0-2.53,2.5-17.63,5.05-20.17v-5.05c2.5,0,5.05,2.5,10.08,2.5,5.05,2.53,12.59,2.53,15.12,2.53h70.53c12.62,0,17.65-2.53,20.17-2.53v25.2q-2.5,0-2.5-2.5v-2.53c0-5.05-5.05-10.08-25.2-10.08h-22.67v80.63h-.03ZM1685.51,1582.21c0-12.59-2.53-15.1-5.05-20.14,0-5.05-25.2-47.87-32.75-55.42-3.66-5.46-7.88-10.53-12.59-15.12-2.53-2.5-7.57-2.5-10.08-2.5v-2.53h40.28s-2.5,0-5.05,2.53l-2.5,2.5c0,2.5,2.5,5.05,2.5,7.55,5.05,5.05,32.75,55.42,37.79,60.47,2.53-7.55,27.72-50.39,30.25-55.42,2.5-5.05,5.05-7.55,5.05-10.08s-2.53-5.02-5.05-5.02l-2.53-2.53h37.79l-2.5,2.53c-2.53,0-5.05,0-10.08,2.5-2.53,2.5-5.05,5.05-10.08,10.08-5.05,7.55-32.75,52.89-35.26,60.47-2.53,7.55-2.53,12.59-2.53,20.14v35.29c0,5.05,2.53,10.08,7.55,10.08h7.57c2.5,0,2.5,2.5,2.5,2.5h-47.83v-2.5h5.02c5.05,0,7.57-5.05,7.57-10.08v-35.29h-.01,0ZM1849.28,1551.99c0-40.3,25.17-62.97,55.42-62.97s60.47,25.17,60.47,70.53c0,57.96-37.79,68.04-52.92,68.04-35.25-.01-62.97-30.26-62.97-75.6h0ZM1831.63,1557.02c0,35.26,22.7,75.59,73.08,75.59s78.09-35.29,78.09-78.12c0-45.34-32.75-73.06-75.59-73.06-52.89,0-75.59,45.34-75.59,75.59h0ZM2020.6,1541.9v-42.84c-2.53-5.05-2.53-10.05-10.08-10.05h-5.05c-2.5,0-2.5-2.53-2.5-2.53h73.05c2.5,0,5.05,0,7.55-2.53h2.53s2.5,0,2.5,2.53c0,0-2.5,2.53-2.5,7.55v12.62c0,2.5-2.53,2.5-2.53,2.5,0,0-2.5,0-2.5-2.5v-7.57c-2.53-2.5-5.05-5.05-12.59-5.05h-32.75v55.42h35.25c5.05,0,7.55,0,7.55-2.5l2.53-2.5q2.5,0,2.5,2.5s-2.5,2.5-2.5,10.08v12.59q0,2.53-2.53,2.53c0-2.53-2.5-5.05-2.5-7.57s-2.5-5.05-10.08-7.55h-27.72q-2.5,0-2.5,2.5v57.96c2.5,5.05,2.5,10.08,7.55,10.08h10.08l2.5,2.5h-50.39s0-2.5,2.53-2.5h5.02c5.05,0,5.05-5.05,5.05-10.08,2.53-7.57,2.53-22.67,2.53-42.84v-32.75h.01,0ZM269.59,1955.09c0,10.08,2.52,27.72,15.12,32.75,10.08,2.53,17.64,2.53,20.16,2.53h2.52c0,2.5-2.52,5.05-7.56,5.05s-37.79-2.53-50.39-2.53c-5.03,0-7.56-2.5-7.56-2.5q0-2.53,2.53-2.53v-12.59l-15.12-153.69-73.06,156.19c-7.56,12.62-7.56,15.12-10.08,15.12s-5.03-2.5-10.08-12.59c-7.56-15.12-32.75-68.04-35.28-70.54-2.52-5.05-37.79-78.09-40.31-85.67l-12.59,138.59v17.63c0,2.5,2.52,7.55,7.56,7.55,5.03,2.53,10.08,2.53,10.08,2.53h2.52c0,2.5,0,5.05-5.05,5.05-10.08,0-25.19-2.53-27.72-2.53s-17.64,2.53-25.19,2.53c-2.7-.19-4.85-2.34-5.05-5.05h12.59c10.08-2.53,10.08-15.12,12.61-25.2l20.16-199.03c0-2.53,2.52-5.05,5.05-5.05,0,0,2.52,2.5,2.52,5.05l93.21,188.94,88.18-188.94c2.52-2.53,2.52-5.05,5.05-5.05s2.52,2.5,5.03,7.55l20.16,186.44h0ZM355.24,1854.31v-65.51c-2.52-10.08-5.05-15.12-12.59-17.63h-12.59l-2.52-2.53c0-2.5,2.52-2.5,5.03-2.5h103.3c7.56,0,12.59,0,15.12-2.53h2.52q2.53,0,2.53,2.53c0,2.5-2.53,5.05-2.53,15.12,0,2.5-2.52,15.1-2.52,20.14,0,0,0,2.53-2.52,2.53,0,0-2.52-2.53-2.52-5.05v-10.08c-2.52-5.05-5.05-7.55-22.68-10.08h-40.31q-2.52,0-2.52,2.53v83.14q0,2.5,2.52,2.5h47.87c7.56,0,10.08-2.5,12.61-5.05,2.52-2.5,5.03-2.5,5.03-2.5q2.52,0,2.52,2.5s-2.52,5.05-2.52,15.12c0,7.55-2.52,17.63-2.52,20.17v5.05q-2.52,0-2.52-2.53c0-2.5,0-5.05-2.52-10.08,0-5.05-2.52-10.08-15.12-10.08-7.56,0-37.79-2.5-42.84-2.5-2.52,0-2.52,2.5-2.52,2.5v78.13c0,22.67,5.03,25.17,35.26,25.17,7.56,0,20.16,0,27.72-2.5,10.06-5.05,12.59-10.08,15.11-22.67,0-2.53,0-5.05,2.53-5.05s2.52,2.5,2.52,5.05-2.52,22.67-5.05,30.22c-2.52,7.57-5.05,7.57-15.11,7.57-47.87,0-68.03-2.53-75.59-2.53-2.52,0-20.16,2.53-30.23,2.53-2.52,0-5.05-2.53-5.05-2.53,0-2.5,2.53-2.5,2.53-2.5,2.52,0,7.56,0,10.08-2.53,5.03,0,7.56-7.55,7.56-15.12,2.52-12.59,2.52-37.77,2.52-65.48v-52.96h-.01,0ZM564.37,1907.23c0,45.34,2.52,62.97,7.56,68.01s12.59,7.55,35.26,7.55c17.64,0,30.23,0,37.79-7.55,2.52-5.05,7.56-12.59,7.56-20.17q0-2.5,2.52-2.5t2.53,5.05c0,2.5-2.53,20.14-5.05,30.22-2.52,5.05-2.52,7.57-20.16,7.57-42.83,0-62.98-2.53-80.62-2.53-2.52,0-20.16,2.53-30.23,2.53-2.52,0-5.03-2.53-5.03-2.53,0-2.5,2.52-2.5,2.52-2.5,5.05,0,7.56,0,10.08-2.53,5.05,0,7.56-7.55,10.08-15.12v-183.91c0-10.09-2.52-15.12-12.59-17.63h-10.08c-2.52,0-2.52-2.53-2.52-2.53q0-2.5,5.03-2.5h65.5c2.52,0,5.05,0,5.05,2.5,0,0,0,2.53-2.52,2.53h-10.08c-7.56,0-10.08,7.55-12.59,17.63v118.41h-.01ZM743.25,1778.73q0-2.5,2.52-2.5c5.05-2.53,12.59-2.53,15.12-2.53,30.23,0,40.31,27.72,40.31,52.92,0,12.59-5.05,22.67-10.08,30.22-7.55,7.57-10.08,7.57-27.72,7.57h-17.63q-2.52-2.53-2.52-5.05v-80.63h-.01ZM718.05,1907.23v65.48c-2.52,7.57-5.05,15.12-10.08,15.12-2.52,2.53-5.05,2.53-10.08,2.53v2.5s0,2.53,2.52,2.53c10.08,0,30.23-2.53,30.23-2.53,2.52,0,32.75,2.53,40.31,2.53,52.9,0,78.1-32.75,78.1-65.51,0-35.29-30.25-57.96-52.92-65.51,15.12-12.62,27.72-27.72,27.72-52.92,0-15.12-10.08-45.34-60.47-45.34h-65.5q-5.05,0-5.05,2.5s0,2.53,2.53,2.53h10.06c10.08,2.5,12.61,7.55,12.61,17.63v118.45ZM743.25,1874.48v-2.53c5.05,0,20.16,0,25.19,2.53,7.56,0,15.12,0,25.2,7.55,22.67,15.12,27.72,42.84,27.72,60.47,0,35.26-25.2,42.84-40.31,42.84-7.56,0-20.16,0-27.72-5.05-10.08-5.05-10.08-7.57-10.08-22.67v-83.14h0ZM927.16,1871.95c0-68.01,37.79-100.78,88.18-100.78s90.7,40.3,90.7,113.36c0,85.67-55.42,103.3-83.14,103.3-55.42,0-95.74-45.34-95.74-115.88h0ZM896.92,1879.5c0,55.45,35.28,118.43,118.41,118.43,73.06,0,120.94-55.42,120.94-123.45s-50.39-113.38-118.41-113.38c-85.67,0-120.94,70.54-120.94,118.4h0ZM1196.75,1854.31v-65.51c0-10.09-2.53-15.12-12.59-17.63h-10.08c-2.53,0-2.53-2.53-2.53-2.53q0-2.5,5.05-2.5h62.99q5.02,0,5.02,2.5s0,2.53-2.5,2.53h-7.55c-7.57,0-10.08,7.55-10.08,17.63v105.81c0,45.34,7.55,62.99,22.67,75.59,15.12,15.12,27.72,17.63,45.34,17.63s35.29-10.08,47.87-22.67c12.59-17.63,17.63-42.84,17.63-73.06v-37.79c0-47.87,0-55.42-2.5-65.51,0-10.08-2.53-15.12-12.62-17.63h-10.05l-2.53-2.53c0-2.5,2.53-2.5,5.05-2.5h57.95c2.5,0,5.05,0,5.05,2.5l-2.53,2.53h-7.55c-7.57,0-10.08,7.55-12.62,17.63v95.73c0,32.75-2.5,70.54-27.72,90.71-22.67,20.17-45.34,22.67-62.97,22.67-10.08,0-40.32,0-60.47-20.17-15.12-15.1-27.72-35.26-27.72-80.61v-42.81h-.01ZM1483.95,1781.25q0-2.53,2.53-5.05h20.14c32.75,0,52.92,22.67,52.92,60.47,0,22.67-7.55,37.79-20.17,45.34-5.05,5.05-15.1,5.05-22.67,5.05-12.59,0-25.17,0-30.22-2.53q-2.53-2.5-2.53-5.05v-98.23h0ZM1458.77,1907.23v65.48c-2.53,7.57-2.53,15.12-10.08,15.12-2.53,2.53-5.05,2.53-7.57,2.53s-2.5,0-2.5,2.5c0,0,0,2.53,5.05,2.53,7.55,0,27.72-2.53,27.72-2.53,2.5,0,20.17,2.53,37.79,2.53,2.5,0,5.05-2.53,5.05-2.53,0-2.5-2.53-2.5-2.53-2.5-2.5,0-10.08,0-15.12-2.53-7.55,0-10.05-7.55-10.05-15.12-2.53-12.59-2.53-37.77-2.53-65.48v-7.57q0-2.5,2.53-2.5h37.79s2.5,0,2.5,2.5c7.55,7.57,20.17,27.72,32.75,45.34,17.63,22.7,27.72,37.79,40.3,42.84,10.08,5.05,17.65,7.57,32.75,7.57h22.67c5.05,0,7.57-2.53,7.57-2.53,0-2.5-2.53-2.5-2.53-2.5h-12.59c-7.55-2.53-20.17-5.05-37.79-22.67-17.63-20.17-37.79-45.37-62.97-78.12,27.72-25.17,37.79-47.85,37.79-70.54,0-20.14-12.62-35.26-20.17-40.3-17.63-10.08-37.79-12.59-55.42-12.59h-70.54c-2.53,0-5.05,0-5.05,2.5,0,0,0,2.53,2.5,2.53h10.08c10.08,2.5,12.62,7.55,12.62,17.63v118.41h-.01ZM1713.23,1952.57c2.5,25.17,5.05,32.75,12.59,35.26,5.05,2.53,12.62,2.53,15.12,2.53s2.5,0,2.5,2.5c0,0-2.5,2.53-5.02,2.53-17.65,0-30.25-2.53-32.75-2.53s-15.12,2.53-27.74,2.53c-5.02,0-5.02-2.53-5.02-2.53q0-2.5,2.5-2.5c2.5,0,7.55,0,10.08-2.53,7.55-2.5,10.08-10.08,10.08-37.79v-173.82c0-12.62,2.5-15.12,2.5-15.12,2.53,0,7.57,7.55,12.59,10.08,5.05,5.05,47.87,52.89,95.76,103.3,30.22,32.75,62.97,70.53,73.06,78.09l-5.05-151.18c0-20.14-2.5-27.72-10.08-30.22h-15.1c-2.53,0-2.53-2.53-2.53-2.53,0-2.5,2.53-2.5,5.05-2.5h57.95c2.5,0,5.02,0,5.02,2.5,0,0,0,2.53-2.5,2.53h-7.55c-10.08,2.5-12.62,7.55-12.62,27.72v176.36q0,20.17-2.5,20.17c-2.5,0-5.05-2.53-22.67-17.65-26.2-27.55-52.23-55.27-78.09-83.14-35.29-37.79-68.04-75.59-78.12-85.65l2.53,143.59h0ZM1972.73,1854.31v-65.51c0-10.09-2.5-15.12-12.59-17.63h-10.08c-2.53,0-2.53-2.53-2.53-2.53,0-2.5,2.53-2.5,5.05-2.5h103.29c5.05,0,10.08,0,12.62-2.53h5.05v2.53c0,2.5,0,5.05-2.53,15.12v20.14l-2.5,2.53c-2.53,0-2.53-2.53-2.53-5.05s0-7.55-2.5-10.08c-2.53-5.05-5.05-7.55-20.17-10.08h-42.84v88.17h47.87c7.55,0,12.59-2.5,15.12-5.05q2.5-2.5,5.05-2.5v2.5s0,5.05-2.53,15.12v20.17c0,2.5,0,5.05-2.5,5.05s-2.53,0-2.53-2.53v-10.08c-2.5-5.05-5.05-10.08-15.12-10.08s-40.3-2.5-45.34-2.5v30.25c0,10.05-2.5,45.34,0,50.39,0,22.67,5.05,25.17,32.75,25.17,10.08,0,22.67,0,30.25-2.5,7.55-5.05,12.59-10.08,12.59-22.67,2.5-2.53,2.5-5.05,2.5-5.05,2.53,0,2.53,2.5,2.53,5.05s-2.53,22.67-2.53,30.22c-2.5,7.57-5.02,7.57-17.63,7.57-45.34,0-65.51-2.53-75.59-2.53,0,0-20.14,2.53-27.72,2.53-5.05,0-5.05-2.53-5.05-2.53q0-2.5,2.53-2.5c2.5,0,5.05,0,7.55-2.53,7.57,0,7.57-7.55,10.08-15.12v-118.44h-.01ZM1257.21,1196.73c-78.09-52.89-186.44-75.59-287.23-57.94-52.92,10.05-98.26,30.22-143.6,57.94-15.12,7.57-32.75,20.17-47.87,30.25l-50.39,32.75c-85.65,55.42-194,83.14-302.34,57.94-22.68-5.05-47.87-12.59-65.51-32.75-5.05-5.05-7.56-12.59-7.56-22.67l27.72-133.52c-30.25-20.17-65.51-27.72-103.3-30.25-17.63,0-35.28,0-50.39,2.53,45.36-40.32,57.95-98.26,42.83-156.21,73.06,0,141.09,10.08,204.08,40.31,17.63,10.06,42.83,27.72,42.83,50.39v143.6c62.98,0,113.38-27.72,163.76-60.47l57.95-40.3c108.34-70.54,234.31-108.35,372.88-90.71,78.09,10.08,151.18,40.3,219.19,83.14l60.47,40.32,15.12,10.05c50.39,32.75,100.78,62.99,163.77,62.99v-47.87l2.53-103.29c10.08-32.75,45.37-45.34,73.06-57.94,55.45-17.64,113.38-25.19,173.85-25.19-15.12,57.95,0,118.41,45.34,158.72-52.89-10.08-108.32-2.5-151.15,22.67-2.53,0-5.05,2.53-5.05,2.53l25.2,138.57c-2.53,25.2-30.25,37.79-52.92,42.84-103.3,32.75-219.19,10.08-304.87-42.84l-40.3-25.2-68.01-45.34-10.08-5.06Z"/>
  <path class="cls-4" d="M1269.8,1194.23c-88.18-55.42-199.03-80.63-309.89-60.47-60.47,12.59-113.38,37.79-163.77,70.54l-83.14,52.89c-75.59,50.39-168.8,73.08-264.54,57.96-30.23-5.05-57.94-12.62-80.62-32.75-5.03-5.05-7.56-7.57-7.56-15.12l25.19-123.45c27.72,32.72,73.06,40.3,115.9,42.81,62.98,2.53,115.9-20.14,166.29-50.39l90.7-57.94c100.78-65.51,219.19-98.27,347.68-80.63,75.59,7.55,141.1,35.26,206.61,73.06l57.94,35.29,57.96,37.79c55.42,37.77,120.93,55.42,193.99,42.81,27.74-5.05,60.47-12.59,80.63-40.3l22.67,125.98c-2.5,20.17-22.67,27.72-37.79,35.26-113.36,37.79-239.33,7.57-330.04-55.42l-88.19-57.95Z"/>
  <path class="cls-4" d="M508.93,1179.11c-42.83,0-83.14-7.55-113.37-35.26-5.03-7.57-10.08-15.12-5.03-22.7,10.06-22.67,37.79-25.17,57.94-32.75,22.68-5.05,42.83-10.05,60.47-27.72v118.43h0ZM1693.06,1116.1c5.05,5.05,7.57,15.12,5.05,22.7-10.08,17.63-32.75,27.72-50.39,35.26-22.67,5.05-45.34,10.08-70.54,10.08v-118.43c32.75,30.25,80.63,25.21,115.88,50.39h0Z"/>
  <path class="cls-4" d="M476.17,995.17c15.12,10.08,35.28,22.7,32.75,42.84-2.52,27.72-32.75,35.29-55.43,40.32-25.19,10.05-60.47,12.59-73.06,42.81-37.79-25.17-85.67-32.75-136.05-30.22,35.26-37.79,45.36-90.71,35.26-138.57,70.56,2.52,138.58,10.06,196.53,42.81h0ZM1811.49,957.39c-10.08,50.4-2.53,100.79,30.22,141.09-47.85-2.5-95.73,5.05-136.03,27.72-5.05-20.14-25.2-27.72-40.32-32.75-27.72-10.08-60.47-12.59-83.14-35.26-5.05-7.55-5.05-20.17-2.5-30.25,22.67-32.75,60.47-42.81,95.73-52.9,42.83-12.61,88.17-17.64,136.04-17.64h0Z"/>
  <path class="cls-9" d="M395.55,1274.82c2.52,0,2.52-2.5,5.03-5.05l7.56-57.94q0-2.53-2.52-5.05l32.75,2.5c15.11,2.53,22.68,15.12,20.16,25.2-2.52,10.08-10.08,20.17-27.72,17.63l-15.12-2.5-2.52,22.67c0,2.5,0,5.05,2.52,5.05v2.5l-20.14-5.02ZM418.22,1237.06l12.59,2.5c10.08,2.5,12.61,0,15.12-7.55,0-7.57-2.52-10.08-12.61-10.08l-12.61-2.53-2.5,17.65ZM498.86,1216.9c20.16,2.5,32.75,17.63,30.23,37.79,0,20.14-12.59,35.26-32.75,35.26s-32.75-17.63-30.23-37.79c-.01-20.14,12.59-35.26,32.75-35.26ZM496.33,1279.87c12.59,0,20.16-10.08,20.16-25.17s-5.05-25.2-17.64-25.2-20.16,7.57-20.16,22.67c.01,17.63,5.05,25.2,17.64,27.7ZM554.28,1267.28h2.52c0,5.05,12.61,7.55,17.64,5.05,12.59-2.53,17.64-7.55,15.12-15.12-2.52-12.59-42.84,5.05-47.87-20.14-2.52-10.08,2.52-20.17,20.16-25.2h17.63c2.52,0,5.05,2.5,7.56,0h2.52l-5.05,17.63h-2.52v-2.5c0-2.53-7.56-7.57-17.63-5.05-7.56,2.5-10.08,7.55-10.08,10.08,2.52,15.1,42.84-5.05,47.87,22.67,2.52,10.08-5.03,25.17-25.19,27.72-5.05,2.5-12.59,2.5-15.12,0h-10.08v2.5h-2.52l5.03-17.63ZM642.47,1262.24v-2.5c2.52,0,2.52-2.53,0-5.05l-20.16-47.87-15.12,7.55c-2.52,0-5.03,0-2.52,2.53l-2.52,2.5-7.56-15.1,2.52-2.53c0,2.53,2.52,2.53,5.03,0l40.31-17.63q5.03-2.53,5.03-5.05l7.56,15.12h-2.52c0-2.53-2.52-2.53-5.05,0l-15.12,7.55,22.67,47.87q2.53,2.5,5.05,2.5v2.53l-17.61,7.56ZM702.92,1216.9l25.2-17.63c2.52-2.53,5.05-2.53,2.52-5.05h2.52l7.56,12.59v2.5q-2.52-2.5-5.05,0l-40.3,25.2h-2.53c2.53-2.5,2.53-5.05,2.53-5.05l-32.75-50.39q-2.52-2.53-5.05-2.53h-2.53l40.32-25.17q2.52-2.53,2.52-5.05v-2.5l10.08,15.1h-7.56l-22.68,17.63,7.56,12.62,15.12-7.57q2.52-2.5,2.52-5.05h2.52l7.56,12.62q-2.52,0-5.05,2.5l-15.12,7.57,10.09,17.64ZM750.81,1199.26v-7.57l-32.75-50.39c-2.52,0-2.52-2.5-5.05,0v-2.5l27.72-17.65c12.59-7.55,22.67-7.55,30.23,2.53,5.05,10.08,5.05,17.63-2.52,25.17l20.16,12.62c5.05,2.5,7.56,5.05,10.08,2.5l2.52,2.53-17.63,10.05v-2.5q0-2.5-2.53-2.5l-22.67-12.62-10.08,5.05,12.59,20.17q2.52,2.5,5.05,2.5l2.52,2.53-17.64,10.09ZM743.25,1156.44l12.59-10.08c7.56-2.5,7.56-7.55,5.05-12.59-5.05-5.05-7.56-7.57-15.12-2.53l-12.59,7.57,10.08,17.63ZM803.71,1163.98l-2.52-2.5c2.52,0,2.52-2.53,2.52-2.53l-10.08-60.47v-5.05h-5.05v-2.5l20.16-10.08v2.5c-2.52,0-2.52,2.53,0,2.53,0,0,0,2.5,2.52,5.05l42.83,40.3q2.52,2.53,5.05,2.53l-15.11,10.08v-5.03l-2.52-2.53-7.56-7.55-22.67,10.08,2.52,12.59v2.5s2.52,2.53,5.03,0v2.53l-15.11,7.55ZM826.38,1121.15l-22.68-20.14,7.56,27.72,15.12-7.57ZM922.12,1043.04l-5.05,20.17v-2.53c-2.52-5.02-10.08-7.55-17.63-5.02-10.08,5.02-17.64,12.59-10.08,30.22,2.52,15.12,12.61,22.67,25.2,17.63,7.56-2.5,12.59-7.55,10.08-12.59v-2.53l15.12,10.08h-2.52c-2.52,2.53-5.03,12.62-20.16,17.63-20.16,5.05-35.26-7.55-42.83-25.17-7.56-25.2,5.03-40.3,22.67-45.34,4.72-2.53,10.4-2.53,15.12,0h5.03q2.52,0,2.52-2.53h2.5ZM947.31,1106.05v-2.53l2.52-2.5-10.08-60.47q0-2.53-2.52-2.53v-2.5l32.75-5.05c15.12-2.53,25.2,5.05,25.2,17.63,2.52,10.08-2.53,17.63-12.61,20.17l15.12,20.14c2.53,5.05,5.05,7.57,7.56,7.57v2.5l-20.16,2.53v-2.53s2.52,0,2.52-2.5l-2.52-2.53-15.12-20.14h-10.08l2.52,25.17q0,2.53,2.52,2.53v2.5l-17.63,2.53ZM957.39,1063.21l15.12-2.53c7.56,0,10.08-5.02,10.08-10.05,0-7.57-5.03-10.08-12.59-7.57l-15.12,2.53,2.52,17.63ZM1030.46,1085.88h30.23c2.53,0,5.05,0,5.05-2.53h2.5v15.12h-2.5s-2.5-2.5-5.05-2.5h-47.87c2.52,0,2.52-2.53,2.52-5.05v-60.47q0-2.53-2.52-2.53v-2.5h45.37q5.05,0,5.05-2.5h2.5v17.63h-2.5q0-2.53-5.05-2.53h-27.73v17.65h17.64q2.52,0,2.52-2.53h2.53v15.12h-2.53q0-2.53-2.52-2.53h-17.64v20.14ZM1080.85,1078.33h2.5v2.5c0,5.05,10.08,7.55,17.63,10.08,12.62,2.5,17.65-2.53,17.65-7.57,2.5-15.1-42.84-12.59-37.79-37.77,0-10.08,10.08-17.65,27.72-15.12,7.55,0,12.59,2.5,15.1,5.05q5.05,2.5,7.57,2.5h5.03l-12.62,15.12h-2.5v-2.5c0-2.53-5.05-10.08-15.12-10.08-7.55-2.53-12.59,2.5-12.59,5.05-2.5,15.1,42.84,10.08,37.79,37.77,0,10.08-12.59,20.17-32.75,17.65-7.55,0-12.59-2.53-15.12-5.05q-5.05-2.53-7.55-2.53h-5.03l10.09-15.1ZM1204.29,1058.16l-12.59,12.59v-2.5c0-5.05-5.05-10.08-10.08-12.59-12.59-2.53-22.67,2.5-27.72,20.14-5.05,12.59,2.5,25.2,12.59,27.72,7.57,2.53,15.12,0,17.65-5.05v-2.5l7.55,17.63q-2.53,0-2.53-2.5c-2.5,0-10.05,7.55-27.72,2.5-17.63-5.05-25.17-22.67-20.14-42.84,5.05-22.67,25.17-30.22,42.84-25.17,5.02,2.5,10.05,5.05,12.59,7.55q2.5,2.53,5.05,5.05l2.5-2.5v2.49ZM1186.67,1121.15l2.5-2.5s2.53,0,2.53-2.53l40.3-45.34c2.53,0,2.53-2.5,2.53-2.5,2.5,0,0-2.53,0-2.53v-2.5l20.14,10.08q-2.5,0-5.05,2.5v5.05l-5.05,57.96c0,2.5,2.53,5.05,2.53,5.05v2.5l-17.63-7.55v-2.53h2.5c2.53,0,2.53-2.5,2.53-2.5v-12.62l-22.67-10.05-7.57,10.05h-2.5q0,2.53,2.5,5.05v2.53l-17.6-7.6ZM1234.54,1111.08l2.5-30.25-17.63,22.67,15.12,7.57ZM1247.13,1146.35l2.5-2.5c0,2.5,2.53,0,2.53,0l32.75-52.92q2.5-2.53,0-2.53v-2.5l20.17,12.59v2.53h-2.53c-2.5,2.5-7.55,35.26-7.55,42.84,15.1-12.62,32.75-25.2,35.26-25.2q0-2.53-2.5-2.53l2.5-2.5,20.17,12.59h-2.53s-2.5,0-2.5,2.53l-32.75,52.89c-2.53,0,0,2.53,0,2.53v2.5l-15.12-10.08v-2.5q2.53,2.5,5.05,0l25.2-42.84c-15.12,12.62-32.75,22.67-47.87,35.29v-2.53c2.5-17.63,5.05-37.79,10.08-55.42l-25.2,40.3c-2.5,2.53-2.5,5.05,0,5.05v2.53l-17.65-10.12ZM1385.69,1156.44q0-2.53-2.5-5.05v-2.53l20.14,12.62-2.5,2.5q-2.5-2.5-5.05,0l-30.22,45.34,25.17,15.12c2.53,2.53,5.05,2.53,5.05,0l2.53,2.53-10.08,12.59q0-2.5-2.53-5.05l-40.3-25.2,2.5-2.5q2.53,2.5,5.05,0l32.74-50.39ZM1398.31,1244.6v-2.53h5.02l42.84-45.34c0-2.5,2.53-2.5,2.53-2.5q0-2.53-2.53-2.53v-2.5l20.17,10.08q-2.5,0-2.5,2.5s0,2.53-2.53,5.05l-5.05,57.96v7.55l-17.63-7.55,2.5-2.53h2.53v-2.5l2.5-12.62-22.67-10.05-7.55,7.55c-2.53,0-2.53,2.5-2.53,2.5,0,0,0,2.53,2.53,2.53l-2.53,2.5-15.11-7.56h0ZM1446.15,1237.06l5.05-30.25-20.17,22.67,15.12,7.57ZM1504.12,1211.86v2.5c-2.53,0-5.05,0-5.05,2.53l-10.08,37.79c-2.5,10.08,2.53,15.1,12.59,17.63,7.57,2.5,15.12-2.53,17.65-10.08l10.05-37.79c0-2.5,0-5.05-2.5-5.05v-2.5l17.63,5.05v2.5q-2.5,0-2.5,2.53l-10.08,37.79c-5.05,15.1-15.12,22.67-35.29,20.14-17.63-5.05-22.67-17.63-20.14-32.75l10.08-40.3q0-2.53-2.53-2.53v-2.5l20.17,5.03h0ZM1554.5,1226.98c0-2.53-2.5-2.53-5.05-2.53v-2.5h30.25c22.67,0,32.75,17.63,32.75,35.26,0,25.2-12.62,35.29-35.29,35.29h-27.72q2.53-2.53,2.53-5.05l2.53-60.48h0ZM1567.1,1282.4h7.57c17.63,0,22.67-5.05,25.17-25.2,0-17.63-7.55-22.67-25.17-22.67h-7.57v47.87ZM1647.72,1274.82l30.22-7.55q2.53,0,2.53-2.5h2.5l5.05,15.1h-2.5c0-2.5-2.53-2.5-5.05-2.5l-47.87,12.59q2.53-2.5,2.53-5.05l-15.12-57.94q0-2.53-5.05-2.53v-2.5l45.34-12.62c2.53,0,5.05,0,5.05-2.5l5.05,15.12h-2.5c0-2.53-2.53-2.53-5.05,0l-27.72,7.55,5.05,15.12,15.1-2.53q5.05-2.5,5.05-5.02h2.53l2.5,15.1h-5.05l-17.63,5.05,5.05,17.61h0Z"/>
  <path class="cls-2" d="M959.92,244.39l-5.05-5.05c-2.52-22.67-7.56-47.86-27.72-62.98-55.43-20.16-118.41-7.56-173.85-25.19,0,0-37.79-10.08-62.98-15.12-25.19-5.03-40.31-7.56-60.47-12.59-22.68-7.56-45.36-12.59-73.07-17.64,17.64,55.43,131.01,88.18,161.25,93.23,7.56,2.52,22.67,5.03,45.34,10.08,42.84,12.59,90.7,10.08,125.98,40.31l-83.14-20.16c-10.08-2.52-20.16-5.05-37.79-7.56,2.52,20.16,15.12,35.28,27.72,40.31,42.84,12.59,57.95,15.12,83.15,30.23,5.03-7.55,17.64-2.52,25.19-10.06,0-12.61,2.52-22.68,25.2-20.16,2.52-7.56,17.64-15.12,20.16-15.12-5.03,7.56-10.08,15.12-10.08,22.67,0,0-17.64-2.52-25.19,2.52-5.05,5.05,2.52,15.12,2.52,22.68-7.56,0-25.19-5.05-27.72,5.03-2.52,10.08,5.05,15.12,10.08,17.64-12.61,7.55-30.23-2.53-32.75,10.08-2.52,12.59,5.03,10.08,10.08,15.12l-15.12,15.11s22.67,12.61,37.79,17.64c17.63-20.16,30.23-27.72,50.39-32.75,12.61-22.68,30.23-30.23,50.4-30.23-27.73-20.18-40.32-35.29-40.32-68.04h0ZM786.07,183.92l-30.23-10.08c42.83,7.56,95.73,7.56,136.05,22.68,17.64,7.56,25.19,25.19,30.23,42.83-35.28-42.84-78.1-42.84-136.05-55.43ZM1363.02,826.38l-50.39-60.47c-7.55-2.52-10.08-12.59-10.08-12.59-35.26-5.05-55.42-32.75-93.23-25.2-32.75-2.52-65.51-20.16-45.34-40.31-7.57-2.52-12.59-5.03-15.12-12.59-2.5-7.56,5.05-12.61,5.05-17.64-5.05,2.52-17.63,10.08-20.17,20.16-5.05,12.59,25.2,42.83,32.75,52.9l55.42,50.39c5.05,12.59,25.2,27.72,25.2,35.26-5.05,0-10.08-2.52-12.59-5.03-42.84-35.28-85.67-75.59-110.88-123.46-2.5,2.52-5.02,0-7.55-2.52-12.59-7.56-7.55-25.19-15.12-37.79-2.5,0-5.02-2.52-7.55-2.52-5.05,0-5.05,7.56-7.55,12.59,0,0,0,10.08,2.5,25.2,5.05,15.11-25.17-12.61-32.75-20.17,0,7.56,5.05,20.17,7.57,27.72-2.53,2.52-5.05,0-10.08,0-15.12-2.52-25.2-30.23-32.76-32.75s-7.56,7.56-17.64,2.52c-5.05-7.56-5.05-10.08-2.52-17.64,7.55-5.05,7.55-15.12,0-12.61-5.05,2.53-7.56,5.05-22.68-2.52-10.08,2.52-17.64,7.56-7.56,37.79,10.08,15.12,20.16,27.7,30.25,42.83l40.3,60.47,52.92,85.65,22.67,32.75c7.55,17.64,50.39,37.79,32.75,50.39-35.26,47.87,10.08,57.94,10.08,57.94,37.79,7.57,37.79-15.11,50.39-30.22,5.05-7.56,22.67-5.05,17.63,10.08,0,0-5.05,10.08-10.05,12.61-37.79,25.2,17.63,10.08,30.22,7.55,0,0,12.59,0,0,17.65-7.55,17.63,27.72,12.59,37.79,7.55,32.75-17.63,25.17-30.23,45.34-40.31,30.25-15.12,52.92-20.16,50.39-57.95-25.17-15.12-88.18-78.1-88.18-78.1h2.53l50.39,35.28,32.75,25.2c5.05,2.52,15.12,10.08,17.63,15.12,0,20.16-7.55,42.83-27.72,52.9-12.59,7.56-42.84,10.08-47.87,32.75,5.05,10.08,27.72,10.08,47.87,5.05,35.26-12.59,35.26-27.7,50.39-62.98,5.05-15.12,17.63-15.12,32.75-12.59-27.66-27.7-60.41-80.62-88.13-108.32h0ZM1234.54,919.6c-7.57-15.12-27.72-37.79-40.32-52.9l-95.73-133.54c27.72,20.16,133.52,161.25,133.52,161.25,5.03,15.11,5.03,20.16,2.53,25.19ZM1103.52,325.01s-25.2,32.75-42.84,42.84c-17.64,7.56-32.75,10.08-40.31,7.56,20.16-5.05,25.19-5.05,40.31-20.16-17.64,7.56-25.19,7.56-37.79,7.56s-15.12-15.12-15.12-10.08c-2.52,10.08-10.08,20.16-10.08,20.16-5.05,15.12-25.19,27.72-12.59,45.34,5.05,10.08,15.12,12.61,25.19,12.61,0,2.52-5.03,5.05-2.52,7.56,7.56,2.52,20.17-10.08,85.67,0,37.79-17.64-5.05-93.21,25.2-120.93,2.53-2.54-10.06,2.49-15.11,7.54h0ZM1073.27,430.83c-15.1,2.52-17.63,0-27.7-2.52s-15.12-10.08-15.12-17.64c0,0,10.08,15.12,32.76,15.12,17.63,0,22.67-5.05,27.72-10.08.01-.01-2.53,15.11-17.65,15.11Z"/>
  <path class="cls-1" d="M695.37,506.4l30.23-7.56-15.12,25.19,25.19,17.63-30.23,2.52c0,10.08,2.52,20.16,2.52,30.23l-22.67-20.16c-7.56,7.56-15.12,12.59-22.67,20.16l2.52-27.72c-10.08-5.05-20.16-5.05-30.23-7.56l25.2-17.63-12.61-25.19,25.19,10.08c7.56-10.08,10.08-20.16,12.61-27.72,2.53,7.57,5.05,17.66,10.09,27.73ZM864.18,549.24c10.08,0,20.16-5.05,30.23-7.56l-15.12,25.2c10.08,5.03,17.64,12.59,25.19,20.15l-30.23,2.52c0,7.56,2.52,17.63,2.52,30.23l-22.68-20.16c-7.56,5.03-15.11,12.59-22.67,20.16,0-10.08,0-20.16,2.52-30.23-7.56-2.52-20.16-2.52-27.72-5.05l25.19-17.64-15.12-25.2,27.72,7.56c5.03-7.56,5.03-17.63,10.06-27.72l10.13,27.73h0ZM662.63,723.08l30.23-7.55-15.12,25.19c7.56,5.03,17.64,10.08,25.19,17.63l-30.23,2.52c0,10.08,2.52,20.16,2.52,30.23-7.56-7.56-15.11-12.59-22.67-20.16-7.56,7.56-15.12,12.59-22.67,20.16l2.52-27.72c-7.56-5.05-20.16-5.05-27.72-7.56,7.56-5.03,17.64-10.08,25.2-17.63l-15.12-25.2c10.08,2.53,17.64,7.56,27.72,10.08,2.52-10.08,7.56-17.63,10.08-27.72l10.09,27.73ZM861.65,733.15h27.72l-22.67,15.12,7.56,27.72-20.17-17.64-22.67,17.64,7.56-27.72c-5.05-5.05-12.59-10.08-20.17-15.12h25.2c5.03-7.56,5.03-17.63,10.06-25.19,2.54,7.56,5.06,17.63,7.57,25.19Z"/>
  <path class="cls-8" d="M864.18,912.03c10.08-2.52,17.64-7.56,27.72-10.08l-12.59,25.2,22.68,20.16c-7.56,0-20.16,0-27.72,2.52v30.23l-20.17-20.16-22.67,20.16v-30.23c-7.56-2.52-17.64-2.52-27.72-5.05,7.56-7.56,17.64-12.59,25.19-17.63l-12.59-25.2,25.2,10.08,12.59-27.72,10.08,27.72h0Z"/>
  <path class="cls-5" d="M864.18,912.03c10.08-2.52,17.64-7.56,27.72-10.08l-12.59,25.2,22.68,20.16c-7.56,0-20.16,0-27.72,2.52v30.23l-20.17-20.16-22.67,20.16v-30.23c-7.56-2.52-17.64-2.52-27.72-5.05,7.56-7.56,17.64-12.59,25.19-17.63l-12.59-25.2,25.2,10.08,12.59-27.72,10.08,27.72h0Z"/>
  <path class="cls-6" d="M2.52,1700.63h2086.1"/>
</svg>