<?xml version="1.0" encoding="UTF-8"?>
<svg id="Layer_1" data-name="Layer 1" xmlns="http://www.w3.org/2000/svg" viewBox="0 0 1080 330.7">
  <defs>
    <style>
      .cls-1 {
        fill: #fff;
        stroke-width: 0px;
      }
    </style>
  </defs>
  <path class="cls-1" d="M830.35,184.93c-1.61,5.75-4.94,10.6-10,14.5-5.06,3.91-10.46,5.86-16.19,5.86h-204.41c-5.71,0-9.98-1.95-12.78-5.86-2.83-3.9-3.43-8.75-1.84-14.5l45.47-164.13c1.6-5.75,4.89-10.64,9.89-14.65,4.99-4.02,10.35-6.03,16.08-6.03h204.39c5.92,0,10.3,1.97,13.12,5.87,2.81,3.91,3.38,8.85,1.72,14.81l-5.38,19.43h-204.39l-34.6,124.96h204.38l-5.46,19.74h0Z"/>
  <polygon class="cls-1" points="894.35 205.29 853.55 205.29 910.28 .39 951.08 .39 894.35 205.29 894.35 205.29"/>
  <polygon class="cls-1" points="333.85 0 293.04 0 255.86 134.27 91.9 .31 34.99 205.78 75.78 205.78 112.74 72.33 276.72 206.31 333.85 0 333.85 0"/>
  <path class="cls-1" d="M600.1,5.99c-2.83-3.9-7.19-5.87-13.11-5.87h-224.33l-11.12,40.14,204.08-.03-11.87,42.89-203.98.09-33.94,122.09h40.82l22.73-82.07h183.54c5.71,0,11.11-1.95,16.18-5.85,5.07-3.91,8.4-8.75,10-14.51l22.72-82.07c1.65-5.96,1.08-10.9-1.72-14.81h0Z"/>
  <polygon class="cls-1" points="1028.34 .19 1080 102.95 971.39 205.64 1028.34 .19 1028.34 .19"/>
  <polygon class="cls-1" points="992.12 .19 1043.74 102.95 935.11 205.64 992.12 .19 992.12 .19"/>
  <path class="cls-1" d="M928.53,229.96c1.91-1.24,3.81-1.85,5.8-1.85s3.98.48,5.99,1.36c1.06.44,2.1,1.01,3.1,1.68,2.36,1.47,4.5,3.33,6.35,5.52l.47.59,1.17,1.46h-26.34l-.24-.75-.07-.21c-.15-1.1-.12-2.08.15-2.99.53-2.03,1.76-3.63,3.62-4.8h0ZM1031.18,242l-2.8,10.42h-13.2l2.81-10.42h13.2ZM957.22,238.72c-.83-1.1-1.68-2.19-2.5-3.31-2.72-3.03-5.25-5.29-7.74-6.9-1.88-1.23-3.72-2.13-5.58-2.76-1.91-.63-3.95-.96-5.95-.96-3.68,0-6.93.79-9.67,2.35-2.71,1.59-4.5,3.94-5.31,7.01-.34,1.16-.36,2.35-.07,3.49v.1s.21.98.21.98h-6.8l-.88,3.28h6.74l-7.96,29.49h4.77l7.96-29.49h31.8l-2.03,7.55h-19.43l-2.15.37c-.83.27-1.41.94-1.68,1.92-.14.46-.06,1.4,2.06,4.09l.29.31c1.83,2.22,3.04,3.23,3.95,3.23,1.34,0,1.93-.56,2.21-1.12l1.49-5.53h12.36l-5.04,18.67h4.74l7.97-29.49h17.05l-2.55,9.41h-4.35l-.78.15c-1.06.22-1.67.66-1.83,1.34-.34,1.25.43,2.82,2.32,4.83,2.02,2.03,3.51,2.94,4.82,2.94,1.05,0,1.88-.52,2.39-1.49l.36-1.32,4.29-15.85h11.43l-7.96,29.49h4.79l7.96-29.49h14.19l-2.81,10.42h-3.18l-1.41.26c-.81.17-1.3.69-1.56,1.59-.26.95.45,2.3,2.32,4.38,1.74,2.03,3.18,3.01,4.38,3.01.94,0,1.6-.29,1.99-.86l.28-.86,1.12-4.13h13.2l-4.24,15.69h4.74l7.96-29.49h6.32l.88-3.28h-85.89Z"/>
  <path class="cls-1" d="M740.49,242h8.94l-3.04,11.33h-11.53l2.52-9.42c.46-1.73.07-3.18-1.2-4.32-1.24-1.11-2.96-1.66-5.11-1.66s-4.12.48-5.9,1.46c-1.73,1.03-2.9,2.54-3.44,4.5-.17.58-.15,1.27.07,2.37l.04.16.34.88.09.21h4.47l-.42-.61-.24-.4-.02-2.43c.25-.9.71-1.61,1.46-2.17.73-.54,1.58-.8,2.58-.8,1.28,0,2.1.22,2.45.66l.27,1.77-2.65,9.81h-4.43l-1.49.45-1.24,1.36c-.15.56-.02,1.64,2.86,4.67,2.82,3.02,3.9,3.38,4.49,3.38l1.98-.77.41-1.27,1.15-4.28h11.55l-3.74,13.84c-1.46.27-2.89.72-4.27,1.35-.72.36-1.63.9-2.64,1.56l-.4.27,3.05,2.83.26-.23,1.54-1.23c1.22-.79,2.43-1.2,3.59-1.2,1.24,0,2.17.33,2.77.96.63.67.8,1.43.52,2.41-.4,1.49-1.41,2.68-3.01,3.55-1.65.88-3.51,1.34-5.49,1.34-3.24,0-6.15-1.07-8.62-3.18-.85-.68-1.76-1.73-2.87-3.08l-.25-.3-3.84,3.09.29.31c1.43,1.52,2.69,2.62,3.86,3.35,3.42,2.15,7.11,3.18,11.26,3.18,3.41,0,6.38-.71,8.8-2.15,2.5-1.47,4.09-3.41,4.75-5.78.54-2.01.12-3.75-1.26-5.18-.92-.92-2-1.51-3.27-1.81l7.76-28.77h17.23l-2.55,9.41h-4.3l-.38.07-.45.07c-.67.14-1.59.43-1.85,1.35-.32,1.21.41,2.8,2.29,4.81,1.94,2,3.54,2.96,4.89,2.96,1.03,0,1.87-.54,2.33-1.47l.37-1.34,4.29-15.86h11.43l-7.96,29.48h4.79l7.96-29.48h32.45l-1.71,6.35h-15.82c-2.28,0-4.23.54-5.92,1.66-1.72,1.07-2.87,2.67-3.41,4.74-.97,3.53.06,7.36,3.06,11.34,1.08,1.35,2.69,3.03,4.72,4.81l.21.21,3.77-2.53-.38-.33c-1.79-1.58-3.21-3.06-4.14-4.27-2.5-3.31-3.37-6.44-2.61-9.34.3-1.06.87-1.82,1.76-2.36,1.01-.58,2.42-.86,4.18-.86h13.76l-5.42,20.08h4.74l7.97-29.48h11.42l-7.96,29.48h4.75l7.97-29.48h31.8l-2.03,7.54h-19.45s-2.12.36-2.12.36c-.83.28-1.4.95-1.67,1.93-.14.52-.03,1.52,2.33,4.4,1.92,2.29,3.07,3.24,3.95,3.24,1.09,0,1.81-.36,2.22-1.13l1.48-5.52h12.38l-5.04,18.66h4.73l7.97-29.48h6.33l.88-3.29h-148.07l-.89,3.29h0Z"/>
  <path class="cls-1" d="M627.77,242l-1.65,6.09h-10.18c-2.36,0-4.54.54-6.49,1.57l-1.26.82c-1.05.71-1.85,1.45-2.45,2.27l-9.38-10.75h31.42ZM603.81,256.09l-.03.07-.06.24-.22.94-1.2.53c-1.71.7-3.4,1.05-5.16,1.05h-.08c-1.96-.04-3.41-.49-4.35-1.33-.95-.87-1.22-2.02-.82-3.5l2.41-8.95,9.5,10.96h0ZM634.18,229.86c1.06-.84,2.41-1.25,4.12-1.25,1.21,0,2.31.19,3.27.54,1.95.76,3.41,2.28,4.47,4.66.47,1.11.89,2.76,1.22,4.89h-14.64l-.47-1.07-.07-.17c-.39-1.35-.39-2.74-.02-4.13.4-1.49,1.11-2.66,2.12-3.48h0ZM673.31,243.66l-.69-1.66h12.19l-4.08,15.08c-1.18,1.05-2.08,1.75-2.8,2.22-2.53,1.5-5.03,2.27-7.63,2.34h-.24c-3.19,0-5.32-.98-6.47-3.01-.28-.54-.5-1.36-.7-2.71,1.87-.34,3.39-.76,4.53-1.2,3.4-1.41,5.52-3.64,6.31-6.59.38-1.36.24-2.92-.41-4.48h0ZM650.06,232.37c-1.53-3.52-4.07-5.7-7.56-6.5-1.03-.27-2.17-.39-3.62-.39-2.85,0-5.29.63-7.25,1.88-2.07,1.29-3.41,3.18-4.1,5.78-.37,1.25-.27,2.75.25,4.37l.4,1.2h-89.1l-.88,3.29h19.37l-1.99,7.38c-.29,1.07-.94,1.97-1.95,2.65-1.05.68-2.37,1.03-3.93,1.03-.97,0-1.74-.13-2.51-.42-.91-.38-1.07-.72-1.12-.87l-2.06-4.68-4.3,2.21.17.43c.45,1.05.85,1.99,1.16,2.73.92,2.15,2.19,4.57,3.86,7.37,1.07,1.81,2.45,3.86,4.09,6.12,1.27,1.75,2.68,3.52,4.27,5.41l.22.27,4.15-2.7-.29-.35-1.22-1.34-.96-1.06-1.79-2.26c-.73-.89-1.34-1.67-1.82-2.31l-3.23-5.59c1.87.35,4.01.06,6.33-.76,1.7-.62,3.01-1.41,3.89-2.34.89-.97,1.46-1.96,1.75-3.03l2.13-7.87h12.41l-7.97,29.48h4.76l7.96-29.48h10.73l-3.15,11.73c-.66,2.44-.04,4.49,1.84,6.1,1.85,1.56,4.31,2.35,7.39,2.35,1.32,0,2.69-.21,4.18-.63.9-.24,1.88-.56,2.91-.97.26,1.51.9,2.88,1.96,4.13l.84.97.1.09c1.79,1.69,3.96,2.84,6.44,3.43l-16.07,11.03h7.02l12.01-9.4,6.38,9.4h5.69l-8.22-10.64c2.14-.23,3.96-.69,5.57-1.36,2.38-.98,4.61-2.42,6.81-4.41l.4-.36-3.57-2.02-.21.2c-3.12,3.05-6.77,4.54-11.12,4.54-3.25,0-5.81-.96-7.63-2.82-1.57-1.61-2.2-3.4-1.98-5.43l.24-1.12.29-.87c.51-1.11,1.42-2.08,2.67-2.83,1.51-1.03,3.2-1.54,5.01-1.54h13.72l2.58-9.58h14.13l-7.94,29.48h4.76l7.97-29.48h15.73l1.24,1.77c.78,1.59,1,2.88.69,4.04-.46,1.76-1.47,3.1-3,3.96-1.28.72-2.91,1.08-4.81,1.08l-1.05-.17-.66-.14-.66-.13-.33-.04-.09.33c-.8,3.03-.27,5.81,1.62,8.26,1.85,2.48,5.03,3.73,9.45,3.73h.21c2.63-.04,5.19-.54,7.64-1.48l2.03-.94-2.47,9.21h4.77l7.96-29.48h6.33l.88-3.29h-45.18c-.33-2.83-.85-4.96-1.54-6.34h0Z"/>
  <path class="cls-1" d="M452.16,229.87c1.05-.84,2.37-1.24,4.06-1.24,1.22,0,2.28.18,3.26.53,1.96.78,3.49,2.34,4.51,4.66.47.99.83,2.51,1.2,4.89h-14.65l-.51-1.23c-.41-1.41-.43-2.81-.06-4.13.41-1.5,1.15-2.66,2.19-3.48h0ZM491.28,243.66l-.68-1.65h12.13l-4.05,15.09c-1.17,1.05-2.2,1.77-2.85,2.19-2.47,1.49-5.05,2.28-7.63,2.35h-.22c-3.17,0-5.36-1.01-6.46-2.97-.29-.64-.52-1.58-.7-2.74,1.89-.36,3.46-.77,4.58-1.21,3.36-1.41,5.48-3.64,6.27-6.59.36-1.3.23-2.86-.38-4.48h0ZM468.02,232.36c-1.61-3.52-4.16-5.7-7.59-6.48-.98-.28-2.15-.4-3.62-.4-2.84,0-5.27.63-7.25,1.88-2.07,1.31-3.46,3.25-4.16,5.78-.32,1.24-.23,2.72.29,4.38l.43,1.2h-89.11l-.89,3.29h8.93l-3.05,11.33h-11.54l2.55-9.42c.46-1.73.04-3.19-1.23-4.33-1.19-1.09-2.89-1.66-5.11-1.66s-4.13.5-5.89,1.47c-1.73,1.02-2.87,2.49-3.4,4.5l.05,2.3.34,1.11.11.2h4.48l-.47-.61-.2-.41-.02-2.41c.27-.92.73-1.64,1.43-2.19.69-.53,1.55-.8,2.56-.8,1.3,0,2.15.22,2.52.65l.21,1.76-2.64,9.83h-4.39l-1.57.43-1.18,1.38c-.09.32-.36,1.32,2.83,4.65,2.83,3.03,3.93,3.38,4.52,3.38l1.96-.75.43-1.28,1.17-4.27h11.52l-3.94,14.61h4.75l7.97-29.49h11.36l-7.95,29.49h4.79l7.97-29.49h23.98l-2.01,7.39c-.29,1.11-.92,1.97-1.93,2.64-1.07.7-2.36,1.04-3.93,1.04-.93,0-1.75-.14-2.49-.41l-1.15-.88-2.07-4.69-4.21,2.21.11.32c.35.91.73,1.87,1.17,2.84.93,2.17,2.19,4.52,3.8,7.36.97,1.62,2.23,3.5,4.13,6.12,1.53,2.04,2.92,3.82,4.26,5.42l.22.26,4.2-2.69-.4-.44c-.89-.96-1.59-1.72-2.09-2.3l-.69-.87c-1.24-1.51-2.2-2.72-2.91-3.7l-3.27-5.59c1.87.35,4,.05,6.32-.77,1.72-.61,3.05-1.4,3.93-2.33.88-.96,1.45-1.96,1.75-3.03l2.13-7.87h33.53l-1.72,6.35h-15.82c-2.27,0-4.26.55-5.94,1.65-1.7,1.09-2.85,2.7-3.4,4.76-.96,3.53.07,7.34,3.07,11.33,1.1,1.4,2.73,3.07,4.7,4.83l.23.19,3.76-2.52-.38-.32c-1.84-1.65-3.27-3.12-4.13-4.27-2.48-3.3-3.35-6.44-2.58-9.35.31-1.07.86-1.84,1.72-2.35,1.04-.57,2.42-.87,4.16-.87h13.78l-5.4,20.09h4.75l7.96-29.49h11.38l-7.95,29.49h4.75l7.97-29.49h15.72l1.26,1.78c.78,1.43,1.01,2.76.67,4.02-.47,1.76-1.47,3.08-2.96,3.96-1.31.72-2.94,1.09-4.82,1.09l-1.08-.17-.61-.14-.65-.14-.34-.04-.09.33c-.82,2.99-.3,5.77,1.56,8.27,1.85,2.47,5.02,3.73,9.47,3.73h.21c2.69-.05,5.19-.53,7.68-1.48l2.03-.93-2.48,9.2h4.75l7.96-29.49h6.32l.89-3.29h-45.15c-.34-2.82-.86-4.95-1.54-6.36h0Z"/>
  <polygon class="cls-1" points="0 329.36 9.63 294.76 25.12 315.11 26.35 316.94 27.59 319.15 34.01 296.07 39.01 296.07 29.4 330.65 13.58 309.95 12.4 308.17 11.41 306.21 4.98 329.36 0 329.36 0 329.36"/>
  <path class="cls-1" d="M49.01,316.28h9.27l-1.3-7.59-.16-1.67-.05-2.1-1.13,2.03-1.11,1.74-5.53,7.59h0ZM60.33,329.36l-1.4-8.57h-13.17l-6.25,8.57h-5.69l25.73-34.6,6.5,34.6h-5.71Z"/>
  <polygon class="cls-1" points="82.57 300.66 74.59 329.36 69.18 329.36 77.15 300.66 68.31 300.66 69.59 296.07 92.64 296.07 91.36 300.66 82.57 300.66 82.57 300.66"/>
  <polygon class="cls-1" points="88.55 329.36 97.8 296.07 103.21 296.07 93.97 329.36 88.55 329.36 88.55 329.36"/>
  <path class="cls-1" d="M132.97,312.78c.46-1.68.61-3.28.42-4.79-.2-1.52-.7-2.87-1.52-4.05-.8-1.17-1.85-2.07-3.15-2.69-1.29-.63-2.78-.95-4.42-.95s-3.27.32-4.93.94c-1.64.63-3.2,1.53-4.7,2.7-1.47,1.17-2.73,2.51-3.75,4.03-1.04,1.51-1.78,3.12-2.26,4.81-.47,1.68-.6,3.28-.41,4.78.21,1.49.7,2.84,1.52,4.02.82,1.18,1.89,2.08,3.18,2.71,1.29.61,2.78.92,4.43.92s3.25-.31,4.88-.92c1.64-.62,3.2-1.53,4.71-2.71,1.48-1.18,2.73-2.53,3.75-4.04,1.04-1.5,1.8-3.11,2.25-4.76h0ZM138.6,312.78c-.65,2.37-1.72,4.61-3.18,6.71-1.47,2.12-3.29,3.98-5.46,5.64-2.15,1.65-4.46,2.91-6.84,3.79-2.4.88-4.77,1.32-7.15,1.32s-4.57-.44-6.49-1.32c-1.92-.89-3.49-2.15-4.71-3.79-1.24-1.66-2.01-3.53-2.29-5.62-.3-2.08-.12-4.33.54-6.73.66-2.37,1.73-4.63,3.19-6.73,1.46-2.1,3.27-3.99,5.44-5.65,2.17-1.66,4.43-2.91,6.83-3.78,2.38-.86,4.8-1.29,7.2-1.29s4.55.43,6.45,1.29c1.91.87,3.49,2.13,4.71,3.78,1.24,1.68,2,3.57,2.29,5.69.31,2.12.13,4.34-.54,6.69h0Z"/>
  <polygon class="cls-1" points="139.28 329.36 148.91 294.76 164.39 315.11 165.64 316.94 166.88 319.15 173.3 296.07 178.29 296.07 168.69 330.65 152.86 309.95 151.69 308.17 150.69 306.21 144.27 329.36 139.28 329.36 139.28 329.36"/>
  <path class="cls-1" d="M188.28,316.28h9.27l-1.29-7.59-.16-1.67-.04-2.1-1.15,2.03-1.11,1.74-5.53,7.59h0ZM199.61,329.36l-1.4-8.57h-13.18l-6.25,8.57h-5.68l25.73-34.6,6.49,34.6h-5.71Z"/>
  <polygon class="cls-1" points="209.39 329.36 218.63 296.07 224.04 296.07 216.15 324.51 228.24 324.51 226.89 329.36 209.39 329.36 209.39 329.36"/>
  <path class="cls-1" d="M257.05,309.98h1.39c3,0,5.1-.33,6.27-.98,1.2-.65,2.02-1.8,2.47-3.45.49-1.78.32-3.02-.55-3.75-.87-.72-2.74-1.09-5.6-1.09h-1.38l-2.59,9.27h0ZM255.49,314.42l-4.15,14.93h-5.07l9.24-33.29h8.19c2.42,0,4.18.14,5.24.4,1.08.27,1.95.7,2.63,1.31.83.76,1.36,1.81,1.59,3.12.22,1.31.12,2.76-.32,4.34-.44,1.57-1.15,3.03-2.09,4.36-.97,1.33-2.08,2.38-3.33,3.14-1.03.6-2.15,1.04-3.35,1.31-1.22.25-3.05.38-5.47.38h-3.11Z"/>
  <path class="cls-1" d="M276.37,316.28h9.27l-1.29-7.59-.16-1.67-.05-2.1-1.14,2.03-1.11,1.74-5.53,7.59h0ZM287.69,329.36l-1.38-8.57h-13.19l-6.26,8.57h-5.68l25.73-34.6,6.49,34.6h-5.71Z"/>
  <polygon class="cls-1" points="296.5 329.36 300.74 314.12 294.55 296.07 300.23 296.07 304.07 307.37 304.38 308.51 304.72 310.02 305.8 308.53 306.91 307.24 317.17 296.07 322.59 296.07 306.11 314.12 301.86 329.36 296.5 329.36 296.5 329.36"/>
  <path class="cls-1" d="M345.87,312.92c0-.26.11-.97.3-2.14.15-.97.27-1.78.34-2.41l-1.22,2.27-1.58,2.31-13.64,17.74-3.68-18.11-.34-2.15-.12-2.06-.78,2.19-1.11,2.39-8.12,16.4h-4.98l17.5-34.69,3.99,21,.23,1.66c.1.78.21,1.73.33,2.87.58-.95,1.42-2.17,2.52-3.64l.66-.92,15.43-20.97-1.6,34.69h-5.02l.89-16.43h0Z"/>
  <polygon class="cls-1" points="355.26 329.36 364.52 296.07 383.09 296.07 381.81 300.66 368.64 300.66 366.33 309.01 379.5 309.01 378.17 313.76 365 313.76 362.03 324.51 375.18 324.51 373.84 329.36 355.26 329.36 355.26 329.36"/>
  <polygon class="cls-1" points="380.98 329.36 390.6 294.76 406.08 315.11 407.32 316.94 408.57 319.15 414.99 296.07 419.98 296.07 410.38 330.65 394.56 309.95 393.38 308.17 392.39 306.21 385.96 329.36 380.98 329.36 380.98 329.36"/>
  <polygon class="cls-1" points="438.04 300.66 430.07 329.36 424.66 329.36 432.63 300.66 423.79 300.66 425.07 296.07 448.12 296.07 446.84 300.66 438.04 300.66 438.04 300.66"/>
  <path class="cls-1" d="M443.87,322.69l4.88-2c0,1.48.43,2.61,1.3,3.4.88.78,2.17,1.17,3.87,1.17,1.61,0,3-.45,4.2-1.35,1.2-.89,2.01-2.08,2.42-3.58.54-1.97-.59-3.71-3.41-5.24l-.92-.5c-3.17-1.79-5.16-3.41-5.97-4.86-.82-1.44-.95-3.21-.36-5.32.76-2.71,2.28-4.9,4.59-6.58,2.32-1.69,4.96-2.53,7.95-2.53,2.46,0,4.37.47,5.76,1.42,1.4.95,2.17,2.31,2.29,4.08l-4.82,2.18c-.38-1.05-.89-1.81-1.55-2.29-.67-.49-1.51-.73-2.55-.73-1.44,0-2.71.39-3.77,1.14-1.07.76-1.78,1.78-2.13,3.04-.55,2.01.8,3.87,4.08,5.6l.59.32c2.88,1.52,4.72,3,5.56,4.45.82,1.44.92,3.25.33,5.43-.88,3.15-2.56,5.65-5.07,7.51-2.5,1.86-5.44,2.79-8.81,2.79-2.84,0-4.97-.65-6.44-1.96-1.44-1.3-2.12-3.16-2.01-5.59h0Z"/>
  <path class="cls-1" d="M516.33,304.16c-1.16-1.3-2.51-2.28-4.03-2.93-1.52-.66-3.23-.99-5.12-.99-3.63,0-6.91,1.18-9.84,3.51-2.94,2.33-4.91,5.36-5.94,9.07-1.01,3.59-.71,6.56.86,8.89,1.58,2.34,4.05,3.51,7.43,3.51,1.97,0,3.94-.36,5.91-1.05,1.98-.7,3.97-1.75,6.01-3.16l-1.69,6.12c-1.75,1.05-3.56,1.83-5.41,2.34-1.87.51-3.79.77-5.79.77-2.54,0-4.79-.42-6.71-1.25-1.93-.84-3.48-2.07-4.67-3.68-1.19-1.59-1.91-3.47-2.17-5.63-.28-2.15-.07-4.45.6-6.9.69-2.44,1.76-4.73,3.22-6.88,1.47-2.14,3.25-4.02,5.35-5.65,2.12-1.63,4.36-2.87,6.73-3.71,2.37-.84,4.79-1.26,7.28-1.26,1.96,0,3.73.27,5.36.86,1.61.56,3.1,1.42,4.45,2.57l-1.82,5.45h0Z"/>
  <path class="cls-1" d="M549.14,312.78c.48-1.68.61-3.28.41-4.79-.21-1.52-.7-2.87-1.52-4.05-.8-1.17-1.86-2.07-3.15-2.69-1.31-.63-2.78-.95-4.42-.95s-3.27.32-4.92.94c-1.66.63-3.22,1.53-4.7,2.7-1.48,1.17-2.73,2.51-3.75,4.03-1.04,1.51-1.79,3.12-2.26,4.81-.47,1.68-.6,3.28-.41,4.78.2,1.49.7,2.84,1.52,4.02.82,1.18,1.89,2.08,3.18,2.71,1.29.61,2.77.92,4.42.92s3.25-.31,4.89-.92c1.64-.62,3.2-1.53,4.7-2.71,1.47-1.18,2.73-2.53,3.76-4.04,1.04-1.5,1.79-3.11,2.25-4.76h0ZM554.78,312.78c-.65,2.37-1.72,4.61-3.18,6.71-1.48,2.12-3.29,3.98-5.46,5.64-2.15,1.65-4.45,2.91-6.85,3.79-2.39.88-4.77,1.32-7.15,1.32s-4.56-.44-6.48-1.32c-1.93-.89-3.49-2.15-4.7-3.79-1.26-1.66-2.02-3.53-2.31-5.62-.29-2.08-.11-4.33.55-6.73.66-2.37,1.73-4.63,3.19-6.73,1.46-2.1,3.27-3.99,5.44-5.65,2.16-1.66,4.44-2.91,6.82-3.78,2.39-.86,4.8-1.29,7.21-1.29s4.55.43,6.45,1.29c1.9.87,3.48,2.13,4.73,3.78,1.22,1.68,1.99,3.57,2.28,5.69.31,2.12.13,4.34-.54,6.69h0Z"/>
  <path class="cls-1" d="M567.1,310.26h.97c2.88,0,4.86-.34,5.99-1.01,1.13-.65,1.92-1.85,2.4-3.54.5-1.84.36-3.14-.45-3.89-.79-.74-2.56-1.12-5.29-1.12h-.97l-2.66,9.55h0ZM565.59,314.46l-4.14,14.89h-5.06l9.24-33.29h7.54c2.22,0,3.91.15,5.04.42,1.13.3,2.04.78,2.73,1.43.8.81,1.31,1.85,1.52,3.12.2,1.26.09,2.67-.32,4.18-.74,2.67-1.97,4.76-3.68,6.27-1.7,1.5-3.86,2.42-6.46,2.72l7.25,15.14h-6.12l-6.93-14.89h-.61Z"/>
  <path class="cls-1" d="M594.19,309.98h1.4c2.98,0,5.09-.33,6.26-.98,1.19-.65,2.01-1.8,2.45-3.45.5-1.78.32-3.02-.54-3.75-.87-.72-2.75-1.09-5.6-1.09h-1.38l-2.58,9.27h0ZM592.63,314.42l-4.16,14.93h-5.07l9.25-33.29h8.18c2.43,0,4.18.14,5.25.4,1.08.27,1.96.7,2.64,1.31.83.76,1.34,1.81,1.58,3.12.22,1.31.13,2.76-.32,4.34-.43,1.57-1.15,3.03-2.1,4.36-.97,1.33-2.07,2.38-3.34,3.14-1.02.6-2.12,1.04-3.34,1.31-1.22.25-3.05.38-5.47.38h-3.1Z"/>
  <path class="cls-1" d="M641.28,312.78c.47-1.68.61-3.28.41-4.79-.19-1.52-.69-2.87-1.52-4.05-.8-1.17-1.85-2.07-3.15-2.69-1.29-.63-2.78-.95-4.41-.95s-3.28.32-4.93.94c-1.65.63-3.21,1.53-4.7,2.7-1.46,1.17-2.73,2.51-3.75,4.03-1.04,1.51-1.78,3.12-2.25,4.81-.46,1.68-.61,3.28-.41,4.78.19,1.49.69,2.84,1.51,4.02.83,1.18,1.89,2.08,3.19,2.71,1.29.61,2.78.92,4.43.92s3.24-.31,4.88-.92c1.63-.62,3.19-1.53,4.7-2.71,1.47-1.18,2.74-2.53,3.77-4.04,1.04-1.5,1.78-3.11,2.24-4.76h0ZM646.91,312.78c-.65,2.37-1.71,4.61-3.18,6.71-1.47,2.12-3.29,3.98-5.45,5.64-2.17,1.65-4.46,2.91-6.85,3.79-2.4.88-4.78,1.32-7.16,1.32s-4.55-.44-6.48-1.32c-1.91-.89-3.49-2.15-4.72-3.79-1.22-1.66-2-3.53-2.29-5.62-.3-2.08-.12-4.33.54-6.73.66-2.37,1.73-4.63,3.19-6.73,1.46-2.1,3.27-3.99,5.45-5.65,2.16-1.66,4.42-2.91,6.82-3.78,2.38-.86,4.79-1.29,7.21-1.29s4.54.43,6.44,1.29c1.91.87,3.49,2.13,4.72,3.78,1.23,1.68,1.99,3.57,2.28,5.69.3,2.12.13,4.34-.53,6.69h0Z"/>
  <path class="cls-1" d="M657.37,310.26h.99c2.87,0,4.85-.34,5.97-1.01,1.13-.65,1.93-1.85,2.4-3.54.5-1.84.36-3.14-.45-3.89-.79-.74-2.55-1.12-5.29-1.12h-.97l-2.66,9.55h0ZM655.87,314.46l-4.14,14.89h-5.08l9.26-33.29h7.54c2.21,0,3.89.15,5.03.42,1.14.3,2.06.78,2.73,1.43.81.81,1.31,1.85,1.53,3.12.2,1.26.09,2.67-.34,4.18-.73,2.67-1.96,4.76-3.68,6.27-1.69,1.5-3.86,2.42-6.46,2.72l7.25,15.14h-6.12l-6.93-14.89h-.61Z"/>
  <path class="cls-1" d="M685.26,316.28h9.27l-1.29-7.59-.15-1.67-.06-2.1-1.14,2.03-1.11,1.74-5.53,7.59h0ZM696.59,329.36l-1.4-8.57h-13.19l-6.25,8.57h-5.68l25.73-34.6,6.49,34.6h-5.71Z"/>
  <polygon class="cls-1" points="718.82 300.66 710.85 329.36 705.44 329.36 713.4 300.66 704.57 300.66 705.85 296.07 728.9 296.07 727.62 300.66 718.82 300.66 718.82 300.66"/>
  <polygon class="cls-1" points="724.82 329.36 734.07 296.07 739.48 296.07 730.22 329.36 724.82 329.36 724.82 329.36"/>
  <path class="cls-1" d="M769.24,312.78c.47-1.68.6-3.28.41-4.79-.2-1.52-.7-2.87-1.51-4.05-.8-1.17-1.86-2.07-3.17-2.69-1.29-.63-2.76-.95-4.4-.95s-3.28.32-4.93.94c-1.65.63-3.21,1.53-4.69,2.7-1.49,1.17-2.73,2.51-3.76,4.03-1.02,1.51-1.78,3.12-2.25,4.81-.46,1.68-.6,3.28-.41,4.78.2,1.49.69,2.84,1.52,4.02.81,1.18,1.89,2.08,3.18,2.71,1.28.61,2.77.92,4.42.92s3.25-.31,4.89-.92c1.63-.62,3.19-1.53,4.7-2.71,1.47-1.18,2.73-2.53,3.76-4.04,1.04-1.5,1.79-3.11,2.25-4.76h0ZM774.87,312.78c-.65,2.37-1.72,4.61-3.19,6.71-1.46,2.12-3.29,3.98-5.46,5.64-2.15,1.65-4.45,2.91-6.84,3.79-2.4.88-4.77,1.32-7.15,1.32s-4.56-.44-6.48-1.32c-1.93-.89-3.5-2.15-4.72-3.79-1.24-1.66-2.01-3.53-2.3-5.62-.3-2.08-.12-4.33.55-6.73.65-2.37,1.73-4.63,3.18-6.73,1.46-2.1,3.28-3.99,5.45-5.65,2.15-1.66,4.44-2.91,6.82-3.78,2.39-.86,4.8-1.29,7.21-1.29s4.54.43,6.44,1.29c1.91.87,3.49,2.13,4.72,3.78,1.24,1.68,2,3.57,2.29,5.69.3,2.12.13,4.34-.53,6.69h0Z"/>
  <polygon class="cls-1" points="774.61 329.36 784.23 294.76 799.72 315.11 800.95 316.94 802.22 319.15 808.62 296.07 813.62 296.07 804.03 330.65 788.19 309.95 787.02 308.17 786.02 306.21 779.59 329.36 774.61 329.36 774.61 329.36"/>
  <path class="cls-1" d="M855.44,312.78c.47-1.68.61-3.28.41-4.79-.2-1.52-.7-2.87-1.52-4.05-.8-1.17-1.85-2.07-3.16-2.69-1.28-.63-2.78-.95-4.41-.95s-3.28.32-4.93.94c-1.65.63-3.21,1.53-4.69,2.7-1.47,1.17-2.73,2.51-3.76,4.03-1.03,1.51-1.77,3.12-2.25,4.81-.46,1.68-.6,3.28-.41,4.78.2,1.49.7,2.84,1.52,4.02.82,1.18,1.89,2.08,3.18,2.71,1.29.61,2.78.92,4.43.92s3.25-.31,4.88-.92c1.63-.62,3.2-1.53,4.7-2.71,1.48-1.18,2.73-2.53,3.76-4.04,1.04-1.5,1.79-3.11,2.25-4.76h0ZM861.07,312.78c-.64,2.37-1.71,4.61-3.18,6.71-1.47,2.12-3.29,3.98-5.45,5.64-2.17,1.65-4.46,2.91-6.84,3.79-2.41.88-4.79,1.32-7.16,1.32s-4.56-.44-6.48-1.32c-1.92-.89-3.49-2.15-4.72-3.79-1.22-1.66-2-3.53-2.29-5.62-.3-2.08-.12-4.33.56-6.73.65-2.37,1.72-4.63,3.18-6.73,1.46-2.1,3.27-3.99,5.44-5.65,2.16-1.66,4.43-2.91,6.83-3.78,2.38-.86,4.79-1.29,7.2-1.29s4.55.43,6.44,1.29c1.91.87,3.49,2.13,4.72,3.78,1.24,1.68,2,3.57,2.29,5.69.29,2.12.13,4.34-.54,6.69h0Z"/>
  <polygon class="cls-1" points="860.82 329.36 870.07 296.07 888.64 296.07 887.38 300.66 874.2 300.66 871.9 308.97 885.06 308.97 883.74 313.71 870.57 313.71 866.24 329.36 860.82 329.36 860.82 329.36"/>
  <polygon class="cls-1" points="899.41 329.36 908.66 296.07 914.07 296.07 904.82 329.36 899.41 329.36 899.41 329.36"/>
  <polygon class="cls-1" points="909.79 329.36 919.42 294.76 934.91 315.11 936.15 316.94 937.4 319.15 943.81 296.07 948.82 296.07 939.21 330.65 923.38 309.95 922.2 308.17 921.2 306.21 914.77 329.36 909.79 329.36 909.79 329.36"/>
  <path class="cls-1" d="M952.11,324.47h4.55c2.51,0,4.42-.17,5.76-.5,1.36-.33,2.6-.89,3.74-1.68,1.55-1.08,2.88-2.41,3.94-4.01,1.09-1.6,1.92-3.47,2.5-5.58.58-2.12.78-3.98.61-5.59-.2-1.59-.76-2.93-1.72-4-.72-.79-1.69-1.36-2.91-1.69-1.23-.34-3.22-.5-6.01-.5h-3.91l-6.55,23.57h0ZM945.33,329.36l9.26-33.3h7.3c4.75,0,8.03.24,9.81.72,1.81.48,3.27,1.29,4.43,2.4,1.51,1.46,2.45,3.36,2.81,5.66.35,2.3.11,4.93-.7,7.89-.83,2.96-2.06,5.58-3.68,7.85-1.64,2.28-3.62,4.18-5.95,5.65-1.77,1.12-3.65,1.93-5.63,2.4-2,.48-4.94.72-8.88.72h-8.77Z"/>
  <polygon class="cls-1" points="977.12 329.36 986.36 296.07 991.77 296.07 982.53 329.36 977.12 329.36 977.12 329.36"/>
  <path class="cls-1" d="M1000.95,316.28h9.28l-1.29-7.59-.15-1.67-.06-2.1-1.15,2.03-1.11,1.74-5.53,7.59h0ZM1012.29,329.36l-1.39-8.57h-13.2l-6.25,8.57h-5.67l25.74-34.6,6.49,34.6h-5.72Z"/>
</svg>