<?xml version="1.0" encoding="UTF-8"?>
<svg id="Layer_1" data-name="Layer 1" xmlns="http://www.w3.org/2000/svg" viewBox="0 0 564.45 473.57">
  <defs>
    <style>
      .cls-1 {
        fill: #fff;
        stroke-width: 0px;
      }
    </style>
  </defs>
  <path class="cls-1" d="M391.11,43.58q1.13,1.02,2.27,2.05c30.04,28.63,43.38,68.54,45.92,109,.06,2.67-.03,5.28-.19,7.95-.04.71-.08,1.42-.12,2.15-2.73,43.5-21.06,80.98-52.88,110.85-28.41,24.09-61.81,37.2-99,39q-1.28.06-2.59.13c-42.05,1-81.04-15.41-111.78-43.61-30.29-29.08-46.95-67.63-48.63-109.52-.15-13.52,1-26.81,4-40,.29-1.27.58-2.54.88-3.85,8.52-34.29,29.08-64.77,57.12-86.15.79-.61,1.59-1.22,2.4-1.84,62.44-45.71,146.44-36.87,202.6,13.84ZM249.11,12.58c-1.21.3-2.42.6-3.67.91-38.51,10.33-71.68,34.74-92.06,69.14-12.89,22.58-19.49,47.88-19.52,73.82,0,.69,0,1.39,0,2.1.01,10.65.67,20.64,3.25,31.02.26,1.19.51,2.38.77,3.61,8.83,37.73,34.55,70.49,67.09,90.86,23.15,13.91,49.09,20.76,76.01,20.79q1.04,0,2.1,0c10.64-.01,20.67-.61,31.02-3.25q1.82-.45,3.67-.91c39.07-10.48,71.92-35.28,92.64-70.02,8.95-16.34,14.4-33.79,17.69-52.06.17-.92.35-1.84.53-2.79.88-5.97.72-12,.72-18.02,0-.7,0-1.39,0-2.11-.01-10.66-.6-20.71-3.25-31.08-.3-1.21-.6-2.42-.91-3.67-10.48-39.07-35.28-71.92-70.02-92.64-16.34-8.95-33.78-14.4-52.06-17.69q-1.38-.26-2.79-.53c-5.97-.88-12-.72-18.02-.72-.7,0-1.39,0-2.11,0-10.66.01-20.71.6-31.08,3.25Z"/>
  <path class="cls-1" d="M284.11,136.58c1.32,3.96,1.27,6.82,1,11-.99.66-1.98,1.32-3,2-.04,1.67-.04,3.33,0,5-.66.66-1.32,1.32-2,2,.33.5.66.99,1,1.5,1.44,3.61,1.87,6.74,1,10.5-5.81,9.98-17.39,14.87-28,18h-2c.44,5.41,1.62,8.43,4.88,12.75,6.45,9.3,7.91,17.14,6.12,28.25h-3c.47.84.95,1.67,1.44,2.54,1.7,3.77,2.16,6.8,2.56,10.9q.65,6.02,2.69,11.69c1.51,3.31,1.17,4.46.31,7.88-1.11.13-2.22.27-3.36.4-1.46.18-2.93.36-4.39.54-.73.09-1.46.17-2.21.26q-4.07.48-8.07,1.33c-3.06.72-5.96.41-9.09.22q-1.86-.1-3.76-.2-1.54-.27-3.12-.55c-.66-.99-1.32-1.98-2-3,1.65-1.65,3.79-1.12,6.06-1.19,6.04-.48,9.7-2.54,13.94-6.81,2.91-4.37,2.44-8.42,1.59-13.42-.56-2.62-1.19-5.22-1.84-7.83-.22-.93-.45-1.85-.68-2.81-1.23-4.97-2.64-9.76-4.45-14.56-1.75-4.9-1.66-8.65-.92-13.77.38-3.33.04-6.34-.45-9.64q-.25-1.97-.25-5.97-1.92-1.77-4-3c.33-5.35,3.27-7.81,6.94-11.31.58-.57,1.17-1.14,1.77-1.73q16.3-15.68,24.67-16.15c.87.06,1.73.12,2.62.19.33-2.31.66-4.62,1-7h2c-.06-.76-.12-1.53-.19-2.31q.19-2.69,1.56-4.5,1.62-1.19,3.62-1.19ZM279.11,144.58l1,2-1-2ZM273.01,165.41c-.79.44-1.58.88-2.4,1.34-.87.48-1.74.96-2.64,1.46-.91.51-1.81,1.03-2.75,1.56-.9.5-1.8.99-2.72,1.5q-8.31,4.14-13.4,11.31c2.66-.38,3.77-.74,5.57-2.8,4-3.63,9-5.19,13.96-7.2q5.68-2.3,9.47-7-2.87-1.31-5.1-.17ZM247.11,203.58c1.09,5.27,2.39,10.4,3.94,15.56,2.25,7.72,3.7,15.52,5.06,23.44q.99-.5,2-1-1.38-20.73-11-38ZM256.11,216.58l1,2-1-2ZM257.11,219.58l1,2-1-2ZM258.11,222.58l1,3-1-3ZM260.11,244.58q-1.36,1.13-1.06,4.06c.02.97.04,1.94.06,2.94q.99.5,2,1,.68-2.9,1-6c-.66-.66-1.32-1.32-2-2Z"/>
  <path class="cls-1" d="M317.11,137.58c.65,1.41,1.29,2.83,1.94,4.25.36.79.72,1.58,1.09,2.39,1.72,4.17,2.09,7.59,2.04,12.11,0,.98-.02,1.97-.03,2.98-.01.75-.02,1.5-.04,2.27-.99.33-1.98.66-3,1-.66-1.32-1.32-2.64-2-4-.05.97-.1,1.94-.16,2.94-.85,11.17-4.42,19.38-9.84,29.06-1.99,3.65-3.42,6.37-3.38,10.56,0,.72-.02,1.45-.02,2.19.93,5.25,4.28,8.25,8.21,11.56,6.82,6,12.64,12.76,15.19,21.69q-.49,1.49-1,3c-.63-.85-1.25-1.71-1.9-2.59-.83-1.12-1.65-2.23-2.48-3.35-.41-.56-.83-1.13-1.25-1.71q-2.25-3.16-5.38-5.35c3.02,4.54,6.05,9.06,9.12,13.56.47.69.95,1.39,1.43,2.1,3.97,5.76,8.22,11.24,12.64,16.66q1.8,2.67,1.8,6.67c-3.4.04-6.01-.32-9-2-2.34-4.14-3.72-8.43-5-13h-1c-.33.66-.66,1.32-1,2-3.17-2.96-5.47-6.04-7.81-9.69-3.01-4.6-6.16-8.97-9.58-13.27-2.31-2.94-4.46-5.98-6.61-9.05q.5-.5,1-1c.23-1.35.41-2.7.56-4.06.14-1.3.29-2.6.44-3.94-.6.52-1.2,1.03-1.81,1.56-.72.47-1.44.95-2.19,1.44-.99-.33-1.98-.66-3-1v-2c1.63-1.38,3.29-2.72,5-4-.54-3.81-2.11-5.52-5-8-1.32-.69-2.65-1.36-4-2-.49-13.77,2.67-25.93,6.55-39.03,1.14-3.84,2.1-7.69,3.01-11.6.88-3.2,1.18-4.14,3.69-6.44q8.62-2.94,12.75-2.94ZM310.11,155.58c-.09.83-.17,1.65-.26,2.5-1.48,12.14-4.79,23.32-9.74,34.5h2c1.3-2.5,2.59-5,3.88-7.5.36-.7.73-1.39,1.11-2.11,3.24-6.36,5.01-12.55,5.71-19.7.09-.82.17-1.64.26-2.49q.18-2.38-.95-5.2h-2ZM311.11,227.58l1,2-1-2ZM312.11,229.58c1.39,3.89,3.22,6.97,5.62,10.31.63.88,1.26,1.77,1.91,2.68.48.66.96,1.33,1.46,2.01.33-.66.66-1.32,1-2-1.48-2.17-2.95-4.34-4.44-6.5q-.63-.93-1.28-1.88c-1.07-1.56-2.18-3.09-3.29-4.62h-1ZM322.11,244.58c.33.99.66,1.98,1,3v-3h-1Z"/>
  <path class="cls-1" d="M233.8,266.44q1.23,0,2.48,0t2.6,0c2.85,0,5.69,0,8.54,0,1.97,0,3.94,0,5.91,0,4.13,0,8.27,0,12.4,0,5.31,0,10.62,0,15.93,0,4.07,0,8.14,0,12.2,0,1.96,0,3.92,0,5.88,0,2.73,0,5.46,0,8.2,0,.82,0,1.64,0,2.48,0q5.58.02,6.7,1.14c.1,2.14.13,4.29.12,6.44q0,1.76,0,3.56-.13,3-1.13,5c-18.25.06-36.48-.06-54.73-.37-3.92-.07-7.84-.13-11.76-.18-2.51-.04-5.01-.08-7.52-.13-1.17-.02-2.33-.03-3.53-.05-1.07-.02-2.14-.04-3.24-.06q-1.41-.02-2.85-.05-2.37-.16-5.37-1.16c-.03-2.15-.05-4.29-.06-6.44-.01-1.19-.02-2.39-.04-3.62.17-5.09,2.24-4.06,6.8-4.08Z"/>
  <path class="cls-1" d="M231.11,421.58h10v9h15c2.41,5.98,4.74,11.96,7,18,1.98-5.94,3.96-11.88,6-18h10c-2.22,7.79-4.86,15.4-7.71,22.98-.49,1.32-.98,2.63-1.46,3.95-.7,1.93-1.42,3.86-2.15,5.78-.42,1.14-.84,2.27-1.28,3.44-1.48,2.98-2.56,4.2-5.42,5.84q-2.51.55-5.12.75c-.87.08-1.74.15-2.63.23q-2.24.02-4.24-.98v-8h8c-1.29-6.51-3.14-12.42-5.62-18.56q-.49-1.23-.98-2.48c-.79-1.99-1.59-3.97-2.39-5.96h-7v17h6v8c-1.75.08-3.5.14-5.25.19-.97.03-1.95.07-2.95.11-3.22-.34-4.5-1.04-6.8-3.29-.94-2.82-1.12-4.53-1.1-7.45,0-.85,0-1.7,0-2.57,0-.88.02-1.76.03-2.67,0-.89,0-1.79.01-2.71.01-2.2.03-4.4.05-6.61h-5v-7h5v-9Z"/>
  <path class="cls-1" d="M21.11,357.58q11,0,13.52,2.1c.52.96,1.05,1.91,1.58,2.9q.89,1.55,1.79,3.13c.57,1.09,1.14,2.18,1.73,3.31.61,1.09,1.22,2.18,1.85,3.3,1.12,2,2.22,4.01,3.3,6.04q1.04,2.13,2.22,3.22c.33-7.92.66-15.84,1-24h10v44h-10c-2.6-2.78-4.06-4.75-5.81-8-.44-.74-.88-1.49-1.33-2.25-.83-1.42-1.65-2.84-2.44-4.28-2.04-3.55-4.25-7-6.42-10.47-.33,8.25-.66,16.5-1,25h-10v-44Z"/>
  <path class="cls-1" d="M223.11,57.58c2.31.33,4.62.66,7,1,1.6,3.51,2.22,6.14,2,10h2v-3l3-1c1.62,5.58-.08,10.15-1.5,15.62-.55,3.72-.39,5.17,1.5,8.38q2.01,2.08,4.38,3.94c3.66,3.12,6.32,5.85,8.62,10.06v2c3.75,1.25,6.07,1.61,10,1,1.63-1.87,2.72-3.76,3.86-5.96q2.04-3.65,4.14-5.04c2.64-.06,5.01.04,7.62.31,1.44.12,2.88.24,4.32.36.7.06,1.39.12,2.11.18,3.65.27,7.29.21,10.95.15q-.21,1.88-1,4-2,1.09-4.56,1.94c-3.34,1.21-6.2,2.42-9.12,4.44-4.33,2.88-9.09,4.63-13.95,6.39-4.07,1.52-7.12,3.34-10.37,6.23-.23-.59-.47-1.19-.71-1.8-1.59-2.71-3.27-3.79-5.91-5.45-.82-.52-1.63-1.04-2.48-1.58-.63-.39-1.25-.77-1.9-1.17,2.31,2.31,4.62,4.62,7,7-.33.99-.66,1.98-1,3-6.54-2.24-10.82-6.73-13.96-12.89-1.25-2.75-2.43-5.53-3.51-8.35-1.35-3.42-2.64-6.09-5.12-8.83-2.69-3.29-3.33-5.48-4.09-9.62q-.92-4.94-3.31-9.31c-.08-2.33-.09-4.67,0-7,.99-.33,1.98-.66,3-1q.73-2.02,1-4ZM229.11,77.58v5h2l-1-5h-1Z"/>
  <path class="cls-1" d="M229.96,286.47q1.23.01,2.48.03,1.4.01,2.83.02t3.13.04c1.08,0,2.17.02,3.28.03,3.6.03,7.2.07,10.79.11,2.49.02,4.97.05,7.46.07,5.89.06,11.78.12,17.67.18,7.36.08,14.72.15,22.08.22,13.14.13,26.27.26,39.41.4v3c-32.69,10.54-66.58,12.85-100.13,4.12q-1.43-.37-2.9-.74-1.32-.37-2.67-.75c-.78-.22-1.57-.44-2.38-.66-2.44-1.23-2.97-2.47-3.93-4.97q1-1,2.86-1.11Z"/>
  <path class="cls-1" d="M.11,418.58h10q.01,1.38.03,2.78c.04,3.41.11,6.83.18,10.24.03,1.48.05,2.95.06,4.43.02,2.13.07,4.25.12,6.37.02,1.28.04,2.56.06,3.87.63,3.82,1.43,5.05,4.55,7.3q4.55.6,8.68-1.07c1.98-2.89,1.8-5.83,1.83-9.22.02-.71.04-1.41.05-2.14.05-2.25.09-4.5.12-6.76.03-1.53.07-3.06.1-4.58.08-3.74.15-7.49.21-11.23h11c.07,4.27.13,8.54.16,12.81.01,1.45.04,2.9.06,4.35q.27,15.11-3.23,21.85c-4.56,4.69-9.47,6.09-15.88,6.31-6.24-.15-11.13-1.27-15.56-5.81C-.08,453.69-.03,449.86,0,444.85c0-.75,0-1.5,0-2.27,0-2.39.02-4.79.03-7.18,0-1.62,0-3.25.01-4.87.01-3.98.03-7.96.05-11.94Z"/>
  <path class="cls-1" d="M264.11,42.58c6.23-.41,11.97-.64,17.54,2.52,2.43,2.45,2.48,5.02,2.62,8.36q-.16,2.12-1.16,5.12h-8v2h4v7h-3l-1-1-1,2c-1.65-.33-3.3-.66-5-1v2q1.92-.06,3.88-.12,2.18-.07,4.12.12l2,2c2.01,0,4.02,0,6.03-.12q1.97.12,4.97,2.12v3c-3.96,1.32-7.92,2.64-12,4q-1.48-2.47-3-5c-1.32.66-2.64,1.32-4,2,.99.99,1.98,1.98,3,3q-1.48.49-3,1v3c1.65.33,3.3.66,5,1-1.3,4.1-2.57,5.8-6.25,8-2.92,1.82-5.64,3.63-8.25,5.88q-2.5,2.12-3.5,2.12c-.04-1.67-.04-3.33,0-5q.49-.49,1-1c-.66-.33-1.32-.66-2-1v-3q.99-.49,2-1c.14-.91.29-1.81.44-2.75.6-3.45,1.75-5.31,3.56-8.25q.71-2.69,1-5h-4c-1.73-1.94-3.4-3.94-5-6l-2-1v-3l-3-2q-.4-1.88-.38-4c0-.7-.02-1.4-.02-2.12q.4-1.88,3.4-3.88.22-.93.44-1.88c.8-3.01,2.09-4.27,4.56-6.12q2.75.25,5,1c.33-.99.66-1.98,1-3ZM262.11,50.58q-2.53,1.94-4,4v2q2.35.69,5,1c.99-.66,1.98-1.32,3-2q3.14-.41,6.69-.62,1.77-.11,3.57-.23c.9-.05,1.81-.1,2.74-.15l-2-1c.33-1.32.66-2.64,1-4-6.37-3.8-9.8-2.84-16,1ZM279.11,51.58l1,2-1-2ZM256.11,58.58l-1,3h3c.99,3.3,1.98,6.6,3,10q2.33-2.78,1.62-5.69-.31-1.14-.62-2.31h3c-.33-.99-.66-1.98-1-3h-5l-1-2h-2ZM269.11,60.58l1,5,1-4c-.66-.33-1.32-.66-2-1ZM267.11,74.58v7h1v-7h-1Z"/>
  <path class="cls-1" d="M385.39,418.48q1.37.02,2.78.04c.92,0,1.84.02,2.79.03.71.01,1.42.02,2.15.04,1.8,4.66,3.6,9.32,5.39,13.98.61,1.58,1.22,3.16,1.83,4.74,3.23,8.35,6.38,16.64,8.78,25.28h-11q-1.48-4.95-3-10h-15c-.99,3.3-1.98,6.6-3,10h-11c3.74-10.98,7.65-21.88,11.88-32.69.39-1.01.79-2.02,1.19-3.06q3.24-8.22,6.22-8.35ZM387.11,431.58c-.67,1.96-1.34,3.92-2,5.88-.37,1.09-.74,2.18-1.12,3.3q-.97,2.65-.88,4.82h9q-1.48-7.16-4-14h-1Z"/>
  <path class="cls-1" d="M357.11,59.58l-2,8c1.98-1.32,3.96-2.64,6-4q2.11,11.52,3,17h2l.88-1.75c1.04-2.08,2.08-4.17,3.12-6.25l-2,1q-1.12-3.75,0-6,2.31-.31,5,0,1.69,2.31,3,5l2,3h3c.66-2.64,1.32-5.28,2-8l6,2c.35,2.97.54,5.16-1.11,7.73-1.24,1.47-2.56,2.87-3.89,4.27h3l2-4h3c-.52,2.76-1.11,5.33-2,8q2.42-.93,3.38-4.5,1.62-3.5,3.62-4.62,2,.12,3.75,1.44,1.25,1.69,1.25,3.69h-3c-.09.75-.17,1.5-.26,2.27-.14.98-.28,1.97-.43,2.98q-.19,1.46-.39,2.95c-1.22,3.7-2.6,4.81-5.93,6.8q-3.55.83-7.31,1.25c-1.25.15-2.51.3-3.8.45-.95.1-1.91.2-2.89.3,1.56-4.46,2.87-5.72,7-8v-2c-3.07.63-5.33,1.12-7.29,3.69-.97,1.73-1.85,3.52-2.71,5.31h-2q-1.75-1.88-3-5c.34-3.42,1.1-6.68,2-10-3.04,5.23-4.51,8.93-4,15q-1.48-.49-3-1-1.69-3.56-3-7c-.99,1.32-1.98,2.64-3,4-1.85-3.69-1.25-7.87-.38-11.81.12-.72.25-1.44.38-2.19q-1.8-2.08-3.94-2.69c-2.56-1.63-3.57-3.49-4.66-6.3-.74-3.73.32-6.48,1.6-10.02q2-1,5-1ZM374.11,78.58l1,2-1-2Z"/>
  <path class="cls-1" d="M377.11,357.58h10c.33,4.29.66,8.58,1,13,1.32-.66,2.64-1.32,4-2,5.19-.48,8.65.06,13,3,1.92,3.73,2.24,6.8,2.2,10.96,0,1.11-.01,2.22-.02,3.37-.02,1.15-.03,2.3-.05,3.49,0,1.17-.02,2.34-.03,3.54-.02,2.88-.06,5.76-.1,8.64h-9c-.05-1.23-.1-2.46-.15-3.73-.08-1.63-.15-3.27-.23-4.9-.03-.81-.06-1.62-.09-2.45-.23-4.64-.79-8.55-2.53-12.93h-7c-.33,7.92-.66,15.84-1,24h-10v-44Z"/>
  <path class="cls-1" d="M432.11,418.58h9c.33,4.62.66,9.24,1,14,1.98-.99,3.96-1.98,6-3,4.02-.39,7.23.39,10.44,2.94,2.65,3.5,2.68,5.58,2.66,9.95,0,1.17,0,2.33,0,3.54,0,1.22-.02,2.45-.03,3.71,0,1.23,0,2.46-.01,3.73-.01,3.05-.03,6.1-.05,9.14h-9q-.5-11.88-1-24-5.48-.45-8,1c-.93,2.79-1.19,4.77-1.32,7.67-.04.89-.08,1.79-.13,2.71q-.06,1.39-.12,2.81c-.04.94-.09,1.88-.13,2.85-.11,2.32-.21,4.64-.31,6.96h-9v-44Z"/>
  <path class="cls-1" d="M523.57,371.41q1.53,1.17,2.53,4.17c.15,1.99.25,3.99.32,5.98.04,1.16.08,2.33.13,3.53.04,1.21.08,2.43.12,3.68.04,1.23.09,2.45.13,3.72.11,3.03.21,6.06.31,9.1h-10v-2c-.54.32-1.08.64-1.63.97-4.57,1.98-9.5,1.66-14.37,1.03q-3.25-2-5-5c-.68-2.85-.9-5.2,0-8,3.63-4.67,7.14-5.96,12.81-6.81q1.04-.18,2.1-.37c1.69-.29,3.39-.56,5.09-.82-.33-1.32-.66-2.64-1-4h-8c-.33.99-.66,1.98-1,3h-9q.6-5.37,2.12-7.75c7.57-5.05,16.63-4.41,24.34-.42ZM506.11,389.58l-1,3q1.1,1.69,3,3c3.65-.22,5.38-.38,8-3q.17-2.58,0-5c-3.88-.18-6.76-.28-10,2Z"/>
  <path class="cls-1" d="M233.11,371.58c2.32,3.49,2.3,5.07,2.41,9.2.04,1.21.08,2.42.12,3.66.03,1.26.06,2.53.09,3.83.04,1.27.08,2.55.12,3.86.09,3.15.18,6.3.26,9.45-1.46.03-2.92.05-4.38.06q-1.22.02-2.46.04-2.16-.1-4.16-1.1-.99.5-2,1c-5.34.48-10.28.81-15.19-1.5-2.48-3.41-3.1-6.31-2.81-10.5,1.27-3.25,2.1-4.57,5.26-6.07,3.75-1.27,7.51-1.78,11.41-2.37q1.15-.28,2.33-.56c.33-.66.66-1.32,1-2-.33-.66-.66-1.32-1-2q-2.92-.25-6,0-.99,1.49-2,3-2.38.29-5.12.19c-.91-.03-1.82-.05-2.76-.08-.7-.03-1.4-.07-2.12-.11.34-3.04.8-4.75,2.69-7.19,7.28-5.7,16.56-5.08,24.31-.81ZM225.11,386.58q-5.13,1.12-10,3,.38,3.29,2,6,2.37.5,5,0,2.48-2.15,4-5-.34-2.14-1-4Z"/>
  <path class="cls-1" d="M91.11,371.58c2.32,3.49,2.3,5.07,2.41,9.2.04,1.21.08,2.42.12,3.66.03,1.26.06,2.53.09,3.83.04,1.27.08,2.55.12,3.86.09,3.15.18,6.3.26,9.45-1.46.03-2.92.05-4.38.06q-1.22.02-2.46.04-2.16-.1-4.16-1.1-.99.5-2,1c-5.34.48-10.28.81-15.19-1.5-2.48-3.41-3.1-6.31-2.81-10.5,1.27-3.25,2.1-4.57,5.26-6.07,3.75-1.27,7.51-1.78,11.41-2.37q1.15-.28,2.33-.56c.33-.66.66-1.32,1-2-.33-.66-.66-1.32-1-2q-2.92-.25-6,0-.99,1.49-2,3-2.38.29-5.12.19c-.91-.03-1.82-.05-2.76-.08-.7-.03-1.4-.07-2.12-.11.34-3.04.8-4.75,2.69-7.19,7.28-5.7,16.56-5.08,24.31-.81ZM83.11,386.58q-5.13,1.12-10,3,.38,3.29,2,6,2.37.5,5,0,2.48-2.15,4-5-.34-2.14-1-4Z"/>
  <path class="cls-1" d="M148.42,432.27c5.96,5.13,5.8,9.33,6.69,17.31h-22l1,5c1.44.08,2.87.14,4.31.19.8.03,1.6.07,2.43.11,2.8-.36,3.34-1.33,5.26-3.29,2.73-.39,5.23-.14,8,0-1.03,4.42-2.48,7.24-6.16,10.02-4.64,2.47-9.45,2.16-14.52,1.48-4.29-1.94-6.73-4.61-9.31-8.5-1.81-5.44-1.71-10.98.19-16.38,6.02-8.71,14.95-10.61,24.12-5.94ZM134.23,438.95q-1.31,1.57-1.12,3.62h12c-.99-1.65-1.98-3.3-3-5-3.33-.56-5.11-.65-7.88,1.38Z"/>
  <path class="cls-1" d="M490.11,431.58c3.46,2.85,5.59,5.76,7,10v8h-22l3,5q3.5.67,7,0c.47-.5.95-.99,1.44-1.5,2.03-1.94,2.99-1.7,5.75-1.69q1.89.09,3.81.19c-.25,3.69-.55,5.52-3.12,8.25-5.22,3.17-9.97,4.29-15.95,3.29-4.21-1.18-7.03-3.44-9.73-6.79-2.74-6.34-2.62-11.36-.2-17.7,2.16-4.39,4.8-6.5,9.2-8.48,5-.74,9.1-.48,13.81,1.44ZM478.11,437.58q-1.48,2.48-3,5h12l-1-4c-2.86-1.43-4.84-1.39-8-1Z"/>
  <path class="cls-1" d="M330.79,369.7c4.69,2.65,6.63,5.84,8.31,10.88v7h-22q1.34,4.94,4,6,2.96.33,6,0c.45-.5.91-.99,1.38-1.5,2.08-1.92,3.04-1.7,5.81-1.69q1.89.09,3.81.19c-.41,4.84-2.42,6.86-6,10-4.42,2.21-10.19,1.42-15,1-4.52-2.1-7.06-4.4-9-9-1.62-6.45-1.09-12.08,2-18,5.95-6.11,12.6-7.34,20.69-4.88ZM318.17,377.95q-1.24,1.58-1.06,3.62h12c-.66-1.65-1.32-3.3-2-5q-4.75-.44-8.94,1.38Z"/>
  <path class="cls-1" d="M161.11,371.58c3.65,2.86,4.94,5.5,6,10,.51,5.53-.32,10.15-3,15-5.46,5.19-9.45,5.34-16.79,5.29-5.31-.47-7.53-2.37-11.02-6.35-2.87-4.69-2.73-9.62-2.19-14.94,1.05-3.93,2.53-6.85,5.77-9.38,7.26-4.09,13.89-3.57,21.23.38ZM145.23,378.2c-2.13,4.5-2.4,7.33-1.12,12.19q1.73,3.49,5.44,4.44,3.6.08,6-2.12c2.09-4.17,2.25-7.54,1.56-12.12q-.85-2.66-3-4-4.83-.72-8.88,1.62Z"/>
  <path class="cls-1" d="M193.11,368.58q5.46,1.96,7.16,5.24c.94,3.06,1.07,5.52,1.04,8.72,0,1.11-.01,2.22-.02,3.37-.02,1.15-.03,2.3-.05,3.49,0,1.17-.02,2.34-.03,3.54-.02,2.88-.06,5.76-.1,8.64h-9q-.07-1.97-.15-3.98c-.08-1.74-.15-3.47-.23-5.21-.03-.86-.06-1.73-.09-2.62-.2-4.45-.47-8.14-2.53-12.19q-2.42-.17-5,0c-2.52,2.52-2.29,3.51-2.41,7.01q-.06,1.48-.12,2.99t-.09,3.13-.12,3.15c-.09,2.57-.18,5.15-.26,7.72h-10v-32h9c.33.66.66,1.32,1,2,.68-.49,1.36-.99,2.06-1.5,3.66-1.87,5.87-1.93,9.94-1.5Z"/>
  <path class="cls-1" d="M434.11,368.58q5.34,2.02,7.16,4.73c1.08,2.89,1.07,5.26,1.04,8.35,0,1.16-.01,2.32-.02,3.52-.02,1.21-.03,2.41-.05,3.66,0,1.22-.02,2.44-.03,3.7-.02,3.02-.06,6.03-.1,9.05h-9q-.5-11.88-1-24h-7c-2.12,3.18-2.28,4.21-2.41,7.89q-.06,1.41-.12,2.84c-.03.98-.06,1.95-.09,2.96q-.06,1.48-.12,2.99c-.09,2.44-.18,4.88-.26,7.32h-10v-32h9c.33.66.66,1.32,1,2,.68-.49,1.36-.99,2.06-1.5,3.66-1.87,5.87-1.93,9.94-1.5Z"/>
  <path class="cls-1" d="M324.04,433.33c4.18,4.1,5.15,7.4,5.38,13.19-.15,6.04-1.79,9.4-5.88,13.88-4.04,3.1-8.47,3.45-13.44,3.19-4.31-.84-7.18-2.22-10.38-5.25-3.64-6.16-4.35-11.89-2.62-18.75,2.72-5.25,5.67-7.89,11.25-9.75,5.98-.54,10.87-.41,15.69,3.5ZM307.73,439.58c-2.22,4.1-2.07,6.37-1.62,11,1.01,2.81,1.33,3.67,4,5q4.07.36,7.81-1c1.88-3.16,2.32-6.39,2.19-10q-1.51-3.81-4-7c-3.81-.51-5.38-.52-8.38,2Z"/>
  <path class="cls-1" d="M526.11,430.58c3.31,3.14,4.91,5.93,5.11,10.54,0,.99-.01,1.98-.02,3,0,1.07,0,2.15,0,3.25,0,1.12-.02,2.24-.03,3.39,0,1.13,0,2.26-.01,3.43-.01,2.79-.03,5.59-.05,8.38h-10c-.06-1.65-.12-3.3-.18-5-.08-2.15-.17-4.29-.25-6.44-.04-1.09-.08-2.18-.12-3.3-.04-1.03-.08-2.07-.13-3.13-.04-.96-.07-1.92-.11-2.9q.04-2.2-1.21-3.22-2.46-.25-5,0c-4,4-3.29,10.43-3.56,15.81-.04.79-.09,1.58-.13,2.39-.11,1.93-.21,3.87-.31,5.8h-9v-32h9c.33.66.66,1.32,1,2,.8-.52,1.61-1.03,2.44-1.56,4.5-1.82,7.93-1.9,12.56-.44Z"/>
  <path class="cls-1" d="M67.11,430.58c3.99,3.05,5.31,5.12,6,10,.08,1.77.11,3.53.1,5.3,0,.98,0,1.95,0,2.96,0,1.01-.02,2.01-.03,3.05,0,1.03,0,2.05-.01,3.11-.01,2.53-.03,5.05-.05,7.58h-10c-.06-1.56-.12-3.13-.18-4.74-.08-2.04-.17-4.09-.25-6.13-.04-1.03-.08-2.07-.12-3.13-.04-.99-.08-1.97-.13-2.99-.04-.91-.07-1.82-.11-2.76q-.07-2.28-1.21-4.25h-7c-.99,5.12-1.31,10.18-1.56,15.38-.04.83-.09,1.66-.13,2.52-.11,2.04-.21,4.07-.31,6.11h-9v-32h9c.33.66.66,1.32,1,2,.82-.52,1.65-1.03,2.5-1.56,4.26-1.75,7.14-1.91,11.5-.44Z"/>
  <path class="cls-1" d="M270.11,357.58h36v9h-13v35h-10v-35h-13v-9Z"/>
  <path class="cls-1" d="M205.61,432.83c2.52,2.77,3.29,4.07,3.5,7.75h-9c-.33-.99-.66-1.98-1-3h-7c-.33.99-.66,1.98-1,3q1.32.26,2.67.52c1.16.24,2.32.48,3.52.73,1.15.23,2.3.46,3.48.7,3.6,1.13,5.64,2.43,8.33,5.05,1.07,3.36,1.2,5.3.25,8.69-2.19,4.05-3.39,5.02-7.88,6.56-5.67,1.24-10.93.81-16.25-1.5-2.47-2.03-3.76-3.87-5.12-6.75v-3c3.03-.23,5.98-.37,9,0q1.69,2,3,4,3.13.33,6,0c.66-1.32,1.32-2.64,2-4-.88-.17-1.76-.34-2.67-.52-1.16-.24-2.32-.48-3.52-.73-1.15-.23-2.3-.46-3.48-.7-3.58-1.13-5.62-2.48-8.33-5.05-1.43-2.85-1.31-4.83-1-8,2.09-3.83,3.57-4.84,7.69-6.38,5.96-1.14,11.82-1.16,16.81,2.62Z"/>
  <path class="cls-1" d="M559.04,431.95q2.06,1.62,4.06,4.62v4c-1.44.08-2.87.14-4.31.19-.8.03-1.6.07-2.43.11-2.78-.36-3.42-1.28-5.26-3.29q-2.63-.25-5,0c.33.99.66,1.98,1,3,3.22,1.18,6.48,1.98,9.8,2.84,3.42,1.24,5.01,2.29,7.2,5.16.58,4.57.62,6.81-1.5,10.88-4.55,3.87-9.37,4.39-15.12,3.94-3.91-.58-7.03-1.61-10.38-3.81-2.11-2.97-2-4.19-2-8h9l1,4q4.65.27,9-1l-1-3q-2.88-1.15-6.31-2-7.87-2.12-10.69-5c-.76-3.05-.54-5.91,0-9,2.03-3.17,3.72-3.88,7.19-5.31,5.67-1.02,10.5-.77,15.75,1.69Z"/>
  <path class="cls-1" d="M358.11,219.58h26c.33.66.66,1.32,1,2,1.26.12,2.52.25,3.81.38,2.85.32,4.17.61,6.69,2.12,2.27,3.78,2.14,7.2,1.5,11.5-.93,2.03-1.93,4.03-3,6-.81,2.97-1.43,5.97-2,9h-6q-2.94-5.5-3.31-8.69c-.23-.76-.45-1.53-.69-2.31l-2.88-1.44c-3.85-1.92-4.61-3.62-6.12-7.56v-2q-1.92.04-4,1c-1.02,1.99-2.02,3.99-3,6q-2.19,1.38-4,2c-.95-2.74-.99-4.05-.31-6.94q.67-3.2-1.62-5.75c-.68-.76-1.36-1.53-2.06-2.31v-3ZM381.11,224.58l1,2-1-2ZM380.11,227.58l1,2-1-2ZM390.11,228.58c-.33,1.32-.66,2.64-1,4l-5,1c.47.52.95,1.03,1.44,1.56,1.99,3.11,2.21,5.8,2.56,9.44h1c1.19-5.38,2.29-10.45,2-16h-1Z"/>
  <path class="cls-1" d="M367.31,370.63c2.06,1.09,3.34,2.13,4.8,3.95q.69,3.69,1,7h-9l-1-4c-1.28-.06-2.56-.12-3.88-.19-.72-.03-1.44-.07-2.18-.11q-.96.15-1.95.29c-2.15,3.22-2.3,4.27-2.31,8-.02.87-.03,1.73-.05,2.62.43,2.83,1.1,3.69,3.36,5.38q2.5.67,5,0c.41-.83.82-1.65,1.25-2.5q.87-1.24,1.75-2.5c3.04-.46,5.95-.29,9,0q-.24,6.12-2.33,8.54c-5.36,4.45-8.87,4.8-15.68,4.74-4.98-.48-7.6-2.7-10.8-6.35-2.72-4.45-2.64-8.89-2.19-13.94,1.76-5.88,4.13-8.55,9-12,5.83-1.94,10.62-1.06,16.2,1.05Z"/>
  <path class="cls-1" d="M487.31,370.63c2.06,1.09,3.34,2.13,4.8,3.95q.69,3.69,1,7h-9l-1-4c-1.28-.06-2.56-.12-3.88-.19-.72-.03-1.44-.07-2.18-.11q-.96.15-1.95.29c-2.15,3.22-2.3,4.27-2.31,8-.02.87-.03,1.73-.05,2.62.43,2.83,1.1,3.69,3.36,5.38q2.5.67,5,0c.41-.83.82-1.65,1.25-2.5q.87-1.24,1.75-2.5c3.04-.46,5.95-.29,9,0q-.24,6.12-2.33,8.54c-5.36,4.45-8.87,4.8-15.68,4.74-4.96-.47-7.56-2.71-10.8-6.29-2.59-4.36-2.69-9.01-2.19-14,1.79-5.87,4.13-8.55,9-12,5.83-1.94,10.62-1.06,16.2,1.05Z"/>
  <path class="cls-1" d="M91.11,430.58h9c2.32,5.61,4.47,11.13,6,17,1.89-3.45,3-6.99,4.12-10.75q.53-1.76,1.07-3.55c.27-.89.53-1.78.8-2.7h10c-2.75,10.86-6.41,21.4-10,32h-11c-1.43-3.91-2.86-7.83-4.27-11.74-.48-1.33-.97-2.66-1.46-3.99-.7-1.91-1.39-3.83-2.08-5.75l-1.27-3.49q-.92-3.02-.92-7.02Z"/>
  <path class="cls-1" d="M349.11,252.58c4.45-.02,8.89-.04,13.34-.05,1.51,0,3.02-.01,4.53-.02,2.18-.01,4.36-.02,6.54-.02q1.96,0,3.97-.02c3.31.1,6.37.48,9.62,1.11v4c-6.33,3.7-11.17,4.61-18.44,4.69-1.79.04-3.58.09-5.37.14-.78.01-1.56.02-2.37.03q-1.84-.06-2.82,1.14c-.24,3.09-.4,6.18-.52,9.28-.21,3.96-.77,7.14-2.48,10.72-2.33.38-4.66.71-7,1-2.69-2.69-1.19-10.69-1.19-14.31-.01-1.25-.02-2.5-.04-3.79,0-1.2,0-2.4,0-3.64q0-1.66-.01-3.34c.24-2.85.76-4.5,2.24-6.92Z"/>
  <path class="cls-1" d="M351.11,419.58v7c-1.65.33-3.3.66-5,1l-1,3h6v7h-6v25h-10v-25h-5v-7h5c.25-1.26.49-2.52.75-3.81.7-2.78,1.07-3.99,3.06-6.12,4.33-2.1,7.54-2.26,12.19-1.06Z"/>
  <path class="cls-1" d="M276.11,110.58q.5,2.47,1,5-5.37,4.62-9,5l-2-1,1,2c.08,1.38.11,2.75.1,4.13,0,.81,0,1.61,0,2.44q-.01,1.26-.03,2.55c0,.85,0,1.7-.01,2.57-.01,2.1-.03,4.2-.05,6.3-6.87,3.11-13.79,5.7-21,7.88-.73.23-1.46.45-2.21.69-3.69,1.08-6.12,1.58-9.79.44q-.5-2.69,0-6c1.85-1.58,3.77-2.67,5.91-3.84q2.29-1.19,4.78-3.35c4.68-3.67,8.43-4.04,14.31-3.81v4c-3.3,1.32-6.6,2.64-10,4q4.56-.79,9-2c2.1-3.15,2.52-5.01,3.12-8.69.17-.99.34-1.99.51-3.01.12-.76.24-1.52.37-2.3h-2l-1,5c-2.43-.94-3.72-1.46-4.94-3.81-.09-3.26.86-4.71,2.94-7.19q5.09-1.45,8,0,.09-.9.19-1.81.81-2.19,3.06-3.94c2.87-1.31,4.64-1.52,7.75-1.25ZM268.11,115.58v2h2v-2h-2Z"/>
  <path class="cls-1" d="M413.11,421.58h9v9h7v7h-7c.33,5.61.66,11.22,1,17h6v8c-1.73.14-3.46.23-5.19.31-.96.06-1.93.12-2.92.18q-2.89-.49-5.74-2.36c-3.09-4.47-2.71-8.14-2.47-13.44q.03-1.4.07-2.82c.06-2.29.14-4.58.24-6.87h-5v-7h5v-9Z"/>
  <path class="cls-1" d="M101.11,360.58h9v9h7c.04,2,.04,4,0,6l-1,1h-6c.33,5.28.66,10.56,1,16,1.98.66,3.96,1.32,6,2,.04,2,.04,4,0,6-1.64,1.64-3.49,1.25-5.75,1.31-.86.04-1.72.07-2.61.11-3.78-.61-5.18-1.45-7.64-4.43-.61-3.6-.47-7.11-.31-10.75.02-.98.05-1.97.07-2.98.06-2.42.14-4.85.24-7.27h-5v-7h5v-9Z"/>
  <path class="cls-1" d="M385.11,200.58l-2,3q-3.62.69-7,1c.33.99.66,1.98,1,3,.56-.54,1.11-1.07,1.69-1.62.76-.45,1.53-.91,2.31-1.38q2.75.81,5,2v5h-2v2h5l-1,4c-8.27.62-16.52,1.11-24.81,1.19q-1.96.02-3.96.04-3.23-.23-6.23-2.23v-3l6-2v-3l5-1c-1.64-1.64-3.78-1.6-6-2,.33-1.98.66-3.96,1-6,3.39-.23,6.79-.43,10.19-.62.96-.06,1.92-.13,2.91-.2q1.4-.08,2.82-.16c.85-.05,1.71-.1,2.59-.16,2.85.15,4.92.95,7.5,2.14ZM368.11,204.58c.99.99,1.98,1.98,3,3-.33-.99-.66-1.98-1-3h-2Z"/>
  <path class="cls-1" d="M358.11,132.58q1.95.8,4,2,.75,3.12,1,6c.33-2.64.66-5.28,1-8,.99.33,1.98.66,3,1,.81,6.82,1.14,13.52,1.1,20.38,0,.94,0,1.88,0,2.85,0,2.96-.02,5.93-.03,8.89,0,2.03,0,4.05-.01,6.08-.01,4.93-.03,9.86-.05,14.8-1.32-.33-2.64-.66-4-1-.33-6.6-.66-13.2-1-20v21h-4c-.77-3.42-1.12-6.56-1.11-10.07,0-.98,0-1.96,0-2.97,0-1.05.01-2.09.02-3.17,0-1.08,0-2.16,0-3.27,0-3.44.02-6.89.03-10.33,0-2.34,0-4.68.01-7.01.01-5.72.03-11.45.05-17.17Z"/>
  <path class="cls-1" d="M375.11,132.58l4,2c.33-.66.66-1.32,1-2q3.88,1.75,5,4c.09,1.6.12,3.21.11,4.82,0,1,0,2,0,3.03l-.02,3.28c0,1.11,0,2.21,0,3.35,0,3.55-.02,7.09-.03,10.64,0,2.4,0,4.8-.01,7.2-.01,5.89-.03,11.78-.05,17.68h-4q-.49-1.49-1-3l-1,2h-4v-53Z"/>
  <path class="cls-1" d="M324.11,55.58c1.9.77,3.79,1.54,5.69,2.31,1.06.43,2.11.86,3.2,1.3,2.91,1.3,5.55,2.5,8.11,4.39q.31,3.69,0,7l3-1c.33,2.64.66,5.28,1,8h2c-.33-2.64-.66-5.28-1-8h3c.97,1.95,1.95,3.9,2.91,5.85.88,1.74,1.82,3.45,2.77,5.15,2.82,6.45,2.4,12.24,1.31,19q-1.81-.12-4-1c-1.95-3.21-3-5.22-3-9h4q-1.68-3.21-4.64-3.81c-1.05-.21-2.09-.42-3.17-.63-7.91-1.85-11.08-4.98-15.37-11.66q-.82-1.9.18-4.9,2.31.12,5,1,1.81,3.06,3,6c-.33-2.93-.77-4.7-2.56-7.06-2.73-2.17-5.48-3.57-8.63-5.01q-1.8-.93-3.8-2.93.38-2.62,1-5Z"/>
  <path class="cls-1" d="M299.11,77.58q1.77,2.84,3.25,6.38c.5,1.16,1,2.33,1.52,3.52,2.05,5.15,2.32,8.63,2.23,14.1q-1.69.75-4,1-2.69-1.56-5-4-.81-3.25-1-6c-.99.33-1.98.66-3,1-2.74.07-5.45.09-8.19.06-.75,0-1.5,0-2.27-.01-1.85-.01-3.69-.03-5.54-.05-.78-2.73-1.23-4.4-.21-7.1,4.63-6.53,14.06-12.36,22.21-8.9Z"/>
  <path class="cls-1" d="M532.11,357.58h9v44h-9v-44Z"/>
  <path class="cls-1" d="M241.11,357.58h9v44h-9v-44Z"/>
  <path class="cls-1" d="M179.11,430.58v8c-2.97.66-5.94,1.32-9,2-.75,3-1.17,5.31-1.32,8.33-.04.8-.08,1.6-.13,2.42q-.06,1.24-.12,2.5c-.04.84-.09,1.68-.13,2.55-.11,2.07-.21,4.14-.31,6.2h-9v-32h9c.33.66.66,1.32,1,2,1.09-.52,2.19-1.03,3.31-1.56q3.69-1.44,6.69-.44Z"/>
  <path class="cls-1" d="M358.11,112.58c3.96-.03,7.92-.05,11.88-.06q1.69-.01,3.42-.03c1.08,0,2.15,0,3.26,0,.99,0,1.99-.01,3.02-.02q2.43.11,4.43,1.11c.08,2.29.14,4.58.19,6.88q.05,1.91.11,3.87c-.1,1.08-.19,2.15-.29,3.26-3.33,2.22-4.4,2.25-8.29,2.23-1.02,0-2.05,0-3.1,0-1.07-.01-2.13-.02-3.23-.04-1.08,0-2.15,0-3.26,0q-7.98-.05-9.12-1.19c-.1-2.31-.13-4.62-.12-6.94,0-1.27,0-2.53,0-3.84q.13-3.22,1.13-5.22ZM361.11,116.58c-.33,2.97-.66,5.94-1,9h5v-8c-1.32-.33-2.64-.66-4-1ZM371.11,116.58q-2.35,1.9-2.12,5.12c.04.95.08,1.9.12,2.88h4v-7l-2-1ZM377.11,117.58v6l2,1c.33-2.31.66-4.62,1-7h-3Z"/>
  <path class="cls-1" d="M298.11,101.58c2.95,1.35,5.47,2.97,8,5-.33,1.98-.66,3.96-1,6-2.64-1.65-5.28-3.3-8-5,.44.53.89,1.06,1.35,1.61.57.71,1.13,1.41,1.71,2.14.57.7,1.14,1.39,1.72,2.11q1.21,2.14.9,4.41c-.23.57-.45,1.14-.68,1.73q-2.12.81-5,1c-1.49-1.26-2.97-2.53-4.4-3.86-2.65-1.88-5.46-1.25-8.6-1.14q-3.44-1.5-6-3-.24-2.29,0-5c5.24-5.97,12.43-7.54,20-6ZM284.11,108.58v2h2v-2h-2Z"/>
  <path class="cls-1" d="M78.11,430.58h10v32h-10v-32Z"/>
  <path class="cls-1" d="M208.11,113.58c-.33,1.65-.66,3.3-1,5,.99.33,1.98.66,3,1v4h3c.25.72.49,1.44.75,2.19q1.15,2.92,3.38,5.38,1.88,2.44,1.88,6.44c1.32.66,2.64,1.32,4,2q-.25,1.88-1,4c-2.58,1.72-3.85,2-7,2-1.04-1.64-2.04-3.31-3-5-.99-.66-1.98-1.32-3-2,.33-1.32.66-2.64,1-4-.6-.23-1.2-.45-1.81-.69-2.81-1.69-3.73-3.4-5.19-6.31-.12-.66-.25-1.32-.38-2-.98-3.13-3.26-4.82-5.62-7,2-6,5.21-6.45,11-5Z"/>
  <path class="cls-1" d="M361.06,101.48c.77,0,1.55,0,2.34,0,2.47,0,4.93.02,7.4.03,1.67,0,3.35,0,5.02.01,4.1.01,8.2.03,12.29.05q.5,1.49,1,3c-.66.66-1.32,1.32-2,2q-.65,2.57-1,5c-4.22.05-8.43.09-12.65.11-1.43.01-2.87.02-4.3.04-2.06.02-4.13.04-6.19.04-1.24.01-2.48.02-3.76.03q-3.09-.23-6.09-2.23-.19-2.62,0-5h-3v-2c3.7-1.23,7.1-1.12,10.95-1.1Z"/>
  <path class="cls-1" d="M214.11,430.58h9v32h-9v-32Z"/>
  <path class="cls-1" d="M448.11,369.58h9v32h-9v-32Z"/>
  <path class="cls-1" d="M120.11,369.58h9v32h-9v-32Z"/>
  <path class="cls-1" d="M161.11,198.58c.99.33,1.98.66,3,1-.5,3.69-1.1,5.6-4,8,1.65.99,3.3,1.98,5,3-.66,1.98-1.32,3.96-2,6,1.01-.33,2.02-.66,3.06-1,3.69-1.07,7.09-1.16,10.94-1v5c-2.56.67-5.12,1.34-7.69,2-.72.19-1.44.38-2.19.58-3.8.97-7.17,1.67-11.13,1.42-1.16-4.05-.84-6.22,1-10-2.31-.33-4.62-.66-7-1q-.33-2.2,0-5,2.3-2.49,5.31-4.88c.99-.8,1.97-1.6,2.99-2.43.89-.56,1.78-1.12,2.7-1.7Z"/>
  <path class="cls-1" d="M152.73,114.64q1.13.25,2.29.5c2.58.54,4.58.17,7.09-.56,1.01,1.22,2.01,2.45,3,3.69.56.68,1.11,1.37,1.69,2.07,1.54,2.63,1.56,4.24,1.31,7.24-3.24-.56-4.93-1.41-7-4v-2q-3.12.65-4,3,2.47.49,5,1c.33,1.32.66,2.64,1,4-3.18,1.06-4.08.96-7.23.22-.8-.18-1.6-.37-2.43-.56q-1.25-.3-2.53-.6c-.84-.2-1.69-.39-2.56-.59-2.09-.48-4.17-.98-6.25-1.47q-1.14-3.73.12-6.18,5.33-6.47,10.51-5.76ZM148.11,120.58v2c1.32-.33,2.64-.66,4-1-1.32-.33-2.64-.66-4-1Z"/>
  <path class="cls-1" d="M358.11,224.58q2,1.12,3,3-.44,6.44-2,8c-1.67.04-3.33.04-5,0,.33,1.98.66,3.96,1,6h2c.33-1.32.66-2.64,1-4,.99.33,1.98.66,3,1,.49,4.09.15,5.76-2.06,9.31-3.44,3.15-5.33,3.6-9.94,3.69l-2-1v-3c1.65-.33,3.3-.66,5-1q-1.75-5.36-4.69-10.06c-2.08-3.06-1.83-5.35-1.31-8.94,3.69-4.47,6.58-4.5,12-3ZM352.11,228.58c-.33.99-.66,1.98-1,3,.66.66,1.32,1.32,2,2v-4c.99-.33,1.98-.66,3-1h-4Z"/>
  <path class="cls-1" d="M163.11,76.58c6.01.15,9.57,3.32,14,7-.33,1.32-.66,2.64-1,4-3.56-.61-6.68-1.58-10-3q-1.49,2.48-3,5c.71.42,1.42.84,2.15,1.28.92.55,1.84,1.1,2.79,1.66q1.37.82,2.78,1.65,2.29,1.41,3.29,2.41c.04,1.67.04,3.33,0,5q-3,1-6.54-.7c-1.37-.8-2.73-1.61-4.09-2.43-.69-.39-1.39-.78-2.1-1.19q-4.91-2.94-6.45-6.13c.24-3.51,1.57-5.41,3.55-8.3q.97-1.45,1.96-2.92,1.66-2.33,2.66-3.33Z"/>
  <path class="cls-1" d="M354.11,189.58h34q-1,4-3,6c-.33.66-.66,1.32-1,2-8.25,1.45-16.65,1.09-25,1-.33-1.65-.66-3.3-1-5-1.32-.33-2.64-.66-4-1v-3Z"/>
  <path class="cls-1" d="M304.11,14.58q7.51.49,10,3.06c.33.64.66,1.28,1,1.94-2.31.66-4.62,1.32-7,2q1.24.87,2.5,1.75c.82.74,1.65,1.48,2.5,2.25v4c-2.31.33-4.62.66-7,1,1.98,1.32,3.96,2.64,6,4l-1,4c-6.26.43-9.09-.07-14-4,1.93-6.86,4.25-13.43,7-20Z"/>
  <path class="cls-1" d="M351.11,31.58l4,2v11q1.64-1.27,3.31-2.56,1.86-1.44,3.69-2.44l3,1c-.49,4.24-1.55,6.02-4.81,8.75-.69.59-1.37,1.19-2.08,1.8-2.09,1.44-3.62,2.03-6.11,2.45-2.13-3.19-2.5-5.27-3-9-.58.97-1.15,1.94-1.75,2.94q-2.25,3.06-4.5,3.94c-.58.04-1.15.08-1.75.12q-.84-2.01-1-5c1.49-2.85,3.45-5.3,5.44-7.81.53-.69,1.06-1.39,1.6-2.1,1.31-1.71,2.63-3.4,3.96-5.09Z"/>
  <path class="cls-1" d="M183.11,235.58c.09,3.83-.12,7.27-1,11q.67-.67,1.36-1.35c1.82-1.7,3.57-3.26,5.64-4.65q2.94.12,5,1c-1.37,4.44-3.27,6.4-6.94,9.19-.88.67-1.75,1.35-2.65,2.04-1.77,1.3-3.58,2.55-5.41,3.77-1.32-.33-2.64-.66-4-1,.33-4.29.66-8.58,1-13q-4.45.49-9,1v-4c1.41-.65,2.83-1.29,4.25-1.94.79-.36,1.58-.72,2.39-1.09q5.49-2.26,9.36-.97Z"/>
  <path class="cls-1" d="M279.11,12.58c2.71.15,4.47.48,6.45,2.4,1.23,1.5,2.4,3.04,3.55,4.6q2.36-.89,3.12-4.06c.29-.97.58-1.94.88-2.94h4c.49,6.7-.92,11.07-4,17-3.24-.35-4.62-.56-6.81-3.06-.39-.64-.78-1.28-1.19-1.94-.33,2.31-.66,4.62-1,7-1.66.38-3.32.71-5,1q-1-1-1.12-4.94c.05-5.06.54-10.04,1.12-15.06Z"/>
  <path class="cls-1" d="M342.11,26.58q2.12,2.19,3,5c-.07,3.96-.64,6.38-2.62,9.81-3.07,2.83-5.24,3.62-9.38,4.19-3.29-1.14-5.37-2.43-7.94-4.75-1.64-3.47-1.07-5.6-.06-9.25,4.52-7.28,9.38-7.85,17-5ZM331.36,30.77c-1.68,2.44-1.7,3.91-1.25,6.81q2.76,2.28,5.56,1.81,2.77-.65,4.44-3.81c-.36-2.96-.85-3.85-3-6q-3.8-.37-5.75,1.19Z"/>
  <path class="cls-1" d="M159.11,181.58h4c2.08,5.04,3.19,8.49,3,14-2.73.84-5.46,1.67-8.19,2.5-.77.24-1.54.48-2.33.72-3.93,1.18-7.33,2.11-11.48,1.78q-3.63-8.26-2-13,1.94.69,4,2,.75,2.62,1,5l3-1v-7c.66-.33,1.32-.66,2-1,.66.33,1.32.66,2,1q.62,2.56,1,5c1.32-.33,2.64-.66,4-1-.19-1.3-.37-2.6-.56-3.94q-.32-2.21-.44-4.06l1-1Z"/>
  <path class="cls-1" d="M157.98,132.58c2.53,3.57,2.81,5.63,2.54,9.91q-.42,2.09-2.04,4.59c-2.99,1.89-4.83,2.43-8.38,2.5-4.67-1.27-6.48-2.17-9.06-6.31-1.07-4.19-.85-5.86,1.06-9.69,1.5-1.98,2.53-2.8,4.81-3.75,4.5-.51,7.33.15,11.06,2.75ZM146.11,136.58q-.25,2.46,0,5,1.84,2.29,4.62,2.12c.78-.04,1.57-.08,2.38-.12.66-1.65,1.32-3.3,2-5q-1.19-1.6-3-3-3.29-.49-6,1Z"/>
  <path class="cls-1" d="M275.48,246.44c.7,0,1.41,0,2.13.01.7,0,1.41,0,2.13-.01q5.24.01,6.37,1.14c.15,2.14.22,4.29.25,6.44.03,1.17.05,2.35.08,3.56-.11.99-.22,1.98-.33,3-3.1,2.07-3.95,2.29-7.5,2.31q-1.16.03-2.34.05c-2.67-.45-3.52-1.25-5.16-3.36q-.62-2.25-1-5c-.21-1.24-.41-2.47-.62-3.75-.12-1.07-.25-2.14-.38-3.25,1.76-1.76,4.04-1.13,6.37-1.14Z"/>
  <path class="cls-1" d="M370.11,132.58q3,1,4,3c.09,1.63.12,3.27.11,4.91,0,1.02,0,2.04,0,3.09,0,1.11-.01,2.21-.02,3.35,0,1.13,0,2.26,0,3.42,0,3.62-.02,7.23-.03,10.85,0,2.45,0,4.9-.01,7.34-.01,6.01-.03,12.02-.05,18.03h-4c-.79-6.28-1.15-12.38-1.13-18.71,0-.89,0-1.78,0-2.69,0-1.86,0-3.72,0-5.58,0-2.85,0-5.69,0-8.54,0-1.81,0-3.63,0-5.44q0-1.27,0-2.57c0-.79,0-1.58,0-2.4,0-.69,0-1.38,0-2.1.13-2.09.56-3.96,1.13-5.98Z"/>
  <path class="cls-1" d="M249.11,16.58v4c-1.65.66-3.3,1.32-5,2v2q3.47-.49,7-1,.99,1.48,2,3c-.8.62-1.61,1.24-2.44,1.88q-2.6,1.87-3.56,4.12c2.97-.33,5.94-.66,9-1q-.31,2.38-1,5c-3.04,2.02-4.19,2.32-7.69,2.62-.81.07-1.62.15-2.45.23q-.92.07-1.86.15c-.84-2.23-1.67-4.45-2.5-6.69-.24-.63-.48-1.25-.72-1.9q-2.44-6.67-1.78-10.42,1.64-1.62,3.81-2.88c.71-.43,1.42-.86,2.14-1.3q2.04-.82,5.04.18Z"/>
  <path class="cls-1" d="M209.11,31.58h5c2.41,7,3.59,13.61,4,21q-1.76,1.11-4,2-1.89-.57-3.82-1.7c-.7-.4-1.4-.81-2.12-1.22q-1.08-.66-2.18-1.32t-2.21-1.28c-2.85-1.67-5.32-3.13-7.67-5.47q.38-2.12,1-4c5.71.43,9.41,2.84,14,6-.14-.59-.29-1.18-.44-1.79-.97-4.13-1.84-7.93-1.56-12.21Z"/>
  <path class="cls-1" d="M211.11,258.58c5.07.45,7.54,2.45,11,6,.76,4.57-1.03,7.34-3.38,11.19q-.94,1.57-1.9,3.17-1.73,2.64-3.73,4.64c-4.82-.21-7.6-1.6-11-5v-3c3.2-.09,5.93.09,9,1-.66-.95-1.32-1.9-2-2.88q-2-3.12-2-5.12c2.64.33,5.28.66,8,1v-3q-2.44-2.2-5-4l1-4Z"/>
  <path class="cls-1" d="M268.11,12.58l4,2c-.12.59-.24,1.18-.36,1.79q-.98,5.32,1.36,10.02c.66.72,1.32,1.44,2,2.19q-.25,2.31-1,4c-2.76-.52-5.33-1.11-8-2-.41.66-.83,1.32-1.25,2-.58.66-1.16,1.32-1.75,2h-4q.93-6.77,1.81-9.62.46-2.62-1.75-5.19c-.68-.72-1.36-1.44-2.06-2.19.66-1.32,1.32-2.64,2-4q4.75,1.88,7,3l2-4Z"/>
  <path class="cls-1" d="M184.11,62.58c3.69,2.05,4.81,3.55,6.5,7.44q.5,3.56-.75,6.38-3.18,3.98-5.94,5c-3.93.26-6.37-.99-9.81-2.81-2.46-3.69-2.8-6.72-2-11,3.37-4.91,6.15-5.94,12-5ZM181.11,67.58l-4,4q.79,2,2,4c.99.33,1.98.66,3,1,1.32-1.32,2.64-2.64,4-4q-.79-2-2-4c-.99-.33-1.98-.66-3-1Z"/>
  <path class="cls-1" d="M202.11,250.58q1.94,1.12,3,3c1.09,4.13,1.27,6.31-.31,10.31-1.98,3.15-2.85,4.44-6.44,5.5-4.05.23-5.89-.57-9.25-2.81-2.62-3.04-3-4.52-3-8.56,1.18-4.07,2.47-5.2,6-7.44,3.26-1.63,6.57-.77,10,0ZM193.11,254.58q-1.77,3.48-1.44,7.25,1.36,1.96,3.88,2.62,2.81.39,5.56-1.88,1.09-1.84,1-4-1.54-2.37-4-4-2.67-.33-5,0Z"/>
  <path class="cls-1" d="M197.11,188.58c.33,1.65.66,3.3,1,5q-4.45,1.49-9,3v4q3.69-.45,6.56-2.62c.47-.45.95-.91,1.44-1.38q2.19.31,4,1c.33,1.65.66,3.3,1,5q-1.18.43-2.38.88-2.72.97-4.62,3.12c-3.57,1.03-5.33,1.31-8.75-.25q-2.25-1.75-4.25-4.75c.14-3.84.41-6.22,2.75-9.31,4-3,7.26-3.97,12.25-3.69Z"/>
  <path class="cls-1" d="M187.11,47.58c6.24.41,11.87,2.35,17,6q.85,2.11,1,4l-1,1q-6.4-.7-9-2c.49,1.22.99,2.43,1.5,3.69,1.22,3.24,1.83,5.81,1.5,9.31q-2.26.02-5-1c-1.74-2.59-2.78-5.41-3.88-8.31-.32-.77-.64-1.55-.97-2.34q-2.49-6.31-1.16-10.35Z"/>
  <path class="cls-1" d="M231.11,20.58c.99.66,1.98,1.32,3,2q-.38,1.94-1,4-.99.49-2,1c.41,3.48.97,5.95,2.62,9.06,1.53,3.28,1.47,4.56.38,7.94h-5c-.28-.85-.56-1.71-.85-2.59q-1.83-6.11-6.04-10.43-2.13-.32-5.11.02v-4l14-7Z"/>
  <path class="cls-1" d="M138.11,164.58q2.06.44,4,1c.33,1.65.66,3.3,1,5,5.28-.66,10.56-1.32,16-2,.33,1.65.66,3.3,1,5-3.2,1.81-6.13,2.52-9.75,3.12-.98.17-1.97.34-2.98.51-.75.12-1.5.24-2.27.37-.66,1.98-1.32,3.96-2,6h-4c-.34-2.06-.67-4.12-1-6.19-.19-1.15-.37-2.3-.56-3.48-.37-2.85-.6-5.47-.44-8.33l1-1Z"/>
  <path class="cls-1" d="M398.11,152.58c4.97,1.49,9.42,3.6,14,6-.6,3.52-.83,3.87-3.94,6.12-1.01.62-2.02,1.24-3.06,1.88-.66.66-1.32,1.32-2,2q-2.25.56-5,0c-2.27-2.14-4.15-4.5-6-7,1.31-3.94,2.92-6.23,6-9Z"/>
  <path class="cls-1" d="M217.11,82.58c-1.44,5.33-4.04,9.71-6.86,14.41-1.3,2.94-1,3.64-.14,6.59q-3.81,5.55-7.31,6.88c-.56.04-1.11.08-1.69.12q.99-3.47,2-7l-2,4h-2q-1.46-6.2.62-9.81,2.38-2.19,5.06-3.19c.76-.33,1.53-.66,2.31-1q.61-2.36,1-5,4.23-6,9-6Z"/>
  <path class="cls-1" d="M151.36,151.58c3.96,1.44,7.51,3.27,10.75,6q1,2.81,1,5-2.19.75-5,1c-1.68-1.31-3.35-2.65-5-4-3.05.17-3.81.81-6,3-2.66.52-4.31.41-6.66-.98q-1.65-1.27-4.34-4.02v-4c2.55-.07,4.63-.12,7.06.69q.96.15,1.94.31c.64-.49,1.28-.99,1.94-1.5q2.06-1.5,4.31-1.5Z"/>
  <path class="cls-1" d="M205.11,209.58c1.65.33,3.3.66,5,1,.46,2.02.91,4.04,1.37,6.05q.54,2.15,2.63,3.95-.25,2.06-1,4c-2.73,1.36-4.96,1.17-8,1.19-1.07.01-2.14.03-3.25.04q-2.75-.23-4.75-2.23c-.13-5.66,2.86-8.55,6.5-12.46q.74-.76,1.5-1.54ZM204.11,217.58c.33.99.66,1.98,1,3v-3h-1Z"/>
  <path class="cls-1" d="M199.11,74.58c.99.33,1.98.66,3,1-.06,2.56-.15,5.12-.25,7.69q-.02,1.08-.04,2.19c-.23,5.01-1.23,7.33-4.71,11.13q-.8,3.19-1,6c-1.32-.33-2.64-.66-4-1,.14-1.46.29-2.92.44-4.38.08-.81.16-1.62.25-2.46q.32-2.16,1.32-4.16c-1.32-.33-2.64-.66-4-1,.33-1.65.66-3.3,1-5,.8.19,1.61.37,2.44.56.85.14,1.69.29,2.56.44.33-.33.66-.66,1-1-.02-1.11-.04-2.23-.06-3.38q.06-3.62,2.06-6.62Z"/>
  <path class="cls-1" d="M379.61,55.27c3.27,1.22,4.23,1.93,6.5,4.31h4c-.33,1.65-.66,3.3-1,5-3.67,1.18-7.17,1.07-11,1q.77,1.14,1.56,2.31c.47.89.95,1.77,1.44,2.69-.33.99-.66,1.98-1,3q-2.44-1.56-5-4-.69-3.69-1-7c-.66-.33-1.32-.66-2-1q.31-2.38,1-5,3-2,6.5-1.31Z"/>
  <path class="cls-1" d="M334.79,266.7q3.31.88,4.31,1.88c.01,2.15-.06,4.29-.19,6.44q-.08,1.76-.17,3.56-.64,3-2.51,4.41-2.14.59-5.14.59c.66-1.65,1.32-3.3,2-5-.78.04-1.57.08-2.38.12q-2.62-.12-4.62-2.12c.17-3.18,1.05-5.09,2.62-7.88q2.38-2.12,6.06-2Z"/>
  <path class="cls-1" d="M182.11,104.58q2,2,2,5c.56-.33,1.11-.66,1.69-1,2.79-1.21,4.3-1.51,7.31-1q2.81,2.31,5,5v3c-3.12-.49-6-1-9-2-.62.49-1.24.99-1.88,1.5q-2.12,1.5-4.69,1.56c-3.5-1.52-4.02-3.61-5.44-7.06q-.59-1.18-1.19-2.38c-.27-.54-.54-1.07-.81-1.62,2.51-1.26,4.22-1.21,7-1Z"/>
  <path class="cls-1" d="M237.73,245.39c4.11.04,7.49.89,11.38,2.19-.96,3.47-1.92,4.93-4.69,7.31-3.77,1.92-6.13,2.1-10.31,1.69q-1-1-1.13-3.03c0-.81,0-1.63,0-2.47,0-.81,0-1.63,0-2.47.23-3.58,1.02-3.03,4.76-3.22Z"/>
  <path class="cls-1" d="M344.11,174.58c-.51,2.17-1,4-2,6q-.5,2.96,0,6,2.39,1.94,5,3c-.33,1.32-.66,2.64-1,4-5-.48-7.98-2.03-12-5,.14-1.42.29-2.83.44-4.25.08-.79.16-1.58.25-2.39.3-2.21.59-4.25,1.32-6.36,3.29-1.82,4.36-2.21,8-1Z"/>
  <path class="cls-1" d="M190.4,166.88c.56.23,1.12.46,1.7.7q-.31,1.94-1,4c-.99.33-1.98.66-3,1,2.13,2.34,4.12,3.71,7,5-.33,1.32-.66,2.64-1,4-5.24-.55-9.97-1.43-15-3q-.27-2.26,0-5,1.83-2.05,4.25-3.88c.79-.62,1.58-1.23,2.39-1.87q2.36-1.26,4.66-.95Z"/>
  <path class="cls-1" d="M229.11,145.58l-1,4c-1.65.33-3.3.66-5,1l2,2-1,1c1.32.33,2.64.66,4,1q-.31,1.94-1,4c-.99.33-1.98.66-3,1-.99-.66-1.98-1.32-3-2v-3h-6c-.33-.99-.66-1.98-1-3h-4v-4c2.04-.54,4.08-1.05,6.12-1.56,1.14-.29,2.27-.58,3.45-.88,3.49-.57,6-.35,9.43.44Z"/>
  <path class="cls-1" d="M179.11,145.58c.99.33,1.98.66,3,1q.69,2.06,1,4c1.32-.66,2.64-1.32,4-2q3,1.69,6,4,.19,2.64,0,5c-1.94.03-3.87.05-5.81.06-1.08.01-2.16.02-3.27.04q-2.92-.1-5.92-1.1c-1.39-2.77-1.19-4.93-1-8,.66-.99,1.32-1.98,2-3Z"/>
  <path class="cls-1" d="M213.11,68.58l2,1c-.34,4.76-1.6,6.82-4.79,10.29-1.9,2.7-2.3,5.56-2.85,8.76q-.36,1.95-1.36,3.95h-3q-.4-13.8,2-18c2.53-2.23,5.19-4.15,8-6Z"/>
  <path class="cls-1" d="M396.11,171.58c2.65.96,4.81,1.86,7.06,3.56,2.01,1.49,3.49,2,5.94,2.44v4c-2.71,1.36-4.91,1.17-7.94,1.19-1.06.01-2.12.03-3.21.04q-2.85-.23-5.85-2.23c.53-3.82,1.5-6.06,4-9Z"/>
  <path class="cls-1" d="M322.11,18.58c.99.66,1.98,1.32,3,2-.44,6.77-1.57,13.04-5,19-.99.33-1.98.66-3,1-.66-.33-1.32-.66-2-1,.54-6.99,2.26-13.53,5-20l2-1Z"/>
  <path class="cls-1" d="M346.11,143.58q1.33,5.32-.12,8.31c-2.37,2.14-3.68,2.61-6.88,2.69q-2.81-1-5-3-.62-3.5,0-7c4-4,7.03-2.85,12-1ZM337.11,146.58l1,2-1-2ZM342.11,146.58l1,3-1-3Z"/>
  <path class="cls-1" d="M403.11,135.58q1.88,1.12,3,3c.42,3.33.31,5.34-1.12,8.38q-1.88,1.62-4.88,2.06-3-.44-4.88-1.5c-1.77-3.04-1.49-5.5-1.12-8.94,2.16-3.71,4.99-3.5,9-3ZM399.11,139.58c-.33,1.32-.66,2.64-1,4,.99.33,1.98.66,3,1,.33-.99.66-1.98,1-3-.33-.66-.66-1.32-1-2h-2Z"/>
  <path class="cls-1" d="M396.11,208.58h11c-.33,1.65-.66,3.3-1,5-1.65.33-3.3.66-5,1v3c1.32.33,2.64.66,4,1q-.31,1.94-1,4-3,1-5.62.31-2.38-1.31-3.19-3-.68-8.34.81-11.31Z"/>
  <path class="cls-1" d="M345.11,157.58c-.52,2.76-1.11,5.33-2,8q2.47.99,5,2c-.33.99-.66,1.98-1,3-1.79.03-3.58.05-5.38.06-1,.01-2,.02-3.02.04q-2.6-.1-4.6-1.1c1-2.99,1.75-3.95,4-6-.66-.66-1.32-1.32-2-2v-3c2.96-1.48,5.74-1.06,9-1Z"/>
  <path class="cls-1" d="M292.11,119.58c5.14,2.57,8.57,4.54,11,10,.3,5.94-.9,10.88-4,16h-2c.06-.92.12-1.84.18-2.78q.36-9.5-4.08-17.57-1.09-1.65-1.09-5.65Z"/>
  <path class="cls-1" d="M395.11,187.58c4.93,1.09,8.78,2.1,13,5-.08,2.79-.46,4.47-2.48,6.45-3.55,2.65-4.89,3.55-9.52,3.55.5-3.69,1.1-5.6,4-8-.82-.6-1.65-1.2-2.5-1.81-.83-.72-1.65-1.44-2.5-2.19v-3Z"/>
  <path class="cls-1" d="M334.11,223.58h9v4q-1.98.99-4,2v2c1.32.66,2.64,1.32,4,2-.33,1.32-.66,2.64-1,4q-5.75.12-8-1c-1-4.63-1.01-8.38,0-13Z"/>
  <path class="cls-1" d="M298.11,150.58c-.33,1.98-.66,3.96-1,6-2.08.55-3.84,1-6,1q-.93.99-1.88,2-2.12,2-6.12,2c.33-2.97.66-5.94,1-9,4.93-1.97,8.78-2.18,14-2Z"/>
  <path class="cls-1" d="M397.11,108.58c4.05-.43,5.55-.3,9,2q.88,1.81,1,4-1,2.75-3,5c-3.43.36-5.88.56-9-1q-.25-6.62,2-10ZM400.11,112.58c-.33.99-.66,1.98-1,3h3c-.33-.99-.66-1.98-1-3h-1Z"/>
  <path class="cls-1" d="M337.11,208.58c4.43,1.39,6.87,3.61,10,7l-1,3c-4.47,1.49-8.53,1.49-13,0,.48-4.22,1.17-6.8,4-10Z"/>
  <path class="cls-1" d="M396.11,123.58c4.56.54,7.97,1.79,12,4v4c-2.68.89-4.25,1.14-7,1.12q-1.02,0-2.06,0-1.94-.13-4.94-1.13c-.2-3.72-.15-4.77,2-8Z"/>
  <path class="cls-1" d="M307.11,122.58q2.38.12,5,1c2.99,3.61,3.32,6.4,3,11q-2.25.75-5,1-2.31-1.44-4-4c-.39-2.8-.23-5.14,0-8l1-1Z"/>
  <path class="cls-1" d="M345.11,197.58q.62,3.38,1,7-2,2-5.5,2.25-3.5-.25-5.5-2.25.25-3.56,1-7c3.07-1.53,5.7-.55,9,0ZM339.11,200.58c.66.66,1.32,1.32,2,2v-2h-2Z"/>
  <path class="cls-1" d="M293.29,136.27c.93.1,1.86.21,2.81.31q-.35,8.19-3.06,11.56c-.64.47-1.28.95-1.94,1.44-.99-.33-1.98-.66-3-1-.82-3.79-1.27-6.25.06-9.94q1.94-2.06,5.12-2.38Z"/>
  <path class="cls-1" d="M332.11,51.58c1.44.28,2.88.58,4.31.88.8.16,1.6.32,2.43.49q2.26.63,5.26,2.63.51,2.16.69,4.62.1,1.23.2,2.48c.04.63.07,1.25.11,1.9-1.67-1-3.33-2-5-3-.87-.52-1.73-1.03-2.62-1.56-1.82-1.1-3.61-2.26-5.38-3.44q-.19-2.62,0-5Z"/>
  <path class="cls-1" d="M367.71,265.38c1,.02,2,.05,3.02.07q1.5.03,3.04.05c.77.02,1.54.05,2.34.07-1.42,3.39-3.04,5.1-6,7.25q-1.05.78-2.12,1.58-1.88,1.17-3.88,1.17c-1.38-2.76-1.19-4.95-1-8q2-2,4.6-2.2Z"/>
  <path class="cls-1" d="M346.11,131.58h2c.38,1.99.71,3.99,1,6q-1,1-3.94,1.1-1.79-.02-3.62-.04t-3.63-.03c-.93-.01-1.85-.02-2.81-.04-.33-1.65-.66-3.3-1-5,2.77-.92,4.29-1.08,7.12-1h3.88l1-1Z"/>
  <path class="cls-1" d="M78.11,418.58h10v8h-10v-8Z"/>
  <path class="cls-1" d="M393.11,97.58q10.1-.63,13.69,1.88,1.31,2.12,1.31,4.12c-1.99-.03-3.97-.07-5.96-.1q-2.25.02-5.04,1.1-2.69-1.94-5-4c.33-.99.66-1.98,1-3Z"/>
  <path class="cls-1" d="M345.11,104.58q1.88,1.56,3,3c-.33.99-.66,1.98-1,3q-1.27-.25-2.56-.5c-3.53-.51-6.88-.57-10.44-.5-.33-1.65-.66-3.3-1-5,4.32-.92,7.71-1.14,12,0Z"/>
  <path class="cls-1" d="M214.11,418.58h9v8h-9v-8Z"/>
  <path class="cls-1" d="M448.11,357.58h9v8h-9v-8Z"/>
  <path class="cls-1" d="M120.11,357.58h9v8h-9v-8Z"/>
  <path class="cls-1" d="M231.54,157.39q2.56.19,4.56,2.19.25,3,0,6c-.66.66-1.32,1.32-2,2q-2.5-.19-5-1-2-3-1.69-5.62.96-3.32,4.12-3.56Z"/>
  <path class="cls-1" d="M181.11,90.58c2.31.33,4.62.66,7,1,1.15,3.94,1.53,7.94,2,12q-3.75,1.12-6,0-.34-1.93-.5-4.31c-.22-3.39-.82-5.72-2.5-8.69Z"/>
  <path class="cls-1" d="M293.11,126.58q2,2,2,6-6.62,1.25-10-1,.38-2.44,1-5c2.71-1.35,4.13-.79,7,0Z"/>
  <path class="cls-1" d="M336.11,116.58q2.25-.25,5,0,2.31,2,4,4c-1.37,3.16-1.99,3.99-5,6q-2.19-.38-4-1c.66-1.65,1.32-3.3,2-5-.66-.33-1.32-.66-2-1v-3Z"/>
  <path class="cls-1" d="M361.11,54.58l4,1v2c.8.25,1.61.49,2.44.75q2.56,1.25,3.44,3.25.12,2-.88,4h-5v-4c-.66-.49-1.32-.99-2-1.5-.66-.49-1.32-.99-2-1.5v-4Z"/>
  <path class="cls-1" d="M292.61,201.45q2.5.12,3.5,1.12c.04,2,.04,4,0,6q-1.98.99-4,2c-.99-.66-1.98-1.32-3-2q-.25-3.06,0-6,1-1,3.5-1.12Z"/>
  <path class="cls-1" d="M236.11,181.58q4.88.88,6,2c.07,1.52.08,3.04.06,4.56,0,.83-.02,1.65-.03,2.5q-.02.96-.04,1.93h-3c-2.15-3.86-3.39-6.55-3-11Z"/>
  <path class="cls-1" d="M307.11,112.58h2c.66,1.65,1.32,3.3,2,5q-3.45,4.8-6.25,5.81c-.58.06-1.15.12-1.75.19.51-4.36,1.38-7.44,4-11Z"/>
  <path class="cls-1" d="M252.11,93.58q1.94.69,4,2c.94,2.88,1.37,4.26,0,7-1.67.04-3.33.04-5,0-.33-.33-.66-.66-1-1q.72-6.72,2-8Z"/>
  <path class="cls-1" d="M275.11,118.58q2.06.44,4,1c.38,1.99.71,3.99,1,6q-1,1-4.06,1.06c-.97-.02-1.94-.04-2.94-.06q.88-6.88,2-8Z"/>
  <path class="cls-1" d="M328.11,279.58l2,1c-.33,1.65-.66,3.3-1,5q-4.45-.99-9-2c.33-1.32.66-2.64,1-4,2.69-1.35,4.14-.72,7,0Z"/>
  <path class="cls-1" d="M280.17,128.52q1.45.03,2.94.06c.04,1.67.04,3.33,0,5q-1,1-4.06,1.06-1.45-.03-2.94-.06c-.04-1.67-.04-3.33,0-5q1-1,4.06-1.06Z"/>
  <path class="cls-1" d="M288.11,117.58c.38,1.66.71,3.32,1,5q-1,1-3.5,1.12-2.5-.12-3.5-1.12c-.04-1.67-.04-3.33,0-5q3-1,6,0Z"/>
  <path class="cls-1" d="M158.11,101.58c1.65.33,3.3.66,5,1-.33,1.65-.66,3.3-1,5-1.65-.33-3.3-.66-5-1,.33-1.65.66-3.3,1-5Z"/>
  <path class="cls-1" d="M292.11,161.58c.99.33,1.98.66,3,1-.33,1.98-.66,3.96-1,6-1.65-.33-3.3-.66-5-1,.57-2.87.86-3.86,3-6Z"/>
  <path class="cls-1" d="M215.11,209.58c.99.33,1.98.66,3,1-.33,1.65-.66,3.3-1,5-1.65-.33-3.3-.66-5-1q1.88-3.88,3-5Z"/>
  <path class="cls-1" d="M194.11,256.58q2.47.99,5,2v4c-1.65-.33-3.3-.66-5-1v-5Z"/>
  <path class="cls-1" d="M170.11,226.58c.99.33,1.98.66,3,1v5h-4c-.04-1.67-.04-3.33,0-5l1-1Z"/>
  <path class="cls-1" d="M229.11,150.58h5c.33.66.66,1.32,1,2-.33.66-.66,1.32-1,2-1.65-.33-3.3-.66-5-1v-3Z"/>
  <path class="cls-1" d="M240.11,195.58h4v4c-1.32-.33-2.64-.66-4-1v-3Z"/>
  <path class="cls-1" d="M286.11,163.58h2c-.33,1.65-.66,3.3-1,5-.99-.33-1.98-.66-3-1l2-4Z"/>
  <path class="cls-1" d="M273.11,48.58l-1,4h-4v-3q3-1,5-1Z"/>
  <path class="cls-1" d="M342.11,86.58h3c-.33,1.32-.66,2.64-1,4-.99-.33-1.98-.66-3-1,.33-.99.66-1.98,1-3Z"/>
  <path class="cls-1" d="M264.11,50.58c.99.33,1.98.66,3,1-.33.66-.66,1.32-1,2h-2v-3Z"/>
  <path class="cls-1" d="M274.11,49.58h2v3h-2v-3Z"/>
  <path class="cls-1" d="M261.11,75.58l2,1v2h-2v-3Z"/>
  <path class="cls-1" d="M260.11,53.58h2c-.33.99-.66,1.98-1,3-.33-.99-.66-1.98-1-3Z"/>
  <path class="cls-1" d="M327.11,240.58l2,1-2-1Z"/>
</svg>