<?xml version="1.0" encoding="UTF-8"?>
<svg id="Layer_1" data-name="Layer 1" xmlns="http://www.w3.org/2000/svg" version="1.1" viewBox="0 0 440.8 638.3">
  <defs>
    <style>
      .cls-1 {
        fill: #fff;
        stroke-width: 0px;
      }
    </style>
  </defs>
  <g>
    <path class="cls-1" d="M2.9,345.4c9.4-1.5,18.6-1.3,27.7-.5,5.7.5,9.9,4.2,13.2,8.9,22.1,31.5,44.2,63,66.3,94.5,1.2,1.7,2.5,3.4,4.7,5v-6.2c0-32,0-64,0-96,0-6.6,0-6.6,6.6-6.6,3.8,0,7.7.1,11.5,0,3-.1,4.3,1.1,4.3,4.1,0,2,0,4,0,6,0,45.5,0,91,0,136.5s-2.4,7.2-7.2,7.2-11.7,0-17.5,0c-7,0-12.5-3-16.5-8.7-22.8-32.5-45.5-64.9-68.3-97.4-.7-1-1.1-2.4-2.7-2.8-1,1.5-.5,3.2-.5,4.8,0,32.5,0,65,0,97.5,0,6.6,0,6.6-6.7,6.6-3.8,0-7.7-.1-11.5,0-3.3.1-4.6-1.4-4.3-4.5,0-.5,0-1,0-1.5,0-47,0-94,0-141,0-1.8.3-3.6.8-5.8h0Z"/>
    <path class="cls-1" d="M199.4,447.5c.7,19.1,9.6,31.6,25.8,34.4,24.1,4.1,41.9-6.9,42.5-33.2.8-32.3.2-64.6.3-97,0-7.3,0-7.3,7.5-7.3,7,0,14,.1,21,0,3.4,0,4.8,1.2,4.8,4.6,0,33,.4,66-.2,99-.4,22.1-9.8,39.7-31.2,48.7-15.2,6.4-31.3,7.4-47.6,5.9-9.1-.8-18.1-2.7-26.5-6.6-18-8.5-27.3-23.1-28.9-42.4-2.2-26.4-.5-53-.9-79.4-.1-8.3,0-16.7,0-25,0-3.4,1.2-4.8,4.7-4.7,7.7.2,15.3.3,23,0,4.4-.2,5.7,1.4,5.7,5.8-.1,32.3,0,64.6,0,97.4h0Z"/>
    <path class="cls-1" d="M359.6,341.9c22.3-4.3,43.8-2.5,64.9,4.5,4.5,1.5,6.5,3.7,6.1,8.6s-.1,9.9-.1,15c-3.1.7-4.8-1.3-6.7-2.3-17.8-9.3-36.5-12.1-56.1-7.6-1.8.4-3.5,1-5.2,1.8-11.7,5.2-13.5,18-3.7,26.2,6.4,5.3,14,8.3,21.5,11.4,12.1,5,24.6,9.3,35.9,16.2,11.3,7,20.1,16,23.2,29.3,5.5,23.5-5.5,43.8-28.4,52.1-15.5,5.6-31.5,6.7-47.8,5.5-13-.9-25.7-3.2-38-7.8-4-1.5-5.8-3.6-5.5-8.1.4-6.6.1-13.1.1-19.6,2.2-.5,3.1.7,4.2,1.4,18.9,12.9,39.8,16.1,62,12.7,13-2,20.8-10.3,20.9-21.1,0-6.9-3.5-11.6-8.8-15.3-8.4-5.9-18.3-8.8-27.8-12.3-11.5-4.3-23.2-8.5-33.1-16.2-20.4-15.9-22-47.5-3-63.3,7.2-6,15.8-9.1,25.3-11.2h0Z"/>
    <path class="cls-1" d="M23.9,553.3v-14.9c0-2.3,0-4.6,3.2-4.4,3.1.1,3.2,2.4,3.1,4.7,0,8.5,0,17,0,25.5,0,2.1.4,4.6-2.7,5-2.6.3-4.9.2-6.3-2.6-3.4-6.5-7.1-12.8-10.6-19.2-.4-.7-.9-1.3-2.2-1.8,0,6.2,0,12.5,0,18.7,0,2.2.4,5-3.2,5-3.6,0-3.1-2.8-3.1-5,0-8.3,0-16.6,0-25,0-2.1-.5-4.6,2.6-5.1,2.8-.5,5.2,0,6.8,2.8,3.8,7.1,7.8,14.2,11.9,21.5,1.2-1.6.5-3.1.7-5h0Z"/>
    <path class="cls-1" d="M129.9,612.1c2.5-10.1,6.9-12.7,16.8-10.4.5.1,1.1.5,1.4.3,6.9-2.8,6.5,1.8,6.4,6.3-.1,6.2,0,12.3,0,18.5,0,4.3-1.5,8-5.6,9.8-5.1,2.3-10.4,2.2-15.5,0-1.9-.8-1.6-2.6-.5-4.9,6.1,1.1,13.6,4.7,16.1-6.1-5.5,1.2-10.8,3.1-15.3-1.2-3.4-3.3-4-7.5-3.7-12.4M148.8,613.5c-.7-4.2-2.2-8.3-7.2-7.8-4.3.4-5.3,4.5-5.9,8.2-.3,2,.6,3.9,1.7,5.6,2.4,3.7,6.9,3.8,9.6.2,1.2-1.6,1.9-3.5,1.8-6.3h0Z"/>
    <path class="cls-1" d="M213.4,616.4c-2.6,10.8-6.9,13.1-19,9.8v8c0,1.9-.7,3.3-2.9,3.3-2.2,0-2.8-1.4-2.8-3.3,0-9.8,0-19.7,0-29.5,0-2.2.9-4,3.1-3.2,3,.9,5.4-.2,8.2-.8,6.4-1.4,12.2,3,13.2,9.8.3,1.8.1,3.7.1,5.9M204.7,606.9c-4.7-2.2-7.8-.9-9.6,3.9-1.8,4.9.3,10.6,4.4,11.6,3.2.8,5.6-.4,6.8-3.4,1.7-4,1.8-8-1.7-12.1h0Z"/>
    <path class="cls-1" d="M217.5,558c1.1,4.5,3.7,6.8,8,6.4,4.4-.4,6.3-3.4,6.9-7.4.9-6,.2-12,.4-18,0-2.2-.7-5.2,3-5,3.3.1,2.6,2.9,2.7,4.9,0,6,.1,12,0,18-.2,7.4-4.8,12.3-11.9,13-7.7.8-13.3-2.8-14.9-10.1-1.7-7.7-.6-15.6-.7-23.4,0-1.9,1.4-2.5,3.1-2.5,2.4,0,3.1,1.5,3.2,3.6.1,6.7.2,13.3.3,20.4h0Z"/>
    <path class="cls-1" d="M78.1,597.7c-.7-.2-1-.3-1.3-.3-3-.2-6.9-1.6-8.1,2.4-1.2,3.8,2.6,4.8,5.1,6.3,2.4,1.4,5.1,2.5,6.8,4.9,3,4.2,2.5,10.5-1,13.8-3.8,3.6-13.1,4.6-16.4,1.8-1.2-1-1.3-2.3-.9-3.6.5-1.8,1.9-1.7,3.2-1.3,4.1,1.2,8.6,2,10.1-2.9,1.6-5.1-3.5-6-6.7-7.7-6.7-3.6-9-8.6-6.4-14.1,2.2-4.6,10.5-7.3,15.9-4.8,3.2,1.5,3.4,3.7-.2,5.7h0Z"/>
    <path class="cls-1" d="M275.7,600.8c9.2-.5,13.4,3.1,14.1,11.3.3,2.9-.8,3.9-3.5,4-4.4.2-8.9-.7-13.2.6,1.6,6.1,2,6.2,14.6,5,1.4,3,.2,4.5-2.7,5.5-7.4,2.6-15.5-.6-17.9-7.3-3.1-8.3.1-15.7,8.6-19.1M281.5,611.3c3.1-1,1.6-2.7.4-4-1.5-1.7-3.5-1.9-5.5-1.1-2.1.8-3.6,2.2-3.2,4.8,2.6.9,5.1.3,8.3.4h0Z"/>
    <path class="cls-1" d="M159.6,548.9c-1.7-2.6-.8-4.1,1.7-5.2,8.6-3.7,15.6.2,16.5,9.6.4,4.1.2,8.3.2,12.5,0,1.8-.7,3.9-2.7,3.1-3.2-1.2-5.7.5-8.5.9-5.1.9-9.8-1.7-10.8-5.8-1.3-5.3,1.2-9,7.1-10.6,2.7-.7,5.4-1,8.2-1.5-1.6-4.7-3.2-5.1-11.7-3.1M165.1,558.1c-2,.9-4.3,2-2.9,4.7,1.4,2.7,4,2.7,6.4,1.5,2.1-1,3.7-2.7,3-5.1-1.1-3.2-3.7-1.7-6.5-1Z"/>
    <path class="cls-1" d="M162.8,604.5c3.2-4.6,7.6-4.3,12.1-3.5,4.4.8,6.2,3.9,6.9,8.1.8,5,.4,9.9.4,14.9,0,1.9-1,3.7-2.9,3-3-1.2-5.4.2-8,.8-5.1,1.1-10.2-1.6-11.2-5.8-1.3-5.1,1.3-9,7.2-10.5,2.7-.7,5.4-1,8.7-1.5-1.9-5.1-5.3-4.6-8.9-3.7-1.6.4-3.9,2.6-4.2-1.7M171.2,615.4c-.6.2-1.3.4-1.9.6-2,.7-3.9,1.7-3.2,4.2.6,2.4,2.8,2.6,4.9,2.4,2.8-.3,4.7-1.8,4.8-4.7,0-2.7-1.8-2.8-4.5-2.4h0Z"/>
    <path class="cls-1" d="M104.2,543.4c7.3-1.7,13.2.3,16,5.4,3.1,5.5,2.4,12.5-1.8,17.1-3.6,4-10.1,5.3-15.1,2.9-5.1-2.5-7.6-6.6-7.6-12.3,0-6.1,2.1-10.7,8.5-13M110.2,564.6c5.7-2.7,7.6-9.1,4-13.9-2.3-3.2-6.9-4-9.6-1.4-2.6,2.6-3.7,5.8-2.7,9.5,1.1,3.8,3.2,6.2,8.2,5.8h0Z"/>
    <path class="cls-1" d="M57.5,558.6c0,2,0,3.5,0,5,.2,3.7.5,7.2-5.1,4.7-.9-.4-2.5.6-3.7,1-5.9,1.9-11.6-.3-12.8-5-1.5-5.8,1.3-9.6,8.4-11.1,2.2-.5,4.5-.7,6.8-1-1.3-4.9-2.4-5.2-11.8-3.1-2.1-2.6-.9-4,1.7-5.2,9.1-4.1,16.4.5,16.5,10.4,0,1.3,0,2.7,0,4.5M51.7,560.1c-1.2-5.6-4.8-2.3-7.3-1.7-2,.5-3.7,2.3-2.1,4.5,2,2.9,4.8,2.4,7.4.6.9-.6,1.3-1.8,2.1-3.5h0Z"/>
    <path class="cls-1" d="M221.9,603.3c5.5-3.8,11-3.8,16.2-.4,5,3.3,6.1,8.6,5.2,14.1-.9,5.3-4.2,8.9-9.5,10.5-5.5,1.6-11.7-.8-14.7-5.7-3.7-6-2.8-12.3,2.8-18.4M223.4,615.9c1.7,6.5,7.3,9,11.5,5,3.6-3.4,3.3-10.6-.5-13.8-3.2-2.7-7.3-1.9-9.8,1.7-1.3,1.9-1.4,4-1.2,7h0Z"/>
    <path class="cls-1" d="M25.9,618.8c-3.9,8.2-10.9,11.1-18.2,7.8-6.6-2.9-9.5-11.2-6.5-18.3,2.8-6.7,10.5-9.6,17.6-6.7,6,2.5,8.4,8.1,7.1,17.2M12,622.6c7-.3,10.4-5.8,7.7-12.3-1.2-2.8-3.2-4.8-6.3-4.8-2.9,0-4.9,1.9-6.1,4.4-2.4,4.7-.8,9.8,4.8,12.8Z"/>
    <path class="cls-1" d="M323.5,542.6c8,.3,11.5,3.3,12.7,10.3.6,3.3-.3,5.1-4,5-4,0-8,0-12,.2-.3,0-.5.3-.8.5,1.4,6.1,3,6.7,14.4,5,1.4,3.2.4,4.8-3,5.7-8,2.2-15.7-1-17.4-8.1-2-8-.5-16.6,10.1-18.6M322.4,548.2c-1.5.8-3.1,1.8-2.7,3.7.5,2.3,2.6,1.3,4.1,1.5.8.1,1.6,0,2.5,0,1.4,0,3.3.3,3.4-1.9,0-1.7-1.2-2.8-2.6-3.2-1.2-.4-2.6-.2-4.6-.1h0Z"/>
    <path class="cls-1" d="M412.3,553.5c-1.2-3.3-2.2-6.3-3.2-9.4,4-1.6,6.2-.5,7.3,3.4,1.3,4.6,3,9.1,4.8,14.9,2-5.8,3.7-10.5,5.2-15.2,1-3.2,2.7-4.4,5.9-3.1.9,1.3.2,2.6-.2,3.8-3,8.3-5.9,16.6-9,24.8-1.6,4.2-4.1,7.7-9.4,7.5-1.3,0-2.8,0-3.1-1.8-.3-1.7.4-2.5,2.3-3.1,4.8-1.5,5.8-3.9,4.1-8.8-1.5-4.2-3-8.5-4.7-13h0Z"/>
    <path class="cls-1" d="M149.4,548c1.9,6.3.7,12.3.9,18.2,0,1.7-.8,2.8-2.7,2.8-1.9,0-2.8-1-2.8-2.7,0-3.5,0-7-.2-10.5-.2-3.4-.1-7.4-5-7.9-3.7-.4-6.2,2.7-6.5,7.8-.2,3.3,0,6.6-.2,10,0,1.8-.5,3.3-2.8,3.4-2.4,0-3.3-1.3-3.3-3.4,0-6.3,0-12.6,0-18.9,0-2.6,1.4-4.1,3.7-3.3,2.8,1,5.1,0,7.7-.6,4.6-.9,8.6.2,11.1,5.1h0Z"/>
    <path class="cls-1" d="M101.5,602.8c5.8-.2,11.2-3.3,16.9-1.6,4,1.2,5.8,4.5,6,8.4.2,4.7,0,9.3,0,14,0,1.8-.2,3.4-2.6,3.4-2.6,0-3-1.6-3-3.6,0-3.8,0-7.7-.1-11.5-.2-3.1-1.1-6.3-5-6.2-3.6,0-5.9,2.5-6.2,6-.3,3.8-.2,7.7-.3,11.5,0,1.9-.2,3.8-2.8,3.9-2.8.1-3.3-1.8-3.3-3.9,0-6.7.2-13.3.4-20.3h0Z"/>
    <path class="cls-1" d="M253.4,544.2c9.9-3.7,15.7,0,16,10.2.1,3.8,0,7.7,0,11.5,0,2.3-1.1,3.4-3.4,3.2-2.3-.2-2.6-1.7-2.5-3.5.3-4.2.3-8.3-.4-12.4-.5-2.7-1.2-4.9-4.4-5.2-3.1-.3-5,1.5-6.1,4.2-1.6,3.8-1,7.9-1.2,11.8-.1,2,.9,4.8-2.5,5-3.7.2-3-2.8-3.1-5-.1-4.7,0-9.3,0-14,0-7.2.3-7.4,7.6-5.8h0Z"/>
    <path class="cls-1" d="M35.1,625.4c-.2-5.1-.3-9.7-.3-14.4,0-2.6,0-5.1-3.6-5.1-1.6,0-2.3-1.1-2.2-2.7,0-1.6,1.2-1.8,2.4-1.8,3.1,0,3.2-1.9,3.5-4.3.5-5.6,3.6-8.6,8.5-8.4,1.7,0,3.5.2,3.8,2.4.2,1.9-1.1,2.6-2.8,2.8-2.6.3-3.8,1.8-3.8,4.4,0,2.9,1.9,3.1,4,3.2,1.3,0,2.3.7,2.4,2,.1,1.7-.9,2.5-2.4,2.4-4-.2-4,2.3-4,5.2,0,4,0,8,0,12,0,4-1.7,5.2-5.3,2.3h0Z"/>
    <path class="cls-1" d="M72.5,540.6c.3,2.6,2,2.8,3.7,2.8,1.6,0,2.5.8,2.5,2.4,0,1.5-.9,2.2-2.2,2.1-3.9-.2-4.2,2.3-4.1,5.2,0,2,0,4,0,6-.2,3.2.6,5.7,4.5,5.6,1.3,0,2.2.6,2.3,2,0,1.6-.9,2.4-2.3,2.9-4.3,1.6-9.3-1.2-10.1-6-.4-2.5-.4-5-.5-7.5,0-2.3,0-4.6,0-6.5-.9-1.8-2.2-1.5-3.3-1.8-1.4-.3-2-1.1-1.9-2.5,0-1.2.7-1.9,1.8-2,2.6-.1,3.2-1.8,3.5-4,.2-2.2,1.8-3.1,3.9-3,2.6,0,2,2.1,2.2,4.1h0Z"/>
    <path class="cls-1" d="M366.6,559.3c-1-.6-1.8-1-2.5-1.4-5.4-3-7-6.6-4.9-10.8,1.8-3.7,7.9-5.7,12.3-4.1,1.6.6,2.7,1.3,2.2,3.2-.4,1.8-1.6,1.9-3,1.8-.8,0-1.7-.2-2.5-.2-1.4,0-2.8.1-3.2,1.7-.4,1.6.8,2.5,2,3.2,1.4.9,3,1.5,4.4,2.4,2.9,1.7,4.3,4.2,3.9,7.5-.4,3.2-2,5.6-5.3,6.6-3.5,1.1-6.9,1.4-10.1-.7-1.4-.9-1.2-2.6-.3-4.1,2.9-.8,6.4,2,8.8-1.2,1.1-1.5-.2-2.8-1.7-3.9h0Z"/>
    <path class="cls-1" d="M297.6,558.7c.4.9.6,1.5,1.2,2.8,1.8-5.2,3.5-9.8,5-14.5,1-2.9,2.5-4.7,6.7-2.6-2.8,7.6-5.4,15.4-8.5,23-1.1,2.7-6.2,2.4-7.3-.4-3-7.5-5.6-15.1-8.4-22.8,4.1-1.8,6.2-.9,7.3,2.8,1.1,3.8,2.6,7.5,4,11.6h0Z"/>
    <path class="cls-1" d="M402.3,563.5c.7.5,1.1.8,1.6,1,1.6.6,4.6-.5,4.2,2.8-.4,2.8-3,2.8-5.1,2.7-4.4-.2-7-2.8-7.2-7.2-.2-3.3-.3-6.6-.5-9.9-.1-2.4-.3-4.7-3.6-4.9-1.1,0-1.7-1-1.6-2.1,0-1.1.4-2.1,1.6-2.2,2.9-.2,4.1-1.6,4.1-4.5,0-1.9,1.6-2.4,3.1-2.5,1.7-.1,2.5,1,2.4,2.5-.1,3.2,1.3,4.5,4.5,4.4,1.1,0,1.8.7,1.9,1.9,0,1.3-.5,2.5-1.9,2.5-5-.2-4.5,3.3-4.4,6.5.1,3-.5,6,.9,9.2h0Z"/>
    <path class="cls-1" d="M185,534.1c.6-2.6,2.2-2.8,4-2.3,1.7.5,1.5,2,1.6,3.3.8,9.8.5,19.6.4,29.5,0,1.9.2,4.3-2.8,4.4-3.2.2-3.2-2.2-3.3-4.4,0-10,0-20,0-30.5h0Z"/>
    <path class="cls-1" d="M347.5,554.5c0,3.9-.1,7.4-.2,10.9,0,2-.5,3.6-3.1,3.6-2.8,0-2.6-1.8-2.6-3.8,0-5.8-.1-11.6-.2-17.5,0-3.2,1.1-5.6,4.7-3.9,2.4,1.1,3.7-1,5.5-1.2,1.8-.1,3.9-.6,4.5,1.8.6,2.3-.7,3.2-2.9,3.5-3.6.4-4.9,3.1-5.8,6.5h0Z"/>
    <path class="cls-1" d="M254.4,617.9c0,2.5,0,4.4,0,6.4,0,1.8-1,2.7-2.8,2.7-1.6,0-2.6-.8-2.6-2.4,0-7,0-13.9,0-20.9,0-1.7,1.4-2.9,2.5-2.3,4,2.3,8.4-3.7,11.9.7.9,1,.7,3.3-1.3,3.6-7.4.9-7.5,6.3-7.6,12.2h0Z"/>
    <path class="cls-1" d="M84.1,546.1c.5-2.6,2.1-2.8,3.9-2.5,1.9.3,2.1,2,2.1,3.5,0,6.1,0,12.2,0,18.3,0,1.9-.5,3.7-3,3.6-2.9,0-3-2-3.1-4.1,0-6.1,0-12.2,0-18.8h0Z"/>
    <path class="cls-1" d="M380,551.8c.7-3.3-2-8.2,3.3-8.1,4.9,0,2.7,4.8,2.9,7.5.3,4.6,0,9.3,0,13.9,0,2.2-.5,4-3.3,3.9-2.5,0-2.9-1.8-2.9-3.8,0-4.3,0-8.6,0-13.4h0Z"/>
    <path class="cls-1" d="M94.2,614.8c0,3.5,0,6.4-.1,9.4,0,1.7-.8,2.8-2.7,2.9-2,0-3.2-.9-3.2-2.9,0-6.6,0-13.2,0-19.8,0-1.7.8-2.8,2.7-2.8,2.1,0,3.2.9,3.2,2.9,0,3.3,0,6.6,0,10.4h0Z"/>
    <path class="cls-1" d="M276.6,548.5c-.2-2.8-.7-5.4,3-5.2,3.4.2,2.7,2.8,2.7,4.8,0,5.6,0,11.2,0,16.9,0,2.1-.2,4.1-3.1,4-3.1,0-2.7-2.2-2.6-4.2,0-5.3,0-10.6,0-16.3h0Z"/>
    <path class="cls-1" d="M84.6,533.2c2.1-.8,4-1.3,5.2.6.7,1.2.7,2.6,0,3.8-.8,1.3-2.3,1.4-3.6,1.1-3.1-.8-2.4-3.1-1.6-5.5Z"/>
    <path class="cls-1" d="M282.4,535.7c-.3,3.2-2.2,3.5-4.3,3-1.5-.3-2-1.6-1.9-3.1,0-1.7.6-2.9,2.5-3.1,2-.2,3.7,0,3.8,3.1h0Z"/>
    <path class="cls-1" d="M384.8,538.5c-2.3.4-4.2.6-4.7-1.9-.3-1.3-.4-2.8,1-3.6,1.3-.8,3.1-.9,4.3,0,1.7,1.6,1.5,3.5-.5,5.4h0Z"/>
    <path class="cls-1" d="M94.3,594.5c-1.2,2.8-3.1,2.6-5,1.8-1.7-.8-1.4-2.4-1.2-3.9.3-2,1.9-1.9,3.4-1.9,2.5,0,2.9,1.6,2.8,4h0Z"/>
  </g>
  <g>
    <path class="cls-1" d="M304.4,0c13.7,0,26.8.1,40,0,4.1,0,5.4,1.4,5.4,5.5-.1,53.5.4,107-.3,160.5-.3,20.1-7.2,39.1-15.1,57.6-21,48.9-55.4,84-105.3,103.6-6,2.4-11.2,2.5-17.2.1-50.6-19.9-85.2-55.8-105.9-105.6-9.9-23.6-15.3-47.9-15-73.8.6-47,.2-94,.2-141,0-6.9,0-6.9,6.8-6.9h206.4M221.9,103.6c-38.8,0-77.6,0-116.5,0-4.5,0-6.8,2.3-6.8,7,0,12.3.4,24.7,0,37-1,23.9,4.2,46.6,13.1,68.6,19.4,48.3,52.3,83.2,100.8,103.2,5.7,2.4,10.6,2.3,16.1,0,38.6-16.3,69.1-41.7,89.1-78.9,15.9-29.5,26.3-60.3,24.7-94.4-.5-11.8,0-23.7-.1-35.5,0-6.9,0-6.9-6.9-6.9-37.5,0-75,0-113.5,0M118.7,59.9v24.6c3-.2,5.3-.3,7.6-.6,9.4-1.3,19.1-2,28.2.4,8,2.1,15.5,2.2,23.3-.2,3.8-1.2,7.9-1,11.9-1.1,7.6-.2,15.1.6,22.6,1.7.7-3.6,1-59.7.7-62.4-.2-2.4-1.9-3.1-3.7-3.3-13.4-1.4-26.9-3-40,1.9-1.9.7-3.9,1.1-5.9.4-13.1-4.8-26.4-4.2-39.9-2.6-3.8.4-5.1,1.9-5,5.7.2,11.5,0,23,0,35.4M263.8,46.1c8.5-1.4,15.4,1.4,20.6,8.2,1.4,1.8,2.6,3.8,4.9,1.1-3.6-9-12.9-14.3-23.8-13.7-9.8.6-19,8.1-21.7,17.9-2.8,10.2,1.3,21.2,10.2,27,8.1,5.3,17.9,5.7,24.1,1-2.5-2.1-2.5-2.4-5-1.6-12,3.6-23.1-5.1-25.4-14.9-2.6-10.8,3.6-21.1,16.2-24.9M303.3,27.1c-7.1-9.7-17.8-13.4-28.5-9.8-9.6,3.2-16.4,12.2-16.2,21.5,3.6,1,3.6-2,4.3-4,3.7-10.4,13-16.2,23.3-14.4,9.9,1.7,17.1,10.8,16.9,21.1-.3,10.5-7.3,17.8-18.4,19.4-1.7.2-3.7.2-3.6,2.5.2,2.5,2.4,1.8,3.9,1.8,1,0,2-.2,2.9-.5,17-4.2,24.1-20.9,15.4-37.5M284.9,82.5c-7.8-6.8-9.8-15.1-6.2-24.8.7-1.9,1.9-3.8-1.2-4.7-6.8,7.2-5.4,18.4-1.5,25.1,4.9,8.6,15.9,14.2,24.8,12.4,11.4-2.2,19.8-10.5,21.2-21,1.3-9.6-3.3-19.4-10.9-23.2-.9,1.9-.6,3.6.8,5.2,7.4,8.2,8.1,19.6,1.7,27.3-7.3,8.8-18,10.3-28.8,3.6M265.2,58c1.2,1,2.2,2.5,4.2,2.4,1.8-2.6,0-4.4-1.7-5.8-2-1.5-2.7-6.7-5.9-4-2.5,2.2,1.7,4.5,3.4,7.3M287.5,71.9c-.2,2.4-3.8,5.1.4,7.6,2.7-3.6,4.4-7.3,3.9-11.7-3-.4-3.8,1.3-4.3,4.1M298.1,44.9c1.7-2.1.6-3-1.5-3.2-3.5-.2-6.8.5-9.9,3.2,3.8,3.9,7.3.1,11.4,0h0Z"/>
    <path class="cls-1" d="M184.6,117c6.1-3.5,13.1-2.9,17.7-.5,5.4,2.9,12.5,2.4,16.8,8.2-4.2,4.1-.6,7.5,1.8,10,4.1,4.3,3,7.1-1.4,9.7.2,2.9,3.3,2.8,4.3,4.8-.6,3.1-3.9,3.4-5.6,5.3-.3,2.8,1.6,3.7,3.9,4.3,10.3,2.5,20.7,3.2,31.2,2.9,12.1-.2,24.1-1.3,36.4,0,9.3,1,19-.3,27.8-4.3,2.7-1.2,5.2-2.8,4.5-6.3-.8-3.7-3.7-4.3-6.9-4.4-5.8-.1-11.1,1.8-16.5,3.4-15.4,4.8-31,7.4-47.2,5.6-3.8-.4-7.6-1.3-11-3.1-5.4-2.8-8.5-8.5-8-14.4.6-6.5,4.4-11.4,10.5-13.1,6.3-1.8,12.8-2.1,19.3-1.3,5,.6,9.7.6,14.3-2.5,4.7-3.1,10.2-3.9,15.9-2.6,5.7,1.3,11.4,2.5,17.1.6,2.4,6.2,11.1,2.9,13.5,10.2-7.6-1.6-13.4,4-21.2,3.1,1.4,2.4,1.3,3.9-1.6,4.4-9.5,1.7-18.9,2.1-27.6-3.1-1.3-.8-2.7-1.3-4.2-1.3-6.2,0-12.3-.1-18.5,0-4,.1-7.3,1.6-7.7,6.2-.3,4.6,3.1,6,6.6,6.8,8.8,2.2,17.5.7,26.3-.1,8.9-.9,17.1-4,25.6-6.6,7.4-2.3,14.8-3.9,22.5-1,5.3,2,8.6,5.6,9.4,11.2.8,6.2-.8,11.6-6.2,15.3-7.5,5.3-16.2,6.9-25,7.9-4.1.4-4.9,1.7-4.1,5.7,1.5,7.9,1.5,15.9,1.1,23.9-.5,10,4.9,15.7,13.2,19.5,1.6.7,3.5,1.2,4.1,3.3-1,1.6-3,1.5-4.3,2.4-1,.8-3,2.1-2.8,2.6,2,5.5-3,5.8-5.5,7.7-2.4,1.7-4.3,3.6-5.3,6.4-.7,1.9-1.9,3.6-2.3,5.5-2.6,12.6-11.9,16.4-23.1,18.3-4,.7-7.4-1.1-11.4-1.6,0-2.3.1-5-3.6-3.6-1.4-1.8,2.6-6.3-4.6-4.4,4.9-5.7,9-8.8,14.9-9,10.6-.3,10.1-.6,14.5-10.3,3.9-8.6,3.5-15.3-4.3-21.3-3.1-2.4-5.4-5.7-8.3-9-2.3,3.7-3.5,6.7-2.4,10.8,1.2,4.1,6.1,3.8,7.9,7.6-1.9.9-3.5,1.6-5.1,2.4-1,.6-2.6,1.8-2.5,2.2,2.2,5.6-3,6.1-5.7,8-3.5,2.5-5.4,6-6.8,9.7-1.9,4.8-5.2,7.5-10.2,8.5-1.5.3-3,.6-4.3,1.2-5.8,2.4-11.6,1.9-17.8-.6-.5-.5.6-1.7.4-2.8-.9-1.4-2.7.3-3.7-1.4.3-1,.6-2.2.9-3.3-1.1-1.2-2.5.4-3.7-1.4,1.5-4.4,6-5.3,9.6-7.1,1.3-.6,2.9-.6,4.4-.8,3.4-.4,7.8,1.4,10-1.6,3.5-4.8,5.4-10.6,7.2-16.3.1-.4.1-1.1-.1-1.5-4.4-5.8-8.4-11.9-13.5-17.1-.2-.2-.9,0-1.4,0-1.8,1.5.6,3.7-1.6,5.6-4.1.2-9.1.2-12.8,3.9-.6,1.6,1.6,2.5,1.1,4.6-3,2.1-7.8,1.9-10.4,5.6-.7,1.8,1.9,2.2,1.5,4.3,0,0-.2.6-.6.8-12.9,6-21,16-25.3,29.3-.4,1.2-1.3,2.3-2.3,3.2-4.8,4.5-23.8,7.1-29.4,4.1-.7-.4-1.1-.9-.9-1.5.9-3.6-2.2-2.8-4.2-3.6,1.2-2.5.7-4.4-3.2-4.8,4.3-4.5,8.4-7.1,13.9-7.3,8-.2,13-4.3,15.2-12.1.6-2.4,1.1-4.9,2-7.2,2.6-7.3,2.9-14.1-3-20.3-2.2-2.3-2.2-5.8-3.4-9-1.5,1.1-2.8,2-4.4,3.1-2.3-4.2-5.4-3.2-9-2.3-5,1.2-10.1,1.9-13.6,6.3-.8.9-2.1,1.7-3.8,1.2-1.2-3.7,1.8-7.8-1.1-12.2-.7-.8-2.7,1.1-4.7-1.1,0-2.8.1-6.4,0-10.1-.3-7.4-3.7-13.8-7.8-19.7-3.4-5-5.5-11-10.9-14.7-1.8-1.2-2.8-3.6-2.5-5.7.3-2.3-.9-3.7-1.9-5.3,2.6-2.2,3.3-5,2.6-7.9,1.3-1.3,3.4-.2,3.9-1.6,1.1-1.9-1.2-3.1-.2-4.6,5.4,0,11.2,3.6,12.7,8.2,1.6,4.6,3,9.2,4.3,13.8,1.4,5.2,5.1,8.3,9.3,11,1.6-1.2,1.9-2.5,1.9-4.2-1.7-1.9-4.9-2.2-5.7-5.1.4-2.2,3.4-2.1,3.8-4.3-3.4-4.4-2.4-9.6,3.2-15.6-2.6-5.9-1.8-8.1,4.8-9.1,5-.8,8.5-4.8,13.9-4.9,6.2-.2,12-.8,16.6,4.4,1.3-1,2.4-1.8,3.7-2.8M286.8,259.3c3.7-5.4,5.3-11.8,8.3-17.6,3.3-6.5,6.6-13,10-19.9-5.8-3.3-9.6-8.1-9.9-14.8-.6-12.1.5-24.3-3-35.9,2.8-1.9,5.5-1.8,8.1-2.1,8.1-1,16.2-2.3,23.2-6.9,4.7-3.1,6.5-7.5,5.3-12.9-1.1-5.2-4.6-7.6-9.8-8.6-7.9-1.5-15.2,1-22.4,3.5-12.9,4.6-26.1,6.5-39.7,6.4-4.5,0-9-.6-13.1-2.7-4.8-2.4-6.4-6.6-4.9-11.7,1.6-5.5,5.9-6.9,10.8-7.1,6.9-.1,13.8,0,20.7,0v-1.3c-8.5,0-17.1-1.2-25.6.5-5.7,1.2-8.9,5.5-9.1,11.1-.2,4.8,3.2,9.4,8.5,11,3.8,1.2,7.8,1.7,11.8,1.9,14.6.6,28.9-1.4,42.8-6.1,5.9-1.9,11.8-3.6,18.1-3.1,4.3.3,7.3,2.4,8.3,6.7,1,4.2-.5,7.5-4.1,9.8-2.4,1.5-5,2.7-7.8,3.2-9.3,1.8-18.5,3.6-28.2,2.1-7.6-1.2-15.4-.8-23,0-13.4,1.5-26.6.1-39.7-2.3-2-.4-4.1-1.2-4.8,1.7-2,7.7-8.4,13.6-8.2,21.8-2.9,1.1-4.7-1.1-7.1-.7.3,6.7-.4,13.2-5.2,18.2-2.4-.1-2.7-3.4-5.3-2.8-.2,3.6-1,7.1-3.4,9.8-5.7,6.3-8,14-9.6,22-.9,4.1-2.1,8.1-3.5,12-2.8,7.9-3,7.8-11.5,8.1-2.9.1-6.3-1.2-8.8,1.5.6,4.8,5.5,6.2,6.5,10.3,5.4-.4,10.2-2,15-3.2,3.1-.8,4.9-2.5,5.8-5.5,1.3-4.3,3.6-8.2,5.9-12.1,5.7-9.2,11.2-18.5,16.8-27.8,1.2-2,2.2-4,1.2-6.6-1.2-3.3.6-4.7,3.7-5.5,11.4-3.1,22.7-6.5,34.1-9.9,3.3-1,6.8-1.4,9.5-3.4.3-2.1-2.1-4,0-5.4,2.2-1.4,3.6.8,5.1,2,2.4,1.9,4.2,4.3,5.8,6.9,4.5,7.4,9.8,14.3,15.7,20.6,11.2,12,10.8,11.9,4.9,27.3-3,7.9-7,12.5-16,10.8-1-.2-2,0-3,.1-1.1.1-1.9.7-2.1,1.8-.5,2.4,6.5,9.8,8.9,9.2,4.5-1.1,9.1-1.8,13.9-4.5M201.4,147.3c-.7-3.8-2.4-7.4.5-11.4,1.6-2.2-1.2-4.1-3.9-4.1-2.3,0-4.7.2-6.8-1.1-3.9-2.2-7.6-3.3-10.9,1.3-2.9-4.2-6.1-3.8-9.7-1.7-2.2,1.2-4.6,1.5-7.2,1.5-4.6,0-6.1,2.5-3.7,6.4,1.1,1.8,2.3,3.3.7,5.4-1.8,2.4-.8,4.1.9,6.1,3.4,4,7.5,7.6,6.8,13.8-.3,2.5,2.1,3.6,4.5,3.7,2.2.1,4.5.2,5.5-2.3,1-2.4-.6-3.7-2.2-5-.9-.7-2.1-1.2-1.8-2.6.5-.9,1.4-.8,2.2-.9,5.3-.4,7.9-3.2,7.9-8.4,0-7.3,1.7-8.4,10.9-5.8-5.4,2.2-8.7,5.3-7.1,10.8,1.1,3.7.4,6.4-3.5,7.9-1.8.7-3.2,2.3-1.9,4.4,1.3,2.1,3.7,2,5.9,1.9,2-.1,4-1,3.9-3.1-.2-7.2,5-11.3,9.2-16.7M228.2,252.3c2.5.4,3.4,2.6,4.5,4.7,3.3-.8,6.4-1.8,9.4-2.3,5.1-.8,7.9-3.6,10.3-8.2,3.7-7,6.6-14.6,11.4-21,1-1.3,1.4-2.6.5-4.1-2.2-3.9-1.8-8.1.3-11.5,3-4.8,1-7.4-2.6-10.2-4.7-3.7-12.4-1.8-14.2,3.7-2.4,1-5.3-.9-7.8,1.3,2.1,4.8,5.4,8.7,8.9,12.4,3,3.1,3.3,6.3,1.7,10-1.7,4-3.7,7.9-5.1,11.9-1.4,4.1-3.7,5.9-8.3,6.1-3.8.2-8.3-1.6-11.7,1.9.1,2.1,3.1,2.5,2.4,5.3M143.6,164.8c-12.8-6.9-15.6-19.9-18.8-31.9-6.3-1.8-3.2,7.4-8.7,5.4.2,2.3,3.8,3.5,1.7,5.5-3.5,3.2-.8,4.9,1.3,6.7,2.1,1.8,3.4,3.9,4.8,6.2,7.7,13,15.5,26,23.3,39,1.6,2.6,3.3,3.6,6.5,2.7,7-2.1,7.8-3.5,5.6-12.9-2.1-.6-4.1,1.6-6.7.3-.2-7.7-5.3-13.7-9-21M179.1,175.1c3.6-.1,7.4.2,9-4.4-4.9-1.9-9-2-13.3-.9-.8.2-1.6.5-1.9,1.3-.3,1.1.2,2.1,1.1,2.5,1.3.6,2.8.9,5,1.4h0Z"/>
    <path class="cls-1" d="M167.1,26.9c.2-2.8,1.9-3.3,3.7-4,12-4.2,24.2-3.7,36.5-1.7,2.4.4,3.3,1.9,3.3,4.2,0,14.5,0,29,0,43.5,0,2.8-1.2,4.1-4,3.7-12.5-1.7-24.9-1.4-37.2,1.7-.4.1-1-.2-2.4-.4,0-15.4,0-31,0-47M196.5,38.7c-7.5-1.3-14.7-1.3-21.2,3.7,8.6-2.1,17.4-1.2,26.5-.3-1.1-3.3-2.8-3.2-5.3-3.4M178.8,52.7c7.3-3.2,15.1-.6,23.4-.9-5.4-5.7-22.3-4.9-26.8.4.6,1.2,1.7.7,3.3.5M200.6,31.8c2-2.5-.3-2.9-1.8-2.9-5.2-.2-10.4-2-15.7-.4-2.8.9-6.1.5-7.6,4.5,8.1-2.6,16.2-2.2,25.1-1.2M176.6,63c8-2.8,16.4-1.7,25.6-1-1.1-1.6-1.3-2.3-1.6-2.4-8-2.3-16-2.6-23.9.6-1.1.5-2.2,1.2,0,2.7h0Z"/>
    <path class="cls-1" d="M121.3,34.4c.4-14.1-2.6-12.7,13.3-14.3,8.7-.9,17.3,0,25.7,2.3,2.4.6,4.5,1.4,4.5,4.4,0,15,0,29.9-.1,44.9,0,.8-.4,1.5-.8,2.7-4.8-.9-9.5-2.2-14.2-2.5-7.4-.6-15-.9-22.4.4-4.3.8-6.1-.4-6-5,.2-10.8,0-21.6,0-32.9M156.9,42.5c.6-1.3-.4-1.8-1.3-2.2-7.7-3.2-15.5-2.7-23.4-1-.8.2-1.4.9-.6,2.9,8.1-1.6,16.5-1,25.3.3M131.4,61.5c.8.8,1.9.8,2.8.6,6.9-1.5,13.8-1.2,20.6,1,.9.3,2,.2,2.6-1.7-5.2-2.9-11-4.2-16.8-3.1-3.1.6-7.2-1.2-9.1,3.3M151.3,28.8c-6.9-1.5-13.7-1.1-20.3,2.3,8.8-.3,17.5-.4,26.7,2.4-1.3-4-4-3.5-6.4-4.7M144.7,51.1c4.2-.6,8.2,3,13.2,1.1-7.5-5.4-23.1-5.7-26.8-.8,4.4,1.8,8.5-1.1,13.6-.3Z"/>
    <path class="cls-1" d="M172.9,140.4c4,.7,2.9,3,2.4,5.4-3.2-.4-5.4-1.9-7.6-3.7,1.2-2.4,3.2-1.5,5.2-1.7h0Z"/>
  </g>
</svg>