<?xml version="1.0" encoding="UTF-8"?>
<svg id="Layer_1" data-name="Layer 1" xmlns="http://www.w3.org/2000/svg" viewBox="0 0 1132.09 1000">
  <defs>
    <style>
      .cls-1 {
        fill-rule: evenodd;
      }

      .cls-1, .cls-2 {
        fill: #fff;
        stroke-width: 0px;
      }
    </style>
  </defs>
  <g id="Layer">
    <path id="Layer-2" data-name="Layer" class="cls-1" d="M631.25,188.42c-16.52-.37-27.91,4.91-35.42,14.44-9.23,11.61-8.48,52.98-8.26,71.44l4.91,478.11c-9.67.3-19.42.45-29.24.45s-19.42-.22-29.1-.52l4.84-478.03c.22-18.45.89-59.83-8.19-71.44-7.52-9.52-18.98-14.81-35.5-14.44-171.75,3.65-356.74,38.17-464.86,64.37,13.54-26.64,31.33-52.16,53.5-76.05,49.71-53.65,119.88-98.37,203-129.18C370.65,16.45,466.13,0,563.24,0s192.58,16.45,276.3,47.55c83.05,30.81,153.29,75.46,203,129.18,22.1,23.89,39.96,49.41,53.43,75.98-108.12-26.12-293.04-60.72-464.71-64.29h0ZM1126.4,376.46c0,165.05-159.84,305.54-381.44,356.22-6.47-26.34-44.43-181.87-74.93-362.54-.89-5.43-1.64-10.19-2.23-13.99-9.08-62.06-7.89-94.51,83.05-89.45,104.25,5.73,210,12.35,368.2,48.15,4.84,20.24,7.37,40.78,7.37,61.61ZM457.27,365.59c-30.81,183.95-69.65,342.6-75.83,367.38-32.67-7.29-64.44-16.45-94.51-27.61-83.12-30.81-153.29-75.53-203-129.26C29.02,516.8,0,447.75,0,376.46c0-20.84,2.53-41.37,7.37-61.54,158.35-35.87,264.09-42.49,368.42-48.22,90.86-5.06,92.05,27.38,82.9,89.45-.3,2.68-.82,5.95-1.41,9.45h0Z"/>
  </g>
  <g id="_3d85c6ff" data-name="#3d85c6ff">
    <path class="cls-2" d="M1035.96,853.14h13.26c9.61.58,18.91,3.31,27.84,6.81-2.21,6.97-4.36,13.93-6.41,20.93-14.06-5.43-31.09-10.65-45.06-2.27-8.93,4.97-10.31,18.38-2.06,24.71,14.33,11.26,34.38,12.77,47.57,25.9,11.45,10.01,13.96,27.04,9.55,41.04-4.3,13.04-15.96,22.59-28.85,26.46-20.75,6.14-43.31,3.28-62.92-5.28,1.99-7.43,3.99-14.85,5.98-22.28,14.67,7.03,31.92,12.09,48,6.91,8.72-2.64,15.19-12.22,12.61-21.33-2.21-8.35-10.16-13.14-17.62-16.27-13.23-5.52-27.78-9.97-37.6-21.09-12.74-13.63-11.29-37.08,1.87-49.94,8.81-9.15,21.48-13.04,33.82-14.3Z"/>
    <path class="cls-2" d="M5.69,854.92c46.47-.09,92.94,0,139.4-.03-.12,14.15-.12,28.33,0,42.48-13.44-.03-26.89-.03-40.33.06.4,33.55,0,67.12.25,100.7-19.49,0-38.95.03-58.41-.03.31-33.58-.03-67.15.18-100.73-13.69-.03-27.41,0-41.1-.03v-42.42Z"/>
    <path class="cls-2" d="M184.59,855.01c20.23-.31,40.45-.03,60.68-.12,19,47.7,37.2,95.7,56.38,143.33-18.97-.15-37.9-.06-56.87-.09-10.28-28.05-19.06-56.66-30.02-84.46-8.99,28.3-19.24,56.2-28.57,84.37-18.81.21-37.6.03-56.41.12,18.63-47.57,36.68-95.39,54.82-143.15Z"/>
    <path class="cls-2" d="M287.69,854.95c46.53-.15,93.09,0,139.62-.09-.12,14.18-.12,28.36,0,42.51-13.5.03-26.98-.15-40.48.15.71,33.52.09,67.06.37,100.61-19.49,0-38.98.06-58.47-.03.43-33.58,0-67.15.25-100.73-13.75-.03-27.5.03-41.28-.06.06-14.12.06-28.24,0-42.36Z"/>
    <path class="cls-2" d="M466.93,854.92c20.16-.06,40.33-.03,60.49-.03,19.03,47.7,37.2,95.73,56.41,143.33-18.97-.15-37.9-.06-56.87-.09-10.37-27.99-19.06-56.66-30.02-84.43-9.12,28.27-19.18,56.2-28.64,84.34-18.78.21-37.57.03-56.35.12,18.72-47.57,36.55-95.51,54.97-143.24Z"/>
    <path class="cls-2" d="M654.7,997.97c-.06-47.6.18-95.18-.12-142.78,28.02,0,56.01-.09,84.04.06-.15,7.06-.12,14.15.12,21.24-19.24.49-38.52,0-57.76.31.49,12.06.55,24.19-.09,36.25,18.2.49,36.4-.06,54.57.37-.18,6.94-.18,13.87.03,20.84-18.14.46-36.31-.03-54.48.31.55,13.87.12,27.75.4,41.62,20.13-.03,40.24-.09,60.37.03-.06,7.24-.09,14.46-.06,21.7-29,.03-58.01-.06-87.01.06Z"/>
    <path class="cls-2" d="M764.21,855.25c8.9-.12,17.8-.12,26.7,0-.49,40.11-.06,80.23-.25,120.31,19.58.06,39.16,0,58.74.03.03,7.46,0,14.89.06,22.31h-85.11c0-47.54.34-95.11-.15-142.66Z"/>
    <path class="cls-2" d="M859.57,855.13c10.13.06,20.29.09,30.42-.03,9.76,17.46,19.34,35.11,27.53,53.4,8.53-18.08,17.59-35.91,27.19-53.4,10.19.09,20.41.09,30.6.06-14.61,22.9-28.08,46.5-42.51,69.49,15.01,24.31,29.19,49.11,44.23,73.38-10.34-.12-20.66-.09-31-.18-9.76-18.57-20.78-36.43-29.62-55.46-8.93,18.6-18.57,36.86-27.68,55.37-10.31.21-20.63.15-30.94.28,14.76-23.88,28.33-48.46,43.18-72.28-13.9-23.48-27.22-47.33-41.4-70.62Z"/>
    <path class="cls-2" d="M1105.94,997.97c-.06-47.6.12-95.21-.09-142.78,8.75-.03,17.49-.03,26.24,0v142.72c-8.72,0-17.43.03-26.15.06Z"/>
  </g>
</svg>