<?xml version="1.0" encoding="UTF-8"?>
<svg id="Layer_1" data-name="Layer 1" xmlns="http://www.w3.org/2000/svg" version="1.1" viewBox="0 0 243.5 234.9">
  <defs>
    <style>
      .cls-1 {
        fill: #fff;
        stroke-width: 0px;
      }
    </style>
  </defs>
  <path class="cls-1" d="M34.9,192.8H0v7.7h12.9v32.9h9.1v-32.9h12.9v-7.7M69,219.6c-1.4,3.6-4.6,6.2-8.4,6.9-.7.1-1.4.2-2.1.2-.7,0-1.4,0-2.1-.2-3.8-.7-7-3.3-8.4-6.9-.8-2.1-1.2-4.3-1.2-6.5,0-2.2.4-4.4,1.2-6.5,1.4-3.6,4.6-6.2,8.4-6.9,1.4-.3,2.8-.3,4.3,0,3.8.7,7,3.3,8.4,6.9,1.6,4.2,1.6,8.9,0,13.1M58.5,191.6c-11.9,0-21.5,9.6-21.5,21.5s9.6,21.5,21.5,21.5,21.5-9.6,21.5-21.5-9.6-21.5-21.5-21.5h0ZM80.2,192.8h10.8l10.1,17.5,10.1-17.5h10.8l-16.2,25.6v15h-9.1v-15l-16.3-25.6M143.5,226.7c.7,0,1.4,0,2.1-.2,3.8-.7,7-3.3,8.4-6.9,1.6-4.2,1.6-8.8,0-13-1.4-3.6-4.6-6.2-8.4-6.9-1.4-.3-2.8-.3-4.3,0-3.8.7-7,3.3-8.4,6.9-.8,2.1-1.2,4.3-1.2,6.5,0,2.3.4,4.5,1.2,6.5,1.4,3.6,4.6,6.2,8.4,6.9.7.1,1.4.2,2.1.2M122,213.1c0-11.9,9.6-21.5,21.5-21.5,11.9,0,21.5,9.6,21.5,21.5h0c0,11.9-9.7,21.5-21.5,21.5-11.9,0-21.5-9.6-21.5-21.5ZM227.4,217.3l-6-16.1-6,16h12M230,224.4h-17.3l-3.3,8.9h-10.2l16.5-40.6h11.4l16.5,40.6h-10.1l-3.4-8.9ZM201.9,192.8h-34.9v7.7h12.9v32.9h9.1v-32.9h12.9v-7.7M175.9,7.7C158.3,2.4,140.1-.2,121.8,0c-18.3-.2-36.6,2.4-54.1,7.7C27.6,20.6,0,47.4,0,78.2s54.4,78.8,121.8,78.8,121.8-35.3,121.8-78.8S216,20.6,175.9,7.7h0ZM121.8,123.2c-10.1,0-18.3-19.7-18.7-44.6,6,.6,12.2.8,18.7.8s12.7-.3,18.7-.8c-.5,24.8-8.7,44.5-18.7,44.5h0ZM104.3,59.3c2.6-17.5,9.4-29.7,17.5-29.7s14.6,12.2,17.5,29.7c-11.6,1-23.3,1.1-34.9,0ZM149.9,57.9c-4.1-27.2-15.1-46.9-28.2-46.9s-24.1,19.5-28.2,46.9c-24.7-3.9-42-12.6-42-22.8s31.5-25,70.2-25,70.2,11.2,70.2,25-17.3,19-42,22.8h0ZM17.8,75.4c0-13.4,5.2-25.8,14.2-36.7-.2.8-.2,1.6-.2,2.2,0,16.9,25.2,31,60.2,36.4v3.8c0,31.1,8.7,57.6,20.6,66.7-53.2-3.1-94.9-34.3-94.9-72.4h0ZM130.9,147.9c11.9-9.1,20.6-35.6,20.6-66.7v-3.8c35.1-5.2,60.2-19.5,60.2-36.3s0-1.6-.2-2.2c8.9,10.1,14,23.1,14.2,36.7,0,37.9-41.7,69.1-94.9,72.4h0Z"/>
</svg>