<?xml version="1.0" encoding="UTF-8"?>
<svg id="Layer_1" data-name="Layer 1" xmlns="http://www.w3.org/2000/svg" viewBox="0 0 374.37 762.35">
  <defs>
    <style>
      .cls-1 {
        fill: #fff;
      }

      .cls-1, .cls-2 {
        fill-rule: evenodd;
        stroke-width: 0px;
      }

      .cls-2 {
        fill: #000;
      }
    </style>
  </defs>
  <g>
    <path class="cls-1" d="M83.51.88c-1.77.29-3.53.59-5.45.59-2.06,0-4.27-.29-6.33-.59.88,8.98,1.03,22.53,1.03,41.68,0,21.21-.74,46.84-26.51,46.84-24.01,0-28.72-14.58-28.72-40.5,0-17.97.29-35.2,1.77-48.01-2.8.29-5.74.59-8.54.59C7.81,1.47,2.95,1.18,0,.88c.44,6.19,2.06,18.12,2.06,32.84v26.36c0,25.92,14.73,37.26,39.91,37.26s39.33-13.99,39.47-41.83c.15-21.65,1.03-44.33,2.06-54.64h0Z"/>
    <path class="cls-1" d="M171.88,1.77c-1.77.44-3.53.74-5.3.74s-3.53-.29-5.3-.74c1.03,13.55,1.03,45.22,1.03,68.19C143.9,50.81,119.15,23.86,98.39,1.03c-1.18,0-2.65.15-3.68.15s-2.65-.15-3.54-.15c.29,6.19.59,16.94.59,31.67,0,22.83-1.91,57.74-2.95,62.89,1.91-.44,3.83-.74,5.74-.74,1.77,0,3.68.3,5.6.74-.59-5.16-1.18-23.42-1.18-40.06,0-12.22.15-22.09.44-29.75,22.09,23.42,44.33,47.43,64.07,70.7.88-.29,2.21-.29,3.09-.29,1.03,0,2.36,0,3.39.29-.15-12.81-.3-35.05,0-49.63.15-11.64,1.03-31.81,1.91-45.07h0Z"/>
    <path class="cls-1" d="M245.97,64.81c0-29.46-51.84-20.32-51.84-43.01,0-8.4,7.51-15.02,18.26-15.02s16.2,5.89,18.85,12.22c0,0,1.62-4.27,2.95-6.33,1.77-2.65,2.21-2.8,5.01-5.01-6.19-4.27-15.02-7.66-25.63-7.66-19.88,0-34.91,9.57-34.91,26.51,0,31.37,50.08,20.91,50.08,43.74,0,9.28-9.28,19.15-22.39,19.15s-20.62-7.07-22.98-14.29c0,0-1.33,4.27-3.24,6.92-2.5,3.39-3.53,3.83-5.74,5.74,5.74,4.27,18.12,10.01,29.9,10.01,24.89,0,41.53-9.72,41.68-32.99h0Z"/>
    <path class="cls-1" d="M371.75,1.77c-1.91.44-3.53.74-5.3.74-1.62,0-3.39-.29-5.01-.74-2.36,11.34-16.05,57.15-21.36,74.67h-.29c-4.57-16.05-19.74-61.27-22.83-74.67-1.77.44-3.53.74-5.3.74-1.91,0-3.68-.29-5.45-.74-3.39,13.4-17.53,55.67-23.71,74.67h-.15c-7.81-26.81-13.99-49.19-19.88-74.67-2.95.44-5.74.74-8.54.74-2.95,0-7.36-.29-10.46-.74,2.21,5.01,10.31,27.25,12.37,34.46,7.22,23.12,12.67,44.63,16.5,59.36,1.77-.3,3.83-.74,5.6-.74,2.06,0,3.83.44,5.74.74,6.63-22.39,18.71-56.85,23.71-72.32h.29c8.39,24.6,15.76,48.46,22.39,72.32,1.92-.3,3.83-.74,5.74-.74,1.77,0,3.68.44,5.45.74,6.48-22.24,26.22-82.19,30.49-93.82h0Z"/>
  </g>
  <g>
    <path class="cls-2" d="M0,150.61v432.25c0,21.25,13.92,26.38,25.64,30.77l161.91,57.88,160.44-57.88c13.19-4.4,26.38-10.26,26.38-30.77V150.61H0Z"/>
    <path class="cls-1" d="M9.52,647.33s9.52-6.59,17.58-2.2l160.45,57.15,153.85-54.95c16.12-7.33,25.64-.73,25.64,0v52.02c-5.86-2.2-13.92-3.66-25.64-.73l-153.85,54.21-154.58-54.95c-10.99-4.4-17.58-.73-23.45,1.46v-52.02h0Z"/>
    <path class="cls-2" d="M361.18,682.5c-5.86,3.66-13.92,5.86-19.05,8.06l-.73-.73c.73-1.47.73-4.4,0-7.33-1.46-4.4-3.66-10.99-5.86-14.65,0-1.47-2.2-2.2-4.4-2.93,0-1.46.73-1.46.73-1.46,4.4-2.2,10.99-4.4,15.39-5.86,2.2-1.46,2.93-2.2,5.13-1.46.73,2.2,2.93,4.4,2.93,5.86-2.2,2.93-2.93-.73-5.13-.73-3.66-.73-7.33,0-9.52,2.2-.73,0,0,1.46,0,2.2.73,1.46,1.47,3.66,2.2,5.13,2.93-.73,5.13-.73,7.33-3.66,0-.73.73,0,.73,0,2.2,0,1.47,1.47,2.2,2.2,0,.73,2.2,2.2,1.47,2.93-2.2,0-4.4-2.2-6.59-.73-1.47,0-2.93.73-3.66,2.93.73,3.66,1.47,6.59,2.93,8.79,3.66,2.2,10.26-.73,11.72-4.4.73-1.47,0-2.93,2.2-4.4.73-2.2,1.47,1.47,1.47,2.2,0,1.47.73,5.13-1.47,5.86h0Z"/>
    <path class="cls-2" d="M328.22,695.69c-1.47,0-3.66.73-5.13.73v-2.93c1.46-4.4-3.66-14.65-6.59-22.71-1.46,0-3.66,1.46-5.13,5.13-1.47.73,0,2.2-2.2,3.66-2.2,0-.73-2.2-2.2-3.66,0-1.47-.73-3.66-.73-4.4s16.85-4.4,21.98-6.59c2.2-1.46,2.93,1.47,3.66,2.2,0,1.47,2.2,2.93,0,3.66-1.46,0-1.46-1.47-2.2-2.2-2.93-.73-5.13,0-6.59,0-2.2,0-1.47,1.46-1.47,1.46,2.2,7.33,5.13,13.19,8.06,19.78.73,1.46,2.2,1.46,3.66,2.2-1.47,1.47-2.93,1.47-5.13,3.66h0Z"/>
    <path class="cls-2" d="M306.97,701.55c-6.59-5.13-13.19-10.99-21.24-16.12,2.93,5.86,4.39,12.45,8.06,17.58.73,2.93,2.2.73,1.46,3.66-.73.73-2.2,0-2.93.73-2.2,0-3.66,2.2-3.66,0,1.46-7.33-2.93-11.72-4.4-17.58-1.47-2.2-2.2-4.4-2.93-7.33-2.2.73-3.66,5.13-4.4,7.33-1.47.73-2.2-.73-2.93-.73-.73-1.46-2.2-2.93-5.13-1.46-1.47,0-4.4.73-5.86,1.46.73,2.2,1.47,4.4,2.2,8.79h1.47c2.2-.73,5.86-1.47,5.86-4.4q.73-.73,1.47-.73c0,2.93.73,4.4,1.46,5.86-.73,0-1.46-.73-2.2,0-2.2,0-5.13.73-6.59,1.47.73,2.93,1.46,7.33,4.4,9.52.73,1.46,2.93,1.46,3.66.73,5.13-1.47,6.59-4.4,7.33-10.26,0,0,.73-.73.73,0,2.2,2.2,2.2,5.86,2.93,7.33,0,.73,0,2.2-.73,2.2-5.86,1.46-10.26,2.93-16.85,5.86-.73,0-1.46,1.47-3.66,1.47h-.73c0-1.47.73-1.47.73-1.47.73-5.86-.73-9.52-2.93-16.85-.73-1.46-1.47-8.06-4.4-8.06-2.2,0-2.2.73-2.2.73v1.47c-.73-.73-2.2-.73-2.93,0v.73c0,3.66.73,5.86,1.46,8.79,1.47,5.13,3.66,10.26,8.06,15.38.73,0,0,0,0,.73-2.93.73-6.59.73-8.06,2.2-1.46-1.47-.73-2.93-.73-3.66,0-4.4-.73-6.59-.73-8.79-1.47-4.4-2.2-6.59-3.66-10.26-.73,1.46-1.46,3.66-1.46,5.13,0,5.86-1.47,10.26-1.47,16.12,0,.73-.73.73-.73,1.47-.73,0-1.47-.73-1.47-1.47-3.66-3.66-10.26-11.72-15.38-16.12-.73,0,0,2.93,0,3.66,3.66,4.4,4.4,10.99,6.59,14.65,1.46,1.47,2.2,2.2,2.93,2.2,0,.73.73.73,0,2.93-1.47,0-2.93,0-4.4,1.47-.73,0-2.2,2.2-2.93,1.47,1.47-5.86,0-10.26-2.2-13.92-.73-4.4-2.2-7.33-4.4-12.45-1.46.73-1.46,3.66-2.2,5.13,0,.73-.73,1.47-.73,1.47-.73-1.47,0-2.93,0-5.86.73-1.46,1.47-4.4,2.93-5.13,2.93-.73,7.33-.73,8.79.73,3.66,4.4,7.33,9.52,10.99,12.45l.73-.73c0-3.66.73-10.99.73-13.92.73-3.66,2.2-5.13,3.66-6.59h4.4c.73,0,1.47-1.47,2.2-1.47,7.33-1.46,12.45-5.86,19.05-7.33v.73c.73.73,0,3.66,1.46,3.66,1.47-.73,1.47-3.66,2.93-5.13,2.93-1.47,6.59-2.2,10.26-.73,5.13,2.2,13.92,11.72,16.85,12.45-.73-3.66-2.2-7.33-4.4-11.72-.73-1.47-1.47-3.66-5.13-3.66q-.73-.73-.73-1.46c4.4-1.47,7.33-1.47,9.52-4.4.73.73-.73,4.4-.73,5.86.73,4.4,2.2,10.26,4.4,14.65.73,1.47,2.93,5.86,2.93,7.33,1.47.73-2.93,2.93-4.4,2.2h0Z"/>
    <path class="cls-2" d="M210.26,711.07c-.73,0-2.93-3.66-6.59-2.2-1.46.73-4.4.73-4.4,2.2,1.47,6.59,2.93,8.06,4.4,12.45,1.47,4.4,4.4,9.52,6.59,10.26v.73c-1.47,2.93-4.4,2.93-7.33,3.66-.73,0-2.2.73-3.66.73-.73-1.46.73-1.46.73-4.39,0-2.2,0-3.66-1.47-10.99-1.46-2.93-3.66-10.26-4.4-11.72-2.93.73-5.13,1.47-6.59,5.13-.73.73-2.2,2.2-2.2,3.66h-1.47c0-2.93-1.46-7.33-3.66-8.79-.73-.73-3.66-1.46-5.86-2.2-4.39-.73-3.66,2.2-4.39,3.66,0,3.66-2.2,5.13,0,5.86,2.2.73,6.59,2.2,8.79,1.47.73,0,0,1.47,0,1.47-.73,1.46-.73,2.2-1.46,4.39-.73,0-2.2-2.93-2.93-3.66-2.93-.73-4.39-1.47-5.86-2.2-1.47,2.93-3.66,8.79-2.2,11.72,0,.73,3.66,2.2,5.13,2.2,5.13.73,8.06,0,10.26-2.2,0,0,.73-.73,2.2,0v.73c-2.2,2.2-2.93,6.59-5.13,7.33-7.33-2.2-15.38-6.59-21.98-8.06v-1.47c2.93.73,6.59-10.26,7.33-11.72.73-5.86,2.2-7.33,2.93-10.26,0-1.46-2.2-2.2-2.2-2.93,2.93-2.2,4.4.73,6.59,1.47,3.66.73,7.33,1.46,9.52,2.2,2.93.73,4.4,1.46,8.06.73,6.59-1.47,13.19-3.66,20.52-7.33.73,3.66,2.2,7.33,2.2,7.33l-1.47.73h0Z"/>
    <path class="cls-2" d="M150.92,701.55c-1.47,0-2.2,1.47-2.93,4.4-1.47,2.2-2.93,3.66-3.66,6.59-2.2,5.13-3.66,8.06-6.59,9.52-1.46.73-2.2.73-3.66.73-5.86-.73-13.92-2.93-13.92-7.33-2.2-4.4,1.47-7.33,2.2-11.72,2.2-3.66,4.4-6.59,2.93-11.72,0-.73-.73-.73-.73-1.46h2.2c1.47,1.46,3.66,1.46,7.33,2.2.73,0,2.2.73,1.47,2.93-.73.73-5.13,1.47-5.86,2.93-2.2,4.4-2.93,10.26-4.4,13.92-.73,4.4.73,5.86,2.2,7.33,1.47.73,4.4.73,7.33.73,4.4-.73,5.86-10.26,8.06-13.19,1.46-4.4,2.2-7.33,0-8.79v-.73c3.66,0,6.59,1.46,8.79,1.46q0,.73-.73,2.2h0Z"/>
    <path class="cls-2" d="M120.15,690.56c-3.66,2.2-5.13,7.33-6.59,12.45-2.2,3.66-3.66,6.59-4.4,8.79q-.73.73-1.47,1.47s-1.46,0-1.46-.73c-1.47,0-1.47-.73-2.2-.73,0-1.46-2.2-5.86-2.2-12.45-.73-2.2-2.2-6.59-2.2-9.52-.73-.73-.73-2.2-1.47-2.2-1.46,2.93-2.2,5.13-2.93,10.26-1.46,2.2-2.2,5.86-1.46,8.79,0,.73.73,1.47.73,2.2-1.47.73-3.66,0-5.13-.73-1.47-.73-2.2-.73-3.66-1.47q0-.73.73-2.93c2.2-.73,4.39-5.13,6.59-7.33.73-4.4,1.47-5.86,2.93-8.79.73-1.47.73-4.4,0-4.4-1.46-.73-2.93,0-5.13,2.2h-1.46c0-2.93,1.46-2.93,3.66-3.66,2.2-.73,3.66-1.46,5.13-1.46,1.47.73,3.66.73,5.13,2.2,2.93,7.33,3.66,13.92,4.4,20.51,0,.73,0,2.93.73,3.66.73-4.39,2.93-8.06,3.66-10.99,1.47-3.66,2.2-6.59,0-8.06v-1.47c3.66,1.47,5.86,2.2,10.26,2.93,0,1.47-.73.73-2.2,1.47h0Z"/>
    <path class="cls-2" d="M82.79,705.94c-3.66-2.2-8.06-3.66-10.26-4.4,0,0-1.47,0-.73-1.46.73-.73.73,0,1.46,0,2.93-1.47,1.47-4.4,1.47-8.06-2.2-1.46-6.59-2.2-8.79-2.93-2.2,2.2-3.66,6.59-2.93,8.79-.73,1.46-1.47.73-2.2,0-2.93,0-3.66-.73-5.13-1.47-.73,0-1.47,0-1.47-.73.73-2.2,1.47,0,2.93-2.93,5.86-3.66,10.26-10.99,15.38-16.12.73,0-2.93-.73-4.4,0-1.46,0-1.46.73-2.2,0,2.2-4.4,6.59-5.86,10.26-5.13,4.4,2.93,4.4,7.33,5.86,10.26v17.58c0,2.2.73,2.93,1.46,3.66,0,.73-.73,2.93-.73,2.93h0ZM74.73,689.09c-1.47,0-5.13-.73-7.33-1.46,2.2-5.13,5.13-6.59,6.59-8.79.73.73.73,9.52.73,10.26h0Z"/>
    <path class="cls-2" d="M61.54,670.78c-.73-.73-3.66-.73-4.39-.73-1.47,1.47-2.2,6.59-2.93,8.79-1.46,3.66-3.66,8.79-5.13,11.72,0,1.46,2.93,2.2,1.47,2.93-1.47,2.2-1.47,0-2.2,0-2.2-.73-4.4-1.47-5.86-2.2,0,0-.73-.73,0-.73.73-.73,2.93-2.2,3.66-5.13,2.2-4.4,4.4-8.06,5.86-13.92h-1.47c-5.86,5.86-10.26,9.52-16.12,16.12h-1.46c0-5.13,0-7.33-.73-13.19,0-2.2,0-8.06-.73-8.79-1.46,2.93-4.4,5.86-5.13,10.99-.73,2.2-2.2,5.13-.73,8.79v.73c-3.66-.73-5.86-3.66-9.52-4.4v-.73c4.4-.73,5.86-4.4,8.06-9.52,2.2-2.93,4.4-5.86,5.86-10.99,0-1.47-2.93-1.47-2.93-1.47-2.2-.73-2.93,1.47-5.13,1.47-.73,0,0-1.47,0-1.47,2.2-2.93,4.4-3.66,8.06-2.93,2.2,1.46,5.13,2.93,5.13,5.13,2.2,5.86.73,10.99,2.2,18.31,6.59-5.13,10.99-10.26,16.85-12.45,2.93-.73,3.66,0,6.59.73.73,0,1.47.73.73,2.2v.73h0Z"/>
    <path class="cls-2" d="M9.52,647.33s9.52-6.59,17.58-2.93l160.45,57.88,153.85-54.95c16.12-7.33,25.64-.73,25.64,0v52.02c-5.86-2.2-13.92-3.66-25.64-.73l-153.85,54.21-154.58-54.95c-10.99-4.4-17.58-.73-23.45,1.46v-52.02h0ZM0,640.74c0-.73,15.39-8.79,32.97-2.2l154.58,54.21,153.85-54.21c17.58-6.59,32.97,2.2,32.97,2.2v72.53c-2.93-2.93-16.85-10.99-32.97-5.13l-153.85,54.21-154.58-54.95c-13.92-5.86-28.57,2.93-32.97,5.86v-72.53h0Z"/>
    <polygon class="cls-1" points="10.99 301.54 104.03 301.54 104.03 366.74 10.99 366.74 10.99 301.54 10.99 301.54"/>
    <polygon class="cls-1" points="271.8 301.54 365.58 301.54 365.58 366.74 271.8 366.74 271.8 301.54 271.8 301.54"/>
    <polygon class="cls-1" points="10.99 160.87 365.58 160.87 365.58 295.67 10.99 295.67 10.99 160.87 10.99 160.87"/>
    <path class="cls-1" d="M10.99,535.24h93.04v98.9l-78.39-30.04c-6.59-2.93-14.65-9.52-14.65-21.25v-47.62h0Z"/>
    <path class="cls-1" d="M365.58,535.24h-93.78v98.9l76.19-30.04c9.52-2.93,17.58-9.52,17.58-21.25v-47.62h0Z"/>
    <polygon class="cls-1" points="10.99 375.53 109.16 375.53 109.16 301.54 264.48 301.54 264.48 375.53 365.58 375.53 365.58 530.11 264.48 530.11 264.48 635.61 187.55 661.99 109.16 635.61 109.16 530.11 10.99 530.11 10.99 375.53 10.99 375.53"/>
    <path class="cls-2" d="M59.34,426.08l15.38-6.59-6.59,16.12,16.85,5.86-16.85,7.33,6.59,15.38-15.38-5.86-5.86,14.65-7.33-14.65-14.65,5.86,5.86-15.38-15.39-7.33,15.39-5.86-5.86-16.12,14.65,6.59,7.33-16.12,5.86,16.12h0ZM57.15,430.48l13.92-6.59-7.33,13.19,13.92,4.4-13.92,5.86,7.33,12.45-13.92-7.33-3.66,14.65-5.13-14.65-13.19,7.33,7.33-12.45-13.92-5.86,13.92-4.4-7.33-13.19,13.19,6.59,5.13-13.19,3.66,13.19h0Z"/>
    <path class="cls-2" d="M326.75,426.08l15.39-6.59-6.59,16.12,16.85,5.86-16.85,7.33,6.59,15.38-15.39-5.86-6.59,14.65-5.13-14.65-16.12,5.86,5.86-15.38-15.38-7.33,15.38-5.86-5.13-16.12,15.39,6.59,5.13-16.12,6.59,16.12h0ZM324.55,430.48l12.45-6.59-5.86,13.19,14.65,4.4-14.65,5.86,5.86,12.45-12.45-7.33-3.66,14.65-5.13-14.65-12.45,7.33,6.59-12.45-14.65-5.86,14.65-4.4-6.59-13.19,12.45,6.59,5.13-13.19,3.66,13.19h0Z"/>
    <path class="cls-2" d="M192.68,324.98l16.85-5.13-6.59,15.38,16.85,5.13-16.85,6.59,6.59,16.12-15.39-7.33-6.59,16.85-6.59-16.85-16.12,7.33,6.59-16.12-14.65-5.86,14.65-5.86-5.13-15.38,14.65,5.13,6.59-15.38,5.13,15.38h0ZM191.95,330.11l13.19-6.59-6.59,12.45,13.19,4.4-13.19,5.13,6.59,11.72-13.19-5.86-4.39,14.65-5.13-14.65-13.19,5.86,8.06-11.72-13.92-4.4,13.92-5.13-7.33-12.45,12.45,6.59,5.13-14.65,4.39,14.65h0Z"/>
    <path class="cls-2" d="M192.68,552.09l16.85-6.59-6.59,16.12,16.85,5.86-16.85,5.86,6.59,15.38-15.39-5.13-6.59,15.39-6.59-15.39-16.12,6.59,6.59-16.85-14.65-5.86,14.65-5.86-5.13-16.12,14.65,6.59,6.59-14.65,5.13,14.65h0ZM191.95,556.49l13.19-5.86-6.59,11.72,13.19,5.13-13.19,5.13,6.59,12.45-13.19-5.86-4.39,14.65-5.13-14.65-13.19,5.86,8.06-12.45-13.92-5.13,13.92-5.13-7.33-11.72,12.45,5.86,5.13-13.92,4.39,13.92h0Z"/>
    <path class="cls-2" d="M263.01,232.67c-2.2-1.47-5.13,0-8.79,0v-1.47c.73-.73,2.93-1.46.73-2.93,0-2.2-.73-2.93-1.47-3.66-1.46-.73-2.93-.73-5.86,0-.73,0-.73.73-.73,1.47,0,2.2,0,3.66.73,5.13,0,0,.73,1.47,0,1.47h-7.33c-3.66,0-8.06,0-8.06-1.47,2.2-1.46,2.2-5.13,2.2-8.79,0-4.4,0-8.79-1.47-9.52q-.73,0-.73-.73h8.79c-.73.73-1.46.73-1.46,1.47-2.2,1.47-1.47,4.4-2.2,8.79,0,2.93,0,7.33,2.2,8.79h.73c4.4-2.2,6.59-11.72,8.06-16.12,0-1.47-2.93-.73-2.93-.73-.73,0-1.46.73-2.2.73,0-.73.73-1.47,1.47-1.47.73-.73,2.2-1.47,3.66-1.47,2.2,0,3.66,0,5.13,1.47,1.47,1.47,1.47,4.4,4.4,6.59,2.2,4.39,2.93,8.79,5.86,10.99,0,1.47-.73,1.47-.73,1.47h0ZM248.36,222.41c0-2.93,1.47-4.4,2.2-6.59.73,0,2.2,4.4,2.2,6.59h-4.4Z"/>
    <path class="cls-2" d="M230.78,218.02c-.73,0-.73-1.47-2.93-1.47,0-1.46-.73-2.93-2.2-2.93-1.46-.73-2.2-.73-2.93,0,0,5.13-1.47,15.38,1.47,17.58,0,2.2-.73,1.47-1.47,1.47h-5.86c-1.47-1.47,0-1.47,0-2.2,3.66-4.4,2.93-11.72,2.93-16.85-.73-.73-2.2,0-2.2,0-4.4,0-5.13,2.2-5.86,4.4,0,0-.73.73-.73,0v-5.86h19.78v5.86h0Z"/>
    <path class="cls-2" d="M208.8,212.89q-.73.73-.73,1.46c-2.2,4.4-.73,10.26-.73,14.65v2.2q-1.47,1.47-2.2,1.47c-5.13-5.86-8.06-10.26-12.45-16.12h-.73c0,3.66,0,8.79.73,12.45,0,1.47,2.2,1.47,2.93,3.66-2.93,0-4.4-1.47-5.86,0q-.73,0-2.2-1.47c4.39-1.46,2.93-11.72,2.93-16.12,0-.73-.73-.73-1.47-.73-2.2.73-3.66,2.2-3.66,4.4h-.73c-.73-.73-.73-2.93-2.93-3.66,0-.73-.73-.73-1.46-1.47h-5.86v5.86c.73,0,2.93.73,3.66,0,.73-.73.73-1.46,2.2-1.46v6.59c-.73,0-.73-.73-1.47-.73-.73-.73-1.46-1.46-2.2-1.46-1.46,0-2.2-2.2-2.2,0v6.59c0,2.2,4.4,1.47,5.13,1.47,1.47,0,2.2-.73,2.93-1.47,1.46-.73,1.46-2.93,2.2-3.66h.73v5.13c0,.73-.73.73-1.47.73-2.93,1.47-5.13,0-8.79,0-2.93,0-5.13,1.47-7.33,1.47v-1.47c2.93-1.46,2.2-14.65,1.46-16.85-.73-.73-1.46-1.46-1.46-2.2h14.65c1.46,0,2.2.73,2.2,1.47.73,0,0,.73.73.73,0,0,1.46-.73,2.2-1.46,2.2-.73,3.66-.73,4.39-.73,6.59,1.47,8.06,10.99,11.72,13.19h1.47c0-2.2,0-6.59-1.47-9.52,0-1.47-1.46-2.2-2.93-3.66h8.79c0,.73-.73.73-.73.73h0Z"/>
    <path class="cls-2" d="M164.11,213.62c-2.93,1.47-2.2,5.13-2.2,8.79,0,2.93-.73,6.59,2.2,8.79.73,0,0,0,0,1.47-2.2,0-5.86-1.47-7.33,0l-.73-1.47c.73-.73,1.46-1.46,2.2-2.2v-13.19c0-.73,0-2.2-.73-2.2s-1.46-.73-1.46-.73q0-.73.73-.73h8.06c0,.73-.73.73-.73,1.47h0Z"/>
    <path class="cls-2" d="M148.72,231.2c-4.4,1.47-10.26,1.47-13.19-1.46-3.66-2.93-5.13-6.59-3.66-10.99,2.2-3.66,3.66-5.13,5.86-5.86,2.2-.73,6.59-2.2,10.26-.73.73,0,1.46.73,2.2.73,0-.73.73-.73,1.47-.73h1.47c0,2.2,0,3.66-1.47,5.86,0,.73,1.47,1.46,0,1.46-.73,0-.73-1.46-1.47-2.93-1.46-2.2-2.2-2.93-5.86-3.66-3.66,0-5.86.73-6.59,2.93-1.46,3.66-1.46,9.52.73,12.45,1.46,1.47,4.4,2.2,8.06,1.47,2.2,0,3.66-1.47,4.4-3.66,0-.73.73-.73.73-.73,0,.73,2.2.73,1.47,1.46,0,2.2-2.93,3.66-4.4,4.4h0Z"/>
    <path class="cls-2" d="M129.67,218.75h0c-.73-2.93-2.2-5.13-3.66-5.86-.73,0-2.2,0-3.66.73-.73,1.47-.73,2.93,0,4.4,2.93,2.2,8.06,5.13,7.33,10.26,0,1.47-1.46,2.93-3.66,4.4-2.2.73-5.86-1.47-8.79-2.93h-.73c-.73,1.46-1.47,2.93-2.93,3.66,0-3.66.73-6.59,1.46-8.79.73,0,.73.73.73.73.73,2.93,2.93,5.13,6.59,5.13,3.66.73,4.4-2.2,3.66-5.13-1.47-1.47-7.33-2.2-8.06-6.59-.73-2.2-.73-3.66,0-5.13,2.2-3.66,8.06-2.93,9.52-.73,1.47,0,1.47-2.2,2.93-.73,0,0,0,5.86-.73,6.59h0Z"/>
    <path class="cls-2" d="M90.85,175.52h84.25c7.33,0,9.52,2.93,12.45,5.86,2.2-2.93,4.39-5.86,12.45-5.86h84.25v16.12l10.99-7.33v28.57l-10.99-8.06v44.69l10.99-8.06v28.57l-10.99-7.33v15.38H90.85v-12.45l-16.12-9.52v-2.93l16.12-8.79v-35.9l-16.12-8.06v-2.93l16.12-8.06v-13.92h0ZM268.87,267.1v-88.65h-68.87c-8.06,0-10.26,3.66-12.45,5.86-3.66-2.2-5.13-5.86-12.45-5.86h-70.33v88.65c52.02,0,52.02-5.86,70.33-5.86,5.13,0,8.79,2.2,12.45,5.86,3.66-3.66,6.59-5.86,12.45-5.86,19.78,0,25.64,5.86,68.87,5.86h0ZM94.51,178.45h3.66v91.58h1.47v-91.58h3.66v91.58c46.89,0,53.48-6.59,71.8-6.59,5.13,0,8.79,3.66,12.45,7.33,3.66-3.66,6.59-7.33,12.45-7.33,19.78,0,25.64,6.59,72.53,6.59v-91.58h1.47v91.58h2.93v-91.58h4.4v19.05l12.45-8.06v17.58l-12.45-6.59v52.75l12.45-6.59v16.85l-12.45-7.33v16.85H94.51v-9.52l-16.85-8.79,16.85-8.06v-41.76l-16.85-5.86,16.85-7.33v-13.19h0Z"/>
    <path class="cls-2" d="M88.65,499.34c5.86-6.59-2.93-8.79-5.86-8.06,1.47-4.4,5.86-8.06,11.72-5.13,2.2-2.93,5.13-2.93,6.59,2.2,2.2,3.66,6.59,3.66,10.26,4.39,6.59-.73,12.45-5.86,10.99-12.45-.73-2.2,1.47-7.33,3.66-8.79,0-.73-8.79,0-10.26-7.33-4.39,2.93-13.92,4.4-16.85,0,2.2-1.47,8.79-2.93,7.33-5.13-2.93-.73-4.4,0-6.59.73,0-3.66,5.13-7.33,4.4-8.06-.73-.73-4.4.73-5.86.73,1.47-1.47,2.93-3.66,2.93-5.13-1.47-4.4-3.66-3.66-6.59-3.66,0-2.93,5.13-5.86,3.66-7.33-.73-2.2-2.2,0-3.66-.73,0-1.46.73-1.46.73-1.46,1.47-.73,2.2-2.93,2.2-3.66,0-1.46-2.2-1.46-3.66-1.46,2.2-5.13,4.39-5.86,10.26-8.79.73-.73,0-2.2-.73-2.2-3.66,0-5.86-1.47-6.59-3.66,0-2.2-.73-2.2-.73-4.4,1.47,0,2.93,1.46,3.66,0,2.2-.73,2.2-1.47,0-2.2-.73,0-2.93.73-3.66,0-1.46-.73-.73-2.2-2.2-2.2-6.59-2.2-6.59-9.52-4.4-12.45,0,0,5.86,8.06,6.59,2.93,0-4.4-2.93-7.33-8.06-7.33,5.86-5.86,10.99-2.2,13.92-.73,1.46.73,2.2.73,2.93.73,0-1.46,2.2-1.46,1.47-2.2-1.47-4.4-2.93-4.4-6.59-4.4,4.4-4.39,13.92-2.93,15.38,2.93,1.47,2.2,5.13,1.46,5.13,4.39,0,3.66-2.93,1.47-2.93,16.12,0,6.59,6.59,16.85,7.33,16.12.73-2.2,1.47-2.93,2.2-4.4q-.73-.73-1.47-.73c.73-6.59,2.2-8.79,3.66-12.45-.73-.73-1.47,0-2.2,0,.73-2.93,2.93-6.59,5.13-8.06,2.2-.73-3.66-1.46-4.4-2.93.73-.73,6.59-4.4,6.59-5.13-2.2-1.47-3.66-1.47-5.13-2.93,1.46-2.2,7.33-2.93,8.06-6.59,0-.73-1.46-1.47-2.2-2.2.73,0,2.2.73,4.4,0,5.13-.73,8.79.73,9.52.73,0-.73-.73-2.93-.73-5.86,2.93,1.47,5.13,1.47,5.86-2.93.73,0,2.2,1.46,2.93,1.46,4.4.73,8.06,4.4,10.99,8.06,3.66-2.2,9.52-2.2,13.19-2.2h3.66c-3.66,2.93,5.13,3.66,8.06,2.2,4.4,4.39,4.4,8.79,0,13.19,2.2,1.47,5.13,5.13,5.86,5.13,4.4-7.33,14.65-8.79,13.19-13.92-.73-3.66-3.66-3.66-8.06-4.39,1.47-2.2,5.86-2.2,9.52-2.2v-7.33c9.52,2.2,13.19,10.99,18.32,13.19,4.39,0,9.52-2.93,13.19-5.86v.73c0,8.79,8.79,1.47,13.19,2.93.73,8.06-14.65,10.26-16.12,13.92-.73,3.66,2.2,4.4,2.2,6.59-.73,0-5.86,0-4.4,2.2,1.46,4.39,8.06,1.46,8.79,0,2.2-5.13-1.46-5.86-1.46-7.33.73,0,2.93,1.46,4.4,0,.73-1.47-.73-2.2-.73-2.93,2.93.73,6.59,2.93,10.99,1.47,1.46-.73,0-2.2.73-4.4,2.2.73,5.13,3.66,8.79,5.86,1.46-1.47,1.46-3.66.73-7.33,2.2-.73,5.13,8.06,8.06,8.79,2.2,0,2.93-1.46,4.4-2.93l.73,1.47c5.13,17.58,10.26.73,14.65,2.93v.73c-2.93,2.93-2.93,5.13-2.93,7.33,3.66,11.72-7.33,13.19-7.33,13.92.73,24.91-26.38,26.37-38.83,21.98,2.93,9.52,13.19,10.26,13.92,17.58,0,2.2.73,9.52,3.66,11.72,4.4,1.46,9.52-1.47,13.19-3.66,7.33,0,7.33,3.66,8.06,4.4,5.13.73,10.26-2.2,14.65-4.4,1.47,2.2-2.93,5.86-.73,5.86.73,0,1.46-.73,2.2,0,0,2.93-2.2,5.86-1.47,7.33.73.73,1.47.73,2.2.73,0,2.2-1.47,1.46-2.93,5.13,1.46.73,3.66,0,5.13,0-1.47,3.66-5.86,5.86-7.33,6.59,1.46.73,3.66.73,3.66.73,0,3.66-3.66,3.66-4.39,5.86,0,.73.73.73,2.2,1.47-2.2,1.46-8.06,2.93-7.33,3.66,1.47,2.2,3.66,2.2,5.13,3.66-5.13,3.66-8.06,4.39-13.19,4.39,0,1.47,0,4.4-2.93,5.86-1.47,1.46-4.4,2.93-5.86,2.2,1.46-3.66,0-8.79-3.66-8.79-.73,0-.73.73-.73,1.47,1.46,5.13-.73,10.99-7.33,8.79-3.66,3.66-12.45,3.66-16.12-.73v-1.47c2.93,0,4.4,0,9.52-2.2,0-.73,0-2.93-1.46-3.66-5.13,0-8.06,2.93-11.72,4.4v-.73c0-5.86,2.93-11.72,6.59-13.19.73-2.93,1.47-2.2,3.66-2.93-3.66-1.47-6.59-2.2-9.52-2.2-.73,0-2.2.73-2.2,0,4.4-8.06,8.06-8.79,14.65-7.33,1.47-.73,2.93-1.46,4.4-1.46,2.93,0,2.93,5.86,4.4,6.59,3.66,1.47,6.59-3.66,6.59-6.59,0-5.13-10.26-5.86-13.92-5.13-6.59.73-10.26,0-13.92-2.93-2.93-2.93-6.59-5.13-9.52-8.06-.73,0-.73.73-.73.73,0,2.93-1.47,5.13,0,8.06,2.93,2.2,6.59,3.66,7.33,6.59,0,1.47,0,3.66-1.47,4.4-2.2,2.93-5.86,4.4-5.86,6.59,0,3.66,0,5.13,3.66,9.52-3.66.73-7.33-.73-9.52-.73-.73,0-3.66,2.93-4.4,4.4-2.93.73-3.66-3.66-4.4-2.93-.73,0-2.2,2.93-2.2,3.66-.73,2.2-2.93-3.66-3.66-4.39-3.66.73-4.4,2.93-4.4,4.39-1.47-.73-2.2-2.2-2.93-2.93-1.47,1.47-5.86,2.93-8.79,2.2-.73,0,1.47-2.93,1.47-2.93,0-.73-1.47,0-1.47,0-1.47,1.46-9.52,1.46-9.52,0,1.47-.73,3.66-4.4,3.66-7.33,0-.73-2.2-.73-2.2,0-2.93.73-3.66,5.86-7.33,8.06-2.93.73-5.13,0-6.59-1.46-4.4,0-8.06,0-11.72,2.2v-.73c.73-7.33,2.93-8.79,7.33-10.26,0-.73.73-2.2-2.2-2.93-2.2-2.2-4.39-1.47-7.33,0-1.46-2.2,3.66-12.45,9.52-8.79.73,0,2.2-.73,2.2-1.46-2.2-3.66-5.86-3.66-8.06-2.93-.73-5.13,6.59-10.26,11.72-6.59,0-.73,1.46-1.47,2.2-1.47,2.93,0,5.13,2.93,7.33,3.66.73,1.46,4.39,2.2,5.86,4.39,2.93,3.66,4.4,4.4,9.52,4.4,2.93.73,5.13,0,7.33-.73,7.33-.73,7.33-8.06.73-8.79-3.66,0-8.06,2.2-13.19,0-7.33-1.46-8.79-2.93-8.79-10.99-5.86,2.2-20.51,5.86-22.71,6.59-1.47,2.93-3.66,2.93-6.59,3.66-2.2.73,2.93,5.13,2.93,5.86s-10.99,5.86-10.26,6.59c0,0,1.47,0,2.2.73,0,.73-5.13.73-5.13,1.47,0,2.2,1.47,2.2,2.2,2.93-2.2,2.2-5.13,1.47-8.79,2.93-2.2,1.47-4.39,1.47-6.59,2.2-.73.73.73,2.2,0,2.2-10.99,5.13-13.19-1.46-16.12-.73-2.2,0-3.66,2.2-4.4,2.93,0,5.13-2.93,13.19-8.79,13.19-.73-1.46,2.2-2.93,0-7.33h-.73c-2.2,0-1.47,8.06-6.59,5.86-2.2,0-2.2-.73-2.93,0-5.13,2.2-9.52,3.66-14.65-.73v-.73c10.99-3.66,12.45-13.92-2.2-10.26h-1.47c2.2-5.13,5.13-7.33,8.06-7.33h0Z"/>
    <path class="cls-1" d="M98.17,399.71c1.47-1.47,3.66,2.93,5.13,0,.73-5.13-4.39-3.66-4.39-5.13,0-2.93,4.39-5.13,7.33-5.13,1.46,1.47-2.2,5.13,2.93,5.13,5.86-3.66,0-5.13,0-5.86,0-1.46,6.59-1.46,7.33,0,.73,0,.73.73.73,2.2-1.47,1.47-2.2,3.66-2.93,5.13,0,8.06-2.93,18.32.73,24.18,1.47,2.2,2.93,2.2,3.66,2.93,3.66,2.2,8.79,13.19,8.06,13.92-.73,1.46-2.2,3.66-4.4,4.4,0,2.2,2.2,2.2,2.93,2.93,1.47,0-3.66,5.13-7.33,6.59,0,0-.73,0,0,0,2.2,1.47,5.86,1.47,8.06,2.93-1.47,4.39-2.2,4.39-4.4,6.59.73,1.47,7.33,0,8.06,0,.73,8.06-11.72,8.06-12.45,0h-.73c-6.59,4.4-10.26,3.66-10.26,2.2,5.86-2.93,5.13-3.66,8.79-10.99-1.46-1.47-6.59,4.4-8.79,3.66,1.46-1.46,2.2-3.66,2.93-5.86,2.2-3.66,5.13-5.86,5.13-5.86-2.2-.73-10.26,5.13-10.26,5.13,2.93-8.06,5.86-9.52,7.33-12.45,0-.73-1.47-.73-1.47-.73-5.13,5.13-8.79,5.86-12.45,5.86.73-3.66,12.45-5.13,12.45-11.72,0-.73-1.46,1.46-3.66,1.46-2.93,1.47-5.13,2.2-6.59,1.47,2.2-2.93,5.13-3.66,8.06-6.59v-.73c-3.66.73-8.06,2.2-10.26,2.2l.73-1.47c3.66-2.93,9.52-2.93,8.79-6.59.73-1.47,0-2.93-2.2-3.66-1.47.73-6.59,0-6.59-3.66,5.13.73,8.79-.73,6.59-4.4-.73-2.2-5.13-2.2-7.33-1.47-2.2-2.2,0-5.13.73-6.59h0Z"/>
    <path class="cls-1" d="M90.85,396.77s0,1.47,4.4,4.4c0,.73-.73,1.47-.73,2.2-1.47,0-5.86-5.86-3.66-6.59h0Z"/>
    <path class="cls-1" d="M94.51,387.98c.73-.73,4.4,0,5.13,1.46-.73,1.47-1.47,2.2-1.47,2.2-2.2-3.66-5.13-2.93-3.66-3.66h0Z"/>
    <path class="cls-1" d="M112.09,384.32c1.47.73,0,.73,0,.73-.73,0-2.93,1.46-3.66,0-.73-2.2-1.47-2.93-2.2-2.93,1.46-.73,3.66,0,5.86,2.2h0Z"/>
    <path class="cls-1" d="M88.65,501.54v1.47c-1.46,0-2.2,0-4.39.73.73-2.2,3.66-2.93,4.39-2.2h0Z"/>
    <path class="cls-1" d="M93.78,486.89c0,1.47-.73,2.2-2.93,3.66,0,0-2.2-1.47-5.13-.73,1.47-2.93,3.66-2.93,8.06-2.93h0Z"/>
    <path class="cls-1" d="M94.51,512.53c.73,0,2.2,4.4,1.46,4.4-.73,1.47-7.33,1.47-8.06.73,1.47-.73,5.13-3.66,6.59-5.13h0Z"/>
    <path class="cls-1" d="M93.78,498.61c1.46,0,1.46,2.2,3.66,1.46,1.47-.73,1.47-6.59,0-6.59-1.47-.73-2.93,2.93-3.66-.73,0-2.2,1.46-5.86,2.93-5.86,2.2,0,1.46,5.13,6.59,6.59,5.13,3.66,11.72,2.93,14.65.73,12.45-4.4,8.06-14.65,10.99-16.12,10.26-5.13,6.59-8.79,9.52-10.99.73,1.47.73,4.4,2.2,4.4,1.46-2.93,2.2-7.33,8.06-5.86.73,2.93,2.2,5.13,5.13,5.86v-7.33c3.66,4.4,9.52,4.4,9.52,1.46-1.47-.73-4.4-4.39-4.4-5.13,4.4,1.47,9.52,0,8.79-1.46-.73,0-.73-.73-.73-1.47.73-2.2,2.93-2.2,3.66-2.2,0-2.93-2.2-6.59.73-10.99,2.93,2.93,2.93,3.66,6.59,4.4v-.73c0-2.2-.73-5.13.73-7.33,19.05.73,27.11-5.13,43.23-9.52,2.2-.73,5.13-1.46,8.79-1.46,5.13-.73,9.52,5.86,10.99,8.79,2.93,5.13,6.59,10.26,10.99,12.45,2.2,1.47,5.86,6.59,8.06,8.79,1.47,4.4,1.47,9.52,4.4,12.45,8.79,6.59,16.12-3.66,19.78-1.46q.73.73.73,1.46,1.46.73,2.93.73c4.4,0,7.33-.73,12.45-2.93,1.46.73-5.86,8.06-12.45,8.79,1.46,1.46,10.99,0,13.92-1.47-2.2,3.66-8.06,7.33-13.92,5.86l.73,1.46c1.47,0,7.33.73,10.26.73,0,1.47-10.99,1.47-10.99,3.66,8.06-.73,10.26,1.47,13.92.73.73.73-3.66,2.93-6.59,3.66-2.2,0-6.59-.73-8.79-.73,2.2,3.66,8.06,3.66,13.19,3.66-4.4,3.66-8.06,3.66-13.19,2.93v.73c2.93,1.47,6.59,1.47,9.52,2.2-2.2.73-3.66,1.47-11.72.73.73,1.46,7.33,3.66,10.26,6.59-2.2,1.47-5.86,1.47-6.59,1.47-4.4,0-15.38-6.59-17.58,2.2,0,.73,1.46,3.66.73,5.13-.73,2.93-7.33,2.2-8.79,0-.73-1.47-1.46-4.4,0-5.13,5.13,1.46,3.66-5.13-.73-2.93-.73.73-1.47,2.2-3.66,1.46-3.66-.73-3.66-8.79,0-8.06,2.2,4.4,6.59.73,4.39-2.2-.73-1.47-4.39-.73-2.93-2.93,0-2.2,1.47-6.59,3.66-6.59,1.46.73,1.46,2.2,2.93,5.13.73,1.47,1.46,2.93,4.4,2.93,5.86,0,10.26-8.79,7.33-14.65-2.93-7.33-11.72-5.13-18.32-6.59-19.78-2.93-24.18-14.65-36.63-29.31-.73-.73-2.2,0-2.93,0-11.72,5.86-20.51,9.52-30.77,14.65h-.73c1.47-2.93,5.13-5.13,5.86-6.59.73-1.46,0-1.46,0-1.46-5.86,4.39-10.26,8.06-17.58,10.99q-.73,1.47-2.2,0c2.2-2.93,2.93-4.4,4.39-7.33-.73-.73-1.46,0-2.2.73-8.79,5.13-13.19,10.99-20.52,9.52.73.73,2.93,4.4,7.33,5.13-2.2,2.2-9.52,2.2-13.19-.73-.73,4.4,5.86,5.86,7.33,6.59-3.66,2.2-10.26,0-15.38-1.47-.73,0,0,.73,0,.73,3.66,4.4,11.72,5.86,15.38,5.13-6.59,3.66-11.72,4.4-19.05.73-.73,2.93,5.86,6.59,8.79,7.33,0,.73-9.52,0-13.92-3.66-2.2,2.2,5.13,7.33,5.86,8.79-2.93,2.2-12.45-2.2-11.72-2.2h-.73c.73,3.66,4.4,5.13,8.06,5.86-6.59,2.2-10.26-.73-11.72-2.2-2.2-.73-8.06,3.66-8.06,4.4-.73,2.2,0,3.66-.73,6.59,0,.73-1.46,3.66-2.93,3.66-.73-.73,0-3.66-2.2-4.39-5.86-3.66-3.66,2.93-8.06,4.39-2.93,2.93-6.59-2.93-6.59-3.66,0,0,.73-2.93,2.2-.73,2.2,0,2.2-2.2,2.2-2.2,0-3.66-.73-5.13-2.93-4.4-1.47.73-.73,2.93-2.2,2.2-3.66-2.93-3.66-6.59-.73-7.33h0Z"/>
    <path class="cls-1" d="M139.2,432.67c-.73,2.93,0,6.59-2.93,11.72-2.2,5.13-10.26,5.86-12.45,6.59,6.59-5.13,10.99-13.19,15.38-18.31h0Z"/>
    <path class="cls-1" d="M142.86,427.55c1.46-2.2,3.66-4.4,5.86-4.4,0,2.93,1.46,5.13.73,6.59-1.46,3.66-5.13,13.19-6.59,18.31,0,3.66-8.06,12.45-16.85,11.72,21.98-13.92,11.72-25.64,16.85-32.24h0Z"/>
    <path class="cls-1" d="M144.33,412.16c2.2,2.2,3.66,4.39,4.4,5.86v2.2c0,1.47-2.2,1.47-3.66,1.47-8.06,3.66-6.59,12.45-16.85,19.05h-.73c8.06-7.33,7.33-21.24,16.85-28.57h0Z"/>
    <path class="cls-1" d="M142.86,398.24q-.73,3.66-2.2,5.86c-5.13,2.2-3.66,8.06-11.72,8.79q-.73,1.47-1.47,1.47c1.47-8.79,9.52-13.19,15.39-16.12h0Z"/>
    <path class="cls-1" d="M140.67,407.03c1.46.73,2.2,2.2,2.2,2.93-5.86,5.86-5.86,12.45-13.92,10.26h-.73c9.52-7.33,8.79-11.72,12.45-13.19h0Z"/>
    <path class="cls-1" d="M142.13,393.11q.73,1.47,2.2,2.2c.73.73,0,.73,0,1.46-2.2,1.47-5.86.73-10.26,2.93,0,1.46-2.2,0-3.66,0,4.4-2.93,8.79-5.13,11.72-6.59h0Z"/>
    <path class="cls-1" d="M134.07,390.91c2.2-1.47,4.4-2.2,5.86-2.2,0,.73.73,2.2.73,2.93-2.2,0-4.4.73-6.59.73-3.66,0,0-.73,0-1.47h0Z"/>
    <path class="cls-1" d="M142.86,382.86c-.73,1.46-.73,2.2-2.2,3.66-2.2,0-3.66,0-5.13-2.2,4.39-5.13,8.79-1.46,7.33-1.46h0Z"/>
    <path class="cls-1" d="M150.92,382.86c-.73,0-1.47-1.47-5.86-.73,0,.73-.73,0-2.93-1.46,0-1.47-2.2,0-2.93-2.2,5.13-.73,9.52-.73,11.72,4.4h0Z"/>
    <path class="cls-1" d="M142.86,451.72c1.46,2.2,1.46,6.59,2.2,8.79-2.2.73-2.93.73-4.39,3.66-.73.73-2.2-5.13-.73-8.79.73-1.46,2.2-2.93,2.93-3.66h0Z"/>
    <path class="cls-1" d="M146.53,385.05c2.2-.73,3.66-.73,5.13,2.2,2.93,0,6.59.73,9.52,1.46.73.73.73,2.2,2.2,3.66-1.47,2.2-1.47,2.93-2.2,4.39-2.2-.73-9.52-8.06-9.52-8.06,0,.73-.73,3.66-3.66,3.66-3.66-.73-3.66-5.13-1.47-7.33h0Z"/>
    <path class="cls-1" d="M147.99,396.77c.73-.73,0-2.2,1.46-2.2.73-1.47,1.47-2.2,2.2-2.2,1.47,0,2.2.73,2.2,2.2s-2.93,2.93-2.2,5.13c0,1.46,1.47,1.46,1.47,1.46,1.46,0,3.66-2.93,3.66-3.66l.73-.73s.73,0,.73.73c.73.73,0,2.2-.73,3.66-.73,1.47-2.93,1.47-3.66,2.93-.73,0-2.2,0-2.2,1.47,0,.73,1.47,1.47,2.2,2.93.73,0,2.2-.73,2.93,0-.73,0-.73.73-.73,1.47-2.2,0-2.93,0-4.4-.73,0,0-.73-.73-.73-1.47s0-1.47-.73-2.2h-1.46q-.73.73-.73,1.47s0,.73.73,1.46c.73,0,.73.73,1.46,1.47.73,1.46,2.93,1.46,1.47,2.93-.73,0-.73,1.47-1.47,2.93,0,0,0-1.46-.73-2.93-.73-2.93-2.93-4.4-4.4-6.59,0-3.66,2.93-6.59,2.93-9.52h0Z"/>
    <path class="cls-1" d="M146.53,445.86c0-4.39,2.2-11.72,3.66-16.12,0,.73.73.73.73.73,2.2,0,2.93-.73,3.66-1.46,0,13.92-6.59,10.26-3.66,36.63-4.4-3.66-5.86-13.92-4.4-19.78h0Z"/>
    <path class="cls-1" d="M149.46,375.53c6.59,1.46,9.52,6.59,8.79,9.52-1.47-.73-2.2,0-4.4-.73-.73-2.93-3.66-5.86-4.4-8.79h0Z"/>
    <path class="cls-1" d="M153.85,412.89c0-.73.73,0,.73,0-.73,3.66-.73,5.86-.73,8.79v.73c2.2-2.93,3.66-10.26,3.66-8.06,2.2,5.13-3.66,13.19-5.86,13.19,0-1.47-1.47-9.52,2.2-14.65h0Z"/>
    <path class="cls-1" d="M156.78,427.55c.73,0,2.2-2.2,2.2-3.66,5.13,10.26-5.13,25.64,4.4,34.43-5.86,1.47-6.59-5.86-7.33-4.39,0,4.39,1.46,6.59,2.2,8.79-5.13-.73-6.59-6.59-5.13-15.38.73-8.06,4.39-11.72,3.66-19.78h0Z"/>
    <path class="cls-1" d="M159.71,398.24h1.47c.73,1.47-2.2,4.4,0,8.06.73.73,2.2,1.47,0,2.2,0,0,0,.73-1.47,0l-1.46-1.46c-.73-1.47-2.2,0-4.4,0v-1.47c3.66,0,5.13-3.66,5.86-7.33h0Z"/>
    <path class="cls-1" d="M156.78,372.6c4.4,2.93,7.33,5.13,9.52,8.79-1.47,1.47-2.2,3.66-2.2,5.86,0,.73-.73,0-2.93-.73-2.93-5.13-3.66-8.79-4.4-13.92h0Z"/>
    <path class="cls-1" d="M157.51,408.5c.73-.73,1.47,1.47,2.2,1.47,2.2,0,2.2-.73,4.4-.73v-1.47c-2.2-2.2-2.93-5.13-.73-8.06h1.46c1.47,1.46-.73,3.66,1.47,5.86.73,0,1.47.73,2.2.73,1.47-.73,0-3.66.73-4.39.73-2.2,2.2-3.66,5.13-3.66v2.93c.73.73,2.93,1.47.73,2.2-.73,2.2-2.93,5.13-3.66,6.59-.73,2.93-5.13,5.86-11.72,8.79,0-.73,0-2.2-.73-4.39,2.2,0,4.4,0,5.13-1.47.73,0,2.93,1.47,3.66-.73,0-2.2,0-2.93-1.47-2.93,0,.73-1.47.73-1.47.73-.73,2.93-6.59,2.2-7.33,0v-1.47h0Z"/>
    <path class="cls-1" d="M161.18,421.69c2.2-1.47,2.93-2.2,5.13-2.2,1.47,2.93,1.47,11.72,1.47,14.65,0,6.59-.73,9.52,0,17.58-3.66-2.2-4.4-3.66-5.86-8.06-.73-6.59,2.2-13.92-.73-19.78,0-.73-2.2-2.2,0-2.2h0Z"/>
    <path class="cls-1" d="M168.5,390.91c2.2,0,5.86,2.2,6.59,5.13q1.46,0,2.2-.73c1.46,0,2.93,0,3.66.73,0,.73.73,1.47,0,2.2-.73,2.93-2.93,4.4-4.4,1.47-1.46-1.47.73-2.2-1.46-2.93-3.66,0-8.79,1.47-11.72,0,0-1.46,2.93-5.13,5.13-5.86h0Z"/>
    <path class="cls-1" d="M176.56,376.99h3.66c0,.73-.73.73-.73.73-4.39,2.93-8.06,7.33-10.99,10.26h-2.2c.73-5.13,2.2-10.26,10.26-10.99h0Z"/>
    <path class="cls-1" d="M174.36,491.28c0,.73-2.2.73,0,2.93-2.2,2.2-2.2,0-2.93,0-1.46-.73-2.93-.73-4.4,0,.73-2.2,3.66-2.93,7.33-2.93h0Z"/>
    <path class="cls-1" d="M170.7,416.56c3.66,2.93,3.66,8.79,4.4,13.19,1.46,4.4,0,8.06-.73,13.19-5.86-5.13-4.39-12.45-5.13-17.58-.73-2.93-.73-5.13-2.2-6.59,0-.73,2.93-1.46,3.66-2.2h0Z"/>
    <path class="cls-1" d="M175.1,504.47c0,1.47,1.46,1.47,1.46,3.66h-1.46c-4.4,0-5.13,0-6.59,1.46,0-2.93,3.66-6.59,6.59-5.13h0Z"/>
    <path class="cls-1" d="M178.76,480.29c-.73,2.2-1.46,2.93-1.46,4.4h-.73c-1.46-1.46-4.4-2.2-5.86-2.2,1.46-2.2,6.59-3.66,8.06-2.2h0Z"/>
    <path class="cls-1" d="M181.69,380.66c3.66-1.47,8.06.73,10.26,0,0,0,.73,0,.73.73-1.47,1.47-3.66.73-7.33,1.47-5.86,1.46-6.59,3.66-10.99,8.06-2.2,0-2.2-1.47-2.93-2.2,2.93-5.86,5.86-6.59,10.26-8.06h0Z"/>
    <path class="cls-1" d="M174.36,414.36c0-1.47.73-4.4,2.2-2.93,2.2,4.4,3.66,8.79,3.66,14.65,1.46,6.59,4.39,9.52,3.66,9.52-2.2-1.46-4.4-2.2-5.13-4.4-1.46-2.2-1.46-7.33-6.59-15.38q0-1.46,2.2-1.46h0Z"/>
    <path class="cls-1" d="M175.1,390.91c7.33-8.06,10.26-5.86,17.58-8.06v1.46c0,2.2-1.47,4.4-2.93,4.4-4.4.73-7.33,0-10.26,3.66-.73,0-.73-.73-2.2,0l-2.2-1.47h0Z"/>
    <path class="cls-1" d="M180.23,489.82c.73.73.73,1.47,2.2,1.47,2.93,0,2.93-2.93,2.2-4.4-2.2-1.47-4.39,1.47-5.13-.73-.73-2.93,1.47-6.59,4.4-6.59s1.47,3.66,5.13,5.13c2.2.73,5.86.73,6.59,3.66,2.2,5.13,11.72,4.39,16.12,3.66,10.99-.73,16.12-7.33,9.52-13.19-4.39-2.93-11.72-.73-17.58-1.47-6.59-1.46-8.79-4.4-6.59-10.26,0-1.47,2.93-2.2,5.13-4.4,2.93-.73,5.86-2.2,5.86-1.46-2.2,2.93-2.93,5.86-4.4,8.79,0,.73,1.47,1.47,2.2,1.47,3.66-5.86,3.66-6.59,10.99-10.26,2.2,4.39,6.59,4.39,8.79,0,4.4,3.66,8.06,8.79,8.06,9.52-.73,3.66-2.2,7.32-1.46,11.72,0,2.93,2.2,3.66,5.13,4.4.73,1.47,2.93,2.2,2.93,3.66,0,.73.73,2.93-.73,2.93-2.2,2.93-8.06,8.06-2.2,14.65v1.46c-7.33-2.93-5.86-8.06-3.66-13.19,0-2.2-.73,0-.73,0-5.86,3.66-2.93,8.06-6.59,13.92-2.2-4.4-.73-9.52.73-11.72-3.66,1.46-5.86,7.33-6.59,11.72-2.93-3.66,0-10.99-.73-10.26,0,0,0-.73,0,0-4.4,2.93-7.33,6.59-8.79,10.99-1.46-1.47-1.46-6.59-.73-8.79h-.73c-1.47,1.47,0,8.79-6.59,10.26,0-.73.73-.73.73-1.46,1.47-1.47,1.47-5.13-.73-7.33-5.86-4.4-13.19-2.93-17.58,2.93-.73,1.47-2.93,2.93-4.4,2.93-2.2-1.46-3.66-7.33-1.47-8.79.73-.73,1.47.73,2.93,0,2.2-.73,2.2-6.59-1.47-4.4-1.47,0-2.93,2.93-3.66,0-.73-2.2,0-8.06,2.93-6.59h0Z"/>
    <path class="cls-1" d="M178.03,406.3c.73-.73.73,0,1.46.73,8.06,5.86,2.93,18.31,11.72,25.64,0,.73-5.86,0-6.59-2.2-4.39-7.33-2.2-12.45-7.32-21.24-.73-.73.73-2.93.73-2.93h0Z"/>
    <path class="cls-1" d="M182.43,402.64c2.93.73,6.59,2.93,7.33,4.4,2.2,8.79.73,12.45,4.39,24.17-5.13-.73-6.59-12.45-8.79-18.31-1.47-3.66-3.66-5.86-5.86-8.79,2.93-.73,2.93-1.46,2.93-1.46h0Z"/>
    <path class="cls-1" d="M192.68,394.58h0c-2.93.73-5.13,0-8.06.73-.73.73-.73-.73-2.2-.73-.73-1.47-2.2-2.2-1.47-2.2,4.4-1.47,8.06-2.93,11.72,2.2h0Z"/>
    <path class="cls-1" d="M184.62,396.04c2.2,0,5.13,0,5.86.73,2.2,1.47.73,6.59,4.4,12.46.73.73-2.93.73-3.66-2.2-.73-3.66-3.66-5.13-7.33-5.86.73-1.46.73-3.66.73-5.13h0Z"/>
    <path class="cls-1" d="M197.81,503.74c1.46,0,2.2.73,2.93.73,2.2,2.2-3.66,7.33-5.86,6.59,2.2-1.47,2.93-4.4,2.93-7.33h0Z"/>
    <path class="cls-1" d="M195.61,416.56q0-.73,1.47-.73c2.93,6.59,12.45,7.33,20.51,6.59,14.65-2.93,34.43-10.99,46.16-10.99,4.39,0,15.38,2.93,15.38,8.79,0,3.66-1.47,7.33-5.13,9.52-2.93,2.93-13.92,4.4-19.78,4.4-2.93,0-13.92-.73-16.85-5.13-1.47-.73-4.4-1.47-7.33-1.47-10.26,0-22.71,5.13-31.5,5.13-1.46,0-3.66-13.19-2.93-16.12h0Z"/>
    <path class="cls-1" d="M202.21,395.31c5.13-4.4,13.19-6.59,13.19-10.99,1.47-5.86-7.33-6.59-6.59-7.33,1.47-.73,8.79.73,10.26,3.66.73.73.73-4.4-1.46-8.06h1.46c5.13,4.39,5.13,10.26,3.66,15.38,0,.73.73.73.73.73,2.93-6.59,10.26-5.86,16.12-7.33h.73c-.73.73-2.2,2.93-2.93,2.93,0,.73.73.73.73.73,10.26,1.46,15.38-3.66,15.38-2.93,0,0-1.46,4.4-15.38,7.33-2.2,5.13,2.93,8.06,2.2,8.79-3.66,0-5.86-1.47-5.86-5.13,0,0-.73-.73-.73,0-3.66,4.4,2.93,12.45,7.33,13.92,0,0,.73,0,0,0,0,0-.73.73-1.46,0-16.12-1.47-12.45-14.65-27.11-12.45-2.2,0-9.52,3.66-10.26,9.52,0,4.4,1.46,8.79,6.59,10.26,10.99,2.93,17.58-2.2,27.84-5.86,3.66.73,8.06.73,10.26-.73.73-.73-2.93-.73-3.66-2.2h.73c5.86,0,7.33-2.93,7.33-8.79,2.2,0,6.59,5.13,8.79,5.86.73.73-2.2-5.86-5.13-7.33,6.59.73,8.79,2.2,11.72,7.33,1.46,0-2.2-9.52-1.47-9.52,8.06,3.66,7.33,10.26,8.06,9.52,2.2-2.93.73-5.13,1.46-7.33,3.66,1.46,7.33,5.86,6.59,10.26,1.46,0,3.66-3.66,3.66-5.86,3.66,2.93,4.4,6.59,2.2,9.52v.73c0,1.46,1.47,0,2.2,0,3.66-1.47,2.93-5.86,5.13-6.59,1.47,6.59.73,12.45-8.79,14.65,0,3.66,0,7.33-1.47,10.99-2.2,5.13-6.59,8.06-10.99,9.52-8.06,2.93-22.71,2.93-28.57-1.46-.73-.73-1.47-1.47-1.47-2.93,8.79,2.93,33.7,4.39,38.1-8.79,3.66-9.52-5.86-16.85-13.19-16.85-14.65-1.46-27.84,4.4-46.15,10.26-10.26,2.93-24.91,1.47-24.91-10.26,0-5.13,1.46-10.99,5.13-13.19h0Z"/>
    <path class="cls-1" d="M219.79,397.51c2.93,2.2,6.59,8.06,12.45,10.26,0,.73-10.99,4.4-15.38,4.4-8.79,0-10.99-3.66-10.99-6.59,0-3.66,6.59-10.99,13.92-8.06h0Z"/>
    <path class="cls-1" d="M253.49,508.14c0,1.46,0,2.93.73,3.66.73.73-2.93.73-5.86,1.47,1.47-1.47,2.93-5.13,5.13-5.13h0Z"/>
    <path class="cls-1" d="M257.88,493.48c0,.73-.73,5.13-2.93,5.13-1.47-2.2-2.93-1.47-5.13-1.47,0-.73,4.4-5.13,8.06-3.66h0Z"/>
    <path class="cls-1" d="M260.81,519.86c0,.73.73,1.47,1.47,2.2-.73,1.47-8.06,2.2-8.79-.73,1.47,0,5.13,0,7.33-1.47h0Z"/>
    <path class="cls-1" d="M278.4,511.07c-.73-.73,3.66,0,4.39.73,0,.73,1.47,2.93-1.46,5.86,0-4.4,0-5.13-2.93-6.59h0Z"/>
  </g>
</svg>