<?xml version="1.0" encoding="UTF-8"?>
<svg id="Layer_1" data-name="Layer 1" xmlns="http://www.w3.org/2000/svg" version="1.1" viewBox="0 0 469.4 465.2">
  <defs>
    <style>
      .cls-1 {
        fill: #fff;
        stroke-width: 0px;
      }
    </style>
  </defs>
  <path class="cls-1" d="M160.8,0h87.6v52.8h-19.6v5.9c0,49.3,0,98.7-.3,148-.1,18.5-2.5,36.8-8.4,54.5-9.8,29.3-29.7,47.5-59.9,54-26.8,5.8-53.7,6-79.8-3.3-36.5-13-55.9-39.8-59.5-78.1-1-11.1-1.2-22.3-1.2-33.4-.1-47.2,0-94.3,0-141.5v-5.8H.1V.3h99.6v52.6h-18.7c-.2,1-.4,1.4-.4,1.9,0,47.5,0,95,.4,142.5,0,8.6,1.3,17.3,2.9,25.8,4.4,23.4,17.9,33.9,41.8,33.1,22.4-.7,33.5-9.5,38.7-30.9,1.1-4.4,1.9-8.8,2.2-13.3.7-8.8,1.2-17.6,1.3-26.4.1-42.2,0-84.3,0-126.5v-5.8h-18.8V0h11.7,0Z"/>
  <path class="cls-1" d="M429.8,82.2h-13.9v-28.8h-81.5v74.5h73.8v53.4h-73.7v80.6h19v53.2h-99.3v-52.9h19.4V53.2h-19.3V.3h215.3v81.9h-39.6Z"/>
  <path class="cls-1" d="M393.9,442.1c-9.6,16.4-24.6,21.4-42.1,21.4-10.5,0-20.9,0-32.7,0,1.1-1.8,1.5-3.5,2.5-3.9,3-1.3,3.5-3.7,3.5-6.5,0-18.3-.2-36.6-.2-54.9,0-6.3-5.1-4.3-8.7-5.7,0-1.1-.1-2.5-.2-4,5.4,0,10.3,0,15.3,0,13.6.1,27.3-.5,40.9.6,15.4,1.2,24.6,11.2,26.4,26.6,1,9.1,0,18-4.6,26.5M365.9,455c14.9-5.4,19.9-29.4,13.6-45.9-4.9-12.9-21.8-18.8-38.2-13.6v62.5c8.4-1,16.1-1.9,24.5-3h0Z"/>
  <path class="cls-1" d="M258.4,441.3c3.2,4.5,6,8.8,9.1,12.9,1.2,1.5,2.8,3.3,4.5,3.7,3.5.8,3,2.8,2.4,5.4h-19.8c-8.2-13.1-16.5-26.2-24.9-39.7,1.5-.2,2.8-.4,4-.5,9.2-.8,15.3-8.5,13.8-17.6-1.4-8.6-11-14.1-19.1-10.9-.9.4-1.9,1.9-1.9,2.9,0,18.8,0,37.6,0,56.4s2.2,4.5,5.2,4.4c3.5,0,4.3,1.6,3.3,4.9h-33.8c0-1.3-.2-2.7-.3-4.1.8-.3,1.2-.6,1.7-.5,6,.6,7.6-2.5,7.6-8,0-16,.4-32,0-48-.2-9.7,1-8.3-9.1-10-.3-2.2-1.3-4.5,2.7-4.5,13.3.1,26.6,0,39.9,0s2.7,0,4,.2c7,.5,12.7,3.2,14.9,10.5,2.2,7.6,0,14.2-5.8,19.5-2.6,2.4-6,4.1-9.5,6.4,3.5,5.4,7.1,10.9,11,16.6h0Z"/>
  <path class="cls-1" d="M201.1,429.4c-2.5,22.2-17.1,35.4-39.1,35.8-11.4.2-22.5-1-31-9.5-13.2-13-13.8-29.1-8.3-45.4,5.4-15.7,18.2-22.5,34-23.1,8-.3,16.5.6,24,3.1,15.1,5.2,21.9,19,20.5,39M178.7,402.7c-8.2-14.3-33.2-12.3-38.8,3.1-5.2,14.4-4.9,28.7,2.3,42.5,4.3,8.3,11.9,11.3,20.9,10.7,8.5-.5,14.9-4.7,18-12.8,5.5-14.5,5.4-28.9-2.3-43.5Z"/>
  <path class="cls-1" d="M406.7,451.1c-1.3,4.4,1,7.1,6.9,7.9v4.2h-24.4c0-1.4-.2-2.7-.3-4.5,6.2.6,8.4-3.2,10.2-7.9,7.8-19.6,15.8-39.1,23.7-58.6,1-2.5,1.6-4.6,5.3-4.6,3.8,0,5.1,1.7,6.4,4.7,8.3,19.5,16.8,39,25.1,58.5,1.9,4.4,3.4,9,9.8,7.6v4.8h-33.4c-.1-1.1-.3-2.5-.5-4.1,1.8-.2,3.2-.5,4.7-.6,3-.2,4.3-1.5,2.8-4.5,0-.1,0-.3-.1-.5-2.7-8.4-8.5-12.6-17.2-12.6h-4.5c-7.1,0-11.9,3.4-14.4,10.3M432.7,434.2c.6-.5,1.8-1.2,1.7-1.5-3.3-8.1-6.6-16.2-10.5-25.6-3.9,9.7-7.2,18.1-10.7,27h19.6,0Z"/>
  <path class="cls-1" d="M9.2,419c-.1-6-.4-11.5-.4-17-.1-8.5-.1-8.5-8.7-9.2v-4.3h55.1c0,14.6-.6,16.9-5.1,17.1-.2-.7-.4-1.4-.5-2.2-1.1-7.9-1.4-8.2-9.4-8.6-3.3-.1-6.7,0-10,0-1.5,0-3,.2-4.9.3v26.2c5.1,0,10.5.5,15.8-.3,1.5-.2,2.6-3.8,3.9-5.9-.3-.4-.6-.7-.9-1.1,1.5,0,3-.1,4.8-.2v23.2c-1.3.1-2.7.2-4.5.4-.2-1.8-.5-3.2-.5-4.6,0-3.3-1.4-5-4.8-5-4.6,0-9.2,0-13.9,0,0,8.6,0,17.1,0,25.5,0,3.2,1.6,4.9,4.9,4.9,1.6,0,3.3.4,5.2.6.6,2.4,1.4,4.5-2.6,4.5-10.8-.1-21.5,0-32.6,0v-4.3c.3-.1.8-.4,1.2-.4,7.3-.5,7.3-.5,7.5-7.9.2-10.5.3-21,.5-31.9h0Z"/>
  <path class="cls-1" d="M61.2,388.1h31.7c.1,1.7.2,3.1.3,4.3-.6.4-.9.6-1.2.7-7.2.9-7.4.9-7.4,8.1,0,18.1,0,36.2,0,54.5,8.2,0,16.1.4,24-.1,5.1-.3,4-5.5,4.8-8.7.8-3,1.9-3.9,5.4-3-.7,6.1-1.3,12.3-2.1,19.1h-54.7c.9-1.4,1.4-3,2.3-3.4,3.9-1.6,4.2-4.8,4.2-8.2,0-16,.2-32,.1-48,0-9.3-.1-9.3-10.5-10.8,1-1.7,1.8-3.1,3-4.5h0Z"/>
  <path class="cls-1" d="M287.4,456.3c.3-18.4.6-36.4.5-54.4,0-8.1-.5-8.1-8.7-9.2v-4.4h33.9c0,1.5.1,2.9.2,4.1-.6.3-.9.6-1.2.6-7.5.4-7.9.6-8,8.1-.2,16.8.1,33.7-.2,50.5-.1,6.8,4.3,6.7,9.1,6.9v4.6h-33.8v-4.1c2.8-.8,5.4-1.6,8.2-2.8h0Z"/>
  <path class="cls-1" d="M68.4,345c-.4-.7-.5-1.4-.6-2.1h8.9c-.9,3-2.3,5.4-2.3,7.8-.3,8,0,15.9,0,25.4-2.8-1.7-5.1-2.6-6.5-4.2-5.9-6.6-11.6-13.5-18-21.1,0,6.7-.2,12.5.2,18.2.1,1.5,2.1,2.9,3.5,4.7h-10.6c4.5-1.7,3.9-5.4,3.9-8.9,0-4.5,0-9,0-13.5,0-3.1,1.4-7.1-5.7-6.7,7.3-3.1,11.1-2.3,14.5,1.9,4.8,5.9,9.6,11.7,15.3,18.6,0-7.1,0-12.8,0-18.5,0-.6-1.2-1.1-2.3-1.7h0Z"/>
  <path class="cls-1" d="M218.4,374.5c-6.1,1-8.9-2.2-11.1-6.9-1.6-3.4-4-6.4-5.6-8.9,2.3-1.9,5.1-3.3,6.3-5.5,1.8-3.3.1-6.2-3.5-7.4-2.8-1-4.9-.6-4.8,3.3.2,6.3-.2,12.7.2,19,.1,2,2.1,3.8,3.3,6h-14.3c5.7-4.8,5.7-26.9-.5-30.8,8.3,0,15.6-.6,22.9.2,4.6.5,5.6,7.5,2,11.5-1.1,1.2-2.6,2.1-4.6,3.7,3.4,4.5,7,8.9,10.3,13.5.4.5-.2,1.7-.6,2.5h0Z"/>
  <path class="cls-1" d="M166.9,371.4c5.7,0,9.4-2.1,11.3-6.2v8.9h-21.9c.6-2.7,1.4-5.1,1.5-7.5.2-5.5.3-11,0-16.5-.1-2.2-1.6-4.2-2.6-6.7h22.7c-.1,1.9-.3,4.1-.4,6.4l-1.2.3c-.6-1.3-1.3-2.6-2-4.1h-9.3v11.5c3.6-1.2,6.8-2.2,10.1-3.3v7.8c-2.9-1.2-6-2.5-9.1-3.7-.6.4-1.2.9-1.8,1.3.7,3.9,1.4,7.8,2.6,11.7h0Z"/>
  <path class="cls-1" d="M247.2,373.7c-6.1,2.2-11.7,2.2-17.4-.8.3-2.7.6-5.3,1-8,.4-.1.8-.3,1.2-.4.8,6.1,4.3,8.9,9.8,7.5,2-.5,4.4-3,4.8-5,.3-1.3-2.4-3.6-4.2-4.9-1.4-1-3.5-.9-5.3-1.3-4.2-1-6.9-3.5-7-7.9-.1-4.6,1.8-8.2,6.3-9.7,2.6-.8,5.6-1.1,8.3-1,6.8.4,7.6,1.9,4.8,9.7-.6-1.6-.7-2.9-1.3-3.3-2.4-1.4-4.9-3.3-7.4-3.2-1.6,0-3.3,2.9-4.9,4.6,1.8,1.6,3.5,3.4,5.4,4.9.4.4,1.3.1,1.9.3,4,.9,8.6,1.2,9.6,6.4,1.1,5.1-.8,9.1-5.6,12.1h0Z"/>
  <path class="cls-1" d="M13.7,344.4c-1.2,1.5-2.9,2.7-3,4-.3,5.3-.1,10.6-.1,16,0,4.7,2.9,6.4,7,6.6,5.1.3,8.5-1.7,8.8-5.9.4-5.8.4-11.6,0-17.4,0-1.4-2.1-2.7-3.5-4.3h9.2c-.7,2.7-1.9,5.5-2.2,8.3-.4,4.1-.1,8.3-.3,12.5-.2,6.1-3.6,10.1-9.6,10.7-3.1.3-6.3.1-9.4-.5-4.6-1-7.1-4.1-7.1-9,0-4.5.3-9-.1-13.5-.3-2.9-1.6-5.7-2.7-9.4,3.7.5,8.4,1,12.8,1.9h0Z"/>
  <path class="cls-1" d="M410.3,363.4c.5-2.5.9-4.6,1.4-7-1.5-.3-3-.6-3.7-.7,2.1-2.8,4.1-5.9,6.5-8.5,3.8-4.2,7.5-8.8,14.9-8.5-.6,2.7-1.1,4.8-1.6,7.1-6.3-4.1-7.4-3.3-8.5,6.6h5.8c-.4,2-2.5,3.4-6.5,3.9-5.3,12.4-2.5,29.3-18.4,35.7-.6-.3-1.2-.5-1.8-.8.5-1.9,1.1-3.9,1.8-6.4,3.8,4,5.4,2.1,6.2-1.6,1.4-6.5,2.6-13,4-19.9h0Z"/>
  <path class="cls-1" d="M123.5,345.4c1.9,6.6,4.1,13,6.3,19.3.4,0,.9.1,1.4.2,2.5-6.1,4.9-12.3,7.5-18.8-1.5-.7-2.7-1.3-3.9-1.9,0-.3,0-.5,0-.8h10c-1.6,2.8-3.5,5.5-4.9,8.5-2.9,6.5-5.4,13.2-8.3,19.7-.5,1.1-1.9,2.6-2.9,2.6-1,0-2.4-1.4-2.9-2.5-3.1-7-5.8-14.1-9-21-1.2-2.6-3.2-4.9-4.8-7.4h14c0,.2.2.4.3.7-.8.4-1.7.8-2.9,1.4Z"/>
  <path class="cls-1" d="M397.1,373.3c-4,1.8-7.6,4.1-11.5,4.7-5.3.8-7.6-1.8-8.1-7-1.1-10.3,6.7-19.5,16.1-19.1,5.6.2,8.7,2.8,8,8.4-.5,4.4-2.8,8.6-4.5,13.1M383.9,371.9c2.8,4.4,6.9,4.6,8.7,0,1.5-3.8,2.1-8,2.3-12,0-1.7-1.9-4.6-3.3-4.9-1.6-.3-4.6,1.5-5.2,3.1-1.4,4.1-1.8,8.6-2.5,13.8h0Z"/>
  <path class="cls-1" d="M346.4,349.6c2.2-2.6,1.9-7.5,7.9-6.5-2.7,4.3-5,8.5-7.8,12.1-3.4,4.4-3.2,9.4-2.6,14.3.2,1.5,2.4,2.7,4.2,4.4h-14c.9-2.8,2.6-5.7,2.5-8.5-.1-3.3-1.4-6.8-3-9.6-2.3-4-5.5-7.6-8.3-11.4,3.9-3.3,7.4-3,10.5,1.7,1.1,1.6,2,3.4,3,5.2,1,1.7,1.9,3.4,3.2,5.9,1.7-2.8,3-5,4.6-7.5h0Z"/>
  <path class="cls-1" d="M290.7,346.5c-.8,1.5-1.2,2.8-1.7,4.1-.4,0-.8,0-1.2-.1-.1-2.3-.3-4.7-.5-7.3h28.8c-.2,2.5-.4,4.9-.6,7.3-1.7-5.9-5.9-4.6-10.3-4.1,0,7.9-.1,15.8.2,23.6,0,1.2,2.2,2.2,3.8,3.8h-14.7c5-1.8,4-6,4-9.7,0-5.8,0-11.6,0-17.8-2.7,0-5.2,0-7.9.3h0Z"/>
  <path class="cls-1" d="M91.9,359c0-3,0-5.5-.2-8-.1-2.9,1.4-6.7-5.2-6.4l1.5-1.3h15.9c-6.6,2.2-5.2,6.8-5.3,10.7-.1,4.2,0,8.3,0,12.5,0,2.9-.9,6.4,5.1,5.9-.4.5-.8.9-1.2,1.3h-15.4c7.5-3.4,3.8-9.4,4.8-14.7h0Z"/>
  <path class="cls-1" d="M274.6,357c0,3-.1,5.5,0,8,.2,3.3-1.9,7.6,5.6,7.7l-1.8,1.2h-14.3c5-2.3,3.5-6.6,3.6-10.4,0-4.2,0-8.3,0-12.5,0-2.9,1.3-6.7-5.2-6.4.5-.4,1-.9,1.5-1.3h15.9c-7.9,3-4.6,8.7-5.4,13.7h0Z"/>
</svg>