
<svg id="Layer_1" data-name="Layer 1" xmlns="http://www.w3.org/2000/svg" viewBox="0 0 338.75 338.72" fill="none" >
  <rect class="cls-1" width="338.75" height="338.72"/>
  <g>
    <g>
      <path fill="#fff" d="M158.46,178.02h27.41v-9.15s-3.01,0-3.01,0c0,3.5-2.56,6.08-6.47,6.08h-4.22v-13.66h4.55s0-3.03,0-3.03h-18.26s0,3.03,0,3.03h4.6v13.66s-4.6,0-4.6,0v3.06Z"/>
      <polygon fill="#fff" points="199.05 178.03 209.71 178.04 218.76 161.3 223.3 161.3 223.3 158.26 209.65 158.26 209.65 161.3 213.6 161.3 207 173.48 200.32 161.3 205.11 161.3 205.11 158.26 185.31 158.26 185.3 161.3 189.84 161.3 199.05 178.03"/>
      <polygon fill="#fff" points="103.88 158.26 84.08 158.26 84.07 161.3 88.6 161.3 97.82 178.03 108.48 178.04 117.53 161.3 122.07 161.3 122.07 158.26 108.42 158.26 108.42 161.3 112.36 161.3 105.77 173.48 99.09 161.3 103.88 161.3 103.88 158.26"/>
      <path fill="#fff" d="M124.72,168.16c0,5.82,4.69,10.45,14.09,10.45,9.4,0,14.04-4.63,14.04-10.45,0-5.74-4.92-10.32-14.1-10.32-9.17,0-14.04,4.58-14.04,10.32ZM143.65,168.21c-.06,3.59-1.55,7.33-4.99,7.27-3.35-.06-4.82-3.76-4.76-7.44.07-3.81,1.89-7.13,5.03-7.08,3.14.06,4.79,3.44,4.73,7.25Z"/>
      <path fill="#fff" d="M225.92,168.16c0,5.82,4.69,10.45,14.09,10.45s14.04-4.63,14.04-10.45c0-5.74-4.92-10.32-14.09-10.32-9.17,0-14.04,4.58-14.04,10.32ZM240.13,160.96c3.13.06,4.79,3.44,4.72,7.25-.07,3.59-1.55,7.33-4.99,7.27-3.35-.06-4.82-3.76-4.76-7.44.07-3.81,1.89-7.13,5.03-7.08Z"/>
    </g>
    <g>
      <path fill="#fff" d="M261.99,105.3l-11.47,11.47c9.83,15.17,15.55,33.26,15.55,52.69,0,53.57-43.43,97-97,97-53.57,0-97-43.43-97-97,0-53.57,43.43-97,97-97,19.47,0,37.6,5.74,52.8,15.62l11.47-11.47c-18.24-12.65-40.39-20.07-64.27-20.07-62.36,0-112.92,50.55-112.92,112.92,0,62.36,50.55,112.92,112.92,112.92,62.36,0,112.92-50.55,112.92-112.92,0-23.83-7.39-45.94-19.99-64.16Z"/>
      <path fill="#fff" d="M225.86,60.99v3.17c6.85,3.71,13.29,8.09,19.26,13.01l-16.09,16.09c6.07,4.76,11.55,10.24,16.32,16.3l16.07-16.07c4.93,5.98,9.31,12.43,13.02,19.18h3.09s0-51.67,0-51.67h-51.68Z"/>
    </g>
  </g>
</svg>