<?xml version="1.0" encoding="UTF-8"?>
<svg id="Layer_1" xmlns="http://www.w3.org/2000/svg" version="1.1" viewBox="0 0 1200 630">
  <!-- Generator: Adobe Illustrator 29.1.0, SVG Export Plug-In . SVG Version: 2.1.0 Build 142)  -->
  <defs>
    <style>
      .st0 {
        isolation: isolate;
      }

      .st1 {
        fill: #fff;
      }
    </style>
  </defs>
  <rect width="1200" height="630"/>
  <g id="Layer_11">
    <g id="Layer_1-2">
      <g id="Layer_1-21">
        <g id="Layer_1-2-2">
          <g id="Layer_1-2-21">
            <g>
              <g class="st0">
                <g class="st0">
                  <g class="st0">
                    <path class="st1" d="M372.7,260.7l42.2,63.7,42.3-63.9c2.8-4.2,6.5-6.3,11.2-6.3,7.8,0,11.8,3,11.8,9s-.7,4.5-3,7.8l-50.2,71.9c-2.8,4-6.8,6-11.8,6s-9.2-2-11.8-6l-50.2-71.7c-2.3-3.3-3.2-5.3-3.2-7.8,0-6,4.2-9,11.8-9s8,2.2,10.7,6.5h0l.2-.2Z"/>
                    <path class="st1" d="M495.9,263.6c0-6.2,4-9.3,11.7-9.3s11.2,3,11.2,9.3v76.2c0,6.2-3.8,9.3-11.5,9.3s-11.3-3-11.3-9.3v-76.2h0Z"/>
                    <path class="st1" d="M644.4,323.9c0,16.2-14.2,24.3-42.8,24.3h-53.9c-6.8,0-10.3-3-10.3-9s3.5-8.7,10.3-8.7h53.9c13.3,0,20-2.8,20-8.5v-5.5c0-5-5.8-7.5-17.5-7.5h-27.7c-25.7,0-38.7-7.3-38.7-21.8v-8.7c0-15.7,13.2-23.7,39.5-23.7h12.7c6.8,0,10,3,10,8.8s-3.3,8.8-10,8.8h-12.7c-11.2,0-16.7,2.3-16.7,7v5.5c0,4.2,5,6.3,15.3,6.3h25.7c28.3,0,42.3,8,42.3,23.7v8.7h0l.5.2Z"/>
                    <path class="st1" d="M670.8,272.7h-31.3c-6.8,0-10.3-3-10.3-8.8s3.3-8.8,10.3-8.8h85.7c6.8,0,10.3,3,10.3,8.7s-3.5,9-10.3,9h-31.3v67c0,6.2-3.8,9.3-11.3,9.3s-11.7-3-11.7-9.3v-67h0Z"/>
                    <path class="st1" d="M816.2,325.9h-62.7l-10.8,16.3c-2.8,4.2-6.5,6.5-11,6.5-7.8,0-12.2-3-12.2-9s.7-4.2,3.2-7.8l50.2-71.9c2.8-4,6.8-6,11.8-6s9,2,11.8,6l50.2,71.9c2.3,3.5,3.2,5.3,3.2,7.8,0,6-4,9-11.8,9s-7.8-2.2-10.7-6.5l-10.8-16.3h-.3ZM764.5,309.4h40.5l-20.3-30.5-20.2,30.5h0Z"/>
                  </g>
                </g>
              </g>
              <g class="st0">
                <g class="st0">
                  <g class="st0">
                    <path class="st1" d="M740.6,395.6c-8.8,0-13.2-2.8-13.2-8.5v-18.7c0-2,1.2-3,3.7-3s3.7,1,3.7,3v18.5c0,2,2.2,3,6.3,3h17.5c2.2,0,3.3.8,3.3,2.8s-1.2,2.8-3.3,2.8h-18Z"/>
                    <path class="st1" d="M797,388.6h-20.2l-3.5,5.3c-.8,1.3-2,2-3.7,2-2.5,0-4-1-4-2.8s.3-1.3,1-2.5l16.2-23.2c.8-1.3,2.2-1.8,4-1.8s2.8.7,3.8,1.8l16.2,23.2c.7,1.2,1,1.7,1,2.5,0,1.8-1.3,2.8-4,2.8s-2.5-.7-3.5-2l-3.5-5.3h.2ZM780.5,383.3h13l-6.5-9.8-6.5,9.8h0Z"/>
                    <path class="st1" d="M850,388.9c0,4.7-4,7-11.7,7h-22.3c-2,0-3.2-.8-3.2-2.7v-24.7c0-1.7,1.2-2.7,3.2-2.7h21.5c8,0,11.8,2.5,11.8,7.5v2.3c0,2-1,3.7-3,5,2.3,1.3,3.5,3.2,3.5,5.3v3h0v-.3h0l.2.2ZM842.2,373.6c0-1.5-1.5-2.2-4.5-2.2h-17.2c-.3,0-.5,0-.5.5v6.2h17.5c3,0,4.5-.7,4.5-2v-2.2h0l.2-.3ZM842.7,385.4c0-1.5-1.5-2.2-4.5-2.2h-17.8v6.3c0,.3,0,.5.5.5h17.5c3,0,4.5-.7,4.5-2v-2.7h-.2Z"/>
                  </g>
                </g>
              </g>
            </g>
          </g>
        </g>
      </g>
    </g>
  </g>
</svg>