<?xml version="1.0" encoding="UTF-8"?>
<svg id="Layer_1" xmlns="http://www.w3.org/2000/svg" version="1.1" viewBox="0 0 371 371">
  <!-- Generator: Adobe Illustrator 29.1.0, SVG Export Plug-In . SVG Version: 2.1.0 Build 142)  -->
  <defs>
    <style>
      .st0 {
        isolation: isolate;
      }

      .st1 {
        fill: #fff;
      }
    </style>
  </defs>
  <circle cx="185.5" cy="185.5" r="185.5"/>
  <g id="Layer_11">
    <g id="Layer_1-2">
      <g id="Layer_1-21">
        <g id="Layer_1-2-2">
          <g id="Layer_1-2-21">
            <g>
              <g class="st0">
                <g class="st0">
                  <g class="st0">
                    <path class="st1" d="M49.2,156.9l25.3,38.2,25.4-38.3c1.7-2.5,3.9-3.8,6.7-3.8,4.7,0,7.1,1.8,7.1,5.4s-.4,2.7-1.8,4.7l-30.1,43.1c-1.7,2.4-4.1,3.6-7.1,3.6s-5.5-1.2-7.1-3.6l-30.1-43c-1.4-2-1.9-3.2-1.9-4.7,0-3.6,2.5-5.4,7.1-5.4s4.8,1.3,6.4,3.9h.1Z"/>
                    <path class="st1" d="M123.1,158.6c0-3.7,2.4-5.6,7-5.6s6.7,1.8,6.7,5.6v45.7c0,3.7-2.3,5.6-6.9,5.6s-6.8-1.8-6.8-5.6v-45.7h0Z"/>
                    <path class="st1" d="M212.2,194.8c0,9.7-8.5,14.6-25.7,14.6h-32.3c-4.1,0-6.2-1.8-6.2-5.4s2.1-5.2,6.2-5.2h32.3c8,0,12-1.7,12-5.1v-3.3c0-3-3.5-4.5-10.5-4.5h-16.6c-15.4,0-23.2-4.4-23.2-13.1v-5.2c0-9.4,7.9-14.2,23.7-14.2h7.6c4.1,0,6,1.8,6,5.3s-2,5.3-6,5.3h-7.6c-6.7,0-10,1.4-10,4.2v3.3c0,2.5,3,3.8,9.2,3.8h15.4c17,0,25.4,4.8,25.4,14.2v5.2h.3Z"/>
                    <path class="st1" d="M228,164.1h-18.8c-4.1,0-6.2-1.8-6.2-5.3s2-5.3,6.2-5.3h51.4c4.1,0,6.2,1.8,6.2,5.2s-2.1,5.4-6.2,5.4h-18.8v40.2c0,3.7-2.3,5.6-6.8,5.6s-7-1.8-7-5.6v-40.2h0Z"/>
                    <path class="st1" d="M315.2,196h-37.6l-6.5,9.8c-1.7,2.5-3.9,3.9-6.6,3.9-4.7,0-7.3-1.8-7.3-5.4s.4-2.5,1.9-4.7l30.1-43.1c1.7-2.4,4.1-3.6,7.1-3.6s5.4,1.2,7.1,3.6l30.1,43.1c1.4,2.1,1.9,3.2,1.9,4.7,0,3.6-2.4,5.4-7.1,5.4s-4.7-1.3-6.4-3.9l-6.5-9.8h-.2ZM284.2,186.1h24.3l-12.2-18.3-12.1,18.3h0Z"/>
                  </g>
                </g>
              </g>
              <g class="st0">
                <g class="st0">
                  <g class="st0">
                    <path class="st1" d="M269.9,237.8c-5.3,0-7.9-1.7-7.9-5.1v-11.2c0-1.2.7-1.8,2.2-1.8s2.2.6,2.2,1.8v11.1c0,1.2,1.3,1.8,3.8,1.8h10.5c1.3,0,2,.5,2,1.7s-.7,1.7-2,1.7h-10.8Z"/>
                    <path class="st1" d="M303.7,233.6h-12.1l-2.1,3.2c-.5.8-1.2,1.2-2.2,1.2-1.5,0-2.4-.6-2.4-1.7s.2-.8.6-1.5l9.7-13.9c.5-.8,1.3-1.1,2.4-1.1s1.7.4,2.3,1.1l9.7,13.9c.4.7.6,1,.6,1.5,0,1.1-.8,1.7-2.4,1.7s-1.5-.4-2.1-1.2l-2.1-3.2h.1ZM293.8,230.4h7.8l-3.9-5.9-3.9,5.9h0Z"/>
                    <path class="st1" d="M335.5,233.8c0,2.8-2.4,4.2-7,4.2h-13.4c-1.2,0-1.9-.5-1.9-1.6v-14.8c0-1,.7-1.6,1.9-1.6h12.9c4.8,0,7.1,1.5,7.1,4.5v1.4c0,1.2-.6,2.2-1.8,3,1.4.8,2.1,1.9,2.1,3.2v1.8h0v-.2h0ZM330.8,224.6c0-.9-.9-1.3-2.7-1.3h-10.3c-.2,0-.3,0-.3.3v3.7h10.5c1.8,0,2.7-.4,2.7-1.2v-1.3h0v-.2ZM331.1,231.7c0-.9-.9-1.3-2.7-1.3h-10.7v3.8c0,.2,0,.3.3.3h10.5c1.8,0,2.7-.4,2.7-1.2v-1.6h0Z"/>
                  </g>
                </g>
              </g>
            </g>
          </g>
        </g>
      </g>
    </g>
  </g>
</svg>