<?xml version="1.0" encoding="UTF-8"?>
<svg id="Layer_1" xmlns="http://www.w3.org/2000/svg" version="1.1" viewBox="0 0 1366 768">
  <!-- Generator: Adobe Illustrator 29.4.0, SVG Export Plug-In . SVG Version: 2.1.0 Build 152)  -->
  <defs>
    <style>
      .st0 {
        fill: #cecece;
      }

      .st1 {
        fill: #25252b;
      }

      .st2 {
        fill: #191a1a;
      }

      .st3 {
        fill: #996515;
      }
    </style>
  </defs>
  <rect class="st2" y="0" width="1366" height="768"/>
  <g>
    <g>
      <g>
        <g>
          <g>
            <g>
              <rect class="st1" x="767.12" y="335" width="602.8" height="97.57"/>
              <rect class="st1" x="-4.11" y="334.64" width="602.8" height="97.57"/>
              <rect class="st1" x="634.4" y="41.54" width="97.57" height="258.31"/>
              <rect class="st1" x="634.4" y="468.24" width="97.57" height="258.31"/>
              <polygon class="st1" points="598.69 335 634.4 299.85 731.97 299.28 767.68 335 767.68 432.56 731.97 468.28 634.4 467.74 598.69 432.56 598.69 335"/>
            </g>
            <g>
              <rect class="st3" x="761.17" y="381.58" width="608.94" height="4.23"/>
              <g>
                <rect class="st0" x="768.4" y="343.59" width="29.84" height="3.87"/>
                <rect class="st0" x="768.4" y="353.15" width="29.84" height="3.87"/>
                <rect class="st0" x="768.4" y="362.72" width="29.84" height="3.87"/>
                <rect class="st0" x="768.4" y="372.28" width="29.84" height="3.87"/>
                <rect class="st0" x="768.4" y="381.84" width="29.84" height="3.87"/>
                <rect class="st0" x="768.4" y="391.41" width="29.84" height="3.87"/>
                <rect class="st0" x="768.4" y="400.97" width="29.84" height="3.87"/>
                <rect class="st0" x="768.4" y="410.54" width="29.84" height="3.87"/>
                <rect class="st0" x="768.4" y="420.1" width="29.84" height="3.87"/>
              </g>
            </g>
          </g>
          <g>
            <rect class="st3" x="680.97" y="461.8" width="4.23" height="264.67"/>
            <g>
              <rect class="st0" x="719.32" y="469.03" width="3.87" height="29.84"/>
              <rect class="st0" x="709.76" y="469.03" width="3.87" height="29.84"/>
              <rect class="st0" x="700.19" y="469.03" width="3.87" height="29.84"/>
              <rect class="st0" x="690.63" y="469.03" width="3.87" height="29.84"/>
              <rect class="st0" x="681.07" y="469.03" width="3.87" height="29.84"/>
              <rect class="st0" x="671.5" y="469.03" width="3.87" height="29.84"/>
              <rect class="st0" x="661.94" y="469.03" width="3.87" height="29.84"/>
              <rect class="st0" x="652.37" y="469.03" width="3.87" height="29.84"/>
              <rect class="st0" x="642.81" y="469.03" width="3.87" height="29.84"/>
            </g>
          </g>
        </g>
        <g>
          <rect class="st3" x="-3.96" y="381.93" width="608.94" height="4.23"/>
          <g>
            <rect class="st0" x="567.91" y="343.85" width="29.84" height="3.87"/>
            <rect class="st0" x="567.91" y="353.41" width="29.84" height="3.87"/>
            <rect class="st0" x="567.91" y="362.98" width="29.84" height="3.87"/>
            <rect class="st0" x="567.91" y="372.54" width="29.84" height="3.87"/>
            <rect class="st0" x="567.91" y="382.1" width="29.84" height="3.87"/>
            <rect class="st0" x="567.91" y="391.67" width="29.84" height="3.87"/>
            <rect class="st0" x="567.91" y="401.23" width="29.84" height="3.87"/>
            <rect class="st0" x="567.91" y="410.8" width="29.84" height="3.87"/>
            <rect class="st0" x="567.91" y="420.36" width="29.84" height="3.87"/>
          </g>
        </g>
      </g>
      <g>
        <rect class="st3" x="680.96" y="41.32" width="4.23" height="264.67"/>
        <g>
          <rect class="st0" x="719.32" y="268.92" width="3.87" height="29.84"/>
          <rect class="st0" x="709.76" y="268.92" width="3.87" height="29.84"/>
          <rect class="st0" x="700.19" y="268.92" width="3.87" height="29.84"/>
          <rect class="st0" x="690.63" y="268.92" width="3.87" height="29.84"/>
          <rect class="st0" x="681.07" y="268.92" width="3.87" height="29.84"/>
          <rect class="st0" x="671.5" y="268.92" width="3.87" height="29.84"/>
          <rect class="st0" x="661.94" y="268.92" width="3.87" height="29.84"/>
          <rect class="st0" x="652.37" y="268.92" width="3.87" height="29.84"/>
          <rect class="st0" x="642.81" y="268.92" width="3.87" height="29.84"/>
        </g>
      </g>
    </g>
    <g>
      <rect class="st0" x="766.1" y="427.47" width="603.67" height="1.06"/>
      <g>
        <g>
          <line class="st0" x1="1368.23" y1="384.66" x2="1368.23" y2="385.65"/>
          <line class="st0" x1="802.16" y1="385.65" x2="802.16" y2="384.66"/>
        </g>
        <rect class="st0" x="802.16" y="386.04" width="5.41" height="42.2"/>
      </g>
      <g>
        <rect class="st0" x="802.16" y="406.08" width="5" height="1"/>
        <path class="st0" d="M1352.56,407.08h-10.1v-1h10.1v1ZM1332.36,407.08h-10.1v-1h10.1v1ZM1312.16,407.08h-10.1v-1h10.1v1ZM1291.96,407.08h-10.1v-1h10.1v1ZM1271.76,407.08h-10.1v-1h10.1v1ZM1251.56,407.08h-10.1v-1h10.1v1ZM1231.36,407.08h-10.1v-1h10.1v1ZM1211.16,407.08h-10.1v-1h10.1v1ZM1190.96,407.08h-10.1v-1h10.1v1ZM1170.76,407.08h-10.1v-1h10.1v1ZM1150.56,407.08h-10.1v-1h10.1v1ZM1130.36,407.08h-10.1v-1h10.1v1ZM1110.16,407.08h-10.1v-1h10.1v1ZM1089.96,407.08h-10.1v-1h10.1v1ZM1069.76,407.08h-10.1v-1h10.1v1ZM1049.56,407.08h-10.1v-1h10.1v1ZM1029.36,407.08h-10.1v-1h10.1v1ZM1009.16,407.08h-10.1v-1h10.1v1ZM988.96,407.08h-10.1v-1h10.1v1ZM968.76,407.08h-10.1v-1h10.1v1ZM948.56,407.08h-10.1v-1h10.1v1ZM928.36,407.08h-10.1v-1h10.1v1ZM908.16,407.08h-10.1v-1h10.1v1ZM887.96,407.08h-10.1v-1h10.1v1ZM867.76,407.08h-10.1v-1h10.1v1ZM847.56,407.08h-10.1v-1h10.1v1ZM827.36,407.08h-10.1v-1h10.1v1Z"/>
        <rect class="st0" x="1362.93" y="406.08" width="5" height="1"/>
      </g>
      <g>
        <rect class="st0" x="802.16" y="359.98" width="5" height="1"/>
        <path class="st0" d="M1352.56,360.98h-10.1v-1h10.1v1ZM1332.36,360.98h-10.1v-1h10.1v1ZM1312.16,360.98h-10.1v-1h10.1v1ZM1291.96,360.98h-10.1v-1h10.1v1ZM1271.76,360.98h-10.1v-1h10.1v1ZM1251.56,360.98h-10.1v-1h10.1v1ZM1231.36,360.98h-10.1v-1h10.1v1ZM1211.16,360.98h-10.1v-1h10.1v1ZM1190.96,360.98h-10.1v-1h10.1v1ZM1170.76,360.98h-10.1v-1h10.1v1ZM1150.56,360.98h-10.1v-1h10.1v1ZM1130.36,360.98h-10.1v-1h10.1v1ZM1110.16,360.98h-10.1v-1h10.1v1ZM1089.96,360.98h-10.1v-1h10.1v1ZM1069.76,360.98h-10.1v-1h10.1v1ZM1049.56,360.98h-10.1v-1h10.1v1ZM1029.36,360.98h-10.1v-1h10.1v1ZM1009.16,360.98h-10.1v-1h10.1v1ZM988.96,360.98h-10.1v-1h10.1v1ZM968.76,360.98h-10.1v-1h10.1v1ZM948.56,360.98h-10.1v-1h10.1v1ZM928.36,360.98h-10.1v-1h10.1v1ZM908.16,360.98h-10.1v-1h10.1v1ZM887.96,360.98h-10.1v-1h10.1v1ZM867.76,360.98h-10.1v-1h10.1v1ZM847.56,360.98h-10.1v-1h10.1v1ZM827.36,360.98h-10.1v-1h10.1v1Z"/>
        <rect class="st0" x="1362.93" y="359.98" width="5" height="1"/>
      </g>
      <polygon class="st0" points="766.1 338.6 766.1 339.5 1368.23 339.5 1368.23 338.61 1368.23 338.6 766.1 338.6"/>
    </g>
    <g>
      <rect class="st0" x="638.07" y="467.56" width="1.06" height="258.67"/>
      <g>
        <g>
          <line class="st0" x1="681.94" y1="726.69" x2="680.95" y2="726.69"/>
          <line class="st0" x1="680.95" y1="503.62" x2="681.94" y2="503.62"/>
        </g>
        <rect class="st0" x="656.76" y="485.23" width="5.41" height="42.2" transform="translate(1165.79 -153.14) rotate(90)"/>
      </g>
      <g>
        <rect class="st0" x="659.52" y="503.62" width="1" height="5"/>
        <path class="st0" d="M660.52,726.33h-1v-5.61h1v5.61ZM660.52,710.62h-1v-10.1h1v10.1ZM660.52,690.42h-1v-10.1h1v10.1ZM660.52,670.22h-1v-10.1h1v10.1ZM660.52,650.02h-1v-10.1h1v10.1ZM660.52,629.82h-1v-10.1h1v10.1ZM660.52,609.62h-1v-10.1h1v10.1ZM660.52,589.42h-1v-10.1h1v10.1ZM660.52,569.22h-1v-10.1h1v10.1ZM660.52,549.02h-1v-10.1h1v10.1ZM660.52,528.82h-1v-10.1h1v10.1Z"/>
        <rect class="st0" x="659.52" y="721.39" width="1" height="5"/>
      </g>
      <g>
        <rect class="st0" x="705.62" y="503.62" width="1" height="5"/>
        <path class="st0" d="M706.62,726.33h-1v-5.61h1v5.61ZM706.62,710.62h-1v-10.1h1v10.1ZM706.62,690.42h-1v-10.1h1v10.1ZM706.62,670.22h-1v-10.1h1v10.1ZM706.62,650.02h-1v-10.1h1v10.1ZM706.62,629.82h-1v-10.1h1v10.1ZM706.62,609.62h-1v-10.1h1v10.1ZM706.62,589.42h-1v-10.1h1v10.1ZM706.62,569.22h-1v-10.1h1v10.1ZM706.62,549.02h-1v-10.1h1v10.1ZM706.62,528.82h-1v-10.1h1v10.1Z"/>
        <rect class="st0" x="705.62" y="721.39" width="1" height="5"/>
      </g>
      <polygon class="st0" points="728 467.56 727.1 467.56 727.1 726.69 727.99 726.69 728 726.69 728 467.56"/>
    </g>
    <g>
      <rect class="st0" x="-3.69" y="339.25" width="603.67" height="1.06"/>
      <g>
        <g>
          <line class="st0" x1="-2.15" y1="383.12" x2="-2.15" y2="382.13"/>
          <line class="st0" x1="563.92" y1="382.13" x2="563.92" y2="383.12"/>
        </g>
        <rect class="st0" x="558.51" y="339.54" width="5.41" height="42.2" transform="translate(1122.43 721.28) rotate(180)"/>
      </g>
      <g>
        <rect class="st0" x="558.92" y="360.7" width="5" height="1"/>
        <path class="st0" d="M548.82,361.7h-10.1v-1h10.1v1ZM528.62,361.7h-10.1v-1h10.1v1ZM508.42,361.7h-10.1v-1h10.1v1ZM488.22,361.7h-10.1v-1h10.1v1ZM468.02,361.7h-10.1v-1h10.1v1ZM447.82,361.7h-10.1v-1h10.1v1ZM427.62,361.7h-10.1v-1h10.1v1ZM407.42,361.7h-10.1v-1h10.1v1ZM387.22,361.7h-10.1v-1h10.1v1ZM367.02,361.7h-10.1v-1h10.1v1ZM346.82,361.7h-10.1v-1h10.1v1ZM326.62,361.7h-10.1v-1h10.1v1ZM306.42,361.7h-10.1v-1h10.1v1ZM286.22,361.7h-10.1v-1h10.1v1ZM266.02,361.7h-10.1v-1h10.1v1ZM245.82,361.7h-10.1v-1h10.1v1ZM225.62,361.7h-10.1v-1h10.1v1ZM205.42,361.7h-10.1v-1h10.1v1ZM185.22,361.7h-10.1v-1h10.1v1ZM165.02,361.7h-10.1v-1h10.1v1ZM144.82,361.7h-10.1v-1h10.1v1ZM124.62,361.7h-10.1v-1h10.1v1ZM104.42,361.7h-10.1v-1h10.1v1ZM84.22,361.7h-10.1v-1h10.1v1ZM64.02,361.7h-10.1v-1h10.1v1ZM43.82,361.7h-10.1v-1h10.1v1ZM23.62,361.7h-10.1v-1h10.1v1Z"/>
        <rect class="st0" x="-1.85" y="360.7" width="5" height="1"/>
      </g>
      <g>
        <rect class="st0" x="558.92" y="406.8" width="5" height="1"/>
        <path class="st0" d="M548.82,407.8h-10.1v-1h10.1v1ZM528.62,407.8h-10.1v-1h10.1v1ZM508.42,407.8h-10.1v-1h10.1v1ZM488.22,407.8h-10.1v-1h10.1v1ZM468.02,407.8h-10.1v-1h10.1v1ZM447.82,407.8h-10.1v-1h10.1v1ZM427.62,407.8h-10.1v-1h10.1v1ZM407.42,407.8h-10.1v-1h10.1v1ZM387.22,407.8h-10.1v-1h10.1v1ZM367.02,407.8h-10.1v-1h10.1v1ZM346.82,407.8h-10.1v-1h10.1v1ZM326.62,407.8h-10.1v-1h10.1v1ZM306.42,407.8h-10.1v-1h10.1v1ZM286.22,407.8h-10.1v-1h10.1v1ZM266.02,407.8h-10.1v-1h10.1v1ZM245.82,407.8h-10.1v-1h10.1v1ZM225.62,407.8h-10.1v-1h10.1v1ZM205.42,407.8h-10.1v-1h10.1v1ZM185.22,407.8h-10.1v-1h10.1v1ZM165.02,407.8h-10.1v-1h10.1v1ZM144.82,407.8h-10.1v-1h10.1v1ZM124.62,407.8h-10.1v-1h10.1v1ZM104.42,407.8h-10.1v-1h10.1v1ZM84.22,407.8h-10.1v-1h10.1v1ZM64.02,407.8h-10.1v-1h10.1v1ZM43.82,407.8h-10.1v-1h10.1v1ZM23.62,407.8h-10.1v-1h10.1v1Z"/>
        <rect class="st0" x="-1.85" y="406.8" width="5" height="1"/>
      </g>
      <polygon class="st0" points="599.98 429.18 599.98 428.28 -2.15 428.28 -2.15 429.17 -2.15 429.18 599.98 429.18"/>
    </g>
    <g>
      <rect class="st0" x="726.76" y="41.77" width="1.06" height="258.67"/>
      <g>
        <g>
          <line class="st0" x1="683.95" y1="41.31" x2="684.94" y2="41.31"/>
          <line class="st0" x1="684.94" y1="264.38" x2="683.95" y2="264.38"/>
        </g>
        <rect class="st0" x="703.73" y="240.58" width="5.41" height="42.2" transform="translate(444.76 968.11) rotate(-90)"/>
      </g>
      <g>
        <rect class="st0" x="705.37" y="259.38" width="1" height="5"/>
        <path class="st0" d="M706.37,249.28h-1v-10.1h1v10.1ZM706.37,229.08h-1v-10.1h1v10.1ZM706.37,208.88h-1v-10.1h1v10.1ZM706.37,188.68h-1v-10.1h1v10.1ZM706.37,168.48h-1v-10.1h1v10.1ZM706.37,148.28h-1v-10.1h1v10.1ZM706.37,128.08h-1v-10.1h1v10.1ZM706.37,107.88h-1v-10.1h1v10.1ZM706.37,87.68h-1v-10.1h1v10.1ZM706.37,67.48h-1v-10.1h1v10.1ZM706.37,47.28h-1v-5.61h1v5.61Z"/>
        <rect class="st0" x="705.37" y="41.61" width="1" height="5"/>
      </g>
      <g>
        <rect class="st0" x="659.27" y="259.38" width="1" height="5"/>
        <path class="st0" d="M660.27,249.28h-1v-10.1h1v10.1ZM660.27,229.08h-1v-10.1h1v10.1ZM660.27,208.88h-1v-10.1h1v10.1ZM660.27,188.68h-1v-10.1h1v10.1ZM660.27,168.48h-1v-10.1h1v10.1ZM660.27,148.28h-1v-10.1h1v10.1ZM660.27,128.08h-1v-10.1h1v10.1ZM660.27,107.88h-1v-10.1h1v10.1ZM660.27,87.68h-1v-10.1h1v10.1ZM660.27,67.48h-1v-10.1h1v10.1ZM660.27,47.28h-1v-5.61h1v5.61Z"/>
        <rect class="st0" x="659.27" y="41.61" width="1" height="5"/>
      </g>
      <polygon class="st0" points="637.89 300.44 638.79 300.44 638.79 41.31 637.9 41.31 637.89 41.31 637.89 300.44"/>
    </g>
    <g>
      <rect class="st0" x="746.29" y="291.87" width="1" height="55.45" transform="translate(-6.17 624.38) rotate(-45.21)"/>
      <rect class="st0" x="618.7" y="420.55" width="1" height="55.45" transform="translate(-135.81 567.91) rotate(-44.91)"/>
    </g>
    <g>
      <rect class="st0" x="591.25" y="319.5" width="55.58" height="1" transform="translate(-42.28 539.69) rotate(-45.71)"/>
      <polygon class="st0" points="727.9 468.25 727.18 467.55 766.07 427.49 766.79 428.19 727.9 468.25"/>
    </g>
  </g>
</svg>