<?xml version="1.0" encoding="UTF-8"?>
<svg id="Layer_1" xmlns="http://www.w3.org/2000/svg" version="1.1" viewBox="0 0 173.16 841.89">
  <!-- Generator: Adobe Illustrator 29.4.0, SVG Export Plug-In . SVG Version: 2.1.0 Build 152)  -->
  <defs>
    <style>
      .st0 {
        fill: #fff;
      }
    </style>
  </defs>
  <g>
    <path class="st0" d="M97,759.29v43.37l20.53,6.96v29.63L1.32,797.2v-32.78l116.21-42.05v29.96l-20.53,6.95h0ZM75.15,766.57l-42.54,14.4,42.54,14.23v-28.63Z"/>
    <path class="st0" d="M28.55,715.26c-8.99-4.97-16-11.89-21.02-20.78C2.51,685.6,0,675.53,0,664.27,0,650.48,3.64,638.67,10.93,628.85c7.28-9.82,17.21-16.39,29.79-19.7v31.12c-4.85,2.32-8.55,5.6-11.09,9.85s-3.81,9.07-3.81,14.48c0,8.72,3.04,15.78,9.11,21.19s14.18,8.11,24.33,8.11,18.27-2.7,24.33-8.11c6.07-5.41,9.1-12.47,9.1-21.19,0-5.41-1.27-10.23-3.8-14.48-2.54-4.25-6.24-7.53-11.09-9.85v-31.12c12.58,3.31,22.48,9.88,29.71,19.7s10.84,21.63,10.84,35.42c0,11.26-2.51,21.33-7.53,30.21-5.02,8.89-12,15.81-20.94,20.78-8.94,4.97-19.15,7.44-30.62,7.44s-21.71-2.48-30.7-7.44h-.01Z"/>
    <path class="st0" d="M97,527.71v43.37l20.53,6.96v29.63L1.32,565.62v-32.78l116.21-42.05v29.96l-20.53,6.95h0ZM75.15,535l-42.54,14.4,42.54,14.23v-28.63Z"/>
    <path class="st0" d="M8.6,410.68c4.86-9.16,11.67-16.25,20.44-21.27s18.9-7.53,30.38-7.53,21.46,2.51,30.29,7.53,15.67,12.14,20.53,21.35,7.28,19.89,7.28,32.03v43.53H1.32v-43.53c0-12.25,2.43-22.95,7.28-32.11ZM84.25,419.62c-5.85-5.96-14.12-8.94-24.83-8.94s-19.04,2.98-25,8.94-8.94,14.29-8.94,25v13.41h67.53v-13.41c0-10.7-2.92-19.04-8.77-25h.01Z"/>
    <path class="st0" d="M24,345.96h23.51v-37.91h21.85v37.91h25.49v-42.87h22.68v71.18H1.32v-71.18h22.68v42.87Z"/>
    <path class="st0" d="M1.32,161.4h116.21v28.3H47.84l69.69,25.99v22.84l-69.86,26.16h69.86v28.3H1.32v-33.44l80.45-32.61L1.32,194.67v-33.27Z"/>
    <path class="st0" d="M1.32,121.01h116.21v28.3H1.32s0-28.3,0-28.3Z"/>
    <path class="st0" d="M28.55,106.11c-8.99-4.97-16-11.89-21.02-20.78C2.51,76.45,0,66.38,0,55.12c0-13.79,3.64-25.6,10.93-35.42C18.21,9.88,28.14,3.31,40.72,0v31.12c-4.85,2.32-8.55,5.6-11.09,9.85s-3.81,9.07-3.81,14.48c0,8.72,3.04,15.78,9.11,21.19,6.07,5.41,14.18,8.11,24.33,8.11s18.27-2.7,24.33-8.11c6.07-5.41,9.1-12.47,9.1-21.19,0-5.41-1.27-10.23-3.8-14.48-2.54-4.25-6.24-7.53-11.09-9.85V0c12.58,3.31,22.48,9.88,29.71,19.7,7.23,9.82,10.84,21.63,10.84,35.42,0,11.26-2.51,21.33-7.53,30.21-5.02,8.89-12,15.81-20.94,20.78s-19.15,7.44-30.62,7.44-21.71-2.48-30.7-7.44h-.01Z"/>
  </g>
  <rect class="st0" x="168.56" y="2.64" width="4.6" height="839.25"/>
</svg>