<?xml version="1.0" encoding="UTF-8"?>
<svg id="Layer_1" xmlns="http://www.w3.org/2000/svg" version="1.1" viewBox="0 0 134.69 841.89">
  <!-- Generator: Adobe Illustrator 29.4.0, SVG Export Plug-In . SVG Version: 2.1.0 Build 152)  -->
  <defs>
    <style>
      .st0 {
        fill: #fff;
      }
    </style>
  </defs>
  <g>
    <path class="st0" d="M29.81,774.03c-3,1.63-5.29,3.96-6.87,7-1.58,3.04-2.38,6.62-2.38,10.73,0,7.11,2.34,12.81,7,17.09,4.67,4.28,10.9,6.43,18.7,6.43,8.31,0,14.8-2.25,19.47-6.75s7-10.69,7-18.57c0-5.4-1.37-9.96-4.11-13.69s-6.68-6.45-11.82-8.16v27.89h-16.19v-47.81h20.43c5.48,1.63,10.58,4.39,15.29,8.29,4.71,3.9,8.53,8.85,11.44,14.84,2.91,6,4.37,12.77,4.37,20.3,0,8.91-1.95,16.86-5.85,23.84-3.9,6.99-9.32,12.42-16.26,16.32-6.94,3.9-14.87,5.85-23.78,5.85s-16.86-1.95-23.84-5.85c-6.98-3.9-12.42-9.32-16.32-16.26-3.9-6.94-5.85-14.87-5.85-23.78,0-10.8,2.61-19.9,7.84-27.31,5.23-7.41,12.47-12.31,21.72-14.71v24.31Z"/>
    <path class="st0" d="M86.49,723.08c-3.94,7.07-9.44,12.68-16.51,16.84-7.07,4.16-15.01,6.23-23.84,6.23s-16.75-2.07-23.78-6.23c-7.02-4.16-12.51-9.77-16.45-16.84C1.97,716.01,0,708.24,0,699.76s1.97-16.26,5.91-23.33c3.94-7.07,9.42-12.64,16.45-16.71s14.95-6.1,23.78-6.1,16.77,2.06,23.84,6.17,12.57,9.68,16.51,16.71,5.91,14.78,5.91,23.26-1.97,16.26-5.91,23.32ZM65.16,682.47c-4.8-4.32-11.14-6.49-19.02-6.49s-14.33,2.16-19.08,6.49c-4.76,4.33-7.13,10.09-7.13,17.29s2.36,13.09,7.07,17.41c4.71,4.33,11.1,6.49,19.15,6.49s14.33-2.16,19.08-6.49c4.76-4.33,7.13-10.13,7.13-17.41s-2.4-12.96-7.2-17.29Z"/>
    <path class="st0" d="M1.28,563.14l90.22,32v27.5L1.28,654.64v-23.39l68.11-22.36L1.28,586.4v-23.26Z"/>
    <path class="st0" d="M18.89,538.47h18.25v-29.43h16.96v29.43h19.79v-33.29h17.61v55.26H1.28v-55.26h17.61v33.29h0Z"/>
    <path class="st0" d="M91.5,451.34l-34.06,18.76v5.27h34.06v21.97H1.28v-36.88c0-7.11,1.24-13.17,3.73-18.18,2.49-5.01,5.89-8.76,10.21-11.24,4.33-2.49,9.15-3.73,14.46-3.73,6,0,11.35,1.69,16.06,5.08,4.71,3.39,8.06,8.37,10.03,14.97l35.73-20.82v24.8h0ZM41.89,475.37v-13.62c0-4.03-.98-7.05-2.95-9.06s-4.76-3.02-8.36-3.02-6.12,1.01-8.09,3.02c-1.97,2.02-2.96,5.03-2.96,9.06v13.62h22.36Z"/>
    <path class="st0" d="M91.5,339.27v21.98l-55.65,36.75h55.65v21.97H1.28v-21.97l55.9-36.75H1.28v-21.98h90.22Z"/>
    <path class="st0" d="M1.28,227.6h90.22v21.97h-54.11l54.11,20.18v17.73l-54.23,20.31h54.23v21.97H1.28v-25.96l62.46-25.32L1.28,253.43v-25.83h0Z"/>
    <path class="st0" d="M18.89,196.24h18.25v-29.43h16.96v29.43h19.79v-33.29h17.61v55.26H1.28v-55.26h17.61v33.29h0Z"/>
    <path class="st0" d="M91.5,74.41v21.98l-55.65,36.75h55.65v21.97H1.28v-21.97l55.9-36.75H1.28v-21.98h90.22Z"/>
    <path class="st0" d="M1.28,0h17.61v23.9h72.61v21.98H18.89v23.9H1.28V0Z"/>
  </g>
  <rect class="st0" x="131.12" y="0" width="3.57" height="841.89"/>
</svg>