<?xml version="1.0" encoding="UTF-8"?>
<svg id="Layer_1" xmlns="http://www.w3.org/2000/svg" version="1.1" viewBox="0 0 189.71 841.89">
  <!-- Generator: Adobe Illustrator 29.4.0, SVG Export Plug-In . SVG Version: 2.1.0 Build 152)  -->
  <defs>
    <style>
      .st0 {
        fill: #fff;
      }
    </style>
  </defs>
  <g>
    <path class="st0" d="M1.81,799.72h127.07v30.95H1.81v-30.95Z"/>
    <path class="st0" d="M128.88,672.64v30.95l-78.38,51.77h78.38v30.95H1.81v-30.95l78.74-51.77H1.81v-30.95h127.07Z"/>
    <path class="st0" d="M9.77,576.53c5.31-10.02,12.76-17.77,22.36-23.26,9.59-5.49,20.67-8.24,33.22-8.24s23.47,2.75,33.13,8.24,17.14,13.27,22.45,23.35c5.31,10.08,7.96,21.75,7.96,35.03v47.61H1.81v-47.61c0-13.4,2.66-25.1,7.96-35.11h0ZM92.5,586.3c-6.39-6.52-15.44-9.77-27.15-9.77s-20.82,3.26-27.34,9.77-9.77,15.63-9.77,27.34v14.66h73.85v-14.66c0-11.71-3.2-20.82-9.59-27.34Z"/>
    <path class="st0" d="M1.81,506.29h76.03c7.61,0,13.46-1.87,17.56-5.61,4.11-3.74,6.16-9.23,6.16-16.47s-2.05-12.79-6.16-16.66c-4.1-3.86-9.95-5.79-17.56-5.79H1.81v-30.95h75.85c11.35,0,20.94,2.42,28.78,7.24,7.85,4.83,13.76,11.31,17.74,19.45,3.98,8.15,5.97,17.23,5.97,27.24s-1.96,18.98-5.88,26.88c-3.92,7.91-9.84,14.15-17.74,18.73-7.9,4.59-17.52,6.88-28.87,6.88H1.81v-30.95h0Z"/>
    <path class="st0" d="M125.62,397.14c-3.01,7.37-7.48,13.25-13.39,17.65-5.91,4.41-13.04,6.73-21.36,6.97v-32.95c4.7-.48,8.3-2.11,10.77-4.89,2.47-2.77,3.71-6.39,3.71-10.86s-1.06-8.21-3.17-10.86-5.04-3.98-8.78-3.98c-3.14,0-5.73,1.06-7.78,3.17s-3.74,4.7-5.07,7.78c-1.33,3.07-2.83,7.45-4.52,13.12-2.53,8.21-5.07,14.91-7.61,20.09-2.53,5.19-6.27,9.66-11.22,13.4s-11.41,5.61-19.37,5.61c-11.82,0-21.08-4.28-27.78-12.85S0,388.82,0,375.06s3.35-25.28,10.05-33.85c6.7-8.56,16.02-13.15,27.96-13.75v33.48c-4.1.25-7.33,1.75-9.68,4.53s-3.53,6.33-3.53,10.68c0,3.74,1,6.76,2.99,9.05,1.99,2.29,4.86,3.44,8.6,3.44,4.11,0,7.31-1.93,9.59-5.79,2.29-3.86,4.77-9.89,7.42-18.1,2.77-8.21,5.43-14.87,7.96-20s6.22-9.56,11.04-13.3c4.83-3.74,11.04-5.61,18.64-5.61s13.82,1.84,19.73,5.52,10.62,9.03,14.12,16.02c3.5,7,5.25,15.27,5.25,24.8s-1.51,17.62-4.53,24.98v-.02Z"/>
    <path class="st0" d="M1.81,224.46h24.8v33.67h102.27v30.95H26.61v33.67H1.81v-98.29h0Z"/>
    <path class="st0" d="M128.88,153.14l-47.97,26.43v7.42h47.97v30.95H1.81v-51.95c0-10.01,1.75-18.55,5.25-25.61,3.5-7.06,8.3-12.33,14.39-15.84,6.09-3.5,12.88-5.25,20.36-5.25,8.45,0,15.99,2.38,22.63,7.15,6.64,4.77,11.35,11.79,14.12,21.08l50.32-29.32v34.94ZM59.01,186.99v-19.19c0-5.67-1.38-9.92-4.16-12.76-2.77-2.83-6.7-4.25-11.77-4.25s-8.62,1.42-11.4,4.25c-2.77,2.84-4.16,7.09-4.16,12.76v19.19h31.49Z"/>
    <path class="st0" d="M1.81,0l85.08,43.99h41.99v30.95h-41.99L1.81,118.93v-35.12l53.22-24.62L1.81,34.76V0Z"/>
  </g>
  <rect class="st0" x="184.68" y="0" width="5.03" height="841.88"/>
</svg>