<?xml version="1.0" encoding="UTF-8"?>
<svg id="Layer_1" xmlns="http://www.w3.org/2000/svg" version="1.1" viewBox="0 0 800 800">
  <!-- Generator: Adobe Illustrator 29.1.0, SVG Export Plug-In . SVG Version: 2.1.0 Build 142)  -->
  <defs>
    <style>
      .st0 {
        fill: red;
        fill-rule: evenodd;
      }

      .st1 {
        fill: #fff;
      }
    </style>
  </defs>
  <rect class="st1" x="213.7" y="246.6" width="372.6" height="306.8"/>
  <path class="st0" d="M733.3,400c0,184.1-149.2,333.3-333.3,333.3S66.7,584.1,66.7,400,215.9,66.7,400,66.7s333.3,149.2,333.3,333.3ZM299,299c9.8-9.8,25.6-9.8,35.4,0l65.7,65.7,65.7-65.7c9.8-9.8,25.6-9.8,35.4,0,9.8,9.8,9.8,25.6,0,35.4l-65.7,65.7,65.7,65.7c9.8,9.8,9.8,25.6,0,35.4s-25.6,9.8-35.4,0l-65.7-65.7-65.7,65.7c-9.8,9.8-25.6,9.8-35.4,0-9.8-9.8-9.8-25.6,0-35.4l65.7-65.7-65.7-65.7c-9.8-9.8-9.8-25.6,0-35.4Z"/>
</svg>