<?xml version="1.0" encoding="UTF-8"?>
<svg id="Layer_1" data-name="Layer 1" xmlns="http://www.w3.org/2000/svg" version="1.1" viewBox="0 0 433.3 566.7">
  <defs>
    <style>
      .cls-1 {
        fill: none;
        stroke: #fff;
        stroke-linecap: round;
        stroke-linejoin: round;
        stroke-width: 16px;
      }
    </style>
  </defs>
  <path class="cls-1" d="M216.7,16.7v333.3M216.7,350l-83.3-83.3M216.7,350l83.3-83.3M100,350h-16.7c-31.4,0-47.1,0-56.9,9.8-9.8,9.8-9.8,25.5-9.8,56.9v66.7c0,31.4,0,47.1,9.8,56.9,9.8,9.8,25.5,9.8,56.9,9.8h266.7c31.4,0,47.1,0,56.9-9.8,9.8-9.8,9.8-25.5,9.8-56.9v-66.7c0-31.4,0-47.1-9.8-56.9-9.8-9.8-25.5-9.8-56.9-9.8h-16.7"/>
</svg>