<?xml version="1.0" encoding="UTF-8"?>
<svg id="Layer_1" data-name="Layer 1" xmlns="http://www.w3.org/2000/svg" viewBox="0 0 800 511.11">
  <defs>
    <style>
      .cls-1 {
        fill: #fff;
        stroke-width: 0px;
      }
    </style>
  </defs>
  <g id="icons">
    <g id="ui-gambling-website-lined-icnos-casinoshunter">
      <g id="square-filled">
        <path id="left-arrow" class="cls-1" d="M242.04,6.45L7.78,238.7l-1.31,1.2c-4,3.97-6.16,9.08-6.47,14.27v2.75c.31,5.2,2.46,10.3,6.47,14.27l1.15.98,234.42,232.48c8.67,8.6,22.74,8.6,31.41,0,8.67-8.6,8.67-22.55,0-31.15l-200.18-198.54,704.52.02c12.27,0,22.21-9.86,22.21-22.02s-9.94-22.02-22.21-22.02l-699.3-.02L273.45,37.6c8.67-8.6,8.67-22.55,0-31.15-8.67-8.6-22.74-8.6-31.41,0ZM19.66,252.95l238.09,236.14L22.17,255.56v-.09s1.31-1.2,1.31-1.2l1.34-1.33h-5.17Z"/>
      </g>
    </g>
  </g>
</svg>