<?xml version="1.0" encoding="UTF-8"?>
<svg id="Layer_1" data-name="Layer 1" xmlns="http://www.w3.org/2000/svg" viewBox="0 0 800 511.11">
  <defs>
    <style>
      .cls-1 {
        fill: #fff;
        stroke-width: 0px;
      }
    </style>
  </defs>
  <g id="icons">
    <g id="ui-gambling-website-lined-icnos-casinoshunter">
      <g id="square-filled">
        <path id="left-arrow" class="cls-1" d="M557.96,6.45l234.26,232.25,1.31,1.2c4,3.97,6.16,9.08,6.47,14.27v2.75c-.31,5.2-2.46,10.3-6.47,14.27l-1.15.98-234.42,232.48c-8.67,8.6-22.74,8.6-31.41,0-8.67-8.6-8.67-22.55,0-31.15l200.18-198.54-704.52.02c-12.27,0-22.21-9.86-22.21-22.02s9.94-22.02,22.21-22.02l699.3-.02-194.96-193.33c-8.67-8.6-8.67-22.55,0-31.15,8.67-8.6,22.74-8.6,31.41,0ZM780.34,252.95l-238.09,236.14,235.57-233.53v-.09s-1.31-1.2-1.31-1.2l-1.34-1.33h5.17Z"/>
      </g>
    </g>
  </g>
</svg>