<?xml version="1.0" encoding="UTF-8"?>
<svg id="Layer_1" data-name="Layer 1" xmlns="http://www.w3.org/2000/svg" version="1.1" viewBox="0 0 923.1 374.4">
  <defs>
    <style>
      .cls-1 {
        fill: #000;
        stroke-width: 0px;
      }
    </style>
  </defs>
  <g>
    <path class="cls-1" d="M219,2.7l-105.8,275.8h-7.8L0,2.7h9l100.3,264.1L210.4,2.7h8.6Z"/>
    <path class="cls-1" d="M271.9,2.7v275.8h-7.8V2.7h7.8Z"/>
    <path class="cls-1" d="M368.5,271.9c-12.9-6.3-22.9-14.6-30-24.9s-11.2-21.5-12.5-33.5h7.8c1.3,9.1,4.6,18.3,10,27.4,5.4,9.1,13.8,17,25.5,23.5,11.6,6.5,26.6,9.8,44.9,9.8s27.5-2.8,38.8-8.4c11.2-5.6,19.9-13.1,25.9-22.5s9-19.9,9-31.3-3.4-26.7-10.2-35.5c-6.8-8.8-15.2-15.2-25.3-19.4-10.1-4.2-23.6-8.5-40.5-12.9-17.8-4.7-32-9.4-42.7-14.1-10.7-4.7-19.8-11.9-27.2-21.8-7.4-9.8-11.2-23.1-11.2-39.8s3.3-23.3,10-33.9c6.7-10.6,16.2-19,28.6-25.3C381.7,3.1,395.8,0,411.8,0s30.2,2.9,41.9,8.6c11.8,5.8,21,13,27.6,21.8s11,18,13.1,27.6h-7.8c-1.8-7.6-5.6-15.3-11.4-23.1-5.8-7.8-14-14.4-24.7-19.8-10.7-5.4-23.6-8-38.8-8s-25.5,2.6-36.6,7.6c-11.1,5.1-20,12.3-26.6,21.5s-10,20-10,32.3,3.5,27.2,10.4,36.2c6.9,9,15.5,15.7,25.7,20,10.2,4.3,23.8,8.7,40.8,13.1,17.8,4.7,31.9,9.3,42.5,13.9,10.6,4.6,19.5,11.6,26.8,21.2,7.3,9.5,11,22.5,11,39s-3.1,22.6-9.2,33.3c-6.1,10.7-15.4,19.4-27.6,26.1-12.3,6.7-27.2,10-44.7,10s-32.7-3.1-45.6-9.4h0Z"/>
    <path class="cls-1" d="M691.5,2.7v7h-80.3v268.8h-7.8V9.8h-80.3V2.7h168.5Z"/>
    <path class="cls-1" d="M885.5,202.6h-136.3l-29,76h-9L813.4,11h7.8l101.9,267.6h-9l-28.6-76h0ZM882.7,195.5l-65.4-172-65.4,172h130.9Z"/>
  </g>
  <g>
    <path class="cls-1" d="M457.4,366h16.6v8h-26.6v-50.3h10.1v42.3h0Z"/>
    <path class="cls-1" d="M511.9,364.4h-20l-3.3,9.6h-10.6l18.1-50.3h11.7l18.1,50.3h-10.7l-3.3-9.6h0ZM509.2,356.3l-7.3-21-7.3,21h14.5,0Z"/>
    <path class="cls-1" d="M568.8,352.4c1.8,2.3,2.7,4.9,2.7,7.9s-.7,5-2,7.1-3.2,3.6-5.7,4.8c-2.5,1.1-5.5,1.7-8.9,1.7h-21.7v-50.3h20.7c3.4,0,6.3.5,8.8,1.7,2.5,1.1,4.3,2.6,5.6,4.6,1.3,2,1.9,4.2,1.9,6.7s-.8,5.4-2.3,7.3c-1.6,2-3.6,3.4-6.2,4.2,2.8.5,5.2,1.9,7,4.2h0ZM543.4,344.4h9.2c2.4,0,4.2-.5,5.5-1.6s1.9-2.6,1.9-4.6-.7-3.6-1.9-4.7c-1.3-1.1-3.1-1.7-5.5-1.7h-9.2v12.6ZM559.3,364c1.4-1.1,2-2.8,2-4.9s-.7-3.9-2.2-5.1c-1.4-1.2-3.4-1.8-5.8-1.8h-9.9v13.5h10.2c2.5,0,4.4-.6,5.7-1.7h0Z"/>
    <path class="cls-1" d="M590.7,371.1c-3.9-2.2-7.1-5.3-9.4-9.2s-3.5-8.3-3.5-13.3,1.2-9.3,3.5-13.2c2.3-3.9,5.4-7,9.4-9.2s8.2-3.3,13-3.3,9.1,1.1,13,3.3c3.9,2.2,7,5.3,9.3,9.2,2.3,3.9,3.4,8.3,3.4,13.2s-1.1,9.4-3.4,13.3c-2.3,3.9-5.4,7-9.3,9.2-3.9,2.2-8.3,3.3-13,3.3s-9-1.1-13-3.3h0ZM611.7,363.4c2.3-1.4,4.1-3.3,5.4-5.9,1.3-2.5,1.9-5.5,1.9-8.9s-.7-6.3-1.9-8.8c-1.3-2.5-3.1-4.5-5.4-5.8s-5-2-8-2-5.7.7-8,2-4.1,3.3-5.4,5.8-1.9,5.5-1.9,8.8.7,6.3,1.9,8.9c1.3,2.5,3.1,4.5,5.4,5.9s5,2,8,2,5.7-.7,8-2Z"/>
    <path class="cls-1" d="M663.5,373.9l-11.1-19.6h-4.8v19.6h-10.1v-50.3h18.9c3.9,0,7.2.7,9.9,2s4.8,3.2,6.2,5.5c1.4,2.3,2,4.9,2,7.8s-1,6.3-2.9,9-4.8,4.5-8.6,5.5l12,20.4h-11.7,0ZM647.7,346.8h8.4c2.7,0,4.8-.7,6.1-2,1.3-1.3,2-3.2,2-5.5s-.7-4.1-2-5.4c-1.3-1.3-3.4-1.9-6.1-1.9h-8.4v14.8Z"/>
    <path class="cls-1" d="M715.3,364.4h-20l-3.3,9.6h-10.6l18.1-50.3h11.7l18.1,50.3h-10.7l-3.3-9.6h0ZM712.5,356.3l-7.3-21-7.3,21h14.5Z"/>
    <path class="cls-1" d="M771,323.7v8.1h-13.4v42.1h-10.1v-42.1h-13.4v-8.1h36.9Z"/>
    <path class="cls-1" d="M789.4,371.1c-3.9-2.2-7.1-5.3-9.4-9.2s-3.5-8.3-3.5-13.3,1.2-9.3,3.5-13.2c2.3-3.9,5.4-7,9.4-9.2s8.2-3.3,13-3.3,9.1,1.1,13,3.3c3.9,2.2,7,5.3,9.3,9.2,2.3,3.9,3.4,8.3,3.4,13.2s-1.1,9.4-3.4,13.3c-2.3,3.9-5.4,7-9.3,9.2-3.9,2.2-8.3,3.3-13,3.3s-9-1.1-13-3.3h0ZM810.3,363.4c2.3-1.4,4.1-3.3,5.4-5.9,1.3-2.5,1.9-5.5,1.9-8.9s-.7-6.3-1.9-8.8c-1.3-2.5-3.1-4.5-5.4-5.8s-5-2-8-2-5.7.7-8,2-4.1,3.3-5.4,5.8-1.9,5.5-1.9,8.8.7,6.3,1.9,8.9c1.3,2.5,3.1,4.5,5.4,5.9s5,2,8,2,5.7-.7,8-2Z"/>
    <path class="cls-1" d="M862.2,373.9l-11.1-19.6h-4.8v19.6h-10.1v-50.3h18.9c3.9,0,7.2.7,9.9,2s4.8,3.2,6.2,5.5c1.4,2.3,2,4.9,2,7.8s-1,6.3-2.9,9-4.8,4.5-8.6,5.5l12,20.4h-11.7,0ZM846.3,346.8h8.4c2.7,0,4.8-.7,6.1-2,1.3-1.3,2-3.2,2-5.5s-.7-4.1-2-5.4c-1.3-1.3-3.4-1.9-6.1-1.9h-8.4v14.8Z"/>
    <path class="cls-1" d="M923.1,323.7l-17,32.8v17.5h-10.1v-17.5l-17.1-32.8h11.4l10.8,23,10.7-23h11.2,0Z"/>
  </g>
  <g>
    <g>
      <path class="cls-1" d="M218.1,441.2l-105.8,275.8h-7.8L-.9,441.2h9l100.3,264.1,101.1-264.1h8.6Z"/>
      <path class="cls-1" d="M271,441.2v275.8h-7.8v-275.8h7.8Z"/>
      <path class="cls-1" d="M367.6,710.4c-12.9-6.3-22.9-14.6-30-24.9s-11.2-21.5-12.5-33.5h7.8c1.3,9.1,4.6,18.3,10,27.4,5.4,9.1,13.8,17,25.5,23.5,11.6,6.5,26.6,9.8,44.9,9.8s27.5-2.8,38.8-8.4c11.2-5.6,19.9-13.1,25.9-22.5s9-19.9,9-31.3-3.4-26.7-10.2-35.5c-6.8-8.8-15.2-15.2-25.3-19.4-10.1-4.2-23.6-8.5-40.5-12.9-17.8-4.7-32-9.4-42.7-14.1-10.7-4.7-19.8-11.9-27.2-21.8-7.4-9.8-11.2-23.1-11.2-39.8s3.3-23.3,10-33.9c6.7-10.6,16.2-19,28.6-25.3,12.4-6.3,26.6-9.4,42.5-9.4s30.2,2.9,41.9,8.6c11.8,5.8,21,13,27.6,21.8s11,18,13.1,27.6h-7.8c-1.8-7.6-5.6-15.3-11.4-23.1-5.8-7.8-14-14.4-24.7-19.8-10.7-5.4-23.6-8-38.8-8s-25.5,2.6-36.6,7.6c-11.1,5.1-20,12.3-26.6,21.5s-10,20-10,32.3,3.5,27.2,10.4,36.2c6.9,9,15.5,15.7,25.7,20,10.2,4.3,23.8,8.7,40.8,13.1,17.8,4.7,31.9,9.3,42.5,13.9,10.6,4.6,19.5,11.6,26.8,21.2,7.3,9.5,11,22.5,11,39s-3.1,22.6-9.2,33.3c-6.1,10.7-15.4,19.4-27.6,26.1-12.3,6.7-27.2,10-44.7,10s-32.7-3.1-45.6-9.4h0Z"/>
      <path class="cls-1" d="M690.6,441.2v7h-80.3v268.8h-7.8v-268.8h-80.3v-7.1h168.5Z"/>
      <path class="cls-1" d="M884.6,641.1h-136.3l-29,76h-9l102.2-267.6h7.8l101.9,267.6h-9l-28.6-76h0ZM881.8,634l-65.4-172-65.4,172h130.9Z"/>
    </g>
    <g>
      <path class="cls-1" d="M456.5,804.5h16.6v8h-26.6v-50.3h10.1v42.3h0Z"/>
      <path class="cls-1" d="M511,802.9h-20l-3.3,9.6h-10.6l18.1-50.3h11.7l18.1,50.3h-10.7l-3.3-9.6h0ZM508.2,794.8l-7.3-21-7.3,21h14.5,0Z"/>
      <path class="cls-1" d="M567.9,790.9c1.8,2.3,2.7,4.9,2.7,7.9s-.7,5-2,7.1-3.2,3.6-5.7,4.8c-2.5,1.1-5.5,1.7-8.9,1.7h-21.7v-50.3h20.7c3.4,0,6.3.5,8.8,1.7,2.5,1.1,4.3,2.6,5.6,4.6,1.3,2,1.9,4.2,1.9,6.7s-.8,5.4-2.3,7.3c-1.6,2-3.6,3.4-6.2,4.2,2.8.5,5.2,1.9,7,4.2h0ZM542.5,782.9h9.2c2.4,0,4.2-.5,5.5-1.6s1.9-2.6,1.9-4.6-.7-3.6-1.9-4.7c-1.3-1.1-3.1-1.7-5.5-1.7h-9.2v12.6ZM558.4,802.5c1.4-1.1,2-2.8,2-4.9s-.7-3.9-2.2-5.1c-1.4-1.2-3.4-1.8-5.8-1.8h-9.9v13.5h10.2c2.5,0,4.4-.6,5.7-1.7h0Z"/>
      <path class="cls-1" d="M589.8,809.6c-3.9-2.2-7.1-5.3-9.4-9.2s-3.5-8.3-3.5-13.3,1.2-9.3,3.5-13.2c2.3-3.9,5.4-7,9.4-9.2s8.2-3.3,13-3.3,9.1,1.1,13,3.3c3.9,2.2,7,5.3,9.3,9.2,2.3,3.9,3.4,8.3,3.4,13.2s-1.1,9.4-3.4,13.3c-2.3,3.9-5.4,7-9.3,9.2-3.9,2.2-8.3,3.3-13,3.3s-9-1.1-13-3.3h0ZM610.8,801.9c2.3-1.4,4.1-3.3,5.4-5.9,1.3-2.5,1.9-5.5,1.9-8.9s-.7-6.3-1.9-8.8c-1.3-2.5-3.1-4.5-5.4-5.8s-5-2-8-2-5.7.7-8,2-4.1,3.3-5.4,5.8-1.9,5.5-1.9,8.8.7,6.3,1.9,8.9c1.3,2.5,3.1,4.5,5.4,5.9s5,2,8,2,5.7-.7,8-2Z"/>
      <path class="cls-1" d="M662.6,812.4l-11.1-19.6h-4.8v19.6h-10.1v-50.3h18.9c3.9,0,7.2.7,9.9,2s4.8,3.2,6.2,5.5c1.4,2.3,2,4.9,2,7.8s-1,6.3-2.9,9-4.8,4.5-8.6,5.5l12,20.4h-11.7,0ZM646.8,785.3h8.4c2.7,0,4.8-.7,6.1-2,1.3-1.3,2-3.2,2-5.5s-.7-4.1-2-5.4c-1.3-1.3-3.4-1.9-6.1-1.9h-8.4v14.8Z"/>
      <path class="cls-1" d="M714.4,802.9h-20l-3.3,9.6h-10.6l18.1-50.3h11.7l18.1,50.3h-10.7l-3.3-9.6h0ZM711.6,794.8l-7.3-21-7.3,21h14.5Z"/>
      <path class="cls-1" d="M770,762.2v8.1h-13.4v42.1h-10.1v-42.1h-13.4v-8.1h36.9Z"/>
      <path class="cls-1" d="M788.5,809.6c-3.9-2.2-7.1-5.3-9.4-9.2s-3.5-8.3-3.5-13.3,1.2-9.3,3.5-13.2c2.3-3.9,5.4-7,9.4-9.2s8.2-3.3,13-3.3,9.1,1.1,13,3.3c3.9,2.2,7,5.3,9.3,9.2,2.3,3.9,3.4,8.3,3.4,13.2s-1.1,9.4-3.4,13.3c-2.3,3.9-5.4,7-9.3,9.2-3.9,2.2-8.3,3.3-13,3.3s-9-1.1-13-3.3h0ZM809.4,801.9c2.3-1.4,4.1-3.3,5.4-5.9,1.3-2.5,1.9-5.5,1.9-8.9s-.7-6.3-1.9-8.8c-1.3-2.5-3.1-4.5-5.4-5.8s-5-2-8-2-5.7.7-8,2-4.1,3.3-5.4,5.8-1.9,5.5-1.9,8.8.7,6.3,1.9,8.9c1.3,2.5,3.1,4.5,5.4,5.9s5,2,8,2,5.7-.7,8-2Z"/>
      <path class="cls-1" d="M861.3,812.4l-11.1-19.6h-4.8v19.6h-10.1v-50.3h18.9c3.9,0,7.2.7,9.9,2s4.8,3.2,6.2,5.5c1.4,2.3,2,4.9,2,7.8s-1,6.3-2.9,9-4.8,4.5-8.6,5.5l12,20.4h-11.7,0ZM845.4,785.3h8.4c2.7,0,4.8-.7,6.1-2,1.3-1.3,2-3.2,2-5.5s-.7-4.1-2-5.4c-1.3-1.3-3.4-1.9-6.1-1.9h-8.4v14.8Z"/>
      <path class="cls-1" d="M922.2,762.2l-17,32.8v17.5h-10.1v-17.5l-17.1-32.8h11.4l10.8,23,10.7-23h11.2,0Z"/>
    </g>
  </g>
</svg>