<?xml version="1.0" encoding="UTF-8"?>
<svg xmlns="http://www.w3.org/2000/svg" version="1.1" fill="#fff" viewBox="0 0 595.3 115.2">
  <defs>
    <style>
      .cls-1 {
        isolation: isolate;
      }
    </style>
  </defs>
  <!-- Generator: Adobe Illustrator 28.6.0, SVG Export Plug-In . SVG Version: 1.2.0 Build 709)  -->
  <g>
    <g id="Layer_1">
      <g id="Layer_1-2" data-name="Layer_1">
        <g id="Layer_1-2">
          <g id="Layer_1-2-2" data-name="Layer_1-2">
            <g id="Layer_1-2-2">
              <g>
                <g class="cls-1">
                  <g class="cls-1">
                    <g class="cls-1">
                      <path d="M21.2,16.8l29,43.8,29.2-43.9c1.9-2.9,4.5-4.4,7.7-4.4,5.4,0,8.2,2.1,8.2,6.2s-.5,3.1-2.1,5.4l-34.5,49.5c-1.9,2.7-4.7,4.1-8.2,4.1s-6.3-1.4-8.2-4.1L7.7,24c-1.6-2.3-2.2-3.7-2.2-5.4,0-4.1,2.9-6.2,8.2-6.2s5.5,1.5,7.4,4.5h.1Z"/>
                      <path d="M106,18.8c0-4.2,2.7-6.4,8-6.4s7.7,2.1,7.7,6.4v52.4c0,4.2-2.6,6.4-7.9,6.4s-7.8-2.1-7.8-6.4V18.8h0Z"/>
                      <path d="M208.2,60.3c0,11.1-9.8,16.7-29.5,16.7h-37.1c-4.7,0-7.1-2.1-7.1-6.2s2.4-6,7.1-6h37.1c9.2,0,13.8-1.9,13.8-5.8v-3.8c0-3.5-4-5.2-12-5.2h-19c-17.7,0-26.6-5-26.6-15v-6c0-10.8,9.1-16.3,27.2-16.3h8.7c4.7,0,6.9,2.1,6.9,6.1s-2.3,6.1-6.9,6.1h-8.7c-7.7,0-11.5,1.6-11.5,4.8v3.8c0,2.9,3.5,4.4,10.6,4.4h17.7c19.5,0,29.2,5.5,29.2,16.3v6h0Z"/>
                      <path d="M226.4,25.1h-21.6c-4.7,0-7.1-2.1-7.1-6.1s2.3-6.1,7.1-6.1h59c4.7,0,7.1,2.1,7.1,6s-2.4,6.2-7.1,6.2h-21.6v46.1c0,4.2-2.6,6.4-7.8,6.4s-8-2.1-8-6.4V25.1h0Z"/>
                      <path d="M326.5,61.7h-43.2l-7.5,11.3c-1.9,2.9-4.5,4.5-7.6,4.5-5.4,0-8.4-2.1-8.4-6.2s.5-2.9,2.2-5.4l34.5-49.5c1.9-2.7,4.7-4.1,8.2-4.1s6.2,1.4,8.1,4.1l34.5,49.5c1.6,2.4,2.2,3.7,2.2,5.4,0,4.1-2.8,6.2-8.2,6.2s-5.4-1.5-7.3-4.5l-7.5-11.3h0ZM290.9,50.3h27.9l-14-21-13.9,21Z"/>
                    </g>
                  </g>
                </g>
                <g class="cls-1">
                  <g class="cls-1">
                    <g class="cls-1">
                      <path d="M274.5,109.7c-6.1,0-9.1-1.9-9.1-5.9v-12.9c0-1.4.8-2.1,2.5-2.1s2.5.7,2.5,2.1v12.7c0,1.4,1.5,2.1,4.4,2.1h12.1c1.5,0,2.3.6,2.3,1.9s-.8,2-2.3,2h-12.4Z"/>
                      <path d="M313.3,104.8h-13.9l-2.4,3.7c-.6.9-1.4,1.4-2.5,1.4-1.7,0-2.7-.7-2.7-2s.2-.9.7-1.7l11.1-16c.6-.9,1.5-1.3,2.7-1.3s2,.5,2.6,1.3l11.1,16c.5.8.7,1.2.7,1.7,0,1.3-.9,2-2.7,2s-1.7-.5-2.4-1.4l-2.4-3.7h0ZM301.9,101.1h9l-4.5-6.8-4.5,6.8h0Z"/>
                      <path d="M349.8,105c0,3.2-2.7,4.8-8,4.8h-15.4c-1.4,0-2.2-.6-2.2-1.8v-17c0-1.2.8-1.8,2.2-1.8h14.8c5.5,0,8.2,1.7,8.2,5.2v1.6c0,1.4-.7,2.5-2.1,3.4,1.6.9,2.4,2.2,2.4,3.7v2.1h0v-.2ZM344.4,94.5c0-1-1-1.5-3.1-1.5h-11.8c-.2,0-.3,0-.3.3v4.2h12.1c2.1,0,3.1-.5,3.1-1.4v-1.5h0ZM344.7,102.6c0-1-1-1.5-3.1-1.5h-12.3v4.4c0,.2.1.3.3.3h12c2.1,0,3.1-.5,3.1-1.4v-1.8h0Z"/>
                    </g>
                  </g>
                </g>
              </g>
            </g>
          </g>
        </g>
        <g>
          <path d="M503.8.3c-1.6,0-3.1.4-4.6.8-.4.2-.9.2-1.4.3-1.8.2-3.6.5-5.4,1-2.4.6-4.7,1.4-6.8,2.6-.5.3-1.3.7-1.8.9-2,.9-3.7,2.3-5,4-.3.3-.6.6-1,.8-1.3.6-2.5,1.5-3.5,2.6-.5.5-1,1-1.6,1.4-2.2,1.2-4,3-5,5.3-.2.7-.7,1.3-1.4,1.7-.7.5-1.4,1.1-2,1.8-.8.7-1.4,1.6-1.8,2.6-.6,1.2-1,2.5-1.1,3.8,0,.3-.2.6-.9,1.4-1.7,1.8-2.8,4.1-3.2,6.5,0,.6-.3,1.6-.4,2.3-.9,4.2-1.2,8.5-1,12.8,0,1.5.2,3.1.3,3.5.1.8.2,1.6.2,2.4,0,1.7.4,3.4,1.2,4.9.2.5.4.9.5,1.4,0,.6,1.5,4.4,3.1,7.6.8,1.6,1,2,1.3,2.1s.4.3.7,1c.4,1.3,1.1,2.4,2,3.4s1.9,1.9,3.1,2.7c.4.3.7.7.9,1.2.6,1.4,1.5,2.7,2.7,3.8l.9.9h-.6c-.3,0-1.1.2-1.7.2-6,.6-12,1.5-18,2.9-4.7,1.1-10.9,2.9-10.7,3.2.1,0,2.7,1,6.3,2.3.6.2,1.2.4,1.7.7,0,0-.5,1.6-1.2,3.5s-1.2,3.4-1.1,3.4c.8-.2,1.6-.4,2.3-.7,7.2-2.2,14.6-3.7,22.1-4.3,8.4-.6,16.9.2,25,2.3.8.2,1.6.4,1.6.4-.8-.9-1.6-1.8-2.5-2.7l-2.7-2.7.6-.2c1.8-.5,3.6-.8,5.4-1.1,1.7-.3,2.5-.3,6.3-.3s4.3,0,6.4.3c2,.3,4,.7,5.9,1.3-.8,1-1.7,1.9-2.6,2.7-1.4,1.4-2.6,2.6-2.5,2.6s1-.2,2.2-.6c6.6-1.7,13.4-2.5,20.2-2.4,9,.4,17.8,1.9,26.4,4.5.8.3,1.5.5,2.3.7-.3-1.2-.7-2.3-1.1-3.5-.4-1.1-.8-2.3-1.1-3.5,0,0,1.8-.7,4-1.4s3.9-1.4,4-1.4c.2-.2-5.5-2-9.4-2.9-6.4-1.6-12.9-2.6-19.5-3.3l-2.9-.2.7-.5c1.2-1.1,2.2-2.4,2.9-3.8.6-1.2.7-1.4,1.4-1.8,1.3-.9,2.5-2,3.4-3.3.7-1,1.2-2.2,1.6-3.4,0,0,0-.2.3-.2s.5-.5,1.4-2.1c1.2-2.5,3-6.9,3.1-7.5,0-.5.3-1,.5-1.4.8-1.4,1.1-3,1.1-4.6s0-1.2,0-1.8c.2-.4.4-3.2.4-6.9s-.2-6.4-.9-9.9c-.2-1.1-.5-2.4-.5-2.9-.3-2.4-1.5-4.6-3.2-6.3-.7-.7-.8-.9-.9-1.6-.4-3.4-2.3-6.4-5.1-8.3-.6-.4-.8-.6-1.3-1.8-1-2.2-2.7-3.9-4.8-5-.6-.3-1.1-.8-1.5-1.3-1-1-2.1-1.9-3.4-2.6-.6-.4-1.2-.8-1.6-1.4-1.1-1.3-2.4-2.4-3.9-3.2-.6-.3-1.4-.7-1.6-.8-3.2-1.7-6.7-3-10.3-3.6-.8-.2-2-.4-2.6-.6-1.8-.5-3.6-.8-5.5-.9-1.1,0-2.1,0-2.2,0s-.9,0-1.8,0v.2ZM510.5,1.9c1.1,0,2.2.5,3.2.9,0,0,0,.7-.5,1.9-1.6,4.5-3.4,8.1-5,9.7-.6.6-1.3,1-2.1,1.1-1.6,0-3.5-1.8-5.3-5.1-1.2-2.1-2.9-6.9-2.7-7.3s2.6-1.2,4.8-1.4c2.5-.2,5,0,7.4.2h.2ZM496.9,3.4c.3,2,2.6,7.6,4.1,9.8.3.5.5.8.4.9-1.7-.5-3.4-1.1-5-1.8-3.6-1.5-8-4.1-9.8-5.6l-.6-.5.8-.4c2.5-1.2,5.2-2,7.9-2.6,2.1-.4,2-.4,2.1.3h.1ZM518.4,3.7c1,.3,2.4.7,3.2,1,1.4.6,3.2,1.4,3.2,1.5-1,.9-2.1,1.8-3.3,2.5-3,1.8-6.3,3.4-9.6,4.6-.4,0-.7.2-1.1.3,0,0,.1-.4.4-.9,1.4-2.5,2.6-5.1,3.4-7.8.3-.9.6-1.8.6-1.9,0-.2.7,0,3.2.6h0ZM485.8,7.6c.8.6,1.6,1.2,2.4,1.8.5.3,1,.6,1.4,1,0,.3-3.3,2.4-3.7,2.4,0-.4.2-.8.3-1.2.6-1.8.3-2.1-1.4-2.3-1.3,0-2.7,0-4,.3-.7.2,1.4-1.6,2.6-2.3.4-.2.8-.4,1.3-.6.4.2.8.5,1.1.8h0ZM526.9,7.1c1.1.6,2.2,1.3,3.1,2.1q.5.5,0,.4c-1.3-.2-2.7-.3-4-.3s-1.2.2-1.4.4c-.4.4-.4.7,0,2,0,.3.2.7.3,1.1-.4,0-.8-.3-1.1-.5-1-.5-2.6-1.7-2.5-1.9.5-.4,1-.7,1.5-1.1.8-.5,1.8-1.3,2.3-1.7.3-.3.6-.5,1-.8.3,0,.5.2.8.3h0ZM484.6,10.6h.6c0,0-.3,1-.3,1-.2.6-.5,1.2-.8,1.8l-.4.9-1.4.7c-1.7.9-3.1,2.2-4.2,3.7-.7.9-1.2,1.4-1.2,1.1s.1-.5.2-.7c.4-1.2.7-2.5.7-3.9s0-1.4-.2-1.8-.4-.3-1-.2h-.7l.5-.3c1.2-.9,2.5-1.5,3.9-1.9s2.9-.6,4.4-.5h-.1ZM529.7,10.9c1.7.3,3.3,1,4.7,2.1l.5.4h-.6c-.3-.2-.7,0-1,0-.3.3-.3.4-.3,1.5s.3,2.9.7,4.2c.3.7.3.8,0,.7-.3-.2-.5-.4-.7-.7-1.1-1.8-2.8-3.3-4.7-4.2q-1.1-.5-1.5-1.5c-.4-.9-.8-1.8-1-2.7,0-.3,2.4-.3,4,0h-.1ZM495.8,13.4c.4,0,.8.3,1.1.6,0,.3-2.3,2.1-3.3,2.6s-2,.8-3.1,1h-.6c0,0,.5-1,.5-1,.5-1.2.6-2,.3-2.4s-1.8-.6-3-.5h-.8c.2,0,.5-.3.7-.4.6-.3,1.1-.7,1.6-1.1.4-.4.9-.6,1.4-.9q.5-.2,2.2.7c1,.5,2.3,1.1,2.9,1.4h0ZM520.5,11.5c.4.2.8.5,1.1.8.5.4,1,.7,1.5,1,.4.2.8.4.8.5s-.7,0-1.6,0c-2.5,0-2.7.4-1.9,2.5.2.4.3.9.4,1.3-.2.2-2.3-.5-3.3-1s-3.2-2.1-3.5-2.5c0-.2,0-.3.9-.6.6-.2,1.8-.8,2.7-1.3,1.9-.9,2.3-1,2.9-.7h0ZM501.7,15.5c.9.3,1.7.6,2.6.9,1.4.7,3.1.5,4.3-.5.7-.4,1.5-.7,2.2-.9l1.8-.6,1.1,1c1.9,1.9,4.5,3.1,7.2,3.4.8,0,.9,0,1.2.7,1.2,1.7,2.7,3.1,4.5,4.1l.9.5.6,1.3c.6,1.3,1.4,2.5,2.4,3.5.6.7.9,1,.9,1.3,0,1.2.4,2.4.8,3.6.6,1.3,1.4,2.6,2.4,3.6l.6.6-.2,1.5c-.2,1.7,0,3.5.6,5.1.2.5.2.8,0,.9-.4.2-.5.5-.6,2.5-.2,4-1.1,7.8-2.7,11.5-.7,1.7-.7,1.8-.5,2.1s.2.3-.5.9c-1.8,1.4-3.3,3.3-4.1,5.4l-.3,1-1.3.6c-2,.9-3.8,2.3-5.1,4.1-.3.5-.4.5-1.1.6-.8,0-1.5.2-2.2.4-.8.2-1.5.4-1.6.4-.4,0-2.1-5.8-3.1-10.7-1.8-8.7-2.8-17.6-3.2-26.5,0-1.2,0-2.4-.3-3.5q-.2-.4.5-.7c1-.6,1.9-1.4,2.5-2.4.4-.7.9-2.6.7-2.8-1.1,0-2.2-.2-3.3,0-3,0-3.2,0-2.9-.2,1-.7,1.4-2.8.9-4.8-.3-1.1-1.2-3.3-1.4-3.3-.5.9-.9,1.8-1.2,2.8-.4,1.2-.5,2.5-.3,3.8.2.5.4.9.7,1.2l.5.6h-6.5v.9c.3,1.9,1.5,3.6,3.2,4.4.5.3.8.5.7.5-.3,0-.5,1-.5,3s-.4,8.3-1.1,14.2c-.8,7.5-2.3,15-4.5,22.2-.5,1.7-.7,2-.9,1.9-1.3-.5-2.7-.9-4.1-1.2l-1.3-.2-.4-.6c-1.5-2-3.5-3.4-5.8-4.3-.4,0-.5-.3-.6-.5-.8-2.4-2.2-4.5-4.2-6-.7-.5-.9-.8-.6-1s.2-.5-.4-1.9c-.9-2.2-1.6-4.4-2.1-6.7-.5-2.3-.7-4.7-.7-7.1,0,0-.2-.2-.3-.2l-.3-.2.3-.8c.6-1.9.8-3.9.5-5.9v-.8c-.1,0,.6-.8.6-.8,1.7-1.8,2.7-4.1,3-6.6,0-.7.3-1.4.9-1.8,1.1-1.1,1.9-2.4,2.5-3.8.3-.7.6-1.1.8-1.1,1.2-.6,2.3-1.3,3.2-2.1.6-.5,1.1-1.1,1.6-1.7l.8-1.1,1.1-.2c2.5-.4,4.9-1.5,6.8-3.3l1.1-1,.9.3c.5.2,1.6.6,2.5.8l-.3-.2ZM476.8,15.5c-.2,2.4-1.3,5.6-2,5.8-1.3.5-2.5,1.1-3.6,1.9-.6.4-1.1.8-1.2.8s0-.2,0-.4c-.1-1-.4-2-.9-2.9l-.3-.3.4-.7c1.4-2.4,3.6-4.2,6.3-4.9.4,0,.8-.2,1.2-.3.2,0,.3.3.2,1h-.1ZM535.6,14.8c1.8.6,3.4,1.6,4.8,2.9.7.8,1.3,1.7,1.8,2.6,0,.2,0,.3-.3.4-.3.5-.6,1.1-.6,1.7-.2.8-.4,1.5-.4,1.6-.2,0-.4-.3-.6-.4-1-.8-2.1-1.4-3.3-1.9-.4-.2-.8-.4-1.1-.7-.7-.9-1.6-4.1-1.6-5.7s0-1,1.5-.5h-.2ZM489.7,15.1c-.4,1.3-1,2.5-1.7,3.7-.8,1.2-1.9,2.3-3.1,3.2-.9.6-1.1.7-1,.3,0,0,.1-.7.2-1.2.3-2.4.1-2.9-1.3-2.8-.7,0-1.3.2-2,.4-.4,0-.8.2-1.2.3.3-.4.6-.8,1-1.1,2-2,4.7-3,7.5-2.9,1.4,0,1.6,0,1.6.2h0ZM525.2,15.1c2.1.4,3.9,1.4,5.4,2.9.3.3.6.6.8.9-.3,0-.6,0-.9-.2-2.5-.8-3.4-.8-3.7,0,0,1,0,2,.2,3v.5c-.9-.4-1.7-1-2.4-1.7-1.2-1.2-2.2-2.6-2.9-4.2-.8-1.9-.9-1.7.9-1.7s1.7,0,2.6.2h0v.2ZM482.9,20.4c-.2,2.4-1.1,4.8-2.6,6.7-.6.7-.8.7-.8-.3s-.2-1.4-.6-1.6c-.3,0-.5,0-1.3.2-.3,0-.7.2-1,.3v-3.4l.8-.7c1.4-1.1,4.1-2.3,5.4-2.3s.3,0,.2,1h-.1ZM529.8,19.8c1.5.4,2.9,1.1,4.1,2.1.7.5.8.7.7,1s0,.9-.2,1.7c0,1.2,0,1.4-.3,1.3-.6-.4-1.3-.5-2-.5-.5.2-.6.5-.7,1.6,0,.3,0,.6-.2.9-.2,0-1.4-1.8-1.9-2.9-.7-1.5-1.1-3-1.3-4.6q0-.9.3-.9c.5,0,1.1.2,1.6.4h0ZM468.6,22.7c.7,2.6.5,5.4-.5,7.9-.4.7-.9,1.3-1.5,1.8-.4.4-.8.7-1.2,1,0,0-.1-.5-.3-1-.4-1.4-1-2.9-1.4-3.1-.2,0-.5-.2-.7,0-.3,0-.4,0-.3-.5.4-1.9,1.4-3.6,2.7-4.9.9-.9,2.7-2.2,2.9-2.1.2.3.3.6.4.9h-.1ZM544.2,22.8c2,1.5,3.4,3.7,4,6.1,0,.4,0,.5-.2.4-.9-.3-1.2.2-2.1,2.8-.3.9-.6,1.4-.6,1.4-.3-.4-.7-.8-1.1-1.1-.5-.4-.9-.9-1.3-1.4-1.3-2.3-1.5-5.6-.5-8.8v-.5c0,0,.6.3.6.3.2.2.8.5,1.2.8h0ZM475.1,23.3v3.4l-.6.4c-1.5,1.1-2.7,2.4-3.6,4l-.4.7-.3-.5c-.1-.2-.3-.4-.6-.6-.2,0-.2-.4,0-1.2.2-.8.4-1.6.4-2.4.2-1.5.2-1.6.6-2,.9-.8,2-1.5,3.1-2,.4-.2.7-.3,1.1-.5,0,.2.2.4.2.6h0ZM536.9,23c1.2.6,2.3,1.3,3.3,2.2.4.4.4.5.5,1.8,0,.8.2,1.6.4,2.4l.3,1.1h-.3c-.3.3-.4.5-.6.8l-.2.5-.6-1.1c-.8-1.4-1.9-2.6-3.2-3.6l-1-.7v-1.7c.2-1.6.2-2.2.4-2.2.3,0,.6.2.9.4h0ZM478.4,28.7c0,1,0,2.1-.3,3.1-.4,1.5-1.1,3-2.1,4.2l-.6.7-.3-.7c-.3-.9-.8-1.8-1.3-2.6-.4-.4-.9-.3-1.7.4-.3.2-.6.4-.9.6v-.7c.4-1.5,1.1-3,2.1-4.2,1.3-1.4,4.5-3.4,4.9-3,.1.7.2,1.4.1,2.1h0ZM534,27.1c1.4.7,2.7,1.6,3.7,2.8,1.2,1.4,2.3,4.1,1.9,4.5,0,0-.4,0-.9-.5-.8-.7-1.3-.8-1.7-.4-.6.9-1,1.8-1.4,2.8,0,.2-.2.4-.2.4-.2,0-1.4-1.7-1.9-2.6-.7-1.4-1.1-2.9-1.1-4.5s0-3.1.2-3.1c0,0,.7.3,1.3.6h.1ZM463.6,31.7c.8,2.1,1.1,4.4.7,6.6-.2,1-.9,2.9-1.1,2.9s-3.9-1.9-4.5-2.3c-.3-.2-.3-.3-.2-1,.2-1.6.8-3.2,1.7-4.5.7-1,2.7-3,2.9-2.9.2.4.4.7.5,1.1h0ZM549.6,32c1.6,1.8,2.8,4.4,2.8,6.2s0,.6-.6.9c-1.4.8-2.8,1.5-4.2,2-.5-1.1-.9-2.2-1.1-3.4-.3-2.2,0-4.4.9-6.4l.4-.9.6.5c.4.3.9.7,1.2,1.1h0ZM543.8,33.8l1.4,1.3v1.6c0,1.5.5,2.9,1.1,4.3l.3.8-.8.4c-.4.2-1.2.5-1.7.7l-1,.4v-1.2c-.2-2-.9-3.9-2-5.6-.5-.7-.5-1.1,0-2.9s.5-1.6,1-1.4c.6.5,1.2,1,1.7,1.6ZM469.6,33.2c.2.6.4,1.4.5,1.8l.2.7-.7,1.3c-1,1.6-1.6,3.5-1.7,5.5,0,.6,0,.7-.2.7s-3.2-1.3-3.3-1.4c0-.4.2-.7.4-1,.6-1.3.8-2.7.9-4.1,0-.5,0-1,.3-1.5.6-.9,2.9-3,3.3-3s.3.5.5,1.1h-.2ZM473.8,35.6c.8,1.6,1.1,3.3,1.1,5s-.1,2.7-.6,3.9c-.2.5-.3.6-.5.6l-1.9-.6c-.9-.3-1.9-.6-2.2-.7l-.6-.2v-1.5c0-.9,0-1.8.4-2.6.2-.7.5-1.4.9-2,.5-.8,2.5-3.2,2.8-3.2.3.4.5.8.6,1.2h0ZM538.9,35.5c2,2.1,3.2,5.1,3,7.5v.7l-2.2.6c-1.2.3-2.3.7-2.5.7q-.4,0-.8-1.1c-.4-1.1-.4-1.3-.4-3.3s0-2.2.4-3.3c.2-.6.6-1.5.8-2q.5-1,1.6.2h.1ZM506.6,42.6c1.9,16.6,4,31.8,5,34.4.1.3,0,.5-.3.9l-.4.5-.6-.2c-2.9-1-6-.8-8.8.4-.7.4-.9.3-1.2,0s-.2-.4.1-1.6c1.1-4.1,3-17,5.4-37.7,0-.6.1-1.2.3-1.9,0,0,.3,2.5.6,5.2h-.1ZM461.4,41.8c3,1.6,6.1,2.9,9.4,3.9,1.1.3,2.1.7,2.1.7,0,0-2.4,1-4.4,1.4-2.8.7-5.8,1.1-8.7,1.2h-2.5v-.5c0-1.4.9-8.3,1-8.3s1.4.7,3.1,1.6h0ZM552.8,40.9c.4,2.1.6,4.2.8,6.3v1.8h-1.6c-4.3,0-8.5-.8-12.5-2.1-.8-.3-1.5-.5-1.5-.6.2,0,.5-.2.8-.3,3.7-1,7.2-2.4,10.6-4.2,1.7-.9,3.2-1.6,3.3-1.6,0,.2.2.4.2.7h0ZM474.6,48.8c0,1.1.2,2.1.4,3.2.5,2.9.5,2.6-.2,2.8-4.5,1.4-9.2,2-13.9,1.7-1.2,0-2.4-.2-2.7-.3h-.6v-1c0-.5-.1-1.8-.2-2.9v-2c-.1,0,1.1,0,1.1,0,4.9,0,9.7-.9,14.3-2.5.9-.4,1.7-.6,1.7-.6,0,0,.1.5.2,1.5h0ZM538,47.8c4.3,1.6,8.8,2.5,13.3,2.6h2.4v2.4c0,1.3,0,2.6-.2,2.9,0,.5,0,.5-.7.6-5.2.6-10.5.2-15.5-1.2-.5,0-1.1-.3-1.6-.5v-1c.3-1.7.6-3.4.7-5.1,0-.7,0-1.3,0-1.3l1.5.5h0ZM476.2,56.9c.4,1.3.9,2.7,1.5,3.9.2.2-1.4,2.3-3.3,4.3-2.1,2.4-4.6,4.4-7.3,6.1-1.3.8-2.7,1.4-4.1,2-.1,0-.9-1.9-1.6-3.3-1.2-2.7-1.8-4.4-1.6-4.5,4.7-1.5,7-2.6,10.4-4.9,1.6-1,3-2.3,4.3-3.6.3-.4.7-.7,1.1-1.1.2.3.4.6.5,1h.1ZM535.5,56c.9,1.1,1.9,2.1,3,3,3.5,2.8,7.5,4.8,11.8,6.2.9.2.9.3.9.6,0,.5-1.5,3.9-2.4,5.7-.7,1.4-.8,1.7-1,1.6-1.7-.7-3.4-1.6-5-2.6-3.6-2.5-6.7-5.5-9.2-9.1l-.3-.4.6-1.5c.3-.8.7-1.9.9-2.4s.3-1,.4-1.1.5,0,.5,0h-.2ZM472.5,57.2c-.6.6-1.2,1.1-1.9,1.5-.3-.4-.5-.8-.6-1.3,0,0,.7-.2,1.4-.4s1.5-.3,1.5-.4c-.1.2-.3.4-.5.5h.1ZM539.8,57.1c.3,0,.7.2,1,.3,0,.5-.2.9-.5,1.3-.7-.4-1.3-.9-1.9-1.5l-.5-.4h.5c.3,0,.9.2,1.4.3ZM461.1,57.8h1.5v1.2c.1.7.3,1.5.5,2.2.1.4.3.9.3,1.4s-.2.3-.5.4c-1.2.5-2.4.9-3.7,1.1-.3,0-1.2-1.9-1.5-3.1-.2-.7-.3-1.5-.3-2.3v-1.2h1c.5.2,1.7.2,2.5.3h.2ZM469.2,58.5c.3.7.3.9.2,1.1-.5.5-4.6,2.8-4.7,2.6s-.2-.4-.3-.8c-.4-.9-.5-1.9-.6-2.9v-.7h1.1c.6,0,1.4,0,2,0s1.2,0,1.4,0h.6l.4.9h-.1ZM545.5,57.8c1.1,0,1.6,0,1.6.3.2.5-.5,3.7-.9,4.1-1.3-.5-2.5-1.1-3.6-1.8,0,0-.3-.2-.5-.3-.2,0-.3-.2-.5-.3-.4-.3-.5,0,.2-1.7l.2-.5h.9l2.5.3h0ZM553.3,57.9c0,1.2,0,2.3-.4,3.5-.4,1.3-1.2,2.8-1.4,2.8-1.4-.3-2.8-.8-4.1-1.5,0-.4,0-.8.3-1.2.3-1.2.5-2.4.6-3.6.4,0,.8,0,1.1,0,.6,0,1.5,0,2,0,1.6-.2,1.8,0,1.9.3h0ZM478.8,63.1c.8.7,1.6,1.4,2.3,2.2.7.9,1.2,1.9,1.6,2.9,0,0-.2,0-.4,0s-.4,0-.6.2c-.3.3-.4,1.7-.3,3.1v1.2c-.5,0-.9-.3-1.3-.5-.7-.2-1.3-.6-1.9-1.1-1.2-1.4-2-3.1-2.3-4.9l-.2-1,1.1-1.3c.4-.5.8-.9,1.2-1.3.2,0,.4.2.6.4h.2ZM533.8,64.1c.8,1.1,1,1.4,1,1.8-.2,1.9-.9,3.7-2.1,5.2-.5.6-1.1,1-1.8,1.2-1.8.7-1.6.7-1.5,0,.2-1.2.2-2.4,0-3.6,0-.2-.4-.4-.6-.4s-.4,0-.4-.2c.4-1,.9-2,1.6-2.9.6-.8,2.6-2.6,2.9-2.6.4.4.8.9,1.1,1.3l-.2.2ZM475,67.7c.3.4.6.9.8,1.4.2.6.5,1.1.8,1.7l.5.8-.3.2c-.4.2-.6,1-.4,2.5,0,.6.1,1.2.1,1.2,0,0-.4,0-1-.2s-1.4-.3-2-.4c-1-.2-1.1-.2-1.4-.7s-.7-1-1.1-1.4c-.6-.7-1.1-1.6-.9-1.7.4-.3,2.9-2.3,3.4-2.9.3-.3.5-.5.8-.8.2,0,.4.3.6.5h0v-.2ZM537.9,68.5c.8.7,1.7,1.5,2.1,1.9q.8.6.7,1c-.2.4-.4.8-.7,1.1-.3.4-.8,1-1.1,1.4-.3.5-.8.8-1.5.9-.9,0-1.8.4-2.7.7-.2,0-.2-.2,0-1.6,0-1.6,0-1.7-.3-2l-.4-.4.5-.8c.3-.6.6-1.1.9-1.7.3-.8,1-1.7,1.2-1.7,0,0,.6.6,1.4,1.3h0ZM484.3,70.1c1.9.7,3.6,1.9,4.9,3.5l.3.4h-.3c-.5.3-.6.9-.3,2,.4,1.3.9,2.5,1.6,3.6.1,0,.2.3.3.4-.5,0-1,0-1.4-.3-.8-.2-1.5-.4-1.7-.4-1.1-.6-2-1.3-2.7-2.2-.7-.9-1.3-1.9-1.7-3-.5-1.3-.8-4.3-.5-4.5.1,0,.4,0,1.7.5h-.2ZM528.3,71.1c0,3-1.4,5.8-3.8,7.6-.5.5-1.2.7-1.9.8-.6,0-1.1.2-1.6.4-.2,0-.4,0-.5,0,0,0,.3-.6.7-1.3.9-1.6,1.5-3.6,1.3-4.2,0-.2-.2-.4-.4-.5-.4,0-.3-.3.4-1.1,1.4-1.4,3-2.5,4.9-3.1,1.3-.5,1.2-.6,1.1,1.3h-.2ZM469.2,72.5c.5.4.9.9,1.4,1.4q.7.9.9,2.2c.1.8.3,1.6.5,2.4.2.6.4,1.1.4,1.1h-1.7q-1.7,0-2,.3l-.3.3-.8-.6c-1.4-1.2-2.5-2.8-3.1-4.5-.2-.7-.3-1-.1-1,.4,0,3.4-1.7,3.8-1.9.2,0,.3-.2.5-.3.3,0,.5.3.7.5h-.2ZM543.3,72.5c.5.3,1.5.8,2.3,1.2.5.2.9.4,1.3.7,0,0-.2.5-.3,1-.7,1.8-1.9,3.4-3.4,4.6l-.5.4-.4-.4q-.4-.4-2.1-.3c-1.2,0-1.7,0-1.7,0,.4-1.1.7-2.3.9-3.5,0-.5.2-1.1.4-1.6.7-.9,1.5-1.8,2.4-2.6.3,0,.7.3,1,.5h0ZM479.4,73.3c.7.2,1.3.5,1.9.9.6.2,1,.7,1.2,1.3.5,1.2,1.2,2.3,2.1,3.2l.6.6-.4.3q-.3.3-.3,1c0,.6.2,1.2.4,1.8.1.3.2.7.3,1-1-.4-2-.8-3-1.3-.7-.4-1.4-1-2-1.6-.7-.7-1.3-1.5-1.7-2.4-.7-1.3-1.1-2.8-1.2-4.2v-1.1h.4c.5.2,1,.4,1.6.6h.1ZM533.4,74c0,3.4-2,6.4-4.9,8.1-.9.5-1.9.9-2.9,1.1,0-.2,0-.4.2-.5.4-.9.5-1.8.6-2.8,0-.2-.2-.4-.4-.5l-.4-.2.5-.4c1-.9,1.7-2,2.3-3.2l.6-1.3,1.1-.6c1-.5,2.1-.9,3.3-1.1,0,.4,0,.9,0,1.3h0ZM492.1,75.2c1.5.2,3,.7,4.3,1.4,1.1.7,2.1,1.6,2.9,2.5l.3.4-.6.4c-.5.4-.6.5-.6.9v.4s-1,0-2.1.3c-2.4.3-2.2.3-3.5-1-.9-.9-1.6-1.9-2.1-3-.3-.8-.6-1.5-.8-2.3,0-.2,1.1-.2,2.4,0h-.2ZM521.2,75.3c-.3,1.3-.8,2.5-1.5,3.7-.5.7-1,1.3-1.6,1.9-.6.6-1.1.9-1.6.8-1.6-.2-4.5-.5-5.2-.5s-.9,0-.2-1.1c.6-1.1,1.5-2,2.5-2.7,2-1.4,4.3-2.2,6.8-2.2s.8,0,.8.3h0v-.2ZM474.9,76.2c1.8.4,1.9.5,2.3,1.5,1,2.5,2.9,4.5,5.2,5.7,1.2.6,1.2.8-.2,1.3-.4,0-.8.3-1.2.4,0,0-.3-.2-.5-.5-1.5-2-3.6-3.5-6-4.2-.8-.2-.8-.3-1.1-1-.4-.9-.7-1.9-.9-2.9v-.6h.6c.4,0,1.2.2,1.8.3h0ZM538.4,76.1c0,.9-.3,1.9-.7,2.7l-.4,1.1-1,.3c-2.1.6-3.9,1.8-5.3,3.5-.3.4-.6.7-.9.9-.8,0-1.6-.4-2.4-.8.3-.2.6-.4,1-.6,2.5-1.3,4.4-3.5,5.3-6.2.2-.4,1.2-.8,2.9-1.1,1.4-.3,1.5-.3,1.5,0h0ZM508.4,78.8c.5,0,1.1.3,1.3.4l.4.2-.4.7c-.2.3-.4.5-.6.7-.3,0-9.5.3-9.6.3-.2-.2,2.2-1.5,3.6-1.9,1.7-.5,3.5-.6,5.2-.2v-.2ZM489.2,80.8c1.2.3,3,1.1,2.9,1.2-.2,0-.5.2-.7.2-.4,0-1.6.3-2.7.6-1.6.4-2.1.4-2.1.3-.3-.8-.6-1.7-.8-2.5,0-.2.2-.2,1.2,0,.8,0,1.5.2,2.3.4h0ZM525.2,80.8c0,.2-.2.8-.4,1.3-.3.8-.3.9-.7.9-1.7-.2-3.4-.6-5-1,.7-.4,1.4-.7,2.1-.9,1.1-.3,2.1-.5,3.2-.6h.9v.4h0ZM473.9,81.2c1.5.5,2.8,1.2,4.1,2.1.7.6,2,2.1,1.9,2.1s-.9.4-1.8.8-2.1.9-2.6,1.1l-.8.4-.8-.5c-2.1-1.5-3.7-3.6-4.4-6.1v-.3c-.1,0,1.7,0,1.7,0,.9,0,1.8,0,2.7.3h0ZM541.4,80.9c-.2.8-.5,1.6-.9,2.4-.7,1.5-1.8,2.8-3.2,3.7l-.6.4-1.5-.7c-.9-.4-2.1-.9-2.7-1.1-.4,0-.8-.3-1.2-.6.3-.4.6-.8,1-1.1,2-2.1,4.9-3.2,7.8-3.1.5,0,.9,0,1.4,0h0ZM513.6,82.6c7.6.7,15.1,2.7,22,5.8l.7.3-.5.4c-2.9,2.1-6,3.9-9.3,5.3l-1.8.8-1.8-.7c-3.5-1.3-7.2-2.1-10.9-2.6-3.9-.3-7.8-.4-11.6,0-4.1.4-8.1,1.4-11.9,2.8l-1.4.5-1.2-.5c-2.2-1-4.3-2-6.3-3.2-1.4-.8-2.7-1.7-4-2.7,0-.3,4.3-2.1,7.5-3.1,5.9-1.9,12.1-3,18.3-3.4,4.1-.2,8.2,0,12.2.3h0ZM474.9,90c3.3,2.4,6.9,4.4,10.6,6,1.9.8,4.7,2.3,4.3,2.1-.9-.2-5.1-.6-6.8-.8-3.8-.2-7.6-.2-11.4,0-6.8.6-16.3,2.4-21.2,4.1l-.7.3v-.3c0-.2.5-1.4,1-2.9q.9-2.6.6-2.7c-.2,0-1.4-.5-2.8-1-.9-.3-1.7-.6-2.5-1,0-.2,7.5-2,11.8-2.9,5-1,10-1.6,15.1-1.9h.9l1.1.8v.2ZM542.6,89.5c5.9.6,11.7,1.6,17.5,3,1.9.4,3.8.9,5.6,1.6-.9.4-1.8.8-2.8,1-1.8.7-2.7,1-2.7,1.2s.4,1.4.9,2.8c.3.9.6,1.8.8,2.7-.7-.1-1.4-.3-2-.5-6.5-1.8-13.1-3-19.8-3.7-4-.3-8-.3-12,0-2.2.2-5.3.5-6.2.7-.5.1,2.1-1.2,3.9-2,4-1.7,7.7-3.8,11.2-6.3l.9-.7h1.6c.9,0,2.2.2,3,.3h0Z"/>
          <path d="M502.6,84.9c-1.6,0-1.7,0-1.7.6s.1.4.6.4h.6v1.6c.1.9.2,1.6.2,1.7h.9v-3.3h.4q.5,0,.5-.5t-1.5-.4h0Z"/>
          <path d="M505.2,85.6v1.4c0,.7.2,1.5.8,1.9.3,0,.7.2,1,.2s.8,0,1.1-.4c.4-.3.5-.5.5-1.4s.1-1.3.1-1.7q0-.6-.3-.7c-.8,0-.8,0-.8,1.4s-.1,1.9-.7,1.9-.7-.2-.7-1.9v-1.6h-1v.8h0Z"/>
          <path d="M509.6,85.2c-.1.4,0,.5.5.6h.5v1.3c0,.7-.1,1.4-.2,1.6,0,.4,0,.5.3.5h.5c.1,0,.2-.4.3-1.6v-1.7h.7q.6,0,.6-.4t-.9-.5c-.5,0-1.2,0-1.6-.2q-.7,0-.8.2v.2Z"/>
          <path d="M499.4,85.2q-.4,0-.4.3c0,.3.3,3.2.3,3.6s.1.3.5.3h.5c0-1.4-.2-2.7-.4-4.1h-.5Z"/>
          <path d="M496.3,85.6c-.4,0-.9.2-1.3.3v.4q0,.3.6.2h.6l.2,1.5c0,.6.2,1.1.3,1.6h.5c.4,0,.4,0,.4-.5q-.5-2.8.1-2.9c.4,0,.5,0,.5-.5s0-.5-1.9-.2h0Z"/>
          <path d="M513.5,87.3c0,.7-.2,1.4-.2,2.1.8.2,1.7.4,2.5.4,0,0,0-.2,0-.4,0-.4,0-.4-.7-.5h-.8v-1h.8l.8.2v-.4q0-.4-.7-.5t-.7-.5.6-.3c.3,0,.7,0,.8.2s.3,0,.3-.3v-.4c-.7-.2-1.4-.3-2.1-.4h-.4l-.3,1.9h0Z"/>
          <path d="M492.7,86.2c-.6.2-1,.7-1.2,1.3,0,.5.5,1,1.4,1.2.6,0,.8.2.8.5s-.1.4-1.1.5c-.4,0-.5,0-.5.4,0,.6.4.7,1.4.4.7,0,1.2-.7,1.2-1.3s-.4-1.1-1.3-1.3c-.3,0-.5,0-.8-.3-.2-.3.4-.7.9-.6s.4,0,.4-.4,0-.4-.4-.4-.6,0-.9,0h.1Z"/>
          <path d="M519.8,86.9c-.9.5-1.4,1.6-1.2,2.7.3,1.1,1.4,1.6,2.5,1.3.5-.2,1-.6,1.2-1.1.6-1.2.2-2.4-.7-2.9-.6-.3-1.3-.3-1.8,0ZM521.3,87.6c.5.3.5,1.3,0,2.1-.2.4-.8.6-1.2.3-.3-.2-.5-.5-.4-.9,0-.5.2-1,.5-1.4.3-.2.7-.3,1.1,0h0Z"/>
          <path d="M489.7,87c-.2,0-.3,0-.3.2s.5,1.7.7,2.1c0,0-.4-.2-1-.8-.4-.4-.8-.7-1.2-1-.3,0-1,.3-1,.5s.3,1,.6,2c.2.6.4,1.2.6,1.8.2,0,.3,0,.5,0h.3c0,0-.3-1.1-.3-1.1-.2-.6-.4-1.2-.4-1.3s.2,0,1,.8l1.1,1.1h.5c0,0,.5-.3.5-.3l-.2-.6c-.1-.3-.4-1.2-.6-2-.1-.5-.3-.9-.5-1.4h-.4,0Z"/>
          <path d="M523.5,89.7c-.3.6-.5,1.3-.6,2,0,0,.3.2.5.2.3,0,.4,0,.6-.6.3-.8.4-.8,1.1-.5.6.2.7.2.8-.2,0-.2,0-.3-.6-.6-.4-.2-.7-.3-.7-.3,0,0,0-.3,0-.4.2-.4.3-.4,1.2,0,.4.2.5.2.6-.2,0,0,0-.3,0-.4,0,0-2.1-.9-2.3-.9-.3.6-.6,1.2-.8,1.9h0Z"/>
          <path d="M485,88.6l-.3.2.7,1.8c.2.7.5,1.3.8,1.9h.5l.4-.2-.7-1.9c-.2-.7-.5-1.3-.9-1.9-.2,0-.4,0-.5.2h0Z"/>
          <path d="M473.3,91.5c0,0,0,.7.1,1.2,0,.3.1.7.1,1-.3-.2-.5-.5-.6-.8-.9-1.4-1-1.5-1.6-1.5s-.6,0-.3,2.4c.1,1,.2,1.5.3,1.5h.5c.2,0,.3-.1.2-.4,0-.2-.1-.8-.2-1.3v-1l.6,1c1.2,1.8,1.2,1.7,1.7,1.6.2,0,.3,0,.5,0,0,0,0-.8-.2-1.8s-.2-1.8-.2-1.9-.2,0-.4,0-.4,0-.4.2h-.1Z"/>
          <path d="M467.5,91.8h-.3s-.1.9-.3,2l-.2,2h.5c.4,0,.5,0,.5-.6s.2-.6.3-.6h.6q.4,0,.6.4c.2.4.3.5.9.4.3,0,.3-.2-.7-1.9q-1-1.9-1.9-1.7ZM468.5,93.9s-.2,0-.4,0q-.3,0-.3-.5v-.7c0,0,.2,0,.3.4.1.2.2.5.3.7h.1Z"/>
          <path d="M464.2,92.4c0,.2.8,3.8.9,3.8h.4c.5,0,.5-.1,0-2.2l-.4-1.7h-1,.1Z"/>
          <path d="M460.4,93c-.4,0-.6.2-.6.4s.2,1,.4,1.9l.4,1.6h.7c.8,0,1.6-.3,2.1-.9.3-.7.3-1.5,0-2.1-.5-.9-1.6-1.2-3-.8h0ZM462.3,93.9c.5.4.6,1.2.2,1.7-.2.2-.4.4-.7.4h-.4l-.3-1.1c-.3-1.3-.3-1.4.4-1.4s.6.2.8.4h0Z"/>
          <path d="M457.9,93.5c-.1,0-.1.4.1,1.3l.3,1.2-.6-.7c-.4-.4-.8-.9-1-1.1-.3-.4-.4-.4-.9-.3h-.6c0,0,.3,1.5.3,1.5.6,2.3.6,2.4.8,2.4.6,0,.6-.2.2-1.5l-.3-1.3.3.4c.2.2.7.8,1.1,1.2.7.7.8.8,1.2.7.2,0,.3,0,.5-.1,0,0-.2-.9-.5-1.9-.4-1.5-.5-1.9-.7-1.9h-.4.2Z"/>
          <path d="M453.5,94.3c-.2,0-.1.4.3,2l.5,1.9h.4c.2-.1.3-.2.5-.2,0,0-.2-.9-.4-1.9-.4-1.5-.5-1.8-.7-1.9-.2,0-.3,0-.5,0h0Z"/>
          <path d="M536.7,91.7c-.5.2-.9.6-1,1.1,0,.3.5.9.7.9s1.1.5,1.1.6c0,.3-.5.5-1.2.4s-.6,0-.7.2c0,.4,0,.5.9.5,1.3,0,2-.7,1.8-1.6,0-.3-.3-.4-.9-.7-1.2-.5-1.1-.9.2-.9s.6,0,.6-.3-.6-.6-1.6-.3h.1Z"/>
          <path d="M540.1,91.9c-.6.3-1,.9-1.1,1.6,0,1.3.6,2,2.1,2s.8,0,.8-.3,0-.3-.7-.3-.8,0-1.1-.4c-.3-.2-.4-.6-.3-.9,0-.9.6-1.2,1.6-1.2s.7,0,.8-.2v-.4c0-.3-1.7-.2-2.2,0h.1Z"/>
          <path d="M543.2,92c0,.3-.6,3.3-.6,3.5s.2.2.5.2h.5l.3-1.8c0-.6.2-1.3.2-1.9,0-.2-.8-.2-.8,0h-.1Z"/>
          <path d="M545,92.2c0,.4-.8,3.5-.7,3.6.4,0,.8.2,1.3.2,1.3.2,1.4.1,1.4-.4s-.6-.3-1.3-.3-.5-.1-.3-.6c0-.3.2-.3.9-.3s.8,0,.8-.3,0-.3-.7-.4-.7,0-.7-.4,0-.5.9-.4c.6,0,.7,0,.8,0,.2-.5,0-.5-.9-.6-.4,0-.8,0-1.2-.2,0,0-.2,0-.3.2Z"/>
          <path d="M548.4,92.5c-.3,1.2-.6,2.4-.8,3.6,0,.1,0,.2.4.2s.4,0,.6-1c0-.4.2-.8.2-1.2,0-.6.2-.2.6,1.1s.5,1.4.9,1.5h.5s.9-3.4.9-3.7-.2,0-.4,0q-.4,0-.6.5c0,.3-.2.8-.2,1.2s0,.6-.2.5c-.2-.4-.4-.9-.5-1.3-.3-.8-.5-1.2-.6-1.2h-.9,0Z"/>
          <path d="M553.3,93.4c-.6.2-1.1.7-1.3,1.3-.3.6-.2,1.2,0,1.8.5.4,1.2.7,1.9.7s.6,0,.6-.3,0-.3-.3-.3c-.5,0-1-.2-1.3-.6-.2-.3-.2-.6,0-.9,0-.3.3-.6.5-.8.5-.3,1.1-.3,1.6,0,.2,0,.3,0,.4-.2.2-.4,0-.5-.6-.7-.5-.2-1,0-1.5,0h-.1Z"/>
          <path d="M555.7,95.5c-.8,2-.9,1.9.8,2.3.9.2,1,.2,1.1,0,.2-.4,0-.5-.6-.7s-.8-.2-.6-.7q.2-.3.9-.1c.6.2.7.2.8,0,.2-.4,0-.5-.5-.7s-.7-.4-.5-.8c0-.2.2-.2.8,0s.7.2.9,0,0-.3,0-.4c-.7-.3-1.5-.5-2.3-.7,0,0-.4.9-.7,1.9h-.1Z"/>
          <path d="M473.9,103.5c-.6.3-.9,1-.7,1.6v.6h-16v1.1h1.8v1.8h-2c0,.1,0-1.1,0-1.1-.2-1.4-.4-1.9-.9-2.1-.7-.4-1.6-.2-2,.5-.1.2-.2.5-.2.8s.1.8.4,1c.2.2.4.3.7.4.2,0,.3,0,.3-.5s0-.5-.2-.5-.2-.1-.2-.4.1-.4.4-.4.3,0,.3,1.2v1.2h-.6c-.7,0-1.2.7-1.2,1.3h0c-.1.4,0,.8.3,1.1.4.5,1.2.7,1.8.4.6-.2.9-.6,1-1.3v-.6h2.1v2.6h1.1v-5.6h1.7v5.6h1.1v-2.9c0-2.5,0-2.8.2-2.7h3.5v2c0,.4-.4.4-.8,0l-.3-.4-.4.4-.4.4,1.6,1.9c1.7,2,1.8,2,2.3,1.4.2-.2,0-.4-.7-1.3l-.9-1.1.4-.3c.3-.3.4-.5.5-1.6,0-.4,0-.8.1-1.3h6v.7c0,.8.1.7-1.6.7s-2.2.2-2.5.7c-.4.6-.5,1.4-.2,2.1.4.7.9,1.4,1.5,1.9.2,0,.3-.2.5-.3l.4-.3-.6-.6c-.8-.7-1-1.4-.7-2,.2-.3.3-.3,1.7-.3h1.5v3h1.1v-5.6h.9c.4,0,.7.1,1.1.2.2,0,.2.6.2,2.6v2.7s.2.2.5.2h.4v-5.5h1.4c1.3,0,1.4,0,1.7.3.3.3.3.8,0,1.1-.2.2-.3.3-.8.3s-.9.2-.9.6,1.2,1.5,1.7,1.7c.8.4,1.4.3,2.7-.2q.2,0,.2.8v.9h1.1v-5.5h1.7c.5,0,.7-.3.7-.6v-.5h-9.8s-.3-.4-.6-.9c-.3-.4-.7-.8-1.1-1.2-.6-.4-1.4-.5-2.1-.2h-.2ZM475.8,104.9c.2.2.4.5.5.7,0,0-.4.1-.9.1-.8,0-.9,0-1.1-.4-.3-.6-.2-1,.4-1s.6,0,1,.5h.1ZM483.4,106.8h.6v2.3l-.5.4c-.6.5-1.4.6-2.1.3l-.6-.2.4-.2c.3-.1.5-.3.8-.6s.3-.5.3-1.3,0-.9.3-.8h.9,0ZM455.7,110.2c0,.5-.3.8-.7.5-.3-.2-.3-.5-.2-.8.1-.2.3-.3.5-.3q.3,0,.3.5h.1Z"/>
          <path d="M493,103.5c-.7.2-1.1.9-1,1.7,0,.5,0,.7-.2.6s-.2,0-.2.5,0,.6.6.6h.5v5.5h1.1v-5.5h5.1v2.8l-.5.3c-1,.7-2.1.5-2.1-.5s.3-1,.9-1,.7-.1.6-.7q0-.3-.7-.3c-1.1,0-2,.8-2,1.9s.2,1,.5,1.3c.8.8,2,.9,2.9.4l.4-.2v1.5h1.1v-5.5h7.7v.8h-3.8v.5c0,.4,0,.5.4.6.6.1.8.3.8.7s0,.4-.6.4-1.3-.4-1.6-.9c-.1-.2-.2-.1-.5.1-.1.1-.3.3-.3.5.4.6.9,1.1,1.4,1.7l1.4,1.5.4-.4.4-.4-.4-.5c-.5-.5-.5-.7,0-.7s.5-.2.6-.4c.3-.3.4-.4.3-1v-.6h1.3v3.7h1.1v-5.5h1.6v5.5h1.1v-5.5h5.8q.4,0,.4.7t-.2.7c-1.2,0-2.4,0-3.6.3-.8.6-.9,1.7-.3,2.4h0c.6.6,1.5.5,2,0h0c.2-.6.2-1.3,0-1.3-.4,0-.8.2-.8.4s-.2.4-.3.4h-.2c-.3-.1-.2-1,0-1.1.6,0,1.1-.1,1.7,0h1.5v3h1.1v-5.6h2.3v-1h-21.8l-1-.7c-2.2-1.6-4-2.1-5.4-1.5l.4-.2ZM496.3,104.9q1.6.8-.2.8h-2.1c-.7,0-1.1-.1-1.1-.5s.3-.8.9-.9c.9,0,1.7,0,2.5.5h0Z"/>
          <path d="M531.6,103.9l-.5.5.5.5.5.5.5-.5.5-.5-.5-.5c-.2-.2-.4-.3-.6-.5-.2.1-.4.3-.6.5h.2Z"/>
          <path d="M540.7,105.4c-.4.3-.7.3-7.9.3h-7.5v1.1h2c0,.7,0,1.4,0,2.1,0,.4-.4.4-.7,0l-.2-.3-.4.3c-.3.2-.4.4-.3.5.9,1.2,1.9,2.3,3,3.3.3-.2.6-.5.6-.6-.2-.3-.4-.7-.7-1l-.8-.9.3-.3c.3-.3.4-.3,1.7-.3h1.3v2.6h1.1v-5.6h1.9c.7,0,1.3,0,2,.1,0,.7,0,1.4,0,2.1,0,.4-.4.3-.7,0l-.3-.3-.4.3c-.4.3-.4.4-.3.5.7.9,2.8,3.3,2.9,3.3.2,0,.3-.2.4-.3.4-.4.4-.3-.7-1.5l-.6-.7.3-.3c.3-.3.5-.3,2-.3h1.7l.5.4c.9,1,2.4,1.2,3.6.5l.6-.3v1.9h1.1v-5.6h1.5v5.6h1.1v-2.9c0-2.5,0-2.8.2-2.7s1.5,0,3.2,0h2.9v1.4h-1.7c-.7,0-1.4.1-2.1.3-.6.4-.9,1-.8,1.7.2,1.7,2.7,1.8,2.7,0s-.2-.5-.6-.4c-.2,0-.3.2-.3.3,0,.2,0,.3-.3.4h-.2c-.2-.1-.2-.8,0-1,.6-.1,1.2-.2,1.8-.1h1.6v3h1.1v-5.5h.8c1.5,0,1.4,0,1.5-.6v-.5h-14.7v1.1h1.2v1.1c0,1.3,0,1.4-1,1.8-.6.3-1.4.3-2,0l-.4-.3h.3c.6-.5,1.1-1.1,1.4-1.8.3-.9,0-1.8-.9-2.2-.5-.3-1.2-.2-1.7.1v.2ZM542.2,106.5c.2.4.2.9,0,1.3-.2.5-.7.8-1.3.7h-.6c-.5,0-1,.1-1.6,0h-1.5v-1.8h1.4c.9,0,1.5.1,1.8.4.2.2.4.4.7.5.3,0,.4,0,.4-.4s0-.4-.2-.5c-.3-.2-.3-.5,0-.6.3,0,.7,0,.9.3h0ZM530.9,107.7c0,.5,0,.9,0,1h-2.2c0,0,0-.3,0-.9v-.9h2.1q.3,0,.3.9h0Z"/>
        </g>
        <rect x="395" y="-1.1" width="1.6" height="116.3" rx=".8" ry=".8"/>
      </g>
    </g>
  </g>
</svg>