<?xml version="1.0" encoding="UTF-8"?>
<svg xmlns="http://www.w3.org/2000/svg" version="1.1" viewBox="0 0 595.3 179.7">
  <defs>
    <style>
      .cls-1 {
        isolation: isolate;
      }

      .cls-2 {
        fill: #fff;
      }
    </style>
  </defs>
  <!-- Generator: Adobe Illustrator 28.6.0, SVG Export Plug-In . SVG Version: 1.2.0 Build 709)  -->
  <g>
    <g id="Layer_1">
      <g id="Layer_1-2" data-name="Layer_1">
        <g id="Layer_1-2">
          <g>
            <g class="cls-1">
              <g class="cls-1">
                <g class="cls-1">
                  <path class="cls-2" d="M32.1,18.7l49.2,74.4,49.5-74.5c3.3-4.9,7.7-7.4,13.1-7.4,9.1,0,14,3.6,14,10.6s-.9,5.2-3.6,9.1l-58.6,84c-3.3,4.6-8,6.9-13.9,6.9s-10.7-2.4-13.9-6.9L9.3,30.9c-2.8-3.9-3.8-6.3-3.8-9.1,0-6.9,4.9-10.6,14-10.6s9.3,2.5,12.6,7.6Z"/>
                  <path class="cls-2" d="M176.2,22c0-7.2,4.6-10.9,13.6-10.9s13.1,3.6,13.1,10.9v88.9c0,7.2-4.4,10.9-13.4,10.9s-13.2-3.6-13.2-10.9V22Z"/>
                  <path class="cls-2" d="M349.7,92.6c0,18.9-16.7,28.4-50.1,28.4h-63c-8,0-12.1-3.5-12.1-10.6s4.1-10.2,12.1-10.2h63c15.6,0,23.5-3.3,23.5-9.8v-6.5c0-6-6.8-8.8-20.3-8.8h-32.3c-30.1,0-45.2-8.5-45.2-25.4v-10.2c0-18.4,15.4-27.6,46.2-27.6h14.8c7.9,0,11.8,3.5,11.8,10.4s-3.9,10.4-11.8,10.4h-14.7c-13.1,0-19.5,2.8-19.5,8.2v6.5c0,4.9,6,7.4,18,7.4h30.1c33.1,0,49.6,9.3,49.6,27.6v10.2Z"/>
                  <path class="cls-2" d="M380.6,32.7h-36.7c-7.9,0-12-3.5-12-10.4s3.9-10.4,12-10.4h100.1c8,0,12.1,3.5,12.1,10.2s-4.1,10.6-12.1,10.6h-36.6v78.2c0,7.2-4.4,10.9-13.2,10.9s-13.6-3.6-13.6-10.9V32.7Z"/>
                  <path class="cls-2" d="M550.5,95h-73.3l-12.8,19.2c-3.3,5-7.6,7.6-12.9,7.6-9.1,0-14.2-3.6-14.2-10.6s.9-5,3.8-9.1l58.5-84c3.2-4.6,8-6.9,14-6.9s10.6,2.4,13.7,6.9l58.6,84c2.8,4.1,3.8,6.3,3.8,9.1,0,6.9-4.7,10.6-14,10.6s-9.1-2.5-12.4-7.6l-12.8-19.2ZM490.1,75.6h47.4l-23.8-35.6-23.6,35.6Z"/>
                </g>
              </g>
            </g>
            <g class="cls-1">
              <g class="cls-1">
                <g class="cls-1">
                  <path class="cls-2" d="M462.3,176.5c-10.3,0-15.5-3.3-15.5-10v-21.9c0-2.3,1.4-3.5,4.3-3.5s4.3,1.2,4.3,3.5v21.6c0,2.3,2.5,3.6,7.5,3.6h20.5c2.5,0,3.9,1.1,3.9,3.3s-1.3,3.4-3.9,3.4h-21Z"/>
                  <path class="cls-2" d="M528.1,168.1h-23.6l-4.1,6.2c-1.1,1.6-2.4,2.4-4.2,2.4-2.9,0-4.6-1.2-4.6-3.4s.3-1.6,1.2-2.9l18.8-27.1c1-1.5,2.6-2.2,4.5-2.2s3.4.8,4.4,2.2l18.9,27.1c.9,1.3,1.2,2,1.2,2.9,0,2.2-1.5,3.4-4.5,3.4s-2.9-.8-4-2.4l-4.1-6.2ZM508.7,161.9h15.3l-7.7-11.5-7.6,11.5Z"/>
                  <path class="cls-2" d="M590.1,168.4c0,5.4-4.6,8.1-13.6,8.1h-26.1c-2.4,0-3.7-1.1-3.7-3.1v-28.9c0-2.1,1.3-3.1,3.7-3.1h25.1c9.3,0,14,2.9,14,8.9v2.7c0,2.3-1.2,4.2-3.5,5.7,2.7,1.6,4.1,3.7,4.1,6.2v3.6ZM581,150.6c0-1.7-1.7-2.6-5.3-2.6h-20c-.3,0-.5.2-.5.5v7.2h20.6c3.5,0,5.2-.8,5.2-2.4v-2.6ZM581.5,164.3c0-1.7-1.7-2.5-5.3-2.5h-20.9v7.5c0,.3.2.5.5.5h20.4c3.6,0,5.3-.8,5.3-2.4v-3Z"/>
                </g>
              </g>
            </g>
          </g>
        </g>
      </g>
    </g>
  </g>
</svg>